<svg width="97" height="97" viewBox="0 0 97 97" fill="none" xmlns="http://www.w3.org/2000/svg">
<path d="M48.5 97C75.2858 97 97 75.2858 97 48.5C97 21.7142 75.2858 0 48.5 0C21.7142 0 0 21.7142 0 48.5C0 75.2858 21.7142 97 48.5 97Z" fill="white"/>
<g clip-path="url(#clip0_1462_719)">
<path d="M65.7536 64.1226C64.8584 61.6395 63.0549 60.1346 60.4406 59.6178C58.407 59.2167 56.3586 58.8841 54.3201 58.5058C54.1579 58.4748 53.8932 58.5547 53.8419 58.2678C53.7922 57.9922 53.9296 57.8455 54.1612 57.7085C54.7817 57.345 55.4287 56.9537 55.8258 56.3765C56.4893 55.4113 57.3646 55.289 58.4384 55.3216C60.5316 55.3852 61.7643 54.1395 61.7643 52.0917C61.7676 48.3695 61.7643 44.6472 61.7659 40.925C61.7659 40.0168 61.6915 39.1136 61.5127 38.2233C60.2288 31.8174 54.2423 27.4674 47.5493 28.0642C41.1608 28.6332 36.0711 34.1179 36.0033 40.5304C35.9785 42.8342 35.9901 45.1396 36 47.4434C36.0066 49.2499 37.0292 50.6439 38.7698 51.2341C39.0329 51.3238 39.1785 51.4265 39.2547 51.733C39.8851 54.2716 41.3312 56.2575 43.5501 57.6857C43.785 57.8373 43.9852 57.9661 43.9157 58.271C43.8496 58.5596 43.5683 58.4895 43.383 58.5238C41.5397 58.8629 39.6964 59.2036 37.8466 59.502C34.9592 59.9699 32.9538 61.4846 31.9461 64.2188C31.8187 64.5645 31.7095 64.915 31.5904 65.2639C31.5077 65.2346 31.463 65.2313 31.4398 65.2069C30.4206 64.2074 29.3997 63.208 28.3837 62.202C27.7434 61.5678 27.7483 61.0786 28.3986 60.4346C29.5271 59.3178 30.6555 58.2026 31.7939 57.0955C32.0057 56.8901 32.1116 56.7645 31.8369 56.4971C29.4807 54.1966 27.1411 51.8798 24.7866 49.5564C23.2593 51.0564 21.7371 52.5319 20.2347 54.0303C19.2535 55.0086 18.6777 56.2004 18.4146 57.5504C18.3815 57.7248 18.4725 57.9564 18.2441 58.0738V58.5466C18.4361 58.664 18.4344 58.783 18.2441 58.9004V59.4906C18.3252 59.5705 18.2987 59.6716 18.307 59.7678C18.4295 61.1324 18.9722 62.3373 19.9368 63.2944C24.5863 67.9166 29.2541 72.521 33.9499 77.0992C34.9609 78.0856 36.1985 78.7263 37.6927 78.697C37.8863 78.7247 38.0931 78.635 38.2768 78.7573H38.9965C39.1885 78.6187 39.4251 78.759 39.622 78.6611C40.9126 78.5291 42.0626 78.035 43.0222 77.2003C44.7315 75.7166 46.3911 74.1775 48.0805 72.6726C48.2989 72.4786 48.2939 72.3644 48.0887 72.1753C47.69 71.8068 47.3127 71.4155 46.8444 70.9525H47.6072C54.2423 70.9525 60.879 70.9476 67.5141 70.9623C67.984 70.9623 68.0866 70.9003 67.9195 70.4258C67.1799 68.3308 66.5114 66.2112 65.7585 64.121L65.7536 64.1226ZM58.0281 53.3341C58.2051 52.7211 58.3143 52.0803 58.5807 51.5097C58.7644 51.1167 59.3253 51.1771 59.734 50.9243C59.8747 53.176 59.6563 53.4743 58.0298 53.3341H58.0281ZM58.8306 49.1472V45.8831C60.0848 46.8222 60.0815 48.2488 58.8306 49.1472ZM38.9585 49.1015C37.8234 48.7347 37.5587 46.6624 38.9585 45.8847V49.1015ZM38.9883 42.9777C39.1388 43.7537 38.6507 43.9445 38.065 44.0668C37.6116 39.4478 38.2288 35.1777 42.319 32.1272C48.9061 27.2147 58.4682 31.087 59.6447 39.1347C59.8846 40.7782 59.7075 42.4282 59.7704 44.0863C59.092 43.9527 58.6105 43.7325 58.7743 42.9434C58.8587 42.5358 58.503 42.6467 58.2945 42.6483C56.9063 42.6614 55.5445 42.5179 54.2274 42.063C52.639 41.5152 51.2425 40.6625 50.0511 39.4902C49.6706 39.1152 49.3016 38.7255 48.8399 38.2511C48.562 38.5706 48.3286 38.8641 48.0689 39.1331C45.7524 41.5298 42.9163 42.7054 39.5541 42.6516C39.3241 42.6483 38.8923 42.4885 38.9883 42.9793V42.9777ZM40.9506 49.5956C40.9126 48.0613 40.9506 46.5255 40.9341 44.9896C40.9308 44.67 41.0251 44.5396 41.356 44.507C44.1242 44.2315 46.5367 43.1554 48.6 41.326C48.8449 41.1092 48.9756 41.1744 49.1824 41.3554C51.2226 43.1456 53.597 44.2103 56.3189 44.5021C56.5902 44.5315 56.8119 44.5461 56.8053 44.9293C56.7739 46.6803 56.7921 48.4331 56.7458 50.1825C56.7193 51.1771 56.3784 52.1015 55.9416 52.9966C55.7977 53.2901 55.6239 53.3798 55.3013 53.3765C53.3438 53.3618 51.3864 53.383 49.429 53.3586C48.9872 53.3537 48.8499 53.4531 48.8565 53.9064C48.8747 55.3412 48.8532 55.3412 50.3142 55.3412H53.9097C51.6313 57.2569 49.0534 57.7754 46.2372 56.8265C43.1 55.77 41.0334 52.9118 40.9523 49.5939L40.9506 49.5956ZM51.8431 58.9526C51.1084 59.639 50.3672 60.3156 49.6424 61.0118C48.8697 61.7536 48.878 61.7601 48.1284 61.0232C47.4418 60.3482 46.7518 59.6748 46.0635 58.9998C47.0629 59.0814 47.9994 59.2591 48.9591 59.2428C49.8989 59.2265 50.8189 59.0814 51.7239 58.8286L51.8431 58.9526ZM24.0271 53.0178C24.7684 52.3102 24.7551 52.2972 25.4666 52.9982C26.6232 54.1379 27.7781 55.2776 28.9364 56.4156C29.0472 56.5249 29.1813 56.6129 29.5023 56.8656C29.264 56.97 29.1018 56.996 29.0092 57.089C28.2431 57.8553 28.248 57.8602 27.4902 57.1134C26.3336 55.9738 25.1886 54.8243 24.0138 53.7026C23.721 53.4222 23.7524 53.277 24.0254 53.0178H24.0271ZM42.4977 75.0579C41.4288 76.116 40.2028 76.8187 39.1041 76.7992C37.3187 76.7959 36.1555 76.3688 35.224 75.4541C30.6903 71.0079 26.15 66.5666 21.6593 62.0781C19.6307 60.0515 19.8839 56.7384 22.0878 54.9303C22.2434 54.8031 22.3212 54.7803 22.4668 54.9254C23.8484 56.295 25.2316 57.6596 26.6232 59.0194C26.7969 59.189 26.7456 59.2819 26.6232 59.4547C25.5642 60.9335 25.6867 62.3031 26.9839 63.583C29.2143 65.7857 31.4498 67.9851 33.6835 70.1846C35.0039 71.484 36.407 71.6112 37.9161 70.5481C38.1163 70.4063 38.2056 70.4324 38.3529 70.5791C39.7213 71.9324 41.0929 73.2824 42.4679 74.6307C42.6119 74.7709 42.6897 74.8671 42.4977 75.0563V75.0579ZM44.8638 72.9171C44.4039 73.34 43.9566 73.3372 43.5219 72.909C42.3356 71.74 41.1575 70.5612 39.9562 69.4085C39.6766 69.1411 39.6567 69.0041 39.9628 68.7335C40.9225 67.8905 40.9076 67.8775 41.7978 68.7547C42.8981 69.8405 44.0018 70.9264 45.1021 72.0123C45.2113 72.1199 45.3156 72.234 45.4479 72.3742C45.2345 72.5715 45.0492 72.7459 44.8622 72.9171H44.8638ZM64.7029 69.0025C61.4664 68.9764 58.2283 68.9894 54.9918 68.9894C51.7554 68.9894 48.7175 68.9748 45.5803 69.0025C45.031 69.0074 44.657 68.846 44.2847 68.4612C43.3217 67.4634 42.3041 66.5145 41.3329 65.5232C41.0665 65.2509 40.9176 65.2395 40.6297 65.5036C39.387 66.6433 38.1196 67.7585 36.8571 68.8769C36.1936 69.4655 35.7435 69.4492 35.1032 68.8231C34.5505 68.2818 34.0128 67.7259 33.4436 67.2009C33.207 66.984 33.1375 66.7933 33.2566 66.4884C33.4701 65.9389 33.6388 65.3732 33.8374 64.8188C34.5919 62.7139 36.1936 61.7178 38.3578 61.3852C40.2888 61.0884 42.2065 60.715 44.1275 60.3564C44.4618 60.2944 44.6802 60.3743 44.9135 60.6091C46.1181 61.8172 47.3475 63.0009 48.5487 64.2107C48.8002 64.4634 48.9342 64.4895 49.2006 64.2188C50.3986 63.0042 51.6313 61.8237 52.8326 60.6123C53.089 60.3547 53.324 60.3025 53.6764 60.3694C55.753 60.7607 57.8345 61.1275 59.9144 61.4977C61.9181 61.8547 63.2634 62.9764 63.9351 64.8677C64.3488 66.0351 64.7145 67.2188 65.1397 68.3813C65.3134 68.8574 65.2737 69.0041 64.7029 68.9992V69.0025Z" fill="#404041"/>
<path d="M18.2393 58.5482V58.902C18.3286 58.7846 18.3286 58.6656 18.2393 58.5482Z" fill="#404041"/>
<path d="M79.56 21.0844C79.5352 19.4426 78.2512 18.2507 76.5783 18.2475C71.9834 18.236 67.3869 18.2377 62.792 18.2475C61.1042 18.2507 59.802 19.4654 59.7772 21.1284C59.7375 23.7664 59.7392 26.4045 59.7772 29.0425C59.8004 30.567 60.9139 31.7229 62.4544 31.8762C63.2073 31.9512 63.9717 31.9316 64.7295 31.9072C65.216 31.8909 65.494 31.9284 65.2871 32.5251C65.1531 32.9115 65.1349 33.3354 65.0654 33.7414C64.8404 35.0571 64.6154 36.3729 64.3787 37.7588C64.6038 37.6365 64.761 37.5582 64.9099 37.4669C67.2264 36.0403 69.5826 34.6707 71.8411 33.1593C73.2178 32.2381 74.6143 31.6773 76.2871 31.9088C76.5006 31.9381 76.7256 31.9055 76.944 31.8778C78.4646 31.6822 79.5401 30.5718 79.5616 29.0572C79.598 26.3996 79.6014 23.7404 79.5616 21.0844H79.56ZM76.35 29.9295C74.2271 29.6718 72.4318 30.2849 70.7474 31.5354C69.6239 32.3702 68.3648 33.0273 67.0708 33.8245C67.3041 32.4615 67.5159 31.2273 67.7343 29.9474C66.1293 29.9474 64.574 29.9474 63.017 29.9474C62.0821 29.9474 61.7661 29.6343 61.7644 28.7066C61.7611 26.2855 61.7611 23.8626 61.7644 21.4415C61.7644 20.5154 62.0788 20.2023 63.0219 20.2023C67.458 20.1991 71.8941 20.1991 76.3302 20.2023C77.2667 20.2023 77.6059 20.5333 77.6075 21.4349C77.6108 23.8561 77.6108 26.2789 77.6075 28.7001C77.6075 29.6132 77.2551 30.0387 76.35 29.9295Z" fill="#2F9FEE"/>
<path d="M21.539 45.5342C21.7309 45.8554 21.8616 45.919 22.2041 45.7087C23.5576 44.8788 24.9392 44.0913 26.2993 43.2696C26.718 43.0168 27.4113 42.8636 27.4692 42.4658C27.5254 42.0842 27.0141 41.6391 26.8057 41.1973C26.6352 40.837 26.4615 40.8842 26.1786 41.0603C25.4638 41.5054 24.7308 41.9245 23.9216 42.4038C23.9696 42.1658 23.9895 42.0321 24.0242 41.9033C27.5056 28.6691 41.7007 20.4452 55.1197 23.874C55.5714 23.9898 56.129 24.3664 56.455 24.1398C56.771 23.9213 56.781 23.2936 56.9597 22.8599C57.1202 22.4719 56.9895 22.3512 56.599 22.242C52.2953 21.0322 47.932 20.7827 43.5621 21.6958C34.3425 23.6213 27.7058 28.8321 23.6437 37.2109C22.8759 38.794 22.3431 40.4669 21.8848 42.2783C21.4744 41.6114 21.1286 41.0424 20.7762 40.4783C20.5263 40.0788 20.3427 39.4576 19.9935 39.3468C19.5882 39.2163 19.1712 39.7837 18.7211 39.9745C18.3422 40.1342 18.3505 40.3054 18.554 40.6315C19.5667 42.2538 20.5611 43.8891 21.539 45.5326V45.5342Z" fill="#404041"/>
<path d="M78.7244 39.6207C77.0383 38.6473 75.3605 37.6577 73.6959 36.6501C73.3882 36.4642 73.2558 36.4723 73.0672 36.7903C72.2548 38.1664 71.4092 39.5245 70.5819 40.8908C70.3387 41.2935 69.8704 41.7566 69.9432 42.1006C70.0293 42.5065 70.7308 42.6093 71.1147 42.9142C71.4572 43.1864 71.6028 43.0348 71.7815 42.725C72.2349 41.9408 72.7214 41.1761 73.2409 40.3267C73.3154 40.5305 73.37 40.6576 73.4097 40.7881C75.8486 48.888 74.6242 56.4124 69.753 63.3646C69.4866 63.7461 68.9008 64.0966 69.0183 64.5026C69.1259 64.8776 69.7133 65.1075 70.0624 65.4271C70.3238 65.6667 70.4661 65.6781 70.7044 65.3667C75.9032 58.5662 77.6819 51.0011 75.9479 42.6517C75.756 41.7288 75.4813 40.8223 75.2298 39.8473C75.789 40.1783 76.2838 40.4734 76.7818 40.7604C77.2054 41.0049 77.7101 41.4973 78.0443 41.4044C78.4001 41.3066 78.5804 40.6381 78.8716 40.2419C79.09 39.9451 79.0437 39.8049 78.7211 39.6191L78.7244 39.6207Z" fill="#404041"/>
<path d="M75.0995 22.1359C71.7852 22.1539 68.4694 22.1457 65.1535 22.1457C63.709 22.1457 63.7239 22.1457 63.7139 23.587C63.7106 23.9979 63.8215 24.1202 64.2451 24.1153C66.042 24.0925 67.8389 24.1055 69.6375 24.1055H74.1315C75.629 24.1055 75.6107 24.1055 75.6273 22.6479C75.6323 22.2289 75.5131 22.1327 75.0995 22.1359Z" fill="#2F9FEE"/>
<path d="M71.2491 26.0409C70.0727 26.0572 68.8946 26.0474 67.7165 26.0474C66.8776 26.0474 66.0403 26.0474 65.2014 26.0474C63.7057 26.0474 63.7222 26.0474 63.7139 27.4985C63.7106 27.9175 63.8364 28.0235 64.2517 28.0202C66.2075 27.999 68.1632 28.0104 70.119 28.0104C71.719 28.0104 71.7091 28.0104 71.6611 26.4273C71.6512 26.1094 71.5552 26.036 71.2508 26.0409H71.2491Z" fill="#2F9FEE"/>
<path d="M74.6584 26.0474C73.9845 26.0474 73.6475 26.3821 73.6475 27.0517C73.6475 27.6919 73.964 28.012 74.5972 28.012C75.2756 28.012 75.6148 27.6724 75.6148 26.993C75.6148 26.3626 75.296 26.0474 74.6584 26.0474Z" fill="#2F9FEE"/>
</g>
<defs>
<clipPath id="clip0_1462_719">
<rect width="61.3504" height="60.5214" fill="white" transform="translate(18.2393 18.2393)"/>
</clipPath>
</defs>
</svg>
