<svg width="97" height="97" viewBox="0 0 97 97" fill="none" xmlns="http://www.w3.org/2000/svg">
<path d="M48.5 97C75.2858 97 97 75.2858 97 48.5C97 21.7142 75.2858 0 48.5 0C21.7142 0 0 21.7142 0 48.5C0 75.2858 21.7142 97 48.5 97Z" fill="white"/>
<g clip-path="url(#clip0_1462_730)">
<path d="M44.7805 13.3834C45.5407 13.6645 46.1108 14.2053 46.6957 14.7363C50.9226 18.5794 55.1496 22.4208 59.3896 26.2492C60.004 26.8031 60.3562 27.406 60.0728 28.2361C59.8336 28.9338 59.2208 29.272 58.2477 29.2737C56.226 29.2737 54.2026 29.2884 52.1809 29.2638C51.7418 29.2589 51.6402 29.3848 51.6501 29.8063C51.6796 31.0694 51.6648 32.3324 51.6583 33.5955C51.655 34.3013 51.306 34.7164 50.7326 34.718C50.1592 34.7213 49.8004 34.3046 49.7971 33.6053C49.7922 31.9141 49.7922 30.223 49.7971 28.5318C49.8004 27.7165 50.1166 27.4077 50.957 27.406C53.0001 27.4011 55.0431 27.4044 57.0861 27.4044H57.689C57.6743 27.1413 57.4809 27.0694 57.3564 26.9551C53.2049 23.1806 49.0517 19.4111 44.8952 15.6416C44.3512 15.1481 44.0875 15.1301 43.5812 15.5876C39.3314 19.4356 35.0864 23.2868 30.8398 27.1381C30.7858 27.1871 30.7448 27.2524 30.6203 27.4044H31.7868C33.6463 27.4044 35.5042 27.4028 37.3637 27.4044C38.3139 27.4044 38.6236 27.7051 38.6269 28.6315C38.6318 30.1805 38.6383 31.7279 38.6236 33.2768C38.6154 34.1592 37.8732 34.6575 37.2032 34.254C36.8296 34.0285 36.7264 33.669 36.728 33.2589C36.7313 32.1184 36.7067 30.9762 36.7395 29.8357C36.7526 29.3962 36.6625 29.2524 36.1825 29.2606C34.1607 29.2916 32.1374 29.2753 30.1157 29.2737C29.1736 29.2737 28.6215 28.9501 28.3446 28.2541C28.0661 27.5515 28.2512 26.9567 28.959 26.3129C33.43 22.2525 37.9044 18.1987 42.3705 14.1334C42.7571 13.7821 43.2175 13.5926 43.6762 13.3834H44.7789H44.7805Z" fill="#2F9FEE"/>
<path d="M55.3981 74.1176C58.0129 74.1176 60.6277 74.1225 63.2408 74.1159C64.3795 74.1127 65.2183 73.5326 65.4936 72.5898C65.8737 71.2826 64.9955 69.9886 63.6242 69.8725C63.1098 69.8301 62.6953 69.6846 62.5544 69.1454C62.3922 68.5196 62.7657 68.0866 63.5276 67.9755C64.6498 67.8121 65.3084 67.2582 65.5231 66.2974C65.7967 65.0752 64.9496 63.8923 63.7012 63.7452C63.4997 63.7223 63.29 63.706 63.1032 63.6374C62.692 63.4838 62.5085 63.1619 62.5298 62.7273C62.5495 62.3171 62.7608 62.0361 63.1524 61.9119C63.3244 61.8564 63.5128 61.8433 63.6947 61.8204C64.7858 61.6815 65.6033 60.7681 65.5919 59.6995C65.5788 58.6456 64.7809 57.7568 63.7192 57.6211C63.4358 57.5852 63.1458 57.5852 62.9017 57.4055C62.5446 57.1408 62.4528 56.7731 62.5691 56.3728C62.7084 55.8973 63.0918 55.7437 63.557 55.6996C64.6252 55.595 65.3215 54.9888 65.5329 54.0101C65.7803 52.8598 65.0184 51.7095 63.8569 51.5199C63.4768 51.4579 63.0836 51.4709 62.6969 51.4628C61.8712 51.4464 61.4551 51.1392 61.4518 50.5298C61.4485 49.917 61.8761 49.6115 62.6838 49.5788C63.9699 49.5282 65.1659 49.7275 66.1522 50.636C67.7971 52.149 67.9216 54.6228 66.4061 56.2764C66.1309 56.577 66.1112 56.7208 66.4012 57.0313C67.8446 58.5852 67.8282 60.876 66.3668 62.4495C66.1194 62.7158 66.0948 62.8286 66.3586 63.1129C67.861 64.7305 67.8413 66.9625 66.3275 68.6226C66.126 68.8448 66.0785 68.9412 66.3127 69.1928C67.5038 70.4804 67.8282 71.9738 67.1057 73.5882C66.375 75.2221 65.0365 75.9835 63.2507 75.9835C58.4503 75.9835 53.6516 75.9884 48.8513 75.9819C46.1038 75.9786 43.5234 75.3087 41.1412 73.9395C40.6956 73.6829 40.2614 73.5457 39.7552 73.5882C39.5324 73.6078 39.3047 73.611 39.0818 73.5882C38.1365 73.4885 37.3763 73.6388 36.703 74.4836C35.9952 75.3692 34.8779 75.6747 33.7294 75.6796C31.7896 75.6894 29.8481 75.6911 27.9083 75.6813C27.1989 75.678 26.7795 75.3153 26.7697 74.7548C26.7599 74.1666 27.1957 73.8006 27.9362 73.7989C29.7941 73.794 31.6536 73.8022 33.5115 73.7957C35.2547 73.7891 36.2295 72.812 36.2393 71.0686C36.2442 70.1928 36.2328 69.317 36.2426 68.4412C36.2508 67.7223 36.5916 67.317 37.165 67.304C37.7613 67.2893 38.13 67.7157 38.1365 68.4559C38.1447 69.3922 38.1545 70.33 38.13 71.2663C38.1218 71.5931 38.1644 71.7614 38.5412 71.7156C40.155 71.5196 41.5754 71.9575 43.0008 72.7597C44.8767 73.8153 46.9983 74.1159 49.1478 74.1176C51.2318 74.1192 53.3141 74.1176 55.3981 74.1176Z" fill="#404041"/>
<path d="M56.0603 49.5821C56.8254 49.5821 57.5185 49.5756 58.2115 49.5838C58.8914 49.5919 59.3223 49.9776 59.3075 50.5462C59.2928 51.0952 58.8963 51.4448 58.2246 51.4563C57.3464 51.471 56.4683 51.4775 55.5901 51.4563C54.4531 51.4285 53.8551 50.6279 54.1304 49.5151C54.4367 48.2733 54.8365 47.0511 55.0036 45.7783C55.3083 43.4695 55.0282 41.2359 54.1156 39.0856C53.9272 38.6428 53.6192 38.3912 53.1375 38.3993C52.6198 38.4075 52.3085 38.7114 52.1693 39.1869C51.8678 40.2196 51.5811 41.2588 51.2829 42.2931C50.8946 43.6378 50.1803 44.7832 49.1203 45.6966C46.5268 47.9351 43.9186 50.1573 41.3267 52.3974C40.9696 52.7063 40.5764 52.7471 40.1373 52.7569C39.4705 52.7733 38.5759 52.4628 38.2024 52.8795C37.8764 53.2438 38.1188 54.1213 38.1205 54.7716C38.1238 57.7862 38.1303 60.8009 38.1336 63.8155C38.1336 64.059 38.1532 64.3008 38.0648 64.5394C37.9108 64.9528 37.6011 65.1717 37.1801 65.1668C36.7312 65.1619 36.3953 64.9315 36.2937 64.4724C36.2413 64.2371 36.238 63.9887 36.238 63.7453C36.2347 60.3238 36.238 56.9023 36.2347 53.4791C36.2347 51.6033 35.2894 50.6556 33.4266 50.654C31.69 50.654 29.955 50.654 28.2183 50.654C28.0758 50.654 27.9316 50.6606 27.7891 50.6507C27.1534 50.6099 26.7422 50.2145 26.7635 49.6704C26.7831 49.1475 27.178 48.775 27.7973 48.7668C29.1456 48.7505 30.4924 48.7554 31.8407 48.7635C32.6566 48.7684 33.4758 48.7505 34.2884 48.8207C35.5106 48.9269 36.4936 49.5266 37.2194 50.5021C37.4455 50.8043 37.6912 50.8501 38.0336 50.8958C39.5573 51.1034 40.7238 50.5887 41.8444 49.5233C43.7056 47.757 45.7142 46.1443 47.6737 44.4826C48.6059 43.6917 49.2268 42.7212 49.5528 41.5496C49.8248 40.5709 50.0968 39.5921 50.3933 38.6216C50.7685 37.3879 51.8072 36.5677 53.0228 36.5089C54.2287 36.4517 55.3116 37.1281 55.8195 38.3095C57.2285 41.5807 57.3415 44.9286 56.388 48.3371C56.2782 48.7276 56.1816 49.1197 56.0587 49.587L56.0603 49.5821Z" fill="#404041"/>
<path d="M73.2483 38.8519C71.6034 36.9745 69.9585 35.0955 68.2956 33.1968C66.6114 35.1216 64.9681 36.999 63.2364 38.9778C63.7377 38.9778 64.1162 38.9712 64.4946 38.9778C65.7119 39.0006 66.3492 39.6297 66.3525 40.829C66.3591 42.8649 66.3558 44.9008 66.3525 46.9384C66.3525 47.6916 66.0085 48.1099 65.4105 48.1099C64.8158 48.1099 64.4848 47.6998 64.4832 46.9335C64.4783 45.0806 64.4701 43.2277 64.4897 41.3748C64.4946 40.9793 64.398 40.8274 63.9818 40.8633C63.5559 40.9009 63.125 40.8862 62.6957 40.8666C62.0109 40.8339 61.4784 40.5382 61.1983 39.8895C60.9231 39.2506 61.0263 38.6526 61.4817 38.1297C63.3314 36.0105 65.1778 33.8896 67.0423 31.7834C67.7467 30.9877 68.8068 30.9648 69.5112 31.7557C71.3953 33.87 73.2516 36.0105 75.1144 38.1461C75.5715 38.6689 75.6812 39.2735 75.388 39.9075C75.0964 40.5382 74.5639 40.8437 73.8741 40.8699C73.4875 40.8846 73.0959 40.9026 72.7109 40.8666C72.2522 40.8225 72.0933 40.9467 72.1031 41.4467C72.1375 43.2996 72.1195 45.1525 72.1146 47.0054C72.1129 47.6786 71.7836 48.0789 71.2331 48.1116C70.7138 48.1426 70.2649 47.7848 70.2616 47.239C70.2452 44.9793 70.2403 42.7195 70.2714 40.4598C70.2813 39.7065 70.8498 39.1232 71.6182 39.0333C72.1375 38.9728 72.6683 39.0219 73.1942 39.0219L73.2467 38.8552L73.2483 38.8519Z" fill="#2F9FEE"/>
<path d="M36.7281 40.7114C36.7281 39.695 36.7216 38.6787 36.7297 37.6624C36.7363 36.9386 37.1246 36.4892 37.698 36.5056C38.2567 36.5203 38.622 36.9533 38.6237 37.6444C38.6302 39.6558 38.6302 41.6689 38.6237 43.6803C38.6204 44.4319 38.2665 44.8338 37.6538 44.8208C37.0705 44.8093 36.7379 44.4204 36.7297 43.6982C36.7183 42.7032 36.7265 41.7064 36.7265 40.7114H36.7281Z" fill="#2F9FEE"/>
</g>
<defs>
<clipPath id="clip0_1462_730">
<rect width="48.7849" height="62.6001" fill="white" transform="translate(26.7666 13.3834)"/>
</clipPath>
</defs>
</svg>
