<svg width="367" height="414" viewBox="0 0 367 414" fill="none" xmlns="http://www.w3.org/2000/svg">
<g opacity="0.3">
<path d="M183.699 366.602C82.608 366.602 0.397461 284.358 0.397461 183.301C0.397461 82.2439 82.6413 0 183.699 0C284.756 0 367 82.2439 367 183.301C367 284.358 284.823 366.602 183.699 366.602ZM183.699 2.58286C84.0744 2.58286 3.02199 83.6353 3.02199 183.268C3.02199 282.9 84.1078 363.953 183.699 363.953C283.289 363.953 364.384 282.9 364.384 183.268C364.384 83.6353 283.364 2.58286 183.699 2.58286Z" fill="#E0E0E0"/>
<path d="M183.698 330.2C102.679 330.2 36.7656 264.287 36.7656 183.267C36.7656 102.248 102.712 36.335 183.698 36.335C264.684 36.335 330.664 102.257 330.664 183.267C330.664 264.278 264.751 330.2 183.698 330.2ZM183.698 38.9845C104.145 38.9845 39.4152 103.706 39.4152 183.267C39.4152 262.829 104.179 327.542 183.698 327.542C263.218 327.542 327.981 262.82 327.981 183.267C327.981 103.715 263.293 38.9845 183.698 38.9845Z" fill="#E0E0E0"/>
<path d="M183.699 293.799C122.751 293.799 73.168 244.216 73.168 183.268C73.168 122.32 122.784 72.7373 183.699 72.7373C244.613 72.7373 294.229 122.32 294.229 183.268C294.229 244.216 244.68 293.799 183.699 293.799ZM183.699 75.3869C155.103 75.4288 127.69 86.8093 107.473 107.033C87.2559 127.256 75.8839 154.672 75.8508 183.268C75.8508 242.749 124.251 291.149 183.732 291.149C212.348 291.149 239.792 279.781 260.027 259.546C280.262 239.312 291.63 211.867 291.63 183.251C291.63 154.635 280.262 127.191 260.027 106.956C239.792 86.7213 212.348 75.3535 183.732 75.3535L183.699 75.3869Z" fill="#E0E0E0"/>
<path d="M183.699 257.397C169.032 257.397 154.696 253.048 142.501 244.9C130.307 236.751 120.802 225.17 115.19 211.62C109.577 198.071 108.109 183.161 110.97 168.776C113.831 154.392 120.893 141.179 131.264 130.808C141.635 120.438 154.848 113.375 169.232 110.514C183.616 107.653 198.526 109.121 212.076 114.734C225.626 120.346 237.207 129.851 245.355 142.045C253.503 154.24 257.852 168.577 257.852 183.243C257.837 202.905 250.019 221.757 236.116 235.661C222.213 249.564 203.361 257.381 183.699 257.397ZM183.699 111.789C169.561 111.789 155.742 115.981 143.987 123.835C132.232 131.689 123.071 142.853 117.661 155.914C112.25 168.975 110.835 183.347 113.593 197.213C116.351 211.078 123.159 223.815 133.155 233.811C143.152 243.808 155.888 250.616 169.754 253.374C183.619 256.132 197.991 254.716 211.052 249.306C224.114 243.896 235.277 234.734 243.131 222.98C250.986 211.225 255.178 197.405 255.178 183.268C255.156 164.317 247.618 146.149 234.218 132.749C220.817 119.349 202.649 111.811 183.699 111.789Z" fill="#E0E0E0"/>
<path d="M183.699 220.994C176.238 220.994 168.944 218.782 162.74 214.636C156.535 210.491 151.7 204.599 148.844 197.705C145.989 190.811 145.242 183.226 146.698 175.908C148.153 168.589 151.746 161.867 157.023 156.591C162.299 151.315 169.021 147.722 176.339 146.266C183.658 144.81 191.243 145.557 198.137 148.413C205.03 151.268 210.923 156.104 215.068 162.308C219.213 168.512 221.426 175.806 221.426 183.268C221.415 193.27 217.437 202.86 210.364 209.932C203.291 217.005 193.702 220.983 183.699 220.994ZM183.699 148.191C176.762 148.191 169.98 150.248 164.212 154.102C158.443 157.956 153.947 163.435 151.292 169.844C148.637 176.254 147.943 183.307 149.296 190.111C150.65 196.915 153.99 203.165 158.896 208.071C163.802 212.977 170.052 216.317 176.856 217.671C183.66 219.024 190.713 218.33 197.123 215.675C203.532 213.02 209.011 208.524 212.865 202.756C216.719 196.987 218.777 190.205 218.777 183.268C218.766 173.968 215.066 165.052 208.491 158.477C201.915 151.901 192.999 148.202 183.699 148.191Z" fill="#E0E0E0"/>
</g>
<path d="M182.692 315.987C256.529 315.987 316.385 256.131 316.385 182.295C316.385 108.459 256.529 48.6025 182.692 48.6025C108.856 48.6025 49 108.459 49 182.295C49 256.131 108.856 315.987 182.692 315.987Z" fill="white" stroke="#2F9FEE" stroke-width="6" stroke-miterlimit="10"/>
<circle cx="189" cy="322.603" r="16" fill="#2F9FEE"/>
<circle cx="189" cy="355.603" r="8" fill="#2F9FEE"/>
<circle cx="189" cy="380.603" r="8" fill="#2F9FEE"/>
<circle cx="189" cy="405.603" r="8" fill="#2F9FEE"/>
<g clip-path="url(#clip0_1677_850)">
<path d="M258.99 121.352C259.017 116.316 255.528 112.224 251.281 111.258C250.685 111.31 250.082 111.408 249.556 111.001H204.403C203.976 111.456 203.449 111.302 202.938 111.239C199.834 111.859 197.646 113.75 196.073 116.363C195.205 117.806 195.093 119.497 195.092 121.156C195.085 147.105 195.087 173.055 195.086 199.004C195.086 200.092 195.199 201.168 195.453 202.224C196.331 205.887 200.644 209.291 205.411 209.268C219.793 209.202 234.175 209.2 248.558 209.266C254.216 209.292 259.037 204.833 258.997 198.777C258.828 172.97 258.852 147.161 258.989 121.354L258.99 121.352ZM222.046 170.387C221.996 168.407 222.008 166.424 222.042 164.443C222.053 163.821 221.872 163.424 221.355 163.035C218.553 160.921 217.264 158.085 217.371 154.578C217.44 152.362 217.351 150.141 217.44 147.928C217.683 141.912 223.402 137.941 229.374 139.401C233.637 140.443 236.084 143.247 236.564 147.601C236.874 150.415 236.77 153.249 236.598 156.075C236.423 158.949 235.045 161.175 232.831 162.905C232.156 163.432 231.926 163.974 231.953 164.804C232.015 166.69 232.005 168.579 231.957 170.465C231.937 171.23 232.167 171.51 232.954 171.63C236.316 172.136 239.674 172.677 243.016 173.303C245.834 173.831 247.565 175.645 248.396 178.321C249.022 180.343 249.5 182.411 250.166 184.419C250.534 185.529 250.397 185.847 249.141 185.839C240.909 185.787 232.676 185.812 224.443 185.812H204.713C204.251 185.812 203.79 185.812 203.062 185.812C204.608 182.93 204.885 179.838 206.137 177.088C207.257 174.629 209.37 173.415 212.039 173.038C215.031 172.616 218.003 172.049 220.997 171.642C221.878 171.523 222.062 171.186 222.044 170.387H222.046ZM243.797 168.67C241.816 168.234 239.795 167.978 237.794 167.628C237.377 167.555 236.742 167.782 236.727 167.036C236.715 166.451 236.574 165.857 237.19 165.376C240.096 163.107 241.333 159.952 241.569 156.421C241.751 153.695 241.651 150.949 241.622 148.212C241.547 141.405 236.707 136.262 230.381 134.828C225.8 133.789 221.664 134.749 217.828 137.586C214.681 139.913 212.967 142.976 212.557 146.68C212.132 150.515 212.063 154.416 212.694 158.248C213.166 161.108 214.64 163.534 216.766 165.526C217.206 165.937 217.526 166.35 217.364 166.955C217.199 167.572 216.636 167.566 216.132 167.644C214.172 167.95 212.18 168.128 210.262 168.604C205.56 169.77 202.14 172.429 200.759 177.265C200.63 177.718 200.512 178.174 200.381 178.625C200.373 178.653 200.312 178.668 200.108 178.782V177.408C200.108 161.976 200.124 146.545 200.078 131.113C200.074 129.918 200.384 129.668 201.546 129.672C218.581 129.713 235.617 129.706 252.653 129.684C253.547 129.682 253.967 129.754 253.964 130.853C253.923 146.426 253.937 161.998 253.934 177.571C253.934 177.886 253.889 178.202 253.865 178.517C253.783 178.507 253.702 178.497 253.621 178.487C253.483 177.998 253.364 177.504 253.205 177.021C251.694 172.418 248.472 169.696 243.795 168.667L243.797 168.67ZM253.967 191.997C253.876 194.399 253.954 196.807 253.936 199.213C253.91 202.698 252.206 204.5 248.75 204.507C234.277 204.536 219.804 204.535 205.33 204.509C201.847 204.503 200.128 202.716 200.113 199.261C200.102 196.761 200.16 194.26 200.086 191.762C200.057 190.784 200.299 190.51 201.312 190.515C209.873 190.56 218.434 190.541 226.995 190.541C235.555 190.541 244.023 190.57 252.536 190.508C253.769 190.498 254.008 190.863 253.965 191.997H253.967ZM252.438 125.085C243.926 125.017 235.414 125.05 226.901 125.05C218.389 125.05 209.972 125.031 201.507 125.074C200.439 125.078 199.972 124.877 200.088 123.705C200.203 122.537 200.085 121.348 200.135 120.171C200.237 117.781 201.921 116.018 204.289 115.784C204.853 115.729 205.42 115.696 205.987 115.696C220.032 115.691 234.077 115.69 248.121 115.699C248.827 115.699 249.545 115.738 250.237 115.869C252.282 116.252 253.683 117.761 253.861 119.828C253.967 121.046 253.847 122.284 253.962 123.501C254.074 124.707 253.75 125.097 252.44 125.087L252.438 125.085Z" fill="#2F9FEE"/>
<path d="M170.087 164.23C168.384 159.92 165.184 157.81 160.718 157.786C146.099 157.703 131.48 157.698 116.861 157.791C112.94 157.816 109.765 159.537 107.918 163.179C107.522 163.96 107.302 164.828 107 165.657V248.067C107.07 248.183 107.183 248.29 107.203 248.414C107.957 253.13 112.702 255.988 116.82 255.992C131.439 256.003 146.057 255.987 160.676 256.001C166.748 256.007 170.831 251.271 170.834 245.685C170.849 219.83 170.843 193.976 170.834 168.121C170.834 166.786 170.601 165.532 170.088 164.231L170.087 164.23ZM165.816 224.123V225.565C165.636 225.407 165.537 225.364 165.52 225.299C163.886 218.899 159.574 215.689 153.166 214.952C152.04 214.823 150.918 214.646 149.806 214.431C149.386 214.35 148.738 214.595 148.6 213.964C148.46 213.329 148.451 212.694 149.029 212.145C150.311 210.923 151.586 209.696 152.287 207.997C152.849 206.636 153.356 205.253 153.434 203.794C153.624 200.264 153.777 196.721 153.357 193.199C152.595 186.807 146.648 181.935 140.488 181.249C134.64 180.597 128.057 183.776 125.65 189.238C125.095 190.497 124.542 191.786 124.455 193.133C124.204 196.99 124.03 200.864 124.552 204.71C124.93 207.499 126.239 209.897 128.245 211.865C128.867 212.476 129.043 213.124 128.91 213.885C128.765 214.722 127.976 214.359 127.5 214.469C126.213 214.765 124.897 214.936 123.589 215.128C117.934 215.959 114.005 218.804 112.514 224.518C112.448 224.773 112.352 225.021 112.269 225.272L111.988 225.251V223.85C111.988 208.561 112.003 193.272 111.958 177.984C111.955 176.758 112.222 176.423 113.498 176.427C130.438 176.475 147.378 176.477 164.317 176.427C165.591 176.423 165.849 176.754 165.845 177.975C165.8 193.358 165.816 208.742 165.816 224.125V224.123ZM133.971 217.283C133.915 215.255 133.922 213.224 133.969 211.197C133.985 210.54 133.687 210.193 133.235 209.795C131.623 208.378 130.062 206.92 129.363 204.779C129.137 204.087 129.075 203.384 129.041 202.695C128.881 199.493 128.444 196.202 129.275 193.114C130.719 187.746 136.563 184.161 142.723 186.665C146.554 188.224 148.393 191.172 148.524 195.211C148.6 197.52 148.546 199.835 148.535 202.147C148.521 205.289 147.16 207.783 144.721 209.686C144.083 210.183 143.863 210.679 143.882 211.451C143.929 213.385 143.929 215.321 143.882 217.254C143.863 218.013 144.081 218.276 144.87 218.393C148.094 218.869 151.315 219.379 154.513 219.998C157.539 220.584 159.563 222.355 160.388 225.398C161.025 227.751 161.718 230.089 162.431 232.591C161.839 232.591 161.375 232.591 160.913 232.591C146.15 232.591 131.388 232.58 116.625 232.612C115.469 232.614 115.07 232.535 115.455 231.186C116.12 228.854 116.926 226.578 117.814 224.335C118.875 221.656 120.987 220.233 123.833 219.811C126.869 219.359 129.893 218.824 132.932 218.392C133.674 218.286 133.995 218.098 133.973 217.286L133.971 217.283ZM111.969 170.212C112.064 169.278 111.963 168.326 111.994 167.384C112.096 164.292 113.898 162.506 117.006 162.486C121.452 162.457 125.898 162.478 130.344 162.478C140.324 162.478 150.304 162.472 160.285 162.482C163.194 162.484 165.302 163.772 165.663 166.045C165.934 167.75 165.786 169.523 165.809 171.267C165.819 172.061 165.192 171.821 164.779 171.823C161.515 171.838 158.251 171.831 154.987 171.831H138.811C130.391 171.831 121.972 171.796 113.553 171.867C112.191 171.878 111.843 171.454 111.968 170.212H111.969ZM165.843 238.582C165.76 241.174 165.779 243.771 165.825 246.365C165.875 249.083 164.172 250.883 161.227 251.251C160.714 251.314 160.189 251.303 159.669 251.303C145.713 251.305 131.758 251.306 117.803 251.304C113.627 251.304 111.99 249.661 111.988 245.476C111.987 243.259 112.085 241.036 111.951 238.826C111.869 237.459 112.376 237.261 113.59 237.269C122.01 237.32 130.431 237.296 138.852 237.296C147.273 237.296 155.978 237.318 164.54 237.268C165.615 237.262 165.875 237.534 165.842 238.582H165.843Z" fill="#2F9FEE"/>
<path d="M251.283 111.257C251.226 111.176 251.219 111.09 251.262 111H249.558C250.092 111.36 250.741 110.954 251.283 111.257Z" fill="#2F9FEE"/>
<path d="M204.404 111H202.983C202.967 111.079 202.951 111.158 202.938 111.238C203.4 110.988 203.957 111.335 204.404 111Z" fill="#2F9FEE"/>
<path d="M131.091 146.642C133.607 148.751 135.733 151.303 138.25 153.437C138.781 153.888 139.031 153.969 139.561 153.446C141.43 151.597 143.376 149.825 145.264 147.995C146.135 147.152 147.626 146.215 147.592 145.371C147.555 144.46 146.052 143.619 145.215 142.723C144.818 142.298 144.606 142.173 143.987 142.591C143.042 143.228 142.426 144.255 141.323 144.816C141.323 139.548 141.317 134.408 141.332 129.268C141.333 128.806 141.455 128.341 141.543 127.882C142.126 124.816 145.884 122.622 149.363 122.644C159.584 122.71 169.806 122.668 180.028 122.668H181.707C181.475 122.987 181.378 123.131 181.272 123.266C180.556 124.167 178.956 124.8 179.135 125.828C179.302 126.784 180.651 127.535 181.48 128.375C181.546 128.443 181.622 128.502 181.681 128.576C181.985 128.958 182.245 128.928 182.602 128.59C183.448 127.787 184.345 127.039 185.207 126.255C187.12 124.517 188.704 122.436 190.831 120.922C191.315 120.577 191.41 120.213 190.867 119.824C188.671 118.245 186.969 116.147 185.051 114.279C182.109 111.416 182.13 111.388 179.406 114.409C179.374 114.444 179.342 114.481 179.305 114.509C178.849 114.855 178.925 115.142 179.324 115.518C180.121 116.268 180.865 117.074 181.814 118.042H180.092C169.87 118.042 159.649 118.057 149.427 118.03C147.114 118.024 144.859 118.342 142.852 119.458C138.684 121.779 136.386 125.377 136.287 130.172C136.188 135.029 136.265 139.89 136.265 144.75C136.131 144.847 135.999 144.945 135.865 145.041C135.699 144.763 135.576 144.444 135.358 144.215C134.705 143.534 134.063 142.427 133.325 142.349C132.458 142.257 131.975 143.633 131.161 144.142C129.787 145.002 129.729 145.499 131.092 146.642H131.091Z" fill="#404041"/>
<path d="M227.522 213.429C227.171 213.07 226.951 212.992 226.533 213.401C223.91 215.966 221.267 218.513 218.592 221.025C218.045 221.538 218.21 221.812 218.646 222.219C219.372 222.895 220.097 223.579 220.751 224.323C221.211 224.847 221.481 224.799 221.969 224.334C222.763 223.574 223.344 222.528 224.566 222.214C224.566 227.627 224.574 232.994 224.551 238.359C224.548 238.814 224.432 239.324 224.205 239.715C222.416 242.791 219.885 244.411 216.147 244.368C206.021 244.254 195.892 244.329 185.765 244.329H184.227C184.454 244.013 184.547 243.87 184.653 243.735C185.37 242.833 186.971 242.199 186.796 241.173C186.633 240.218 185.281 239.466 184.452 238.624C184.419 238.59 184.381 238.562 184.352 238.525C183.895 237.956 183.474 237.969 182.953 238.497C180.44 241.041 177.945 243.604 175.223 245.929C174.605 246.456 174.616 246.805 175.215 247.354C177.155 249.131 179.071 250.937 180.947 252.781C183.761 255.542 183.728 255.545 186.473 252.668C186.977 252.141 187.02 251.86 186.482 251.334C185.745 250.613 184.845 250.007 184.332 248.956C193.934 248.956 203.398 248.958 212.863 248.953C214.614 248.953 216.374 249.034 218.113 248.885C221.688 248.579 224.746 247.17 226.987 244.27C228.733 242.011 229.373 239.395 229.378 236.595C229.386 231.801 229.38 227.006 229.38 222.172C230.874 222.702 231.652 224.799 232.786 224.553C233.981 224.293 234.874 222.643 235.898 221.6C233.332 218.645 230.25 216.217 227.522 213.428V213.429Z" fill="#404041"/>
<path d="M146.208 129.534C146.208 131.193 147.031 132.022 148.677 132.022C150.378 132.022 151.228 131.305 151.228 129.871C151.228 128.218 150.35 127.391 148.594 127.391C147.003 127.391 146.208 128.105 146.208 129.534Z" fill="#2F9FEE"/>
<path d="M158.506 132.023C160.097 132.023 160.892 131.252 160.892 129.71C160.892 128.168 160.102 127.396 158.52 127.393C158.097 127.393 157.669 127.439 157.253 127.383C156.205 127.244 155.644 127.551 155.862 128.714C155.904 128.94 155.868 129.182 155.868 129.415C155.868 131.154 156.747 132.023 158.505 132.023H158.506Z" fill="#2F9FEE"/>
<path d="M165.814 129.635C165.814 131.227 166.628 132.022 168.255 132.022C169.979 132.022 170.842 131.271 170.842 129.77C170.842 128.184 169.977 127.391 168.249 127.391C166.626 127.391 165.814 128.139 165.814 129.635Z" fill="#2F9FEE"/>
<path d="M200.114 237.447C200.114 235.798 199.236 234.974 197.479 234.974C195.885 234.974 195.088 235.696 195.088 237.139C195.088 238.783 195.923 239.604 197.593 239.604C199.262 239.604 200.103 238.885 200.115 237.447H200.114Z" fill="#2F9FEE"/>
<path d="M219.72 237.488C219.72 235.812 218.718 234.974 216.714 234.974C215.371 234.974 214.7 235.635 214.7 236.958C214.7 238.723 215.569 239.605 217.308 239.605C218.917 239.605 219.721 238.9 219.721 237.49L219.72 237.488Z" fill="#2F9FEE"/>
<path d="M209.775 237.52C209.775 235.823 208.923 234.974 207.218 234.974C205.762 234.974 205.034 235.718 205.034 237.207C205.034 238.805 205.845 239.604 207.467 239.604C209.006 239.604 209.775 238.909 209.775 237.52Z" fill="#2F9FEE"/>
<path d="M235.69 195.146C232.807 195.19 229.922 195.163 227.039 195.163C225.006 195.163 222.974 195.163 220.941 195.163C217.321 195.163 217.356 195.163 217.356 198.739C217.356 199.671 217.607 199.921 218.539 199.913C223.408 199.867 228.276 199.892 233.146 199.892C236.852 199.892 236.826 199.892 236.736 196.183C236.717 195.384 236.499 195.133 235.691 195.145L235.69 195.146Z" fill="#2F9FEE"/>
<path d="M148.558 243.087C148.682 242.104 148.252 241.92 147.359 241.927C142.398 241.965 137.436 241.945 132.475 241.945C128.863 241.945 128.909 241.945 128.899 245.546C128.897 246.56 129.281 246.676 130.13 246.664C132.965 246.621 135.8 246.647 138.635 246.647C140.762 246.647 142.888 246.656 145.014 246.643C146.14 246.636 147.639 247.015 148.295 246.445C149.063 245.777 148.413 244.235 148.558 243.086V243.087Z" fill="#2F9FEE"/>
</g>
<defs>
<clipPath id="clip0_1677_850">
<rect width="152" height="145" fill="white" transform="translate(107 111)"/>
</clipPath>
</defs>
</svg>
