<svg width="367" height="413" viewBox="0 0 367 413" fill="none" xmlns="http://www.w3.org/2000/svg">
<g opacity="0.3">
<path d="M183.699 366.602C82.608 366.602 0.397461 284.358 0.397461 183.301C0.397461 82.2439 82.6413 0 183.699 0C284.756 0 367 82.2439 367 183.301C367 284.358 284.823 366.602 183.699 366.602ZM183.699 2.58286C84.0744 2.58286 3.02199 83.6353 3.02199 183.268C3.02199 282.9 84.1078 363.953 183.699 363.953C283.289 363.953 364.384 282.9 364.384 183.268C364.384 83.6353 283.364 2.58286 183.699 2.58286Z" fill="#E0E0E0"/>
<path d="M183.698 330.2C102.679 330.2 36.7656 264.287 36.7656 183.268C36.7656 102.249 102.712 36.3354 183.698 36.3354C264.684 36.3354 330.664 102.257 330.664 183.268C330.664 264.279 264.751 330.2 183.698 330.2ZM183.698 38.985C104.145 38.985 39.4152 103.707 39.4152 183.268C39.4152 262.829 104.179 327.543 183.698 327.543C263.218 327.543 327.981 262.821 327.981 183.268C327.981 103.715 263.293 38.985 183.698 38.985Z" fill="#E0E0E0"/>
<path d="M183.7 293.799C122.752 293.799 73.1689 244.216 73.1689 183.268C73.1689 122.32 122.785 72.7373 183.7 72.7373C244.614 72.7373 294.23 122.32 294.23 183.268C294.23 244.216 244.681 293.799 183.7 293.799ZM183.7 75.3869C155.104 75.4288 127.691 86.8093 107.474 107.033C87.2569 127.256 75.8849 154.672 75.8518 183.268C75.8518 242.749 124.252 291.149 183.733 291.149C212.349 291.149 239.793 279.781 260.028 259.546C280.263 239.312 291.631 211.867 291.631 183.251C291.631 154.635 280.263 127.191 260.028 106.956C239.793 86.7213 212.349 75.3535 183.733 75.3535L183.7 75.3869Z" fill="#E0E0E0"/>
<path d="M183.699 257.397C169.032 257.397 154.696 253.048 142.501 244.9C130.307 236.751 120.802 225.17 115.19 211.62C109.577 198.071 108.109 183.161 110.97 168.776C113.831 154.392 120.893 141.179 131.264 130.808C141.635 120.438 154.848 113.375 169.232 110.514C183.616 107.653 198.526 109.121 212.076 114.734C225.626 120.346 237.207 129.851 245.355 142.045C253.503 154.24 257.852 168.577 257.852 183.243C257.837 202.905 250.019 221.757 236.116 235.661C222.213 249.564 203.361 257.381 183.699 257.397ZM183.699 111.789C169.561 111.789 155.742 115.981 143.987 123.835C132.232 131.689 123.071 142.853 117.661 155.914C112.25 168.975 110.835 183.347 113.593 197.213C116.351 211.078 123.159 223.815 133.155 233.811C143.152 243.808 155.888 250.616 169.754 253.374C183.619 256.132 197.991 254.716 211.052 249.306C224.114 243.896 235.277 234.734 243.131 222.98C250.986 211.225 255.178 197.405 255.178 183.268C255.156 164.317 247.618 146.149 234.218 132.749C220.817 119.349 202.649 111.811 183.699 111.789Z" fill="#E0E0E0"/>
<path d="M183.699 220.994C176.238 220.994 168.944 218.782 162.74 214.636C156.535 210.491 151.7 204.599 148.844 197.705C145.989 190.811 145.242 183.226 146.698 175.908C148.153 168.589 151.746 161.867 157.023 156.591C162.299 151.315 169.021 147.722 176.339 146.266C183.658 144.81 191.243 145.557 198.137 148.413C205.03 151.268 210.923 156.104 215.068 162.308C219.213 168.512 221.426 175.806 221.426 183.268C221.415 193.27 217.437 202.86 210.364 209.932C203.291 217.005 193.702 220.983 183.699 220.994ZM183.699 148.191C176.762 148.191 169.98 150.248 164.212 154.102C158.443 157.956 153.947 163.435 151.292 169.844C148.637 176.254 147.943 183.307 149.296 190.111C150.65 196.915 153.99 203.165 158.896 208.071C163.802 212.977 170.052 216.317 176.856 217.671C183.66 219.024 190.713 218.33 197.123 215.675C203.532 213.02 209.011 208.524 212.865 202.756C216.719 196.987 218.777 190.205 218.777 183.268C218.766 173.968 215.066 165.052 208.491 158.477C201.915 151.901 192.999 148.202 183.699 148.191Z" fill="#E0E0E0"/>
</g>
<path d="M184.692 319.987C258.529 319.987 318.385 260.131 318.385 186.295C318.385 112.459 258.529 52.6025 184.692 52.6025C110.856 52.6025 51 112.459 51 186.295C51 260.131 110.856 319.987 184.692 319.987Z" fill="white" stroke="#2F9FEE" stroke-width="6" stroke-miterlimit="10"/>
<circle cx="185" cy="321.603" r="16" fill="#2F9FEE"/>
<circle cx="185" cy="354.603" r="8" fill="#2F9FEE"/>
<circle cx="185" cy="379.603" r="8" fill="#2F9FEE"/>
<circle cx="185" cy="404.603" r="8" fill="#2F9FEE"/>
<g clip-path="url(#clip0_1677_808)">
<path d="M166.002 148.055C187.478 148.091 208.954 148.082 230.43 148.082C233.091 148.082 235.752 148.035 238.411 148.097C241.29 148.164 243.313 150.064 243.341 152.922C243.412 160.24 243.416 167.56 243.338 174.878C243.308 177.727 241.245 179.593 238.375 179.665C237.093 179.697 235.809 179.651 234.526 179.679C233.895 179.693 233.586 179.56 233.333 178.849C231.9 174.823 227.621 173.594 224.231 176.215C221.602 178.248 219.003 180.325 216.444 182.445C213.38 184.981 213.381 188.996 216.45 191.537C219.047 193.687 221.68 195.796 224.356 197.846C227.621 200.346 231.895 199.103 233.281 195.249C233.565 194.459 233.921 194.275 234.682 194.294C236.628 194.343 238.577 194.328 240.526 194.308C250.556 194.203 257.936 186.78 257.952 176.764C257.967 168.162 257.952 159.56 257.959 150.957C257.96 149.574 257.844 148.206 257.519 146.862C255.519 138.605 248.904 133.457 240.203 133.452C215.448 133.438 190.694 133.441 165.939 133.469C164.897 133.47 164.417 133.257 164.049 132.164C160.234 120.872 149.478 113.541 137.57 114.022C125.766 114.499 115.696 122.803 112.769 134.427C112.522 135.408 112.592 136.479 112 137.369V139.365C112.446 140.316 112.447 141.266 112 142.217V143.928C112.388 144.122 112.253 144.502 112.3 144.808C114.233 157.25 124.112 166.444 137.063 167.451C148.509 168.341 159.898 161.438 164.015 149.45C164.398 148.334 164.877 148.053 166.002 148.054V148.055ZM165.636 138.544C166.273 137.903 167.522 138.331 168.506 138.33C180.287 138.314 192.069 138.32 203.85 138.32C215.632 138.32 228.079 138.305 240.192 138.326C246.477 138.336 251.171 141.821 252.676 147.518C252.993 148.718 253.099 149.942 253.098 151.183C253.092 159.641 253.104 168.1 253.092 176.558C253.081 184.169 247.953 189.352 240.355 189.429C237.552 189.458 234.75 189.425 231.947 189.435C229.557 189.445 228.82 190.19 228.752 192.573C228.736 193.155 228.97 193.871 228.199 194.182C227.525 194.455 227.156 193.884 226.73 193.547C224.42 191.722 222.137 189.863 219.815 188.056C218.855 187.309 218.815 186.703 219.801 185.936C222.235 184.039 224.63 182.091 227.041 180.165C227.417 179.863 227.791 179.556 228.318 179.843C228.784 180.097 228.722 180.553 228.749 180.969C228.955 184.154 229.365 184.549 232.504 184.547C234.594 184.545 236.687 184.606 238.773 184.511C244.104 184.268 248.1 180.342 248.189 175.004C248.313 167.593 248.31 160.177 248.19 152.767C248.105 147.536 244.264 143.67 239.066 143.255C238.405 143.202 237.737 143.199 237.073 143.198C213.748 143.195 190.423 143.183 167.097 143.227C165.743 143.23 165.144 142.97 165.524 141.552C165.56 141.418 165.541 141.268 165.541 141.126C165.545 140.237 165.189 138.991 165.635 138.543L165.636 138.544ZM150.011 159.559C142.562 163.707 135.124 163.74 127.656 159.616C126.899 159.197 126.712 158.771 127.018 157.912C128.011 155.129 130.445 153.145 133.386 153.004C135.234 152.915 137.091 152.988 138.943 152.988V152.983C140.653 152.983 142.366 152.918 144.072 152.996C147.094 153.134 149.573 155.116 150.546 157.959C150.804 158.713 150.76 159.141 150.01 159.558L150.011 159.559ZM129.077 138.36C129.07 132.959 133.467 128.56 138.83 128.599C144.153 128.639 148.491 133.001 148.497 138.321C148.504 143.715 144.1 148.108 138.727 148.066C133.371 148.024 129.083 143.712 129.077 138.36ZM154.826 155.435C153.576 152.82 151.74 150.767 149.157 149.436C148.262 148.974 149.048 148.689 149.283 148.437C152.072 145.447 153.426 141.921 153.349 137.833C153.212 130.528 147.425 124.474 139.872 123.749C132.833 123.074 125.921 128.241 124.538 135.242C123.48 140.594 125.005 145.166 128.954 149.15C126.076 150.541 124.07 152.61 122.779 155.379C116.56 149.664 113.742 136.474 122.025 126.667C130.303 116.865 144.94 116.153 154.031 125.036C163.361 134.153 162.098 148.179 154.826 155.435V155.435Z" fill="#2F9FEE"/>
<path d="M257.634 228.882C255.55 216.413 245.313 207.287 232.49 206.464C220.57 205.699 209.189 213.739 205.61 225.448C205.454 225.958 205.443 226.53 205.033 227.025C202.965 225.381 201.004 223.734 198.952 222.21C195.814 219.879 191.468 221.175 190.215 224.856C189.883 225.833 189.408 225.918 188.58 225.914C182.073 225.892 175.566 225.899 169.058 225.907C168.347 225.908 167.632 225.935 166.928 226.024C162.666 226.561 159.793 230.862 160.904 235.018C161.817 238.433 164.609 240.512 168.442 240.529C175.186 240.556 181.932 240.532 188.676 240.546C189.191 240.547 189.741 240.331 190.08 241.117C192.096 245.802 195.807 246.704 199.823 243.533C201.566 242.156 203.302 240.77 205.12 239.325C205.266 239.761 205.375 240.064 205.469 240.372C208.531 250.441 215.239 256.682 225.366 259.336C226.255 259.569 227.22 259.494 228.041 260H230.037C230.798 259.76 231.558 259.76 232.318 260H233.744C233.815 259.781 233.991 259.767 234.185 259.746C249.386 258.104 260.151 243.932 257.635 228.882H257.634ZM203.668 234.263C201.308 236.102 198.987 237.99 196.638 239.843C196.215 240.177 195.828 240.719 195.152 240.355C194.564 240.038 194.704 239.472 194.694 238.966C194.645 236.301 193.991 235.666 191.26 235.665C183.895 235.664 176.531 235.665 169.166 235.663C168.692 235.663 168.211 235.677 167.745 235.608C166.333 235.4 165.508 234.423 165.567 233.082C165.622 231.819 166.487 230.902 167.855 230.825C169.23 230.747 170.61 230.789 171.987 230.788C174.695 230.784 177.404 230.787 180.112 230.787C183.913 230.787 187.714 230.796 191.515 230.783C193.909 230.776 194.664 230.005 194.703 227.635C194.711 227.087 194.504 226.432 195.127 226.081C195.836 225.682 196.275 226.284 196.738 226.649C199.05 228.473 201.331 230.334 203.656 232.139C204.628 232.893 204.638 233.505 203.667 234.263H203.668ZM231.147 255.116C219.105 255.092 209.232 245.163 209.282 233.125C209.331 221.061 219.245 211.235 231.302 211.301C243.311 211.367 253.096 221.206 253.093 233.214C253.089 245.275 243.205 255.141 231.148 255.117L231.147 255.116Z" fill="#2F9FEE"/>
<path d="M153.879 228.998C151.073 226.584 148.172 224.267 145.19 222.076C142.485 220.089 138.48 220.962 137.175 224.008C136.397 225.821 135.381 226.082 133.786 225.911C133.222 225.851 132.646 225.906 132.076 225.901C128.519 225.87 126.605 223.978 126.599 220.443C126.588 213.551 126.588 206.66 126.599 199.767C126.604 196.22 128.507 194.322 132.064 194.315C137.244 194.303 142.423 194.311 147.602 194.312C148.65 194.312 149.689 194.258 150.698 193.934C154.077 192.847 156.198 189.547 155.723 186.11C155.193 182.278 152.322 179.729 148.255 179.69C141.841 179.628 135.422 179.549 129.011 179.71C121.878 179.889 116.706 183.328 113.526 189.743C112.79 191.229 112.641 192.896 111.999 194.406V196.117C112.446 196.484 112.277 196.993 112.277 197.445C112.286 205.875 112.286 214.306 112.277 222.737C112.277 223.189 112.444 223.697 111.999 224.065V226.061C112.517 226.337 112.364 226.9 112.475 227.316C114.348 234.308 118.842 238.597 125.857 240.176C128.937 240.869 132.108 240.495 135.238 240.515C136.055 240.52 136.418 240.709 136.719 241.559C138.008 245.217 142.205 246.562 145.322 244.259C148.261 242.087 151.122 239.799 153.891 237.413C156.499 235.167 156.496 231.248 153.879 228.996V228.998ZM150.059 234.328C147.73 236.207 145.386 238.066 143.046 239.93C142.645 240.248 142.267 240.682 141.665 240.361C141.144 240.083 141.223 239.575 141.203 239.11C141.077 236.164 140.56 235.678 137.622 235.661C134.439 235.643 131.244 235.778 128.078 235.534C121.658 235.038 116.99 229.963 116.891 223.516C116.821 219.002 116.878 214.485 116.876 209.97C116.874 205.74 116.862 201.509 116.876 197.279C116.902 190.003 121.792 184.783 129.044 184.593C135.407 184.426 141.778 184.537 148.145 184.56C149.852 184.566 150.908 185.545 150.922 186.968C150.937 188.443 149.854 189.416 148.05 189.424C142.87 189.448 137.686 189.582 132.513 189.396C125.892 189.159 121.523 194.061 121.692 200.218C121.876 206.915 121.726 213.621 121.736 220.322C121.744 226.669 125.792 230.734 132.142 230.782C134.137 230.797 136.133 230.799 138.129 230.78C140.335 230.759 141.135 229.954 141.208 227.796C141.228 227.171 140.949 226.379 141.741 226.038C142.519 225.702 142.941 226.427 143.437 226.816C145.642 228.543 147.833 230.29 150.018 232.045C151.23 233.019 151.239 233.375 150.06 234.326L150.059 234.328Z" fill="#404041"/>
<path d="M112.143 222.961C112.148 214.381 112.148 205.803 112.143 197.223C112.143 196.853 112.238 196.462 112 196.118V224.066C112.238 223.722 112.143 223.331 112.143 222.96V222.961Z" fill="#2F9FEE"/>
<path d="M112 139.367V142.219C112.241 141.268 112.241 140.318 112 139.367Z" fill="#2F9FEE"/>
<path d="M162.871 191.488C165.536 193.703 168.242 195.872 171.002 197.968C174.105 200.326 178.478 199.024 179.749 195.354C180.048 194.491 180.409 194.286 181.235 194.296C184.656 194.334 188.076 194.312 192.24 194.312C195.389 194.189 199.299 194.611 203.172 194.138C207.386 193.623 210.158 189.278 209.057 185.185C208.12 181.702 205.35 179.689 201.379 179.678C194.681 179.658 187.981 179.67 181.282 179.676C180.605 179.676 180.117 179.707 179.807 178.804C178.454 174.864 174.136 173.619 170.809 176.175C168.135 178.228 165.496 180.328 162.897 182.474C159.907 184.943 159.891 189.01 162.873 191.488H162.871ZM166.283 185.952C168.681 184.087 171.04 182.169 173.419 180.279C173.821 179.96 174.209 179.539 174.807 179.847C175.401 180.154 175.267 180.72 175.278 181.228C175.332 183.916 175.974 184.548 178.699 184.549C186.063 184.551 193.427 184.549 200.791 184.55C201.218 184.55 201.649 184.534 202.072 184.58C203.514 184.734 204.391 185.644 204.403 186.967C204.415 188.296 203.552 189.26 202.119 189.39C201.176 189.475 200.221 189.432 199.272 189.434C196.088 189.438 192.905 189.436 189.722 189.436C185.968 189.436 182.215 189.429 178.461 189.438C176.038 189.444 175.305 190.181 175.266 192.556C175.255 193.143 175.48 193.845 174.723 194.175C174.047 194.468 173.67 193.904 173.247 193.571C170.933 191.75 168.649 189.892 166.328 188.081C165.394 187.352 165.278 186.736 166.283 185.955V185.952Z" fill="#404041"/>
<path d="M241.302 223.551C240.262 223.345 239.499 223.877 238.796 224.583C234.915 228.484 231.001 232.351 227.147 236.278C226.474 236.965 226.095 236.956 225.495 236.259C224.817 235.469 224.055 234.747 223.288 234.042C222.112 232.962 220.735 232.964 219.747 233.999C218.83 234.959 218.839 236.397 219.853 237.446C221.402 239.049 222.996 240.609 224.578 242.179C225.067 242.663 225.649 242.955 226.362 242.903C227.259 242.946 227.856 242.416 228.436 241.835C231.115 239.148 233.799 236.466 236.482 233.782C238.493 231.769 240.508 229.759 242.516 227.742C243.249 227.006 243.483 226.125 243.156 225.133C242.863 224.242 242.193 223.728 241.303 223.551H241.302Z" fill="#2F9FEE"/>
</g>
<defs>
<clipPath id="clip0_1677_808">
<rect width="146" height="146" fill="white" transform="translate(112 114)"/>
</clipPath>
</defs>
</svg>
