<svg width="367" height="418" viewBox="0 0 367 418" fill="none" xmlns="http://www.w3.org/2000/svg">
<g opacity="0.3">
<path d="M183.301 366.602C82.2106 366.602 0 284.358 0 183.301C0 82.2439 82.2439 0 183.301 0C284.358 0 366.602 82.2439 366.602 183.301C366.602 284.358 284.425 366.602 183.301 366.602ZM183.301 2.58286C83.677 2.58286 2.62453 83.6353 2.62453 183.268C2.62453 282.9 83.7103 363.953 183.301 363.953C282.892 363.953 363.986 282.9 363.986 183.268C363.986 83.6353 282.967 2.58286 183.301 2.58286Z" fill="#E0E0E0"/>
<path d="M183.302 330.2C102.283 330.2 36.3691 264.287 36.3691 183.267C36.3691 102.248 102.316 36.335 183.302 36.335C264.287 36.335 330.268 102.257 330.268 183.267C330.268 264.278 264.354 330.2 183.302 330.2ZM183.302 38.9845C103.749 38.9845 39.0187 103.706 39.0187 183.267C39.0187 262.829 103.782 327.542 183.302 327.542C262.821 327.542 327.585 262.82 327.585 183.267C327.585 103.715 262.896 38.9845 183.302 38.9845Z" fill="#E0E0E0"/>
<path d="M183.302 293.799C122.354 293.799 72.7715 244.216 72.7715 183.268C72.7715 122.32 122.388 72.7373 183.302 72.7373C244.216 72.7373 293.833 122.32 293.833 183.268C293.833 244.216 244.283 293.799 183.302 293.799ZM183.302 75.3869C154.706 75.4288 127.294 86.8093 107.077 107.033C86.8595 127.256 75.4874 154.672 75.4543 183.268C75.4543 242.749 123.854 291.149 183.335 291.149C211.952 291.149 239.396 279.781 259.631 259.546C279.865 239.312 291.233 211.867 291.233 183.251C291.233 154.635 279.865 127.191 259.631 106.956C239.396 86.7213 211.952 75.3535 183.335 75.3535L183.302 75.3869Z" fill="#E0E0E0"/>
<path d="M183.301 257.397C168.635 257.397 154.298 253.048 142.104 244.9C129.909 236.751 120.405 225.17 114.792 211.62C109.18 198.071 107.711 183.161 110.572 168.776C113.434 154.392 120.496 141.179 130.867 130.808C141.237 120.438 154.45 113.375 168.834 110.514C183.219 107.653 198.129 109.121 211.679 114.734C225.228 120.346 236.81 129.851 244.958 142.045C253.106 154.24 257.455 168.577 257.455 183.243C257.439 202.905 249.622 221.757 235.719 235.661C221.815 249.564 202.963 257.381 183.301 257.397ZM183.301 111.789C169.164 111.789 155.344 115.981 143.589 123.835C131.835 131.689 122.673 142.853 117.263 155.914C111.853 168.975 110.437 183.347 113.195 197.213C115.954 211.078 122.761 223.815 132.758 233.811C142.754 243.808 155.491 250.616 169.356 253.374C183.222 256.132 197.594 254.716 210.655 249.306C223.716 243.896 234.88 234.734 242.734 222.98C250.588 211.225 254.78 197.405 254.78 183.268C254.758 164.317 247.22 146.149 233.82 132.749C220.42 119.349 202.252 111.811 183.301 111.789Z" fill="#E0E0E0"/>
<path d="M183.302 220.994C175.84 220.994 168.546 218.782 162.342 214.636C156.138 210.491 151.302 204.599 148.447 197.705C145.592 190.811 144.844 183.226 146.3 175.908C147.756 168.589 151.349 161.867 156.625 156.591C161.901 151.315 168.624 147.722 175.942 146.266C183.26 144.81 190.846 145.557 197.739 148.413C204.633 151.268 210.525 156.104 214.671 162.308C218.816 168.512 221.029 175.806 221.029 183.268C221.018 193.27 217.039 202.86 209.967 209.932C202.894 217.005 193.304 220.983 183.302 220.994ZM183.302 148.191C176.364 148.191 169.582 150.248 163.814 154.102C158.046 157.956 153.55 163.435 150.895 169.844C148.24 176.254 147.545 183.307 148.899 190.111C150.252 196.915 153.593 203.165 158.499 208.071C163.404 212.977 169.654 216.317 176.459 217.671C183.263 219.024 190.316 218.33 196.725 215.675C203.135 213.02 208.613 208.524 212.468 202.756C216.322 196.987 218.379 190.205 218.379 183.268C218.368 173.968 214.669 165.052 208.093 158.477C201.517 151.901 192.602 148.202 183.302 148.191Z" fill="#E0E0E0"/>
</g>
<g clip-path="url(#clip0_1677_829)">
<path d="M184 318.295C257.836 318.295 317.693 258.439 317.693 184.603C317.693 110.766 257.836 50.9102 184 50.9102C110.164 50.9102 50.3076 110.766 50.3076 184.603C50.3076 258.439 110.164 318.295 184 318.295Z" fill="white" stroke="#2F9FEE" stroke-width="6" stroke-miterlimit="10"/>
</g>
<circle cx="184" cy="326.603" r="16" fill="#2F9FEE"/>
<circle cx="184" cy="359.603" r="8" fill="#2F9FEE"/>
<circle cx="184" cy="384.603" r="8" fill="#2F9FEE"/>
<circle cx="184" cy="409.603" r="8" fill="#2F9FEE"/>
<g clip-path="url(#clip1_1677_829)">
<path d="M252.574 151.38C238.822 151.55 225.067 151.433 211.312 151.448C206.742 151.452 203.512 154.576 203.508 159.066C203.489 186.09 203.489 213.111 203.508 240.135C203.508 244.347 206.731 247.542 211.045 247.557C225.56 247.599 240.075 247.576 254.593 247.565C257.365 247.565 259.465 246.349 260.828 243.97C261.271 243.199 261.61 242.367 262 241.565V157.15C260.389 152.796 257.182 151.324 252.578 151.38H252.574ZM208.342 169.315C208.43 165.965 208.361 162.612 208.376 159.262C208.388 157.143 209.285 156.251 211.438 156.251C225.644 156.243 239.846 156.243 254.051 156.251C256.208 156.251 257.106 157.143 257.117 159.258C257.132 162.661 257.083 166.063 257.148 169.462C257.167 170.459 256.861 170.693 255.884 170.689C248.172 170.651 240.46 170.666 232.752 170.666C225.09 170.666 217.432 170.644 209.773 170.693C208.659 170.7 208.315 170.467 208.346 169.315H208.342ZM208.342 176.835C208.342 175.714 208.617 175.443 209.754 175.443C225.082 175.484 240.411 175.484 255.739 175.443C256.876 175.443 257.159 175.71 257.151 176.835C257.098 184.442 257.121 192.048 257.121 199.655C257.121 207.262 257.094 214.669 257.151 222.174C257.159 223.299 256.876 223.567 255.739 223.567C240.411 223.525 225.082 223.525 209.754 223.567C208.617 223.567 208.342 223.296 208.342 222.174C208.384 207.062 208.384 191.951 208.342 176.835ZM257.151 229.694C257.064 233.044 257.132 236.397 257.117 239.747C257.106 241.866 256.212 242.758 254.055 242.758C239.849 242.766 225.647 242.766 211.442 242.758C209.285 242.758 208.384 241.866 208.376 239.751C208.361 236.349 208.41 232.946 208.346 229.547C208.326 228.55 208.628 228.317 209.609 228.32C217.321 228.358 225.033 228.343 232.741 228.343C240.403 228.343 248.061 228.366 255.724 228.317C256.834 228.309 257.182 228.539 257.151 229.694Z" fill="#2F9FEE"/>
<path d="M196.843 209.087C168.71 209.133 140.581 209.118 112.448 209.133C111.463 209.133 110.833 209.189 110.837 207.793C110.891 182.059 110.875 156.326 110.879 130.589C110.879 128.26 111.734 127.409 114.082 127.409C152.572 127.409 191.063 127.409 229.553 127.409C231.893 127.409 232.741 128.263 232.749 130.597C232.756 134.801 232.749 139.009 232.749 143.213C232.749 146.661 232.749 146.616 236.314 146.657C237.383 146.668 237.662 146.397 237.651 145.34C237.589 140.533 237.624 135.727 237.624 130.921C237.62 125.535 234.638 122.603 229.145 122.603C210.003 122.603 190.857 122.603 171.715 122.603C152.572 122.603 133.53 122.603 114.437 122.603C108.848 122.603 106 125.407 106 130.917C106 160.606 106 190.295 106 219.984C106 225.396 108.978 228.347 114.437 228.347C126.623 228.347 138.81 228.362 151 228.324C152.061 228.324 152.366 228.569 152.34 229.634C152.263 232.735 152.34 235.841 152.301 238.946C152.286 240.18 152.859 241.795 152.065 242.548C151.278 243.289 149.652 242.747 148.396 242.759C144.994 242.789 145.059 242.77 144.968 246.056C144.933 247.301 145.254 247.614 146.529 247.61C162.678 247.561 178.823 247.58 194.972 247.58C198.687 247.58 198.637 247.58 198.656 243.944C198.66 242.886 198.274 242.717 197.351 242.755C195.728 242.819 194.098 242.717 192.479 242.792C191.551 242.834 191.269 242.585 191.288 241.641C191.353 238.539 191.288 235.434 191.322 232.329C191.338 231.042 190.75 229.356 191.563 228.58C192.368 227.809 194.071 228.373 195.377 228.362C198.626 228.332 198.553 228.351 198.656 225.223C198.702 223.875 198.351 223.51 196.946 223.514C169.577 223.559 142.207 223.548 114.838 223.548C114.433 223.548 114.025 223.563 113.62 223.548C111.864 223.477 110.921 222.562 110.887 220.815C110.852 219.114 110.978 217.402 110.849 215.712C110.738 214.308 111.093 213.898 112.616 213.901C140.241 213.954 167.862 213.939 195.488 213.939C198.633 213.939 198.538 213.935 198.672 210.856C198.736 209.37 198.282 209.095 196.847 209.099L196.843 209.087ZM157.165 229.559C157.15 228.573 157.436 228.324 158.425 228.328C167.351 228.366 176.281 228.366 185.206 228.328C186.191 228.324 186.482 228.569 186.466 229.559C186.409 233.56 186.409 237.561 186.466 241.562C186.482 242.552 186.195 242.804 185.206 242.792C180.743 242.74 176.281 242.77 171.818 242.77C167.355 242.77 162.892 242.74 158.429 242.792C157.444 242.804 157.154 242.552 157.169 241.562C157.226 237.561 157.226 233.56 157.169 229.559H157.165Z" fill="#2F9FEE"/>
<path d="M226.25 132.185C208.124 132.234 190.001 132.216 171.874 132.216C153.748 132.216 135.522 132.234 117.346 132.182C115.975 132.178 115.716 132.532 115.716 133.819C115.758 156.797 115.761 179.771 115.708 202.749C115.708 204.127 116.105 204.345 117.384 204.341C143.429 204.304 169.477 204.311 195.521 204.311C198.621 204.311 198.553 204.311 198.652 201.187C198.694 199.851 198.366 199.467 196.945 199.471C172.016 199.52 147.09 199.497 122.16 199.535C120.9 199.535 120.583 199.253 120.587 197.996C120.633 178.224 120.633 158.449 120.587 138.678C120.587 137.297 120.954 136.988 122.316 136.992C155.317 137.033 188.317 137.022 221.322 137.022C221.577 137.022 221.833 137.052 222.081 137.018C222.833 136.917 223.028 137.252 223.009 137.952C222.963 139.653 222.994 141.354 222.994 143.059C222.994 146.706 222.994 146.672 226.701 146.661C227.613 146.661 227.907 146.465 227.896 145.513C227.835 141.61 227.804 137.703 227.907 133.8C227.945 132.456 227.564 132.182 226.247 132.185H226.25Z" fill="#2F9FEE"/>
<path d="M144.998 181.574C144.998 185.131 144.998 185.101 148.617 185.108C149.571 185.108 149.904 184.916 149.896 183.892C149.85 176.384 149.869 168.875 149.869 161.366C149.869 159.796 149.613 158.272 148.877 156.864C146.857 153.003 142.234 150.887 137.962 151.84C133.316 152.879 130.51 156.161 130.395 160.903C130.303 164.655 130.376 168.412 130.376 172.164H130.368V181.476C130.368 185.21 130.368 185.176 134.201 185.108C135.11 185.093 135.27 184.788 135.263 183.986C135.224 180.682 135.266 177.377 135.228 174.076C135.221 173.312 135.4 173.034 136.228 173.049C138.817 173.101 141.409 173.098 143.998 173.049C144.811 173.034 145.028 173.278 145.013 174.061C144.967 176.564 144.994 179.067 144.994 181.57L144.998 181.574ZM144.074 168.28C142.757 168.227 141.436 168.265 140.119 168.265C138.802 168.265 137.481 168.227 136.164 168.28C135.419 168.31 135.217 168.05 135.232 167.343C135.278 165.194 135.19 163.041 135.274 160.892C135.377 158.325 137.568 156.296 140.138 156.258C142.642 156.221 144.864 158.295 144.967 160.899C145.051 163.045 144.967 165.197 145.009 167.35C145.025 168.065 144.807 168.31 144.07 168.28H144.074Z" fill="#404041"/>
<path d="M161.273 173.049C162.43 173.151 163.606 173.091 164.774 173.049C167.557 172.955 169.825 171.845 171.688 169.782C173.876 167.358 174.341 164.509 174.265 161.408C174.124 155.581 170.062 151.513 164.156 151.445C161.518 151.415 158.876 151.494 156.238 151.415C155.104 151.381 154.695 151.61 154.715 152.849C154.795 157.952 154.749 163.06 154.749 168.167V181.533C154.749 185.161 154.749 185.123 158.483 185.112C159.445 185.112 159.662 184.841 159.647 183.934C159.59 180.833 159.716 177.724 159.582 174.626C159.521 173.218 160.006 172.936 161.273 173.049ZM159.628 163.719C159.597 163.222 159.624 162.717 159.624 162.221C159.624 160.572 159.655 158.92 159.609 157.271C159.59 156.533 159.735 156.183 160.59 156.229C161.903 156.3 163.228 156.21 164.541 156.263C167.172 156.364 169.222 158.366 169.355 160.945C169.401 161.84 169.405 162.748 169.352 163.643C169.218 165.905 167.481 167.912 165.221 168.175C163.427 168.386 161.289 168.849 159.891 167.991C158.96 167.418 159.716 165.198 159.628 163.719Z" fill="#404041"/>
<path d="M190.028 156.221C191.223 156.255 192.83 156.77 193.525 156.014C194.27 155.205 193.678 153.631 193.75 152.397C193.75 152.348 193.743 152.295 193.75 152.246C193.857 151.546 193.479 151.429 192.865 151.433C188.604 151.452 184.343 151.456 180.087 151.433C179.403 151.429 179.14 151.565 179.106 152.325C178.915 156.198 178.884 156.236 182.778 156.228C183.778 156.228 184.042 156.499 184.027 157.47C183.969 161.069 184.004 164.671 184.004 168.269C184.004 171.867 183.969 175.469 184.027 179.067C184.042 180.046 183.775 180.309 182.774 180.309C178.88 180.302 178.911 180.339 179.106 184.212C179.144 184.973 179.411 185.104 180.09 185.1C184.351 185.078 188.612 185.078 192.872 185.1C193.491 185.1 193.727 184.973 193.777 184.288C194.063 180.317 194.086 180.32 190.181 180.283C190.131 180.283 190.078 180.275 190.028 180.283C189.081 180.452 188.852 180.057 188.856 179.139C188.894 171.89 188.894 164.637 188.856 157.388C188.852 156.465 189.081 156.191 190.032 156.221H190.028Z" fill="#404041"/>
<path d="M231.867 214.233C231.867 214.233 231.89 214.233 231.898 214.233C231.879 214.233 231.814 214.225 231.665 214.21C233.161 214.391 232.864 213.412 232.948 212.927C234.341 204.857 235.685 196.784 237.04 188.707C237.212 187.675 237.838 186.373 237.422 185.677C236.922 184.841 235.376 185.214 234.322 184.894C233.257 184.566 232.726 184.773 232.524 186.019C231.218 194.1 229.809 202.166 228.481 210.247C227.878 213.924 227.992 214.011 231.863 214.233H231.867Z" fill="#404041"/>
<path d="M218.68 205.828C221.387 208.496 221.356 208.47 223.998 205.775C224.644 205.117 224.514 204.785 223.93 204.24C222.532 202.93 221.215 201.533 219.814 200.227C219.234 199.685 219.219 199.339 219.806 198.793C221.208 197.487 222.548 196.117 223.907 194.766C224.151 194.521 224.369 194.25 224.621 193.968C224.422 193.742 224.266 193.547 224.09 193.37C223.376 192.658 222.62 191.981 221.948 191.236C221.44 190.671 221.108 190.765 220.612 191.258C218.085 193.791 215.542 196.309 212.965 198.793C212.396 199.343 212.377 199.659 212.957 200.212C214.897 202.053 216.775 203.95 218.68 205.828Z" fill="#404041"/>
<path d="M245.343 198.443C246.172 199.189 246.42 199.742 245.397 200.525C244.641 201.104 244.019 201.85 243.335 202.523C240.716 205.105 240.739 205.083 243.419 207.657C244.019 208.233 244.358 208.305 244.977 207.68C247.455 205.169 249.99 202.712 252.502 200.231C252.712 200.024 252.906 199.802 253.185 199.512C252.914 199.226 252.689 198.974 252.448 198.737C250.585 196.893 248.714 195.056 246.848 193.215C244.057 190.464 244.076 190.479 241.426 193.332C240.926 193.87 240.926 194.164 241.446 194.653C242.766 195.899 244 197.235 245.347 198.451L245.343 198.443Z" fill="#404041"/>
<path d="M232.912 165.86C234.429 165.86 235.188 165.105 235.188 163.594C235.188 161.901 234.321 161.054 232.588 161.054C231.071 161.054 230.312 161.809 230.312 163.32C230.312 165.013 231.179 165.86 232.912 165.86Z" fill="#2F9FEE"/>
<path d="M238.884 233.135C235.642 233.184 232.401 233.153 229.16 233.153C225.27 233.153 225.3 233.153 225.415 237C225.438 237.821 225.705 237.99 226.465 237.975C228.541 237.93 230.618 237.96 232.695 237.96C233.909 237.96 235.127 237.96 236.341 237.96C240.147 237.96 240.105 237.96 240.09 234.264C240.09 233.293 239.773 233.12 238.884 233.135Z" fill="#2F9FEE"/>
</g>
<defs>
<clipPath id="clip0_1677_829">
<rect width="272" height="272" fill="white" transform="translate(48 48.6025)"/>
</clipPath>
<clipPath id="clip1_1677_829">
<rect width="156" height="125" fill="white" transform="translate(106 122.603)"/>
</clipPath>
</defs>
</svg>
