<svg width="367" height="414" viewBox="0 0 367 414" fill="none" xmlns="http://www.w3.org/2000/svg">
<g opacity="0.3">
<path d="M183.301 366.602C82.2106 366.602 0 284.358 0 183.301C0 82.2439 82.2439 0 183.301 0C284.358 0 366.602 82.2439 366.602 183.301C366.602 284.358 284.425 366.602 183.301 366.602ZM183.301 2.58286C83.677 2.58286 2.62453 83.6353 2.62453 183.268C2.62453 282.9 83.7103 363.953 183.301 363.953C282.892 363.953 363.986 282.9 363.986 183.268C363.986 83.6353 282.967 2.58286 183.301 2.58286Z" fill="#E0E0E0"/>
<path d="M183.302 330.2C102.283 330.2 36.3691 264.287 36.3691 183.267C36.3691 102.248 102.316 36.335 183.302 36.335C264.287 36.335 330.268 102.257 330.268 183.267C330.268 264.278 264.354 330.2 183.302 330.2ZM183.302 38.9845C103.749 38.9845 39.0187 103.706 39.0187 183.267C39.0187 262.829 103.782 327.542 183.302 327.542C262.821 327.542 327.585 262.82 327.585 183.267C327.585 103.715 262.896 38.9845 183.302 38.9845Z" fill="#E0E0E0"/>
<path d="M183.302 293.799C122.354 293.799 72.7715 244.216 72.7715 183.268C72.7715 122.32 122.388 72.7373 183.302 72.7373C244.216 72.7373 293.833 122.32 293.833 183.268C293.833 244.216 244.283 293.799 183.302 293.799ZM183.302 75.3869C154.706 75.4288 127.294 86.8093 107.077 107.033C86.8595 127.256 75.4874 154.672 75.4543 183.268C75.4543 242.749 123.854 291.149 183.335 291.149C211.952 291.149 239.396 279.781 259.631 259.546C279.865 239.312 291.233 211.867 291.233 183.251C291.233 154.635 279.865 127.191 259.631 106.956C239.396 86.7213 211.952 75.3535 183.335 75.3535L183.302 75.3869Z" fill="#E0E0E0"/>
<path d="M183.301 257.397C168.635 257.397 154.298 253.048 142.104 244.9C129.909 236.751 120.405 225.17 114.792 211.62C109.18 198.071 107.711 183.161 110.572 168.776C113.434 154.392 120.496 141.179 130.867 130.808C141.237 120.438 154.45 113.375 168.834 110.514C183.219 107.653 198.129 109.121 211.679 114.734C225.228 120.346 236.81 129.851 244.958 142.045C253.106 154.24 257.455 168.577 257.455 183.243C257.439 202.905 249.622 221.757 235.719 235.661C221.815 249.564 202.963 257.381 183.301 257.397ZM183.301 111.789C169.164 111.789 155.344 115.981 143.589 123.835C131.835 131.689 122.673 142.853 117.263 155.914C111.853 168.975 110.437 183.347 113.195 197.213C115.954 211.078 122.761 223.815 132.758 233.811C142.754 243.808 155.491 250.616 169.356 253.374C183.222 256.132 197.594 254.716 210.655 249.306C223.716 243.896 234.88 234.734 242.734 222.98C250.588 211.225 254.78 197.405 254.78 183.268C254.758 164.317 247.22 146.149 233.82 132.749C220.42 119.349 202.252 111.811 183.301 111.789Z" fill="#E0E0E0"/>
<path d="M183.302 220.994C175.84 220.994 168.546 218.782 162.342 214.636C156.138 210.491 151.302 204.599 148.447 197.705C145.592 190.811 144.844 183.226 146.3 175.908C147.756 168.589 151.349 161.867 156.625 156.591C161.901 151.315 168.624 147.722 175.942 146.266C183.26 144.81 190.846 145.557 197.739 148.413C204.633 151.268 210.525 156.104 214.671 162.308C218.816 168.512 221.029 175.806 221.029 183.268C221.018 193.27 217.039 202.86 209.967 209.932C202.894 217.005 193.304 220.983 183.302 220.994ZM183.302 148.191C176.364 148.191 169.582 150.248 163.814 154.102C158.046 157.956 153.55 163.435 150.895 169.844C148.24 176.254 147.545 183.307 148.899 190.111C150.252 196.915 153.593 203.165 158.499 208.071C163.404 212.977 169.654 216.317 176.459 217.671C183.263 219.024 190.316 218.33 196.725 215.675C203.135 213.02 208.613 208.524 212.468 202.756C216.322 196.987 218.379 190.205 218.379 183.268C218.368 173.968 214.669 165.052 208.093 158.477C201.517 151.901 192.602 148.202 183.302 148.191Z" fill="#E0E0E0"/>
</g>
<path d="M182.692 315.987C256.529 315.987 316.385 256.131 316.385 182.295C316.385 108.459 256.529 48.6025 182.692 48.6025C108.856 48.6025 49 108.459 49 182.295C49 256.131 108.856 315.987 182.692 315.987Z" fill="white" stroke="#2F9FEE" stroke-width="6" stroke-miterlimit="10"/>
<circle cx="188" cy="322.603" r="16" fill="#2F9FEE"/>
<circle cx="188" cy="355.603" r="8" fill="#2F9FEE"/>
<circle cx="188" cy="380.603" r="8" fill="#2F9FEE"/>
<circle cx="188" cy="405.603" r="8" fill="#2F9FEE"/>
<g clip-path="url(#clip0_1677_750)">
<path d="M265.336 259.567C257.499 251.761 249.67 243.946 241.802 236.171C241.055 235.436 240.844 234.888 241.413 233.934C242.37 232.326 243.081 230.588 243.591 228.784C243.819 227.986 244.155 227.639 245.085 227.648C248.248 227.666 248.248 227.617 248.248 224.413C248.248 224.36 248.239 224.306 248.248 224.257C248.521 222.756 248.02 222.034 246.387 222.346C245.349 222.546 245.143 222.159 245.273 221.08C245.935 215.471 245.389 209.968 243.412 204.649C243.063 203.704 242.889 202.773 242.893 201.77C242.916 194.896 242.92 188.021 242.893 181.146C242.889 179.809 243.493 177.983 242.638 177.27C241.829 176.593 240.053 177.127 238.715 177.003C237.682 176.909 237.53 177.323 237.539 178.232C237.583 182.554 237.561 186.876 237.561 191.198V193.964C236.009 192.115 234.676 190.587 233.114 189.3C232.39 188.703 232.184 188.057 232.193 187.157C232.229 181.427 232.211 175.702 232.211 169.972C232.211 166.354 232.211 166.434 228.578 166.318C227.111 166.269 226.802 166.724 226.825 168.105C226.905 173.554 226.856 178.999 226.856 184.63C225.438 183.953 224.226 183.236 222.924 182.79C221.801 182.403 221.461 181.837 221.47 180.665C221.528 173.581 221.502 166.501 221.502 159.417C221.502 155.656 221.502 155.714 217.65 155.643C216.397 155.621 216.102 155.982 216.116 157.194C216.174 164.536 216.133 171.879 216.16 179.221C216.16 180.17 216.107 180.701 214.903 180.331C213.968 180.041 212.948 179.921 211.964 179.921C210.98 179.921 210.752 179.56 210.761 178.633C210.806 174.102 210.801 169.571 210.77 165.04C210.761 163.748 211.338 162.077 210.528 161.27C209.719 160.468 208.032 161.154 206.748 161.007C205.594 160.874 205.379 161.377 205.388 162.42C205.438 167.419 205.411 172.418 205.411 177.417C205.411 178.92 204.694 179.783 203.259 180.006C202.485 180.126 201.707 180.224 200.946 180.407C200.24 180.576 200.011 180.366 200.034 179.654C200.074 178.353 200.056 177.052 200.043 175.746C200.029 174.454 200.494 172.667 199.832 171.99C198.969 171.108 197.166 171.821 195.78 171.678C194.84 171.585 194.652 171.995 194.666 172.841C194.71 175.599 194.688 178.361 194.679 181.119C194.679 181.605 194.827 182.122 194.133 182.411C192.568 183.066 191.038 183.815 189.329 184.599V172.797C189.329 168.943 189.329 169.014 185.446 168.929C184.113 168.903 183.943 169.384 183.952 170.524C184.006 176.098 183.983 181.667 183.965 187.241C183.965 187.736 184.167 188.288 183.684 188.707C181.921 190.217 180.369 191.937 178.629 193.88C178.629 188.475 178.646 183.387 178.615 178.295C178.606 177.007 179.183 175.336 178.374 174.539C177.568 173.746 175.886 174.432 174.603 174.28C173.444 174.142 173.252 174.637 173.256 175.679C173.296 184.376 173.269 193.073 173.292 201.77C173.292 202.777 173.113 203.704 172.764 204.649C170.809 209.915 170.241 215.373 170.894 220.924C171.042 222.176 170.805 222.372 169.628 222.364C159.644 222.319 149.654 222.328 139.67 222.35C138.431 222.35 136.744 221.802 136.073 222.586C135.447 223.326 135.952 224.961 135.809 226.186C135.662 227.465 136.176 227.697 137.357 227.692C148.545 227.648 159.737 227.674 170.925 227.648C171.807 227.648 172.276 227.808 172.598 228.753C180.615 252.117 207.612 261.54 228.467 248.245C229.455 247.617 229.894 247.76 230.641 248.513C238.232 256.123 245.855 263.701 253.482 271.276C254.104 271.89 254.806 272.421 255.472 272.995H257.043C257.807 272.541 258.465 271.966 259.091 271.338C261.149 269.262 263.229 267.212 265.296 265.145C267.564 262.886 267.573 261.786 265.341 259.562L265.336 259.567ZM208.05 248.976C190.25 248.945 175.868 234.527 175.994 216.834C176.119 199.146 190.604 184.826 208.216 184.982C226.015 185.138 240.258 199.436 240.191 217.079C240.124 234.785 225.796 249.007 208.05 248.976ZM260.143 262.717C260.044 262.837 259.928 262.944 259.816 263.051C258.657 264.169 257.553 266.094 256.313 266.183C255.061 266.277 253.978 264.236 252.842 263.109C246.767 257.085 240.724 251.03 234.631 245.024C233.933 244.333 233.817 243.946 234.609 243.251C235.467 242.502 236.241 241.629 236.917 240.707C237.574 239.811 237.973 239.811 238.773 240.613C245.689 247.568 252.65 254.474 259.601 261.389C259.888 261.674 260.232 261.906 260.536 262.151C260.317 262.463 260.237 262.592 260.143 262.708V262.717Z" fill="#2F9FEE"/>
<path d="M173.291 242.533C173.439 241.348 173.068 240.983 171.802 240.987C160.98 241.045 150.155 241.027 139.334 241.019C133.724 241.014 130.468 237.784 130.468 232.201C130.459 204.288 130.463 176.374 130.468 148.461C130.468 147.423 130.49 146.385 130.807 145.373C131.953 141.697 134.977 139.644 139.338 139.644C163.231 139.644 187.127 139.644 211.02 139.644C222.364 139.644 233.709 139.626 245.058 139.652C250.175 139.661 253.597 143.012 253.597 148.006C253.611 176.232 253.597 204.457 253.611 232.682C253.611 233.734 253.387 234.732 253.141 235.748C252.895 236.773 251.473 237.53 252.014 238.541C252.519 239.49 253.656 240.101 254.523 240.858C254.877 241.166 255.244 241.451 255.642 241.776C258.022 239.009 258.97 235.841 258.97 232.259C258.939 204.346 258.957 176.432 258.952 148.519C258.952 139.973 253.298 134.315 244.74 134.315C209.606 134.306 174.472 134.306 139.338 134.315C130.794 134.315 125.113 139.969 125.108 148.519C125.09 176.379 125.099 204.243 125.117 232.103C125.117 233.346 125.171 234.621 125.439 235.828C126.871 242.23 132.23 246.343 139.132 246.361C149.224 246.387 159.312 246.374 169.404 246.361C170.643 246.361 172.244 246.886 173.032 246.142C173.828 245.385 173.153 243.772 173.3 242.547L173.291 242.533Z" fill="#2F9FEE"/>
<path d="M119.562 219.116C115.898 217.601 114.351 214.731 114.351 210.855C114.364 182.991 114.355 155.126 114.36 127.266C114.36 121.595 117.625 118.329 123.279 118.324C135.984 118.324 148.693 118.324 161.397 118.324C183.934 118.324 206.471 118.324 229.008 118.324C233.629 118.324 237.015 121.252 237.53 125.591C237.659 126.709 237.015 128.282 237.861 128.826C238.715 129.374 240.187 128.964 241.39 128.973C241.601 128.973 241.811 128.951 242.017 128.973C242.679 129.053 242.875 128.808 242.925 128.117C243.533 119.487 237.525 113.004 228.829 113C193.588 113 158.346 113 123.101 113.004C122.268 113.004 121.419 113.004 120.6 113.138C113.581 114.288 109.027 119.656 109.014 126.87C108.987 140.936 109.005 154.997 109.005 169.059C109.005 183.067 108.987 197.079 109.014 211.087C109.023 216.941 111.644 221.254 116.963 223.83C119.021 224.828 119.048 224.77 119.589 222.653C119.781 221.9 119.969 221.143 120.184 220.394C120.363 219.771 120.3 219.423 119.562 219.12V219.116Z" fill="#404041"/>
<path d="M156.073 217.053C157.084 217.044 157.268 216.718 157.263 215.805C157.223 210.917 157.245 206.03 157.245 201.142V188.818C157.245 184.955 157.245 185.018 153.371 184.938C152.061 184.911 151.864 185.365 151.868 186.519C151.913 195.359 151.891 204.194 151.891 213.034C151.891 217.124 151.891 217.084 156.073 217.048V217.053Z" fill="#2F9FEE"/>
<path d="M163.898 217.048C164.824 216.946 165.776 216.968 166.711 217.048C167.628 217.124 167.968 216.901 167.96 215.881C167.91 208.605 167.924 201.329 167.946 194.054C167.946 193.292 167.821 192.922 166.94 192.989C165.848 193.074 164.743 193.074 163.656 192.989C162.717 192.918 162.56 193.301 162.569 194.134C162.609 197.77 162.587 201.41 162.587 205.05C162.587 208.583 162.623 212.121 162.565 215.654C162.547 216.683 162.73 217.186 163.898 217.057V217.048Z" fill="#2F9FEE"/>
<path d="M146.263 201.267C145.453 200.621 143.767 201.111 142.47 201.004C141.463 200.924 141.141 201.227 141.159 202.274C141.226 205.865 141.186 209.456 141.186 213.052C141.186 217.088 141.186 217.057 145.239 217.053C146.236 217.053 146.607 216.834 146.567 215.77C146.487 213.586 146.54 211.399 146.54 209.211C146.54 207.808 146.581 206.4 146.527 204.996C146.478 203.713 147.122 201.962 146.259 201.271L146.263 201.267Z" fill="#2F9FEE"/>
<path d="M122.223 123.648H122.066C120.501 123.648 119.718 124.446 119.718 126.041C119.718 127.998 120.681 128.977 122.608 128.977C124.263 128.977 125.09 128.132 125.09 126.442C125.09 124.58 124.135 123.648 122.223 123.648Z" fill="#404041"/>
<path d="M130.459 126.335C130.459 128.097 131.355 128.977 133.147 128.977C134.94 128.977 135.835 128.086 135.832 126.304C135.829 124.522 134.926 123.637 133.125 123.649C131.324 123.66 130.437 124.556 130.463 126.335H130.459Z" fill="#404041"/>
<path d="M141.186 126.398C141.186 128.117 142.049 128.977 143.776 128.977C145.622 128.977 146.545 128.064 146.545 126.237C146.545 124.508 145.675 123.644 143.937 123.644C142.103 123.644 141.186 124.56 141.186 126.393V126.398Z" fill="#404041"/>
<path d="M159.911 150.328C161.695 150.328 162.587 149.44 162.587 147.663C162.587 145.887 161.693 144.993 159.907 144.981C158.121 144.969 157.23 145.866 157.236 147.672C157.242 149.478 158.134 150.365 159.911 150.332V150.328Z" fill="#2F9FEE"/>
<path d="M138.685 144.977C136.777 144.977 135.822 145.914 135.822 147.788C135.822 149.482 136.651 150.328 138.309 150.328C140.227 150.328 141.186 149.394 141.186 147.526C141.186 145.827 140.351 144.977 138.681 144.977H138.685Z" fill="#2F9FEE"/>
<path d="M149.27 150.328C151.02 150.328 151.896 149.468 151.896 147.748C151.896 145.901 150.98 144.977 149.149 144.977C147.41 144.977 146.541 145.841 146.541 147.57C146.541 149.406 147.451 150.324 149.27 150.324V150.328Z" fill="#2F9FEE"/>
<path d="M208.107 190.329C193.327 190.307 181.339 202.265 181.348 217.017C181.357 231.729 193.238 243.608 207.982 243.648C222.82 243.692 234.787 231.845 234.827 217.066C234.867 202.328 222.896 190.351 208.103 190.329H208.107ZM208.17 238.301C200.547 238.417 192.723 233.872 189.784 227.759H226.6C222.167 234.554 216.137 238.176 208.17 238.301ZM227.544 222.382C214.585 222.337 201.626 222.351 188.666 222.355C188 222.355 187.369 222.475 187.159 221.508C185.503 213.965 188.196 205.504 194.683 200.523C194.683 205.692 194.719 210.628 194.656 215.565C194.643 216.701 194.88 217.178 196.105 217.044C197.34 216.91 198.986 217.423 199.738 216.795C200.628 216.055 200.015 214.357 200.029 213.083C200.069 208.294 200.082 203.504 200.02 198.719C200.006 197.614 200.297 197.07 201.402 196.732C205.428 195.489 205.414 195.453 205.414 199.641C205.414 205.001 205.437 210.365 205.397 215.725C205.388 216.701 205.589 217.147 206.685 217.044C207.978 216.924 209.664 217.445 210.483 216.808C211.369 216.117 210.76 214.366 210.769 213.083C210.805 207.772 210.8 202.466 210.769 197.155C210.765 196.166 210.89 195.818 212.053 196.041C216.142 196.807 216.151 196.754 216.151 200.893C216.151 205.839 216.177 210.784 216.128 215.725C216.119 216.714 216.343 217.053 217.412 217.049C221.51 217.044 221.51 217.084 221.51 213.074V200.563C222.995 201.45 223.997 202.622 224.927 203.825C228.882 208.922 230.215 214.669 229.119 221.009C228.958 221.95 228.654 222.377 227.549 222.373L227.544 222.382Z" fill="#2F9FEE"/>
</g>
<defs>
<clipPath id="clip0_1677_750">
<rect width="158" height="160" fill="white" transform="translate(109 113)"/>
</clipPath>
</defs>
</svg>
