<svg width="97" height="97" viewBox="0 0 97 97" fill="none" xmlns="http://www.w3.org/2000/svg">
<path d="M48.5 97C75.2858 97 97 75.2858 97 48.5C97 21.7142 75.2858 0 48.5 0C21.7142 0 0 21.7142 0 48.5C0 75.2858 21.7142 97 48.5 97Z" fill="white"/>
<g clip-path="url(#clip0_1462_693)">
<path d="M46.7904 55.5253C57.2639 56.1255 66.2736 48.0797 66.8256 37.6334C67.3082 28.5014 61.1242 20.2811 52.2106 18.2153C51.3648 18.0195 50.5083 17.8716 49.6572 17.7007H49.3901C49.3011 17.9001 49.212 17.8663 49.123 17.7007H48.4571C48.101 17.9073 47.7466 17.9073 47.3905 17.7007H46.8581C46.7691 17.8467 46.68 17.8859 46.591 17.7007H46.0586C45.9892 17.9162 45.8004 17.8236 45.6651 17.8414C35.4249 19.1182 28.1139 28.2342 29.1092 38.4918C30.0031 47.7057 37.5706 54.9964 46.7904 55.5253ZM47.9621 20.3737C56.9149 20.3933 64.1975 27.7125 64.1779 36.67C64.1583 45.6293 56.8543 52.8968 47.8855 52.8808C38.9291 52.8648 31.6537 45.5581 31.6715 36.5934C31.6875 27.643 39.0093 20.3541 47.9621 20.3737Z" fill="#404041"/>
<path d="M18.3239 51.8283C18.3292 51.1035 17.747 50.5247 16.9528 50.4891C16.5095 50.4695 16.0625 50.5158 15.6227 50.4766C14.8108 50.4054 14.2107 50.701 13.8154 51.4116V52.2112C14.1947 52.9413 14.7859 53.2423 15.6085 53.1568C16.0465 53.1105 16.4952 53.1568 16.9386 53.1461C17.7327 53.1229 18.3185 52.5602 18.3239 51.8301V51.8283Z" fill="#2F9FEE"/>
<path d="M48.4572 17.7007H47.3906C47.7467 17.8129 48.1011 17.8129 48.4572 17.7007Z" fill="#404041"/>
<path d="M75.7696 17.7007H74.9701C74.9594 17.7381 74.9505 17.7755 74.9434 17.8147C75.2265 17.8147 75.5114 17.8147 75.7945 17.8147C75.7874 17.7755 75.7785 17.7381 75.7696 17.7007Z" fill="#404041"/>
<path d="M46.8579 17.7007H46.5908C46.6799 17.7844 46.7689 17.7844 46.8579 17.7007Z" fill="#404041"/>
<path d="M49.3901 17.7007H49.123C49.2121 17.7844 49.3011 17.7844 49.3901 17.7007Z" fill="#404041"/>
<path d="M75.826 54.6438C74.0294 53.8353 71.9746 54.1701 70.5198 55.5609C69.3642 56.665 68.2514 57.8137 67.1207 58.9445C65.1282 60.9372 63.1375 62.93 61.0649 65.0028C60.5948 62.8 59.3075 61.5587 57.2278 61.0512C53.1413 60.0522 49.0673 59.0015 44.9826 57.9953C42.6999 57.4326 40.4332 57.5269 38.2627 58.4565C35.5954 59.598 33.0883 61.069 30.494 62.3637C29.4951 62.8623 29.5004 62.873 28.9306 61.9006C28.1045 60.4902 27.004 60.1946 25.5796 61.0156C23.2381 62.3637 20.8984 63.7153 18.5587 65.0687C17.0915 65.9164 16.8048 66.9867 17.656 68.4612C20.756 73.8339 23.8577 79.2049 26.9595 84.5741C27.7697 85.9738 28.863 86.2783 30.2536 85.4787C32.6147 84.1217 34.974 82.7576 37.3297 81.3917C38.7844 80.5494 39.0658 79.4631 38.2182 77.9939C35.85 73.8874 33.489 69.7772 31.1012 65.6813C30.8626 65.2717 30.9 65.1293 31.3202 64.9174C33.635 63.7563 35.9373 62.5702 38.236 61.3753C40.1857 60.3602 42.2156 60.0646 44.3577 60.5935C45.6254 60.9069 46.8932 61.2222 48.161 61.5391C51.0188 62.2515 53.8749 62.9691 56.7327 63.6779C57.4664 63.8595 58.0397 64.2317 58.2997 64.969C58.7555 66.2672 57.8136 67.5174 56.3553 67.5227C53.136 67.5352 49.9167 67.5227 46.6956 67.5298C45.8391 67.5316 45.2586 68.0872 45.2622 68.8565C45.2658 69.592 45.8355 70.1423 46.6404 70.1868C46.7953 70.1957 46.952 70.1904 47.1069 70.1904C50.4597 70.1904 53.8126 70.1654 57.1654 70.2011C58.8427 70.2189 60.2067 69.6543 61.389 68.4576C64.8825 64.9174 68.4134 61.4145 71.9319 57.8991C72.1348 57.6961 72.3378 57.4842 72.5675 57.3133C73.7943 56.4068 75.509 57.007 75.9275 58.4761C76.1981 59.4253 75.8278 60.1501 75.1707 60.8054C71.4297 64.538 67.6709 68.2528 63.9708 72.0264C61.9873 74.0512 59.6494 75.0128 56.8253 74.9719C53.517 74.922 50.2087 74.963 46.9003 74.9576C46.4196 74.9576 45.962 74.995 45.6272 75.3904C45.2675 75.8142 45.1607 76.2932 45.3975 76.8132C45.6717 77.4152 46.181 77.6235 46.8042 77.6235C50.4241 77.6235 54.0441 77.6556 57.6622 77.6075C60.6002 77.5665 63.1785 76.523 65.2742 74.4519C69.2859 70.4878 73.262 66.4863 77.2451 62.4954C78.1621 61.5765 78.6429 60.4528 78.6803 59.1564C78.7355 57.2349 77.5852 55.4363 75.826 54.6438ZM35.6346 78.8131C35.8197 79.1337 35.7432 79.2565 35.4547 79.4061C35.0024 79.6412 34.5537 79.8869 34.1353 80.1754C33.781 80.4176 33.6243 80.309 33.4338 79.9724C32.4526 78.2361 31.4609 76.5069 30.4513 74.7884C29.8975 73.8446 28.7259 73.7538 28.1454 74.5837C27.9887 74.808 27.905 75.0574 27.9228 75.3423C27.889 75.6878 28.0635 75.9745 28.2291 76.263C29.1817 77.912 30.1201 79.5717 31.1012 81.203C31.3736 81.6571 31.3024 81.8583 30.8466 82.0702C30.3872 82.2839 29.9474 82.551 29.5254 82.836C29.2155 83.0461 29.0891 82.9535 28.9217 82.6632C26.039 77.652 23.1491 72.6443 20.2449 67.6456C20.0508 67.3126 20.1577 67.2128 20.4319 67.0579C22.4137 65.9289 24.3919 64.7927 26.3595 63.6387C26.664 63.4606 26.7868 63.498 26.9578 63.7954C29.8405 68.8067 32.7304 73.8143 35.6328 78.8149L35.6346 78.8131Z" fill="#404041"/>
<path d="M75.3813 31.0265C76.106 31.0212 76.6526 30.4852 76.6971 29.7194C76.7149 29.4095 76.7007 29.0997 76.7007 28.7898H76.6989C76.6989 28.4568 76.7203 28.1238 76.6953 27.7926C76.6419 27.0802 76.0757 26.5406 75.3937 26.5264C74.694 26.5121 74.0832 27.0731 74.0494 27.8139C74.0191 28.455 74.0209 29.0997 74.0494 29.7408C74.0832 30.4976 74.6601 31.0319 75.383 31.0247L75.3813 31.0265Z" fill="#2F9FEE"/>
<path d="M19.1519 57.1957C19.2018 57.9508 19.7698 58.4832 20.4945 58.4743C21.1907 58.4654 21.7587 57.9508 21.7961 57.2278C21.8317 56.5653 21.83 55.8975 21.7961 55.235C21.7587 54.5227 21.1729 53.9867 20.4927 53.976C19.793 53.9653 19.2 54.528 19.1502 55.2689C19.1306 55.5769 19.1466 55.8886 19.1466 56.1984C19.1466 56.5315 19.1288 56.8645 19.1502 57.1957H19.1519Z" fill="#2F9FEE"/>
<path d="M69.9932 25.693C70.303 25.7108 70.6129 25.6966 70.9245 25.6966C71.2574 25.6966 71.5904 25.7126 71.9216 25.693C72.6392 25.6538 73.184 25.1125 73.2179 24.4268C73.2499 23.7626 72.73 23.1126 72.0284 23.0592C71.3233 23.0058 70.6093 23.0075 69.9042 23.0592C69.1955 23.1108 68.6898 23.7377 68.7147 24.4197C68.7379 25.1125 69.2721 25.6521 69.995 25.693H69.9932Z" fill="#2F9FEE"/>
<path d="M80.8315 23.0574C80.1264 23.0075 79.4124 23.0057 78.7073 23.0592C78.0058 23.1144 77.4876 23.7661 77.5232 24.4322C77.5588 25.116 78.1072 25.6556 78.8248 25.693C79.1346 25.709 79.4445 25.6965 79.7561 25.6948C80.089 25.6948 80.422 25.7108 80.7532 25.6912C81.4761 25.6485 82.0067 25.1071 82.0281 24.4126C82.0495 23.7287 81.5438 23.1072 80.8333 23.0556L80.8315 23.0574Z" fill="#2F9FEE"/>
<path d="M19.1556 48.4269C19.2126 49.1303 19.8019 49.6664 20.4786 49.6646C21.1641 49.6646 21.7553 49.1357 21.7944 48.4216C21.8318 47.736 21.8354 47.0468 21.7909 46.3629C21.7446 45.6595 21.1196 45.1395 20.4412 45.1591C19.7877 45.1787 19.2197 45.6951 19.1574 46.3665C19.1253 46.696 19.152 47.0308 19.152 47.3638C19.152 47.7181 19.1271 48.0743 19.1574 48.4269H19.1556Z" fill="#2F9FEE"/>
<path d="M23.9484 53.1426C24.2583 53.1587 24.5681 53.1444 24.8797 53.1426C25.2126 53.1426 25.5456 53.1587 25.8768 53.1373C26.5695 53.0928 27.0876 52.5781 27.1339 51.9103C27.182 51.2283 26.6959 50.5729 25.9908 50.5124C25.2661 50.45 24.5271 50.4518 23.8006 50.5106C23.1009 50.5658 22.5881 51.2318 22.6326 51.8961C22.6789 52.5817 23.2255 53.107 23.9484 53.1426Z" fill="#2F9FEE"/>
<path d="M75.3702 22.2187C76.0789 22.2187 76.6594 21.6666 76.6932 20.9151C76.7217 20.2972 76.7163 19.6757 76.695 19.0577C76.6736 18.454 76.4047 18.0052 75.794 17.8147C75.5109 18.064 75.226 18.064 74.9429 17.8147C74.3392 18.0088 74.0597 18.4505 74.0419 19.0577C74.0223 19.6757 74.017 20.2972 74.0437 20.9151C74.0757 21.6613 74.6633 22.2187 75.3684 22.2187H75.3702Z" fill="#2F9FEE"/>
<path d="M41.2849 74.9684C40.5353 74.9684 39.9281 75.5774 39.9477 76.3111C39.9673 77.0145 40.5763 77.6129 41.2778 77.6165C42.0079 77.62 42.6168 76.9932 42.6044 76.2524C42.5901 75.5258 42.0203 74.9684 41.2867 74.9684H41.2849Z" fill="#2F9FEE"/>
<path d="M46.6372 37.2309C47.6379 38.2317 48.2131 38.2317 49.2137 37.2309C52.0538 34.3923 54.8938 31.5519 57.7321 28.7097C57.9048 28.537 58.0811 28.3642 58.2182 28.1648C58.5974 27.6145 58.5209 26.9164 58.0544 26.4659C57.5825 26.01 56.8934 25.9583 56.3521 26.3554C56.1741 26.4854 56.0209 26.6493 55.8642 26.806C53.3536 29.3152 50.8376 31.8208 48.3413 34.3442C48.0172 34.6719 47.8445 34.6897 47.5151 34.3513C46.1387 32.9356 44.7302 31.5519 43.3342 30.1522C43.0137 29.8316 42.679 29.552 42.07 29.5574C42.013 29.5716 41.8368 29.5983 41.6765 29.6642C40.7221 30.0596 40.5636 31.1441 41.3649 31.9543C43.1134 33.7209 44.8762 35.4715 46.6355 37.2291L46.6372 37.2309Z" fill="#404041"/>
<path d="M47.9364 26.0296C48.6771 26.0296 49.2291 25.4668 49.2629 24.669C49.27 24.4927 49.2629 24.3146 49.2629 24.1383C49.2629 23.9834 49.2665 23.8285 49.2629 23.6736C49.2398 22.8205 48.7038 22.2418 47.9399 22.24C47.1921 22.24 46.6294 22.8366 46.6009 23.6718C46.5903 24.003 46.5867 24.336 46.6027 24.6655C46.6419 25.4704 47.1921 26.0278 47.9346 26.0278L47.9364 26.0296Z" fill="#404041"/>
<path d="M37.3124 36.6254C37.3177 35.8686 36.7728 35.3201 35.968 35.2916C35.5709 35.2773 35.1703 35.2684 34.775 35.2969C34.0913 35.345 33.5767 35.8793 33.5393 36.5417C33.5001 37.2273 33.9933 37.8328 34.6931 37.9325C34.9103 37.9628 35.1347 37.9379 35.3555 37.9379V37.9486C35.5763 37.9486 35.7989 37.961 36.0179 37.9468C36.7853 37.8934 37.3088 37.3556 37.3141 36.6254H37.3124Z" fill="#404041"/>
<path d="M47.798 47.2516C47.1232 47.2997 46.6371 47.8019 46.589 48.5089C46.5765 48.7065 46.5872 48.906 46.5854 49.1054C46.5837 49.3049 46.5765 49.5043 46.5854 49.702C46.6246 50.4411 47.1267 50.97 47.8212 51.0109C48.5156 51.0519 49.1352 50.5817 49.2171 49.873C49.2741 49.3726 49.2777 48.8526 49.2136 48.3522C49.1228 47.638 48.512 47.2 47.7962 47.2498L47.798 47.2516Z" fill="#404041"/>
<path d="M60.3917 37.9629C60.6125 37.9629 60.8351 37.9753 61.0541 37.9611C61.7521 37.9112 62.2595 37.4108 62.3076 36.7394C62.3539 36.1019 61.9462 35.5214 61.298 35.3718C61.0024 35.3023 60.6855 35.3094 60.3775 35.3077C59.1631 35.3023 58.5506 35.7422 58.5346 36.6201C58.5167 37.523 59.1328 37.97 60.3917 37.9646V37.9629Z" fill="#404041"/>
<path d="M25.2557 70.7175C25.2521 71.4708 25.854 72.0709 26.5965 72.0549C27.2998 72.0388 27.8999 71.4334 27.9052 70.7299C27.9105 70.0034 27.2749 69.3819 26.5431 69.3961C25.8201 69.4104 25.2575 69.9873 25.2539 70.7157L25.2557 70.7175Z" fill="#2F9FEE"/>
</g>
<defs>
<clipPath id="clip0_1462_693">
<rect width="68.2126" height="68.2126" fill="white" transform="translate(13.8154 17.7007)"/>
</clipPath>
</defs>
</svg>
