<svg width="142" height="142" viewBox="0 0 142 142" fill="none" xmlns="http://www.w3.org/2000/svg">
<g clip-path="url(#clip0_1177_229)">
<path d="M140.059 45.6649C134.011 19.87 110.968 1.23244 84.4781 0.0659439C68.2181 -0.651561 53.7716 4.31375 41.5964 15.1468C35.9886 20.1341 30.9134 25.7201 25.6049 31.0419C25.2131 31.4337 24.8434 31.8563 24.5221 32.3053C23.7033 33.4409 22.6513 34.3301 21.5949 35.2281C10.19 44.9518 3.24408 57.2022 0.774706 71.9925C0.523807 73.5068 0.598636 75.0827 0 76.5397V79.5902C0.237694 80.8843 0.237694 82.1785 0 83.4726V84.3046C0.176069 84.4895 0.176069 84.6743 0 84.8592V86.5231C0.290515 87.9185 0.162864 89.3535 0.360942 90.7577C1.43056 98.3069 4.00998 105.341 7.81308 111.922C12.3865 119.836 18.4037 126.444 25.9614 131.607C32.0402 135.758 38.6604 138.721 45.8045 140.547C48.9913 141.362 52.2222 141.683 55.4707 141.996H56.8572C57.0421 141.621 57.227 141.67 57.4118 141.996H58.5211C59.8152 141.551 61.1093 141.547 62.4034 141.996H65.1765C66.1185 141.414 67.2013 141.643 68.2093 141.503C84.0512 139.31 97.0451 132.021 107.306 119.788C107.777 119.225 108.261 118.652 108.829 118.19C112.253 115.413 115.347 112.318 118.121 108.893C118.552 108.361 119.071 107.894 119.595 107.441C138.716 90.9206 145.812 70.2186 140.054 45.6605L140.059 45.6649ZM60.5899 136.735C29.923 136.753 5.23807 112.032 5.26007 81.3289C5.28208 51.0704 30.033 26.3187 60.2774 26.3187C90.9575 26.3187 115.66 50.9252 115.682 81.5094C115.708 111.953 91.0015 136.722 60.5899 136.735ZM136.41 66.6091C135.679 73.9646 131.563 85.8496 129.05 87.9449C130.868 81.615 131.687 75.2499 131.431 68.766C131.04 58.8662 128.403 49.5914 123.495 40.9769C122.597 39.4011 121.167 38.8993 119.793 39.652C118.371 40.4311 118.024 41.9234 118.961 43.5917C122.232 49.3933 124.468 55.5559 125.498 62.1367C127.509 75.0034 125.26 87.1086 118.878 98.4522C118.79 98.6063 118.658 98.7383 118.556 98.866C124.336 76.0335 119.899 55.5648 103.119 38.7936C86.3621 22.0445 65.9028 17.7219 42.9874 23.4707C47.574 20.7063 52.3586 18.7123 57.4338 17.4798C71.5942 14.0331 85.0856 15.8114 97.8902 22.7708C98.1323 22.9029 98.3656 23.0525 98.6121 23.1758C100.131 23.9505 101.57 23.5984 102.336 22.269C103.089 20.966 102.648 19.4518 101.196 18.611C97.877 16.6918 94.4084 15.0895 90.777 13.857C79.0904 9.88652 67.2761 9.45074 55.3342 12.5849C54.8764 12.7037 54.4451 12.8226 53.9785 12.7081C75.4634 -0.281804 107.191 3.21328 125.344 26.9394C134.293 38.6396 137.867 51.9596 136.414 66.6091H136.41Z" fill="#404041"/>
<path d="M58.5195 142H62.4019C61.1078 141.762 59.8136 141.762 58.5195 142Z" fill="#404041"/>
<path d="M56.8555 142H57.4101C57.2252 141.824 57.0403 141.824 56.8555 142Z" fill="#404041"/>
<path d="M48.8699 35.6156C26.0866 41.6109 11.3407 62.4846 13.3743 85.8893C13.6252 88.7902 14.1799 91.647 15.003 94.4466C15.452 95.9696 16.8121 96.74 18.203 96.3482C19.6468 95.9388 20.3775 94.6799 20.0562 93.1304C19.9813 92.7695 19.8801 92.4129 19.7877 92.0564C18.3439 86.4308 18.0226 80.7348 18.9469 75.0123C22.7368 51.5415 44.6135 36.0425 68.0615 40.1715C92.9841 44.5602 108.452 70.4256 100.555 94.5126C95.1762 110.918 80.3424 122.385 63.1404 123.468C59.5662 123.693 56.0316 123.433 52.5146 122.83C51.3217 122.627 50.3049 122.887 49.6182 123.961C48.6102 125.541 49.4246 127.452 51.3613 127.91C54.3413 128.618 57.3917 128.772 60.4421 128.843C63.3561 128.812 66.2612 128.61 69.1267 128.055C95.0706 122.993 111.634 98.9365 107.092 72.9434C102.439 46.3297 75.0074 28.7442 48.8699 35.62V35.6156Z" fill="#404041"/>
<path d="M57.7274 110.544C58.2644 111.618 57.9343 113.168 57.8506 114.501C57.7846 115.496 58.1103 115.804 59.0743 115.694C60.386 115.54 62.1511 116.271 62.9038 115.399C63.5553 114.647 63.1987 112.93 63.0975 111.653C63.0051 110.496 63.4232 110.117 64.5237 109.836C75.7173 106.974 79.9429 92.8663 72.2311 84.243C68.8726 80.4882 64.5985 79.018 59.6641 78.7847C54.3645 78.5382 50.2224 74.1363 49.9715 68.8277C49.725 63.6511 53.5061 58.9146 58.6077 58.0079C63.7842 57.0835 68.8021 60.134 70.51 65.1081C70.8798 66.1865 70.3428 67.802 71.4916 68.2774C72.5568 68.7176 73.9522 68.3038 75.1935 68.4007C76.2191 68.4799 76.3379 68.0133 76.2367 67.1902C75.4268 60.5433 71.9582 55.9522 65.6989 53.4915C64.867 53.1658 63.6389 53.3595 63.2516 52.5539C62.8906 51.7968 63.1327 50.7448 63.1327 49.8204C63.1298 48.1711 62.3169 47.3465 60.6941 47.3465C58.8161 47.3465 57.877 48.2651 57.877 50.1021C57.877 52.6816 57.8638 52.642 55.5749 53.4519C49.6018 55.5648 45.9659 59.8126 45.024 66.0105C44.0908 72.1555 46.2873 77.2705 51.2656 81.0781C54.2896 83.3935 57.8286 83.9877 61.5349 84.2606C66.817 84.6568 70.8533 89.0719 70.9942 94.2881C71.1395 99.6232 67.3452 104.236 62.1379 105.055C56.9527 105.869 51.9875 102.722 50.4073 97.6951C50.0904 96.6827 50.4909 95.2037 49.5225 94.7327C48.6246 94.2969 47.3481 94.6358 46.2388 94.6314C46.1024 94.6314 45.9571 94.649 45.8251 94.6314C44.9183 94.495 44.6146 94.8339 44.7246 95.7759C45.4421 102.022 48.5894 106.499 54.3116 109.158C55.4605 109.69 57.2168 109.519 57.7274 110.54V110.544Z" fill="#69B8EF"/>
<path d="M41.2916 118.947C34.4073 115.399 28.9228 110.329 24.7939 103.779C23.7507 102.123 22.3246 101.714 20.9556 102.564C19.5383 103.44 19.3358 104.919 20.4054 106.657C22.5975 110.214 25.2517 113.392 28.3109 116.231C31.5066 119.198 35.05 121.672 38.9323 123.649C40.9747 124.687 43.0259 123.609 43.0523 121.514C43.0699 120.242 42.3613 119.498 41.2916 118.943V118.947Z" fill="#404041"/>
<path d="M109.776 24.5801C109.195 24.0914 108.579 23.7129 108.033 23.7569C106.593 23.7965 105.784 24.36 105.352 25.4692C104.886 26.6709 105.286 27.657 106.197 28.4361C108.874 30.7119 111.339 33.1989 113.627 35.8621C114.732 37.1518 116.282 37.2927 117.422 36.3419C118.641 35.325 118.72 33.824 117.567 32.4198C115.216 29.563 112.602 26.9615 109.771 24.5757L109.776 24.5801Z" fill="#404041"/>
</g>
<defs>
<clipPath id="clip0_1177_229">
<rect width="142" height="142" fill="white"/>
</clipPath>
</defs>
</svg>
