<svg width="137" height="137" viewBox="0 0 137 137" fill="none" xmlns="http://www.w3.org/2000/svg">
<g clip-path="url(#clip0_1180_790)">
<path d="M62.3283 137C60.9474 136.36 59.4123 136.594 57.9844 136.219C57.7297 136.152 57.4548 136.172 57.19 136.128C55.5041 135.84 54.6259 134.847 54.8405 133.486C55.0516 132.151 56.2113 131.43 57.8973 131.705C60.0893 132.06 62.2948 132.299 64.5069 132.47C65.6734 132.56 66.5951 133.093 66.8096 134.307C67.0208 135.494 66.5079 136.373 65.3147 136.779C64.7885 137.03 64.1785 136.672 63.6623 137.004H62.3249L62.3283 137Z" fill="#232C61"/>
<path d="M71.6596 136.765C70.5402 136.36 70.0608 135.528 70.2217 134.388C70.3994 133.15 71.2675 132.567 72.4406 132.469C74.7433 132.285 77.0292 132.01 79.3151 131.681C80.9574 131.447 82.0233 132.198 82.1775 133.529C82.335 134.887 81.5373 135.843 79.905 136.101C78.2392 136.363 76.5599 136.52 74.8874 136.738C74.6159 136.775 74.2438 136.561 74.1031 137.003H73.302C72.7925 136.668 72.1825 137.04 71.663 136.769L71.6596 136.765Z" fill="#232C61"/>
<path d="M63.668 137C64.164 136.514 64.764 136.812 65.3204 136.776C65.3103 136.853 65.2936 136.926 65.2735 137H63.668Z" fill="#232C61"/>
<path d="M71.6602 136.765C72.2098 136.816 72.8098 136.531 73.2992 137H71.6937C71.7104 136.916 71.7004 136.839 71.6602 136.765Z" fill="#232C61"/>
<path d="M42.4417 127.234C42.7501 127.325 43.1757 127.432 43.5913 127.58C45.6326 128.308 47.6704 129.052 49.7117 129.783C51.344 130.367 52.0143 131.423 51.6088 132.778C51.2267 134.045 49.9195 134.579 48.314 134.019C46.0582 133.234 43.8092 132.422 41.5903 131.544C40.3636 131.057 39.8474 130.004 40.1591 128.878C40.4541 127.808 41.225 127.295 42.4417 127.234Z" fill="#232C61"/>
<path d="M94.4767 127.161C95.8007 127.325 96.5783 127.771 96.8397 128.807C97.0911 129.8 96.8833 130.742 95.9347 131.222C93.3237 132.55 90.5585 133.509 87.7296 134.23C86.7509 134.478 85.9163 133.868 85.504 132.912C85.0884 131.946 85.2325 130.819 86.1208 130.427C88.943 129.183 91.8657 128.163 94.4767 127.161Z" fill="#232C61"/>
<path d="M2.86185 78.4868C4.10201 78.3828 4.89637 77.4271 4.84274 75.9649C4.75225 73.5705 4.62488 71.1794 4.46735 68.7916C4.39696 67.7118 3.97129 66.8231 2.79817 66.4944C1.40048 66.1021 0.679854 66.9774 -0.00390625 67.9432V69.2813C0.36814 69.8178 0.441878 70.351 -0.00390625 70.8876V73.832C0.529024 74.6 0.280994 75.5122 0.451934 76.3506C0.740185 77.7725 1.60159 78.5941 2.86185 78.4868Z" fill="#232C61"/>
<path d="M0 69.2847V70.891C0.217865 70.3545 0.217865 69.8212 0 69.2847Z" fill="#232C61"/>
<path d="M106.037 66.3736C106.946 56.8025 99.6656 47.6775 90.1332 46.5306C85.6888 45.994 81.2242 46.4534 77.7451 46.2992C73.1632 46.2992 69.55 46.2321 65.9402 46.3126C57.9764 46.487 51.0919 51.306 48.635 58.704C47.8943 60.9341 47.244 62.5841 44.5257 62.128C44.4051 62.1079 44.2677 62.1817 44.1369 62.2085C37.9932 63.503 33.1532 68.4797 32.1242 74.563C30.998 81.2132 33.8738 87.6319 39.4646 90.9385C39.9171 91.2068 40.3997 91.4047 40.6712 91.9379C42.8767 96.264 46.6239 98.7825 50.9176 100.664C51.8527 101.073 52.7443 101.147 53.5219 100.412C54.3196 99.6578 54.1822 98.7523 53.8269 97.8133C53.371 96.6094 52.9621 95.3921 52.7443 94.111C52.6136 93.3363 52.7007 93.0144 53.6258 93.0312C56.8334 93.0915 60.0444 93.0747 63.2554 93.0513C69.1545 93.0043 73.7866 90.5462 76.7362 85.4152C77.5607 83.9799 78.3685 83.5037 79.9103 83.6076C80.8052 83.668 80.9058 83.9463 80.8321 84.7143C80.6544 86.5554 80.1248 88.2892 79.3975 89.966C78.9685 90.9586 78.6635 91.9144 79.545 92.8031C80.4131 93.675 81.4019 93.4772 82.3873 93.0244C83.2755 92.6187 84.1805 92.2431 85.0419 91.7803C89.2182 89.53 92.9822 86.8237 95.1005 82.3769C95.3385 81.8805 95.7541 81.6726 96.1731 81.4412C102.102 78.1514 105.39 73.1512 106.034 66.3803L106.037 66.3736ZM94.4536 77.7825C92.9922 78.5102 91.98 79.3989 91.2896 80.9516C89.969 83.9128 87.3881 85.717 84.4855 87.4911C84.7268 85.5225 85.072 83.8155 84.881 82.065C84.6765 80.2004 84.1436 79.6303 82.2733 79.6236C77.6378 79.6068 73.0023 79.59 68.3668 79.6303C65.8128 79.6504 63.309 79.4693 60.8622 78.6376C59.4411 78.1547 58.4054 78.6443 58.0401 79.7913C57.6714 80.9482 58.2412 81.8805 59.6355 82.4372C61.9918 83.3762 64.462 83.6277 66.9692 83.6479C68.9601 83.6613 70.9544 83.6479 73.1867 83.6479C71.1991 86.6527 68.6786 88.4736 65.3167 88.8559C61.546 89.2852 57.7451 88.9566 53.961 89.027C52.8917 89.0471 51.8192 89.0002 50.7533 89.0471C49.416 89.1075 48.7289 89.7916 48.6719 91.1464C48.6216 92.3269 48.6618 93.5074 48.6618 94.8656C46.7815 93.6013 45.2363 92.2498 44.3917 90.2645C43.8789 89.0572 43.0744 88.2624 41.8879 87.6621C37.5608 85.4688 35.3654 80.69 36.1095 75.3511C36.7128 71.0284 40.5137 67.041 44.881 66.1523C47.3144 65.656 47.4552 65.7197 47.7904 68.1275C47.9579 69.3315 48.3501 70.4616 48.7255 71.5951C49.1378 72.836 50.2271 73.3826 51.3499 73.0271C52.4024 72.6951 52.9085 71.5582 52.4661 70.2839C50.9712 65.9712 51.0751 61.7457 53.4381 57.7986C56.2737 53.0667 60.5539 50.4609 66.0843 50.3536C73.2135 50.2161 80.3494 50.2195 87.4786 50.3469C95.0972 50.4811 101.107 56.0446 102.042 63.5667C102.732 69.1403 99.5282 75.2539 94.4603 77.7825H94.4536Z" fill="#232C61"/>
<path d="M100.528 41.43C100.501 44.9144 102.398 46.7488 105.921 46.7588C109.977 46.7689 114.032 46.7588 118.088 46.7588C122.234 46.7588 126.377 46.7756 130.523 46.7521C133.198 46.7354 135.413 45.2162 135.561 42.9123C135.799 39.2334 136.04 35.5143 134.974 31.8891C134.555 30.4706 133.643 29.8636 132.427 30.1687C131.317 30.4471 130.711 31.4297 131.099 32.808C131.907 35.6619 131.565 38.5594 131.672 41.4434C131.706 42.3523 131.337 42.7379 130.426 42.7379C122.224 42.7279 114.025 42.7245 105.824 42.7413C104.832 42.7413 104.493 42.3221 104.52 41.3663C104.573 39.495 104.483 37.617 104.587 35.7491C104.748 32.8918 105.934 30.4404 107.821 28.3075C108.274 27.7944 108.552 27.6334 109.139 28.2673C112.665 32.0602 116.955 33.2842 121.862 31.5504C126.544 29.8971 129.189 26.4228 129.635 21.5065C130.06 16.8048 128.136 13.0253 124.131 10.5504C119.868 7.91445 115.406 8.01506 111.314 10.8555C107.134 13.753 105.532 17.9383 106.477 22.9887C106.608 23.6863 106.504 24.1055 105.951 24.5817C103.524 26.6676 101.949 29.3035 101.074 32.3854C100.23 35.3634 100.541 38.4051 100.518 41.4233L100.528 41.43ZM117.947 12.7805C122.197 12.7704 125.696 16.228 125.726 20.4702C125.76 24.736 122.164 28.3478 117.92 28.3075C113.694 28.2673 110.208 24.7427 110.211 20.5105C110.218 16.2648 113.69 12.7905 117.944 12.7805H117.947Z" fill="#232C61"/>
<path d="M7.08794 46.7958C11.0062 46.665 14.9311 46.7656 18.8526 46.7656C22.9988 46.7656 27.1415 46.7824 31.2877 46.7589C33.959 46.7455 36.1846 45.2095 36.3287 42.9224C36.56 39.2435 36.798 35.5244 35.7422 31.8992C35.3299 30.4874 34.4115 29.8737 33.1948 30.1788C32.082 30.4572 31.4754 31.4465 31.8675 32.8215C32.6787 35.672 32.3267 38.5728 32.4407 41.4569C32.4742 42.3657 32.1089 42.7514 31.1972 42.7514C22.9954 42.738 14.797 42.7413 6.59523 42.7514C5.73047 42.7514 5.26793 42.4697 5.29139 41.5173C5.34167 39.5118 5.22101 37.4963 5.37854 35.501C5.59305 32.7577 6.75947 30.3767 8.59623 28.3243C9.04872 27.8213 9.32692 27.6402 9.91683 28.2807C13.4395 32.077 17.7298 33.301 22.6401 31.5672C27.3225 29.9139 29.9704 26.4363 30.4129 21.5233C30.8419 16.7646 28.8778 12.965 24.7953 10.4967C20.552 7.93126 16.131 8.0587 12.0921 10.869C7.92253 13.7698 6.31033 17.9551 7.25553 23.0056C7.38625 23.7098 7.27564 24.1223 6.7293 24.5951C4.30933 26.6878 2.734 29.3203 1.85248 32.3989C1.05141 35.1991 1.43351 38.0631 1.26257 40.9002C1.00113 45.2364 3.89036 46.9098 7.09464 46.7991L7.08794 46.7958ZM18.6917 12.7839C22.9485 12.7638 26.4511 16.2079 26.4913 20.4501C26.5315 24.7259 22.9652 28.3277 18.7085 28.3076C14.4987 28.2874 10.976 24.7494 10.9726 20.534C10.9659 16.2984 14.4518 12.8006 18.6917 12.7839Z" fill="#232C61"/>
<path d="M33.2955 111.758C32.1258 112.016 31.4722 112.952 31.8543 114.317C32.6285 117.083 32.3135 119.89 32.4509 122.684C32.5146 123.998 32.0185 124.377 30.7582 124.361C26.3004 124.304 21.8459 124.34 17.388 124.34C13.8687 124.34 10.346 124.344 6.82664 124.34C6.11607 124.34 5.30159 124.428 5.30494 123.348C5.31835 121.118 5.19098 118.874 5.4189 116.664C5.68704 114.089 6.86351 111.835 8.60643 109.89C9.09914 109.337 9.37733 109.306 9.92367 109.897C13.4564 113.696 17.7232 114.793 22.6637 113.193C27.1752 111.734 30.48 107.083 30.5035 102.167C30.5236 97.2872 27.2288 92.5755 22.7475 91.0731C13.8352 88.0817 5.52615 95.3388 7.25566 104.632C7.38974 105.353 7.22885 105.748 6.69927 106.208C4.31952 108.277 2.7576 110.873 1.87273 113.897C1.01468 116.825 1.31299 119.823 1.28952 122.798C1.25936 126.567 3.07937 128.358 6.8568 128.365C10.8689 128.371 14.8776 128.365 18.8896 128.365C21.4738 128.365 24.0614 128.388 26.6456 128.358C28.6031 128.335 30.5705 128.539 32.5179 128.231C34.4686 127.922 36.2082 126.463 36.3188 124.619C36.5434 120.893 36.8015 117.134 35.7289 113.465C35.3334 112.107 34.4485 111.503 33.2955 111.761V111.758ZM18.6818 94.3897C22.9453 94.3629 26.4412 97.7869 26.4914 102.039C26.5417 106.312 22.9788 109.92 18.722 109.907C14.5122 109.893 10.9828 106.359 10.9728 102.143C10.9627 97.9009 14.4284 94.4166 18.6818 94.3897Z" fill="#232C61"/>
<path d="M132.466 111.771C131.323 112.063 130.713 113.002 131.102 114.38C131.906 117.234 131.571 120.135 131.681 123.019C131.722 124.029 131.269 124.371 130.331 124.347C129.127 124.317 127.924 124.34 126.721 124.34C119.9 124.34 113.083 124.34 106.262 124.34C104.593 124.34 104.542 124.287 104.542 122.603C104.542 120.863 104.495 119.122 104.593 117.388C104.753 114.478 105.984 112.003 107.901 109.84C108.347 109.337 108.608 109.286 109.111 109.843C111.852 112.888 115.238 114.236 119.377 113.783C127.136 112.938 132.043 104.333 128.705 97.3174C126.01 91.6532 120.054 89.0944 114.071 91.0361C108.631 92.8001 105.317 98.6689 106.49 104.561C106.644 105.336 106.459 105.762 105.893 106.255C103.584 108.26 102.049 110.782 101.16 113.703C100.242 116.708 100.55 119.8 100.53 122.865C100.507 126.547 102.344 128.361 106.024 128.371C110.036 128.381 114.048 128.371 118.06 128.371C120.644 128.371 123.232 128.398 125.816 128.361C127.817 128.335 129.831 128.553 131.822 128.224C133.756 127.902 135.466 126.423 135.57 124.558C135.777 120.876 136.049 117.16 134.983 113.535C134.561 112.097 133.662 111.476 132.469 111.778L132.466 111.771ZM117.993 94.3897C122.253 94.4031 125.722 97.8674 125.732 102.113C125.739 106.332 122.253 109.856 118.016 109.907C113.776 109.957 110.183 106.349 110.217 102.069C110.247 97.817 113.729 94.3763 117.993 94.3897Z" fill="#232C61"/>
<path d="M136.964 70.472C136.964 69.9388 136.968 69.4022 136.964 68.869C136.951 67.2425 136.13 66.2264 134.796 66.1861C133.535 66.1492 132.607 67.0782 132.503 68.6175C132.339 71.0589 132.218 73.507 132.131 75.9517C132.081 77.387 132.932 78.3529 134.179 78.4199C135.399 78.487 136.327 77.709 136.485 76.3273C136.71 74.3822 136.837 72.4271 137.004 70.4753L136.964 70.4686V70.472Z" fill="#232C61"/>
<path d="M93.7715 9.64152C95.9803 10.7683 98.1892 11.8985 100.418 12.9884C101.611 13.5719 102.858 13.193 103.428 12.1668C104.045 11.0534 103.72 9.78908 102.506 9.07812C100.291 7.77694 97.9746 6.65349 95.6217 5.61724C95.3033 5.47639 94.9379 5.4395 94.6329 5.36572C93.6006 5.5334 92.8029 5.9526 92.5414 6.99891C92.2398 8.19614 92.6855 9.08818 93.7715 9.64152Z" fill="#232C61"/>
<path d="M49.8252 7.24053C52.2184 6.4558 55.0372 6.05337 57.7488 5.23845C58.7845 4.92992 59.2102 3.96409 59.0526 2.87754C58.8984 1.8044 57.8694 0.922407 56.7667 1.07667C53.9579 1.46569 51.186 2.0861 48.518 3.05192C47.4421 3.44094 46.9997 4.38329 47.2678 5.53692C47.536 6.6939 48.3303 7.21706 49.8252 7.24053Z" fill="#232C61"/>
<path d="M2.30839 63.0972C3.39771 63.3018 4.55742 62.5674 4.79204 61.3769C5.29146 58.8449 5.74395 56.3029 6.13275 53.7542C6.33721 52.4128 5.58641 51.4 4.39654 51.1451C3.26029 50.9003 2.16426 51.5978 1.82909 52.9158C1.1889 55.4209 0.790038 57.9696 0.498435 60.4345C0.45151 61.9436 1.11181 62.8759 2.31174 63.1006L2.30839 63.0972Z" fill="#232C61"/>
<path d="M64.8493 4.55423C66.0056 4.56765 67.162 4.55423 68.3183 4.55423V4.54417C69.4747 4.54417 70.631 4.55088 71.7874 4.54417C73.403 4.53411 74.328 3.80974 74.4018 2.5052C74.4822 1.12353 73.6007 0.248251 71.9651 0.124169C69.5216 -0.0602775 67.0748 -0.0267418 64.6314 0.157704C63.1633 0.268372 62.3019 1.13695 62.3287 2.4046C62.3555 3.7259 63.3007 4.54082 64.8493 4.55759V4.55423Z" fill="#232C61"/>
<path d="M128.694 90.4288C128.328 91.7467 128.885 92.9037 129.994 93.2692C131.084 93.6281 132.153 93.3967 132.622 92.3302C133.805 89.6507 134.536 86.817 135.122 84.2347C135.153 82.8162 134.526 81.8772 133.483 81.6726C132.361 81.4513 131.462 81.857 130.986 82.9369C130.755 83.46 130.641 84.0335 130.473 84.5801C129.877 86.5252 129.237 88.4636 128.694 90.4221V90.4288Z" fill="#232C61"/>
<path d="M79.0559 5.21794C81.7373 5.96579 84.4556 6.60297 87.1873 7.1496C88.3202 7.37764 89.1716 6.6801 89.49 5.57007C89.8117 4.44997 89.4095 3.44726 88.3336 3.03812C85.6388 2.00858 82.7965 1.50889 80.0916 1.00586C78.8012 1.06287 78.0068 1.61286 77.7555 2.75307C77.5041 3.89999 77.9532 4.90606 79.0526 5.21459L79.0559 5.21794Z" fill="#232C61"/>
<path d="M3.4973 81.7768C2.42139 82.0518 1.86164 82.7896 1.82812 84.1981C2.45155 86.834 3.16213 89.7281 4.40228 92.4445C4.86818 93.464 5.93068 93.6719 6.94962 93.3298C7.97861 92.9844 8.64226 92.136 8.35736 91.0595C7.63673 88.3129 6.82561 85.5865 5.92063 82.8969C5.57205 81.8573 4.58328 81.4951 3.4973 81.7734V81.7768Z" fill="#232C61"/>
<path d="M134.518 62.8829C135.685 62.7555 136.439 61.8567 136.459 60.3711C136.188 57.9632 135.762 55.3743 135.122 52.8289C134.763 51.4037 133.727 50.6994 132.507 50.961C131.271 51.2226 130.587 52.2286 130.818 53.7042C131.203 56.1624 131.649 58.6138 132.132 61.0552C132.39 62.3497 133.335 63.0137 134.518 62.8829Z" fill="#232C61"/>
<path d="M36.3112 13.0955C38.5468 12.0056 40.759 10.8721 42.9812 9.74862C43.7923 9.33613 44.2817 8.68889 44.3655 7.76331C44.4224 6.24414 42.9309 5.05698 41.426 5.63379C38.8518 6.61974 36.3883 7.87062 34.0621 9.35625C33.0264 10.0169 32.8186 11.3214 33.4052 12.3074C34.0085 13.3168 35.1448 13.6622 36.3112 13.0955Z" fill="#232C61"/>
</g>
<defs>
<clipPath id="clip0_1180_790">
<rect width="137" height="137" fill="white"/>
</clipPath>
</defs>
</svg>
