<svg width="110" height="131" viewBox="0 0 110 131" fill="none" xmlns="http://www.w3.org/2000/svg">
<g clip-path="url(#clip0_403_390)">
<path d="M3.62412 131C0.871048 129.927 -0.0648604 127.886 0.00345409 124.99C0.136667 119.452 0.133252 113.907 0.0205327 108.366C-0.177579 98.6747 6.09369 90.6823 13.9908 87.8176C22.9264 84.5768 31.7219 80.9498 40.5857 77.5108C41.3064 77.2305 41.566 76.8715 41.6343 76.0511C41.8802 73.077 41.3269 70.7593 38.7514 68.6296C35.305 65.7785 33.5015 61.6764 32.7363 57.2289C32.5451 56.1179 32.0805 55.5709 30.9226 55.318C23.1723 53.6258 20.2348 45.3907 25.1466 39.2032C25.7478 38.4443 25.8263 37.8153 25.232 37.0427C24.2483 35.7574 23.6915 34.2703 23.6881 32.6602C23.6676 26.6949 23.3773 20.716 23.8042 14.7644C24.3747 6.80273 31.3701 0.198206 39.3287 0.0751402C47.079 -0.044507 54.8327 -0.00690362 62.5864 0.0717217C67.8295 0.122999 70.8251 2.6185 72.1128 7.75649C72.4134 8.96322 73.0624 9.53752 74.3604 9.52727C79.5215 9.48967 83.108 13.0688 83.1251 18.2444C83.1422 23.5294 83.2754 28.8212 83.0568 34.0994C82.9748 36.1197 83.4257 37.4324 84.7886 38.9673C89.878 44.7104 86.8346 53.595 79.3166 55.2667C78.0459 55.5504 77.4687 56.0803 77.2296 57.3759C76.2732 62.5446 73.7285 66.8383 69.6877 70.1918C68.7483 70.9712 68.2223 71.7541 68.3624 72.9984C68.5195 74.3829 67.8193 76.0956 68.6424 77.0869C69.4041 78.0065 71.0505 78.1979 72.3143 78.6902C80.3447 81.8078 88.3785 84.9187 96.4123 88.0329C104.6 91.2053 109.836 98.7533 109.949 107.546C109.959 108.397 109.969 109.251 109.949 110.103C109.915 111.381 109.146 112.222 108.046 112.226C106.946 112.229 106.127 111.385 106.13 110.116C106.137 107.6 106.168 105.081 105.348 102.657C103.589 97.4577 100.337 93.6461 95.1314 91.636C85.9841 88.1047 76.8436 84.5597 67.6997 81.0216C65.3702 80.1191 64.5675 78.9705 64.5436 76.4921C64.5299 75.0016 64.5231 73.5078 64.5436 72.0173C64.5641 70.3012 65.2131 68.8894 66.5862 67.8125C70.4733 64.7632 72.796 60.7841 73.6533 55.9196C74.0632 53.5779 75.491 52.1798 77.8546 51.7046C80.5257 51.1645 82.5376 49.7629 83.2447 47.0657C83.9312 44.4437 83.0158 42.2149 80.9698 40.4407C79.361 39.0425 79.0092 37.3435 79.139 35.1865C79.501 29.1494 79.4225 23.0884 79.1799 17.0445C79.0911 14.8259 76.888 13.3286 74.5414 13.3457C71.2589 13.3662 69.2094 11.8211 68.4136 8.71709C67.4948 5.14476 65.9987 3.91411 62.2789 3.89359C54.7814 3.85599 47.2839 3.88334 39.7898 3.87992C38.8471 3.87992 37.9248 4.03033 37.0162 4.26279C31.312 5.72932 27.5957 10.4981 27.5069 16.6377C27.4317 21.7108 27.4932 26.7838 27.4898 31.8569C27.4898 33.0431 27.8314 34.0857 28.5213 35.0737C30.014 37.1931 29.9867 39.4835 28.2617 41.4013C24.8426 45.2026 26.8135 50.6791 32.0156 51.6875C34.6389 52.1969 35.8891 53.4788 36.3878 56.1521C37.2588 60.8115 39.4585 64.688 43.209 67.6211C44.7324 68.8142 45.4702 70.332 45.4394 72.26C45.4155 73.7094 45.4497 75.1589 45.4326 76.6083C45.4018 78.9534 44.6811 79.9995 42.4917 80.8575C33.1667 84.5119 23.794 88.0568 14.5237 91.848C7.9211 94.5451 4.33118 99.7618 3.96911 106.814C3.64462 113.149 3.89738 119.514 3.87005 125.865C3.86664 126.782 4.20821 127.181 5.14412 127.175C8.63841 127.151 12.1293 127.13 15.6236 127.188C16.5117 127.202 16.5526 126.823 16.5492 126.132C16.5287 120.208 16.539 114.28 16.539 108.356C16.539 106.226 17.1026 105.382 18.4928 105.409C19.8283 105.436 20.3714 106.271 20.3714 108.308C20.3714 114.232 20.3953 120.16 20.3475 126.084C20.3407 126.997 20.6003 127.185 21.4747 127.185C43.8374 127.161 66.2002 127.161 88.563 127.185C89.4784 127.185 89.656 126.911 89.6491 126.047C89.6082 120.122 89.6252 114.198 89.6321 108.27C89.6321 107.802 89.6252 107.323 89.7209 106.872C89.9258 105.918 90.5714 105.416 91.5415 105.416C92.5149 105.416 93.1571 105.915 93.3655 106.869C93.4645 107.32 93.4577 107.799 93.4577 108.267C93.4645 114.191 93.4782 120.119 93.4406 126.043C93.4338 126.905 93.608 127.205 94.5405 127.188C97.905 127.127 101.269 127.134 104.634 127.181C105.734 127.195 106.171 126.819 106.133 125.698C106.072 123.825 106.116 121.948 106.116 120.071C106.116 118.246 106.762 117.357 108.067 117.377C109.331 117.394 109.949 118.252 109.949 120.009C109.949 121.671 109.85 123.343 109.973 124.994C110.184 127.886 109.115 129.927 106.369 131.003H3.62412V131Z" fill="#404041"/>
<path d="M49.3297 47.2231C49.2648 45.6916 49.0906 44.1362 49.4834 42.6389C50.409 39.0973 52.7249 36.971 56.2704 36.1198C59.5666 35.3267 61.4487 32.6945 61.1651 29.3478C60.9021 26.2677 58.1969 23.8269 55.0305 23.8166C51.83 23.8064 49.152 26.1686 48.831 29.2691C48.749 30.0725 48.7114 30.8998 48.4894 31.6655C47.7106 34.3456 44.9405 36.1403 42.3172 35.7472C39.3592 35.3028 37.3336 33.009 37.2927 30.0622C37.1868 22.5586 42.2352 15.5405 49.4219 13.1954C50.918 12.7065 51.9803 13.1065 52.3526 14.2996C52.6942 15.3832 52.0588 16.3336 50.6515 16.8429C45.06 18.8667 41.3915 23.6457 41.1524 29.2179C41.0807 30.9374 41.6887 31.8843 42.9149 31.9527C44.0865 32.0176 44.8653 31.0536 44.9849 29.3956C45.3333 24.5379 48.8105 20.7673 53.6027 20.0495C58.0944 19.376 62.6134 22.0185 64.3418 26.3258C66.5859 31.915 63.4332 38.188 57.6025 39.74C54.1424 40.663 53.0835 42.044 53.0801 45.6437C53.0801 47.0932 53.0528 48.5426 53.0904 49.992C53.1245 51.4175 53.8521 52.2346 54.9963 52.238C56.1782 52.238 56.8682 51.462 56.9023 50.016C56.9331 48.8229 56.8887 47.6299 56.916 46.4368C56.9501 44.69 57.5513 43.8764 59.1704 43.2918C65.2128 41.1108 68.813 36.2258 68.8608 30.1477C68.9086 24.0286 65.346 19.0889 59.2489 16.8156C57.8587 16.2994 57.2644 15.3217 57.6743 14.2209C58.0978 13.0826 59.0952 12.7305 60.5469 13.1988C67.4193 15.4277 72.338 21.8442 72.6693 29.0093C73.0245 36.677 68.8539 43.4354 61.8585 46.3548C60.9226 46.7445 60.663 47.2128 60.7314 48.1426C60.7997 49.0725 60.7689 50.0194 60.6767 50.9492C60.3898 53.8686 58.0158 56.0359 55.1193 56.0769C52.1374 56.118 49.6473 54.0019 49.3502 51.0518C49.2238 49.7869 49.3297 48.4982 49.3297 47.2231Z" fill="#2F9FEE"/>
<path d="M55.0817 59.3347C51.7172 59.3005 49.2887 61.82 49.2477 65.3923C49.2033 69.0535 51.5943 71.6789 54.9793 71.6857C58.3335 71.6926 60.7348 69.1458 60.7518 65.5598C60.7723 61.9567 58.4121 59.3655 55.0852 59.3313L55.0817 59.3347ZM54.9519 67.8433C53.7359 67.8194 53.0699 66.9716 53.0835 65.4641C53.0972 63.9736 53.8008 63.1532 55.0442 63.1771C56.267 63.201 56.9296 64.0454 56.916 65.553C56.9023 67.0366 56.1884 67.8673 54.9554 67.8433H54.9519Z" fill="#2F9FEE"/>
</g>
<defs>
<clipPath id="clip0_403_390">
<rect width="110" height="131" fill="white"/>
</clipPath>
</defs>
</svg>
