<svg width="116" height="138" viewBox="0 0 116 138" fill="none" xmlns="http://www.w3.org/2000/svg">
<path d="M4.77689 125.914L4.77689 125.913C4.90441 120.622 4.90115 115.324 4.79323 110.028C4.59864 100.527 10.7564 92.6943 18.5161 89.8847L18.6863 90.3548L18.5161 89.8847C24.2708 87.8015 29.9596 85.5533 35.6563 83.302C38.4333 82.2046 41.2122 81.1064 44.0015 80.0262C44.3025 79.9093 44.4369 79.8024 44.514 79.6954C44.594 79.5844 44.66 79.4076 44.6895 79.0539C44.8042 77.6697 44.7283 76.4819 44.3488 75.4083C43.9717 74.3415 43.2814 73.3498 42.1057 72.3794L42.1056 72.3793C38.6802 69.551 36.911 65.4994 36.1647 61.1694C36.0813 60.6862 35.9497 60.397 35.7691 60.2025C35.5904 60.01 35.3102 59.853 34.812 59.7444C30.9376 58.9 28.2325 56.4108 27.1271 53.3276C26.0217 50.2444 26.5329 46.6139 28.9895 43.5248C29.2481 43.1991 29.3418 42.9646 29.3528 42.7775C29.3631 42.6022 29.3056 42.383 29.067 42.0735L29.0663 42.0725C28.0636 40.7648 27.4865 39.2373 27.4829 37.576M4.77689 125.914L27.9829 37.5746M4.77689 125.914C4.74292 127.351 4.9565 128.632 5.56304 129.701C6.12807 130.698 7.00928 131.467 8.24784 132.01M4.77689 125.914L8.24784 132.01M27.4829 37.576C27.4829 37.5759 27.4829 37.5758 27.4829 37.5757L27.9829 37.5746M27.4829 37.576C27.4829 37.5761 27.4829 37.5762 27.4829 37.5763L27.9829 37.5746M27.4829 37.576C27.4776 36.0297 27.453 34.4769 27.4284 32.9205C27.3626 28.7619 27.2964 24.5763 27.5956 20.4143M27.9829 37.5746C27.9776 36.0145 27.9529 34.4534 27.9282 32.8921C27.8625 28.741 27.7968 24.5886 28.0943 20.4501M27.5956 20.4143C27.5956 20.4143 27.5956 20.4143 27.5956 20.4143L28.0943 20.4501M27.5956 20.4143C28.1611 12.5364 35.0813 6.01573 42.9697 5.89398L42.9774 6.39392M27.5956 20.4143L28.0943 20.4501M28.0943 20.4501L42.9774 6.39392M42.9774 6.39392C50.4075 6.27943 57.8409 6.31541 65.2743 6.39065M42.9774 6.39392L8.74784 131.679H9.24784H107.248C109.881 130.649 110.906 128.696 110.703 125.929C110.621 124.836 110.642 123.734 110.662 122.632C110.671 122.141 110.68 121.65 110.68 121.159C110.68 119.478 110.087 118.657 108.876 118.641M42.9774 6.39392L42.9697 5.89398C50.4061 5.77939 57.8444 5.81542 65.2791 5.89067M42.9774 6.39392L65.2791 5.89067M65.2743 6.39065C70.3008 6.43972 73.1726 8.82766 74.4072 13.7442C74.6953 14.8989 75.3175 15.4485 76.5619 15.4387C81.5098 15.4027 84.9482 18.8276 84.9645 23.7801C84.9686 25.0351 84.9795 26.2904 84.9904 27.5459C85.0235 31.3497 85.0566 35.1544 84.899 38.9518M65.2743 6.39065L65.2791 5.89067M65.2743 6.39065L65.2791 5.89067M84.899 38.9518C84.8204 40.885 85.2527 42.1412 86.5593 43.6099C91.4384 49.1055 88.5208 57.6072 81.3133 59.2068M84.899 38.9518L85.3986 38.9725M84.899 38.9518L85.3986 38.9721C85.3986 38.9722 85.3986 38.9724 85.3986 38.9725M81.3133 59.2068C80.0952 59.4783 79.5418 59.9854 79.3125 61.2251C78.3957 66.1711 75.9561 70.2797 72.0822 73.4887M81.3133 59.2068L81.4217 59.6949M81.3133 59.2068L81.4221 59.6948C81.422 59.6949 81.4218 59.6949 81.4217 59.6949M72.0822 73.4887C71.1817 74.2345 70.6774 74.9836 70.8116 76.1743C70.8662 76.6544 70.8129 77.1757 70.7602 77.6904C70.6675 78.5962 70.5769 79.4817 71.0802 80.0866C71.5951 80.7071 72.5316 80.9811 73.464 81.254C73.8539 81.368 74.2431 81.4819 74.6004 81.6208C80.0237 83.7224 85.4487 85.8208 90.8741 87.9193C93.1503 88.7997 95.4265 89.6802 97.7028 90.5609M72.0822 73.4887L72.4011 73.8738C71.9748 74.2268 71.6809 74.55 71.5031 74.8942C71.3309 75.2274 71.2514 75.6116 71.3085 76.1183C71.3516 76.4983 71.3347 76.8875 71.3045 77.2524C71.2889 77.4404 71.2721 77.6017 71.2561 77.7571C71.2373 77.9378 71.2194 78.1105 71.2051 78.3077C71.155 78.9982 71.2081 79.4586 71.4645 79.7669L71.4649 79.7673C71.7348 80.0925 72.194 80.3226 72.8194 80.5332C73.0704 80.6178 73.3303 80.6939 73.6012 80.7731C73.6613 80.7907 73.722 80.8085 73.7832 80.8265C74.1137 80.9239 74.4571 81.0287 74.7813 81.1547C80.2045 83.2563 85.6293 85.3545 91.0547 87.453C93.3307 88.3334 95.6069 89.2138 97.8831 90.0946M72.0822 73.4887L72.4012 73.8738C76.3639 70.5911 78.8656 66.3791 79.8042 61.3163L79.8042 61.316C79.9084 60.7523 80.0735 60.426 80.2936 60.2084C80.5173 59.9872 80.8552 59.8212 81.4217 59.6949M97.7028 90.5609C105.552 93.5965 110.572 100.819 110.68 109.233C110.69 110.047 110.7 110.865 110.68 111.68C110.647 112.903 109.911 113.708 108.856 113.711C107.802 113.714 107.016 112.906 107.019 111.693C107.019 111.627 107.019 111.561 107.02 111.495C107.027 109.153 107.034 106.811 106.269 104.555C104.583 99.5795 101.465 95.9321 96.4748 94.0087C90.6295 91.7563 84.7871 89.4981 78.9446 87.24C76.022 86.1103 73.0994 84.9807 70.1764 83.8517C67.9431 82.9882 67.1735 81.889 67.1506 79.5175C67.1375 78.0912 67.131 76.6617 67.1506 75.2355C67.1703 73.5934 67.7924 72.2424 69.1088 71.212C72.8354 68.2941 75.0621 64.4865 75.884 59.8316C76.277 57.5909 77.6458 56.253 79.9118 55.7983M97.7028 90.5609L97.8832 90.0946C97.8832 90.0946 97.8832 90.0946 97.8831 90.0946M97.7028 90.5609L97.8831 90.0946M79.9118 55.7983C82.4725 55.2814 84.4013 53.9402 85.0791 51.3593M79.9118 55.7983L79.8134 55.308C79.8132 55.3081 79.8131 55.3081 79.8129 55.3082M79.9118 55.7983L79.8129 55.3082M85.0791 51.3593C85.7373 48.8503 84.8597 46.7175 82.8982 45.0198C81.3559 43.6819 81.0186 42.0561 81.1431 39.992M85.0791 51.3593L84.5956 51.2323C84.5955 51.2323 84.5955 51.2324 84.5955 51.2324M85.0791 51.3593L84.5955 51.2324M81.1431 39.992C81.4902 34.2151 81.4148 28.4154 81.1824 22.632C81.0972 20.509 78.9851 19.0762 76.7354 19.0926C73.5885 19.1122 71.6237 17.6336 70.8608 14.6634M81.1431 39.992L80.644 39.9619C80.644 39.962 80.644 39.962 80.644 39.962M81.1431 39.992L80.644 39.962M70.8608 14.6634C69.9799 11.2451 68.5456 10.0674 64.9795 10.0478M70.8608 14.6634L70.3765 14.7878C70.3765 14.7879 70.3765 14.7881 70.3766 14.7882M70.8608 14.6634L70.3766 14.7882M64.9795 10.0478C60.102 10.0234 55.2244 10.0276 50.3479 10.0318C48.0381 10.0338 45.7286 10.0358 43.4195 10.0347M64.9795 10.0478L64.9768 10.5478M64.9795 10.0478L64.977 10.5478C64.977 10.5478 64.9769 10.5478 64.9768 10.5478M43.4195 10.0347C42.5157 10.0347 41.6315 10.1787 40.7605 10.4011C35.2919 11.8044 31.7291 16.3677 31.644 22.2427C31.5951 25.5338 31.6065 28.8249 31.6178 32.116C31.6232 33.6793 31.6286 35.2426 31.6276 36.8059M43.4195 10.0347V10.5347M43.4195 10.0347V10.5347M31.6276 36.8059C31.6276 37.941 31.955 38.9387 32.6165 39.8841M31.6276 36.8059H32.1276C32.1276 36.806 32.1276 36.8061 32.1276 36.8062M31.6276 36.8059L32.1276 36.8062M32.6165 39.8841C34.0475 41.9122 34.0213 44.1039 32.3676 45.939C29.0898 49.5765 30.9792 54.8169 35.9665 55.7819C38.4814 56.2693 39.6799 57.496 40.158 60.054M32.6165 39.8841L33.0262 39.5974C33.026 39.5971 33.0258 39.5968 33.0256 39.5965M32.6165 39.8841L33.0251 39.5958C33.0252 39.596 33.0254 39.5963 33.0256 39.5965M40.158 60.054C40.993 64.5126 43.1018 68.2221 46.6974 71.0288C48.1578 72.1704 48.8652 73.6228 48.8357 75.4678C48.8235 76.2046 48.827 76.9414 48.8306 77.6783C48.8337 78.3284 48.8368 78.9785 48.8291 79.6287C48.7997 81.8727 48.1087 82.8737 46.0097 83.6947C43.2458 84.7759 40.4774 85.847 37.709 86.9182C31.5231 89.3117 25.3367 91.7054 19.1971 94.2115C12.8673 96.7925 9.42569 101.784 9.07858 108.533C8.86912 112.614 8.91054 116.708 8.95197 120.803C8.97207 122.79 8.99217 124.777 8.98361 126.763C8.98034 127.64 9.3078 128.022 10.205 128.016C13.555 127.993 16.9016 127.973 20.2516 128.029C21.103 128.042 21.1423 127.679 21.139 127.018C21.1243 122.766 21.1261 118.512 21.1279 114.26C21.1286 112.842 21.1292 111.425 21.1292 110.008C21.1292 107.97 21.6695 107.162 23.0022 107.188C24.2826 107.214 24.8033 108.013 24.8033 109.962C24.8033 111.379 24.8047 112.796 24.8062 114.214C24.8104 118.467 24.8147 122.72 24.7804 126.972C24.7738 127.846 25.0227 128.025 25.861 128.025C47.2999 128.003 68.7388 128.003 90.1777 128.025C91.0553 128.025 91.2256 127.764 91.219 126.936C91.1857 122.118 91.1925 117.299 91.1993 112.479C91.2005 111.628 91.2017 110.777 91.2027 109.926M40.158 60.054L40.6494 59.962M40.158 60.054L40.6494 59.962M91.2027 109.926C91.2027 109.898 91.2027 109.87 91.2026 109.842C91.2022 109.421 91.2019 108.993 91.2878 108.588C91.4843 107.676 92.1032 107.195 93.0332 107.195C93.9665 107.195 94.5821 107.672 94.7818 108.585M91.2027 109.926L90.7027 109.926M91.2027 109.926H90.7027C90.7027 109.926 90.7027 109.926 90.7027 109.926M94.7818 108.585C94.871 108.991 94.8707 109.419 94.8703 109.841C94.8703 109.869 94.8702 109.896 94.8702 109.923M94.7818 108.585L95.2703 108.478C95.2702 108.478 95.2702 108.478 95.2702 108.478L94.7818 108.585ZM94.8702 109.923C94.871 110.59 94.8719 111.258 94.8727 111.926C94.8792 116.928 94.8857 121.932 94.8539 126.933C94.8473 127.757 95.0143 128.045 95.9083 128.029C99.1338 127.97 102.359 127.976 105.585 128.022M94.8702 109.923L95.3702 109.922C95.3702 109.923 95.3702 109.923 95.3702 109.923H94.8702ZM105.585 128.022C106.639 128.035 107.058 127.675 107.022 126.603C106.981 125.34 106.99 124.075 106.999 122.81C107.002 122.28 107.006 121.749 107.006 121.218C107.006 119.471 107.625 118.621 108.876 118.641M105.585 128.022L105.592 127.522C105.592 127.522 105.591 127.522 105.591 127.522L105.585 128.022ZM108.876 118.641L108.883 118.141C108.883 118.141 108.883 118.141 108.884 118.141C109.613 118.151 110.228 118.412 110.639 118.984C111.027 119.525 111.18 120.275 111.18 121.159C111.18 121.67 111.171 122.172 111.162 122.669C111.142 123.759 111.122 124.823 111.202 125.891L111.202 125.892C111.308 127.343 111.096 128.632 110.471 129.707C109.843 130.786 108.829 131.598 107.431 132.145L107.343 132.179H107.248H8.74784H8.24784V132.01M108.876 118.641L8.24784 132.01M90.7027 109.926C90.7017 110.776 90.7005 111.626 90.6993 112.477C90.6925 117.298 90.6856 122.119 90.7191 126.94V126.94C90.7206 127.135 90.7109 127.266 90.6926 127.356C90.6839 127.398 90.6747 127.424 90.6679 127.439C90.6667 127.442 90.6656 127.444 90.6646 127.446C90.6628 127.45 90.6614 127.452 90.6604 127.454C90.6589 127.456 90.658 127.457 90.6577 127.457L90.6561 127.459C90.6557 127.459 90.6549 127.46 90.6538 127.461C90.6524 127.461 90.6505 127.463 90.648 127.464C90.6385 127.469 90.6185 127.479 90.5817 127.489C90.5035 127.51 90.3782 127.525 90.1783 127.525C68.739 127.503 47.2997 127.503 25.8605 127.525C25.6633 127.525 25.5324 127.514 25.4432 127.495C25.4008 127.486 25.3752 127.476 25.3607 127.47C25.3587 127.469 25.357 127.468 25.3555 127.467C25.3514 127.465 25.3487 127.463 25.3471 127.462C25.3449 127.461 25.344 127.46 25.3439 127.46L25.3426 127.458C25.3418 127.457 25.34 127.455 25.3374 127.45C25.332 127.44 25.3227 127.42 25.3131 127.382C25.2929 127.302 25.2788 127.176 25.2803 126.976C25.3148 122.722 25.3104 118.465 25.3062 114.212C25.3047 112.795 25.3033 111.378 25.3033 109.962C25.3033 108.966 25.1749 108.155 24.8021 107.581C24.3973 106.959 23.7679 106.704 23.0125 106.688L23.0121 106.688C22.2319 106.673 21.5737 106.91 21.1496 107.547C20.7616 108.13 20.6292 108.97 20.6292 110.008C20.6292 111.425 20.6286 112.842 20.6279 114.259C20.6261 118.512 20.6243 122.767 20.639 127.02L20.639 127.02C20.6398 127.187 20.6373 127.303 20.6256 127.392C20.6183 127.448 20.6092 127.477 20.6044 127.489C20.5756 127.504 20.486 127.532 20.2599 127.529C16.9033 127.473 13.5511 127.493 10.2016 127.516H10.2014C9.80884 127.519 9.67315 127.433 9.61968 127.377C9.55972 127.313 9.48213 127.16 9.48361 126.765C9.49223 124.763 9.47202 122.768 9.45185 120.778C9.41045 116.692 9.36924 112.624 9.57792 108.558C9.91529 101.999 13.2396 97.1806 19.3859 94.6745L19.3861 94.6744C25.5213 92.1701 31.7006 89.7792 37.8842 87.3865C40.6538 86.3149 43.4241 85.243 46.1918 84.1604C47.2809 83.7344 48.0856 83.232 48.6065 82.48C49.1275 81.728 49.3138 80.7998 49.3291 79.6352L49.3291 79.6346C49.3368 78.9802 49.3337 78.3262 49.3306 77.6771L49.33 77.5459C49.3267 76.8521 49.3243 76.1635 49.3356 75.476L49.3356 75.4757C49.3677 73.471 48.5867 71.871 47.0053 70.6349L47.005 70.6347C43.5135 67.9092 41.464 64.3112 40.6494 59.9622L90.7027 109.926ZM40.6494 59.962C40.3997 58.6259 39.9502 57.5741 39.1831 56.7915C38.4149 56.0078 37.3797 55.5465 36.0616 55.291L36.0614 55.291C33.7283 54.8396 32.1594 53.4008 31.5375 51.6917C30.9166 49.9854 31.2201 47.9594 32.7391 46.2737C33.634 45.2806 34.1097 44.1645 34.1486 43.0006C34.1873 41.8404 33.7904 40.6808 33.0256 39.5965M40.6494 59.962L43.4192 10.5347C42.5685 10.5347 41.7273 10.6702 40.8842 10.8855C35.6417 12.2311 32.2259 16.5931 32.1439 22.2499L32.1439 22.2501C32.0951 25.5367 32.1065 28.8199 32.1178 32.1084C32.1232 33.6728 32.1286 35.2385 32.1276 36.8062M33.0256 39.5965C32.4205 38.7314 32.1277 37.8334 32.1276 36.8062M43.4195 10.5347C45.73 10.5358 48.0402 10.5338 50.3503 10.5318C55.2259 10.5276 60.1008 10.5234 64.9768 10.5478M43.4195 10.5347L70.3766 14.7882M64.9768 10.5478C66.7168 10.5574 67.8317 10.8514 68.6167 11.4731C69.4033 12.096 69.9458 13.1166 70.3766 14.7882M80.644 39.962C80.5147 42.1056 80.8635 43.9166 82.5706 45.3975L82.571 45.3979C84.4167 46.9954 85.1965 48.9415 84.5955 51.2324M80.644 39.962L79.8129 55.3082M84.5955 51.2324C83.9798 53.5766 82.246 54.8171 79.8129 55.3082M79.8129 55.3082C78.6059 55.5504 77.6012 56.0359 76.8428 56.7908C76.083 57.547 75.6028 58.5414 75.3916 59.7447C74.5904 64.282 72.4269 67.9789 68.8006 70.8183C67.3583 71.9473 66.6722 73.444 66.6507 75.2286C66.6309 76.6606 66.6375 78.0946 66.6506 79.522V79.5223C66.6626 80.755 66.868 81.7394 67.4247 82.5364C67.9808 83.3326 68.8375 83.8701 69.996 84.3181L69.9962 84.3182C72.9181 85.4466 75.8397 86.5759 78.7614 87.7052C84.6049 89.9638 90.4486 92.2225 96.295 94.4753C101.129 96.3384 104.15 99.8614 105.796 104.715C106.533 106.891 106.526 109.16 106.52 111.527L106.519 111.691C106.517 112.407 106.749 113.04 107.174 113.498C107.601 113.958 108.197 114.213 108.858 114.211C109.52 114.209 110.104 113.951 110.522 113.488C110.937 113.029 111.161 112.401 111.18 111.693L111.18 111.692C111.2 110.867 111.19 110.04 111.18 109.227V109.226C111.069 100.609 105.923 93.2038 97.8831 90.0946M79.8129 55.3082L65.2793 5.89068C67.8709 5.916 69.9659 6.54586 71.5778 7.85387C73.1876 9.1602 74.2577 11.096 74.8921 13.6225L74.8923 13.6232C75.0217 14.1415 75.2086 14.4521 75.4402 14.6393C75.6686 14.8238 76.0082 14.943 76.5579 14.9387L76.5582 14.9387C79.1516 14.9198 81.3808 15.8099 82.965 17.384C84.5489 18.958 85.4559 21.1841 85.4645 23.7785C85.4686 25.0274 85.4795 26.2789 85.4904 27.5322C85.5235 31.339 85.5567 35.1615 85.3986 38.9725M81.4217 59.6949C88.9841 58.0166 92.0772 49.0719 86.9332 43.278L86.9328 43.2776C86.309 42.5763 85.9152 41.9499 85.6811 41.2883C85.4469 40.6265 85.3611 39.8968 85.3986 38.9725M20.6158 127.482C20.6162 127.482 20.6143 127.484 20.6089 127.487C20.6127 127.483 20.6154 127.481 20.6158 127.482ZM29.3812 43.8356C29.9575 43.1094 30.0328 42.5075 29.4631 41.7683L29.3812 43.8356Z" fill="#404041" stroke="#404041"/>
<path d="M52.6051 51.6027C52.5432 50.1424 52.3772 48.6592 52.7516 47.2315C53.634 43.8545 55.8417 41.827 59.2216 41.0153C62.3638 40.2591 64.1579 37.7491 63.8876 34.5579C63.6369 31.621 61.0581 29.2936 58.0396 29.2838C54.9886 29.274 52.4358 31.5265 52.1297 34.483C52.0516 35.249 52.0157 36.0378 51.8041 36.768C51.0617 39.3236 48.421 41.0349 45.9202 40.66C43.1004 40.2363 41.1695 38.049 41.1305 35.2392C41.0295 28.0843 45.8421 21.3922 52.693 19.156C54.1192 18.6899 55.1319 19.0713 55.4868 20.2089C55.8124 21.2422 55.2068 22.1484 53.8652 22.6341C48.5349 24.5638 45.0378 29.1208 44.8099 34.4341C44.7415 36.0737 45.3211 36.9766 46.4901 37.0418C47.6069 37.1037 48.3493 36.1845 48.4633 34.6036C48.7954 29.9716 52.1102 26.3762 56.6785 25.6917C60.9604 25.0495 65.2682 27.5692 66.9158 31.6764C69.0551 37.0059 66.0497 42.9874 60.4915 44.4673C57.193 45.3474 56.1836 46.6643 56.1804 50.0968C56.1804 51.4788 56.1543 52.8609 56.1901 54.243C56.2227 55.6023 56.9162 56.3814 58.007 56.3846C59.1337 56.3846 59.7914 55.6447 59.824 54.2659C59.8533 53.1282 59.811 51.9906 59.837 50.853C59.8696 49.1873 60.4426 48.4115 61.9861 47.8541C67.7462 45.7744 71.1781 41.1164 71.2237 35.3207C71.2693 29.4859 67.8732 24.7757 62.0609 22.608C60.7357 22.1158 60.1691 21.1836 60.5599 20.1339C60.9636 19.0485 61.9144 18.7127 63.2983 19.1593C69.8496 21.2846 74.5385 27.403 74.8543 34.2352C75.193 41.5467 71.2172 47.991 64.5486 50.7748C63.6565 51.1464 63.409 51.5929 63.4741 52.4796C63.5392 53.3662 63.5099 54.2691 63.422 55.1557C63.1485 57.9395 60.8855 60.0061 58.1243 60.0452C55.2817 60.0843 52.9079 58.0666 52.6246 55.2535C52.5042 54.0475 52.6051 52.8186 52.6051 51.6027Z" fill="#2F9FEE"/>
<path d="M58.0746 63.2093C54.9907 63.1773 52.7647 65.5403 52.7271 68.891C52.6864 72.325 54.878 74.7875 57.9807 74.7939C61.0552 74.8003 63.2562 72.4116 63.2719 69.0481C63.2907 65.6686 61.1273 63.2382 58.0778 63.2061L58.0746 63.2093ZM57.9557 71.1899C56.8411 71.1675 56.2306 70.3723 56.2431 68.9583C56.2556 67.5603 56.9006 66.7908 58.0402 66.8133C59.1611 66.8357 59.7685 67.6277 59.7559 69.0417C59.7434 70.4332 59.0891 71.2124 57.9588 71.1899H57.9557Z" fill="#2F9FEE"/>
</svg>
