<svg width="137" height="139" viewBox="0 0 137 139" fill="none" xmlns="http://www.w3.org/2000/svg">
<g clip-path="url(#clip0_1177_237)">
<path d="M106.543 51.7771C109.148 46.5414 108.966 41.4108 105.859 36.4399C105.437 35.7614 105.495 35.2571 105.732 34.5677C108.427 26.7158 104.298 18.2399 96.4408 15.4715C95.7424 15.2247 95.415 14.9453 95.3131 14.1144C94.2872 5.63126 86.6078 0.725678 78.4882 3.30909C78.1063 3.42883 77.7679 3.70459 77.3896 3.27281C75.8181 1.47313 73.6899 0.65311 71.4745 0H68.2078C66.578 0.605941 64.941 1.13569 63.5004 2.19518C62.1654 3.17847 61.7034 5.12691 60.2555 5.66392C58.7895 6.20818 57.047 6.10295 55.5409 6.77783C54.977 7.02819 54.4714 7.05359 53.853 6.9012C50.6917 6.13561 47.5595 6.29526 44.4929 7.39466C42.9286 7.95706 42.2811 9.03832 42.754 10.2393C43.2233 11.4294 44.2746 11.7814 45.8316 11.248C47.2394 10.7654 48.6654 10.4171 50.3279 10.6022C50.066 10.9868 49.8696 11.2698 49.684 11.5601C47.3849 15.1304 46.8283 18.962 48.2544 22.9496C48.6654 24.0998 48.3999 24.5896 47.5523 25.2681C41.8736 29.7927 39.1089 35.7288 39.1089 42.9601C39.1089 45.8121 39.1162 48.6603 39.098 51.5123C39.098 51.8715 39.3272 52.4339 38.7197 52.5028C37.6283 52.6262 36.577 52.9636 35.4856 52.1508C31.7096 49.328 31.0512 44.2518 34.0742 40.5364C35.3183 39.0088 35.2856 38.2069 33.9287 36.9443C29.8216 33.1272 31.0366 27.1367 36.326 25.2064C37.4864 24.7819 38.1194 24.0961 38.083 22.8081C38.0176 20.5476 38.5705 18.4322 39.6582 16.4402C40.3603 15.1558 40.0802 13.9693 39.018 13.396C37.9557 12.8227 36.8134 13.2436 36.0895 14.5099C34.9982 16.4148 34.3143 18.4576 34.1142 20.6492C34.0596 21.2406 33.9469 21.6833 33.3066 22.0534C27.075 25.6491 25.6053 32.3906 29.7161 38.3993C30.0217 38.8455 30.0144 39.114 29.767 39.5712C26.8531 44.9957 27.6498 50.0936 32.1243 54.6036C32.5354 55.0173 32.5718 55.2241 32.1825 55.6813C27.3697 61.3525 31.1057 70.0207 38.5341 70.4017C39.2726 70.4379 39.5454 70.7173 39.6291 71.4394C39.811 73.0105 40.2257 74.5453 40.7459 76.0365C41.2261 77.4081 42.6994 77.9124 43.8162 77.1287C44.7075 76.501 44.9003 75.6592 44.5693 74.6215C43.6416 71.7151 43.1942 68.7326 43.1942 65.6811C43.1942 58.0361 43.1796 50.3875 43.1978 42.7424C43.2124 36.7447 45.6279 31.9117 50.3497 28.1998C50.87 27.7898 51.1573 27.7245 51.6703 28.218C53.7329 30.1882 56.2175 31.3203 59.055 31.6033C59.7935 31.6758 60.1027 31.9988 60.3937 32.6555C63.4786 39.6293 71.4491 42.4848 78.27 39.0632C78.9939 38.7004 79.3358 38.7294 79.8924 39.3753C83.3192 43.3556 87.7028 45.1299 92.934 44.6582C93.8871 44.5711 94.0581 44.7417 94.0544 45.6343C94.0217 51.9223 94.0762 58.2139 94.0217 64.5019C93.9671 70.6121 92.2282 76.2289 88.8924 81.3739C84.6361 87.934 78.3864 91.8273 71.2817 94.5704C69.2555 95.3541 67.1746 95.1799 65.1884 94.2982C63.4968 93.5472 61.838 92.7199 60.1537 91.947C55.53 89.8281 51.6848 86.7584 48.6582 82.6692C47.6941 81.3666 46.5664 81.08 45.5406 81.7984C44.482 82.5423 44.431 83.8013 45.4096 85.1293C48.0215 88.6706 51.2046 91.5878 54.9989 93.8302C56.1193 94.4905 57.7272 94.8643 58.2584 95.833C58.8331 96.8816 58.3457 98.4818 58.4475 99.8315C58.513 100.691 58.1783 101.112 57.4689 101.511C52.0268 104.563 46.5992 107.643 41.1788 110.731C35.6421 113.888 32.1461 118.587 30.7565 124.78C29.898 128.616 30.3963 132.534 30.309 136.417C30.2727 138.057 30.9966 138.953 32.248 139C33.5612 139.051 34.3725 138.097 34.387 136.435C34.4052 134.036 34.3579 131.638 34.4016 129.24C34.5107 122.636 37.461 117.636 43.1542 114.309C48.3053 111.297 53.5328 108.413 58.7094 105.441C59.4079 105.042 59.7644 104.995 60.3101 105.739C64.4354 111.359 72.2457 111.355 76.3819 105.724C76.9422 104.962 77.3096 105.046 77.9898 105.445C80.1725 106.729 82.3807 107.97 84.5961 109.196C85.8839 109.911 87.0516 109.664 87.6628 108.616C88.263 107.582 87.8665 106.392 86.626 105.67C84.9854 104.715 83.3993 103.605 81.6495 102.905C78.8884 101.798 77.7134 100.042 78.2118 97.0558C78.3536 96.1995 78.5428 95.7423 79.3176 95.3323C88.8123 90.2635 94.7602 82.437 97.2448 72.0199C97.5249 70.8479 97.8778 70.4488 99.0964 70.3472C105.43 69.8066 109.337 62.8546 106.096 57.4265C104.83 55.3112 105.088 53.9396 106.285 52.2524C106.387 52.1073 106.459 51.9368 106.543 51.7771ZM38.1412 66.2943C35.8676 65.9387 34.1142 63.8343 34.1433 61.3996C34.1724 58.9867 36.0204 56.9331 38.3122 56.6501C39.0653 56.5557 39.1344 56.8387 39.1198 57.441C39.0907 58.7473 39.1089 60.0535 39.1089 61.3633H39.1125C39.1125 62.7167 39.0725 64.0701 39.1271 65.4199C39.1598 66.2072 38.9307 66.4213 38.1376 66.2979L38.1412 66.2943ZM68.5279 105.858C64.5772 105.996 62.3072 102.952 62.5728 97.6436C66.3779 99.4469 70.2158 99.6174 74.0719 97.9048C74.5594 102.596 72.333 105.724 68.5279 105.858ZM82.1188 35.5473C80.5618 33.0873 79.9506 32.9639 77.677 34.6656C72.7368 38.3666 65.6249 36.0335 63.8242 30.1229C63.0966 27.7318 63.0057 27.6628 60.5429 27.6556C55.3517 27.6411 51.3501 23.3705 51.6121 18.1238C51.8485 13.3561 56.3449 9.45921 61.1177 9.88011C62.9439 10.0398 63.4168 9.76037 64.108 8.08405C65.0501 5.79454 66.7745 4.42301 69.2009 4.13636C71.6419 3.84972 73.6136 4.82576 75.0432 6.85403C76.1673 8.45415 76.8767 8.6138 78.5755 7.73936C81.6058 6.18278 84.6143 6.22632 87.4554 8.11308C90.2966 9.99984 91.5189 12.7502 91.2533 16.1427C91.1151 17.9097 91.5953 18.4504 93.7452 18.9475C98.1724 19.9743 101.039 22.7319 102.134 27.0714C103.236 31.4436 101.89 35.2244 98.4525 38.1416C93.3996 42.4304 85.6765 41.1677 82.1188 35.5437V35.5473ZM99.0746 66.2979C98.2961 66.4141 98.0269 66.2399 98.0669 65.4235C98.1324 64.1173 98.0851 62.8074 98.0851 61.4976H98.1288C98.1288 60.1442 98.1506 58.7908 98.1179 57.4374C98.1033 56.8242 98.1943 56.5593 98.9364 56.6537C101.235 56.944 103.076 59.0013 103.098 61.4178C103.123 63.8597 101.359 65.9569 99.0746 66.2979ZM103.211 49.2881C102.88 50.0246 102.403 50.6995 102.09 51.4433C101.628 52.5536 101.119 53.0289 99.7003 52.7423C98.3943 52.4774 98.0305 52.1109 98.096 50.8265C98.2088 48.5769 98.1288 46.3164 98.1251 44.0632C98.1251 43.6133 98.0778 43.1851 98.6053 42.9239C100.242 42.1147 101.585 40.9137 102.967 39.4805C104.586 42.8404 104.659 46.0515 103.207 49.2881H103.211Z" fill="#404041"/>
<path d="M18.2675 15.9794C17.6308 15.3554 17.4308 15.0288 18.3147 14.4011C20.6939 12.7139 20.5156 10.653 17.9328 9.3032C13.3746 6.9121 8.80187 4.54639 4.23642 2.16979C3.71621 1.89766 3.19964 1.60376 2.58121 1.63279C0.533123 1.61465 -0.681906 3.7554 0.409438 5.59862C1.62447 7.65954 2.91225 9.68056 4.2546 11.6617C4.8221 12.4998 4.90214 13.0622 3.91993 13.5448C3.71985 13.6428 3.55251 13.8097 3.37425 13.9475C1.38073 15.5041 1.61719 17.7029 3.91993 18.7406C9.76589 21.3712 15.6191 23.9837 21.476 26.5925C23.1203 27.3254 24.4226 27.0569 25.2048 25.8668C25.9614 24.7202 25.7322 23.4975 24.4918 22.2384C22.4291 20.1412 20.3737 18.0331 18.2711 15.9758L18.2675 15.9794ZM15.2954 19.3466C12.7744 18.229 10.257 17.1151 7.57593 15.9286C11.5011 13.2908 8.37261 11.1065 7.43405 8.49045C9.7477 9.6733 12.0613 10.8562 14.5023 12.1043C10.3188 15.1377 13.8621 16.9845 15.59 19.1071C15.4918 19.1869 15.3936 19.2668 15.2954 19.3466Z" fill="#69B8EF"/>
<path d="M136.268 2.42376C135.352 1.48038 134.268 1.38604 132.794 2.15163C128.149 4.57177 123.503 6.99553 118.861 9.42655C116.526 10.6493 116.337 12.7792 118.487 14.2959C119.352 14.909 119.483 15.2465 118.654 16.0375C116.431 18.1637 114.3 20.3879 112.146 22.5867C111.342 23.4067 111.106 24.3937 111.549 25.4532C111.971 26.4582 112.797 26.9662 113.939 27.0569C114.481 27.0279 115.027 26.8138 115.566 26.5743C117.956 25.504 120.346 24.4336 122.736 23.3632C126.199 21.8139 129.677 20.3008 133.122 18.7152C135.352 17.6884 135.566 15.5077 133.649 13.9874C133.402 13.7915 133.169 13.552 132.892 13.4178C132.038 13.0005 132.161 12.5288 132.627 11.8358C133.907 9.92364 135.119 7.96068 136.341 6.01224C137.247 4.56451 137.214 3.40343 136.268 2.42739V2.42376ZM129.393 15.9177C126.741 17.1042 124.242 18.2254 121.59 19.4119C121.601 18.4721 122.281 18.1673 122.703 17.7356C125.02 15.3517 125.027 14.4301 122.576 12.097C124.929 10.8561 127.247 9.63337 129.862 8.25095C128.887 10.9577 125.289 13.2073 129.393 15.9177Z" fill="#69B8EF"/>
<path d="M106.055 125.346C104.647 118.438 100.74 113.416 94.5047 110.165C93.6061 109.697 92.7331 109.799 92.0273 110.55C91.3652 111.254 91.307 112.088 91.7509 112.93C92.0601 113.518 92.6676 113.779 93.2133 114.095C99.2629 117.578 102.322 122.788 102.301 129.773C102.293 132.077 102.275 134.381 102.311 136.689C102.333 138.151 103.188 139.033 104.421 139C105.6 138.967 106.357 138.115 106.382 136.71C106.408 135.176 106.389 133.637 106.389 131.711C106.353 129.846 106.506 127.581 106.051 125.346H106.055Z" fill="#404041"/>
<path d="M58.6274 80.9566C59.0202 80.7426 59.3986 80.4668 59.7078 80.1475C60.3153 79.5198 60.8719 79.4291 61.5303 80.0713C61.8505 80.3834 62.2579 80.6047 62.6326 80.8587C64.4515 82.096 65.8266 82.0706 67.3654 80.5249C68.1948 79.6903 68.6459 79.8391 69.3953 80.5829C70.854 82.0198 72.291 82.154 73.8952 80.9458C75.2849 79.8972 76.4308 79.1606 77.9441 80.8405C78.6353 81.6061 79.7412 81.3413 80.4906 80.543C81.1927 79.7919 81.32 78.8449 80.6725 78.0721C79.7485 76.9654 78.639 76.0003 77.3112 75.3871C76.358 74.948 75.3576 75.0678 74.4555 75.6338C73.8807 75.993 73.2986 76.3559 72.7894 76.7985C72.1564 77.3464 71.738 77.2629 71.1305 76.686C69.1079 74.7594 67.6018 74.7448 65.6229 76.6534C64.9681 77.2847 64.557 77.2992 63.8476 76.7586C62.8618 76.0075 61.9123 75.0678 60.6281 75.1621C59.2931 75.1766 56.1646 77.3464 55.7862 78.4821C55.5061 79.3202 55.6698 80.1004 56.3646 80.699C57.0522 81.2868 57.8307 81.3957 58.631 80.9603L58.6274 80.9566Z" fill="#404041"/>
<path d="M22.8031 36.0227C20.584 35.99 18.365 35.9465 16.1459 35.9719C15.2983 35.9828 15.0582 35.8703 15.3419 34.9305C15.9203 33.0147 15.1091 31.948 13.1192 31.8936C10.2199 31.8174 7.32056 31.792 4.42486 31.7811C3.06432 31.7775 2.1585 32.5975 2.12212 33.7549C2.08574 34.9595 3.01702 35.8195 4.45032 35.8376C6.4875 35.863 8.52467 35.8449 10.7401 35.8449C10.6382 36.2875 10.5837 36.5452 10.5146 36.7991C9.92523 38.9907 10.6419 39.9631 12.9155 39.9921C16.2223 40.0357 19.5291 40.0756 22.8358 40.0756C24.3673 40.0756 25.215 39.3281 25.2404 38.0872C25.2695 36.7665 24.4328 36.0408 22.8031 36.019V36.0227Z" fill="#69B8EF"/>
<path d="M132.79 31.7811C129.934 31.792 127.082 31.821 124.23 31.8899C122.135 31.9407 121.309 32.9785 121.92 34.9632C122.237 35.9973 121.818 35.9682 121.069 35.9646C118.803 35.9574 116.54 36.0009 114.274 36.0154C113.401 36.019 112.673 36.2585 112.236 37.0822C111.462 38.5371 112.466 40.0538 114.31 40.0756C117.253 40.1046 120.2 40.0611 123.143 40.0248C126.926 39.9776 127.206 39.6365 126.584 35.8449C128.679 35.8449 130.757 35.863 132.834 35.8376C134.202 35.8195 135.096 35.014 135.133 33.8565C135.169 32.6555 134.223 31.7738 132.794 31.7811H132.79Z" fill="#69B8EF"/>
</g>
<defs>
<clipPath id="clip0_1177_237">
<rect width="137" height="139" fill="white"/>
</clipPath>
</defs>
</svg>
