<svg width="705" height="1172" viewBox="0 0 705 1172" fill="none" xmlns="http://www.w3.org/2000/svg">
<path d="M77.2258 256.343L280.382 510.878C297.313 535.127 286.678 572.049 256.748 592.947L44.348 741.25C14.4268 762.142 -23.9132 759.404 -40.8441 735.155L-198.139 445.727C-215.07 421.479 -192.827 379.357 -162.922 358.476L-6.92503 249.555C23.0045 228.658 60.2949 232.094 77.2258 256.343Z" fill="#F6F7FB" fill-opacity="0.5"/>
<path d="M-137.517 30.4056C-137.691 30.2442 -137.896 30.1186 -138.118 30.0364C-138.341 29.9541 -138.578 29.9167 -138.815 29.9263C-139.053 29.9359 -139.286 29.9923 -139.501 30.0923C-139.717 30.1922 -139.91 30.3338 -140.071 30.5088C-140.389 30.861 -140.555 31.3242 -140.534 31.7981C-140.513 32.272 -140.306 32.7184 -139.958 33.0406C-139.607 33.3601 -139.145 33.5305 -138.67 33.5155C-138.196 33.5005 -137.745 33.3014 -137.415 32.9604C-137.253 32.7861 -137.128 32.5816 -137.046 32.3588C-136.963 32.1358 -136.926 31.8989 -136.935 31.6616C-136.945 31.4242 -137.001 31.1909 -137.101 30.9754C-137.201 30.7599 -137.342 30.5663 -137.517 30.4056ZM-121.247 52.2562C-121.456 52.3804 -121.638 52.5455 -121.781 52.7415C-121.924 52.9375 -122.027 53.1605 -122.082 53.3971C-122.137 53.6337 -122.144 53.879 -122.102 54.1182C-122.06 54.3575 -121.971 54.5858 -121.838 54.7895C-121.717 55.0011 -121.553 55.1853 -121.357 55.3308C-121.162 55.4763 -120.938 55.58 -120.701 55.6354C-120.463 55.6907 -120.217 55.6966 -119.977 55.6527C-119.737 55.6087 -119.509 55.5158 -119.306 55.3799C-119.094 55.2602 -118.909 55.0983 -118.762 54.9042C-118.615 54.7102 -118.51 54.4881 -118.452 54.2516C-118.395 54.0152 -118.386 53.7694 -118.428 53.5296C-118.469 53.2899 -118.559 53.0611 -118.692 52.8576C-118.774 52.72 -118.875 52.5954 -118.994 52.488C-119.304 52.2124 -119.696 52.047 -120.109 52.0175C-120.523 51.988 -120.934 52.0962 -121.28 52.325L-121.247 52.2562ZM-161.769 13.8927C-162.207 13.6905 -162.707 13.6673 -163.163 13.8284C-163.618 13.9895 -163.993 14.322 -164.207 14.755C-164.4 15.1905 -164.416 15.6841 -164.251 16.131C-164.086 16.5779 -163.754 16.9428 -163.324 17.1479C-162.896 17.3522 -162.406 17.3799 -161.958 17.2251C-161.51 17.0702 -161.141 16.7452 -160.93 16.3204C-160.763 15.9725 -160.712 15.5802 -160.784 15.2011C-160.856 14.822 -161.048 14.4761 -161.331 14.2142C-161.482 14.1194 -161.639 14.035 -161.802 13.9615L-161.769 13.8927ZM-109.275 78.3891C-109.736 78.5123 -110.13 78.8137 -110.37 79.2271C-110.609 79.6405 -110.675 80.1321 -110.553 80.5939C-110.43 81.0555 -110.129 81.4494 -109.716 81.689C-109.302 81.9286 -108.811 81.9944 -108.349 81.8719C-107.893 81.7381 -107.507 81.432 -107.273 81.0183C-107.038 80.6048 -106.974 80.1162 -107.094 79.6562C-107.171 79.321 -107.351 79.0184 -107.609 78.7906C-107.852 78.5865 -108.145 78.4523 -108.458 78.4019C-108.771 78.3515 -109.092 78.3871 -109.386 78.5047L-109.275 78.3891ZM-190.333 6.52543C-190.571 6.51867 -190.807 6.55896 -191.029 6.64392C-191.251 6.72888 -191.454 6.8568 -191.626 7.02043C-191.798 7.18405 -191.937 7.38012 -192.033 7.59733C-192.129 7.81457 -192.182 8.04869 -192.188 8.28622C-192.196 8.52181 -192.158 8.75675 -192.075 8.97741C-191.992 9.19808 -191.867 9.40005 -191.705 9.57157C-191.543 9.74314 -191.349 9.88076 -191.134 9.97654C-190.919 10.0723 -190.686 10.1244 -190.451 10.1296C-189.981 10.1438 -189.523 9.97349 -189.177 9.65516C-188.83 9.33678 -188.621 8.89549 -188.595 8.42551C-188.574 8.15792 -188.616 7.88908 -188.717 7.64045C-188.818 7.39176 -188.976 7.17016 -189.178 6.99306C-189.539 6.71799 -189.993 6.59199 -190.445 6.64106L-190.333 6.52543ZM-104.397 106.707C-104.642 106.722 -104.882 106.785 -105.102 106.894C-105.322 107.003 -105.517 107.156 -105.677 107.342C-105.837 107.528 -105.958 107.745 -106.033 107.979C-106.107 108.213 -106.134 108.46 -106.111 108.704C-106.096 108.949 -106.033 109.189 -105.924 109.409C-105.815 109.629 -105.663 109.825 -105.477 109.985C-105.29 110.145 -105.074 110.265 -104.84 110.34C-104.606 110.414 -104.359 110.441 -104.115 110.418C-103.87 110.403 -103.63 110.34 -103.41 110.231C-103.19 110.122 -102.994 109.969 -102.834 109.783C-102.675 109.597 -102.554 109.38 -102.479 109.146C-102.405 108.912 -102.378 108.665 -102.401 108.421C-102.438 107.969 -102.635 107.546 -102.956 107.227C-103.17 107.084 -103.411 106.986 -103.663 106.938C-103.916 106.89 -104.175 106.893 -104.427 106.946L-104.397 106.707ZM-104.416 135.614C-104.649 135.591 -104.885 135.614 -105.109 135.682C-105.334 135.75 -105.542 135.862 -105.723 136.011C-105.905 136.16 -106.054 136.343 -106.164 136.55C-106.274 136.758 -106.342 136.984 -106.364 137.218C-106.407 137.47 -106.396 137.728 -106.332 137.976C-106.268 138.223 -106.151 138.454 -105.991 138.653C-105.831 138.852 -105.63 139.015 -105.402 139.131C-105.174 139.246 -104.924 139.312 -104.668 139.323C-104.434 139.342 -104.199 139.313 -103.976 139.24C-103.753 139.167 -103.546 139.051 -103.368 138.898C-103.191 138.744 -103.045 138.557 -102.94 138.348C-102.834 138.138 -102.771 137.909 -102.755 137.675C-102.728 137.408 -102.763 137.139 -102.859 136.888C-102.954 136.637 -103.106 136.412 -103.303 136.231C-103.628 135.974 -104.032 135.84 -104.446 135.854L-104.416 135.614ZM-107.859 164.265C-108.095 164.227 -108.336 164.236 -108.569 164.291C-108.801 164.347 -109.02 164.448 -109.213 164.589C-109.406 164.73 -109.569 164.908 -109.693 165.112C-109.817 165.317 -109.898 165.544 -109.934 165.78C-110.005 166.256 -109.886 166.74 -109.602 167.128C-109.319 167.517 -108.894 167.778 -108.42 167.855C-108 167.919 -107.57 167.831 -107.209 167.605C-106.849 167.38 -106.581 167.032 -106.454 166.626C-106.401 166.332 -106.423 166.03 -106.52 165.747C-106.616 165.464 -106.783 165.211 -107.005 165.011C-107.25 164.767 -107.555 164.592 -107.889 164.505L-107.859 164.265ZM-113.215 192.679C-113.678 192.59 -114.157 192.685 -114.553 192.942C-114.948 193.199 -115.229 193.599 -115.337 194.058C-115.391 194.293 -115.396 194.536 -115.352 194.773C-115.309 195.009 -115.218 195.235 -115.085 195.435C-114.951 195.636 -114.779 195.807 -114.578 195.939C-114.376 196.071 -114.15 196.161 -113.913 196.202C-113.684 196.253 -113.447 196.257 -113.216 196.214C-112.985 196.171 -112.765 196.082 -112.569 195.952C-112.373 195.822 -112.206 195.655 -112.076 195.459C-111.946 195.263 -111.857 195.043 -111.814 194.812C-111.747 194.509 -111.764 194.195 -111.861 193.901C-111.958 193.606 -112.133 193.344 -112.366 193.14C-112.662 192.952 -113.008 192.855 -113.359 192.863L-113.215 192.679ZM-119.029 220.873C-119.261 220.825 -119.5 220.823 -119.733 220.867C-119.966 220.911 -120.188 221.001 -120.386 221.132C-120.584 221.262 -120.755 221.43 -120.888 221.626C-121.021 221.822 -121.114 222.043 -121.162 222.275C-121.248 222.746 -121.146 223.233 -120.878 223.629C-120.61 224.026 -120.197 224.301 -119.727 224.397C-119.495 224.445 -119.256 224.447 -119.023 224.402C-118.79 224.358 -118.568 224.268 -118.37 224.138C-118.172 224.008 -118.001 223.84 -117.868 223.643C-117.735 223.447 -117.642 223.227 -117.594 222.994C-117.542 222.691 -117.568 222.379 -117.671 222.088C-117.773 221.797 -117.949 221.538 -118.18 221.335C-118.476 221.215 -118.798 221.178 -119.113 221.227L-119.029 220.873ZM151.251 486.831C150.913 486.498 150.458 486.311 149.984 486.312C149.51 486.312 149.055 486.499 148.718 486.832C148.545 486.997 148.408 487.195 148.314 487.414C148.22 487.633 148.171 487.869 148.17 488.108C148.169 488.346 148.216 488.583 148.308 488.803C148.4 489.023 148.536 489.222 148.706 489.389C148.873 489.557 149.072 489.69 149.292 489.78C149.511 489.87 149.746 489.915 149.983 489.913C150.22 489.911 150.454 489.861 150.672 489.767C150.89 489.673 151.086 489.536 151.25 489.365C151.418 489.2 151.552 489.002 151.643 488.785C151.734 488.567 151.781 488.334 151.781 488.098C151.781 487.862 151.734 487.629 151.643 487.411C151.552 487.194 151.419 486.997 151.251 486.831ZM128.623 468.391C128.428 468.258 128.208 468.165 127.976 468.118C127.744 468.071 127.505 468.071 127.273 468.118C127.042 468.164 126.821 468.257 126.625 468.389C126.43 468.522 126.262 468.693 126.133 468.891C125.999 469.088 125.906 469.309 125.858 469.542C125.81 469.775 125.808 470.016 125.854 470.249C125.899 470.483 125.99 470.706 126.122 470.904C126.254 471.102 126.423 471.272 126.621 471.405C126.818 471.538 127.04 471.631 127.274 471.677C127.508 471.723 127.749 471.722 127.982 471.673C128.215 471.625 128.437 471.529 128.632 471.393C128.828 471.258 128.995 471.084 129.122 470.882C129.361 470.526 129.465 470.096 129.416 469.67C129.367 469.244 129.167 468.85 128.853 468.557C128.784 468.492 128.707 468.436 128.623 468.391ZM166.59 509.392C166.17 509.628 165.859 510.022 165.727 510.486C165.595 510.95 165.652 511.448 165.885 511.87C166.121 512.291 166.514 512.601 166.978 512.733C167.442 512.865 167.94 512.809 168.362 512.575C168.581 512.469 168.775 512.318 168.932 512.132C169.088 511.945 169.203 511.728 169.27 511.494C169.336 511.26 169.353 511.014 169.318 510.774C169.283 510.533 169.198 510.302 169.068 510.097C168.997 509.923 168.89 509.766 168.753 509.637C168.463 509.376 168.098 509.213 167.711 509.169C167.323 509.125 166.932 509.203 166.59 509.392ZM103.396 453.862C103.186 453.753 102.956 453.689 102.719 453.672C102.483 453.656 102.246 453.687 102.023 453.764C101.799 453.841 101.593 453.963 101.418 454.122C101.243 454.281 101.101 454.474 101.002 454.689C100.89 454.9 100.822 455.132 100.803 455.37C100.783 455.608 100.812 455.847 100.889 456.074C100.965 456.3 101.087 456.508 101.247 456.686C101.407 456.863 101.601 457.006 101.818 457.106C102.029 457.211 102.259 457.272 102.494 457.287C102.729 457.302 102.965 457.27 103.188 457.193C103.41 457.116 103.616 456.996 103.791 456.839C103.967 456.682 104.11 456.491 104.212 456.278C104.386 455.929 104.442 455.533 104.371 455.149C104.301 454.765 104.108 454.414 103.821 454.149L103.396 453.862ZM-123.891 249.55C-124.121 249.522 -124.354 249.541 -124.576 249.604C-124.799 249.667 -125.006 249.773 -125.188 249.917C-125.369 250.061 -125.52 250.239 -125.632 250.442C-125.744 250.644 -125.815 250.866 -125.84 251.096C-125.885 251.564 -125.748 252.03 -125.458 252.399C-125.168 252.768 -124.747 253.012 -124.283 253.079C-124.046 253.112 -123.806 253.098 -123.575 253.038C-123.344 252.977 -123.127 252.871 -122.937 252.726C-122.747 252.581 -122.588 252.399 -122.469 252.192C-122.35 251.985 -122.273 251.757 -122.243 251.52C-122.2 251.237 -122.229 250.948 -122.328 250.68C-122.426 250.412 -122.59 250.173 -122.804 249.984C-123.151 249.758 -123.57 249.669 -123.979 249.733L-123.891 249.55ZM76.513 442.68C76.0628 442.522 75.5681 442.548 75.1374 442.754C74.7066 442.96 74.375 443.329 74.2153 443.779C74.0615 444.234 74.0927 444.731 74.3024 445.163C74.512 445.595 74.883 445.927 75.3355 446.088C75.5552 446.168 75.7888 446.204 76.0226 446.193C76.2563 446.181 76.4855 446.123 76.6965 446.022C76.9075 445.921 77.0961 445.778 77.2513 445.603C77.4063 445.428 77.5247 445.223 77.5994 445.001C77.7321 444.671 77.7596 444.308 77.6782 443.962C77.5968 443.615 77.4105 443.303 77.1447 443.066C76.9651 442.893 76.7494 442.761 76.513 442.68ZM176.781 536.25C176.541 536.282 176.31 536.363 176.103 536.488C175.896 536.613 175.717 536.78 175.578 536.978C175.438 537.176 175.341 537.401 175.293 537.638C175.244 537.875 175.246 538.12 175.297 538.356C175.335 538.593 175.42 538.82 175.547 539.024C175.675 539.227 175.841 539.403 176.037 539.541C176.233 539.679 176.455 539.777 176.689 539.829C176.924 539.88 177.166 539.884 177.402 539.841C177.642 539.809 177.873 539.728 178.08 539.603C178.287 539.477 178.466 539.311 178.605 539.113C178.745 538.915 178.842 538.69 178.89 538.453C178.939 538.216 178.937 537.971 178.886 537.734C178.825 537.344 178.625 536.989 178.323 536.733C178.121 536.534 177.872 536.389 177.598 536.313C177.324 536.236 177.036 536.23 176.759 536.296L176.781 536.25ZM48.7691 434.185C48.3033 434.071 47.8113 434.144 47.3992 434.39C46.987 434.635 46.6879 435.033 46.566 435.497C46.5038 435.727 46.4875 435.966 46.5181 436.202C46.5487 436.437 46.6255 436.665 46.7442 436.871C46.863 437.077 47.0212 437.257 47.2099 437.401C47.3986 437.546 47.614 437.651 47.8436 437.712C48.0707 437.777 48.3084 437.795 48.5428 437.767C48.7772 437.738 49.0037 437.664 49.2089 437.547C49.414 437.43 49.5938 437.273 49.7379 437.086C49.8819 436.899 49.9873 436.685 50.0478 436.457C50.1337 436.141 50.1295 435.807 50.0355 435.493C49.9416 435.18 49.7618 434.899 49.5164 434.682C49.2977 434.475 49.0346 434.321 48.7472 434.23L48.7691 434.185ZM-126.375 278.49C-126.851 278.473 -127.314 278.645 -127.664 278.969C-128.014 279.292 -128.221 279.741 -128.241 280.217C-128.244 280.699 -128.062 281.164 -127.733 281.515C-127.403 281.867 -126.951 282.078 -126.47 282.105C-126.217 282.115 -125.965 282.072 -125.73 281.979C-125.494 281.887 -125.281 281.746 -125.103 281.567C-124.924 281.387 -124.785 281.173 -124.694 280.937C-124.603 280.701 -124.561 280.449 -124.573 280.196C-124.566 279.942 -124.612 279.69 -124.708 279.455C-124.804 279.22 -124.948 279.007 -125.131 278.831C-125.497 278.569 -125.952 278.463 -126.397 278.536L-126.375 278.49ZM177.271 565.034C177.039 564.988 176.799 564.989 176.567 565.038C176.335 565.087 176.115 565.183 175.921 565.319C175.727 565.455 175.563 565.63 175.438 565.831C175.313 566.033 175.231 566.258 175.195 566.492C175.149 566.725 175.15 566.964 175.199 567.197C175.248 567.429 175.343 567.648 175.48 567.842C175.616 568.036 175.79 568.201 175.992 568.325C176.193 568.45 176.418 568.533 176.652 568.568C176.885 568.614 177.124 568.613 177.356 568.564C177.588 568.515 177.808 568.42 178.002 568.283C178.196 568.147 178.36 567.973 178.485 567.771C178.61 567.569 178.693 567.345 178.728 567.11C178.779 566.814 178.757 566.509 178.663 566.223C178.569 565.938 178.405 565.68 178.188 565.472C177.933 565.238 177.614 565.085 177.271 565.034ZM20.8014 427.159C20.3399 427.04 19.8503 427.11 19.4395 427.351C19.0287 427.593 18.7303 427.987 18.6093 428.448C18.5434 428.677 18.5248 428.917 18.5546 429.153C18.5844 429.389 18.6619 429.617 18.7824 429.822C18.903 430.027 19.0641 430.205 19.2559 430.346C19.4477 430.487 19.6661 430.587 19.8978 430.641C20.1242 430.705 20.3612 430.723 20.5948 430.694C20.8283 430.665 21.0536 430.589 21.2572 430.471C21.4607 430.352 21.6384 430.194 21.7796 430.006C21.9208 429.817 22.0227 429.603 22.0791 429.374C22.1626 429.061 22.1594 428.732 22.0698 428.422C21.9802 428.111 21.8076 427.83 21.5706 427.611C21.3514 427.362 21.0573 427.192 20.7327 427.126L20.8014 427.159ZM-125.122 307.386C-125.36 307.419 -125.59 307.5 -125.797 307.622C-126.004 307.745 -126.185 307.907 -126.329 308.1C-126.473 308.293 -126.578 308.512 -126.638 308.745C-126.697 308.978 -126.71 309.221 -126.676 309.459C-126.642 309.697 -126.561 309.927 -126.439 310.134C-126.316 310.341 -126.154 310.522 -125.962 310.666C-125.769 310.81 -125.55 310.915 -125.317 310.975C-125.084 311.034 -124.841 311.047 -124.603 311.012C-124.364 310.982 -124.132 310.903 -123.924 310.782C-123.715 310.66 -123.533 310.498 -123.388 310.304C-123.243 310.111 -123.138 309.89 -123.08 309.656C-123.022 309.421 -123.012 309.177 -123.05 308.939C-123.121 308.523 -123.322 308.14 -123.626 307.847C-123.832 307.652 -124.08 307.506 -124.352 307.42C-124.623 307.334 -124.91 307.311 -125.191 307.353L-125.122 307.386ZM-7.00705 419.505C-7.23271 419.438 -7.46946 419.417 -7.70349 419.442C-7.93748 419.468 -8.16415 419.539 -8.3703 419.653C-8.57647 419.767 -8.75796 419.92 -8.90442 420.104C-9.05081 420.289 -9.15913 420.5 -9.2232 420.727C-9.29616 420.951 -9.32316 421.188 -9.30256 421.423C-9.28204 421.657 -9.21432 421.886 -9.10349 422.094C-8.99268 422.302 -8.84105 422.485 -8.65764 422.633C-8.47428 422.781 -8.26286 422.891 -8.03618 422.955C-7.80823 423.02 -7.56983 423.039 -7.33457 423.011C-7.0993 422.984 -6.87177 422.91 -6.66494 422.794C-6.45807 422.679 -6.27609 422.523 -6.12926 422.337C-5.98239 422.152 -5.87361 421.938 -5.80913 421.71C-5.70839 421.388 -5.70176 421.043 -5.79005 420.716C-5.87836 420.39 -6.05791 420.095 -6.30766 419.867C-6.53409 419.685 -6.79548 419.55 -7.07578 419.472L-7.00705 419.505ZM168.855 592.549C168.641 592.45 168.409 592.395 168.174 592.387C167.938 592.378 167.703 592.417 167.483 592.5C167.262 592.584 167.061 592.71 166.889 592.872C166.718 593.034 166.581 593.228 166.485 593.444C166.377 593.653 166.314 593.882 166.298 594.117C166.282 594.352 166.314 594.588 166.392 594.81C166.471 595.032 166.594 595.236 166.754 595.409C166.914 595.581 167.107 595.72 167.323 595.815C167.754 596.021 168.25 596.047 168.701 595.888C169.152 595.728 169.521 595.396 169.727 594.964C169.888 594.614 169.932 594.222 169.854 593.846C169.775 593.469 169.579 593.127 169.292 592.87C169.135 592.736 168.966 592.618 168.786 592.516L168.855 592.549ZM-34.298 410.297C-34.7426 410.127 -35.236 410.141 -35.6709 410.334C-36.1058 410.527 -36.4468 410.884 -36.6198 411.327C-36.7074 411.548 -36.7506 411.784 -36.7468 412.022C-36.743 412.259 -36.6924 412.494 -36.5977 412.712C-36.503 412.93 -36.3662 413.127 -36.1952 413.292C-36.0242 413.456 -35.8223 413.586 -35.6011 413.672C-35.1505 413.844 -34.65 413.831 -34.2088 413.636C-33.7675 413.441 -33.4213 413.079 -33.2455 412.63C-33.1176 412.293 -33.0904 411.927 -33.1673 411.575C-33.2442 411.223 -33.4218 410.901 -33.6784 410.649C-33.8577 410.489 -34.0689 410.369 -34.298 410.297ZM-118.672 335.357C-119.12 335.518 -119.486 335.849 -119.691 336.278C-119.896 336.707 -119.923 337.2 -119.767 337.65C-119.591 338.086 -119.258 338.44 -118.834 338.643C-118.41 338.845 -117.925 338.882 -117.475 338.744C-117.032 338.578 -116.669 338.247 -116.465 337.819C-116.261 337.391 -116.23 336.901 -116.38 336.452C-116.462 336.177 -116.616 335.929 -116.825 335.733C-117.068 335.506 -117.369 335.351 -117.695 335.284C-118.021 335.218 -118.359 335.243 -118.672 335.357ZM-60.2997 398.213C-60.7147 397.991 -61.1999 397.941 -61.6518 398.072C-62.1036 398.203 -62.4863 398.506 -62.7181 398.916C-62.9442 399.341 -62.9937 399.838 -62.8558 400.299C-62.7178 400.76 -62.4036 401.149 -61.9813 401.379C-61.5574 401.598 -61.065 401.641 -60.6091 401.501C-60.1533 401.362 -59.7699 401.049 -59.5409 400.631C-59.3394 400.286 -59.2636 399.881 -59.3266 399.487C-59.3895 399.092 -59.5873 398.732 -59.8862 398.467C-60.0342 398.397 -60.1922 398.35 -60.3544 398.327L-60.2997 398.213ZM-105.738 361.245C-105.951 361.375 -106.134 361.549 -106.275 361.755C-106.416 361.962 -106.511 362.196 -106.554 362.442C-106.597 362.688 -106.587 362.941 -106.524 363.182C-106.462 363.424 -106.348 363.65 -106.191 363.844C-106.062 364.058 -105.888 364.241 -105.681 364.382C-105.475 364.522 -105.241 364.617 -104.995 364.66C-104.749 364.703 -104.497 364.693 -104.255 364.63C-104.013 364.568 -103.788 364.454 -103.593 364.297C-103.389 364.159 -103.214 363.982 -103.08 363.775C-102.946 363.568 -102.855 363.337 -102.813 363.094C-102.771 362.851 -102.778 362.602 -102.834 362.363C-102.89 362.123 -102.994 361.897 -103.14 361.698L-103.372 361.418C-103.684 361.117 -104.091 360.935 -104.523 360.904C-104.956 360.872 -105.385 360.993 -105.738 361.245ZM-83.9244 382.45C-84.2995 382.142 -84.7804 381.993 -85.264 382.036C-85.7475 382.079 -86.195 382.309 -86.5104 382.679C-86.661 382.862 -86.774 383.073 -86.843 383.3C-86.9119 383.527 -86.9354 383.765 -86.9123 384.001C-86.8891 384.237 -86.8196 384.466 -86.7078 384.675C-86.596 384.884 -86.4441 385.069 -86.2608 385.219C-85.8944 385.523 -85.4231 385.669 -84.9494 385.626C-84.4757 385.584 -84.038 385.355 -83.7315 384.992C-83.4237 384.638 -83.2677 384.178 -83.2973 383.71C-83.3269 383.243 -83.5398 382.806 -83.8896 382.495L-83.9244 382.45ZM154.478 617.694C154.079 617.43 153.592 617.334 153.122 617.425C152.652 617.516 152.237 617.788 151.965 618.183C151.831 618.379 151.737 618.601 151.69 618.834C151.642 619.067 151.64 619.308 151.686 619.541C151.731 619.775 151.822 619.997 151.954 620.196C152.085 620.394 152.255 620.564 152.453 620.696C152.65 620.83 152.871 620.924 153.104 620.972C153.337 621.02 153.577 621.021 153.811 620.975C154.045 620.93 154.267 620.839 154.465 620.707C154.663 620.575 154.834 620.405 154.966 620.208C155.2 619.846 155.299 619.414 155.246 618.987C155.192 618.559 154.99 618.165 154.675 617.872L154.478 617.694ZM137.469 641.103C137.09 640.82 136.616 640.696 136.147 640.755C135.678 640.814 135.25 641.053 134.953 641.421C134.669 641.808 134.547 642.29 134.615 642.765C134.683 643.24 134.935 643.669 135.316 643.96C135.502 644.106 135.714 644.214 135.942 644.278C136.169 644.341 136.407 644.358 136.641 644.329C136.875 644.299 137.101 644.223 137.306 644.105C137.51 643.987 137.689 643.83 137.832 643.642C138.097 643.281 138.22 642.836 138.178 642.391C138.137 641.946 137.934 641.531 137.608 641.226L137.469 641.103ZM119.93 664.09C119.544 663.806 119.062 663.685 118.587 663.753C118.112 663.821 117.683 664.073 117.392 664.454C117.248 664.647 117.144 664.866 117.087 665.1C117.029 665.333 117.02 665.576 117.059 665.813C117.099 666.05 117.186 666.277 117.315 666.48C117.444 666.682 117.614 666.857 117.812 666.992C118 667.134 118.214 667.237 118.442 667.295C118.67 667.353 118.907 667.364 119.14 667.328C119.373 667.292 119.596 667.21 119.796 667.085C119.996 666.961 120.169 666.798 120.304 666.606C120.561 666.246 120.678 665.805 120.635 665.365C120.592 664.925 120.391 664.515 120.069 664.213L119.93 664.09ZM103.622 687.918C103.417 687.793 103.189 687.71 102.951 687.675C102.713 687.639 102.471 687.651 102.238 687.71C102.006 687.77 101.787 687.875 101.595 688.02C101.404 688.165 101.243 688.347 101.122 688.555C100.88 688.965 100.809 689.454 100.926 689.916C101.042 690.378 101.337 690.775 101.746 691.02C102.156 691.263 102.645 691.334 103.107 691.217C103.569 691.1 103.966 690.805 104.211 690.396C104.428 690.043 104.516 689.625 104.461 689.214C104.406 688.804 104.211 688.424 103.91 688.14C103.812 688.049 103.73 687.944 103.665 687.827L103.622 687.918ZM90.6427 713.731C90.4215 713.647 90.1855 713.607 89.9488 713.615C89.712 713.623 89.4792 713.678 89.264 713.777C89.0488 713.877 88.8556 714.018 88.6957 714.193C88.5358 714.368 88.4125 714.573 88.333 714.796C88.2486 715.016 88.2095 715.252 88.2181 715.487C88.2268 715.723 88.2829 715.955 88.3833 716.168C88.4836 716.382 88.6261 716.573 88.802 716.73C88.9781 716.888 89.1839 717.007 89.4074 717.083C89.6283 717.171 89.8649 717.214 90.1027 717.208C90.3406 717.201 90.5747 717.147 90.7908 717.047C91.007 716.948 91.2005 716.805 91.3598 716.628C91.519 716.451 91.6407 716.244 91.7172 716.019C91.8388 715.683 91.8583 715.319 91.7733 714.973C91.6883 714.627 91.5026 714.313 91.2395 714.073C91.0996 713.879 90.9079 713.729 90.6865 713.64L90.6427 713.731ZM83.971 741.6C83.5015 741.576 83.0408 741.734 82.6846 742.041C82.3283 742.348 82.1038 742.78 82.0578 743.248C82.033 743.489 82.0575 743.732 82.1297 743.962C82.2019 744.193 82.3203 744.406 82.4777 744.589C82.6351 744.773 82.8282 744.922 83.0452 745.028C83.2622 745.134 83.4986 745.195 83.7399 745.206C84.2148 745.233 84.6814 745.073 85.0406 744.761C85.3999 744.449 85.6234 744.009 85.664 743.535C85.6787 743.266 85.6354 742.996 85.5368 742.745C85.4383 742.494 85.2868 742.267 85.0927 742.08C84.7777 741.807 84.3857 741.64 83.971 741.6ZM323.945 967.487C323.585 967.186 323.121 967.04 322.653 967.081C322.186 967.121 321.753 967.345 321.45 967.703C321.296 967.884 321.18 968.095 321.109 968.323C321.038 968.55 321.014 968.789 321.037 969.026C321.06 969.263 321.131 969.493 321.245 969.702C321.359 969.911 321.513 970.095 321.699 970.243C321.88 970.393 322.087 970.505 322.311 970.574C322.534 970.642 322.769 970.666 323.002 970.644C323.235 970.622 323.461 970.554 323.667 970.444C323.874 970.335 324.057 970.185 324.206 970.005C324.501 969.65 324.651 969.196 324.626 968.735C324.601 968.274 324.403 967.839 324.071 967.519L323.945 967.487ZM342.599 987.351C342.424 987.511 342.283 987.705 342.185 987.921C342.087 988.136 342.034 988.37 342.029 988.607C342.023 988.844 342.066 989.079 342.154 989.299C342.243 989.519 342.374 989.719 342.542 989.886C342.702 990.058 342.894 990.196 343.108 990.293C343.322 990.39 343.552 990.444 343.787 990.452C344.022 990.459 344.255 990.42 344.475 990.336C344.694 990.253 344.895 990.127 345.065 989.965C345.237 989.805 345.376 989.613 345.473 989.399C345.57 989.185 345.624 988.955 345.631 988.72C345.638 988.485 345.599 988.251 345.516 988.032C345.433 987.813 345.307 987.612 345.145 987.441L345.008 987.376C344.686 987.064 344.257 986.888 343.809 986.884C343.361 986.879 342.928 987.047 342.599 987.351ZM300.566 950.208C300.372 950.076 300.153 949.984 299.922 949.938C299.692 949.892 299.454 949.893 299.224 949.94C298.994 949.988 298.776 950.081 298.582 950.215C298.389 950.349 298.224 950.52 298.099 950.719C297.962 950.913 297.865 951.132 297.815 951.364C297.764 951.596 297.76 951.835 297.804 952.068C297.847 952.302 297.937 952.524 298.067 952.722C298.198 952.92 298.366 953.09 298.563 953.222C298.762 953.352 298.984 953.442 299.217 953.486C299.45 953.531 299.69 953.528 299.922 953.48C300.155 953.431 300.375 953.337 300.571 953.203C300.767 953.069 300.935 952.898 301.065 952.699C301.306 952.347 301.411 951.919 301.36 951.495C301.308 951.071 301.104 950.681 300.785 950.397L300.566 950.208ZM360.676 1009.9C360.471 1010.03 360.294 1010.2 360.155 1010.4C360.016 1010.6 359.918 1010.82 359.867 1011.06C359.816 1011.3 359.814 1011.54 359.859 1011.78C359.904 1012.02 359.997 1012.25 360.131 1012.45C360.259 1012.66 360.428 1012.84 360.627 1012.98C360.827 1013.12 361.053 1013.22 361.291 1013.27C361.53 1013.32 361.777 1013.32 362.017 1013.28C362.256 1013.23 362.484 1013.13 362.685 1013C362.894 1012.87 363.075 1012.7 363.217 1012.51C363.359 1012.31 363.46 1012.08 363.513 1011.85C363.566 1011.61 363.57 1011.36 363.526 1011.12C363.481 1010.88 363.389 1010.65 363.253 1010.45C363.174 1010.32 363.081 1010.2 362.974 1010.09C362.686 1009.8 362.307 1009.61 361.898 1009.56C361.488 1009.5 361.073 1009.59 360.72 1009.8L360.676 1009.9ZM275.74 935.251C275.322 935.02 274.83 934.962 274.369 935.089C273.909 935.217 273.516 935.519 273.276 935.932C273.154 936.138 273.076 936.365 273.044 936.602C273.013 936.839 273.03 937.079 273.093 937.309C273.156 937.539 273.266 937.754 273.414 937.941C273.562 938.128 273.746 938.283 273.956 938.397C274.161 938.514 274.387 938.589 274.622 938.618C274.856 938.646 275.094 938.628 275.321 938.563C275.549 938.499 275.761 938.39 275.946 938.242C276.13 938.095 276.284 937.912 276.397 937.705C276.597 937.352 276.67 936.943 276.605 936.543C276.54 936.143 276.341 935.778 276.04 935.507C275.97 935.381 275.884 935.264 275.784 935.159L275.74 935.251ZM374.273 1035.34C373.829 1035.51 373.467 1035.84 373.262 1036.27C373.058 1036.69 373.028 1037.18 373.177 1037.63C373.338 1038.08 373.668 1038.45 374.098 1038.65C374.527 1038.86 375.02 1038.88 375.469 1038.73C375.917 1038.57 376.283 1038.24 376.488 1037.81C376.693 1037.38 376.721 1036.88 376.564 1036.44C376.456 1036.18 376.297 1035.95 376.098 1035.76C375.878 1035.52 375.595 1035.34 375.28 1035.25C374.966 1035.16 374.632 1035.16 374.316 1035.25L374.273 1035.34ZM250.166 921.682C249.744 921.466 249.254 921.424 248.802 921.566C248.349 921.708 247.971 922.023 247.749 922.442C247.534 922.875 247.497 923.375 247.645 923.835C247.793 924.295 248.115 924.679 248.542 924.905C248.972 925.11 249.465 925.14 249.916 924.987C250.367 924.835 250.742 924.512 250.959 924.088C251.137 923.74 251.195 923.342 251.125 922.957C251.054 922.572 250.859 922.221 250.569 921.959C250.469 921.818 250.348 921.694 250.21 921.591L250.166 921.682ZM85.3483 770.471C84.879 770.57 84.4676 770.85 84.2027 771.25C83.9378 771.651 83.8408 772.139 83.9324 772.61C84.0369 773.077 84.3205 773.485 84.7223 773.745C85.1242 774.006 85.6122 774.098 86.0815 774.003C86.3171 773.96 86.5416 773.869 86.7416 773.737C86.9415 773.605 87.1127 773.434 87.245 773.235C87.3772 773.035 87.4677 772.81 87.5111 772.575C87.5545 772.339 87.5498 772.097 87.4974 771.863C87.4272 771.501 87.2373 771.172 86.9582 770.93C86.7645 770.714 86.5195 770.55 86.2458 770.454C85.9721 770.358 85.6785 770.332 85.3921 770.379L85.3483 770.471ZM224.307 908.653C224.095 908.548 223.864 908.485 223.627 908.47C223.391 908.454 223.154 908.485 222.93 908.56C222.705 908.636 222.498 908.756 222.32 908.912C222.141 909.067 221.995 909.257 221.89 909.469C221.785 909.682 221.723 909.913 221.707 910.149C221.691 910.385 221.722 910.622 221.798 910.847C221.873 911.071 221.992 911.279 222.148 911.457C222.304 911.635 222.494 911.781 222.706 911.886C222.915 911.997 223.144 912.065 223.38 912.085C223.616 912.105 223.853 912.078 224.078 912.003C224.303 911.929 224.51 911.81 224.688 911.654C224.865 911.497 225.009 911.306 225.111 911.093C225.294 910.745 225.355 910.346 225.284 909.96C225.213 909.574 225.015 909.223 224.721 908.963C224.626 908.806 224.5 908.669 224.351 908.561L224.307 908.653ZM381.821 1063.08C381.577 1063.1 381.339 1063.16 381.123 1063.28C380.907 1063.39 380.717 1063.55 380.565 1063.74C380.413 1063.93 380.301 1064.16 380.238 1064.39C380.175 1064.63 380.162 1064.88 380.199 1065.12C380.218 1065.36 380.287 1065.6 380.4 1065.81C380.514 1066.03 380.671 1066.22 380.86 1066.37C381.05 1066.53 381.269 1066.64 381.504 1066.71C381.739 1066.78 381.985 1066.79 382.227 1066.76C382.714 1066.71 383.159 1066.47 383.468 1066.09C383.776 1065.71 383.921 1065.22 383.872 1064.73C383.805 1064.3 383.598 1063.91 383.284 1063.61C383.1 1063.41 382.871 1063.26 382.617 1063.16C382.362 1063.07 382.089 1063.04 381.821 1063.08ZM94.0272 797.902C93.591 798.097 93.25 798.457 93.0791 798.903C92.9081 799.349 92.9211 799.845 93.1153 800.282C93.3144 800.717 93.678 801.055 94.1262 801.221C94.5744 801.388 95.0704 801.369 95.5053 801.17C95.7228 801.074 95.919 800.936 96.0821 800.762C96.2451 800.589 96.3719 800.385 96.4548 800.162C96.5377 799.939 96.575 799.702 96.5646 799.465C96.5542 799.227 96.4962 798.994 96.3942 798.779C96.3085 798.551 96.159 798.353 95.9637 798.208C95.71 797.966 95.3889 797.808 95.043 797.753C94.6972 797.698 94.3429 797.75 94.0272 797.902ZM198.782 895.276C198.572 895.161 198.342 895.089 198.104 895.063C197.866 895.038 197.625 895.06 197.396 895.129C197.167 895.198 196.953 895.311 196.768 895.463C196.583 895.615 196.431 895.803 196.319 896.014C196.207 896.224 196.138 896.453 196.116 896.689C196.093 896.925 196.117 897.163 196.186 897.39C196.256 897.617 196.369 897.827 196.52 898.01C196.671 898.193 196.857 898.344 197.066 898.455C197.274 898.573 197.504 898.648 197.741 898.674C197.979 898.701 198.22 898.678 198.448 898.608C198.677 898.538 198.889 898.422 199.071 898.267C199.253 898.111 199.401 897.921 199.507 897.706C199.699 897.359 199.77 896.957 199.707 896.565C199.644 896.172 199.452 895.812 199.162 895.542C199.05 895.434 198.922 895.344 198.782 895.276ZM173.897 880.854C173.488 880.603 172.996 880.523 172.529 880.632C172.061 880.74 171.654 881.028 171.397 881.434C171.15 881.835 171.073 882.317 171.181 882.775C171.289 883.233 171.574 883.63 171.975 883.878C172.172 884.007 172.393 884.096 172.625 884.14C172.856 884.183 173.095 884.18 173.325 884.13C173.556 884.081 173.774 883.985 173.968 883.85C174.162 883.715 174.326 883.543 174.453 883.344C174.675 882.986 174.768 882.562 174.717 882.144C174.666 881.726 174.474 881.337 174.173 881.042C174.089 880.97 173.996 880.907 173.897 880.854ZM108.197 823.029C107.992 823.163 107.816 823.337 107.68 823.54C107.543 823.743 107.449 823.972 107.403 824.212C107.356 824.452 107.358 824.699 107.409 824.939C107.459 825.178 107.558 825.405 107.698 825.606C107.838 825.808 108.016 825.979 108.223 826.111C108.429 826.243 108.66 826.333 108.902 826.375C109.144 826.417 109.391 826.411 109.63 826.357C109.87 826.302 110.096 826.201 110.296 826.059C110.503 825.924 110.68 825.747 110.816 825.541C110.953 825.334 111.045 825.101 111.087 824.858C111.13 824.614 111.122 824.364 111.064 824.124C111.005 823.883 110.898 823.657 110.749 823.46C110.681 823.349 110.595 823.251 110.494 823.169C110.19 822.877 109.792 822.703 109.371 822.677C108.951 822.651 108.534 822.776 108.197 823.029ZM150.285 864.534C150.1 864.388 149.888 864.28 149.66 864.217C149.433 864.153 149.195 864.136 148.961 864.166C148.726 864.195 148.5 864.271 148.296 864.389C148.091 864.507 147.912 864.665 147.769 864.853C147.624 865.037 147.516 865.248 147.454 865.474C147.392 865.7 147.375 865.937 147.406 866.169C147.437 866.402 147.514 866.626 147.632 866.828C147.751 867.03 147.909 867.207 148.097 867.346C148.281 867.496 148.494 867.607 148.722 867.672C148.949 867.737 149.188 867.756 149.424 867.726C149.659 867.696 149.886 867.619 150.09 867.499C150.295 867.379 150.473 867.219 150.614 867.028C150.886 866.681 151.018 866.245 150.983 865.805C150.947 865.366 150.748 864.956 150.424 864.657L150.285 864.534ZM126.499 845.456C126.156 845.793 125.958 846.251 125.95 846.732C125.941 847.212 126.123 847.677 126.454 848.025C126.784 848.366 127.235 848.563 127.709 848.574C128.184 848.584 128.643 848.407 128.988 848.081C129.161 847.916 129.3 847.719 129.396 847.5C129.492 847.281 129.544 847.045 129.548 846.806C129.552 846.567 129.509 846.33 129.421 846.108C129.332 845.885 129.201 845.683 129.033 845.512C128.7 845.177 128.25 844.984 127.778 844.974C127.305 844.963 126.847 845.136 126.499 845.456ZM380.879 1091.85C380.648 1091.8 380.408 1091.8 380.176 1091.84C379.943 1091.89 379.722 1091.98 379.526 1092.11C379.33 1092.24 379.164 1092.42 379.037 1092.62C378.911 1092.82 378.827 1093.04 378.791 1093.28C378.735 1093.5 378.726 1093.74 378.765 1093.97C378.804 1094.2 378.89 1094.42 379.019 1094.62C379.147 1094.82 379.314 1094.98 379.51 1095.11C379.706 1095.24 379.927 1095.33 380.158 1095.37C380.39 1095.41 380.629 1095.42 380.862 1095.37C381.095 1095.33 381.317 1095.24 381.515 1095.11C381.713 1094.98 381.884 1094.81 382.017 1094.61C382.15 1094.42 382.243 1094.2 382.291 1093.96C382.35 1093.66 382.332 1093.34 382.237 1093.05C382.142 1092.75 381.975 1092.48 381.75 1092.27C381.497 1092.06 381.198 1091.92 380.879 1091.85ZM371.858 1119.22C371.434 1119.01 370.943 1118.97 370.493 1119.12C370.043 1119.27 369.669 1119.59 369.453 1120.01C369.345 1120.22 369.28 1120.45 369.262 1120.69C369.243 1120.92 369.272 1121.16 369.346 1121.38C369.419 1121.61 369.537 1121.81 369.691 1121.99C369.846 1122.17 370.034 1122.31 370.245 1122.42C370.453 1122.53 370.682 1122.6 370.916 1122.62C371.151 1122.64 371.388 1122.62 371.613 1122.54C371.838 1122.47 372.047 1122.36 372.227 1122.21C372.407 1122.05 372.555 1121.87 372.663 1121.66C372.844 1121.31 372.905 1120.91 372.836 1120.52C372.768 1120.13 372.574 1119.77 372.284 1119.51C372.157 1119.39 372.013 1119.29 371.858 1119.22ZM353.038 1143C352.869 1143.17 352.735 1143.37 352.645 1143.6C352.555 1143.82 352.51 1144.06 352.513 1144.3C352.517 1144.54 352.568 1144.78 352.664 1145C352.76 1145.22 352.899 1145.41 353.073 1145.58C353.42 1145.91 353.882 1146.09 354.36 1146.08C354.837 1146.07 355.292 1145.87 355.628 1145.53C355.795 1145.37 355.927 1145.17 356.015 1144.95C356.103 1144.73 356.146 1144.49 356.141 1144.26C356.136 1144.02 356.082 1143.79 355.985 1143.57C355.887 1143.35 355.746 1143.16 355.572 1143C355.234 1142.67 354.779 1142.48 354.305 1142.48C353.831 1142.48 353.376 1142.67 353.038 1143ZM330.142 1159.23C329.706 1159.43 329.365 1159.79 329.194 1160.24C329.023 1160.68 329.036 1161.18 329.23 1161.61C329.321 1161.83 329.456 1162.03 329.627 1162.2C329.798 1162.37 330.001 1162.5 330.223 1162.58C330.446 1162.67 330.684 1162.71 330.922 1162.7C331.161 1162.69 331.394 1162.63 331.609 1162.53C331.828 1162.43 332.027 1162.3 332.193 1162.13C332.359 1161.96 332.489 1161.76 332.576 1161.54C332.663 1161.32 332.705 1161.08 332.7 1160.84C332.694 1160.61 332.641 1160.37 332.544 1160.16C332.435 1159.93 332.281 1159.73 332.091 1159.57C331.836 1159.35 331.522 1159.2 331.186 1159.14C330.849 1159.08 330.503 1159.12 330.188 1159.26L330.142 1159.23Z" fill="#2F9FEE"/>
</svg>
