<svg width="171" height="129" viewBox="0 0 171 129" fill="none" xmlns="http://www.w3.org/2000/svg">
<g clip-path="url(#clip0_1730_267)">
<path d="M123.889 78.5291C123.866 76.4226 123.185 74.5153 121.721 72.9067C119.458 70.4249 116.637 69.8121 113.48 70.3866C112.555 70.5551 111.993 70.3598 111.546 69.5096C110.823 68.1423 109.737 67.0699 108.346 66.4073C107.356 65.9362 107.004 65.2468 107.085 64.2127C107.123 63.7532 107.088 63.2897 107.088 62.8301C107.088 45.8865 107.065 28.9467 107.1 12.003C107.115 6.35769 102.536 -0.026817 95.1773 -7.40707e-06C67.4294 0.099571 39.6852 0.0880812 11.9373 0.00382253C5.58419 -0.0153272 1.21118 5.01338 0.435204 9.36036C-0.176405 12.7767 -0.0502607 16.2274 0.247899 19.6361C0.50401 22.566 2.95427 24.6227 5.7715 24.6839C8.22558 24.7376 8.13002 24.5882 8.13002 27.1504C8.13002 56.9665 8.13002 86.7826 8.13002 116.599C8.13002 117.606 8.14148 118.606 8.32114 119.605C8.87924 122.765 11.1193 124.829 14.3073 125.074C14.9342 125.124 15.5611 125.101 16.1918 125.101C37.0744 125.101 57.9571 125.101 78.8435 125.101C79.7189 125.101 80.6057 125.04 81.4161 125.499C84.757 127.395 88.2356 128.858 92.146 128.992H92.8991C93.3998 128.552 93.9044 128.651 94.4052 128.992H96.4158C96.886 128.644 97.4173 128.701 97.9487 128.77C97.9257 128.805 97.9105 128.839 97.9066 128.877C97.9793 128.877 98.0557 128.874 98.1283 128.866C99.7224 128.824 101.27 128.59 102.796 128.081C108.044 126.334 112.291 123.159 115.766 118.939C121.087 112.478 123.51 104.875 123.862 96.637C124.118 90.6087 123.957 84.5612 123.889 78.5214V78.5291ZM73.3352 119.643C54.0428 119.643 34.7541 119.643 15.4617 119.643C13.646 119.643 13.6421 119.643 13.6421 117.828C13.6421 87.1771 13.646 56.5222 13.6192 25.8712C13.6192 24.7759 13.818 24.3852 15.0297 24.3967C21.8912 24.4618 28.7565 24.4312 35.618 24.4273C36.1188 24.4273 36.6272 24.4273 37.1203 24.3507C38.2977 24.1631 39.1233 23.1788 39.1615 21.9992C39.1959 20.8157 38.4276 19.7663 37.2732 19.5212C36.7457 19.4101 36.1952 19.4025 35.6524 19.4025C26.3636 19.3948 17.071 19.391 7.78216 19.4025C5.12166 19.4025 5.52685 19.4025 5.51156 17.0624C5.50009 15.6376 5.51156 14.2129 5.51156 12.7843C5.51156 7.98925 8.2791 5.19722 13.0344 5.19722C33.959 5.19722 54.8799 5.19722 75.8046 5.19722H85.189C82.3259 9.0578 83.1286 13.4239 83.0292 17.6407C82.9872 19.3871 83.014 19.3986 81.29 19.3986C74.3444 19.3986 67.395 19.3986 60.4494 19.3986C60.113 19.3986 59.7804 19.3871 59.444 19.4063C57.8118 19.4982 56.7339 20.5246 56.753 21.9532C56.7721 23.3933 57.8462 24.412 59.5052 24.4197C64.2758 24.4465 69.0463 24.4312 73.8169 24.4312C76.5385 24.4312 79.2564 24.4542 81.978 24.4235C85.6745 24.3852 87.9871 22.0643 88.0368 18.3645C88.0674 16.1853 87.9947 14.0022 88.0674 11.823C88.1859 8.29564 90.8387 5.50744 94.2561 5.21637C97.7079 4.92146 100.781 7.16581 101.546 10.5974C101.699 11.283 101.699 12.0107 101.702 12.7192C101.71 30.1225 101.71 47.5219 101.71 64.9251C101.71 65.1358 101.691 65.3464 101.71 65.5532C101.76 66.0205 101.53 66.2426 101.106 66.3499C100.598 66.4801 100.575 66.0549 100.456 65.7792C99.3554 63.2399 97.4059 61.7271 94.753 61.1488C93.182 60.8079 91.5956 60.9688 89.9443 61.5203C89.9443 57.0354 89.9443 52.6463 89.9443 48.2572C89.9443 47.1274 89.9443 46.0014 89.6499 44.8869C88.6637 41.1412 85.1355 38.6326 81.2594 38.9581C77.1884 39.3028 74.1074 42.3438 73.8207 46.3193C73.771 47.0278 73.7786 47.744 73.7786 48.4564C73.7786 61.2407 73.7786 74.0289 73.7786 87.1809C73.2435 86.5834 72.8803 86.1698 72.5096 85.7676C71.1717 84.3238 69.8299 82.8837 68.4882 81.4436C64.9141 77.6252 60.7972 76.8171 57.0702 79.1993C53.091 81.7462 51.432 86.909 53.1521 91.3402C53.565 92.4049 54.1345 93.3739 54.8302 94.2663C60.9004 102.064 66.9745 109.854 73.0562 117.644C73.5378 118.261 74.0653 118.839 74.7496 119.643H73.3391H73.3352ZM117.409 103.646C115.597 111.175 111.74 117.403 104.806 121.298C97.188 125.572 88.3273 124.546 81.3014 118.805C77.6203 115.794 74.956 111.922 72.0623 108.242C67.6396 102.612 63.259 96.9472 58.8745 91.2904C57.2461 89.1878 57.0511 86.9741 58.2591 84.9902C59.7537 82.539 62.2192 82.2096 64.2146 84.274C66.6266 86.7749 68.9737 89.3448 71.3551 91.8764C72.1044 92.673 72.9147 93.3969 73.9086 93.8833C75.9307 94.8714 77.9299 93.9829 78.553 91.8189C78.8703 90.7159 78.8321 89.5784 78.8321 88.4486C78.8321 81.8649 78.8321 75.2813 78.8321 68.7014H78.7938C78.7938 61.6582 78.7862 54.6149 78.7977 47.5678C78.7977 45.5763 79.4131 44.6264 80.9154 44.1477C82.8802 43.5234 84.6844 44.7107 84.8755 46.7712C84.9252 47.3112 84.9176 47.8589 84.9176 48.4066C84.9176 59.7279 84.9176 71.0492 84.9176 82.3705C84.9176 82.7879 84.8985 83.2131 84.952 83.6267C85.1393 84.994 86.2211 85.9668 87.494 85.94C88.8395 85.9093 89.906 84.8676 89.9175 83.4084C89.9519 79.0078 89.929 74.6034 89.9443 70.1989C89.9443 69.5747 89.9787 68.9389 90.1048 68.3261C90.403 66.8707 91.4656 66.0549 92.9755 66.0358C94.5007 66.0166 95.5328 66.7865 95.9533 68.2074C96.1368 68.824 96.1368 69.4483 96.1368 70.0764C96.1368 74.3544 96.1368 78.6286 96.1368 82.9067C96.1368 84.7412 97.0924 85.9055 98.5909 85.9362C100.116 85.9668 101.152 84.7412 101.156 82.8684C101.167 79.8925 101.129 76.9128 101.175 73.937C101.209 71.7922 102.624 70.5819 104.68 70.8309C106.209 71.0147 107.188 72.0296 107.238 73.7378C107.318 76.6294 107.283 79.521 107.295 82.4164C107.302 84.7029 108.155 85.9132 109.787 85.94C111.431 85.9668 112.306 84.7604 112.322 82.4854C112.333 81.0606 112.287 79.6283 112.425 78.215C112.585 76.5413 113.751 75.557 115.357 75.534C116.996 75.5111 118.445 76.549 118.418 78.2227C118.292 86.7098 119.42 95.2735 117.402 103.657L117.409 103.646Z" fill="#404041"/>
<path d="M92.8984 129H94.4045C93.9038 128.793 93.3992 128.793 92.8984 129Z" fill="#404041"/>
<path d="M96.4062 129H97.9123C97.897 128.958 97.8894 128.92 97.897 128.881C97.4001 128.889 96.8879 128.77 96.4062 129Z" fill="#404041"/>
<path d="M28.2604 52.88C31.479 52.9451 34.6976 52.9413 37.9162 52.88C40.7602 52.8264 42.7441 50.8961 42.8205 48.0619C42.9046 44.795 42.9046 41.5242 42.8205 38.2611C42.7479 35.4423 40.7258 33.4737 37.9238 33.4277C34.7052 33.3741 31.4867 33.3703 28.2681 33.4277C25.3667 33.4775 23.3866 35.5686 23.3522 38.51C23.3331 40.0612 23.3522 41.6085 23.3522 43.1596C23.3522 44.7107 23.337 46.258 23.3522 47.8091C23.3866 50.7735 25.3209 52.8225 28.2604 52.88ZM29.1931 38.4296C30.489 38.4794 31.7848 38.4449 33.0807 38.4449C34.3765 38.4449 35.6762 38.4756 36.9682 38.4334C37.6142 38.4143 37.8436 38.6058 37.8321 39.2799C37.7977 41.8766 37.8015 44.4771 37.8321 47.0738C37.8397 47.6713 37.6486 47.8819 37.0447 47.8781C34.4109 47.8551 31.7733 47.8551 29.1396 47.8781C28.5433 47.8819 28.3445 47.6981 28.3522 47.0891C28.3827 44.4924 28.3827 41.8919 28.3522 39.2952C28.3445 38.6517 28.5089 38.4066 29.1893 38.4334L29.1931 38.4296Z" fill="#86BE55"/>
<path d="M64.2024 62.3131C63.8699 62.2978 63.5335 62.3093 63.2009 62.3093C52.1193 62.3093 41.0377 62.3093 29.9561 62.3093C28.6182 62.3093 27.2803 62.3093 25.9424 62.3093C24.8262 62.3131 24.0235 62.834 23.5801 63.8566C22.8194 65.6145 24.1038 67.3303 26.2253 67.3342C32.4561 67.3533 38.6868 67.3418 44.9176 67.3418C49.0574 67.3418 53.1973 67.3418 57.3371 67.3418C59.6383 67.3418 61.9395 67.3763 64.2368 67.3227C65.7161 67.2882 66.8018 66.1048 66.7521 64.7336C66.7062 63.397 65.6359 62.3782 64.2024 62.3131Z" fill="#86BE55"/>
<path d="M52.1057 105.591C43.5394 105.588 34.973 105.588 26.4067 105.591C24.526 105.591 23.3257 106.61 23.3601 108.15C23.3907 109.64 24.5757 110.616 26.3761 110.62C30.6803 110.628 34.9845 110.62 39.2887 110.62C43.5929 110.62 47.813 110.62 52.0752 110.62C53.9673 110.62 55.1447 109.617 55.1179 108.058C55.0912 106.553 53.9367 105.591 52.1096 105.591H52.1057Z" fill="#86BE55"/>
<path d="M46.1382 76.7022C39.529 76.706 32.916 76.6984 26.3068 76.7099C24.5255 76.7099 23.3405 77.7746 23.3596 79.2721C23.3825 80.7811 24.5217 81.7309 26.368 81.7347C29.6324 81.7462 32.8931 81.7347 36.1575 81.7347C39.5061 81.7347 42.8508 81.7271 46.1994 81.7386C47.0748 81.7386 47.8584 81.5739 48.4509 80.8692C49.1428 80.0457 49.246 79.1227 48.8178 78.1729C48.3056 77.0354 47.3118 76.6984 46.1382 76.6984V76.7022Z" fill="#86BE55"/>
<path d="M48.4062 35.9555C48.4062 37.5257 49.4727 38.4373 51.3496 38.4411C54.5262 38.4488 57.7027 38.4411 60.8793 38.4411C64.0558 38.4411 67.3164 38.4488 70.535 38.4411C72.3431 38.4373 73.509 37.4415 73.5052 35.9402C73.5014 34.4465 72.3164 33.4162 70.5236 33.4124C64.1284 33.4009 57.7333 33.4009 51.3382 33.4124C49.511 33.4124 48.4063 34.4005 48.4101 35.9516L48.4062 35.9555Z" fill="#86BE55"/>
<path d="M26.4367 96.2004C32.1629 96.2081 37.8929 96.2119 43.6191 96.2004C45.4501 96.1966 46.5969 95.2161 46.6198 93.7033C46.6427 92.1981 45.4921 91.1908 43.6688 91.1755C40.8248 91.1564 37.9808 91.1717 35.1406 91.1717C32.2546 91.1717 29.3724 91.164 26.4864 91.1717C24.5292 91.1794 23.3786 92.1024 23.3595 93.6458C23.3442 95.1893 24.5292 96.1927 26.4329 96.1966L26.4367 96.2004Z" fill="#86BE55"/>
<path d="M66.2635 47.8704C61.2903 47.8513 56.321 47.8627 51.3478 47.8704C50.7668 47.8704 50.1819 47.8934 49.6506 48.2074C48.6835 48.7819 48.198 49.8964 48.4618 51.0071C48.7179 52.0872 49.6697 52.8608 50.9732 52.8838C53.6031 52.9259 56.2369 52.8953 58.8706 52.8953C61.3362 52.8991 63.8017 52.9144 66.2673 52.8953C68.0906 52.88 69.2451 51.8842 69.2451 50.379C69.2451 48.8777 68.1059 47.8819 66.2673 47.8742L66.2635 47.8704Z" fill="#86BE55"/>
<path d="M48.0603 24.4082C49.4249 24.3622 50.48 23.2516 50.4608 21.8843C50.4417 20.5285 49.3447 19.4369 47.9838 19.4216C46.5809 19.4063 45.4227 20.5668 45.4456 21.957C45.4686 23.3588 46.6421 24.458 48.0603 24.4082Z" fill="#404041"/>
</g>
<path d="M169.171 24.4526C168.344 22.2897 166.716 22.2388 165.819 22.4013L165.542 22.4505L165.307 22.6032C164.421 23.1808 163.52 24.2836 164.251 26.2675C165.495 29.6431 165.919 32.9284 165.546 36.3106C164.976 41.4634 162.913 45.8399 159.414 49.3173C154.674 54.027 148.973 56.1849 142.464 55.732C136.442 55.3119 131.429 52.8208 127.567 48.3277C122.744 42.7187 121.127 36.2351 122.759 29.0573C124.839 19.907 132.553 13.1624 141.955 12.2762C146.77 11.8217 151.293 12.9047 155.399 15.491C156.983 16.4887 158.329 16.3952 159.397 15.212L159.584 15.0052L159.677 14.7427C159.98 13.8877 160.199 12.2746 158.257 11.0865C152.349 7.47461 145.885 6.24713 139.045 7.44344C132.105 8.65779 126.001 12.6241 121.857 18.6122C117.715 24.5986 116.147 31.7174 117.443 38.6556C119.918 51.9084 131.079 60.957 143.947 60.9554C145.588 60.9554 147.258 60.8077 148.938 60.5041C156.718 59.0961 163.449 54.2518 167.403 47.2118C171.364 40.1637 172.007 31.8667 169.171 24.4509V24.4526Z" fill="#86BE55"/>
<path d="M163.577 21.5252C164.174 21.5252 164.698 21.3316 165.071 21.138L165.292 21.0231L165.459 20.8393C166.128 20.1041 167.01 18.5763 165.411 16.6071C163.855 14.6904 162.228 15.2155 161.399 15.6996L161.217 15.8063L161.075 15.9622C159.963 17.1749 159.922 18.6535 160.963 20.0188C161.847 21.179 162.78 21.5252 163.578 21.5252H163.577Z" fill="#86BE55"/>
<path d="M130.046 41.9017L130.1 41.9543C130.907 42.7633 131.713 43.5723 132.522 44.383C133.612 45.4775 134.703 46.5704 135.795 47.6634C137.199 49.0697 138.101 49.073 139.508 47.6798L139.67 47.5206C141.076 46.129 142.529 44.6915 143.924 43.2375C143.947 43.2129 143.968 43.1916 143.986 43.1752C144.004 43.1916 144.022 43.2113 144.045 43.2343C145.318 44.5635 146.642 45.8779 147.923 47.1497L148.601 47.8225C149.205 48.4231 149.732 48.7235 150.257 48.7235C150.782 48.7235 151.309 48.4231 151.913 47.8209C153.81 45.9304 155.774 43.9612 157.751 41.9657C158.883 40.8236 158.886 39.8488 157.76 38.71L157.307 38.2505C155.946 36.8704 154.536 35.4427 153.119 34.0675C153.09 34.038 153.065 34.0134 153.046 33.992C153.06 33.9789 153.077 33.9641 153.096 33.9477C154.119 33.0993 155.019 32.1311 155.89 31.1941C156.487 30.5508 157.106 29.8846 157.747 29.279C158.106 28.9394 158.585 28.406 158.598 27.6922C158.611 26.9783 158.152 26.427 157.805 26.0741C155.849 24.0836 153.859 22.0881 151.89 20.1435C150.8 19.067 149.694 19.0736 148.601 20.1599L147.905 20.8508C146.63 22.116 145.311 23.4255 144.045 24.7466C143.999 24.7941 143.961 24.8302 143.932 24.8565C143.907 24.8335 143.876 24.804 143.839 24.7646C142.618 23.4846 141.343 22.221 140.111 20.9985L139.281 20.1747C138.178 19.0768 137.071 19.0604 135.993 20.1255C134.154 21.9421 132.218 23.8817 130.079 26.0544C129.005 27.1441 129.005 28.1582 130.079 29.2462C130.406 29.5777 130.733 29.9125 131.059 30.2456C132.177 31.3861 133.332 32.5676 134.527 33.677C134.707 33.8444 134.774 33.9428 134.8 33.9871C134.774 34.0347 134.699 34.1414 134.489 34.3367C133.414 35.3442 132.37 36.406 131.358 37.4349C130.946 37.855 130.532 38.2751 130.116 38.6919L130.046 38.7625C129.728 39.0776 129.254 39.5469 129.3 40.3182C129.242 41.0993 129.727 41.5801 130.049 41.9017H130.046ZM137.873 36.4372L138.536 35.7676C139.793 34.5008 139.801 33.5178 138.561 32.2624L137.89 31.583C136.643 30.3194 135.355 29.0116 134.046 27.7627C134.011 27.7299 133.983 27.702 133.96 27.6774C133.987 27.6495 134.019 27.6167 134.062 27.5773C135.347 26.3662 136.499 25.211 137.584 24.0442C137.595 24.0311 137.608 24.0196 137.618 24.0081C137.638 24.0278 137.661 24.0508 137.687 24.077C138.803 25.2356 139.958 26.3876 141.076 27.5018C141.418 27.8432 141.76 28.1828 142.102 28.5242C143.467 29.8895 144.382 29.8961 145.727 28.5521C146.071 28.2075 146.416 27.8645 146.761 27.5215C147.9 26.3876 149.079 25.2159 150.216 24.036C150.226 24.0261 150.234 24.0179 150.242 24.0097L150.249 24.0179C151.278 25.1125 152.434 26.2743 153.887 27.6774C152.753 28.7802 151.622 29.9207 150.529 31.0234C150.175 31.3795 149.822 31.7373 149.468 32.0917C148.012 33.5555 148.005 34.44 149.439 35.8809C149.822 36.2649 150.203 36.6505 150.584 37.0361C151.653 38.1159 152.758 39.2335 153.875 40.3083C153.88 40.3132 153.887 40.3182 153.892 40.3231C153.882 40.3329 153.872 40.3428 153.861 40.3543C152.596 41.5653 151.378 42.7863 150.241 43.9858C149.098 42.8076 147.918 41.631 146.776 40.4938C146.462 40.1803 146.148 39.8669 145.833 39.5534C145.108 38.8281 144.514 38.4671 143.924 38.4671C143.333 38.4671 142.758 38.8199 142.053 39.5256C141.268 40.31 140.484 41.0977 139.7 41.8837C139.012 42.5729 138.325 43.2638 137.636 43.9514L137.623 43.9645C137.271 43.6117 136.921 43.2589 136.571 42.906C135.726 42.0544 134.852 41.1731 133.972 40.3231C135.289 39.0415 136.603 37.7155 137.875 36.4339L137.873 36.4372Z" fill="#86BE55"/>
<defs>
<clipPath id="clip0_1730_267">
<rect width="124" height="129" fill="white"/>
</clipPath>
</defs>
</svg>
