<svg width="107" height="108" viewBox="0 0 107 108" fill="none" xmlns="http://www.w3.org/2000/svg">
<g clip-path="url(#clip0_1743_568)">
<path d="M99.1735 42.4224C99.7454 41.5718 100.465 41.155 101.464 40.9804C104.388 40.4734 106.441 38.9497 107.002 35.8263V29.2921C106.759 28.2922 105.939 27.881 105.149 27.4416C102.136 25.7687 99.1205 24.1013 96.116 22.4114C89.987 18.9641 83.8356 15.5534 77.7066 12.106C72.2136 9.01917 66.7346 5.90135 61.2026 2.88774C59.0935 1.74144 57.1742 0.102256 54.6076 -0.00195312H54.3984C53.8405 0.327573 53.2853 0.327573 52.7274 -0.00195312H52.5181C51.366 0.198016 50.2445 0.372636 49.1705 0.983808C43.1391 4.40863 37.0854 7.79683 31.0177 11.154C30.5295 11.4244 30.0385 11.6948 29.6368 12.0919C29.0426 12.6806 28.9059 13.5875 29.2825 14.3226C29.6368 15.0098 30.39 15.3421 31.2437 15.1675C31.796 15.0548 32.287 14.776 32.7697 14.5C38.8066 11.0836 44.8994 7.76866 50.9196 4.3185C52.6548 3.32429 54.3259 3.23416 56.0583 4.23119C57.5703 5.10147 59.0991 5.93796 60.6167 6.79135C69.2147 11.63 77.8377 16.418 86.4356 21.2511C90.3803 23.4676 94.3557 25.6307 98.3617 27.9289C68.4252 27.9289 38.5918 27.9289 8.74731 27.9289C13.554 25.2786 18.3161 22.5326 23.1367 19.8963C23.9011 19.4795 24.6906 19.0937 25.3769 18.5529C26.1747 17.9276 26.3644 17.0123 25.9292 16.2124C25.4661 15.3647 24.5483 15.0323 23.5998 15.3675C23.2706 15.4858 22.9749 15.6717 22.6708 15.8406C17.8028 18.5642 12.9235 21.2623 8.06383 23.9999C5.78741 25.2842 3.48868 26.5319 1.23458 27.8557C0.419975 28.3345 -0.0459096 28.9485 0.00151578 29.9765C0.071259 31.4833 0.0768384 32.9985 0.00430551 34.5053C-0.093335 36.567 0.682209 38.1752 2.19982 39.5017C3.29897 40.4621 4.58504 40.9381 5.99106 41.1043C6.78613 41.1972 7.33571 41.5549 7.78486 42.2027C9.08208 44.07 10.3654 45.9514 11.7016 47.7906C12.1759 48.444 12.3516 49.1566 12.3489 49.9621C12.3405 61.9715 12.3405 73.9837 12.3489 85.9931C12.3489 86.8324 12.1647 87.5759 11.6765 88.266C10.2817 90.2375 8.88122 92.2034 7.49193 94.1833C7.10974 94.7269 6.62991 94.9494 5.98827 94.9466C5.15414 94.9381 4.31722 94.9044 3.4831 94.9691C1.44102 95.1268 0.0349925 96.6421 0.0182541 98.7066C0.00430551 100.461 0.0154644 102.219 0.0154644 103.973C0.0154644 106.686 1.29037 107.992 3.96293 107.992C37.01 107.992 70.0572 107.992 103.104 107.992C105.489 107.992 106.444 107.238 106.993 104.939V97.9856C106.511 95.9943 105.275 95.0001 103.21 94.9494C102.549 94.9325 101.888 94.9241 101.23 94.9494C100.507 94.9776 99.9853 94.7241 99.5557 94.1101C98.2167 92.1865 96.8664 90.2713 95.4967 88.3673C94.9862 87.6576 94.7546 86.9028 94.7574 86.0156C94.7713 74.0118 94.7713 62.0109 94.7574 50.0071C94.7574 49.1199 94.9806 48.3651 95.4967 47.6582C96.7576 45.9373 97.9767 44.1855 99.1652 42.414L99.1735 42.4224ZM7.25481 37.6823C4.84448 37.6851 3.07022 36.4797 3.22923 33.5703C3.35198 31.3368 3.25434 31.3312 5.42754 31.3312H53.6368C69.9846 31.3312 86.3352 31.3424 102.683 31.303C103.726 31.303 104.011 31.5903 103.88 32.5704C103.802 33.1562 103.874 33.7618 103.863 34.3589C103.827 36.1868 102.658 37.4626 100.856 37.6344C100.546 37.6654 100.231 37.6513 99.9184 37.6513C69.0305 37.6513 38.1399 37.6372 7.25202 37.6795L7.25481 37.6823ZM78.7862 67.0326C78.7862 67.3481 78.7695 67.6692 78.8085 67.979C78.909 68.776 79.3776 69.2492 80.1615 69.3365C80.9455 69.4238 81.4922 69.0661 81.7907 68.3169C81.9525 67.9086 81.9135 67.4889 81.9135 67.0693C81.9135 61.5912 81.9274 56.1132 81.8995 50.6352C81.8968 49.9311 82.0223 49.6776 82.7867 49.6917C85.3951 49.7452 88.0035 49.7311 90.6119 49.6973C91.2061 49.6889 91.3567 49.8635 91.3567 50.4549C91.34 62.1489 91.34 73.8428 91.3567 85.5368C91.3567 86.1592 91.2368 86.3846 90.5644 86.3733C87.956 86.331 85.3476 86.3254 82.7393 86.3733C81.9916 86.3874 81.8995 86.1001 81.9051 85.4607C81.9302 82.1965 81.9135 78.9294 81.9191 75.6623C81.9191 75.1638 81.9023 74.6709 81.5899 74.2597C81.1714 73.7133 80.6246 73.4514 79.9439 73.657C79.1405 73.8992 78.7806 74.4709 78.7834 75.3159C78.7918 78.1239 78.6356 80.946 78.8281 83.7399C79.0066 86.3057 78.4096 88.4349 76.7274 90.3727C75.6115 91.657 74.7132 93.1412 73.7619 94.5636C73.4104 95.0874 73.0198 95.2592 72.3949 95.2564C66.1348 95.2311 59.8719 95.2395 53.6117 95.2395C47.3516 95.2395 41.0189 95.2282 34.7253 95.2564C34.0976 95.2564 33.7182 95.0762 33.3639 94.5579C31.863 92.3667 30.3286 90.198 28.7831 88.035C28.4623 87.5872 28.3312 87.1366 28.3312 86.5817C28.3451 74.2203 28.3451 61.8588 28.3312 49.4974C28.3312 48.9059 28.4735 48.4327 28.8194 47.9511C30.351 45.8219 31.8658 43.6814 33.3443 41.5155C33.7014 40.9945 34.0752 40.8001 34.7029 40.8029C47.2958 40.8227 59.8858 40.8198 72.4786 40.8029C73.0645 40.8029 73.4216 40.9804 73.7535 41.4676C75.2349 43.6307 76.7441 45.7768 78.2757 47.9032C78.6411 48.413 78.8029 48.9115 78.8002 49.5424C78.7806 55.3725 78.789 61.1998 78.789 67.0298L78.7862 67.0326ZM11.0684 40.91H29.9325C28.6436 42.7491 27.4078 44.515 26.1747 46.281C25.9544 46.5964 25.6419 46.5485 25.335 46.5485C22.1017 46.5485 18.8684 46.5457 15.6351 46.5513C15.2753 46.5513 14.9907 46.5175 14.7508 46.1683C13.568 44.4446 12.3572 42.7407 11.0684 40.9071V40.91ZM25.2095 68.0776C25.2095 73.8344 25.19 79.5912 25.2318 85.3453C25.2374 86.2015 24.9835 86.3846 24.1857 86.3677C21.6498 86.317 19.1084 86.3254 16.5725 86.3677C15.9197 86.3789 15.7663 86.1874 15.7663 85.5452C15.7858 73.8569 15.7858 62.1686 15.7635 50.4803C15.7635 49.7931 15.9811 49.6861 16.5864 49.6945C19.1251 49.7283 21.6637 49.7396 24.1996 49.6889C24.9919 49.672 25.2374 49.8522 25.2318 50.7028C25.19 56.4934 25.2095 62.2869 25.2095 68.0776ZM14.8484 89.7502C15.0744 89.4263 15.4036 89.5165 15.7021 89.5136C18.8991 89.508 22.0989 89.5165 25.296 89.5024C25.7451 89.5024 26.0715 89.5841 26.3505 89.9896C27.511 91.6908 28.7078 93.3666 29.9995 95.2029H11.007C12.3349 93.3159 13.5931 91.5359 14.8457 89.7474L14.8484 89.7502ZM102.287 98.3996C103.343 98.3996 103.871 98.9338 103.871 100.002C103.871 101.23 103.838 102.461 103.883 103.689C103.91 104.463 103.64 104.756 102.862 104.737C101.297 104.694 99.7315 104.725 98.1665 104.725H53.5085C37.2332 104.725 20.9552 104.725 4.67989 104.725C3.72952 104.725 3.25341 104.241 3.25155 103.272C3.25155 101.937 3.27108 100.602 3.24318 99.2699C3.23202 98.6362 3.47473 98.3545 4.10242 98.3996C4.34512 98.4165 4.58783 98.3996 4.83332 98.3996H102.284H102.287ZM96.1076 95.1944H77.1403C78.4486 93.3299 79.6873 91.5725 80.9176 89.8065C81.1073 89.5333 81.3555 89.508 81.6429 89.508C84.9794 89.5108 88.3187 89.5136 91.6552 89.508C91.9593 89.508 92.1797 89.5897 92.361 89.8488C93.5745 91.5894 94.7965 93.3271 96.1076 95.1973V95.1944ZM92.375 46.1683C92.1378 46.5147 91.8533 46.5541 91.4906 46.5513C88.2573 46.5429 85.024 46.5457 81.7907 46.5485C81.4811 46.5485 81.1714 46.5964 80.951 46.281C79.7208 44.5122 78.4821 42.7491 77.1682 40.8733H96.0853C94.7713 42.7435 93.5606 44.4474 92.375 46.1683Z" fill="white"/>
<path d="M54.3976 0H52.7266C53.2845 0.177437 53.8397 0.177437 54.3976 0Z" fill="white"/>
<path d="M60.7508 16.8909C60.787 12.8747 57.537 9.5625 53.5644 9.5625C49.5946 9.5625 46.339 12.8775 46.3753 16.8881C46.4088 20.8931 49.5974 24.087 53.5616 24.087C57.5314 24.087 60.7173 20.8988 60.7536 16.8909H60.7508ZM49.5054 16.8797C49.4803 14.6011 51.3271 12.7141 53.5728 12.7226C55.785 12.731 57.5956 14.5561 57.6207 16.798C57.6458 19.0934 55.8325 20.9325 53.5505 20.9241C51.3075 20.9185 49.5277 19.1413 49.5054 16.8768V16.8797Z" fill="white"/>
<path d="M53.6335 49.9181C43.755 49.8815 35.6648 57.9478 35.6174 67.8843C35.57 77.894 43.5793 86.0758 53.4828 86.1378C63.3027 86.1997 71.4459 78.063 71.5017 68.1406C71.5575 58.1224 63.5482 49.9547 53.6335 49.9181ZM53.5916 82.9777C45.4317 83.0031 38.7279 76.2238 38.7475 67.966C38.767 59.7419 45.4121 53.0697 53.5777 53.0782C61.7376 53.0866 68.3688 59.7757 68.3716 68.0054C68.3744 76.2154 61.7265 82.9495 53.5916 82.9749V82.9777Z" fill="white"/>
<path d="M55.6986 66.4491C55.2606 66.3674 55.1156 66.252 55.1239 65.807C55.1463 64.3677 55.1407 62.9285 55.1295 61.4921C55.1239 60.9063 55.3806 60.8303 55.8437 61.0556C56.5328 61.3879 56.6722 62.0019 56.7671 62.6976C56.901 63.689 57.6124 64.2635 58.466 64.179C59.342 64.0917 59.8693 63.427 59.8637 62.4131C59.8525 60.1064 58.2568 58.2053 55.9246 57.8364C55.3443 57.7434 55.1184 57.6336 55.1016 56.9802C55.0793 55.924 54.4684 55.3663 53.5645 55.3692C52.6606 55.3692 52.0552 55.9296 52.0329 56.9858C52.0218 57.6505 51.7819 57.7406 51.2044 57.8279C48.9363 58.1631 47.3713 59.9769 47.282 62.3089C47.243 63.3257 47.2067 64.3508 47.3071 65.3591C47.4968 67.2574 48.5151 68.5586 50.2475 69.3698C50.8222 69.6373 51.7149 69.1783 51.9576 69.9612C52.1473 70.5696 51.9995 71.2822 52.0022 71.9497C52.0022 72.0905 52.0022 72.2313 52.0022 72.3721C52.0022 73.003 52.0162 73.6367 51.9939 74.2676C51.9855 74.5239 52.1473 74.8788 51.8125 75.014C51.4527 75.1604 51.1374 74.9492 50.8724 74.7098C50.4121 74.2958 50.4623 73.7015 50.3396 73.1607C50.1443 72.3017 49.5947 71.806 48.6992 71.8764C47.8679 71.9412 47.3741 72.4341 47.282 73.2847C47.0365 75.5942 48.8917 77.96 51.1849 78.1938C51.7707 78.2529 52.0218 78.3458 52.0329 79.0218C52.0525 80.0582 52.6801 80.6779 53.5254 80.7032C54.4042 80.7314 55.0598 80.0864 55.1128 79.0021C55.1407 78.4388 55.2802 78.2501 55.866 78.1881C58.0169 77.9628 59.6824 76.18 59.8386 73.9944C59.8972 73.1551 59.8832 72.3102 59.8721 71.468C59.8414 68.6234 58.48 66.9673 55.7042 66.4547L55.6986 66.4491ZM52.005 63.6721C52.005 64.4072 51.9827 65.1451 52.0106 65.8802C52.0357 66.5167 51.6703 66.497 51.2797 66.3308C50.7636 66.1111 50.4428 65.6802 50.4233 65.1113C50.3926 64.1678 50.4037 63.2186 50.4205 62.2751C50.4288 61.8245 50.6883 61.4837 51.0175 61.2105C51.2323 61.0331 51.5001 60.8584 51.7791 60.9457C52.1417 61.0612 51.9911 61.4161 51.9995 61.6724C52.019 62.3371 52.005 63.0046 52.005 63.6693V63.6721ZM56.3486 74.5971C56.092 74.9098 55.7516 75.1548 55.3555 75.045C54.9454 74.9295 55.1379 74.507 55.1323 74.2254C55.1128 72.9636 55.1128 71.7018 55.1323 70.44C55.1351 70.1499 54.9649 69.7275 55.3415 69.6035C55.6791 69.4937 56.0055 69.7331 56.2594 69.9866C56.954 70.6738 56.675 71.561 56.7504 72.3468C56.7029 73.1326 56.8926 73.9324 56.3486 74.5971Z" fill="white"/>
</g>
<defs>
<clipPath id="clip0_1743_568">
<rect width="107" height="108" fill="white"/>
</clipPath>
</defs>
</svg>
