<svg width="131" height="104" viewBox="0 0 131 104" fill="none" xmlns="http://www.w3.org/2000/svg">
<g clip-path="url(#clip0_1743_580)">
<path d="M122.73 47.8335C122.936 48.9481 123.757 49.7378 124.792 49.819C125.847 49.9035 126.739 49.2698 127.114 48.165C127.226 47.8368 127.3 47.4923 127.287 47.1479C127.252 46.0918 127.762 45.6791 128.772 45.7246C129.952 45.7798 130.709 45.2079 131.004 44.0348V42.7383C130.247 41.7212 129.202 41.523 128.009 41.5262C119.35 41.5522 110.692 41.5327 102.034 41.5522C101.239 41.5522 100.562 41.3767 99.8692 40.9608C90.1976 35.1701 80.5837 29.2722 70.7806 23.722C68.0227 22.1622 66.8875 20.4497 67.3685 17.3887C67.4936 16.5958 67.5834 16.2871 68.4492 16.3001C72.0312 16.3521 75.6132 16.3261 79.1983 16.3196C81.1417 16.3163 81.7766 15.6664 81.7862 13.6615C81.799 10.7206 81.7958 7.78306 81.7862 4.84223C81.7798 2.68779 81.1481 2.04438 79.0508 2.04113C75.5522 2.03463 72.0569 2.03463 68.5583 2.04113C67.9073 2.04113 67.391 2.11262 67.1826 1.17676C66.9934 0.322128 66.1692 -0.10681 65.2713 0.0199214C64.4023 0.143404 63.7802 0.650331 63.6551 1.59919C63.5942 2.06713 63.5685 2.54481 63.5685 3.01924C63.5621 8.80991 63.5461 14.6038 63.5846 20.3945C63.591 21.2816 63.3216 21.782 62.5648 22.2305C52.0979 28.4371 41.6438 34.6664 31.2025 40.912C30.4361 41.3702 29.6761 41.5587 28.7942 41.5555C20.1776 41.5327 11.5642 41.5392 2.94762 41.549C2.39926 41.549 1.82525 41.5652 1.30254 41.7114C0.420679 41.9616 -0.0314765 42.657 0.00059127 43.5604C0.032659 44.4573 0.513676 45.1039 1.40837 45.3314C1.73546 45.4126 2.085 45.4224 2.42491 45.4321C3.51736 45.4646 4.06358 46.0474 4.06358 47.1804C4.06358 58.0728 4.06358 68.9653 4.06358 79.8577C4.06358 81.8789 4.6408 82.805 5.92351 82.8603C7.25753 82.9155 7.90209 81.9374 7.90209 79.8609C7.90209 68.7963 7.90209 57.7316 7.90209 46.6637C7.90209 46.0528 7.67761 45.4094 8.77433 45.4159C17.1761 45.4614 25.5778 45.4484 33.9828 45.4256C34.6787 45.4256 34.8518 45.6726 34.8326 46.3258C34.7909 47.7068 34.8198 49.0911 34.8198 50.4754C34.8198 53.2733 35.2206 53.712 37.9592 53.7542C38.6134 53.7639 38.9405 53.8387 38.9373 54.6446C38.9116 66.6191 38.9148 78.5904 38.9373 90.5649C38.9373 91.3221 38.6936 91.5008 37.9913 91.4878C35.8588 91.4455 33.723 91.4098 31.5938 91.5008C30.5708 91.543 30.4233 91.1661 30.4329 90.2497C30.4778 85.9278 30.4618 81.6059 30.4489 77.2841C30.4425 75.5261 29.798 74.8632 28.0663 74.8502C25.0808 74.8307 22.0953 74.8404 19.1098 74.8469C16.9644 74.8502 16.3648 75.4513 16.3616 77.5993C16.3584 81.8367 16.3263 86.0708 16.3872 90.3082C16.4 91.3026 16.1243 91.5365 15.1815 91.4975C13.2638 91.4195 11.3365 91.3675 9.42851 91.5105C8.07205 91.6113 7.79626 91.1368 7.87323 89.8825C7.97264 88.2448 7.22225 87.3479 6.00368 87.3349C4.77869 87.3251 4.06999 88.2253 4.06358 89.8468C4.05396 92.3977 4.06358 94.9485 4.06358 97.4962C4.06358 98.9195 3.36129 99.6842 1.95672 99.7903C1.87014 99.7968 1.78677 99.7968 1.70018 99.8098C0.677221 99.9723 0.06152 100.593 0.00059127 101.617C-0.0603375 102.647 0.500848 103.339 1.49816 103.583C1.90542 103.68 2.34474 103.674 2.76804 103.674C44.5684 103.677 86.3655 103.674 128.166 103.693C129.352 103.693 130.334 103.466 130.997 102.4V101.103C130.712 99.8911 129.856 99.4134 128.733 99.4296C127.582 99.4491 127.236 98.8675 127.303 97.8211C127.332 97.3922 127.303 96.9567 127.303 96.5246C127.303 83.6044 127.303 70.681 127.303 57.7609C127.303 57.0265 127.351 56.2856 127.136 55.5707C126.8 54.4496 125.927 53.7769 124.882 53.8224C123.798 53.8679 122.916 54.6868 122.724 55.8534C122.625 56.4513 122.66 57.0622 122.66 57.6666C122.66 67.7792 122.66 77.8917 122.66 88.0043C122.66 88.5242 122.669 89.0409 122.657 89.5608C122.618 90.9191 122.493 91.0653 121.191 91.0881C119.655 91.1173 118.122 91.1108 116.586 91.0881C115.191 91.0686 115.057 90.9256 115.028 89.5153C115.005 88.4365 115.024 87.3544 115.021 86.2755C115.015 83.338 115.066 80.3971 114.999 77.4595C114.954 75.3993 114.078 74.5285 112.084 74.509C109.015 74.4765 105.943 74.4635 102.874 74.5155C101.059 74.548 100.238 75.4091 100.148 77.2353C100.126 77.6675 100.135 78.0997 100.135 78.5319C100.135 82.0316 100.135 85.5314 100.135 89.0344C100.135 91.0913 100.126 91.0946 98.0478 91.0978C96.81 91.0978 95.5754 91.1043 94.3375 91.0978C92.6219 91.0848 92.5065 90.9841 92.5033 89.2749C92.4968 78.2102 92.5097 67.1488 92.484 56.0841C92.484 54.9598 92.7598 54.3586 93.9752 54.1669C95.7549 53.8874 96.4348 52.9971 96.563 51.1676C96.64 50.0465 96.5887 48.9221 96.5951 47.7978C96.6079 45.8058 96.6496 45.7538 98.5897 45.7538C105.795 45.7506 113.004 45.7538 120.21 45.7538C121.629 45.7538 122.468 46.4503 122.727 47.8433L122.73 47.8335ZM67.3942 6.73021C67.3814 6.11605 67.5674 5.91132 68.1895 5.91782C71.1718 5.94707 74.1573 5.94382 77.1428 5.91782C77.7425 5.91132 77.9734 6.07705 77.9605 6.71396C77.9253 8.35497 77.9221 9.99924 77.9605 11.637C77.9766 12.2772 77.7489 12.4526 77.1492 12.4396C75.6581 12.4071 74.1669 12.4299 72.6726 12.4299C71.1782 12.4299 69.687 12.4039 68.1959 12.4429C67.5994 12.4591 67.375 12.2934 67.391 11.6533C67.4327 10.0122 67.4263 8.37122 67.391 6.73021H67.3942ZM20.2033 85.0635C20.2033 83.2925 20.2386 81.5182 20.1873 79.7505C20.1648 78.9901 20.3123 78.6749 21.1493 78.7139C22.6821 78.7854 24.2182 78.7626 25.751 78.7204C26.3859 78.7041 26.6393 78.8373 26.6329 79.5587C26.5976 83.2307 26.5944 86.9027 26.6329 90.5747C26.6425 91.3481 26.3731 91.5073 25.6772 91.4845C24.1861 91.4358 22.6885 91.4098 21.2038 91.491C20.2931 91.543 20.1648 91.1628 20.184 90.3732C20.2321 88.6022 20.2001 86.8312 20.2001 85.0602L20.2033 85.0635ZM34.6177 99.5824C34.0052 100.249 32.6007 99.7708 31.5489 99.7741C24.0514 99.7903 16.554 99.7611 9.05973 99.8098C8.08808 99.8163 7.79626 99.5629 7.88926 98.601C7.98867 97.5807 7.56217 96.2094 8.07525 95.6017C8.67813 94.8868 10.0667 95.3872 11.1121 95.3775C14.5209 95.3417 17.9265 95.3645 21.3353 95.3645C25.5105 95.3645 29.6857 95.3872 33.8577 95.345C34.6466 95.3385 34.9192 95.5367 34.8358 96.3426C34.7236 97.4474 35.2751 98.8675 34.6177 99.5824ZM105.199 78.7204C106.777 78.7659 108.354 78.7691 109.929 78.7204C110.615 78.7009 110.782 78.9348 110.779 79.6042C110.75 83.2762 110.747 86.9482 110.779 90.6202C110.785 91.3123 110.57 91.504 109.906 91.4878C108.329 91.4423 106.751 91.439 105.176 91.4878C104.471 91.5105 104.327 91.2408 104.336 90.5942C104.372 88.7354 104.349 86.88 104.349 85.0212C104.349 83.208 104.381 81.3915 104.333 79.5782C104.314 78.8796 104.538 78.7041 105.199 78.7204ZM96.3482 95.5757C96.9126 94.8933 98.346 95.384 99.3978 95.3742C102.807 95.345 106.212 95.3645 109.621 95.3645C113.751 95.3645 117.885 95.384 122.015 95.3482C122.811 95.3417 123.182 95.4945 123.077 96.3881C122.945 97.4864 123.538 98.9585 122.83 99.5986C122.227 100.141 120.809 99.7838 119.754 99.7838C112.257 99.7903 104.76 99.7709 97.2621 99.8066C96.3931 99.8098 96.0339 99.6311 96.1269 98.6888C96.2295 97.6294 95.8127 96.2191 96.345 95.5789L96.3482 95.5757ZM89.1361 99.7838C72.7688 99.7838 56.4014 99.7708 40.034 99.8098C38.918 99.8098 38.6006 99.5694 38.6326 98.406C38.7224 95.3645 38.6583 95.3612 41.7079 95.3612H65.6209C74.1028 95.3612 82.5847 95.3775 91.0666 95.3385C92.0543 95.3352 92.3558 95.5659 92.3365 96.6025C92.2756 99.7806 92.3237 99.7806 89.1394 99.7806L89.1361 99.7838ZM47.1562 90.2075C47.1562 91.1921 46.9542 91.5235 45.9152 91.5008C42.7662 91.4358 42.7662 91.4878 42.7662 88.2675V72.595C42.7662 66.7231 42.7886 60.8512 42.7437 54.9793C42.7373 54.0207 42.965 53.7315 43.9398 53.7412C47.1338 53.7737 47.137 53.7314 47.137 56.916C47.137 68.0132 47.1242 79.1103 47.1594 90.2042L47.1562 90.2075ZM50.9595 54.6836C50.9499 53.9134 51.2417 53.7444 51.9311 53.7542C54.1438 53.7867 56.3565 53.7997 58.5692 53.7509C59.342 53.7347 59.4895 54.0499 59.4703 54.7356C59.4318 56.2011 59.4574 57.6666 59.4574 59.1354C59.4574 60.5587 59.4029 61.9853 59.4767 63.4021C59.5248 64.3022 59.1881 64.4874 58.38 64.4679C56.2539 64.4192 54.1246 64.4224 51.9985 64.4679C51.2545 64.4842 50.9434 64.3249 50.9563 63.4833C51.0044 60.5522 50.998 57.6179 50.9595 54.6868V54.6836ZM59.4542 85.044C59.4542 86.8994 59.4286 88.7582 59.4671 90.6137C59.4799 91.2961 59.2586 91.4975 58.5916 91.4845C56.334 91.4488 54.0765 91.4455 51.8189 91.4845C51.1294 91.4975 50.9563 91.2538 50.9627 90.5909C50.9883 86.9222 50.9915 83.2502 50.9627 79.5815C50.9563 78.8731 51.2096 78.7106 51.851 78.7204C54.1085 78.7529 56.3661 78.7594 58.6237 78.7171C59.3131 78.7041 59.4831 78.9413 59.4703 79.6042C59.4318 81.4175 59.4574 83.2307 59.4574 85.044H59.4542ZM59.4671 73.963C59.4831 74.626 59.2875 74.8697 58.6044 74.8567C56.3533 74.8209 54.0989 74.8242 51.8477 74.8567C51.1936 74.8664 50.9434 74.6779 50.9627 73.9858C51.0044 72.3935 51.0044 70.798 50.9627 69.2057C50.9434 68.5201 51.1775 68.3056 51.8381 68.3284C52.9829 68.3706 54.131 68.3414 55.279 68.3414C56.3853 68.3414 57.4885 68.3738 58.5916 68.3284C59.2426 68.3024 59.4927 68.4811 59.4703 69.183C59.4222 70.7753 59.4318 72.3708 59.4671 73.963ZM67.7053 90.1002C67.7117 91.2701 67.3942 91.5268 66.2911 91.4975C63.2959 91.4195 63.2927 91.4715 63.2927 88.4982V72.5658C63.2927 66.6938 63.3184 60.8219 63.2671 54.95C63.2575 53.9589 63.5397 53.7282 64.4825 53.7412C67.6732 53.7769 67.6732 53.7412 67.6732 56.942C67.6732 67.9969 67.654 79.0518 67.702 90.1035L67.7053 90.1002ZM79.9936 59.1679C79.9936 60.6335 79.968 62.1022 80.0065 63.5678C80.0257 64.2339 79.8237 64.4744 79.1406 64.4647C76.8863 64.4289 74.6287 64.4289 72.3743 64.4647C71.7009 64.4744 71.4957 64.2437 71.5021 63.5743C71.5309 60.5977 71.5309 57.6244 71.5021 54.6478C71.4957 53.9817 71.6785 53.7412 72.3615 53.7542C74.6159 53.7899 76.8734 53.7867 79.1278 53.7542C79.7916 53.7444 80.0257 53.9589 80.0065 54.6413C79.9648 56.1491 79.9936 57.6601 79.9936 59.1679ZM72.3519 68.3251C73.4967 68.3771 74.6447 68.3381 75.7928 68.3381C76.8991 68.3381 78.0022 68.3641 79.1053 68.3284C79.7339 68.3056 80.0289 68.4551 80.0065 69.1765C79.9584 70.7688 79.968 72.3643 80.0065 73.9565C80.0225 74.6162 79.8365 74.8664 79.147 74.8534C76.8959 74.8144 74.6415 74.8177 72.3904 74.8534C71.7394 74.8632 71.4828 74.6779 71.4989 73.9858C71.5374 72.3935 71.5406 70.798 71.4989 69.2057C71.4828 68.5396 71.6656 68.2926 72.3487 68.3219L72.3519 68.3251ZM72.3839 78.7139C74.5966 78.7691 76.8157 78.7529 79.0284 78.7204C79.6922 78.7106 80.0193 78.8178 80.0097 79.6205C79.968 83.2892 79.9744 86.9612 80.0065 90.6299C80.0129 91.3416 79.7435 91.491 79.1086 91.4813C76.851 91.452 74.5934 91.4423 72.3358 91.4845C71.6143 91.4975 71.4925 91.2018 71.5021 90.5714C71.5309 88.7159 71.5117 86.8572 71.5117 85.0017C71.5117 83.2307 71.5406 81.4597 71.4989 79.692C71.4828 79.0063 71.6015 78.6944 72.3839 78.7139ZM83.8001 55.1223C83.7937 53.9297 84.1432 53.712 85.2207 53.7379C88.1998 53.8094 88.203 53.7607 88.203 56.7698V72.7022C88.203 78.5741 88.1869 84.446 88.2222 90.318C88.2286 91.1888 88.0587 91.595 87.1159 91.4813C86.0705 91.3546 84.698 91.9265 84.0406 91.2636C83.3832 90.6007 83.845 89.2164 83.845 88.1505C83.8289 77.1411 83.8578 66.1317 83.8033 55.119L83.8001 55.1223ZM92.3333 46.8359C92.2531 49.871 92.3109 49.8743 89.367 49.8743H65.4605C56.9369 49.8743 48.4165 49.8548 39.8929 49.897C38.8763 49.9035 38.6166 49.6208 38.6326 48.6069C38.6871 45.4354 38.6455 45.4354 41.724 45.4354C58.1298 45.4354 74.5357 45.4484 90.9416 45.4061C92.0864 45.4061 92.3622 45.7051 92.3333 46.8359ZM37.9111 41.4645C38.4049 41.1428 38.6679 40.9575 38.9405 40.7951C47.4833 35.6998 56.0294 30.6143 64.5658 25.5028C65.1687 25.1421 65.6209 25.0153 66.2943 25.4183C74.9686 30.6273 83.6622 35.8005 92.3493 40.9835C92.5129 41.081 92.67 41.1883 93.0965 41.4612H37.9143L37.9111 41.4645Z" fill="#FEFEFE"/>
<path d="M30.2894 57.5791C29.4749 53.8779 26.3034 51.6845 22.4906 52.0614C19.1459 52.3929 16.5163 55.3629 16.3849 59.0837C16.3047 61.3258 16.3528 63.5778 16.3688 65.8232C16.3817 67.6104 17.0743 68.3091 18.8669 68.3383C20.3997 68.3643 21.9358 68.3448 23.4718 68.3416C25.0496 68.3416 26.6273 68.3773 28.2018 68.3318C29.7667 68.2831 30.4241 67.5714 30.453 65.9922C30.4722 64.9978 30.4754 64.0035 30.453 63.0123C30.4145 61.2024 30.6775 59.3631 30.2862 57.5856L30.2894 57.5791ZM25.6043 64.4616C24.886 64.4031 24.1613 64.4486 23.2442 64.4486C22.3912 64.3219 21.0026 64.9328 20.3901 64.2114C19.877 63.607 20.2234 62.2455 20.2041 61.2186C20.1913 60.4875 20.1721 59.7531 20.217 59.0219C20.3292 57.2282 21.7626 55.8569 23.4622 55.8764C25.1778 55.8959 26.5535 57.2802 26.6016 59.0999C26.6401 60.5622 26.5632 62.031 26.6337 63.4933C26.6754 64.3447 26.3419 64.5234 25.6011 64.4649L25.6043 64.4616Z" fill="#FEFEFE"/>
<path d="M107.536 51.9837C103.569 51.987 100.587 55.0773 100.516 59.2984C100.481 61.4594 100.5 63.6171 100.513 65.778C100.523 67.653 101.18 68.3126 103.072 68.3354C104.563 68.3516 106.058 68.3386 107.549 68.3386C109.085 68.3386 110.618 68.3614 112.154 68.3321C113.869 68.2996 114.584 67.5912 114.6 65.895C114.623 63.6918 114.645 61.4886 114.597 59.2854C114.504 55.0773 111.48 51.974 107.539 51.9805L107.536 51.9837ZM110.771 63.8023C110.781 64.3255 110.55 64.4652 110.082 64.4554C109.232 64.4359 108.382 64.4489 107.533 64.4489V64.4977C106.519 64.4489 105.179 64.7804 104.586 64.2507C103.887 63.6268 104.419 62.2295 104.358 61.1702C104.319 60.4845 104.335 59.7924 104.358 59.1035C104.422 57.3325 105.714 55.9677 107.372 55.8897C109.088 55.8084 110.627 57.118 110.727 58.8987C110.82 60.53 110.743 62.171 110.768 63.8088L110.771 63.8023Z" fill="#FEFEFE"/>
</g>
<defs>
<clipPath id="clip0_1743_580">
<rect width="131" height="103.689" fill="white"/>
</clipPath>
</defs>
</svg>
