<svg width="103" height="93" viewBox="0 0 103 93" fill="none" xmlns="http://www.w3.org/2000/svg">
<g clip-path="url(#clip0_1745_589)">
<path d="M102.984 36.9214C102.972 35.448 102.047 34.5061 100.599 34.4404C99.9638 34.4117 99.3227 34.3994 98.6897 34.4445C98.1433 34.4835 97.9034 34.346 97.9558 33.7325C98.2703 30.0427 97.4195 26.314 98.5122 22.6243C99.0526 20.8 99.5949 19.9361 101.53 19.6693C102.476 19.54 102.968 18.9962 102.986 18.0358C103.006 17.0467 102.992 16.0575 102.992 15.0664C102.992 13.2831 102.571 12.8583 100.794 12.8562C93.6534 12.8562 86.5122 12.8562 79.3711 12.8562C78.4316 12.8562 77.4921 12.8337 76.5566 12.8747C75.6896 12.9137 75.0465 13.5581 75.0727 14.3563C75.1009 15.2182 75.5788 15.7456 76.4114 15.8934C76.738 15.9508 77.0788 15.9242 77.4134 15.9242C84.6554 15.9242 91.8973 15.9221 99.1372 15.9385C99.4255 15.9385 99.9134 15.6471 99.978 16.31C100.03 16.8353 99.6816 16.8825 99.3267 17.0261C97.7622 17.6623 96.605 18.7704 96.0001 20.3732C95.7784 20.958 95.5163 21.116 94.9296 21.114C87.5868 21.0934 80.2461 21.0873 72.9034 21.1222C72.1372 21.1263 71.978 20.9231 71.984 20.17C72.0223 15.9057 72.0384 11.6393 71.988 7.37503C71.9396 3.28721 68.7441 0.0366487 64.734 0.0202317C55.9175 -0.0146543 47.0989 -0.00849796 38.2824 0.0181796C34.7078 0.0284402 31.7763 2.56486 31.1332 6.12939C30.7985 7.98861 30.9961 9.87451 31.0042 11.746C31.0082 12.6038 30.859 12.885 29.9296 12.8809C20.6433 12.8378 11.357 12.8644 2.07069 12.8419C1.1473 12.8398 0.429562 13.0573 -0.00390625 13.9295V18.6391C0.187626 19.4928 0.778352 19.8458 1.57472 19.9607C2.43359 20.0838 3.2723 20.3629 3.65738 21.1961C4.19166 22.3534 4.76424 23.597 4.86101 24.8201C5.08279 27.6294 4.93561 30.4655 4.92956 33.2892C4.92956 33.8412 4.6594 34.0875 4.12916 34.1018C3.49408 34.1182 2.85698 34.0669 2.22593 34.1798C0.822707 34.4343 0.209803 35.0786 0.108997 36.4166C0.125126 36.4187 0.143271 36.4228 0.1594 36.431C0.1594 39.4476 0.155368 42.4622 0.155368 45.4788C0.536416 46.8947 1.25013 47.4796 2.64529 47.5104C3.11505 47.5206 3.59287 47.5719 4.05053 47.5001C5.00214 47.3524 5.19569 47.7628 5.18158 48.6678C5.12916 52.1482 5.16343 55.6286 5.1594 59.109C5.1594 59.7656 5.32472 60.3218 5.93359 60.6522C6.44972 60.9333 6.96585 60.9169 7.45779 60.607C8.12109 60.1904 8.17956 59.5132 8.17956 58.8094C8.17553 55.329 8.18964 51.8486 8.16545 48.3682C8.16142 47.7525 8.24609 47.4919 8.9598 47.4919C37.355 47.5124 65.7521 47.5124 94.1473 47.4919C94.8449 47.4919 94.9538 47.7238 94.9477 48.3538C94.9215 51.8691 94.9316 55.3823 94.9356 58.8976C94.9356 60.172 95.4921 60.8594 96.48 60.8368C97.4276 60.8163 97.9477 60.1494 97.9497 58.9243C97.9558 56.0246 97.9396 53.1229 97.9578 50.2233C97.9638 49.347 97.5929 48.2225 98.109 47.6622C98.5868 47.1451 99.6937 47.5473 100.522 47.5124C102.03 47.4509 102.962 46.5377 102.974 45.0006C102.994 42.3042 102.996 39.6097 102.974 36.9132L102.984 36.9214ZM38.9235 3.08199C43.111 3.08199 47.2985 3.08199 51.486 3.08199C55.6735 3.08199 59.9961 3.07789 64.2501 3.08199C67.2179 3.0861 68.984 4.88581 68.986 7.92089C68.9921 13.2072 68.9901 18.4914 68.986 23.7776C68.984 26.8517 67.2058 28.6473 64.1655 28.6473C55.7239 28.6494 47.2804 28.6494 38.8388 28.6473C35.7481 28.6473 34.0042 26.8579 34.0021 23.6914C34.0001 18.4749 34.0001 13.2564 34.0021 8.03992C34.0021 4.81809 35.7259 3.08405 38.9235 3.08199ZM3.6594 17.0241C3.31061 16.8825 2.94972 16.8271 3.01424 16.3017C3.09287 15.6471 3.57876 15.9447 3.86706 15.9447C12.6171 15.9283 21.3671 15.9385 30.1171 15.9139C30.8086 15.9139 31.0183 16.0678 31.0042 16.7963C30.9558 19.1829 30.9759 21.5736 30.988 23.9623C31.0102 28.4688 34.1695 31.7091 38.5868 31.7173C47.1695 31.7316 55.7521 31.7275 64.3348 31.7173C68.4759 31.7132 71.486 29.0146 71.9618 24.8488C72.0324 24.2352 72.24 24.1675 72.7481 24.1696C79.8892 24.1839 87.0304 24.1921 94.1715 24.1593C94.8933 24.1552 94.9638 24.4302 94.9578 25.0356C94.9316 27.8675 94.9094 30.7015 94.9699 33.5313C94.988 34.3501 94.7179 34.4486 94.0163 34.4486C79.8691 34.4281 65.7199 34.4343 51.5727 34.4343C37.4255 34.4343 23.4114 34.422 9.33077 34.461C8.32472 34.463 8.14126 34.1778 8.16343 33.2276C8.23198 30.5332 8.22593 27.8367 8.16343 25.1423C8.14529 24.3009 8.41747 24.1573 9.16747 24.1614C14.8005 24.1921 20.4316 24.1798 26.0646 24.1757C27.1775 24.1757 27.8126 23.7345 27.9477 22.8973C28.115 21.8671 27.3792 21.114 26.1554 21.1099C23.238 21.0996 20.3227 21.1058 17.4054 21.1058C14.2884 21.1058 11.1695 21.0893 8.05255 21.1201C7.46384 21.1263 7.20779 20.9539 6.984 20.3732C6.37311 18.7787 5.22795 17.6582 3.65738 17.0241H3.6594ZM99.9961 43.5354C100.03 44.3316 99.7784 44.465 99.0546 44.463C83.236 44.4404 67.4175 44.4466 51.5989 44.4466C35.7804 44.4466 20.0969 44.4322 4.34488 44.4773C3.28238 44.4794 3.08682 44.1654 3.13521 43.1907C3.21585 41.5921 3.19569 39.9832 3.13924 38.3826C3.11505 37.652 3.3469 37.4858 4.03642 37.4878C10.8388 37.5145 17.6433 37.5042 24.4457 37.5042C49.2461 37.5042 74.0465 37.5084 98.8449 37.4837C99.73 37.4837 100.049 37.6602 99.9961 38.6268C99.9074 40.2582 99.9215 41.9019 99.9941 43.5354H99.9961Z" fill="white"/>
<path d="M0.100932 36.6494C0.102949 36.5714 0.108997 36.4955 0.113029 36.4216C0.0727066 36.4155 0.0344002 36.4257 -0.00390625 36.4545V45.4633L0.0727066 45.5125L0.1594 45.4838C0.0243195 42.539 0.139239 39.5922 0.100932 36.6494Z" fill="white"/>
<path d="M97.8305 65.9223C97.8305 64.6479 97.264 63.9173 96.3265 63.9235C95.391 63.9297 94.8346 64.6705 94.8164 65.9387C94.8144 66.1439 94.8164 66.3491 94.8164 66.5523C94.8164 73.9563 94.7922 81.3604 94.8446 88.7644C94.8527 89.7925 94.5584 89.9546 93.6289 89.9505C84.0079 89.9136 74.387 89.9156 64.766 89.9485C63.9475 89.9505 63.7196 89.7802 63.7217 88.9101C63.7579 79.7659 63.7459 70.6216 63.7438 61.4774C63.7438 58.7009 62.395 57.3157 59.6874 57.3136C54.2559 57.3095 48.8265 57.3095 43.3951 57.3136C40.5503 57.3136 39.2479 58.6598 39.2479 61.5902C39.2479 70.6668 39.2297 79.7412 39.2721 88.8178C39.2761 89.7884 38.9878 89.9526 38.1168 89.9505C28.4616 89.9197 18.8084 89.9218 9.15311 89.9485C8.39505 89.9485 8.1511 89.7966 8.15311 88.9655C8.1894 81.3911 8.17529 73.8168 8.16924 66.2424C8.16924 65.8361 8.16319 65.4154 8.06037 65.0275C7.86077 64.2703 7.29223 63.8907 6.55432 63.9461C5.8265 64.0015 5.30432 64.4283 5.19747 65.2184C5.14707 65.5878 5.15715 65.9674 5.15715 66.3409C5.15513 74.1533 5.15715 81.9678 5.15715 89.7802C5.15715 92.3187 5.82247 93 8.30432 93C22.6854 93 37.0664 93 51.4475 93C65.8285 93 80.2096 93 94.5906 93C94.9253 93 95.262 93.0082 95.5967 92.9897C96.8688 92.9138 97.7156 92.0929 97.8023 90.796C97.8547 90.0141 97.8305 89.2282 97.8305 88.4422C97.8305 80.9356 97.8346 73.4289 97.8305 65.9243V65.9223ZM60.7277 75.3394C60.7277 79.9116 60.7116 84.4837 60.7459 89.0558C60.7519 89.7864 60.5422 89.9485 59.8527 89.9464C54.2882 89.9177 48.7237 89.9115 43.1592 89.9526C42.3608 89.9587 42.2499 89.692 42.2519 88.9717C42.2761 79.8623 42.2801 70.753 42.2479 61.6436C42.2438 60.6627 42.518 60.359 43.4938 60.3672C48.8225 60.4103 54.1531 60.4082 59.4838 60.3672C60.4374 60.359 60.76 60.6216 60.7499 61.6272C60.7015 66.1993 60.7297 70.7714 60.7297 75.3435L60.7277 75.3394Z" fill="white"/>
<path d="M14.234 83.8818C20.1957 83.888 26.1574 83.89 32.1191 83.8818C34.3892 83.8777 35.6896 82.591 35.6977 80.2865C35.7179 74.8997 35.7199 69.5129 35.6977 64.1281C35.6876 61.8584 34.4034 60.6025 32.1775 60.5984C29.1957 60.5923 26.2159 60.5984 23.234 60.5984C20.2199 60.5984 17.2058 60.5943 14.1896 60.5984C11.8852 60.6025 10.6312 61.8502 10.6271 64.1712C10.6191 69.5231 10.6191 74.8751 10.6271 80.227C10.6292 82.5972 11.8953 83.8798 14.234 83.8818ZM14.484 63.6541C17.365 63.6828 20.2481 63.6664 23.1312 63.6664C26.0142 63.6664 28.8288 63.7033 31.6775 63.6438C32.5405 63.6253 32.7118 63.9065 32.7058 64.7294C32.6675 69.7427 32.6735 74.7581 32.7017 79.7714C32.7058 80.5225 32.5848 80.8406 31.728 80.8344C25.9981 80.7913 20.2663 80.8016 14.5364 80.8262C13.8489 80.8303 13.6251 80.6559 13.6292 79.9253C13.6594 74.7745 13.6594 69.6237 13.6292 64.4728C13.6251 63.7628 13.8691 63.6458 14.488 63.652L14.484 63.6541Z" fill="white"/>
<path d="M70.7366 83.8782C76.7991 83.8946 82.8616 83.8946 88.9241 83.8782C91.0633 83.872 92.3536 82.5402 92.3596 80.3608C92.3717 74.9412 92.3717 69.5195 92.3596 64.0998C92.3556 61.8979 91.0774 60.6051 88.9282 60.5989C85.9141 60.5886 82.8999 60.5969 79.8858 60.5969C76.8717 60.5969 73.7891 60.5907 70.7427 60.5989C68.6358 60.6051 67.3112 61.861 67.2991 63.9931C67.2649 69.4805 67.2649 74.9699 67.2991 80.4593C67.3112 82.5751 68.6459 83.8741 70.7407 83.8782H70.7366ZM71.1096 63.6545C74.0249 63.6812 76.9403 63.6668 79.8576 63.6668C82.7749 63.6668 85.5552 63.6915 88.404 63.6504C89.1157 63.6402 89.3737 63.7674 89.3677 64.578C89.3253 69.6939 89.3314 74.8119 89.3637 79.9278C89.3677 80.6604 89.1439 80.8308 88.4564 80.8287C82.6923 80.802 76.9282 80.8041 71.1641 80.8287C70.525 80.8308 70.2891 80.6748 70.2931 79.9791C70.3193 74.7934 70.3193 69.6098 70.2931 64.4241C70.2891 63.751 70.537 63.6525 71.1157 63.6566L71.1096 63.6545Z" fill="white"/>
<path d="M40.5567 9.20051C40.8208 9.2354 41.099 9.25592 41.3591 9.21077C42.2442 9.05481 42.6293 9.36673 42.7986 10.3189C43.2805 13.0318 43.8571 15.7283 44.4498 18.4186C44.8692 20.3271 46.2926 21.4948 48.1756 21.5112C51.1595 21.5358 54.1434 21.5379 57.1252 21.5112C58.7502 21.4948 59.9821 20.7088 60.591 19.1779C61.6676 16.4691 62.6857 13.7336 63.6535 10.9818C64.2079 9.40162 63.1797 7.7825 61.5688 7.75992C57.2785 7.70041 52.9881 7.72298 48.6978 7.74556C47.7785 7.74966 47.2442 8.35504 47.2321 9.21898C47.218 10.2019 47.851 10.7786 49.0486 10.793C50.9922 10.8155 52.9377 10.7991 54.8813 10.7991C56.718 10.7991 58.5547 10.7991 60.5103 10.7991C59.6091 13.2411 58.7583 15.5621 57.8913 17.8769C57.6897 18.4166 57.228 18.4597 56.728 18.4556C54.0466 18.4433 51.3651 18.4207 48.6837 18.4658C47.8067 18.4802 47.4276 18.1519 47.2623 17.292C46.6978 14.3862 46.097 11.4886 45.47 8.59719C45.1655 7.19149 44.1454 6.27008 42.8389 6.17363C42.1051 6.12028 41.3631 6.12028 40.6272 6.16748C39.7805 6.22288 39.2744 6.71539 39.2079 7.5937C39.1454 8.43097 39.7039 9.09175 40.5547 9.20461L40.5567 9.20051Z" fill="white"/>
<path d="M48.3339 22.8056C47.3319 22.7543 46.5497 23.3925 46.5093 24.2893C46.471 25.1594 47.1565 25.8345 48.1162 25.8715C49.1908 25.9125 49.8783 25.3523 49.9085 24.4063C49.9388 23.491 49.3118 22.8528 48.3319 22.8036L48.3339 22.8056Z" fill="white"/>
<path d="M54.7272 22.8052C53.7373 22.8216 53.0861 23.4269 53.0821 24.3381C53.076 25.2964 53.7434 25.8915 54.8079 25.8751C55.7857 25.8608 56.4752 25.2369 56.4833 24.3586C56.4913 23.4557 55.7353 22.7846 54.7293 22.8031L54.7272 22.8052Z" fill="white"/>
<path d="M46.0329 73.7021C45.7164 73.6159 45.3716 73.6323 45.0309 73.6016C44.7043 73.6344 44.3595 73.6159 44.045 73.7103C43.2123 73.9586 42.8797 74.5763 43.0006 75.4279C43.1317 76.3596 43.7627 76.7146 45.1761 76.6982C46.3998 76.6838 47.0188 76.2837 47.1216 75.391C47.2204 74.5373 46.8757 73.9279 46.0329 73.7001V73.7021Z" fill="white"/>
</g>
<defs>
<clipPath id="clip0_1745_589">
<rect width="103" height="93" fill="white"/>
</clipPath>
</defs>
</svg>
