<svg width="109" height="88" viewBox="0 0 109 88" fill="none" xmlns="http://www.w3.org/2000/svg">
<g clip-path="url(#clip0_1743_574)">
<path d="M108.292 38.9866C107.018 32.9196 103.526 28.5029 97.8753 25.7997C97.2264 25.4891 96.8594 25.139 96.7371 24.3599C96.1547 20.6644 94.8463 17.219 92.9104 14.0026C83.7491 -1.22159 63.2938 -4.65386 49.6649 6.78793C48.8166 7.50124 48.3832 7.48807 47.5402 6.7853C40.8707 1.22101 33.1906 -0.934688 24.5586 0.381368C13.2938 2.10014 3.79481 10.7703 1.01851 21.7225C0.635571 23.2281 0.624934 24.8074 0 26.2524V27.5132C0.287204 27.6527 0.244655 27.7922 0 27.9343V30.4559C0.241996 30.5954 0.297841 30.7349 0 30.877V31.9272C0.311137 33.2038 0.321774 34.5357 0.816403 35.7833C1.25519 36.8835 1.58494 38.0285 2.07425 39.1103C2.30295 39.6157 2.19923 39.8947 1.64078 40.0157C0.67546 40.2263 0.140942 40.8396 0 41.8003V42.8505C0.598341 43.9929 1.52909 44.5035 2.83747 44.3692C3.2922 44.3219 3.7629 44.4061 4.21498 44.3508C4.86916 44.2719 5.22285 44.5482 5.5526 45.0931C7.83162 48.8517 10.4803 52.3472 13.339 55.6873C23.3699 67.4134 34.8873 77.5865 46.995 87.1358C48.2023 88.0886 49.0267 88.0623 50.2367 87.1227C56.5791 82.1901 62.6689 76.9627 68.5725 71.5221C68.8278 71.2852 69.0751 71.022 69.2586 70.7299C69.7639 69.9271 69.6203 68.8926 68.9555 68.2294C68.2827 67.5608 67.2455 67.4134 66.4291 67.9109C66.0728 68.1293 65.7484 68.411 65.4399 68.6952C60.2596 73.4646 54.8984 78.0261 49.4017 82.4349C48.822 82.9008 48.4523 83.0113 47.8354 82.4717C46.2983 81.1293 44.6681 79.8922 43.1045 78.5815C32.4487 69.6612 22.2583 60.2751 13.6555 49.3281C12.4322 47.7699 11.3259 46.1222 10.0521 44.3587H11.3073C17.0009 44.3587 22.6971 44.3587 28.3906 44.3587C30.2734 44.3587 30.7893 43.9771 31.3185 42.1609C32.353 38.6049 33.3661 35.0463 34.4166 31.4956C34.5256 31.1271 34.4644 30.6454 34.9325 30.4006C37.5864 38.8181 40.2324 47.2119 42.8784 55.6057C43.5911 57.872 44.2932 60.1409 45.0192 62.4019C45.333 63.381 45.9606 64.039 47.0721 64.0732C48.0986 64.1048 48.8273 63.531 49.2262 62.394C49.2953 62.1966 49.3591 61.9965 49.4203 61.7965C51.1222 56.4006 52.8428 51.0101 54.5022 45.6011C54.7495 44.7904 55.0739 44.5272 55.9409 44.5456C58.6986 44.6114 61.4589 44.6061 64.2166 44.5509C66.009 44.514 66.9663 42.8163 66.0754 41.3897C65.5409 40.5343 64.6899 40.3737 63.7778 40.3711C60.4537 40.3658 57.1269 40.3632 53.8028 40.3711C52.2072 40.3763 51.5876 40.8317 51.1063 42.3478C49.9096 46.1091 48.7315 49.8756 47.5322 53.6343C47.4258 53.9659 47.4258 54.3686 47.0429 54.6529C46.9764 54.4476 46.9312 54.3186 46.8913 54.1897C43.5778 43.6981 40.267 33.2091 36.9482 22.7201C36.8339 22.3569 36.7142 21.9779 36.5174 21.6567C35.6957 20.3065 33.7118 20.3275 32.9327 21.7041C32.712 22.0937 32.5949 22.5464 32.47 22.9781C30.8903 28.4107 29.3214 33.8487 27.7391 39.2814C27.6114 39.7183 27.6008 40.1868 26.8482 40.1816C20.6228 40.1447 14.3974 40.1605 8.17201 40.1579C7.86619 40.1579 7.57898 40.2052 7.3822 39.8183C5.6244 36.3571 4.15381 32.7985 4.27614 28.8398C4.50484 21.4462 7.39815 15.237 12.9428 10.2518C20.7505 3.22932 33.0125 2.19753 41.8759 7.81972C43.4582 8.82256 44.9234 9.96753 46.2611 11.2757C48.2369 13.2103 48.9602 13.2077 50.9175 11.3152C51.1462 11.0941 51.3696 10.8703 51.6009 10.6545C54.3081 8.16716 57.4035 6.2931 60.9457 5.27184C71.2877 2.29491 81.385 5.63507 87.8896 14.1315C90.1553 17.0927 91.6366 20.4144 92.3945 24.1599C91.5036 24.0993 90.6978 23.9941 89.8921 23.9993C78.2683 24.052 69.4714 34.6567 71.6679 45.9485C73.5667 55.7137 82.7173 62.1202 92.7827 60.7331C103.17 59.3012 110.43 49.165 108.294 38.9866H108.292ZM89.924 56.7507C81.9567 56.7033 75.5239 50.2836 75.5638 42.4215C75.6037 34.5778 82.1934 28.1107 90.0649 28.1923C98.0322 28.2765 104.465 34.7147 104.425 42.5584C104.385 50.4257 97.8753 56.7955 89.924 56.7507Z" fill="white"/>
<path d="M0 27.5137V27.9348C0.132965 27.7953 0.132965 27.6558 0 27.5137Z" fill="white"/>
<path d="M0 30.457V30.8782C0.132965 30.7387 0.132965 30.5992 0 30.457Z" fill="white"/>
<path d="M73.4378 61.8184C72.3023 61.8184 71.2838 62.8475 71.2891 63.9846C71.2971 65.119 72.2491 66.0613 73.3793 66.0534C74.5201 66.0455 75.5599 65.019 75.5493 63.9056C75.5386 62.8133 74.5308 61.8184 73.4378 61.8184Z" fill="white"/>
<path d="M97.4649 40.3799C95.9118 40.3351 94.3561 40.3456 92.8031 40.3799C92.2393 40.393 92.0904 40.2167 92.1037 39.6744C92.1383 38.1715 92.1303 36.6686 92.1117 35.1656C92.0957 33.6364 91.2581 32.7125 89.947 32.7388C88.6865 32.7625 87.8941 33.6706 87.8755 35.1525C87.8568 36.5501 87.8276 37.9504 87.8887 39.3481C87.9233 40.1324 87.7531 40.4351 86.8782 40.3904C85.3279 40.314 83.7668 40.3114 82.2191 40.4035C80.8842 40.4851 80.089 41.4116 80.1476 42.5856C80.2034 43.7226 81.049 44.507 82.3282 44.557C83.1392 44.5912 83.953 44.5386 84.7641 44.5728C85.7746 44.6149 87.1255 44.1306 87.6999 44.7676C88.1866 45.3124 87.801 46.6232 87.801 47.5971C87.8249 47.5971 87.8489 47.5971 87.8728 47.5971C87.8728 48.3315 87.8622 49.0658 87.8728 49.8002C87.8994 51.2847 88.7929 52.2954 90.0401 52.2586C91.2607 52.2244 92.0957 51.2557 92.1117 49.8133C92.1277 48.3104 92.1436 46.8048 92.1011 45.3045C92.0824 44.6939 92.2846 44.5386 92.8776 44.5544C94.4652 44.5912 96.0581 44.5912 97.6457 44.5544C98.8317 44.5281 99.5843 43.9095 99.7758 42.904C100.05 41.4669 99.1269 40.4193 97.4622 40.372L97.4649 40.3799Z" fill="white"/>
</g>
<defs>
<clipPath id="clip0_1743_574">
<rect width="108.667" height="87.8389" fill="white"/>
</clipPath>
</defs>
</svg>
