<svg width="55" height="101" viewBox="0 0 55 101" fill="none" xmlns="http://www.w3.org/2000/svg">
<g clip-path="url(#clip0_1745_600)">
<path d="M43.6256 69.5474C39.5138 55.5856 35.3994 41.6238 31.2826 27.6645C31.1238 27.1257 30.9327 26.7451 31.7219 26.3793C34.7071 24.9903 36.2853 21.624 35.598 18.4085C34.9056 15.1708 31.9477 12.7784 28.5555 12.7141C25.2451 12.6523 22.2649 14.983 21.4211 18.2924C20.6395 21.3645 22.1557 24.8272 25.0714 26.278C25.93 26.7056 25.8804 27.1109 25.6645 27.8351C18.7982 51.0998 11.9468 74.3694 5.09286 97.6391C4.53949 99.52 4.63379 99.824 6.11028 100.998H7.29892C8.20219 100.536 8.7506 99.7894 8.87715 98.8032C9.19727 96.2971 10.6564 94.7771 12.7756 93.4647C17.8627 90.3134 22.8083 86.9373 27.7936 83.6279C28.3073 83.2868 28.6448 83.267 29.1709 83.6155C34.923 87.4341 40.695 91.2304 46.4719 95.0143C46.9136 95.3035 47.1915 95.6273 47.3206 96.1438C47.5514 97.0657 47.8715 97.9629 48.1047 98.8823C48.343 99.8141 48.7822 100.57 49.6854 100.998H50.8741C52.3605 99.824 52.4523 99.5323 51.8741 97.565C49.1271 88.225 46.3776 78.885 43.6256 69.5474ZM25.203 19.9582C25.1881 18.1787 26.6522 16.7081 28.4537 16.6883C30.2603 16.6686 31.7367 18.0823 31.7814 19.8791C31.8261 21.671 30.2876 23.233 28.4835 23.2231C26.7117 23.2157 25.2154 21.7278 25.203 19.9582ZM24.4138 46.0677C25.7464 41.5843 27.0666 37.096 28.3917 32.6101C28.4612 32.6101 28.5306 32.6076 28.6001 32.6051C29.754 36.5226 30.9079 40.44 32.0643 44.3574C32.2405 44.9555 32.4167 45.5511 32.6053 46.1443C32.7368 46.5571 32.6425 46.7276 32.166 46.7227C29.7267 46.7054 27.2849 46.7004 24.8456 46.7227C24.2674 46.7276 24.2898 46.4928 24.4163 46.0677H24.4138ZM20.9224 58.0078C21.5725 55.7784 22.245 53.554 22.8778 51.3197C23.0019 50.8847 23.1284 50.6598 23.6471 50.6648C26.8755 50.6895 30.1039 50.6821 33.3324 50.6722C33.7443 50.6722 33.9602 50.7488 34.0892 51.2085C34.8734 53.9791 35.7022 56.7374 36.5285 59.4956C36.6526 59.9109 36.7047 60.1531 36.1141 60.1531C30.8806 60.1358 25.6447 60.1432 20.374 60.1432C20.4211 59.3548 20.7214 58.6949 20.9224 58.0102V58.0078ZM11.8971 89.3545C11.8525 89.2556 11.8078 89.1567 11.7631 89.0603C13.1429 84.3842 14.5226 79.708 15.9321 74.928C18.9173 76.8904 21.848 78.8182 24.8903 80.8177C20.508 83.6971 16.2001 86.527 11.8947 89.3545H11.8971ZM29.0443 78.099C28.6051 78.3931 28.3048 78.3338 27.9028 78.0669C24.5057 75.8153 21.1035 73.5711 17.6865 71.3517C17.2076 71.0403 17.143 70.7437 17.3043 70.2222C17.8527 68.4723 18.3714 66.7126 18.8453 64.9429C19.0166 64.3078 19.2622 64.0631 19.9744 64.0779C22.8406 64.1298 25.7092 64.1001 28.5778 64.1001C31.4464 64.1001 34.181 64.1224 36.9826 64.0828C37.6452 64.073 37.9653 64.2212 38.144 64.9009C38.6155 66.7052 39.1564 68.4921 39.7098 70.2766C39.8637 70.7684 39.7768 71.0403 39.3401 71.3245C35.8982 73.5662 32.4638 75.8227 29.0443 78.099ZM45.0748 89.1048C44.8912 89.2655 44.71 89.1048 44.5487 88.9986C40.4344 86.2897 36.3201 83.5834 32.1139 80.8153C35.1389 78.8257 38.0646 76.9003 41.0622 74.928C42.4246 79.53 43.7621 84.0382 45.0922 88.5487C45.1468 88.7292 45.246 88.9541 45.0773 89.1048H45.0748Z" fill="#FEFEFE"/>
<path d="M7.9312 39.1815C8.52676 39.7994 9.26873 40.0392 10.0951 39.7599C10.8395 39.5078 11.2763 38.9393 11.4053 38.1682C11.5368 37.3724 11.1224 36.7718 10.6137 36.2379C9.54418 35.1158 8.54661 33.9319 7.72524 32.6196C1.89123 23.2969 2.94586 12.029 10.3904 3.89023C10.6782 3.57634 10.9735 3.25257 11.177 2.88431C11.8867 1.59663 10.914 -0.00246869 9.4474 2.86147e-06C8.82206 0.0346046 8.30343 0.304004 7.88405 0.748883C7.29842 1.37171 6.6979 1.98713 6.16437 2.65445C-1.40421 12.0562 -2.05932 24.7847 4.50921 34.9799C5.49189 36.5024 6.6706 37.879 7.92872 39.1815H7.9312Z" fill="#FEFEFE"/>
<path d="M47.5125 7.55507C47.7111 8.00242 47.984 8.41764 48.2123 8.85263C51.2646 14.6929 51.8899 20.7532 49.9072 27.0606C48.7806 30.6394 46.8053 33.6967 44.2444 36.4179C43.2965 37.4263 43.3535 38.62 44.2444 39.3862C45.0956 40.1202 46.2519 40.0214 47.1527 39.0847C52.3142 33.7165 54.8776 27.2929 55.0017 20.6469C54.9843 17.1669 54.5749 14.5125 53.7907 11.9223C53.1331 9.74981 52.2075 7.68359 51.0139 5.74836C50.3737 4.71278 49.2546 4.39889 48.2892 4.91792C47.3587 5.41965 47.0336 6.47994 47.515 7.55507H47.5125Z" fill="#FEFEFE"/>
<path d="M10.6972 24.2434C11.4739 27.1919 12.9157 29.7747 15.0448 31.967C15.953 32.9012 17.092 32.9877 17.9556 32.2166C18.7422 31.5147 18.8068 30.4124 18.102 29.4633C17.906 29.2013 17.6678 28.969 17.4519 28.7193C15.5163 26.49 14.3996 23.9146 14.1937 20.9636C13.9182 17.0141 15.1738 13.6107 17.8588 10.7017C18.844 9.63401 18.8341 8.44519 17.9308 7.65924C17.0151 6.85846 15.9034 7.01169 14.8984 8.08187C11.7593 11.4209 10.2233 15.3977 10.1562 19.9898C10.2009 21.4011 10.3275 22.8395 10.6972 24.2458V24.2434Z" fill="#FEFEFE"/>
<path d="M37.2864 29.0017C36.6263 29.7086 36.1325 30.4698 36.537 31.4782C37.1201 32.9315 38.8274 33.1416 40.0086 31.8984C43.1676 28.5815 44.7384 24.6172 44.8327 20.3068C44.8376 17.0493 44.1304 14.2119 42.6713 11.5698C41.9045 10.1808 40.9714 8.91045 39.8299 7.80072C38.9862 6.98017 37.8869 6.94309 37.073 7.64996C36.2566 8.35929 36.1722 9.44678 36.8745 10.3909C37.0904 10.6801 37.3559 10.9322 37.5867 11.209C40.5322 14.7285 41.4777 18.725 40.4404 23.1812C39.9242 25.4031 38.8373 27.3309 37.2814 28.9968L37.2864 29.0017Z" fill="#FEFEFE"/>
<path d="M45.5421 3.93224C46.6067 3.93224 47.4653 3.05237 47.4628 1.96736C47.4579 0.887287 46.5918 0 45.5397 0C44.4652 0 43.6289 0.862572 43.6289 1.9723C43.6289 3.07955 44.4652 3.93471 45.5421 3.93224Z" fill="#FEFEFE"/>
</g>
<defs>
<clipPath id="clip0_1745_600">
<rect width="55" height="101" fill="white"/>
</clipPath>
</defs>
</svg>
