<svg width="103" height="100" viewBox="0 0 103 100" fill="none" xmlns="http://www.w3.org/2000/svg">
<g clip-path="url(#clip0_1745_663)">
<path d="M55.0227 78.577C53.9429 78.5949 53.2962 79.3854 53.2755 80.71C53.2725 80.9696 53.2755 81.2321 53.2755 81.4916C53.2755 86.1784 53.2666 90.8652 53.2873 95.5519C53.2873 96.1724 53.2339 96.4767 52.4775 96.4499C50.6293 96.3842 48.7782 96.3992 46.9301 96.4439C46.2686 96.4618 46.1499 96.2261 46.1588 95.6235C46.1885 93.0579 46.1796 90.4893 46.1707 87.9236C46.1647 86.3305 45.5447 85.716 43.9399 85.713C33.5808 85.71 23.2248 85.71 12.8657 85.713C11.2757 85.713 10.6616 86.3395 10.6587 87.9445C10.6527 90.5101 10.6349 93.0788 10.6705 95.6444C10.6794 96.2768 10.5014 96.4558 9.87549 96.4409C8.13712 96.3992 6.39578 96.3663 4.66038 96.4499C3.72593 96.4946 3.52717 96.2261 3.53014 95.3043C3.55684 65.0984 3.55684 34.8956 3.53014 4.68974C3.53014 3.77088 3.7289 3.54117 4.65741 3.54415C20.4896 3.57697 36.3219 3.57697 52.1541 3.54415C53.0619 3.54415 53.3022 3.73508 53.2962 4.67482C53.2547 14.1229 53.2725 23.571 53.2725 33.0191C53.2725 33.392 53.2339 33.7709 53.2962 34.1319C53.4623 35.0925 54.0527 35.6742 55.0316 35.6862C56.0135 35.6951 56.6039 35.1193 56.7937 34.1647C56.859 33.8425 56.8204 33.4964 56.8204 33.1623C56.8204 22.9714 56.8204 12.7774 56.8204 2.58652C56.8264 0.48926 56.328 0 54.1921 0C36.9923 0 19.7925 0 2.58976 0C0.48354 0 0 0.48926 0 2.63126C0 18.4039 0 34.1766 0 49.9463C0 65.716 0 81.7124 0 97.5955C0 99.4242 0.566602 99.997 2.37617 99.997C19.7243 99.997 37.0754 99.997 54.4235 99.997C56.2479 99.997 56.8234 99.4272 56.8234 97.6193C56.8264 92.6342 56.8234 87.6492 56.8234 82.6671C56.8234 81.9988 56.8323 81.3276 56.8234 80.6593C56.8026 79.3556 56.1085 78.562 55.0227 78.5799V78.577ZM25.8739 96.435C24.0257 96.4141 22.1746 96.426 20.3265 96.426C18.514 96.426 16.7014 96.4081 14.8889 96.4379C14.3786 96.4469 14.1829 96.3335 14.1918 95.7727C14.2274 93.8395 14.2214 91.9063 14.1918 89.9702C14.1858 89.457 14.2986 89.2661 14.8533 89.2721C18.5525 89.2959 22.2488 89.2929 25.948 89.2721C26.4583 89.2721 26.654 89.3765 26.6451 89.9373C26.6095 91.8705 26.6006 93.8067 26.6511 95.7399C26.6689 96.4051 26.3782 96.4409 25.8709 96.435H25.8739ZM41.8336 96.4409C38.2086 96.4111 34.5835 96.4111 30.9614 96.4409C30.3266 96.4469 30.1604 96.2589 30.1753 95.6384C30.2138 93.7798 30.2168 91.9183 30.1753 90.0597C30.1604 89.4183 30.3562 89.2542 30.9762 89.2691C32.7502 89.3109 34.5271 89.284 36.3011 89.284C38.1492 89.284 40.0003 89.3109 41.8485 89.2691C42.4863 89.2542 42.6494 89.4511 42.6346 90.0716C42.596 91.9302 42.5931 93.7918 42.6346 95.6503C42.6494 96.2918 42.4507 96.4439 41.8336 96.4409Z" fill="#FEFEFE"/>
<path d="M93.6691 39.2869C83.316 39.2779 72.9629 39.2809 62.6098 39.2869C57.0594 39.2899 53.289 43.0816 53.2801 48.6604C53.2712 54.3108 53.2712 59.9641 53.2801 65.6145C53.289 71.1932 57.0594 74.985 62.6068 74.9939C67.7833 75.0029 72.9599 74.9939 78.1365 74.9939C83.313 74.9939 88.4896 74.9999 93.6661 74.9939C99.2135 74.985 102.99 71.1932 102.999 65.6174C103.008 59.9671 103.008 54.3137 102.999 48.6634C102.99 43.0846 99.2194 39.2899 93.672 39.2839L93.6691 39.2869ZM93.6186 71.4259C83.2982 71.4289 72.9777 71.4289 62.6543 71.4259C59.0292 71.4259 56.831 69.2362 56.828 65.6234C56.8221 59.9701 56.8221 54.3137 56.828 48.6604C56.831 45.0476 59.0292 42.8609 62.6543 42.8579C67.8338 42.8549 73.0133 42.8579 78.1928 42.8579C83.3723 42.8579 88.4777 42.8579 93.6186 42.8579C97.2437 42.8579 99.4419 45.0447 99.4449 48.6604C99.4508 54.3137 99.4508 59.9701 99.4449 65.6234C99.4419 69.2392 97.2437 71.4259 93.6186 71.4289V71.4259Z" fill="#FEFEFE"/>
<path d="M24.8583 12.8667C24.8553 11.3541 24.2086 10.7187 22.6868 10.7157C19.3999 10.7067 16.1101 10.7067 12.8232 10.7157C11.3013 10.7187 10.6665 11.3541 10.6576 12.8726C10.6458 15.1399 10.6576 17.4042 10.6576 19.6715C10.6576 21.9388 10.6487 24.2032 10.6606 26.4705C10.6695 27.9114 11.3251 28.5618 12.7727 28.5677C16.0982 28.5797 19.4236 28.5797 22.7491 28.5677C24.1938 28.5618 24.8553 27.9084 24.8583 26.4645C24.8701 21.9329 24.8672 17.4013 24.8583 12.8667ZM20.6429 25.0116C18.7206 24.9818 16.7953 24.9818 14.873 25.0116C14.339 25.0206 14.1818 24.8625 14.1937 24.3285C14.2263 22.7682 14.2056 21.205 14.2056 19.6417C14.2056 18.0785 14.2263 16.5182 14.1937 14.955C14.1818 14.418 14.339 14.2628 14.873 14.2718C16.7953 14.3016 18.7206 14.3016 20.6429 14.2718C21.1768 14.2628 21.3252 14.4209 21.3222 14.955C21.2985 18.0785 21.2985 21.202 21.3222 24.3255C21.3252 24.8625 21.1768 25.0176 20.6429 25.0087V25.0116Z" fill="#FEFEFE"/>
<path d="M46.1665 12.8162C46.1576 11.3723 45.5049 10.7219 44.0543 10.716C40.7289 10.704 37.4034 10.704 34.0809 10.716C32.6273 10.7219 31.9717 11.3663 31.9688 12.8103C31.9569 17.3419 31.9599 21.8735 31.9688 26.4081C31.9688 27.9236 32.6125 28.562 34.1343 28.565C37.4212 28.574 40.7111 28.574 43.9979 28.565C45.5198 28.562 46.1605 27.9236 46.1694 26.4111C46.1813 24.1438 46.1724 21.8795 46.1694 19.6122C46.1694 17.3449 46.1813 15.0805 46.1665 12.8132V12.8162ZM42.6185 19.642C42.6185 21.2052 42.5978 22.7655 42.6304 24.3288C42.6423 24.8657 42.485 25.0209 41.9511 25.0119C40.0288 24.9821 38.1035 24.9821 36.1812 25.0119C35.6472 25.0209 35.4989 24.8657 35.5019 24.3288C35.5256 21.2052 35.5256 18.0817 35.5019 14.9582C35.4989 14.4242 35.6472 14.2661 36.1812 14.2751C38.1035 14.3049 40.0288 14.3049 41.9511 14.2751C42.485 14.2661 42.6423 14.4212 42.6304 14.9582C42.5978 16.5185 42.6185 18.0817 42.6185 19.645V19.642Z" fill="#FEFEFE"/>
<path d="M24.8577 37.9409C24.8517 36.3449 24.2317 35.7184 22.6476 35.7154C19.3963 35.7094 16.1451 35.7094 12.8938 35.7154C11.283 35.7184 10.657 36.327 10.6541 37.9081C10.6481 42.404 10.6452 46.8998 10.6541 51.3926C10.6541 52.9171 11.2919 53.5615 12.8048 53.5645C16.0917 53.5734 19.3815 53.5734 22.6684 53.5645C24.2406 53.5615 24.8488 52.929 24.8547 51.3121C24.8606 49.0835 24.8547 46.855 24.8547 44.6265C24.8547 42.398 24.8606 40.1695 24.8547 37.9409H24.8577ZM21.3068 44.7518C21.3068 46.2763 21.286 47.8007 21.3186 49.3252C21.3305 49.8592 21.1762 50.0173 20.6393 50.0084C18.717 49.9785 16.7918 49.9785 14.8695 50.0084C14.3355 50.0173 14.1842 49.8622 14.1901 49.3252C14.2139 46.2017 14.2139 43.0782 14.1901 39.9547C14.1872 39.4207 14.3325 39.2625 14.8665 39.2715C16.7888 39.3013 18.714 39.3013 20.6363 39.2715C21.1703 39.2625 21.3275 39.4147 21.3157 39.9547C21.283 41.5537 21.3038 43.1528 21.3038 44.7518H21.3068Z" fill="#FEFEFE"/>
<path d="M46.1628 37.7805C46.1599 36.3963 45.4954 35.7251 44.1278 35.7191C40.7667 35.7042 37.4027 35.7072 34.0417 35.7191C32.6089 35.7251 31.9711 36.3844 31.9651 37.8492C31.9533 40.1165 31.9622 42.3808 31.9622 44.6481C31.9622 46.9512 31.9473 49.2543 31.9681 51.5574C31.98 52.873 32.6474 53.5592 33.9438 53.5651C37.3434 53.583 40.743 53.583 44.1397 53.5651C45.4983 53.5592 46.1599 52.879 46.1628 51.4888C46.1747 46.9184 46.1747 42.3509 46.1628 37.7805ZM41.9326 50.0091C40.0103 49.9822 38.085 49.9762 36.1627 50.0091C35.605 50.018 35.4923 49.8211 35.5012 49.308C35.5309 47.7477 35.5131 46.1845 35.5131 44.6212C35.5131 43.0968 35.5279 41.5723 35.5042 40.0478C35.4982 39.5347 35.5368 39.2453 36.1954 39.2632C38.1177 39.314 40.0429 39.302 41.9652 39.2692C42.5229 39.2603 42.6297 39.4601 42.6267 39.9703C42.606 43.0938 42.603 46.2173 42.6267 49.3408C42.6327 49.9017 42.4399 50.015 41.9296 50.0061L41.9326 50.0091Z" fill="#FEFEFE"/>
<path d="M24.8579 62.8142C24.849 61.3732 24.1934 60.7229 22.7427 60.7199C19.4173 60.708 16.0918 60.708 12.7694 60.7199C11.3187 60.7259 10.6631 61.3732 10.6602 62.8201C10.6483 67.3518 10.6513 71.8834 10.6602 76.418C10.6602 77.9335 11.3069 78.5689 12.8287 78.5719C16.1156 78.5809 19.4054 78.5809 22.6923 78.5719C24.2112 78.5689 24.8519 77.9275 24.8608 76.415C24.8727 74.1477 24.8608 71.8834 24.8608 69.6161C24.8608 67.3488 24.8727 65.0844 24.8579 62.8171V62.8142ZM20.5653 75.0188C18.6816 74.9681 16.7919 74.9711 14.9082 75.0188C14.2793 75.0337 14.1962 74.7921 14.1992 74.2521C14.22 71.1644 14.2289 68.0797 14.1933 64.992C14.1873 64.3625 14.4158 64.27 14.9557 64.279C16.8424 64.3058 18.7291 64.3177 20.6128 64.273C21.2417 64.2581 21.3337 64.4997 21.3218 65.0397C21.2921 66.6 21.3129 68.1632 21.3129 69.7265C21.3129 71.2897 21.2892 72.7008 21.3248 74.1895C21.3396 74.7742 21.2476 75.0397 20.5653 75.0218V75.0188Z" fill="#FEFEFE"/>
<path d="M46.1694 62.8142C46.1605 61.3732 45.5049 60.7229 44.0543 60.7199C40.7289 60.708 37.4034 60.708 34.0779 60.7199C32.6273 60.7259 31.9717 61.3732 31.9688 62.8201C31.9569 67.3518 31.9599 71.8834 31.9688 76.418C31.9688 77.9335 32.6155 78.5689 34.1373 78.5719C37.4242 78.5809 40.714 78.5809 44.0009 78.5719C45.5198 78.5689 46.1605 77.9275 46.1694 76.415C46.1813 74.1477 46.1724 71.8834 46.1694 69.6161C46.1694 67.3488 46.1813 65.0844 46.1665 62.8171L46.1694 62.8142ZM41.954 75.0128C40.0317 74.983 38.1065 74.983 36.1842 75.0128C35.6502 75.0218 35.493 74.8667 35.5048 74.3297C35.5375 72.7306 35.5167 71.1316 35.5167 69.5325C35.5167 67.9335 35.5404 66.4836 35.5048 64.9591C35.493 64.4222 35.6502 64.267 36.1842 64.276C38.1065 64.3058 40.0317 64.3058 41.954 64.276C42.488 64.267 42.6363 64.4251 42.6333 64.9591C42.6096 68.0827 42.6096 71.2062 42.6333 74.3297C42.6363 74.8667 42.488 75.0218 41.954 75.0128Z" fill="#FEFEFE"/>
<path d="M64.5721 23.2105C72.6647 15.8238 83.534 15.8268 91.7007 23.2194C92.0271 23.5148 92.3356 23.84 92.8073 23.9116C93.6675 24.0458 94.3558 23.7892 94.7622 22.9987C95.2279 22.0977 94.8986 21.3608 94.2223 20.7075C89.7191 16.3728 84.3319 14.2367 78.0252 14.1055C71.9616 14.2517 66.5863 16.34 62.1128 20.6478C61.125 21.5995 61.0152 22.5512 61.7509 23.3716C62.4866 24.195 63.5546 24.1323 64.5691 23.2075L64.5721 23.2105Z" fill="#FEFEFE"/>
<path d="M88.5665 28.9836C89.2192 28.8255 89.6968 28.4108 89.8688 27.7426C90.0617 26.9997 89.8421 26.3673 89.2815 25.8273C86.1726 22.838 82.4526 21.3673 78.1719 21.2539C73.9802 21.3374 70.3047 22.7426 67.2077 25.6185C66.8517 25.9466 66.4869 26.2808 66.386 26.776C66.2228 27.5725 66.4186 28.2706 67.1247 28.7241C67.9167 29.2342 68.6939 29.1119 69.3584 28.4854C70.64 27.2772 72.0491 26.2658 73.7103 25.6841C78.4864 24.0045 82.7937 24.8488 86.5938 28.2199C87.1693 28.73 87.7508 29.1805 88.5695 28.9836H88.5665Z" fill="#FEFEFE"/>
<path d="M72.1568 30.7636C71.2076 31.6466 71.077 32.6878 71.8098 33.4963C72.5217 34.2809 73.5155 34.2898 74.4618 33.4634C75.2034 32.8191 76.0103 32.3358 76.9744 32.1299C78.8522 31.7242 80.469 32.2403 81.8721 33.5261C82.4714 34.075 83.1566 34.254 83.9131 33.899C84.5776 33.5887 84.8772 33.013 84.9454 32.2642C84.895 31.6705 84.5984 31.1902 84.1445 30.7636C80.8279 27.652 75.5001 27.643 72.1539 30.7576L72.1568 30.7636Z" fill="#FEFEFE"/>
<path d="M70.2274 48.1202C69.4413 47.1477 68.1984 47.2819 67.3588 48.3201C65.8192 50.2234 64.4428 52.2461 63.357 54.4508C62.5679 56.0528 61.9094 57.7026 61.8945 60.0504C61.9687 62.3804 63.2028 64.5552 65.7302 65.832C68.2488 67.1059 70.7792 66.9239 73.0427 65.2205C75.3298 63.4991 76.3147 61.1304 75.7451 58.2634C74.962 54.3165 72.6778 51.1542 70.2274 48.1202ZM70.8296 62.5474C69.6371 63.3857 68.1984 63.3947 67.0058 62.5713C65.7629 61.7121 65.2022 60.2175 65.5433 58.6632C65.9201 56.9358 67.6584 53.6691 68.9637 52.2521C70.3105 54.2539 71.6425 56.2497 72.2298 58.6304C72.6155 60.1876 72.0726 61.6733 70.8296 62.5474Z" fill="#FEFEFE"/>
<path d="M90.0755 55.3581C89.0639 55.3432 88.0553 55.3581 86.9072 55.3581C87.9574 53.237 88.9482 51.2979 89.8826 49.3319C90.3602 48.3265 89.9894 47.3182 89.0787 46.8796C88.1977 46.456 87.2425 46.7513 86.7441 47.7269C85.2964 50.561 83.8636 53.4041 82.4931 56.274C81.8256 57.6702 82.6622 58.8844 84.2344 58.9232C85.157 58.947 86.0796 58.9262 87.2306 58.9262C85.9876 60.9279 84.8307 62.7716 83.6975 64.6242C83.0122 65.743 83.1813 66.7722 84.1009 67.348C85.0205 67.9208 86.0084 67.6225 86.7085 66.4978C88.3935 63.7949 90.0725 61.0861 91.7248 58.3653C92.7097 56.7483 91.9473 55.382 90.0755 55.3552V55.3581Z" fill="#FEFEFE"/>
</g>
<defs>
<clipPath id="clip0_1745_663">
<rect width="103" height="100" fill="white"/>
</clipPath>
</defs>
</svg>
