<svg width="143" height="145" viewBox="0 0 143 145" fill="none" xmlns="http://www.w3.org/2000/svg">
<path d="M71.5 141C108.838 141 139 110.272 139 72.5C139 34.7276 108.838 4 71.5 4C34.1621 4 4 34.7276 4 72.5C4 110.272 34.1621 141 71.5 141Z" fill="#1B8CF4" stroke="#1B8CF4" stroke-width="8"/>
<path fill-rule="evenodd" clip-rule="evenodd" d="M101.411 45.264C101.951 44.6356 101.879 43.6886 101.25 43.1488C100.622 42.609 99.6749 42.6808 99.1351 43.3092L50.178 100.303L37.6319 83.793C37.1306 83.1334 36.1896 83.005 35.53 83.5062C34.8704 84.0075 34.7421 84.9485 35.2433 85.6081L48.7094 103.329C48.9019 103.582 49.1593 103.757 49.4406 103.848C50.0563 104.219 50.868 104.104 51.3521 103.54L101.411 45.264Z" fill="white"/>
<path d="M101.25 43.1488L103.531 40.4938L103.531 40.4938L101.25 43.1488ZM101.411 45.264L104.066 47.5447V47.5446L101.411 45.264ZM99.1351 43.3092L101.79 45.5898V45.5898L99.1351 43.3092ZM50.178 100.303L47.3913 102.42C48.0309 103.262 49.0166 103.77 50.0732 103.801C51.1298 103.833 52.1441 103.385 52.8329 102.583L50.178 100.303ZM37.6319 83.793L40.4186 81.6753L40.4186 81.6753L37.6319 83.793ZM35.53 83.5062L37.6477 86.2929H37.6477L35.53 83.5062ZM35.2433 85.6081L32.4566 87.7257L32.4566 87.7257L35.2433 85.6081ZM48.7094 103.329L45.9227 105.446L45.9227 105.446L48.7094 103.329ZM49.4406 103.848L51.2491 100.851C51.019 100.713 50.7738 100.601 50.5181 100.518L49.4406 103.848ZM51.3521 103.54L48.6971 101.259H48.6971L51.3521 103.54ZM98.9697 45.8038C98.1318 45.084 98.0361 43.8213 98.7558 42.9834L104.066 47.5446C105.865 45.4499 105.626 42.2932 103.531 40.4938L98.9697 45.8038ZM101.79 45.5898C101.07 46.4277 99.8076 46.5235 98.9697 45.8038L103.531 40.4938C101.436 38.6945 98.2795 38.9339 96.4801 41.0286L101.79 45.5898ZM52.8329 102.583L101.79 45.5898L96.4801 41.0286L47.523 98.0222L52.8329 102.583ZM34.8452 85.9106L47.3913 102.42L52.9646 98.1852L40.4186 81.6753L34.8452 85.9106ZM37.6477 86.2929C36.7682 86.9612 35.5135 86.7901 34.8452 85.9106L40.4186 81.6753C38.7478 79.4767 35.611 79.0488 33.4124 80.7196L37.6477 86.2929ZM38.03 83.4905C38.6983 84.3699 38.5271 85.6246 37.6477 86.2929L33.4124 80.7196C31.2137 82.3903 30.7858 85.5271 32.4566 87.7257L38.03 83.4905ZM51.4961 101.211L38.03 83.4905L32.4566 87.7257L45.9227 105.446L51.4961 101.211ZM50.5181 100.518C50.8949 100.64 51.2423 100.877 51.4961 101.211L45.9227 105.446C46.5615 106.287 47.4236 106.874 48.3632 107.178L50.5181 100.518ZM48.6971 101.259C49.3449 100.505 50.426 100.355 51.2491 100.851L47.6322 106.845C49.6865 108.084 52.391 107.702 54.0071 105.821L48.6971 101.259ZM98.7558 42.9834L48.6971 101.259L54.0071 105.821L104.066 47.5447L98.7558 42.9834Z" fill="white"/>
</svg>
