<svg width="136" height="136" viewBox="0 0 136 136" fill="none" xmlns="http://www.w3.org/2000/svg">
<g clip-path="url(#clip0_1495_1320)">
<path d="M135.874 17.837C135.523 12.3499 132.857 8.07178 128.782 4.61086C125.595 1.90424 121.923 0.210761 117.671 0H18.0668C18.0076 0.207063 17.8375 0.218156 17.66 0.247737C7.2696 1.92643 0.0184883 10.3901 0.011093 20.9245C-0.00739532 42.4776 0.00739532 64.027 0 85.5801C0 87.0036 0.118325 88.4087 0.414138 89.7953C2.55508 99.7343 10.8489 106.434 21.0471 106.438C41.8021 106.445 62.557 106.445 83.312 106.423C84.1699 106.423 84.7763 106.656 85.3901 107.274C90.467 112.398 95.5809 117.486 100.68 122.585C104.747 126.653 108.807 130.727 112.882 134.791C114.18 136.085 115.526 136.336 116.817 135.549C117.967 134.846 118.255 133.763 118.251 132.48C118.229 124.249 118.266 116.018 118.211 107.788C118.203 106.623 118.432 106.164 119.686 105.92C128.035 104.29 135.013 96.6616 135.771 88.4863C135.682 88.002 135.615 87.5213 135.996 87.1182V18.0626C135.933 17.996 135.878 17.9221 135.874 17.837ZM130.095 85.3101C130.084 93.7295 124.234 99.897 115.859 100.463C113.267 100.64 112.353 101.624 112.353 104.253C112.353 110.934 112.353 117.619 112.353 124.301V125.906C104.33 117.878 96.546 110.139 88.8363 102.33C87.5532 101.032 86.2184 100.478 84.3954 100.481C63.5073 100.529 42.6156 100.489 21.7275 100.526C15.7705 100.537 11.0967 98.296 7.94997 93.149C6.50419 90.7862 5.90517 88.1757 5.90517 85.4322C5.89407 63.9678 5.87189 42.5035 5.91256 21.0391C5.92735 12.3129 12.3946 5.90131 21.1395 5.89391C52.3848 5.87173 83.63 5.87173 114.875 5.89391C123.624 5.90131 130.08 12.3092 130.099 21.0428C130.139 42.4628 130.132 63.8828 130.099 85.3027L130.095 85.3101Z" fill="#404041"/>
<path d="M135.773 88.4863H135.892L136.003 88.4456V87.1182C135.688 87.536 136.017 88.0574 135.777 88.4863H135.773Z" fill="#404041"/>
<path d="M73.0968 18.0182C71.4328 17.5893 69.7504 17.8666 68.3416 17.7631C67.1916 17.7631 66.3079 17.7631 65.4241 17.7631C59.6706 17.789 55.7954 21.9487 56.265 27.6836C57.0415 37.1568 57.9068 46.6226 58.6759 56.0957C59.0937 61.239 63.0465 65.0771 68.0458 65.0475C72.9859 65.0216 76.9239 61.1799 77.301 56.1068C77.571 52.4462 77.937 48.7967 78.2513 45.1398C78.769 39.1054 79.3421 33.0747 79.7748 27.0329C80.078 22.7659 77.2419 19.0831 73.0968 18.0182ZM73.8585 27.0181C73.522 31.6068 73.1042 36.188 72.7085 40.773C72.2907 45.6205 71.847 50.468 71.4402 55.3155C71.2295 57.8151 69.7134 59.3348 67.6132 59.0907C65.9603 58.8985 64.7438 57.6857 64.5848 55.9071C63.934 48.549 63.3202 41.1871 62.6916 33.8253C62.4993 31.5772 62.2737 29.3328 62.1443 27.0809C62.0186 24.8809 63.1907 23.6866 65.3798 23.6533C66.2635 23.6422 67.1509 23.6533 68.0347 23.6533C68.9184 23.6533 69.8059 23.6385 70.6896 23.6533C72.7899 23.694 74.0064 24.9105 73.8511 27.0181H73.8585Z" fill="#1B8CF4"/>
<path d="M67.9535 70.9414C63.08 70.9673 59.1383 74.9754 59.1642 79.871C59.1901 84.7629 63.1799 88.723 68.0571 88.6971C72.9343 88.6712 76.876 84.6705 76.8464 79.7712C76.8205 74.8756 72.8344 70.9155 67.9535 70.9451V70.9414ZM68.0423 82.7773C66.4412 82.8032 65.0878 81.4758 65.0694 79.8599C65.0509 78.2293 66.3414 76.8945 67.9646 76.8686C69.5768 76.8427 70.9228 78.159 70.9412 79.7786C70.9597 81.3981 69.6545 82.7514 68.046 82.7773H68.0423Z" fill="#1B8CF4"/>
</g>
<defs>
<clipPath id="clip0_1495_1320">
<rect width="136" height="136" fill="white"/>
</clipPath>
</defs>
</svg>
