<svg width="143" height="143" viewBox="0 0 143 143" fill="none" xmlns="http://www.w3.org/2000/svg">
<path d="M110.746 108.413C108.66 102.546 104.456 98.9905 98.3623 97.7693C93.6223 96.8216 88.8477 96.0357 84.0962 95.142C83.7182 95.0688 83.1012 95.2575 82.9816 94.5795C82.8659 93.9285 83.186 93.5818 83.7259 93.2582C85.1722 92.3991 86.6802 91.4745 87.6058 90.1108C89.1524 87.8302 91.1926 87.5413 93.6956 87.6183C98.5744 87.7685 101.448 84.8253 101.448 79.9868C101.455 71.1918 101.448 62.3968 101.451 53.6019C101.451 51.4561 101.278 49.3219 100.861 47.2185C97.8686 32.0825 83.9149 21.8044 68.3144 23.2144C53.4236 24.5588 41.5603 37.5182 41.4021 52.6696C41.3443 58.113 41.3713 63.5602 41.3944 69.0036C41.4099 73.2721 43.7933 76.5658 47.8506 77.9604C48.4638 78.1723 48.8032 78.415 48.9806 79.1392C50.45 85.1374 53.8208 89.8296 58.9927 93.2042C59.5404 93.5625 60.007 93.8668 59.845 94.5872C59.6908 95.2691 59.0351 95.1035 58.6032 95.1843C54.3068 95.9856 50.0104 96.7908 45.6985 97.4958C38.9685 98.6014 34.2942 102.18 31.9454 108.641C31.6485 109.457 31.3939 110.286 31.1162 111.11C30.9234 111.041 30.8193 111.033 30.7653 110.975C28.3895 108.614 26.0099 106.252 23.6419 103.875C22.1493 102.377 22.1609 101.221 23.6766 99.6993C26.3069 97.0604 28.9372 94.4254 31.5906 91.8097C32.0843 91.3243 32.3311 91.0276 31.6909 90.3959C26.1989 84.9602 20.7455 79.4859 15.2573 73.9963C11.6976 77.5405 8.14938 81.0269 4.64746 84.5672C2.36042 86.8786 1.01828 89.6947 0.405056 92.8845C0.327921 93.2967 0.540042 93.8437 0.0078125 94.1211V95.2383C0.455194 95.5157 0.451337 95.7969 0.0078125 96.0742V97.4688C0.196792 97.6576 0.135085 97.8964 0.154368 98.1237C0.439767 101.348 1.70478 104.195 3.95325 106.456C14.7907 117.378 25.6705 128.257 36.6159 139.074C38.9724 141.405 41.8572 142.919 45.3399 142.85C45.7911 142.915 46.2732 142.703 46.7013 142.992H48.379C48.8264 142.665 49.3779 142.996 49.8368 142.765C52.8451 142.453 55.5255 141.286 57.7624 139.313C61.7464 135.808 65.6147 132.171 69.5525 128.615C70.0615 128.157 70.05 127.887 69.5717 127.44C68.6423 126.57 67.7629 125.645 66.6715 124.551H68.4494C83.9149 124.551 99.3843 124.539 114.85 124.574C115.945 124.574 116.184 124.428 115.795 123.307C114.071 118.356 112.513 113.348 110.758 108.41L110.746 108.413ZM92.7391 82.9223C93.1518 81.4738 93.4063 79.9598 94.0273 78.6115C94.4554 77.683 95.7628 77.8256 96.7154 77.2285C97.0433 82.5486 96.5342 83.2536 92.743 82.9223H92.7391ZM94.6096 73.0294V65.3169C97.5331 67.5359 97.5253 70.9067 94.6096 73.0294ZM48.2903 72.9215C45.6446 72.0547 45.0275 67.1584 48.2903 65.3208V72.9215ZM48.3597 58.452C48.7107 60.2857 47.5729 60.7365 46.2076 61.0254C45.1509 50.1116 46.5895 40.0223 56.1233 32.8145C71.477 21.2073 93.765 30.3567 96.5072 49.372C97.0664 53.2552 96.6537 57.1538 96.8003 61.0716C95.219 60.7557 94.0967 60.2356 94.4785 58.3711C94.6752 57.408 93.846 57.67 93.3601 57.6738C90.1243 57.7046 86.9502 57.3656 83.8802 56.2908C80.1777 54.9964 76.9227 52.9816 74.1458 50.2118C73.2588 49.3257 72.3987 48.405 71.3227 47.284C70.6748 48.039 70.131 48.7325 69.5255 49.3681C64.126 55.0311 57.5156 57.8087 49.6787 57.6815C49.1426 57.6738 48.136 57.2963 48.3597 58.4559V58.452ZM52.9338 74.0888C52.8451 70.4637 52.9338 66.8348 52.8952 63.2058C52.8875 62.4508 53.1073 62.1426 53.8787 62.0655C60.331 61.4145 65.9541 58.8719 70.7635 54.5496C71.3343 54.0372 71.6389 54.1913 72.121 54.6189C76.8764 58.8488 82.4108 61.3644 88.7551 62.054C89.3876 62.1233 89.9044 62.158 89.889 63.0633C89.8157 67.2007 89.8582 71.342 89.7502 75.4756C89.6885 77.8256 88.894 80.0099 87.8758 82.1248C87.5403 82.8182 87.1353 83.0301 86.3832 83.0224C81.8207 82.9877 77.2582 83.0378 72.6957 82.98C71.6659 82.9685 71.3458 83.2035 71.3613 84.2744C71.4037 87.6645 71.3535 87.6645 74.759 87.6645H83.1397C77.829 92.1911 71.8202 93.4161 65.2561 91.174C57.9437 88.6777 53.1266 81.9245 52.9376 74.0849L52.9338 74.0888ZM78.3227 96.1975C76.6103 97.8194 74.8825 99.4181 73.1932 101.063C71.3921 102.816 71.4114 102.831 69.6643 101.09C68.0637 99.4952 66.4555 97.9041 64.8511 96.3092C67.1806 96.5019 69.3635 96.9218 71.6004 96.8832C73.791 96.8447 75.9353 96.5019 78.045 95.9047L78.3227 96.1975ZM13.4871 82.1749C15.2149 80.503 15.1841 80.4721 16.8425 82.1287C19.5383 84.8215 22.2303 87.5143 24.93 90.2032C25.1884 90.4613 25.5008 90.6694 26.249 91.2665C25.6937 91.513 25.3157 91.5747 25.0997 91.7943C23.3141 93.6049 23.3256 93.6164 21.5592 91.8521C18.8634 89.1592 16.1945 86.4433 13.4562 83.7929C12.7736 83.1303 12.8469 82.7874 13.4832 82.1749H13.4871ZM56.5398 134.251C54.0484 136.751 51.1905 138.412 48.6297 138.366C44.4682 138.358 41.757 137.349 39.5856 135.187C29.0182 124.682 18.4353 114.188 7.96811 103.583C3.23976 98.794 3.82984 90.966 8.96701 86.6937C9.32954 86.3932 9.51081 86.3393 9.8502 86.6822C13.0706 89.9182 16.2948 93.1426 19.5383 96.3555C19.9433 96.7561 19.8237 96.9757 19.5383 97.384C17.07 100.878 17.3554 104.114 20.3791 107.138C25.578 112.343 30.7884 117.54 35.995 122.737C39.0727 125.807 42.3432 126.107 45.8605 123.596C46.3272 123.26 46.5355 123.322 46.8787 123.669C50.0682 126.866 53.2655 130.056 56.4704 133.242C56.8059 133.573 56.9872 133.801 56.5398 134.247V134.251ZM62.055 129.193C60.9828 130.192 59.9402 130.186 58.9271 129.174C56.1619 126.412 53.4159 123.626 50.6159 120.903C49.9641 120.271 49.9178 119.947 50.6313 119.308C52.8682 117.316 52.8335 117.285 54.9084 119.358C57.4732 121.924 60.0456 124.489 62.6103 127.055C62.8649 127.309 63.1078 127.579 63.4164 127.91C62.9189 128.376 62.4869 128.789 62.0511 129.193H62.055ZM108.297 119.944C100.753 119.882 93.2058 119.913 85.662 119.913C78.1182 119.913 71.0373 119.878 63.7249 119.944C62.4445 119.955 61.5729 119.574 60.7051 118.665C58.4605 116.307 56.0886 114.065 53.8247 111.723C53.2038 111.079 52.8566 111.052 52.1856 111.676C49.2892 114.369 46.3349 117.004 43.3922 119.647C41.8457 121.038 40.7966 120.999 39.3041 119.52C38.0159 118.241 36.7625 116.927 35.4358 115.687C34.8843 115.174 34.7223 114.724 35 114.003C35.4975 112.705 35.8909 111.368 36.3537 110.058C38.1123 105.085 41.8457 102.731 46.8903 101.945C51.3911 101.244 55.861 100.362 60.3387 99.5144C61.1178 99.368 61.6269 99.5568 62.1707 100.112C64.9784 102.966 67.8439 105.763 70.6439 108.621C71.2301 109.219 71.5425 109.28 72.1635 108.641C74.9557 105.771 77.829 102.982 80.629 100.119C81.2268 99.5106 81.7744 99.3873 82.5959 99.5452C87.4361 100.47 92.2879 101.337 97.1358 102.211C101.806 103.055 104.942 105.705 106.508 110.174C107.472 112.932 108.324 115.729 109.315 118.476C109.72 119.601 109.628 119.947 108.297 119.936V119.944Z" fill="#404041"/>
<path d="M0 95.2422V96.0781C0.208264 95.8008 0.208264 95.5196 0 95.2422Z" fill="#404041"/>
<path d="M7.68774 64.4926C8.13512 65.2515 8.4398 65.4017 9.23814 64.9048C12.393 62.9439 15.6133 61.0832 18.7836 59.1416C19.7593 58.5445 21.3753 58.1824 21.5103 57.2424C21.6414 56.3409 20.4497 55.2892 19.9637 54.2452C19.5665 53.3939 19.1615 53.5056 18.502 53.9216C16.8359 54.9733 15.1274 55.9634 13.2414 57.096C13.3533 56.5336 13.3996 56.2177 13.4806 55.9133C21.5951 24.6436 54.682 5.21227 85.9602 13.3138C87.013 13.5873 88.3128 14.4772 89.0725 13.9417C89.8092 13.4255 89.8323 11.9424 90.2488 10.9176C90.6229 10.0008 90.3183 9.71569 89.4081 9.45758C79.3767 6.59913 69.2065 6.00971 59.0209 8.16704C37.5311 12.7167 22.0618 25.0289 12.5935 44.8262C10.804 48.5669 9.56211 52.5194 8.49379 56.7994C7.53732 55.2237 6.73127 53.8793 5.90978 52.5463C5.32741 51.6025 4.89932 50.1348 4.08555 49.8728C3.14065 49.5646 2.16875 50.9052 1.11972 51.356C0.236525 51.7335 0.255809 52.138 0.730187 52.9085C3.09051 56.7416 5.40841 60.6055 7.68774 64.4887V64.4926Z" fill="#404041"/>
<path d="M140.98 50.52C137.05 48.2201 133.139 45.8817 129.259 43.501C128.542 43.0618 128.233 43.0811 127.794 43.8323C125.9 47.0837 123.929 50.2927 122.001 53.521C121.434 54.4725 120.342 55.5666 120.512 56.3795C120.713 57.3387 122.348 57.5814 123.243 58.3018C124.041 58.9451 124.38 58.5869 124.797 57.8549C125.854 56.0019 126.988 54.1952 128.199 52.1881C128.372 52.6696 128.499 52.9701 128.592 53.2783C134.277 72.4169 131.423 90.1956 120.069 106.622C119.448 107.524 118.082 108.352 118.356 109.311C118.607 110.197 119.976 110.74 120.79 111.495C121.399 112.062 121.731 112.089 122.286 111.353C134.404 95.2845 138.55 77.4095 134.508 57.6816C134.061 55.5011 133.421 53.3592 132.834 51.0555C134.138 51.8375 135.291 52.5348 136.452 53.2128C137.439 53.7907 138.616 54.9541 139.395 54.7345C140.224 54.5034 140.644 52.9239 141.323 51.9878C141.832 51.2866 141.724 50.9553 140.972 50.5162L140.98 50.52Z" fill="#404041"/>
</svg>
