<svg width="123" height="127" viewBox="0 0 123 127" fill="none" xmlns="http://www.w3.org/2000/svg">
<g clip-path="url(#clip0_562_1962)">
<path d="M69.8847 113.471C68.7864 113.243 68.6437 112.822 68.6537 111.874C68.6968 107.12 68.7433 102.366 68.6471 97.6151C68.5873 94.6215 69.105 91.8003 70.3227 89.0753C72.4363 84.3412 73.5578 79.3486 73.6241 74.187C73.7369 65.0968 73.7237 56.0001 73.6474 46.9099C73.6175 43.2566 72.3799 39.9514 69.9212 37.1733C69.4467 36.6363 68.9623 36.1059 68.4812 35.5655C74.8485 31.1928 77.41 23.6078 74.8618 16.5531C74.6295 15.91 74.9679 15.7973 75.3396 15.5453C76.8526 14.5077 77.4266 13.0457 77.2275 11.2555C77.0384 9.55485 76.262 8.10281 75.1903 6.81985C71.8357 2.79526 67.3995 0.849269 62.2996 0.212761C61.9147 0.0536335 61.5099 0.163033 61.1151 0.133197C60.6705 0.0735243 60.2026 0.265803 59.7779 0.00390625H59.0347C58.537 0.20613 58.0426 0.20613 57.5449 0.00390625H57.0472C56.9509 0.252542 56.722 0.1995 56.5262 0.229336C52.9428 0.733239 49.7906 2.16538 47.2025 4.70478C42.7464 9.08078 41.2798 14.4911 42.3781 20.4882C43.3669 25.8952 45.0657 31.0768 49.6778 34.6803C50.1224 35.0251 49.9996 35.3401 49.8769 35.7478C49.2133 37.9623 48.6824 40.21 48.3572 42.5008C48.2942 42.9384 48.1183 43.2599 47.7998 43.5583C46.2303 45.0203 45.5004 46.8602 45.5004 48.9819C45.4937 60.8037 45.4871 72.6255 45.507 84.444C45.5103 87.0166 46.6152 89.0985 48.772 90.4975C49.5019 90.9715 49.7342 91.5384 49.8371 92.2877C50.1821 94.7508 50.2419 97.2272 50.2419 99.707C50.2419 107.975 50.2419 116.24 50.2419 124.508C50.2419 126.301 50.8292 126.991 52.3986 126.994C60.3851 127.007 68.3683 127.004 76.3549 126.994C77.8049 126.994 78.4552 126.331 78.5348 124.885C78.8534 119.074 75.5619 114.648 69.8913 113.475L69.8847 113.471ZM69.9676 47.7553C69.9544 51.1434 69.9676 54.5281 69.9676 57.9162H69.9776C69.9776 61.5927 69.9577 65.2692 69.9942 68.9457C70.0008 69.6883 69.8283 69.9369 69.0419 69.9204C66.4372 69.8673 63.8326 69.8607 61.2279 69.9204C60.3155 69.9436 60.0401 69.7248 60.0467 68.77C60.0931 62.4082 60.0732 56.0465 60.0699 49.688C60.0699 44.7915 57.8103 42.1991 52.9627 41.5825C52.3853 41.5095 52.236 41.3438 52.4218 40.8266C52.465 40.7106 52.4981 40.5913 52.528 40.4719C52.8067 39.3547 52.7503 37.8629 53.4604 37.2264C54.1306 36.6263 55.4446 37.6474 56.5097 37.8364C58.9949 38.274 61.4469 38.2375 63.8691 37.5413C64.5526 37.3457 64.9972 37.475 65.5248 37.9391C68.4845 40.5548 69.9909 43.8003 69.9776 47.7553H69.9676ZM46.9636 23.6575C45.6663 19.9379 45.288 16.2945 46.4858 12.618C48.4667 6.53475 54.552 2.9577 61.2843 3.79312C65.0204 4.25724 68.4413 5.4076 71.2484 8.02325C72.1012 8.81557 72.851 9.6974 73.2956 10.7881C73.8464 12.1373 73.5379 12.6578 72.1012 12.6877C69.9511 12.7308 67.801 12.7109 65.6509 12.7109C62.6314 12.7109 59.612 12.7341 56.5926 12.7042C54.0278 12.681 52.246 13.8115 51.2837 16.1818C50.7727 17.4416 50.3281 18.7245 49.8404 19.9909C49.2796 21.4463 48.4269 22.6795 46.9603 23.6542L46.9636 23.6575ZM48.7388 27.9605C48.4933 27.4898 48.2875 27.1815 48.9412 26.7969C51.2572 25.4344 52.601 23.2862 53.5234 20.8363C53.9017 19.8351 54.2368 18.8174 54.6051 17.8129C54.9535 16.8548 55.5906 16.3874 56.6722 16.4172C58.8223 16.4736 60.9724 16.4338 63.1225 16.4338C65.3954 16.4338 67.6716 16.457 69.9444 16.4172C70.5815 16.4073 70.8967 16.6261 71.1522 17.1996C73.7569 23.074 71.0361 30.2745 65.1001 33.1521C59.1375 36.0429 51.7317 33.6891 48.7388 27.9605ZM49.2564 48.7167C49.3327 46.6281 50.8988 45.249 52.883 45.2988C54.8639 45.3452 56.2907 46.8171 56.3338 48.9023C56.3637 50.2218 56.3404 51.5412 56.3404 52.8606C56.3404 54.2629 56.3172 55.6652 56.3537 57.0642C56.3703 57.6444 56.2143 57.8499 55.6038 57.84C53.7059 57.8035 51.808 57.8101 49.9101 57.8367C49.3725 57.8433 49.1967 57.6609 49.2 57.1272C49.2265 54.3259 49.1535 51.518 49.2564 48.72V48.7167ZM49.2199 84.1523C49.1934 76.922 49.2166 69.6883 49.1967 62.458C49.1967 61.7949 49.336 61.5065 50.0793 61.5264C51.8577 61.5794 53.6362 61.5894 55.4147 61.5264C56.221 61.4966 56.3637 61.7883 56.357 62.5143C56.3238 66.1908 56.3404 69.8706 56.3404 73.5471C56.3404 77.0612 56.3504 80.5719 56.3404 84.086C56.3338 86.4165 54.9037 88.0078 52.8233 88.0376C50.7661 88.0675 49.2299 86.4729 49.2199 84.1556V84.1523ZM53.9581 102.594C53.9216 99.571 54.0908 96.0139 53.5831 92.4832C53.5002 91.9031 53.7026 91.7141 54.2434 91.5683C58.1056 90.5373 60.05 88.0111 60.0633 84.0462C60.0766 80.9068 60.0931 77.7673 60.0467 74.6312C60.0334 73.8123 60.2657 73.5869 61.0819 73.6035C63.7264 73.6565 66.3742 73.6565 69.0187 73.6035C69.8183 73.5869 69.9577 73.8289 69.9146 74.5815C69.6491 79.3685 68.5641 83.9501 66.6231 88.3327C65.402 91.0909 64.891 93.9717 64.9309 96.9952C64.9939 101.991 64.9209 106.99 64.974 111.986C64.9839 112.928 64.7351 113.15 63.816 113.13C60.8397 113.067 57.8634 113.077 54.8871 113.127C54.1074 113.14 53.9282 112.914 53.9415 112.165C53.9846 109.152 53.9581 106.135 53.9581 102.598V102.594ZM73.5578 123.301C70.5019 123.218 67.4426 123.274 64.3867 123.274C61.2047 123.274 58.0227 123.254 54.844 123.288C54.1605 123.294 53.9183 123.135 53.9415 122.412C53.9979 120.805 53.9813 119.193 53.9481 117.586C53.9348 117.005 54.0775 116.806 54.698 116.813C58.9949 116.846 63.2951 116.757 67.5886 116.876C71.2451 116.979 73.6772 118.905 74.5266 121.971C74.7888 122.913 74.7523 123.337 73.5578 123.304V123.301Z" fill="#2F9FEE"/>
<path d="M27.5995 113.398C26.7534 113.239 26.6472 112.898 26.6506 112.188C26.6705 107.146 26.7003 102.103 26.6472 97.0611C26.6207 94.4554 27.0786 91.9856 28.1072 89.5954C29.4278 86.5222 30.4663 83.3629 31.0271 80.0444C32.0092 74.2131 31.6409 68.3386 31.6973 62.4775C31.7073 61.3404 30.8678 60.5514 29.8491 60.548C28.8305 60.548 28.0209 61.3404 28.001 62.4741C27.9678 64.5826 27.9545 66.691 28.0076 68.7961C28.0275 69.615 27.8716 69.9465 26.9525 69.92C24.3478 69.8537 21.7398 69.857 19.1352 69.92C18.2426 69.9398 18.0535 69.6581 18.0568 68.8127C18.0933 62.4476 18.0767 56.0825 18.0767 49.7174C18.0767 44.821 15.8437 42.2352 10.9861 41.5821C10.4087 41.5058 10.2793 41.3235 10.4087 40.8163C10.6808 39.7389 10.9661 38.6614 11.2017 37.5741C11.3378 36.9541 11.5767 36.9541 12.1341 37.153C15.3758 38.3067 18.6706 38.4758 21.992 37.4978C22.576 37.3254 22.9642 37.4779 23.4254 37.8724C26.4681 40.4848 27.9678 43.7833 27.9811 47.7748C27.9877 49.8003 27.9612 51.8259 28.0043 53.8481C28.0275 54.9255 28.8139 55.688 29.8093 55.6648C30.8612 55.6416 31.6575 55.0615 31.6608 54.0371C31.6741 50.3705 32.0258 46.6841 31.0702 43.0639C30.2871 40.1035 28.6182 37.7067 26.4681 35.6115C26.5776 35.4888 26.624 35.4159 26.687 35.3662C33.1108 30.4763 35.1812 24.2505 32.8653 16.5825C32.6761 15.9626 32.8951 15.8167 33.3032 15.5449C34.7433 14.5935 35.3372 13.2177 35.2377 11.5137C35.1514 10.065 34.584 8.79527 33.7777 7.62502C31.4186 4.21373 28.0773 2.18818 24.1852 1.00798C22.7518 0.5737 21.262 0.321749 19.7988 -0.00976562H17.068C16.5703 0.192458 16.0759 0.192458 15.5782 -0.00976562H15.0805C14.9412 0.281967 14.6591 0.182513 14.4335 0.21898C9.38344 1.02788 5.3686 3.47445 2.65444 7.83719C-0.45789 12.8397 -0.623793 18.2136 1.07173 23.6902C2.36909 27.8938 3.96175 31.9781 7.72109 34.7197C8.26194 35.1142 7.9235 35.5518 7.81068 35.9364C7.18357 38.0349 6.6925 40.1632 6.37729 42.328C6.30097 42.8385 6.1218 43.2463 5.73027 43.6143C4.16747 45.0829 3.47068 46.9427 3.47068 49.0544C3.46072 60.8331 3.4574 72.6119 3.47068 84.3906C3.47068 86.5123 4.10774 88.5909 5.86962 89.728C7.80073 90.9712 7.94008 92.6884 8.0894 94.5581C8.13585 95.135 8.15576 95.7151 8.15576 96.292C8.17235 105.385 8.18562 114.476 8.20221 123.569C8.20221 124.066 8.17567 124.564 8.21548 125.058C8.31502 126.287 8.97863 126.98 10.1964 126.984C18.3057 127 26.4117 127 34.521 126.984C35.7619 126.984 36.4156 126.297 36.5018 125.081C36.9332 119.077 33.4924 114.509 27.5995 113.398ZM4.9273 23.6107C3.24837 18.512 3.03601 13.5757 6.3242 9.06379C9.53275 4.66128 14.115 3.31864 19.3442 3.82255C23.0903 4.1839 26.4946 5.44034 29.2884 8.06925C30.1046 8.83836 30.8247 9.68373 31.2626 10.7379C31.8532 12.1635 31.5646 12.6806 30.035 12.6906C25.1143 12.7237 20.1936 12.7105 15.2697 12.7105C11.5833 12.7105 10.1632 13.6984 8.86914 17.1494C8.27853 18.7274 7.87372 20.385 6.89158 21.7973C6.39388 22.5133 5.82317 23.1532 4.9273 23.614V23.6107ZM6.729 27.9634C6.48678 27.5026 6.27111 27.1844 6.9314 26.7965C9.28721 25.4108 10.6343 23.2162 11.5601 20.7232C11.9184 19.7585 12.2602 18.7871 12.6019 17.8158C12.947 16.8411 13.5874 16.3903 14.6624 16.4168C16.8524 16.4665 19.0456 16.4334 21.2355 16.4334C23.4254 16.4334 25.6186 16.4665 27.8085 16.4135C28.5452 16.3969 28.9101 16.6323 29.1922 17.3086C31.7006 23.2858 28.9433 30.3702 22.9775 33.208C17.0581 36.0226 9.70529 33.6489 6.72568 27.9668L6.729 27.9634ZM7.2068 48.9019C7.2632 46.7007 8.87578 45.2122 10.9396 45.2984C12.947 45.3812 14.324 46.9062 14.3439 49.0909C14.3572 50.3705 14.3439 51.6502 14.3439 52.9298C14.3439 54.3321 14.3207 55.7378 14.3539 57.1401C14.3671 57.6838 14.1979 57.8462 13.6571 57.8363C11.7558 57.8064 9.85792 57.8064 7.95668 57.8363C7.37934 57.8462 7.16366 57.6904 7.1703 57.0771C7.20016 54.3553 7.1338 51.627 7.20348 48.9052L7.2068 48.9019ZM7.33952 85.2824C7.22007 84.7652 7.19684 84.2215 7.19352 83.6878C7.18025 80.2201 7.18689 76.7525 7.18689 73.2882C7.18689 69.6978 7.2068 66.1075 7.1703 62.5172C7.16366 61.7879 7.31629 61.4962 8.11926 61.526C9.93423 61.589 11.7558 61.5658 13.5708 61.5326C14.1448 61.5227 14.3605 61.6686 14.3572 62.2819C14.3373 69.7509 14.3638 77.2232 14.3207 84.6923C14.3107 86.4592 12.8508 87.8483 11.0823 88.0207C9.35357 88.1897 7.73437 87.0294 7.3362 85.2824H7.33952ZM11.9251 102.76C11.8587 99.7231 12.1042 96.1196 11.5966 92.5425C11.507 91.9027 11.726 91.7005 12.3199 91.548C15.983 90.6098 18.0535 87.951 18.0701 84.2016C18.0834 81.0191 18.0933 77.8365 18.0568 74.654C18.0502 73.9081 18.1597 73.5699 19.039 73.5931C21.6834 73.6561 24.3346 73.6528 26.979 73.5931C27.8716 73.5733 27.9214 73.8981 27.8849 74.6639C27.6659 79.5538 26.4481 84.1884 24.4905 88.6472C23.359 91.2198 22.9078 93.9183 22.9277 96.7229C22.9642 101.765 22.9012 106.808 22.9642 111.85C22.9775 112.921 22.6556 113.136 21.6536 113.113C18.8432 113.043 16.0262 113.017 13.2158 113.123C12.0478 113.166 11.872 112.768 11.8985 111.737C11.9682 108.929 11.9217 106.118 11.9217 102.753L11.9251 102.76ZM31.8333 123.294C28.6513 123.244 25.466 123.274 22.2807 123.274C19.1783 123.274 16.0759 123.237 12.9769 123.297C12.0744 123.314 11.8687 123.029 11.9085 122.183C11.9781 120.698 11.9582 119.21 11.9151 117.721C11.8952 117.048 12.0611 116.793 12.7944 116.799C16.9718 116.839 21.1492 116.77 25.3233 116.849C29.2486 116.925 31.8765 118.981 32.623 122.316C32.7923 123.065 32.6728 123.307 31.8367 123.294H31.8333Z" fill="#404041"/>
<path d="M114.098 113.414C113.208 113.245 113.092 112.9 113.096 112.137C113.122 107.095 113.155 102.053 113.092 97.0104C113.059 94.4445 113.52 92.0178 114.526 89.664C115.79 86.7036 116.825 83.6702 117.402 80.4811C118.441 74.7392 118.076 68.9477 118.119 63.1694C118.129 62.0422 117.273 61.2598 116.248 61.2831C115.222 61.3063 114.449 62.082 114.426 63.2456C114.386 65.1452 114.38 67.0481 114.429 68.9477C114.449 69.6969 114.26 69.9389 113.474 69.9223C110.869 69.8693 108.261 69.8593 105.657 69.9256C104.721 69.9489 104.485 69.6903 104.489 68.762C104.532 62.3572 104.518 55.949 104.505 49.5441C104.505 48.7617 104.505 47.9595 104.329 47.2069C103.596 44.0244 101.051 41.8596 97.743 41.6143C96.9434 41.5546 96.6447 41.4419 96.9268 40.5601C97.2984 39.3898 97.5174 38.1698 97.8193 36.9035C101.453 38.319 105.059 38.5345 108.712 37.4505C109.197 37.3079 109.479 37.5499 109.801 37.8284C112.754 40.3612 114.366 43.5338 114.396 47.4523C114.413 49.6005 114.406 51.752 114.413 53.9002C114.42 55.5512 115.08 56.4164 116.314 56.3965C117.519 56.3799 118.132 55.5711 118.136 53.9698C118.142 52.3985 118.089 50.8271 118.146 49.259C118.338 43.968 116.951 39.2904 112.897 35.657C112.986 35.5442 113.026 35.4647 113.089 35.4216C118.793 31.6688 121.998 24.0738 119.3 16.5418C119.108 16.0081 119.287 15.8589 119.679 15.6036C121.404 14.4831 121.935 12.8454 121.606 10.8762C121.407 9.67283 120.89 8.59872 120.203 7.60749C117.86 4.23599 114.546 2.24027 110.713 1.04019C109.32 0.602586 107.873 0.34732 106.45 0.00585938H103.47C102.972 0.208083 102.478 0.208083 101.98 0.00585938H101.482C101.35 0.304223 101.064 0.204768 100.839 0.23792C97.4411 0.751768 94.4217 2.09772 91.9066 4.44816C87.4504 8.61198 85.8113 13.8831 86.6939 19.7575C87.5467 25.4496 89.3185 30.8666 94.1098 34.6823C94.5444 35.0271 94.4382 35.3354 94.3122 35.7498C93.6452 37.9643 93.1177 40.212 92.7892 42.5027C92.7261 42.9403 92.5503 43.2619 92.2317 43.5603C90.6623 45.0256 89.9357 46.8588 89.9357 48.9839C89.929 60.8057 89.9257 72.6242 89.939 84.446C89.9423 86.9721 90.9941 89.0408 93.0978 90.4265C93.904 90.9569 94.1595 91.5736 94.279 92.4156C94.5842 94.5903 94.6572 96.7784 94.6606 98.9697C94.6705 107.483 94.6606 116 94.6672 124.513C94.6672 126.306 95.2578 126.999 96.8239 127.003C104.807 127.016 112.794 127.013 120.777 127.003C122.234 127.003 122.89 126.343 122.97 124.907C123.309 119.03 119.864 114.524 114.091 113.427L114.098 113.414ZM91.3823 23.6429C89.9589 19.3365 89.6205 15.1826 91.5416 11.0884C93.9804 5.89356 99.6774 3.02927 105.766 3.79839C109.502 4.26914 112.916 5.42944 115.717 8.04841C116.599 8.87388 117.373 9.79549 117.797 10.9392C118.252 12.1492 117.927 12.6598 116.616 12.6797C113.474 12.7228 110.332 12.7062 107.186 12.7095C105.076 12.7095 102.969 12.7161 100.859 12.7095C98.4531 12.7029 96.7476 13.7969 95.802 15.9948C95.2512 17.2778 94.8099 18.6105 94.3055 19.9166C93.7315 21.4051 92.9053 22.7014 91.379 23.6429H91.3823ZM93.3367 28.2774C92.8821 27.505 92.8456 27.1105 93.705 26.5768C95.865 25.2375 97.096 23.139 97.9687 20.815C98.3602 19.7741 98.7285 18.7265 99.1101 17.6822C99.4319 16.8037 100.042 16.4158 101.005 16.4192C105.471 16.4457 109.934 16.4457 114.4 16.4125C115.05 16.4092 115.365 16.6413 115.594 17.2115C116.211 18.763 116.513 20.3741 116.566 21.856C116.473 27.6741 112.668 32.5905 107.322 33.9696C101.818 35.3884 96.1636 33.0645 93.3367 28.2708V28.2774ZM93.6718 49.0568C93.7149 46.776 95.1649 45.2941 97.232 45.2941C99.3523 45.2941 100.762 46.829 100.786 49.1761C100.799 50.4127 100.786 51.6492 100.786 52.8858C100.786 54.245 100.762 55.6075 100.796 56.9667C100.809 57.5502 100.736 57.8618 100.019 57.8419C98.1644 57.7922 96.3063 57.7955 94.4515 57.8419C93.7581 57.8585 93.6419 57.5767 93.6486 56.9734C93.6751 54.3345 93.622 51.6956 93.6751 49.0601L93.6718 49.0568ZM94.1264 86.2329C93.7415 85.5665 93.6585 84.8306 93.6585 84.0813C93.6585 76.8908 93.6651 69.7002 93.6419 62.513C93.6419 61.7836 93.7945 61.4952 94.5942 61.5251C96.3295 61.588 98.0715 61.598 99.8035 61.5251C100.683 61.4853 100.806 61.8301 100.799 62.5892C100.766 66.2657 100.782 69.9455 100.782 73.622H100.776C100.776 77.2588 100.799 80.8955 100.766 84.5289C100.749 86.2362 99.6808 87.5026 98.045 87.9269C96.5585 88.3115 94.9094 87.5987 94.123 86.2362L94.1264 86.2329ZM98.7716 91.5537C102.358 90.6619 104.465 88.0098 104.502 84.33C104.532 81.1507 104.538 77.9682 104.489 74.7923C104.475 73.9171 104.628 73.569 105.613 73.5988C108.175 73.6784 110.74 73.685 113.301 73.5988C114.35 73.5624 114.386 73.9635 114.337 74.8055C114.061 79.5064 112.979 84.0051 111.075 88.3115C109.854 91.0697 109.333 93.9472 109.369 96.9706C109.432 102.01 109.369 107.049 109.403 112.084C109.406 112.857 109.257 113.149 108.404 113.132C105.388 113.076 102.368 113.072 99.3523 113.132C98.4664 113.152 98.3701 112.814 98.3768 112.074C98.4133 109.101 98.39 106.127 98.39 102.613C98.3469 99.6029 98.536 96.0457 98.0151 92.5184C97.9156 91.8388 98.2109 91.6962 98.7683 91.557L98.7716 91.5537ZM118.109 123.306C115.013 123.217 111.911 123.276 108.812 123.276C105.713 123.276 102.531 123.25 99.3888 123.296C98.5858 123.309 98.3336 123.104 98.3701 122.282C98.4365 120.717 98.4166 119.146 98.3768 117.578C98.3602 116.981 98.5327 116.808 99.1366 116.815C103.394 116.845 107.651 116.769 111.904 116.868C115.654 116.958 118.205 118.937 118.998 122.099C119.201 122.902 119.234 123.343 118.106 123.309L118.109 123.306Z" fill="#404041"/>
</g>
<defs>
<clipPath id="clip0_562_1962">
<rect width="123" height="127" fill="white"/>
</clipPath>
</defs>
</svg>
