<svg width="148" height="150" viewBox="0 0 148 150" fill="none" xmlns="http://www.w3.org/2000/svg">
<g clip-path="url(#clip0_562_1589)">
<path d="M147.972 117.395C147.941 115.496 147.02 114.079 145.24 113.449C144.299 113.116 144.118 112.681 144.126 111.788C144.161 104.564 144.126 97.3362 144.157 90.112C144.169 87.4808 143.65 84.9787 142.524 82.6059C141.815 81.1102 140.712 80.6012 139.476 81.1298C138.173 81.6858 137.803 82.8918 138.523 84.4541C139.354 86.2591 139.748 88.1308 139.74 90.1198C139.716 97.344 139.712 104.572 139.752 111.796C139.756 112.759 139.602 113.116 138.516 113.112C127.421 113.069 116.326 113.077 105.231 113.1C104.337 113.1 103.979 112.967 103.987 111.941C104.038 104.568 103.971 97.1991 104.03 89.8262C104.085 82.9818 109.188 77.6293 116.054 77.6136C121.507 77.6019 127.035 76.7366 132.425 78.4751C133.598 78.8549 134.59 78.1814 134.937 77.0067C135.279 75.8517 134.878 74.8532 133.685 74.3755C132.826 74.0309 131.933 73.7529 131.031 73.5415C128.322 72.9033 125.558 73.1617 122.814 73.1578C119.775 73.1539 116.708 72.8641 113.696 73.3614C105.511 74.7044 99.7232 81.396 99.6208 89.6656C99.5302 97.0347 99.546 104.408 99.6405 111.781C99.6602 113.182 98.8491 113.546 97.9475 113.554C97.0065 113.562 96.2664 113.127 96.2821 111.749C96.3805 104.525 96.3569 97.3009 96.3176 90.0728C96.2742 82.1439 91.1284 75.5306 83.5889 73.6276C80.7384 72.9111 77.8289 73.1617 74.939 73.1578C71.8996 73.1578 68.8286 72.8641 65.8207 73.3614C57.4425 74.7436 51.7416 81.584 51.6864 90.253C51.6392 97.4301 51.6235 104.607 51.7219 111.781C51.7416 113.182 50.9305 113.562 50.025 113.55C49.1194 113.539 48.3438 113.124 48.3635 111.741C48.4619 104.372 48.4541 96.9994 48.395 89.6265C48.332 82.0069 43.1232 75.4875 35.7215 73.6237C32.871 72.9072 29.9615 73.1578 27.0716 73.1578C24.0322 73.1578 20.9652 72.8641 17.9533 73.3614C9.71289 74.724 3.94502 81.4665 3.87021 89.8144C3.80328 97.1874 3.84265 104.556 3.87021 111.929C3.87021 112.701 3.74422 113.112 2.90168 113.398C1.05124 114.028 0.0630245 115.426 0.0315276 117.391C-0.00390643 119.635 -0.0157178 121.883 0.0315276 124.126C0.08271 126.519 1.78748 128.261 4.18912 128.386C5.51199 128.457 6.8388 128.445 8.1656 128.394C9.61052 128.339 10.4255 127.521 10.4294 126.237C10.4294 124.98 9.60265 124.134 8.17741 124.036C7.29944 123.977 6.40178 123.946 5.52774 124.036C4.56708 124.134 4.37416 123.746 4.41747 122.881C4.48834 121.518 4.52377 120.14 4.4096 118.785C4.31511 117.654 4.70882 117.442 5.77971 117.45C15.5477 117.493 25.3196 117.478 35.0876 117.478C38.9656 117.478 42.8437 117.509 46.7217 117.454C47.6233 117.442 47.9147 117.654 47.8596 118.574C47.773 119.937 47.7651 121.311 47.8596 122.674C47.9383 123.746 47.643 124.056 46.5131 124.048C37.5798 123.997 28.6425 124.017 19.7092 124.024C19.1265 124.024 18.5202 124.036 17.9611 124.177C16.8587 124.455 16.3233 125.285 16.3902 126.354C16.4572 127.419 17.0595 128.179 18.1974 128.351C18.5832 128.41 18.9848 128.437 19.3706 128.402C20.1147 128.328 20.4061 128.555 20.3943 129.361C20.347 132.094 20.351 134.827 20.3943 137.56C20.4061 138.328 20.1817 138.567 19.4021 138.547C17.5871 138.496 15.7682 138.488 13.9532 138.559C10.957 138.668 8.6105 141.077 8.53569 144.048C8.45695 147.2 10.3113 148.915 13.0201 149.992H39.2373C40.2609 149.702 41.3043 149.546 42.1468 148.743C43.9855 146.993 44.6705 144.444 43.7177 142.04C42.7649 139.636 40.9421 138.316 38.3318 138.156C37.0089 138.073 35.6821 138.14 34.3592 138.132C32.4379 138.116 32.3316 138.019 32.3159 136.178C32.304 134.471 32.3119 132.764 32.3159 131.053C32.3198 128.754 32.3237 128.731 34.5758 128.754C41.3397 128.825 48.1037 128.625 54.8716 128.739C58.5488 128.801 62.23 128.739 65.9112 128.754C67.49 128.762 67.6475 128.907 67.6672 130.383C67.6947 132.482 67.6554 134.581 67.679 136.679C67.6908 137.756 67.1947 138.156 66.1593 138.14C64.7852 138.116 63.4112 138.097 62.0371 138.152C58.7181 138.289 56.2653 140.583 55.9622 143.806C55.6826 146.781 57.5724 149.225 60.7457 149.996H87.2583C88.589 149.753 89.7819 149.272 90.6402 148.16C92.1482 146.21 92.4986 144.091 91.5261 141.828C90.5694 139.612 88.7819 138.434 86.4078 138.183C84.9944 138.034 83.5652 138.156 82.14 138.128C80.5022 138.101 80.3565 137.968 80.3368 136.382C80.3132 134.526 80.325 132.674 80.3329 130.818C80.3408 128.821 80.4077 128.739 82.392 128.75C89.2071 128.786 96.0183 128.676 102.833 128.739C106.562 128.774 110.29 128.77 114.023 128.731C115.188 128.719 115.739 129.083 115.708 130.317C115.653 132.364 115.716 134.416 115.684 136.464C115.665 137.948 115.495 138.093 113.94 138.12C112.716 138.144 111.487 138.112 110.259 138.128C106.877 138.175 104.337 140.266 103.963 143.304C103.534 146.801 105.2 149.123 108.763 149.984H134.984C135.145 149.89 135.295 149.773 135.468 149.71C138.393 148.626 139.897 146.124 139.401 143.164C138.953 140.497 136.571 138.578 133.614 138.528C131.944 138.5 130.275 138.481 128.606 138.539C127.822 138.567 127.606 138.316 127.618 137.549C127.661 134.96 127.708 132.372 127.602 129.788C127.551 128.57 127.984 128.363 129.086 128.378C133.846 128.433 138.61 128.429 143.37 128.39C146.22 128.371 147.953 126.624 147.984 123.825C148.008 121.675 148.008 119.529 147.976 117.38L147.972 117.395ZM42.7689 113.1C37.2215 113.065 31.6741 113.084 26.1267 113.084C20.5793 113.084 15.0319 113.065 9.48454 113.104C8.579 113.112 8.24041 112.951 8.24828 111.937C8.29946 104.564 8.23647 97.1952 8.28765 89.8223C8.33883 83.0014 13.4571 77.7781 20.3195 77.5745C24.1936 77.4609 28.0756 77.4609 31.9536 77.5745C38.82 77.7781 43.9185 82.9779 43.9736 89.8301C44.0366 97.203 43.9658 104.572 44.017 111.945C44.0248 112.979 43.6547 113.104 42.7689 113.1ZM26.1661 128.375C27.1464 128.386 27.5362 128.563 27.4968 129.643C27.4102 132.173 27.3984 134.714 27.5008 137.243C27.548 138.414 27.111 138.535 26.0913 138.578C24.918 138.625 24.6897 138.21 24.7645 137.169C24.8511 135.955 24.7842 134.733 24.7842 133.516C24.7842 132.298 24.8747 130.974 24.7566 129.718C24.6503 128.555 25.1149 128.363 26.1582 128.375H26.1661ZM37.3199 142.921C38.3199 142.921 39.3121 142.987 39.2924 144.276C39.2727 145.556 38.2766 145.607 37.2806 145.603C33.5088 145.587 29.737 145.599 25.9653 145.599C22.1935 145.599 18.6186 145.591 14.9414 145.603C13.9374 145.603 12.961 145.521 12.9728 144.236C12.9846 142.929 14.0004 142.921 14.9807 142.921C22.4258 142.929 29.8748 142.929 37.3199 142.921ZM56.1039 90.2295C56.1472 82.8487 61.3836 77.6215 68.7775 77.5392C72.2618 77.5001 75.7422 77.5001 79.2265 77.5392C86.5574 77.6254 91.8214 82.8095 91.8883 90.0963C91.9552 97.3636 91.8844 104.635 91.9277 111.902C91.9316 112.881 91.6481 113.108 90.6993 113.1C85.1086 113.057 79.514 113.077 73.9233 113.077C68.3326 113.077 62.8363 113.053 57.2929 113.1C56.3244 113.108 56.0724 112.846 56.0763 111.89C56.1157 104.67 56.0645 97.4497 56.1078 90.2295H56.1039ZM85.2582 142.917C86.2228 142.917 87.1559 143.034 87.1874 144.185C87.2228 145.415 86.2937 145.615 85.2503 145.607C81.5219 145.587 77.7934 145.599 74.0689 145.599C70.3444 145.599 66.5136 145.587 62.7379 145.607C61.7615 145.611 60.852 145.45 60.8087 144.323C60.7576 143.073 61.7143 142.917 62.7458 142.917C70.2499 142.932 77.7541 142.929 85.2582 142.917ZM75.3761 133.52C75.3761 134.886 75.3209 136.253 75.3918 137.615C75.4548 138.786 74.6713 138.555 74.0296 138.524C73.439 138.496 72.5886 138.896 72.6083 137.682C72.6516 134.902 72.6594 132.122 72.6083 129.342C72.5807 128.05 73.4705 128.472 74.1162 128.41C74.8564 128.335 75.4627 128.359 75.3997 129.424C75.317 130.783 75.38 132.153 75.38 133.52H75.3761ZM95.7703 122.815C95.8294 123.786 95.5144 124.048 94.5419 124.04C89.9276 123.989 85.3173 124.017 80.703 124.017C71.6712 124.017 62.6434 123.997 53.6117 124.044C52.5132 124.048 52.1392 123.793 52.2298 122.674C52.3361 121.366 52.3282 120.034 52.2298 118.723C52.151 117.669 52.5251 117.446 53.533 117.45C60.356 117.493 67.175 117.474 73.9981 117.474C80.8211 117.474 87.6402 117.493 94.4632 117.45C95.4671 117.442 95.849 117.658 95.7703 118.719C95.6719 120.078 95.6837 121.456 95.7703 122.815ZM133.13 142.921C134.078 142.921 135 143.003 135.023 144.205C135.051 145.489 134.102 145.607 133.086 145.603C129.314 145.587 125.543 145.599 121.771 145.599C117.999 145.599 114.326 145.591 110.601 145.607C109.641 145.607 108.735 145.489 108.704 144.311C108.668 143.019 109.633 142.921 110.641 142.925C118.137 142.932 125.629 142.932 133.126 142.925L133.13 142.921ZM120.507 129.306C120.48 128.108 121.259 128.425 121.873 128.422C122.495 128.418 123.295 128.124 123.228 129.318C123.145 130.728 123.208 132.145 123.208 133.559C123.208 134.921 123.149 136.292 123.228 137.65C123.299 138.86 122.468 138.516 121.865 138.52C121.255 138.524 120.476 138.837 120.507 137.639C120.574 134.863 120.574 132.083 120.507 129.306ZM142.315 124.044C135.449 123.993 128.582 124.017 121.72 124.017C114.857 124.017 108.184 123.989 101.416 124.044C100.357 124.052 100.077 123.754 100.148 122.744C100.239 121.432 100.255 120.105 100.148 118.797C100.058 117.693 100.4 117.438 101.503 117.446C111.263 117.493 121.019 117.474 130.779 117.474C134.653 117.474 138.527 117.509 142.401 117.45C143.382 117.435 143.65 117.716 143.594 118.66C143.512 120.023 143.504 121.393 143.594 122.756C143.661 123.774 143.362 124.052 142.319 124.044H142.315Z" fill="#404041"/>
<path d="M73.7658 65.9378C92.1088 66.0592 106.983 51.4386 107.172 33.1022C107.353 15.0712 92.4002 0.0746754 74.1634 0.00028034C55.8362 -0.0741147 40.9067 14.6679 40.8319 32.926C40.7531 50.9648 55.5724 65.8164 73.7697 65.9378H73.7658ZM74.2225 4.39742C89.9591 4.48748 102.845 17.4283 102.751 33.0513C102.656 48.9131 89.7111 61.6425 73.7737 61.5446C58.0134 61.4467 45.1509 48.5333 45.2454 32.9025C45.3398 17.0485 58.2929 4.30736 74.2186 4.39742H74.2225Z" fill="#404041"/>
<path d="M74.0217 58.0799C87.9591 58.0682 99.3098 46.7875 99.294 32.9579C99.2822 19.1204 87.9237 7.86717 73.9784 7.875C60.041 7.88284 48.6943 19.1635 48.7061 32.997C48.7179 46.8345 60.0804 58.0956 74.0178 58.0838L74.0217 58.0799ZM53.3637 35.8006C53.1629 35.1467 53.5802 35.0801 54.1629 35.0919C54.6984 35.0997 55.2535 35.0918 55.7614 34.9548C56.911 34.6494 57.5016 33.8115 57.3795 32.6642C57.2614 31.5326 56.5685 30.8278 55.3519 30.7143C53.1865 30.5107 53.1904 30.4989 53.6904 28.3102C55.5566 20.158 62.6828 13.576 70.7067 12.5149C71.6004 12.3974 71.8327 12.5697 71.7815 13.4194C71.75 13.9441 71.7815 14.5197 71.9705 15.0013C72.3642 16.0271 73.2107 16.5401 74.3012 16.36C75.4469 16.172 76.0651 15.4202 76.1714 14.2417C76.3525 12.2486 76.3682 12.2487 78.3092 12.6754C86.6559 14.5118 92.9828 21.0077 94.538 29.3008C94.727 30.3071 94.6561 30.8043 93.3923 30.7378C91.6206 30.6438 90.6324 31.47 90.5812 32.7973C90.53 34.1678 91.6127 35.1506 93.3884 35.0644C94.5931 35.0057 94.7585 35.4012 94.5813 36.4545C93.1482 45.0921 85.8606 52.2105 77.1911 53.4596C76.3249 53.5849 76.1359 53.3578 76.2068 52.6021C76.2344 52.3123 76.2226 52.0148 76.2029 51.725C76.0966 50.2215 75.2501 49.3561 73.9272 49.3953C72.6713 49.4305 71.9035 50.2684 71.7972 51.7211C71.7027 53.0106 71.0361 53.534 69.7972 53.2912C61.5489 51.6663 54.7535 44.6731 53.4345 36.4623C53.403 36.2704 53.3912 36.0746 53.3637 35.8006Z" fill="#2F9FEE"/>
<path d="M74.2264 35.1574C75.6476 35.1887 77.0689 35.1652 78.4902 35.1652C79.9115 35.1652 81.3328 35.1809 82.7541 35.1652C84.3526 35.1456 85.3014 34.3116 85.2975 32.9725C85.2975 31.6412 84.3368 30.7994 82.7384 30.7798C80.9746 30.7563 79.2068 30.7093 77.4469 30.7994C76.3918 30.8542 76.1634 30.494 76.191 29.4994C76.2618 26.7742 76.25 24.0412 76.191 21.316C76.1595 19.9025 75.2618 19.0567 74.0177 19.0489C72.7696 19.0411 71.8444 19.8907 71.8247 21.2925C71.7735 25.1414 71.7696 28.9904 71.8208 32.8394C71.8405 34.386 72.6791 35.1339 74.2303 35.1652L74.2264 35.1574Z" fill="#2F9FEE"/>
</g>
<defs>
<clipPath id="clip0_562_1589">
<rect width="148" height="150" fill="white"/>
</clipPath>
</defs>
</svg>
