<svg width="100" height="100" viewBox="0 0 100 100" fill="none" xmlns="http://www.w3.org/2000/svg">
<g clip-path="url(#clip0_562_1422)">
<path d="M99.9244 15.0125C99.8763 8.73626 96.7017 4.20611 91.1015 1.38079C89.6447 0.645243 88.0506 0.404644 86.4976 -0.0078125H13.4749C13.3993 0.0540559 13.3168 0.0884273 13.2138 0.0953016C9.23521 0.267158 6.12932 2.2057 3.57315 5.07227C1.50484 7.39578 0.219886 10.1249 0 13.2802V65.0365C0.1443 65.0915 0.158043 65.2153 0.185529 65.3459C1.65602 73.2444 7.70975 78.2695 15.7493 78.2695C30.8115 78.2695 45.8737 78.2695 60.9359 78.2557C61.7673 78.2557 62.3651 78.462 62.9698 79.0738C69.5252 85.68 76.1149 92.2449 82.684 98.8373C83.5086 99.6622 84.3469 100.336 85.5906 99.8066C86.8343 99.2773 86.9237 98.2049 86.9237 97.0431C86.903 91.0213 86.9305 85.0063 86.8893 78.9844C86.8893 78.2626 87.1298 78.0633 87.7688 77.9327C94.764 76.5509 99.9382 70.371 99.9519 63.2423C99.9863 47.1703 100.041 31.0914 99.9244 15.0193V15.0125ZM95.6229 62.8368C95.6091 68.9617 91.2801 73.4575 85.1508 73.8768C83.2543 74.0075 82.5809 74.7292 82.5809 76.6747C82.5809 81.5898 82.5809 86.5049 82.5809 91.42V92.5405C82.1892 92.1693 81.935 91.9355 81.6945 91.6949C76.1492 86.1474 70.5971 80.6136 65.0725 75.0455C64.2823 74.248 63.4302 73.8975 62.3102 73.8975C46.8563 73.9181 31.4025 73.8975 15.9486 73.925C12.8221 73.925 10.046 73.1069 7.75098 70.9278C5.46279 68.7555 4.329 66.047 4.329 62.9124C4.30839 47.0672 4.29465 31.2151 4.329 15.3699C4.34962 9.05935 9.10465 4.35047 15.4264 4.3436C38.4594 4.3161 61.4925 4.3161 84.5255 4.3436C90.8472 4.35047 95.5885 9.06622 95.6023 15.3906C95.6435 31.2082 95.6366 47.0191 95.6023 62.8368H95.6229Z" fill="#404041"/>
<path d="M53.7071 13.2462C52.484 12.9368 51.2472 13.1362 50.2165 13.0605C49.3713 13.0605 48.7185 13.0605 48.0726 13.0605C43.8535 13.0812 41.0156 16.1471 41.3592 20.3748C41.9295 27.3109 42.5617 34.2402 43.1251 41.1694C43.4412 45.0396 46.3272 47.865 50.0378 47.8306C53.7071 47.7962 56.5588 44.9503 56.8268 41.1351C57.0123 38.5091 57.2803 35.89 57.507 33.264C57.8918 28.7957 58.3179 24.3275 58.634 19.8523C58.8538 16.7177 56.7581 14.0161 53.7071 13.2393V13.2462ZM54.2843 19.9417C54.037 23.317 53.7278 26.6854 53.4323 30.0537C53.1299 33.5871 52.807 37.1205 52.5115 40.6539C52.4291 41.6781 52.1611 42.5787 51.2197 43.1355C49.6255 44.0773 47.6465 43.0667 47.4816 41.1419C46.8563 34.1096 46.2585 27.0772 45.6882 20.0379C45.5439 18.2437 46.4097 17.4051 48.2306 17.3982C48.3612 17.3982 48.4917 17.3982 48.6223 17.3982C49.0758 17.3982 49.5362 17.3982 49.9897 17.3982C50.6081 17.3982 51.2265 17.3982 51.845 17.3982C53.5354 17.412 54.4149 18.2712 54.2912 19.9486L54.2843 19.9417Z" fill="#2F9FEE"/>
<path d="M49.9828 52.168C46.4028 52.168 43.4824 55.0964 43.4824 58.6916C43.4824 62.2869 46.4028 65.2222 49.9828 65.2222C53.5697 65.2222 56.4832 62.3006 56.4832 58.6985C56.4832 55.0964 53.5697 52.168 49.9828 52.168ZM49.9416 60.8708C48.7597 60.8433 47.8046 59.8465 47.8252 58.6573C47.8458 57.468 48.8353 56.4988 50.024 56.5263C51.2128 56.5538 52.161 57.5436 52.1404 58.7398C52.1198 59.929 51.1166 60.8983 49.9416 60.8708Z" fill="#2F9FEE"/>
</g>
<defs>
<clipPath id="clip0_562_1422">
<rect width="100" height="100" fill="white"/>
</clipPath>
</defs>
</svg>
