<svg width="635" height="1372" viewBox="0 0 635 1372" fill="none" xmlns="http://www.w3.org/2000/svg">
<g filter="url(#filter0_d_956_183)">
<path d="M813.597 1258.85L111.662 883.228C50.2335 845.106 38.4877 751.914 85.541 676.094L419.463 138.023C466.503 62.2239 555.257 31.3719 616.685 69.494L1249.29 567.742C1310.72 605.864 1301.41 721.936 1254.4 797.693L1009.15 1192.88C962.095 1268.7 875.025 1296.97 813.597 1258.85Z" fill="#232C61"/>
</g>
<g clip-path="url(#clip0_956_183)">
<path d="M455.63 338.314C455.63 336.827 456.834 335.628 458.312 335.628C459.79 335.628 460.994 336.833 460.994 338.314C460.994 339.795 459.79 341 458.312 341C456.834 341 455.63 339.795 455.63 338.314Z" fill="#2F9FEE"/>
<path d="M422.091 338.314C422.091 336.827 423.294 335.628 424.773 335.628C426.251 335.628 427.455 336.833 427.455 338.314C427.455 339.795 426.251 341 424.773 341C423.294 341 422.091 339.795 422.091 338.314Z" fill="#2F9FEE"/>
<path d="M388.545 338.314C388.545 336.827 389.749 335.628 391.227 335.628C392.706 335.628 393.909 336.833 393.909 338.314C393.909 339.795 392.706 341 391.227 341C389.749 341 388.545 339.795 388.545 338.314Z" fill="#2F9FEE"/>
<path d="M355 338.314C355 336.827 356.204 335.628 357.682 335.628C359.16 335.628 360.364 336.833 360.364 338.314C360.364 339.795 359.166 341 357.682 341C356.197 341 355 339.795 355 338.314Z" fill="#2F9FEE"/>
<path d="M455.63 303.373C455.63 301.886 456.834 300.687 458.312 300.687C459.79 300.687 460.994 301.892 460.994 303.373C460.994 304.853 459.79 306.059 458.312 306.059C456.834 306.059 455.63 304.853 455.63 303.373Z" fill="#2F9FEE"/>
<path d="M422.091 303.373C422.091 301.886 423.294 300.687 424.773 300.687C426.251 300.687 427.455 301.892 427.455 303.373C427.455 304.853 426.251 306.059 424.773 306.059C423.294 306.059 422.091 304.853 422.091 303.373Z" fill="#2F9FEE"/>
<path d="M388.545 303.373C388.545 301.886 389.749 300.687 391.227 300.687C392.706 300.687 393.909 301.892 393.909 303.373C393.909 304.853 392.706 306.059 391.227 306.059C389.749 306.059 388.545 304.853 388.545 303.373Z" fill="#2F9FEE"/>
<path d="M355 303.373C355 301.886 356.204 300.687 357.682 300.687C359.16 300.687 360.364 301.892 360.364 303.373C360.364 304.853 359.16 306.059 357.682 306.059C356.204 306.059 355 304.853 355 303.373Z" fill="#2F9FEE"/>
<path d="M455.63 268.437C455.63 266.95 456.834 265.751 458.312 265.751C459.79 265.751 460.994 266.957 460.994 268.437C460.994 269.918 459.79 271.123 458.312 271.123C456.834 271.123 455.63 269.918 455.63 268.437Z" fill="#2F9FEE"/>
<path d="M422.091 268.437C422.091 266.95 423.294 265.751 424.773 265.751C426.251 265.751 427.455 266.957 427.455 268.437C427.455 269.918 426.251 271.123 424.773 271.123C423.294 271.123 422.091 269.918 422.091 268.437Z" fill="#2F9FEE"/>
<path d="M388.545 268.437C388.545 266.95 389.749 265.751 391.227 265.751C392.706 265.751 393.909 266.957 393.909 268.437C393.909 269.918 392.706 271.123 391.227 271.123C389.749 271.123 388.545 269.918 388.545 268.437Z" fill="#2F9FEE"/>
<path d="M355 268.437C355 266.95 356.204 265.751 357.682 265.751C359.16 265.751 360.364 266.957 360.364 268.437C360.364 269.918 359.16 271.123 357.682 271.123C356.204 271.123 355 269.918 355 268.437Z" fill="#2F9FEE"/>
<path d="M455.63 233.498C455.63 232.011 456.834 230.812 458.312 230.812C459.79 230.812 460.994 232.017 460.994 233.498C460.994 234.978 459.79 236.184 458.312 236.184C456.834 236.184 455.63 234.978 455.63 233.498Z" fill="#2F9FEE"/>
<path d="M422.091 233.498C422.091 232.011 423.294 230.812 424.773 230.812C426.251 230.812 427.455 232.017 427.455 233.498C427.455 234.978 426.251 236.184 424.773 236.184C423.294 236.184 422.091 234.978 422.091 233.498Z" fill="#2F9FEE"/>
<path d="M388.545 233.498C388.545 232.011 389.749 230.812 391.227 230.812C392.706 230.812 393.909 232.017 393.909 233.498C393.909 234.978 392.706 236.184 391.227 236.184C389.749 236.184 388.545 234.978 388.545 233.498Z" fill="#2F9FEE"/>
<path d="M355 233.498C355 232.011 356.204 230.812 357.682 230.812C359.16 230.812 360.364 232.017 360.364 233.498C360.364 234.978 359.16 236.184 357.682 236.184C356.204 236.184 355 234.978 355 233.498Z" fill="#2F9FEE"/>
<path d="M455.63 198.562C455.63 197.075 456.834 195.876 458.312 195.876C459.79 195.876 460.994 197.082 460.994 198.562C460.994 200.043 459.79 201.248 458.312 201.248C456.834 201.248 455.63 200.043 455.63 198.562Z" fill="#2F9FEE"/>
<path d="M422.091 198.562C422.091 197.075 423.294 195.876 424.773 195.876C426.251 195.876 427.455 197.082 427.455 198.562C427.455 200.043 426.251 201.248 424.773 201.248C423.294 201.248 422.091 200.043 422.091 198.562Z" fill="#2F9FEE"/>
<path d="M388.545 198.562C388.545 197.075 389.749 195.876 391.227 195.876C392.706 195.876 393.909 197.082 393.909 198.562C393.909 200.043 392.706 201.248 391.227 201.248C389.749 201.248 388.545 200.043 388.545 198.562Z" fill="#2F9FEE"/>
<path d="M355 198.562C355 197.075 356.204 195.876 357.682 195.876C359.16 195.876 360.364 197.082 360.364 198.562C360.364 200.043 359.16 201.248 357.682 201.248C356.204 201.248 355 200.043 355 198.562Z" fill="#2F9FEE"/>
<path d="M455.63 163.627C455.63 162.14 456.834 160.941 458.312 160.941C459.79 160.941 460.994 162.146 460.994 163.627C460.994 165.107 459.79 166.312 458.312 166.312C456.834 166.312 455.63 165.107 455.63 163.627Z" fill="#2F9FEE"/>
<path d="M422.091 163.627C422.091 162.14 423.294 160.941 424.773 160.941C426.251 160.941 427.455 162.146 427.455 163.627C427.455 165.107 426.251 166.312 424.773 166.312C423.294 166.312 422.091 165.107 422.091 163.627Z" fill="#2F9FEE"/>
<path d="M388.545 163.627C388.545 162.14 389.749 160.941 391.227 160.941C392.706 160.941 393.909 162.146 393.909 163.627C393.909 165.107 392.706 166.312 391.227 166.312C389.749 166.312 388.545 165.107 388.545 163.627Z" fill="#2F9FEE"/>
<path d="M355 163.627C355 162.14 356.204 160.941 357.682 160.941C359.16 160.941 360.364 162.146 360.364 163.627C360.364 165.107 359.16 166.312 357.682 166.312C356.204 166.312 355 165.107 355 163.627Z" fill="#2F9FEE"/>
<path d="M455.63 128.685C455.63 127.198 456.834 125.999 458.312 125.999C459.79 125.999 460.994 127.205 460.994 128.685C460.994 130.166 459.79 131.371 458.312 131.371C456.834 131.371 455.63 130.166 455.63 128.685Z" fill="#2F9FEE"/>
<path d="M422.091 128.685C422.091 127.198 423.294 125.999 424.773 125.999C426.251 125.999 427.455 127.205 427.455 128.685C427.455 130.166 426.251 131.371 424.773 131.371C423.294 131.371 422.091 130.166 422.091 128.685Z" fill="#2F9FEE"/>
<path d="M388.545 128.685C388.545 127.198 389.749 125.999 391.227 125.999C392.706 125.999 393.909 127.205 393.909 128.685C393.909 130.166 392.706 131.371 391.227 131.371C389.749 131.371 388.545 130.166 388.545 128.685Z" fill="#2F9FEE"/>
<path d="M355 128.685C355 127.198 356.204 125.999 357.682 125.999C359.16 125.999 360.364 127.205 360.364 128.685C360.364 130.166 359.16 131.371 357.682 131.371C356.204 131.371 355 130.166 355 128.685Z" fill="#2F9FEE"/>
</g>
<g clip-path="url(#clip1_956_183)">
<path d="M585.63 338.314C585.63 336.827 586.834 335.628 588.312 335.628C589.79 335.628 590.994 336.833 590.994 338.314C590.994 339.795 589.79 341 588.312 341C586.834 341 585.63 339.795 585.63 338.314Z" fill="#2F9FEE"/>
<path d="M552.091 338.314C552.091 336.827 553.294 335.628 554.773 335.628C556.251 335.628 557.455 336.833 557.455 338.314C557.455 339.795 556.251 341 554.773 341C553.294 341 552.091 339.795 552.091 338.314Z" fill="#2F9FEE"/>
<path d="M518.545 338.314C518.545 336.827 519.749 335.628 521.227 335.628C522.706 335.628 523.909 336.833 523.909 338.314C523.909 339.795 522.706 341 521.227 341C519.749 341 518.545 339.795 518.545 338.314Z" fill="#2F9FEE"/>
<path d="M485 338.314C485 336.827 486.204 335.628 487.682 335.628C489.16 335.628 490.364 336.833 490.364 338.314C490.364 339.795 489.166 341 487.682 341C486.197 341 485 339.795 485 338.314Z" fill="#2F9FEE"/>
<path d="M585.63 303.373C585.63 301.886 586.834 300.687 588.312 300.687C589.79 300.687 590.994 301.892 590.994 303.373C590.994 304.853 589.79 306.059 588.312 306.059C586.834 306.059 585.63 304.853 585.63 303.373Z" fill="#2F9FEE"/>
<path d="M552.091 303.373C552.091 301.886 553.294 300.687 554.773 300.687C556.251 300.687 557.455 301.892 557.455 303.373C557.455 304.853 556.251 306.059 554.773 306.059C553.294 306.059 552.091 304.853 552.091 303.373Z" fill="#2F9FEE"/>
<path d="M518.545 303.373C518.545 301.886 519.749 300.687 521.227 300.687C522.706 300.687 523.909 301.892 523.909 303.373C523.909 304.853 522.706 306.059 521.227 306.059C519.749 306.059 518.545 304.853 518.545 303.373Z" fill="#2F9FEE"/>
<path d="M485 303.373C485 301.886 486.204 300.687 487.682 300.687C489.16 300.687 490.364 301.892 490.364 303.373C490.364 304.853 489.16 306.059 487.682 306.059C486.204 306.059 485 304.853 485 303.373Z" fill="#2F9FEE"/>
<path d="M585.63 268.437C585.63 266.95 586.834 265.751 588.312 265.751C589.79 265.751 590.994 266.957 590.994 268.437C590.994 269.918 589.79 271.123 588.312 271.123C586.834 271.123 585.63 269.918 585.63 268.437Z" fill="#2F9FEE"/>
<path d="M552.091 268.437C552.091 266.95 553.294 265.751 554.773 265.751C556.251 265.751 557.455 266.957 557.455 268.437C557.455 269.918 556.251 271.123 554.773 271.123C553.294 271.123 552.091 269.918 552.091 268.437Z" fill="#2F9FEE"/>
<path d="M518.545 268.437C518.545 266.95 519.749 265.751 521.227 265.751C522.706 265.751 523.909 266.957 523.909 268.437C523.909 269.918 522.706 271.123 521.227 271.123C519.749 271.123 518.545 269.918 518.545 268.437Z" fill="#2F9FEE"/>
<path d="M485 268.437C485 266.95 486.204 265.751 487.682 265.751C489.16 265.751 490.364 266.957 490.364 268.437C490.364 269.918 489.16 271.123 487.682 271.123C486.204 271.123 485 269.918 485 268.437Z" fill="#2F9FEE"/>
<path d="M585.63 233.498C585.63 232.011 586.834 230.812 588.312 230.812C589.79 230.812 590.994 232.017 590.994 233.498C590.994 234.978 589.79 236.184 588.312 236.184C586.834 236.184 585.63 234.978 585.63 233.498Z" fill="#2F9FEE"/>
<path d="M552.091 233.498C552.091 232.011 553.294 230.812 554.773 230.812C556.251 230.812 557.455 232.017 557.455 233.498C557.455 234.978 556.251 236.184 554.773 236.184C553.294 236.184 552.091 234.978 552.091 233.498Z" fill="#2F9FEE"/>
<path d="M518.545 233.498C518.545 232.011 519.749 230.812 521.227 230.812C522.706 230.812 523.909 232.017 523.909 233.498C523.909 234.978 522.706 236.184 521.227 236.184C519.749 236.184 518.545 234.978 518.545 233.498Z" fill="#2F9FEE"/>
<path d="M485 233.498C485 232.011 486.204 230.812 487.682 230.812C489.16 230.812 490.364 232.017 490.364 233.498C490.364 234.978 489.16 236.184 487.682 236.184C486.204 236.184 485 234.978 485 233.498Z" fill="#2F9FEE"/>
<path d="M585.63 198.562C585.63 197.075 586.834 195.876 588.312 195.876C589.79 195.876 590.994 197.082 590.994 198.562C590.994 200.043 589.79 201.248 588.312 201.248C586.834 201.248 585.63 200.043 585.63 198.562Z" fill="#2F9FEE"/>
<path d="M552.091 198.562C552.091 197.075 553.294 195.876 554.773 195.876C556.251 195.876 557.455 197.082 557.455 198.562C557.455 200.043 556.251 201.248 554.773 201.248C553.294 201.248 552.091 200.043 552.091 198.562Z" fill="#2F9FEE"/>
<path d="M518.545 198.562C518.545 197.075 519.749 195.876 521.227 195.876C522.706 195.876 523.909 197.082 523.909 198.562C523.909 200.043 522.706 201.248 521.227 201.248C519.749 201.248 518.545 200.043 518.545 198.562Z" fill="#2F9FEE"/>
<path d="M485 198.562C485 197.075 486.204 195.876 487.682 195.876C489.16 195.876 490.364 197.082 490.364 198.562C490.364 200.043 489.16 201.248 487.682 201.248C486.204 201.248 485 200.043 485 198.562Z" fill="#2F9FEE"/>
<path d="M585.63 163.627C585.63 162.14 586.834 160.941 588.312 160.941C589.79 160.941 590.994 162.146 590.994 163.627C590.994 165.107 589.79 166.312 588.312 166.312C586.834 166.312 585.63 165.107 585.63 163.627Z" fill="#2F9FEE"/>
<path d="M552.091 163.627C552.091 162.14 553.294 160.941 554.773 160.941C556.251 160.941 557.455 162.146 557.455 163.627C557.455 165.107 556.251 166.312 554.773 166.312C553.294 166.312 552.091 165.107 552.091 163.627Z" fill="#2F9FEE"/>
<path d="M518.545 163.627C518.545 162.14 519.749 160.941 521.227 160.941C522.706 160.941 523.909 162.146 523.909 163.627C523.909 165.107 522.706 166.312 521.227 166.312C519.749 166.312 518.545 165.107 518.545 163.627Z" fill="#2F9FEE"/>
<path d="M485 163.627C485 162.14 486.204 160.941 487.682 160.941C489.16 160.941 490.364 162.146 490.364 163.627C490.364 165.107 489.16 166.312 487.682 166.312C486.204 166.312 485 165.107 485 163.627Z" fill="#2F9FEE"/>
<path d="M585.63 128.685C585.63 127.198 586.834 125.999 588.312 125.999C589.79 125.999 590.994 127.205 590.994 128.685C590.994 130.166 589.79 131.371 588.312 131.371C586.834 131.371 585.63 130.166 585.63 128.685Z" fill="#2F9FEE"/>
<path d="M552.091 128.685C552.091 127.198 553.294 125.999 554.773 125.999C556.251 125.999 557.455 127.205 557.455 128.685C557.455 130.166 556.251 131.371 554.773 131.371C553.294 131.371 552.091 130.166 552.091 128.685Z" fill="#2F9FEE"/>
<path d="M518.545 128.685C518.545 127.198 519.749 125.999 521.227 125.999C522.706 125.999 523.909 127.205 523.909 128.685C523.909 130.166 522.706 131.371 521.227 131.371C519.749 131.371 518.545 130.166 518.545 128.685Z" fill="#2F9FEE"/>
<path d="M485 128.685C485 127.198 486.204 125.999 487.682 125.999C489.16 125.999 490.364 127.205 490.364 128.685C490.364 130.166 489.16 131.371 487.682 131.371C486.204 131.371 485 130.166 485 128.685Z" fill="#2F9FEE"/>
</g>
<defs>
<filter id="filter0_d_956_183" x="40.6876" y="26.1445" width="1275.84" height="1262.6" filterUnits="userSpaceOnUse" color-interpolation-filters="sRGB">
<feFlood flood-opacity="0" result="BackgroundImageFix"/>
<feColorMatrix in="SourceAlpha" type="matrix" values="0 0 0 0 0 0 0 0 0 0 0 0 0 0 0 0 0 0 127 0" result="hardAlpha"/>
<feOffset dx="4" dy="-7"/>
<feGaussianBlur stdDeviation="10"/>
<feComposite in2="hardAlpha" operator="out"/>
<feColorMatrix type="matrix" values="0 0 0 0 0 0 0 0 0 0 0 0 0 0 0 0 0 0 0.25 0"/>
<feBlend mode="normal" in2="BackgroundImageFix" result="effect1_dropShadow_956_183"/>
<feBlend mode="normal" in="SourceGraphic" in2="effect1_dropShadow_956_183" result="shape"/>
</filter>
<clipPath id="clip0_956_183">
<rect width="215" height="106" fill="white" transform="translate(355 341) rotate(-90)"/>
</clipPath>
<clipPath id="clip1_956_183">
<rect width="215" height="106" fill="white" transform="translate(485 341) rotate(-90)"/>
</clipPath>
</defs>
</svg>
