<svg width="174" height="762" viewBox="0 0 174 762" fill="none" xmlns="http://www.w3.org/2000/svg">
<g clip-path="url(#clip0_943_182)">
<path d="M164.72 757.02C164.72 754.59 166.69 752.63 169.11 752.63C171.53 752.63 173.5 754.6 173.5 757.02C173.5 759.44 171.53 761.41 169.11 761.41C166.69 761.41 164.72 759.44 164.72 757.02Z" fill="#404041" fill-opacity="0.2"/>
<path d="M109.82 757.02C109.82 754.59 111.79 752.63 114.21 752.63C116.63 752.63 118.6 754.6 118.6 757.02C118.6 759.44 116.63 761.41 114.21 761.41C111.79 761.41 109.82 759.44 109.82 757.02Z" fill="#404041" fill-opacity="0.2"/>
<path d="M54.91 757.02C54.91 754.59 56.88 752.63 59.3 752.63C61.72 752.63 63.69 754.6 63.69 757.02C63.69 759.44 61.72 761.41 59.3 761.41C56.88 761.41 54.91 759.44 54.91 757.02Z" fill="#404041" fill-opacity="0.2"/>
<path d="M-1.91893e-07 757.02C-2.98112e-07 754.59 1.97 752.63 4.39 752.63C6.81 752.63 8.78 754.6 8.78 757.02C8.78 759.44 6.82 761.41 4.39 761.41C1.96 761.41 -8.61114e-08 759.44 -1.91893e-07 757.02Z" fill="#404041" fill-opacity="0.2"/>
<path d="M164.72 699.911C164.72 697.481 166.69 695.521 169.11 695.521C171.53 695.521 173.5 697.491 173.5 699.911C173.5 702.331 171.53 704.301 169.11 704.301C166.69 704.301 164.72 702.331 164.72 699.911Z" fill="#404041" fill-opacity="0.2"/>
<path d="M109.82 699.911C109.82 697.481 111.79 695.521 114.21 695.521C116.63 695.521 118.6 697.491 118.6 699.911C118.6 702.331 116.63 704.301 114.21 704.301C111.79 704.301 109.82 702.331 109.82 699.911Z" fill="#404041" fill-opacity="0.2"/>
<path d="M54.91 699.911C54.91 697.481 56.88 695.521 59.3 695.521C61.72 695.521 63.69 697.491 63.69 699.911C63.69 702.331 61.72 704.301 59.3 704.301C56.88 704.301 54.91 702.331 54.91 699.911Z" fill="#404041" fill-opacity="0.2"/>
<path d="M-1.91893e-07 699.911C-2.98112e-07 697.481 1.97 695.521 4.39 695.521C6.81 695.521 8.78 697.491 8.78 699.911C8.78 702.331 6.81 704.301 4.39 704.301C1.97 704.301 -8.61114e-08 702.331 -1.91893e-07 699.911Z" fill="#404041" fill-opacity="0.2"/>
<path d="M164.72 642.809C164.72 640.379 166.69 638.419 169.11 638.419C171.53 638.419 173.5 640.389 173.5 642.809C173.5 645.229 171.53 647.199 169.11 647.199C166.69 647.199 164.72 645.229 164.72 642.809Z" fill="#404041" fill-opacity="0.2"/>
<path d="M109.82 642.809C109.82 640.379 111.79 638.419 114.21 638.419C116.63 638.419 118.6 640.389 118.6 642.809C118.6 645.229 116.63 647.199 114.21 647.199C111.79 647.199 109.82 645.229 109.82 642.809Z" fill="#404041" fill-opacity="0.2"/>
<path d="M54.91 642.809C54.91 640.379 56.88 638.419 59.3 638.419C61.72 638.419 63.69 640.389 63.69 642.809C63.69 645.229 61.72 647.199 59.3 647.199C56.88 647.199 54.91 645.229 54.91 642.809Z" fill="#404041" fill-opacity="0.2"/>
<path d="M-1.91893e-07 642.809C-2.98112e-07 640.379 1.97 638.419 4.39 638.419C6.81 638.419 8.78 640.389 8.78 642.809C8.78 645.229 6.81 647.199 4.39 647.199C1.97 647.199 -8.61114e-08 645.229 -1.91893e-07 642.809Z" fill="#404041" fill-opacity="0.2"/>
<path d="M164.72 585.7C164.72 583.27 166.69 581.31 169.11 581.31C171.53 581.31 173.5 583.28 173.5 585.7C173.5 588.12 171.53 590.09 169.11 590.09C166.69 590.09 164.72 588.12 164.72 585.7Z" fill="#404041" fill-opacity="0.2"/>
<path d="M109.82 585.7C109.82 583.27 111.79 581.31 114.21 581.31C116.63 581.31 118.6 583.28 118.6 585.7C118.6 588.12 116.63 590.09 114.21 590.09C111.79 590.09 109.82 588.12 109.82 585.7Z" fill="#404041" fill-opacity="0.2"/>
<path d="M54.91 585.7C54.91 583.27 56.88 581.31 59.3 581.31C61.72 581.31 63.69 583.28 63.69 585.7C63.69 588.12 61.72 590.09 59.3 590.09C56.88 590.09 54.91 588.12 54.91 585.7Z" fill="#404041" fill-opacity="0.2"/>
<path d="M-1.91893e-07 585.7C-2.98112e-07 583.27 1.97 581.31 4.39 581.31C6.81 581.31 8.78 583.28 8.78 585.7C8.78 588.12 6.81 590.09 4.39 590.09C1.97 590.09 -8.61114e-08 588.12 -1.91893e-07 585.7Z" fill="#404041" fill-opacity="0.2"/>
<path d="M164.72 528.6C164.72 526.17 166.69 524.21 169.11 524.21C171.53 524.21 173.5 526.18 173.5 528.6C173.5 531.02 171.53 532.99 169.11 532.99C166.69 532.99 164.72 531.02 164.72 528.6Z" fill="#404041" fill-opacity="0.2"/>
<path d="M109.82 528.6C109.82 526.17 111.79 524.21 114.21 524.21C116.63 524.21 118.6 526.18 118.6 528.6C118.6 531.02 116.63 532.99 114.21 532.99C111.79 532.99 109.82 531.02 109.82 528.6Z" fill="#404041" fill-opacity="0.2"/>
<path d="M54.91 528.6C54.91 526.17 56.88 524.21 59.3 524.21C61.72 524.21 63.69 526.18 63.69 528.6C63.69 531.02 61.72 532.99 59.3 532.99C56.88 532.99 54.91 531.02 54.91 528.6Z" fill="#404041" fill-opacity="0.2"/>
<path d="M-1.54507e-05 528.6C-1.55569e-05 526.17 1.96998 524.21 4.38998 524.21C6.80998 524.21 8.77998 526.18 8.77998 528.6C8.77998 531.02 6.80998 532.99 4.38998 532.99C1.96998 532.99 -1.53449e-05 531.02 -1.54507e-05 528.6Z" fill="#404041" fill-opacity="0.2"/>
<path d="M164.72 471.501C164.72 469.071 166.69 467.111 169.11 467.111C171.53 467.111 173.5 469.081 173.5 471.501C173.5 473.921 171.53 475.891 169.11 475.891C166.69 475.891 164.72 473.921 164.72 471.501Z" fill="#404041" fill-opacity="0.2"/>
<path d="M109.82 471.501C109.82 469.071 111.79 467.111 114.21 467.111C116.63 467.111 118.6 469.081 118.6 471.501C118.6 473.921 116.63 475.891 114.21 475.891C111.79 475.891 109.82 473.921 109.82 471.501Z" fill="#404041" fill-opacity="0.2"/>
<path d="M54.91 471.501C54.91 469.071 56.88 467.111 59.3 467.111C61.72 467.111 63.69 469.081 63.69 471.501C63.69 473.921 61.72 475.891 59.3 475.891C56.88 475.891 54.91 473.921 54.91 471.501Z" fill="#404041" fill-opacity="0.2"/>
<path d="M-1.54507e-05 471.501C-1.55569e-05 469.071 1.96998 467.111 4.38998 467.111C6.80998 467.111 8.77998 469.081 8.77998 471.501C8.77998 473.921 6.80998 475.891 4.38998 475.891C1.96998 475.891 -1.53449e-05 473.921 -1.54507e-05 471.501Z" fill="#404041" fill-opacity="0.2"/>
<path d="M164.72 414.389C164.72 411.959 166.69 409.999 169.11 409.999C171.53 409.999 173.5 411.969 173.5 414.389C173.5 416.809 171.53 418.779 169.11 418.779C166.69 418.779 164.72 416.809 164.72 414.389Z" fill="#404041" fill-opacity="0.2"/>
<path d="M109.82 414.389C109.82 411.959 111.79 409.999 114.21 409.999C116.63 409.999 118.6 411.969 118.6 414.389C118.6 416.809 116.63 418.779 114.21 418.779C111.79 418.779 109.82 416.809 109.82 414.389Z" fill="#404041" fill-opacity="0.2"/>
<path d="M54.91 414.389C54.91 411.959 56.88 409.999 59.3 409.999C61.72 409.999 63.69 411.969 63.69 414.389C63.69 416.809 61.72 418.779 59.3 418.779C56.88 418.779 54.91 416.809 54.91 414.389Z" fill="#404041" fill-opacity="0.2"/>
<path d="M-1.54507e-05 414.389C-1.55569e-05 411.959 1.96998 409.999 4.38998 409.999C6.80998 409.999 8.77998 411.969 8.77998 414.389C8.77998 416.809 6.80998 418.779 4.38998 418.779C1.96998 418.779 -1.53449e-05 416.809 -1.54507e-05 414.389Z" fill="#404041" fill-opacity="0.2"/>
</g>
<g clip-path="url(#clip1_943_182)">
<path d="M164.72 347.02C164.72 344.59 166.69 342.63 169.11 342.63C171.53 342.63 173.5 344.6 173.5 347.02C173.5 349.44 171.53 351.41 169.11 351.41C166.69 351.41 164.72 349.44 164.72 347.02Z" fill="#404041" fill-opacity="0.2"/>
<path d="M109.82 347.02C109.82 344.59 111.79 342.63 114.21 342.63C116.63 342.63 118.6 344.6 118.6 347.02C118.6 349.44 116.63 351.41 114.21 351.41C111.79 351.41 109.82 349.44 109.82 347.02Z" fill="#404041" fill-opacity="0.2"/>
<path d="M54.91 347.02C54.91 344.59 56.88 342.63 59.3 342.63C61.72 342.63 63.69 344.6 63.69 347.02C63.69 349.44 61.72 351.41 59.3 351.41C56.88 351.41 54.91 349.44 54.91 347.02Z" fill="#404041" fill-opacity="0.2"/>
<path d="M-1.91893e-07 347.02C-2.98112e-07 344.59 1.97 342.63 4.39 342.63C6.81 342.63 8.78 344.6 8.78 347.02C8.78 349.44 6.82 351.41 4.39 351.41C1.96 351.41 -8.61114e-08 349.44 -1.91893e-07 347.02Z" fill="#404041" fill-opacity="0.2"/>
<path d="M164.72 289.911C164.72 287.481 166.69 285.521 169.11 285.521C171.53 285.521 173.5 287.491 173.5 289.911C173.5 292.331 171.53 294.301 169.11 294.301C166.69 294.301 164.72 292.331 164.72 289.911Z" fill="#404041" fill-opacity="0.2"/>
<path d="M109.82 289.911C109.82 287.481 111.79 285.521 114.21 285.521C116.63 285.521 118.6 287.491 118.6 289.911C118.6 292.331 116.63 294.301 114.21 294.301C111.79 294.301 109.82 292.331 109.82 289.911Z" fill="#404041" fill-opacity="0.2"/>
<path d="M54.91 289.911C54.91 287.481 56.88 285.521 59.3 285.521C61.72 285.521 63.69 287.491 63.69 289.911C63.69 292.331 61.72 294.301 59.3 294.301C56.88 294.301 54.91 292.331 54.91 289.911Z" fill="#404041" fill-opacity="0.2"/>
<path d="M-1.91893e-07 289.911C-2.98112e-07 287.481 1.97 285.521 4.39 285.521C6.81 285.521 8.78 287.491 8.78 289.911C8.78 292.331 6.81 294.301 4.39 294.301C1.97 294.301 -8.61114e-08 292.331 -1.91893e-07 289.911Z" fill="#404041" fill-opacity="0.2"/>
<path d="M164.72 232.809C164.72 230.379 166.69 228.419 169.11 228.419C171.53 228.419 173.5 230.389 173.5 232.809C173.5 235.229 171.53 237.199 169.11 237.199C166.69 237.199 164.72 235.229 164.72 232.809Z" fill="#404041" fill-opacity="0.2"/>
<path d="M109.82 232.809C109.82 230.379 111.79 228.419 114.21 228.419C116.63 228.419 118.6 230.389 118.6 232.809C118.6 235.229 116.63 237.199 114.21 237.199C111.79 237.199 109.82 235.229 109.82 232.809Z" fill="#404041" fill-opacity="0.2"/>
<path d="M54.91 232.809C54.91 230.379 56.88 228.419 59.3 228.419C61.72 228.419 63.69 230.389 63.69 232.809C63.69 235.229 61.72 237.199 59.3 237.199C56.88 237.199 54.91 235.229 54.91 232.809Z" fill="#404041" fill-opacity="0.2"/>
<path d="M-1.91893e-07 232.809C-2.98112e-07 230.379 1.97 228.419 4.39 228.419C6.81 228.419 8.78 230.389 8.78 232.809C8.78 235.229 6.81 237.199 4.39 237.199C1.97 237.199 -8.61114e-08 235.229 -1.91893e-07 232.809Z" fill="#404041" fill-opacity="0.2"/>
<path d="M164.72 175.7C164.72 173.27 166.69 171.31 169.11 171.31C171.53 171.31 173.5 173.28 173.5 175.7C173.5 178.12 171.53 180.09 169.11 180.09C166.69 180.09 164.72 178.12 164.72 175.7Z" fill="#404041" fill-opacity="0.2"/>
<path d="M109.82 175.7C109.82 173.27 111.79 171.31 114.21 171.31C116.63 171.31 118.6 173.28 118.6 175.7C118.6 178.12 116.63 180.09 114.21 180.09C111.79 180.09 109.82 178.12 109.82 175.7Z" fill="#404041" fill-opacity="0.2"/>
<path d="M54.91 175.7C54.91 173.27 56.88 171.31 59.3 171.31C61.72 171.31 63.69 173.28 63.69 175.7C63.69 178.12 61.72 180.09 59.3 180.09C56.88 180.09 54.91 178.12 54.91 175.7Z" fill="#404041" fill-opacity="0.2"/>
<path d="M-1.91893e-07 175.7C-2.98112e-07 173.27 1.97 171.31 4.39 171.31C6.81 171.31 8.78 173.28 8.78 175.7C8.78 178.12 6.81 180.09 4.39 180.09C1.97 180.09 -8.61114e-08 178.12 -1.91893e-07 175.7Z" fill="#404041" fill-opacity="0.2"/>
<path d="M164.72 118.6C164.72 116.17 166.69 114.21 169.11 114.21C171.53 114.21 173.5 116.18 173.5 118.6C173.5 121.02 171.53 122.99 169.11 122.99C166.69 122.99 164.72 121.02 164.72 118.6Z" fill="#404041" fill-opacity="0.2"/>
<path d="M109.82 118.6C109.82 116.17 111.79 114.21 114.21 114.21C116.63 114.21 118.6 116.18 118.6 118.6C118.6 121.02 116.63 122.99 114.21 122.99C111.79 122.99 109.82 121.02 109.82 118.6Z" fill="#404041" fill-opacity="0.2"/>
<path d="M54.91 118.6C54.91 116.17 56.88 114.21 59.3 114.21C61.72 114.21 63.69 116.18 63.69 118.6C63.69 121.02 61.72 122.99 59.3 122.99C56.88 122.99 54.91 121.02 54.91 118.6Z" fill="#404041" fill-opacity="0.2"/>
<path d="M-1.54507e-05 118.6C-1.55569e-05 116.17 1.96998 114.21 4.38998 114.21C6.80998 114.21 8.77998 116.18 8.77998 118.6C8.77998 121.02 6.80998 122.99 4.38998 122.99C1.96998 122.99 -1.53449e-05 121.02 -1.54507e-05 118.6Z" fill="#404041" fill-opacity="0.2"/>
<path d="M164.72 61.5006C164.72 59.0706 166.69 57.1106 169.11 57.1106C171.53 57.1106 173.5 59.0806 173.5 61.5006C173.5 63.9206 171.53 65.8906 169.11 65.8906C166.69 65.8906 164.72 63.9206 164.72 61.5006Z" fill="#404041" fill-opacity="0.2"/>
<path d="M109.82 61.5006C109.82 59.0706 111.79 57.1106 114.21 57.1106C116.63 57.1106 118.6 59.0806 118.6 61.5006C118.6 63.9206 116.63 65.8906 114.21 65.8906C111.79 65.8906 109.82 63.9206 109.82 61.5006Z" fill="#404041" fill-opacity="0.2"/>
<path d="M54.91 61.5006C54.91 59.0706 56.88 57.1106 59.3 57.1106C61.72 57.1106 63.69 59.0806 63.69 61.5006C63.69 63.9206 61.72 65.8906 59.3 65.8906C56.88 65.8906 54.91 63.9206 54.91 61.5006Z" fill="#404041" fill-opacity="0.2"/>
<path d="M-1.54507e-05 61.5006C-1.55569e-05 59.0706 1.96998 57.1106 4.38998 57.1106C6.80998 57.1106 8.77998 59.0806 8.77998 61.5006C8.77998 63.9206 6.80998 65.8906 4.38998 65.8906C1.96998 65.8906 -1.53449e-05 63.9206 -1.54507e-05 61.5006Z" fill="#404041" fill-opacity="0.2"/>
<path d="M164.72 4.38931C164.72 1.95931 166.69 -0.00070199 169.11 -0.000702096C171.53 -0.000702202 173.5 1.96931 173.5 4.38931C173.5 6.80931 171.53 8.7793 169.11 8.7793C166.69 8.7793 164.72 6.80931 164.72 4.38931Z" fill="#404041" fill-opacity="0.2"/>
<path d="M109.82 4.38931C109.82 1.95931 111.79 -0.00070199 114.21 -0.000702096C116.63 -0.000702202 118.6 1.96931 118.6 4.38931C118.6 6.80931 116.63 8.7793 114.21 8.7793C111.79 8.7793 109.82 6.80931 109.82 4.38931Z" fill="#404041" fill-opacity="0.2"/>
<path d="M54.91 4.38931C54.91 1.95931 56.88 -0.00070199 59.3 -0.000702096C61.72 -0.000702202 63.69 1.96931 63.69 4.38931C63.69 6.80931 61.72 8.7793 59.3 8.7793C56.88 8.7793 54.91 6.80931 54.91 4.38931Z" fill="#404041" fill-opacity="0.2"/>
<path d="M-1.54507e-05 4.38931C-1.55569e-05 1.95931 1.96998 -0.00070199 4.38998 -0.000702096C6.80998 -0.000702202 8.77998 1.96931 8.77998 4.38931C8.77998 6.80931 6.80998 8.7793 4.38998 8.7793C1.96998 8.7793 -1.53449e-05 6.80931 -1.54507e-05 4.38931Z" fill="#404041" fill-opacity="0.2"/>
</g>
<defs>
<clipPath id="clip0_943_182">
<rect width="351.41" height="173.51" fill="white" transform="translate(0 761.41) rotate(-90)"/>
</clipPath>
<clipPath id="clip1_943_182">
<rect width="351.41" height="173.51" fill="white" transform="translate(0 351.41) rotate(-90)"/>
</clipPath>
</defs>
</svg>
