<svg width="148" height="150" viewBox="0 0 148 150" fill="none" xmlns="http://www.w3.org/2000/svg">
<g clip-path="url(#clip0_405_402)">
<path d="M147.972 117.395C147.941 115.496 147.019 114.079 145.24 113.449C144.299 113.116 144.118 112.681 144.126 111.788C144.161 104.564 144.126 97.3362 144.157 90.112C144.169 87.4808 143.649 84.9787 142.523 82.6059C141.814 81.1102 140.712 80.6012 139.476 81.1298C138.173 81.6858 137.803 82.8918 138.523 84.4541C139.354 86.2591 139.747 88.1308 139.74 90.1198C139.716 97.344 139.712 104.572 139.751 111.796C139.755 112.759 139.602 113.116 138.515 113.112C127.42 113.069 116.326 113.077 105.231 113.1C104.337 113.1 103.979 112.967 103.987 111.941C104.038 104.568 103.971 97.1991 104.03 89.8262C104.085 82.9818 109.188 77.6293 116.054 77.6136C121.507 77.6019 127.035 76.7366 132.424 78.4751C133.598 78.8549 134.59 78.1814 134.936 77.0067C135.279 75.8517 134.877 74.8532 133.684 74.3755C132.826 74.0309 131.932 73.7529 131.031 73.5415C128.322 72.9033 125.558 73.1617 122.814 73.1578C119.775 73.1539 116.707 72.8641 113.696 73.3614C105.51 74.7044 99.7228 81.396 99.6204 89.6656C99.5299 97.0347 99.5456 104.408 99.6401 111.781C99.6598 113.182 98.8488 113.546 97.9472 113.554C97.0062 113.562 96.266 113.127 96.2818 111.749C96.3802 104.525 96.3566 97.3009 96.3172 90.0728C96.2739 82.1439 91.1281 75.5306 83.5885 73.6276C80.738 72.9111 77.8285 73.1617 74.9387 73.1578C71.8992 73.1578 68.8283 72.8641 65.8203 73.3614C57.4421 74.7436 51.7412 81.584 51.6861 90.253C51.6388 97.4301 51.6231 104.607 51.7215 111.781C51.7412 113.182 50.9302 113.562 50.0246 113.55C49.1191 113.539 48.3435 113.124 48.3632 111.741C48.4616 104.372 48.4537 96.9994 48.3947 89.6265C48.3317 82.0069 43.1229 75.4875 35.7211 73.6237C32.8706 72.9072 29.9611 73.1578 27.0713 73.1578C24.0318 73.1578 20.9648 72.8641 17.9529 73.3614C9.71252 74.724 3.94465 81.4665 3.86985 89.8144C3.80292 97.1874 3.84229 104.556 3.86985 111.929C3.86985 112.701 3.74386 113.112 2.90132 113.398C1.05087 114.028 0.0626583 115.426 0.0311614 117.391C-0.00427264 119.635 -0.016084 121.883 0.0311614 124.126C0.0823438 126.519 1.78711 128.261 4.18875 128.386C5.51162 128.457 6.83843 128.445 8.16524 128.394C9.61016 128.339 10.4251 127.521 10.4291 126.237C10.4291 124.98 9.60228 124.134 8.17705 124.036C7.29907 123.977 6.40141 123.946 5.52737 124.036C4.56672 124.134 4.3738 123.746 4.4171 122.881C4.48797 121.518 4.52341 120.14 4.40923 118.785C4.31474 117.654 4.70845 117.442 5.77935 117.45C15.5473 117.493 25.3192 117.478 35.0872 117.478C38.9653 117.478 42.8433 117.509 46.7214 117.454C47.623 117.442 47.9143 117.654 47.8592 118.574C47.7726 119.937 47.7647 121.311 47.8592 122.674C47.9379 123.746 47.6427 124.056 46.5127 124.048C37.5794 123.997 28.6422 124.017 19.7089 124.024C19.1262 124.024 18.5198 124.036 17.9608 124.177C16.8584 124.455 16.3229 125.285 16.3899 126.354C16.4568 127.419 17.0592 128.179 18.197 128.351C18.5828 128.41 18.9844 128.437 19.3703 128.402C20.1144 128.328 20.4057 128.555 20.3939 129.361C20.3467 132.094 20.3506 134.827 20.3939 137.56C20.4057 138.328 20.1813 138.567 19.4018 138.547C17.5867 138.496 15.7678 138.488 13.9528 138.559C10.9566 138.668 8.61013 141.077 8.53533 144.048C8.45658 147.2 10.311 148.915 13.0197 149.992H39.2369C40.2606 149.702 41.3039 149.546 42.1465 148.743C43.9851 146.993 44.6701 144.444 43.7174 142.04C42.7646 139.636 40.9417 138.316 38.3314 138.156C37.0085 138.073 35.6817 138.14 34.3588 138.132C32.4375 138.116 32.3312 138.019 32.3155 136.178C32.3037 134.471 32.3115 132.764 32.3155 131.053C32.3194 128.754 32.3234 128.731 34.5754 128.754C41.3393 128.825 48.1033 128.625 54.8712 128.739C58.5485 128.801 62.2297 128.739 65.9109 128.754C67.4897 128.762 67.6471 128.907 67.6668 130.383C67.6944 132.482 67.655 134.581 67.6786 136.679C67.6904 137.756 67.1944 138.156 66.1589 138.14C64.7849 138.116 63.4108 138.097 62.0368 138.152C58.7178 138.289 56.2649 140.583 55.9618 143.806C55.6822 146.781 57.5721 149.225 60.7454 149.996H87.2579C88.5886 149.753 89.7816 149.272 90.6399 148.16C92.1478 146.21 92.4982 144.091 91.5257 141.828C90.569 139.612 88.7816 138.434 86.4075 138.183C84.994 138.034 83.5649 138.156 82.1396 138.128C80.5018 138.101 80.3561 137.968 80.3364 136.382C80.3128 134.526 80.3246 132.674 80.3325 130.818C80.3404 128.821 80.4073 128.739 82.3916 128.75C89.2068 128.786 96.018 128.676 102.833 128.739C106.562 128.774 110.29 128.77 114.022 128.731C115.188 128.719 115.739 129.083 115.707 130.317C115.652 132.364 115.715 134.416 115.684 136.464C115.664 137.948 115.495 138.093 113.94 138.12C112.715 138.144 111.487 138.112 110.258 138.128C106.877 138.175 104.337 140.266 103.963 143.304C103.534 146.801 105.199 149.123 108.762 149.984H134.984C135.145 149.89 135.295 149.773 135.468 149.71C138.393 148.626 139.897 146.124 139.401 143.164C138.952 140.497 136.57 138.578 133.613 138.528C131.944 138.5 130.275 138.481 128.605 138.539C127.822 138.567 127.605 138.316 127.617 137.549C127.661 134.96 127.708 132.372 127.601 129.788C127.55 128.57 127.983 128.363 129.086 128.378C133.846 128.433 138.61 128.429 143.37 128.39C146.22 128.371 147.952 126.624 147.984 123.825C148.008 121.675 148.008 119.529 147.976 117.38L147.972 117.395ZM42.7685 113.1C37.2211 113.065 31.6737 113.084 26.1263 113.084C20.579 113.084 15.0316 113.065 9.48417 113.104C8.57863 113.112 8.24004 112.951 8.24792 111.937C8.2991 104.564 8.2361 97.1952 8.28729 89.8223C8.33847 83.0014 13.4567 77.7781 20.3191 77.5745C24.1932 77.4609 28.0752 77.4609 31.9533 77.5745C38.8196 77.7781 43.9182 82.9779 43.9733 89.8301C44.0363 97.203 43.9654 104.572 44.0166 111.945C44.0245 112.979 43.6544 113.104 42.7685 113.1ZM26.1657 128.375C27.1461 128.386 27.5358 128.563 27.4965 129.643C27.4098 132.173 27.398 134.714 27.5004 137.243C27.5476 138.414 27.1106 138.535 26.0909 138.578C24.9176 138.625 24.6893 138.21 24.7641 137.169C24.8507 135.955 24.7838 134.733 24.7838 133.516C24.7838 132.298 24.8743 130.974 24.7562 129.718C24.6499 128.555 25.1145 128.363 26.1578 128.375H26.1657ZM37.3196 142.921C38.3196 142.921 39.3117 142.987 39.292 144.276C39.2724 145.556 38.2763 145.607 37.2802 145.603C33.5084 145.587 29.7367 145.599 25.9649 145.599C22.1932 145.599 18.6183 145.591 14.941 145.603C13.937 145.603 12.9606 145.521 12.9725 144.236C12.9843 142.929 14 142.921 14.9804 142.921C22.4255 142.929 29.8745 142.929 37.3196 142.921ZM56.1035 90.2295C56.1468 82.8487 61.3832 77.6215 68.7771 77.5392C72.2614 77.5001 75.7418 77.5001 79.2262 77.5392C86.5571 77.6254 91.821 82.8095 91.8879 90.0963C91.9549 97.3636 91.884 104.635 91.9273 111.902C91.9312 112.881 91.6478 113.108 90.6989 113.1C85.1082 113.057 79.5136 113.077 73.9229 113.077C68.3322 113.077 62.836 113.053 57.2925 113.1C56.324 113.108 56.072 112.846 56.076 111.89C56.1153 104.67 56.0641 97.4497 56.1075 90.2295H56.1035ZM85.2578 142.917C86.2224 142.917 87.1555 143.034 87.187 144.185C87.2225 145.415 86.2933 145.615 85.25 145.607C81.5215 145.587 77.7931 145.599 74.0686 145.599C70.3441 145.599 66.5132 145.587 62.7376 145.607C61.7612 145.611 60.8517 145.45 60.8084 144.323C60.7572 143.073 61.7139 142.917 62.7454 142.917C70.2496 142.932 77.7537 142.929 85.2578 142.917ZM75.3757 133.52C75.3757 134.886 75.3206 136.253 75.3914 137.615C75.4544 138.786 74.6709 138.555 74.0292 138.524C73.4386 138.496 72.5882 138.896 72.6079 137.682C72.6512 134.902 72.6591 132.122 72.6079 129.342C72.5803 128.05 73.4701 128.472 74.1158 128.41C74.856 128.335 75.4623 128.359 75.3993 129.424C75.3166 130.783 75.3796 132.153 75.3796 133.52H75.3757ZM95.7699 122.815C95.829 123.786 95.514 124.048 94.5415 124.04C89.9273 123.989 85.3169 124.017 80.7026 124.017C71.6709 124.017 62.6431 123.997 53.6113 124.044C52.5129 124.048 52.1388 123.793 52.2294 122.674C52.3357 121.366 52.3278 120.034 52.2294 118.723C52.1507 117.669 52.5247 117.446 53.5326 117.45C60.3556 117.493 67.1747 117.474 73.9977 117.474C80.8207 117.474 87.6398 117.493 94.4628 117.45C95.4668 117.442 95.8487 117.658 95.7699 118.719C95.6715 120.078 95.6833 121.456 95.7699 122.815ZM133.129 142.921C134.078 142.921 134.999 143.003 135.023 144.205C135.051 145.489 134.102 145.607 133.086 145.603C129.314 145.587 125.542 145.599 121.771 145.599C117.999 145.599 114.326 145.591 110.601 145.607C109.64 145.607 108.735 145.489 108.703 144.311C108.668 143.019 109.632 142.921 110.64 142.925C118.137 142.932 125.629 142.932 133.125 142.925L133.129 142.921ZM120.507 129.306C120.479 128.108 121.259 128.425 121.873 128.422C122.495 128.418 123.294 128.124 123.227 129.318C123.145 130.728 123.208 132.145 123.208 133.559C123.208 134.921 123.149 136.292 123.227 137.65C123.298 138.86 122.467 138.516 121.865 138.52C121.255 138.524 120.475 138.837 120.507 137.639C120.574 134.863 120.574 132.083 120.507 129.306ZM142.314 124.044C135.448 123.993 128.582 124.017 121.719 124.017C114.857 124.017 108.184 123.989 101.416 124.044C100.357 124.052 100.077 123.754 100.148 122.744C100.239 121.432 100.254 120.105 100.148 118.797C100.057 117.693 100.4 117.438 101.502 117.446C111.262 117.493 121.019 117.474 130.779 117.474C134.653 117.474 138.527 117.509 142.401 117.45C143.381 117.435 143.649 117.716 143.594 118.66C143.511 120.023 143.503 121.393 143.594 122.756C143.661 123.774 143.362 124.052 142.318 124.044H142.314Z" fill="#404041"/>
<path d="M73.7663 65.9375C92.1093 66.0589 106.984 51.4383 107.173 33.1019C107.354 15.0709 92.4006 0.0744313 74.1639 3.61996e-05C55.8367 -0.0743589 40.9071 14.6676 40.8323 32.9257C40.7536 50.9646 55.5729 65.8162 73.7702 65.9375H73.7663ZM74.223 4.39718C89.9596 4.48723 102.846 17.4281 102.751 33.051C102.657 48.9128 89.7116 61.6422 73.7742 61.5443C58.0139 61.4464 45.1514 48.533 45.2458 32.9022C45.3403 17.0483 58.2934 4.30712 74.2191 4.39718H74.223Z" fill="#404041"/>
<path d="M74.0207 58.0791C87.9581 58.0673 99.3088 46.7867 99.2931 32.957C99.2812 19.1195 87.9227 7.86632 73.9774 7.87415C60.04 7.88198 48.6933 19.1626 48.7051 32.9962C48.7169 46.8337 60.0794 58.0947 74.0168 58.083L74.0207 58.0791ZM53.3627 35.7997C53.1619 35.1458 53.5792 35.0792 54.1619 35.091C54.6974 35.0988 55.2525 35.091 55.7604 34.9539C56.91 34.6485 57.5006 33.8106 57.3786 32.6634C57.2604 31.5318 56.5675 30.827 55.3509 30.7134C53.1855 30.5098 53.1895 30.4981 53.6895 28.3093C55.5557 20.1572 62.6818 13.5752 70.7057 12.5141C71.5994 12.3966 71.8317 12.5689 71.7805 13.4185C71.749 13.9432 71.7805 14.5188 71.9695 15.0004C72.3632 16.0263 73.2097 16.5392 74.3003 16.3591C75.446 16.1712 76.0641 15.4194 76.1704 14.2408C76.3515 12.2478 76.3672 12.2478 78.3082 12.6746C86.6549 14.511 92.9819 21.0068 94.537 29.2999C94.726 30.3062 94.6551 30.8035 93.3913 30.7369C91.6196 30.643 90.6314 31.4691 90.5802 32.7965C90.5291 34.1669 91.6118 35.1497 93.3874 35.0636C94.5921 35.0049 94.7575 35.4003 94.5803 36.4536C93.1472 45.0913 85.8596 52.2097 77.1901 53.4587C76.3239 53.584 76.135 53.3569 76.2058 52.6012C76.2334 52.3115 76.2216 52.0139 76.2019 51.7242C76.0956 50.2206 75.2491 49.3553 73.9262 49.3944C72.6703 49.4297 71.9026 50.2676 71.7963 51.7202C71.7018 53.0098 71.0351 53.5331 69.7962 53.2904C61.548 51.6654 54.7525 44.6723 53.4336 36.4614C53.4021 36.2696 53.3903 36.0738 53.3627 35.7997Z" fill="#2F9FEE"/>
<path d="M74.2272 35.1575C75.6485 35.1888 77.0698 35.1653 78.4911 35.1653C79.9124 35.1653 81.3337 35.181 82.755 35.1653C84.3535 35.1457 85.3023 34.3117 85.2984 32.9726C85.2984 31.6413 84.3377 30.7995 82.7392 30.7799C80.9754 30.7564 79.2077 30.7094 77.4478 30.7995C76.3926 30.8543 76.1643 30.4941 76.1918 29.4995C76.2627 26.7743 76.2509 24.0413 76.1918 21.3161C76.1603 19.9026 75.2627 19.0568 74.0185 19.049C72.7705 19.0412 71.8453 19.8908 71.8256 21.2926C71.7744 25.1416 71.7704 28.9905 71.8216 32.8395C71.8413 34.3861 72.6799 35.134 74.2311 35.1653L74.2272 35.1575Z" fill="#2F9FEE"/>
</g>
<defs>
<clipPath id="clip0_405_402">
<rect width="148" height="150" fill="white"/>
</clipPath>
</defs>
</svg>
