<svg width="151" height="151" viewBox="0 0 151 151" fill="none" xmlns="http://www.w3.org/2000/svg">
<g clip-path="url(#clip0_2407_285)">
<path d="M150.748 96.4286C149.968 93.3073 147.983 91.3999 144.855 90.7811C141.762 90.1703 139.237 91.2777 137.398 93.7842C136.858 94.5172 136.385 94.4975 135.692 94.2807C131.899 93.0827 128.538 91.1043 126.179 87.9121C122.728 83.2459 118.556 79.3285 114.243 75.5294C113.534 74.9028 113.293 74.3865 113.565 73.4288C116.303 63.7773 116.398 54.0627 114.125 44.3087C106.939 13.415 74.9486 -6.05752 44.1435 1.71022C9.19827 10.5184 -9.57234 47.9068 4.93992 80.8576C14.2287 101.942 31.0297 113.351 53.968 115.57C55.6816 115.736 57.2455 115.712 58.1594 117.497C58.3918 117.95 58.8685 118.341 59.3294 118.597C60.2197 119.093 60.2315 119.503 59.6563 120.362C56.2843 125.411 58.0649 132.099 63.5247 134.739C64.6395 135.279 64.4701 135.642 64.0368 136.509C61.7363 141.124 63.3277 146.645 67.6531 149.439C68.823 150.192 70.1624 150.476 71.4111 150.996H115.921C116.141 150.629 116.484 150.708 116.819 150.736C117.114 150.736 117.41 150.744 117.705 150.744C117.902 150.744 118.095 150.744 118.292 150.744C118.537 150.708 118.789 150.657 118.867 150.992H119.75C121.424 150.661 123.142 150.815 124.82 150.432C129.066 149.471 132.769 147.378 136.33 144.998C137.299 144.351 138.079 144.202 139.115 144.939C144 148.411 150.626 144.927 150.996 139.788V96.736C150.909 96.6335 150.776 96.5429 150.744 96.4247L150.748 96.4286ZM55.4886 110.017C55.4492 110.987 54.7047 110.561 54.2792 110.53C48.5634 110.12 42.9972 108.949 37.754 106.644C20.6655 99.1282 9.94279 86.2332 6.12564 67.9508C0.287644 40.0208 19.0189 11.8623 46.9561 6.18328C75.894 0.303281 103.307 18.1246 109.614 47.0004C111.367 55.0361 111.115 63.0797 109.067 71.0721C106.506 69.7322 104.95 66.8592 105.289 64.1438C108.397 39.0947 92.5926 16.6664 67.9012 11.0938C42.1069 5.26502 15.5799 22.9208 10.9828 48.9748C6.30684 75.4781 23.0369 99.8297 49.4339 104.906C51.7896 105.359 54.1847 105.611 56.8043 105.627C56.0992 107.176 55.5477 108.528 55.4847 110.021L55.4886 110.017ZM15.5208 63.1861C12.3812 38.5469 30.8209 16.288 56.0637 15.1767C80.759 14.089 98.7339 33.4669 100.302 53.3139C97.9381 51.1779 95.287 50.165 92.1829 50.4054C87.5582 50.7601 83.6347 54.6184 83.1619 59.2412C82.2874 67.7932 84.521 75.5649 88.9487 82.8006C89.4569 83.6321 89.9611 84.4676 90.6229 85.5593C83.8198 85.5593 77.2531 85.5277 70.6824 85.5672C65.6243 85.5987 61.563 88.9328 60.6175 93.8039C60.1763 96.0857 60.6018 98.2769 61.6772 100.358C41.7327 102.738 18.7431 88.5229 15.5169 63.1822L15.5208 63.1861ZM135.558 139.153C131.851 141.329 128.416 144.024 124.115 145.049C121.57 145.656 118.974 145.896 116.374 145.916C109.303 145.967 102.228 145.932 95.157 145.932C95.157 145.944 95.157 145.959 95.157 145.971C87.8379 145.971 80.5187 145.987 73.2035 145.963C70.4145 145.955 68.3936 144.162 68.043 141.498C67.7279 139.11 69.2682 136.789 71.6396 136.095C72.6993 135.784 73.7865 135.941 74.8619 135.922C76.8552 135.882 78.0094 134.991 78.037 133.423C78.0645 131.843 76.9261 130.901 74.9407 130.889C72.6323 130.877 70.3239 130.936 68.0155 130.869C65.3013 130.79 63.3593 129.001 62.9968 126.392C62.6856 124.142 64.1117 121.891 66.3373 121.091C67.1922 120.784 68.0746 120.827 68.957 120.823C71.0211 120.812 73.0814 120.847 75.1455 120.812C76.9182 120.78 78.0015 119.815 78.033 118.337C78.0645 116.792 76.9655 115.803 75.0983 115.787C71.9075 115.759 68.7127 115.826 65.5219 115.755C63.0874 115.7 61.3384 114.333 60.6727 112.173C60.066 110.206 60.7554 108.078 62.406 106.77C63.4617 105.934 64.6868 105.686 65.9907 105.686C68.9885 105.686 71.9823 105.698 74.9801 105.682C76.8946 105.67 77.9897 104.78 78.033 103.254C78.0764 101.67 76.9261 100.677 74.9762 100.653C73.5029 100.634 72.0256 100.689 70.5563 100.626C67.7161 100.508 65.4786 98.2178 65.5022 95.5222C65.5258 92.7713 67.7279 90.6195 70.6784 90.5998C77.064 90.5604 83.4495 90.5486 89.8351 90.5919C92.0726 90.6077 93.9162 89.9929 95.0231 87.9475C96.0946 85.9691 95.7006 84.0932 94.5267 82.2606C91.6314 77.7324 89.1733 73.0111 88.3854 67.5961C88.0033 64.9596 87.8694 62.3152 88.1885 59.6629C88.4681 57.3101 90.426 55.4893 92.8407 55.3159C95.1373 55.1504 97.3748 56.6756 97.9381 58.9298C98.3163 60.4471 98.4148 62.0314 98.7811 63.5526C100.042 68.7469 102.803 72.9598 107.085 76.1954C112.671 80.4123 117.737 85.1494 122.015 90.7457C125.198 94.9113 129.444 97.6897 134.506 99.1321C135.523 99.4238 135.976 99.7903 135.972 100.984C135.917 113.269 135.94 125.553 135.932 137.837C135.932 138.298 136.125 138.83 135.57 139.157L135.558 139.153ZM144.075 140.828C142.948 141.167 142.066 140.698 141.38 139.811C140.892 139.181 140.951 138.432 140.951 137.695C140.951 131.169 140.951 124.642 140.951 118.116C140.951 111.637 140.947 105.162 140.951 98.6829C140.951 96.8227 141.896 95.664 143.397 95.6286C144.941 95.5931 145.966 96.8069 145.97 98.7262C145.974 111.779 145.97 124.831 145.981 137.888C145.981 139.319 145.517 140.395 144.075 140.828Z" fill="#232C61"/>
<path d="M115.922 151H116.804C116.804 150.948 116.808 150.901 116.812 150.85C116.513 150.881 116.186 150.747 115.922 151Z" fill="#232C61"/>
<path d="M117.608 150.846C117.376 150.846 117.143 150.846 116.911 150.846C116.919 150.869 116.919 150.893 116.903 150.917C116.872 150.972 116.84 150.999 116.809 150.999H117.691C117.691 150.948 117.699 150.897 117.699 150.846C117.667 150.846 117.636 150.846 117.604 150.846H117.608Z" fill="#232C61"/>
<path d="M116.84 150.847C116.864 150.847 116.887 150.847 116.911 150.847C116.903 150.811 116.872 150.776 116.82 150.74C116.82 150.776 116.82 150.811 116.816 150.847C116.824 150.847 116.832 150.847 116.84 150.847Z" fill="#232C61"/>
<path d="M118.176 150.846C118.046 150.846 117.92 150.846 117.79 150.846C117.798 150.869 117.802 150.897 117.786 150.921C117.754 150.972 117.723 150.999 117.691 150.999H118.282C118.282 150.948 118.286 150.901 118.29 150.85C118.251 150.85 118.211 150.85 118.176 150.85V150.846Z" fill="#232C61"/>
<path d="M117.79 150.847C117.778 150.815 117.754 150.783 117.707 150.752C117.707 150.783 117.707 150.815 117.699 150.847C117.727 150.847 117.758 150.847 117.786 150.847H117.79Z" fill="#232C61"/>
<path d="M118.38 150.851C118.388 150.874 118.392 150.898 118.38 150.922C118.348 150.973 118.317 151 118.285 151H118.876C118.734 150.847 118.561 150.847 118.384 150.851H118.38Z" fill="#232C61"/>
<path d="M118.38 150.85C118.368 150.819 118.344 150.787 118.297 150.752C118.297 150.783 118.297 150.819 118.293 150.85C118.324 150.85 118.352 150.85 118.384 150.85H118.38Z" fill="#232C61"/>
<path d="M85.5826 40.2537C85.5511 39.296 85.1178 38.5709 84.2905 38.094C83.4475 37.6093 82.5769 37.6329 81.7812 38.1531C81.2967 38.4724 80.8909 38.9216 80.4773 39.3394C69.0928 50.7289 57.7005 62.1145 46.3436 73.5316C45.599 74.2804 45.2287 74.3908 44.4291 73.5671C41.3289 70.3512 38.1381 67.2221 34.9669 64.0732C33.6276 62.7451 32.1779 62.615 31.0789 63.6791C29.9759 64.7471 30.0586 66.2565 31.3586 67.561C35.3412 71.5651 39.3277 75.5613 43.334 79.5417C44.7363 80.9368 46.0048 80.9368 47.4268 79.5141C59.8277 67.1275 72.2127 54.7251 84.6057 42.3267C85.1768 41.7552 85.6102 41.1207 85.5826 40.2577V40.2537Z" fill="#404041"/>
</g>
<defs>
<clipPath id="clip0_2407_285">
<rect width="151" height="151" fill="white"/>
</clipPath>
</defs>
</svg>
