<svg width="145" height="141" viewBox="0 0 145 141" fill="none" xmlns="http://www.w3.org/2000/svg">
<g clip-path="url(#clip0_2407_295)">
<path d="M83.8075 104.473C83.8464 103.403 83.8291 102.329 83.8161 101.259C83.8075 100.524 84.1493 100.035 84.807 99.7596C85.4647 99.4846 86.0748 99.5878 86.5897 100.09C87.3599 100.838 88.1085 101.612 88.896 102.342C91.8729 105.122 96.1393 105.178 99.1075 102.406C101.111 100.537 103.067 98.6081 104.958 96.6273C107.662 93.8 107.627 89.6363 104.949 86.7661C104.218 85.9798 103.43 85.245 102.669 84.4888C102.136 83.9603 101.864 83.3974 102.201 82.6196C102.534 81.8462 103.123 81.6572 103.876 81.64C105.222 81.6099 106.58 81.6572 107.913 81.4939C111.496 81.0513 114.118 78.2369 114.23 74.6705C114.321 71.8862 114.317 69.0976 114.23 66.3132C114.118 62.7469 111.504 59.9411 107.913 59.4942C106.528 59.3223 105.113 59.3782 103.716 59.3438C103.002 59.3266 102.513 59.0344 102.201 58.3641C101.877 57.6637 102.076 57.1137 102.56 56.6153C103.313 55.8462 104.096 55.1114 104.841 54.3337C107.675 51.3646 107.697 47.1666 104.849 44.2319C103.015 42.3413 101.141 40.4851 99.2244 38.6804C96.2042 35.8359 91.7604 35.9047 88.7402 38.7878C88.0392 39.4538 87.3642 40.1456 86.6762 40.8288C86.1181 41.3831 85.456 41.4991 84.7464 41.2026C84.0801 40.9233 83.7988 40.3862 83.8118 39.6644C83.8291 38.646 83.8378 37.6277 83.8118 36.6093C83.7036 32.4973 80.6402 29.4466 76.495 29.3606C74.232 29.3134 71.9647 29.3477 69.6973 29.352C64.0507 29.352 61.2512 32.145 61.1863 37.705C61.1733 38.8953 61.8613 40.4421 60.2906 41.164C58.6031 41.9374 57.8978 40.3347 57.0237 39.4538C55.3233 37.7394 53.441 36.5492 51.1694 36.6308C48.8891 36.6222 47.1453 37.3269 45.6958 38.7621C43.9001 40.5409 42.0785 42.2897 40.3001 44.0858C37.2929 47.1279 37.2929 51.3646 40.2742 54.4239C40.9492 55.1157 41.6545 55.7817 42.3381 56.4649C42.8617 56.9891 43.1646 57.5477 42.8357 58.334C42.5155 59.1032 41.94 59.3395 41.1785 59.3438C40.1011 59.3438 39.0194 59.3051 37.9419 59.3739C33.6107 59.6575 30.8025 62.618 30.7679 66.9191C30.7463 69.3296 30.7419 71.7401 30.7679 74.1506C30.8112 78.1681 33.4203 81.09 37.3968 81.5368C38.5174 81.6615 39.6597 81.6228 40.7891 81.6357C41.6198 81.6443 42.39 81.6572 42.8141 82.5853C43.2814 83.6122 42.6626 84.1923 42.0396 84.8024C41.4641 85.3653 40.8886 85.9325 40.3218 86.504C37.3145 89.5633 37.2713 93.7871 40.2612 96.8378C42.0655 98.6811 43.9045 100.49 45.7737 102.273C48.8285 105.191 53.1295 105.169 56.2276 102.252C56.9329 101.59 57.6122 100.903 58.2915 100.211C58.8367 99.6565 59.4685 99.4761 60.1997 99.7468C60.9569 100.026 61.2339 100.61 61.2165 101.388C61.1949 102.406 61.1863 103.425 61.2165 104.443C61.3507 108.465 64.4142 111.524 68.4512 111.606C71.1469 111.662 73.8469 111.658 76.5426 111.606C80.5882 111.529 83.6604 108.482 83.8032 104.469L83.8075 104.473ZM77.9834 100.984C77.9488 102.003 77.9748 103.021 77.9704 104.035C77.9661 105.191 77.4339 105.853 76.218 105.853C73.7387 105.853 71.255 105.857 68.7757 105.853C67.655 105.853 67.0882 105.251 67.0622 104.164C67.0363 103.038 67.0882 101.912 67.0276 100.791C66.8675 97.7659 65.3012 95.6433 62.5449 94.4832C59.806 93.3273 57.1622 93.6238 54.83 95.5617C53.9646 96.2835 53.1814 97.1042 52.3939 97.912C51.4723 98.8659 50.5982 98.9389 49.629 97.9593C48.0064 96.3179 46.3578 94.6894 44.6876 93.0953C43.6232 92.0769 43.766 91.1961 44.7699 90.2336C46.3838 88.6782 48.1232 87.2301 48.6468 84.8497C49.6117 80.4712 46.4314 76.1615 41.94 75.9166C40.7545 75.8522 39.5689 75.9037 38.3833 75.8736C37.215 75.8436 36.6049 75.2463 36.6093 74.0561C36.6136 71.7014 36.6179 69.3425 36.6093 66.9878C36.6006 65.716 37.241 65.123 38.4958 65.1144C39.6295 65.1058 40.7631 65.1402 41.8924 65.0757C44.9386 64.8953 47.0458 63.3055 48.2227 60.577C49.4127 57.8184 48.967 55.2317 46.9723 52.9587C46.2626 52.1552 45.4838 51.4076 44.7006 50.6728C43.7271 49.7576 43.6665 48.8853 44.653 47.9315C46.3146 46.3244 47.9675 44.7088 49.5901 43.0632C50.5333 42.1093 51.416 42.0706 52.3593 43.046C53.0689 43.7807 53.7958 44.5026 54.5531 45.1858C56.9112 47.3084 59.6459 47.7037 62.5103 46.5264C65.405 45.3362 66.9584 43.0889 67.0493 39.9222C67.0579 39.6558 67.0622 39.3851 67.0579 39.1187C66.9714 34.7918 67.1228 35.1098 71.1599 35.1355C72.83 35.1484 74.5046 35.1484 76.1748 35.1355C77.3906 35.1269 77.9575 35.7371 77.9704 36.9015C77.9834 37.9199 77.9575 38.9382 77.9834 39.9523C78.07 43.0503 79.5974 45.2416 82.4099 46.4662C85.2743 47.7123 87.9916 47.3342 90.3801 45.2674C91.2325 44.5284 92.007 43.7034 92.8162 42.9171C93.5344 42.2167 94.3263 42.0362 95.0921 42.771C96.9527 44.5542 98.7787 46.3803 100.618 48.1893C100.946 48.5115 101.089 48.8939 101.072 49.3451C101.068 50.1486 100.436 50.5482 99.9513 51.0295C98.4325 52.5419 96.8316 53.9513 96.3513 56.22C95.4469 60.5254 98.6013 64.7965 103.01 65.0672C104.14 65.1359 105.273 65.1187 106.407 65.1101C107.718 65.0972 108.432 65.6515 108.419 67.0222C108.402 69.3253 108.393 71.6284 108.419 73.9315C108.436 75.2936 107.753 75.8865 106.437 75.8865C105.412 75.8865 104.386 75.8608 103.365 75.8994C100.181 76.024 97.9696 77.6096 96.771 80.4927C95.5854 83.3372 96.1306 85.9497 98.2119 88.2184C98.8998 88.9703 99.6441 89.675 100.38 90.3797C101.297 91.2519 101.327 92.1113 100.419 93.0051C98.7311 94.6593 97.0393 96.3136 95.3647 97.9851C94.4691 98.8788 93.6166 98.9046 92.721 97.998C91.9291 97.1945 91.1416 96.3781 90.2849 95.6476C87.9267 93.641 85.244 93.3058 82.4402 94.5003C79.619 95.7034 78.0829 97.8948 77.9791 100.989L77.9834 100.984Z" fill="#232C61"/>
<path d="M134.451 74.0168C132.746 73.759 131.44 74.6957 131.081 76.466C130.86 77.566 130.73 78.6874 130.488 79.7831C125.533 102.187 112.033 117.032 90.2948 124.59C89.8058 124.762 89.3385 124.977 88.776 124.698C89.3558 124.019 89.9054 123.374 90.4549 122.73C91.0131 122.077 91.5799 121.432 92.1251 120.766C93.4794 119.099 93.4837 117.522 92.1424 116.366C90.7881 115.197 89.0443 115.451 87.6381 117.088C84.8385 120.345 82.0606 123.624 79.2957 126.911C77.8072 128.681 77.9327 130.138 79.7068 131.616C83.0904 134.439 86.4957 137.24 89.901 140.037C91.5323 141.374 93.3496 141.314 94.4616 139.926C95.5563 138.559 95.2664 137.012 93.6092 135.603C91.9347 134.181 90.2342 132.789 88.2957 131.177C98.4294 128.556 107.256 124.049 114.911 117.406C127.16 106.78 134.516 93.4771 136.831 77.4586C137.082 75.7355 136.039 74.2574 134.456 74.0211L134.451 74.0168Z" fill="#404041"/>
<path d="M143.483 47.0037C141.934 46.1701 140.385 46.7244 139.312 48.5463C138.144 50.5228 137.014 52.5165 135.855 54.5317C135.734 54.4028 135.634 54.347 135.612 54.2696C135.487 53.8614 135.396 53.4447 135.271 53.0365C127.694 27.8227 110.906 12.4015 85.13 6.56639C82.3781 5.94336 80.8983 6.691 80.5002 8.60738C80.1065 10.5066 81.2747 11.6925 84.0137 12.2468C100.832 15.6628 113.822 24.6001 122.96 39.0159C126.149 44.0518 128.399 49.5045 129.827 55.4985C127.993 54.4759 126.366 53.5435 124.717 52.6454C122.887 51.6486 121.234 51.9751 120.347 53.4704C119.46 54.97 120.001 56.5985 121.792 57.6169C125.574 59.7653 129.36 61.9051 133.163 64.0148C135.193 65.1406 136.647 64.7668 137.793 62.8074C140.013 59.0219 142.202 55.2192 144.383 51.408C145.469 49.5088 145.114 47.8717 143.487 46.9951L143.483 47.0037Z" fill="#404041"/>
<path d="M10.8818 63.2188C12.6342 63.4938 13.8977 62.4368 14.2611 60.3872C17.6232 41.4898 27.8088 27.4135 44.6406 18.0593C48.0935 16.1429 51.7454 14.6648 55.7392 13.5519C54.9949 15.6101 54.3069 17.4491 53.6622 19.3054C52.9916 21.2346 53.6536 22.7428 55.3843 23.3315C56.981 23.8772 58.4695 23.0909 59.1574 21.2518C60.6719 17.1999 62.1603 13.1394 63.6272 9.06605C64.4017 6.92194 63.7613 5.53836 61.6195 4.76064C57.431 3.23957 53.2295 1.75287 49.0238 0.283359C47.0247 -0.417022 45.5276 0.184532 44.8829 1.85599C44.2598 3.4673 45.0689 4.91962 47.055 5.66297C49.1362 6.44499 51.2348 7.18405 53.4502 7.98755C52.68 8.61059 51.8319 8.61918 51.1093 8.92855C50.3218 9.2637 49.4867 9.49573 48.6992 9.83088C26.4631 19.2624 12.9631 35.6934 8.51063 59.356C8.11688 61.4442 9.05583 62.9309 10.8775 63.2188H10.8818Z" fill="#404041"/>
<path d="M59.7715 125.935C59.5162 125.858 59.2436 125.828 58.984 125.759C37.4229 120.087 23.0271 106.827 16.0521 85.7383C15.7016 84.6812 15.217 83.6113 15.3425 82.1805C17.2593 83.5512 18.9814 84.8187 20.7382 86.0304C22.2959 87.1046 24.0699 86.8726 25.0348 85.5277C26.0344 84.1356 25.7185 82.5199 24.1132 81.3555C20.5521 78.7602 16.9694 76.1907 13.3694 73.6513C11.5261 72.3537 10.0723 72.5685 8.75689 74.3216C6.08717 77.8837 3.44341 81.4715 0.821291 85.068C-0.411886 86.7566 -0.234482 88.4195 1.20639 89.4464C2.62995 90.4605 4.29149 90.0909 5.53765 88.4496C6.7665 86.8297 7.96506 85.1883 9.28478 83.4137C9.45786 83.9078 9.55738 84.157 9.62661 84.4148C15.654 106.526 29.5868 121.471 51.1306 129.467C53.4888 130.343 55.9638 130.941 58.4172 131.529C60.1739 131.951 61.6667 131.001 62.0691 129.441C62.4628 127.907 61.5239 126.472 59.7758 125.944L59.7715 125.935Z" fill="#404041"/>
<path d="M88.7368 70.4412C88.7152 61.6456 81.4503 54.4785 72.5411 54.4571C63.5757 54.4399 56.2675 61.6757 56.2891 70.5443C56.3107 79.3356 63.58 86.5113 72.4848 86.5285C81.4459 86.55 88.7628 79.3055 88.7411 70.4412H88.7368ZM72.5887 80.7579C66.8468 80.7965 62.1435 76.1947 62.1305 70.5229C62.1175 64.8339 66.7733 60.2234 72.5195 60.2234C78.2613 60.2234 82.9128 64.8468 82.8955 70.5357C82.8781 76.1388 78.257 80.7192 72.5844 80.7579H72.5887Z" fill="#232C61"/>
</g>
<defs>
<clipPath id="clip0_2407_295">
<rect width="145" height="141" fill="white"/>
</clipPath>
</defs>
</svg>
