<svg width="148" height="176" viewBox="0 0 148 176" fill="none" xmlns="http://www.w3.org/2000/svg">
<g clip-path="url(#clip0_2435_274)">
<path d="M144.857 79.276C128.397 74.7137 111.937 70.1608 95.4668 65.6175C92.5095 64.8018 91.0784 65.921 91.0736 69.0037C91.0641 75.8045 91.0404 82.6052 91.0974 89.406C91.1069 90.5632 90.8026 90.862 89.6425 90.8572C82.1113 90.8051 74.5801 90.7909 67.0536 90.8667C65.7128 90.881 65.4133 90.5442 65.4228 89.2258C65.4798 77.8105 65.4608 66.3953 65.4561 54.98C65.4561 51.5037 63.868 50.4272 60.5779 51.6745C41.3076 58.9922 22.0374 66.3147 2.77191 73.6371C0.356592 74.5572 0 75.0788 0 77.7157C0 109.121 0 140.526 0 171.931C0 175.189 0.817785 176 4.09368 176C27.3387 176 50.579 176 73.8241 176C97.0691 176 120.666 176 144.087 176C147.116 176 148 175.118 148 172.106C148 142.537 148 112.962 148 83.3925C148 80.6561 147.539 80.0206 144.862 79.276H144.857ZM37 94.9501C37 119.436 36.981 143.921 37.0428 168.407C37.0428 170.091 36.5388 170.37 35.0031 170.361C25.8125 170.29 16.6219 170.304 7.43138 170.352C6.14765 170.356 5.64842 170.171 5.65317 168.687C5.70547 139.174 5.69121 109.661 5.69121 80.1486C5.69121 79.2665 5.60087 78.5741 6.79427 78.1283C24.1009 71.631 41.3742 65.0531 58.657 58.499C58.9756 58.3804 59.2656 58.0959 59.7696 58.3282V71.7164C59.7696 77.4549 59.722 83.1886 59.8029 88.927C59.8219 90.383 59.6032 90.9236 57.9391 90.8857C52.3097 90.7529 46.6755 90.8335 41.0414 90.8383C37.8035 90.8383 37 91.6587 37 94.9548V94.9501ZM91.1069 168.725C91.1069 170.048 90.8026 170.366 89.4713 170.361C74.4136 170.309 59.3512 170.309 44.2935 170.361C42.967 170.361 42.6484 170.057 42.6532 168.73C42.7102 156.963 42.6865 145.192 42.6865 133.421C42.6865 121.65 42.7102 109.884 42.6532 98.1133C42.6484 96.7901 42.9575 96.4724 44.2887 96.4771C59.3464 96.5293 74.4089 96.5293 89.4666 96.4771C90.7931 96.4771 91.1069 96.7807 91.1022 98.1086C91.0546 121.646 91.0546 145.183 91.1022 168.72L91.1069 168.725ZM115.441 170.352C111 170.399 111 170.437 111 166.06C111 165.116 111 164.167 111 163.224C111 161.213 111.043 159.202 110.981 157.196C110.952 156.337 111.233 156.138 112.07 156.11C116.691 155.939 116.691 155.911 116.691 160.577C116.691 163.413 116.648 166.254 116.715 169.09C116.739 170.1 116.434 170.347 115.441 170.356V170.352ZM127.099 170.352C122.378 170.608 122.382 170.631 122.382 165.984C122.382 163.086 122.42 160.188 122.363 157.295C122.344 156.371 122.606 156.129 123.538 156.11C128.078 156.015 128.078 155.982 128.078 160.482V163.318C128.078 165.329 128.045 167.34 128.097 169.346C128.116 170.119 127.883 170.309 127.108 170.352H127.099ZM142.328 168.995C142.328 170.086 142.076 170.413 140.968 170.356C139.019 170.257 137.055 170.257 135.106 170.356C134.003 170.413 133.722 170.1 133.736 169C133.803 164.034 133.77 159.069 133.76 154.104C133.76 151.434 132.79 150.461 130.137 150.461C123.086 150.452 116.035 150.452 108.979 150.461C106.217 150.461 105.304 151.405 105.299 154.222C105.295 159.069 105.233 163.916 105.337 168.763C105.366 170.152 104.938 170.432 103.664 170.361C101.776 170.252 99.8696 170.271 97.9773 170.361C96.9217 170.408 96.6365 170.02 96.7506 169.062C96.8124 168.535 96.7601 167.999 96.7601 167.468V71.8634C100.992 73.0253 105.081 74.1446 109.169 75.2733C119.758 78.2089 130.337 81.1635 140.939 84.0565C141.976 84.341 142.328 84.7109 142.328 85.8159C142.295 113.541 142.295 141.261 142.328 168.986V168.995Z" fill="#404041"/>
<path d="M13.5392 62.4203C17.3476 62.7049 20.8517 60.4806 22.202 56.9285C23.5333 53.419 22.6109 49.2598 19.3921 47.3296C17.1955 46.0159 16.8436 44.4983 17.0623 42.3594C17.1479 41.539 17.0956 40.7043 17.0671 39.8791C17.0433 39.2341 17.1622 38.85 17.9086 38.5891C26.5429 35.5586 35.1677 32.4807 43.7782 29.3791C44.4676 29.1325 44.7909 29.2368 45.2426 29.7917C47.6817 32.7985 50.9053 34.1027 54.747 34.0647C58.4793 34.0315 62.2164 34.0553 65.9487 34.0553C69.9806 34.0553 74.0125 34.1027 78.0396 34.0268C79.2853 34.0031 79.7702 34.1975 79.7275 35.6155C79.6086 39.5139 79.6609 43.4217 79.7037 47.3201C79.7132 48.2923 79.5135 48.8472 78.5293 49.3452C75.7954 50.7205 74.293 53.0823 74.0267 56.1128C73.6464 60.4285 76.5847 64.2557 80.8686 65.1663C84.8243 66.0104 88.9513 63.7387 90.4633 59.8878C92.0228 55.9088 90.4347 51.4651 86.6644 49.3689C85.9464 48.9705 85.3093 48.7476 85.3331 47.6331C85.4282 43.4976 85.3997 39.3574 85.3521 35.2172C85.3426 34.2971 85.5851 34.0078 86.5265 34.0363C88.8943 34.1027 91.2668 34.0742 93.6393 34.0553C98.0848 34.0221 101.522 32.125 103.762 28.2978C104.29 27.3967 104.789 27.207 105.711 27.3541C112.729 28.4496 119.751 29.5309 126.774 30.5742C127.782 30.726 128.115 31.0817 128.096 32.1488C128.02 36.2273 128.029 40.3106 128.091 44.3892C128.105 45.4421 127.867 46.0159 126.84 46.5423C123.355 48.3398 121.696 52.2476 122.647 55.9847C123.636 59.8688 126.95 62.4678 130.92 62.463C134.88 62.463 138.19 59.8594 139.179 55.9657C140.129 52.2334 138.465 48.3398 134.961 46.5328C133.925 45.9969 133.725 45.4041 133.735 44.3655C133.782 39.2199 133.768 34.079 133.754 28.9333C133.749 26.7518 132.945 25.8554 130.768 25.514C122.637 24.243 114.512 22.9577 106.377 21.7436C105.431 21.6014 105.131 21.2647 104.941 20.3731C103.919 15.5546 100.272 12.1495 95.3414 11.4618C94.3002 11.3196 93.9436 11.1109 93.7962 9.97743C93.1638 5.02623 89.7215 1.34128 84.9717 0.288443C80.279 -0.750171 75.6005 1.11364 72.9855 5.23016C72.3864 6.17866 71.9062 6.26403 70.9077 6.03165C66.1579 4.91241 61.4414 6.72406 58.8597 10.7742C58.1703 11.8555 57.6235 11.9408 56.4967 11.6847C49.4789 10.1055 42.8511 15.2701 42.737 22.4266C42.7179 23.5695 42.3043 23.892 41.3534 24.2287C32.2199 27.4537 23.1149 30.7592 13.9766 33.9699C12.1366 34.6149 11.2903 35.6867 11.3616 37.6311C11.4377 39.8174 11.3283 42.0085 11.3996 44.1948C11.4377 45.352 11.1904 46.0159 10.0113 46.6182C6.7687 48.2734 5.0951 52.1717 5.86533 55.629C6.71165 59.4183 9.7926 62.15 13.5344 62.4298L13.5392 62.4203ZM131.043 51.0904C132.579 51.1616 133.806 52.4752 133.758 54.0023C133.711 55.5342 132.413 56.7767 130.882 56.7577C129.28 56.7388 127.986 55.354 128.081 53.7557C128.172 52.2286 129.512 51.0193 131.043 51.0904ZM85.3759 56.9C85.2951 58.4271 83.9685 59.6459 82.4376 59.5938C80.8353 59.5416 79.5706 58.1236 79.7037 56.5301C79.8321 55.003 81.1966 53.8269 82.7228 53.9265C84.2586 54.0308 85.4567 55.3729 85.3759 56.8953V56.9ZM52.7643 17.1718C54.476 16.7545 56.0355 17.1718 57.4666 18.1725C60.1624 20.06 62.0405 19.3297 62.6633 16.1712C63.5334 11.7559 68.1121 9.96795 71.8206 12.5906C74.3405 14.3738 76.3042 13.5675 76.8795 10.5086C77.5166 7.13191 80.6356 5.012 83.8116 5.79926C87.1921 6.63869 89.0084 10.0296 87.796 13.4015C87.3205 14.7247 87.1446 15.9435 88.2096 17.0106C89.2746 18.0777 90.5061 17.9496 91.8231 17.4374C94.1576 16.5316 96.2876 17.0011 98.004 18.7985C99.6633 20.5343 100.115 22.6447 99.1498 24.8595C98.1371 27.1833 96.2543 28.369 93.6773 28.369C87.1018 28.369 80.5215 28.369 73.9459 28.369C67.3085 28.369 60.6712 28.4022 54.0338 28.3547C51.0574 28.3358 48.6659 26.0831 48.3949 23.2423C48.1286 20.4252 49.9639 17.8453 52.7596 17.1671L52.7643 17.1718ZM14.2524 51.0904C15.7881 51.0999 17.0528 52.3662 17.0671 53.9027C17.0766 55.4346 15.8261 56.7198 14.2904 56.7577C12.7547 56.7909 11.4424 55.5674 11.3854 54.0355C11.3236 52.4278 12.6358 51.0857 14.2476 51.0952L14.2524 51.0904Z" fill="#232C61"/>
<path d="M28.1898 147.621C23.6349 147.587 19.0753 147.587 14.5204 147.621C12.5235 147.635 11.4204 148.707 11.4014 150.67C11.3586 154.27 11.3634 157.874 11.4014 161.474C11.4204 163.546 12.5045 164.608 14.5965 164.637C16.8454 164.67 19.0943 164.646 21.3432 164.646C23.5921 164.646 25.841 164.67 28.0899 164.642C30.1867 164.613 31.285 163.56 31.304 161.497C31.3373 157.898 31.3421 154.293 31.304 150.694C31.2803 148.726 30.1819 147.64 28.1993 147.625L28.1898 147.621ZM21.1958 158.965C17.0356 158.965 17.0736 158.965 17.0498 154.734C17.0451 153.625 17.2638 153.193 18.4762 153.259C20.4826 153.369 22.5033 153.326 24.5193 153.274C25.337 153.255 25.6081 153.449 25.6413 154.331C25.8315 158.969 25.8601 158.969 21.1911 158.969L21.1958 158.965Z" fill="#404041"/>
<path d="M14.5114 96.4971C19.0663 96.5303 23.6259 96.5303 28.1808 96.4971C30.1682 96.4829 31.2712 95.3969 31.295 93.4382C31.3378 89.8386 31.3331 86.2343 31.295 82.6347C31.276 80.567 30.1872 79.5141 28.0904 79.4809C25.9034 79.4477 23.7115 79.4762 21.5196 79.4762C19.1519 79.4762 16.7841 79.443 14.4163 79.4904C12.524 79.5284 11.421 80.5907 11.3972 82.4592C11.3496 86.1205 11.3544 89.777 11.3972 93.4382C11.4162 95.4016 12.5193 96.4876 14.5067 96.5019L14.5114 96.4971ZM21.5054 85.153C25.6609 85.153 25.6228 85.153 25.6466 89.3928C25.6514 90.5121 25.4184 90.9294 24.2107 90.863C22.2043 90.7539 20.1836 90.7966 18.1677 90.8488C17.3404 90.8725 17.0884 90.6591 17.0504 89.7865C16.8649 85.153 16.8316 85.153 21.5054 85.153Z" fill="#404041"/>
<path d="M28.0572 124.908C23.5594 124.885 19.0616 124.88 14.5638 124.908C12.4765 124.923 11.4115 125.999 11.3925 128.091C11.364 131.633 11.364 135.176 11.3925 138.714C11.4115 140.876 12.4908 141.901 14.7207 141.924C16.9078 141.948 19.0996 141.929 21.2915 141.929C23.5404 141.929 25.7893 141.953 28.0382 141.924C30.2253 141.896 31.2856 140.843 31.2998 138.647C31.3284 135.166 31.3236 131.681 31.2998 128.2C31.2856 125.994 30.2348 124.923 28.0525 124.908H28.0572ZM21.2439 136.257C17.0457 136.257 17.1075 136.257 17.0457 132.074C17.0266 130.803 17.3832 130.481 18.6099 130.552C20.5593 130.661 22.5229 130.637 24.4723 130.557C25.4375 130.519 25.6181 130.855 25.6372 131.747C25.7322 136.257 25.7608 136.257 21.2392 136.257H21.2439Z" fill="#404041"/>
<path d="M31.3002 105.393C31.2812 103.302 30.2114 102.211 28.1384 102.197C23.6406 102.164 19.1428 102.169 14.645 102.197C12.4531 102.211 11.4071 103.274 11.3928 105.479C11.3691 108.96 11.3691 112.446 11.3928 115.927C11.4071 118.132 12.4579 119.189 14.6402 119.218C16.8891 119.246 19.138 119.223 21.3869 119.223C23.6358 119.223 25.8847 119.251 28.1336 119.213C30.2066 119.18 31.2812 118.103 31.3002 116.017C31.3335 112.474 31.3335 108.931 31.3002 105.393ZM21.1872 113.546C17.0317 113.546 17.0745 113.546 17.0508 109.301C17.046 108.173 17.298 107.774 18.4914 107.836C20.5026 107.94 22.5185 107.902 24.5344 107.845C25.3665 107.822 25.609 108.045 25.647 108.912C25.8324 113.541 25.861 113.541 21.1872 113.541V113.546Z" fill="#404041"/>
<path d="M139.449 130.912C139.411 128.835 138.346 127.763 136.259 127.744C132.707 127.711 129.161 127.715 125.609 127.744C123.503 127.763 122.414 128.816 122.39 130.879C122.357 134.478 122.352 138.078 122.39 141.677C122.409 143.65 123.503 144.736 125.485 144.755C129.094 144.793 132.703 144.793 136.311 144.755C138.37 144.736 139.411 143.636 139.449 141.53C139.478 139.818 139.454 138.106 139.454 136.394C139.454 134.564 139.483 132.733 139.445 130.907L139.449 130.912ZM130.915 139.093C129.023 139.093 128.077 138.144 128.077 136.247C128.077 134.35 129.027 133.406 130.929 133.416C132.831 133.425 133.777 134.374 133.768 136.261C133.758 138.149 132.807 139.093 130.915 139.093Z" fill="#404041"/>
<path d="M116.675 130.751C116.628 128.873 115.558 127.772 113.685 127.749C110.019 127.701 106.348 127.706 102.678 127.749C100.709 127.772 99.6395 128.868 99.6205 130.86C99.5872 134.459 99.5825 138.059 99.6205 141.659C99.6395 143.636 100.724 144.732 102.697 144.755C106.305 144.793 109.914 144.793 113.523 144.755C115.586 144.736 116.637 143.641 116.675 141.549C116.704 139.837 116.68 138.125 116.68 136.413C116.68 134.526 116.718 132.633 116.666 130.746L116.675 130.751ZM108.212 139.093C106.275 139.093 105.307 138.108 105.307 136.138C105.307 134.323 106.236 133.416 108.093 133.416C110.03 133.416 110.998 134.401 110.998 136.371C110.998 138.185 110.069 139.093 108.212 139.093Z" fill="#404041"/>
<path d="M102.515 105.004C106.242 105.061 109.97 105.056 113.697 105.004C115.566 104.98 116.631 103.871 116.678 101.993C116.726 100.224 116.688 98.45 116.688 96.681C116.688 94.7935 116.726 92.9012 116.678 91.0137C116.631 89.1309 115.566 88.0259 113.702 88.0022C109.974 87.9548 106.247 87.95 102.519 88.0022C100.751 88.0259 99.6571 89.1404 99.6333 90.9189C99.5858 94.637 99.5858 98.3552 99.6333 102.073C99.6571 103.852 100.751 104.971 102.515 104.995V105.004ZM108.063 93.6695C110.022 93.6695 111.001 94.6449 111.001 96.5957C111.001 98.4326 110.084 99.3511 108.249 99.3511C106.29 99.3511 105.31 98.3757 105.31 96.4249C105.31 94.588 106.228 93.6695 108.063 93.6695Z" fill="#404041"/>
<path d="M136.424 88.0024C134.589 87.9549 132.754 87.9929 130.923 87.9929C129.093 87.9929 127.253 87.9549 125.422 88.0024C123.53 88.0498 122.427 89.1026 122.403 90.9712C122.355 94.6893 122.355 98.4075 122.403 102.126C122.427 103.885 123.549 104.981 125.327 105.004C129.054 105.052 132.782 105.052 136.51 105.004C138.288 104.981 139.41 103.885 139.438 102.126C139.495 98.4075 139.491 94.6893 139.438 90.9712C139.415 89.1026 138.307 88.0451 136.419 87.9976L136.424 88.0024ZM130.837 99.3465C128.996 99.3465 128.075 98.4312 128.075 96.6006C128.075 94.6467 129.053 93.6697 131.009 93.6697C132.85 93.6697 133.771 94.585 133.771 96.4156C133.771 98.3695 132.793 99.3465 130.837 99.3465Z" fill="#404041"/>
<path d="M136.55 107.883C132.823 107.831 129.095 107.831 125.367 107.883C123.494 107.907 122.443 109.007 122.391 110.894C122.344 112.663 122.382 114.437 122.382 116.206C122.382 118.094 122.344 119.986 122.391 121.873C122.439 123.756 123.499 124.861 125.372 124.885C129.1 124.932 132.827 124.937 136.555 124.885C138.319 124.856 139.412 123.737 139.436 121.959C139.484 118.241 139.488 114.522 139.436 110.804C139.412 109.026 138.314 107.916 136.545 107.888L136.55 107.883ZM130.845 119.218C128.997 119.218 128.073 118.305 128.073 116.481C128.073 114.518 129.046 113.536 130.992 113.536C132.84 113.536 133.764 114.448 133.764 116.272C133.764 118.236 132.791 119.218 130.845 119.218Z" fill="#404041"/>
<path d="M116.687 111.104C116.654 108.993 115.617 107.898 113.558 107.874C109.95 107.836 106.341 107.836 102.732 107.874C100.745 107.893 99.6513 108.97 99.6322 110.943C99.5942 114.542 99.599 118.142 99.6322 121.741C99.6513 123.743 100.712 124.857 102.666 124.881C106.331 124.924 110.002 124.924 113.672 124.881C115.551 124.857 116.635 123.766 116.687 121.903C116.739 120.077 116.696 118.246 116.701 116.415C116.701 114.646 116.725 112.873 116.701 111.104H116.687ZM108.129 119.218C106.249 119.218 105.309 118.263 105.309 116.354C105.309 114.444 106.266 113.507 108.181 113.541C110.095 113.576 111.035 114.531 111 116.406C110.966 118.281 110.008 119.218 108.129 119.218Z" fill="#404041"/>
<path d="M81.8278 124.905C76.8545 124.895 71.8812 124.905 66.9032 124.905C61.9252 124.905 56.8378 124.895 51.8027 124.909C49.4539 124.919 48.4032 125.929 48.3889 128.215C48.3652 131.701 48.3652 135.186 48.3889 138.667C48.4032 140.858 49.4682 141.926 51.6696 141.93C61.7968 141.949 71.9192 141.945 82.0465 141.93C84.3334 141.93 85.3652 140.858 85.3794 138.535C85.3984 135.167 85.3937 131.8 85.3794 128.433C85.3699 125.901 84.3714 124.909 81.8278 124.905ZM75.5708 136.258H66.8556C63.0615 136.258 59.2674 136.23 55.4732 136.277C54.4938 136.291 54.0326 136.201 54.0326 134.992C54.0278 130.581 53.9708 130.581 58.3688 130.581C64.9491 130.581 71.5294 130.629 78.1049 130.543C79.4838 130.525 79.7405 130.923 79.7167 132.203C79.6454 136.258 79.6977 136.258 75.566 136.258H75.5708Z" fill="#404041"/>
<path d="M51.9059 119.217C56.8792 119.231 61.8525 119.217 66.8305 119.217C71.8085 119.217 76.8959 119.227 81.931 119.212C84.3511 119.203 85.3685 118.179 85.378 115.755C85.3971 112.388 85.3923 109.021 85.378 105.654C85.3685 103.221 84.3558 102.187 81.9452 102.187C71.8798 102.177 61.8097 102.172 51.7443 102.187C49.4335 102.187 48.4018 103.235 48.3875 105.549C48.3685 108.916 48.3733 112.284 48.3875 115.651C48.3971 118.207 49.3765 119.208 51.9059 119.212V119.217ZM58.3436 107.864H66.878C70.7292 107.864 74.5852 107.897 78.4364 107.84C79.4396 107.826 79.7011 108.101 79.7154 109.106C79.7677 113.545 79.8009 113.545 75.4172 113.545C68.7799 113.545 62.1377 113.517 55.5004 113.574C54.345 113.583 54.036 113.289 54.0407 112.127C54.0692 107.868 54.0217 107.868 58.3436 107.868V107.864Z" fill="#404041"/>
<path d="M81.7576 147.611C76.7844 147.601 71.8111 147.611 66.8331 147.611C61.798 147.611 56.7677 147.596 51.7326 147.615C49.4266 147.625 48.3996 148.668 48.3854 150.987C48.3663 154.411 48.3663 157.84 48.3854 161.264C48.3996 163.579 49.4314 164.632 51.7326 164.636C61.798 164.65 71.8681 164.65 81.9335 164.636C84.3489 164.636 85.3616 163.602 85.3759 161.169C85.3901 157.864 85.3854 154.554 85.3759 151.248C85.3663 148.583 84.4059 147.615 81.7529 147.611H81.7576ZM75.2914 158.964C68.7729 158.964 62.2497 158.912 55.7312 159.007C54.262 159.026 54.0195 158.552 54.048 157.243C54.1241 153.292 54.0718 153.287 58.1227 153.287H67.0137C70.8079 153.287 74.602 153.316 78.3962 153.268C79.3233 153.259 79.7132 153.396 79.7274 154.478C79.7845 158.964 79.832 158.964 75.2962 158.964H75.2914Z" fill="#404041"/>
</g>
<defs>
<clipPath id="clip0_2435_274">
<rect width="148" height="176" fill="white"/>
</clipPath>
</defs>
</svg>
