<svg width="367" height="414" viewBox="0 0 367 414" fill="none" xmlns="http://www.w3.org/2000/svg">
<g opacity="0.7">
<path d="M183.301 367C82.2106 367 0 284.756 0 183.699C0 82.6413 82.2439 0.397461 183.301 0.397461C284.358 0.397461 366.602 82.6413 366.602 183.699C366.602 284.756 284.425 367 183.301 367ZM183.301 2.98032C83.677 2.98032 2.62453 84.0327 2.62453 183.665C2.62453 283.298 83.7103 364.35 183.301 364.35C282.892 364.35 363.986 283.298 363.986 183.665C363.986 84.0327 282.967 2.98032 183.301 2.98032Z" fill="#E0E0E0"/>
<path d="M183.302 330.598C102.283 330.598 36.3691 264.684 36.3691 183.665C36.3691 102.646 102.316 36.7327 183.302 36.7327C264.287 36.7327 330.268 102.654 330.268 183.665C330.268 264.676 264.354 330.598 183.302 330.598ZM183.302 39.3822C103.749 39.3822 39.0187 104.104 39.0187 183.665C39.0187 263.226 103.782 327.94 183.302 327.94C262.821 327.94 327.585 263.218 327.585 183.665C327.585 104.112 262.896 39.3822 183.302 39.3822Z" fill="#E0E0E0"/>
<path d="M183.302 294.196C122.354 294.196 72.7715 244.613 72.7715 183.665C72.7715 122.718 122.388 73.1345 183.302 73.1345C244.216 73.1345 293.833 122.718 293.833 183.665C293.833 244.613 244.283 294.196 183.302 294.196ZM183.302 75.7841C154.706 75.826 127.294 87.2065 107.077 107.43C86.8595 127.654 75.4874 155.069 75.4543 183.665C75.4543 243.146 123.854 291.546 183.335 291.546C211.952 291.546 239.396 280.178 259.631 259.944C279.865 239.709 291.233 212.265 291.233 183.648C291.233 155.032 279.865 127.588 259.631 107.353C239.396 87.1185 211.952 75.7507 183.335 75.7507L183.302 75.7841Z" fill="#E0E0E0"/>
<path d="M183.3 257.794C168.634 257.794 154.297 253.445 142.103 245.297C129.908 237.149 120.404 225.567 114.791 212.018C109.179 198.468 107.71 183.558 110.571 169.174C113.433 154.789 120.495 141.576 130.866 131.206C141.236 120.835 154.449 113.773 168.834 110.912C183.218 108.05 198.128 109.519 211.678 115.131C225.227 120.744 236.809 130.248 244.957 142.443C253.105 154.637 257.454 168.974 257.454 183.64C257.438 203.302 249.621 222.155 235.718 236.058C221.815 249.961 202.962 257.779 183.3 257.794ZM183.3 112.186C169.163 112.186 155.343 116.378 143.588 124.233C131.834 132.087 122.672 143.25 117.262 156.311C111.852 169.373 110.436 183.745 113.194 197.61C115.953 211.476 122.76 224.212 132.757 234.209C142.753 244.205 155.49 251.013 169.355 253.771C183.221 256.529 197.593 255.114 210.654 249.703C223.715 244.293 234.879 235.132 242.733 223.377C250.587 211.622 254.779 197.803 254.779 183.665C254.757 164.715 247.219 146.546 233.819 133.146C220.419 119.746 202.251 112.208 183.3 112.186Z" fill="#E0E0E0"/>
<path d="M183.301 221.392C175.839 221.392 168.545 219.179 162.341 215.034C156.137 210.888 151.301 204.996 148.446 198.103C145.591 191.209 144.843 183.624 146.299 176.305C147.755 168.987 151.348 162.265 156.624 156.988C161.9 151.712 168.623 148.119 175.941 146.664C183.259 145.208 190.845 145.955 197.738 148.81C204.632 151.666 210.524 156.501 214.67 162.705C218.815 168.91 221.028 176.204 221.028 183.665C221.017 193.668 217.038 203.257 209.966 210.33C202.893 217.403 193.303 221.381 183.301 221.392ZM183.301 148.588C176.363 148.588 169.582 150.645 163.813 154.5C158.045 158.354 153.549 163.832 150.894 170.242C148.239 176.651 147.544 183.704 148.898 190.509C150.251 197.313 153.592 203.563 158.498 208.469C163.403 213.374 169.653 216.715 176.458 218.069C183.262 219.422 190.315 218.727 196.724 216.072C203.134 213.418 208.612 208.922 212.467 203.153C216.321 197.385 218.378 190.603 218.378 183.665C218.367 174.366 214.668 165.45 208.092 158.874C201.516 152.298 192.601 148.599 183.301 148.588Z" fill="#E0E0E0"/>
</g>
<path d="M182.692 316.385C256.529 316.385 316.385 256.529 316.385 182.692C316.385 108.856 256.529 49 182.692 49C108.856 49 49 108.856 49 182.692C49 256.529 108.856 316.385 182.692 316.385Z" fill="white" stroke="#2F9FEE" stroke-width="6" stroke-miterlimit="10"/>
<circle cx="188" cy="323" r="16" fill="#2F9FEE"/>
<circle cx="188" cy="356" r="8" fill="#2F9FEE"/>
<circle cx="188" cy="381" r="8" fill="#2F9FEE"/>
<circle cx="188" cy="406" r="8" fill="#2F9FEE"/>
<g clip-path="url(#clip0_1161_199)">
<path d="M190.743 161.3C190.78 161.253 190.819 161.212 190.861 161.175C190.811 161.228 190.754 161.279 190.691 161.329C190.707 161.329 190.721 161.329 190.736 161.331C190.74 161.32 190.742 161.31 190.745 161.3H190.743Z" fill="#2F9FEE"/>
<path d="M179.693 161.183C179.737 161.152 179.778 161.125 179.821 161.097C179.804 161.096 179.787 161.094 179.769 161.092C179.745 161.123 179.721 161.154 179.693 161.183Z" fill="#2F9FEE"/>
<path d="M179.672 161.204C179.641 161.236 179.605 161.267 179.568 161.298V161.319C179.605 161.281 179.641 161.241 179.672 161.204Z" fill="#2F9FEE"/>
<path d="M182.416 161.343C182.43 161.343 182.443 161.341 182.457 161.339C182.374 161.274 182.302 161.204 182.241 161.128C182.24 161.133 182.236 161.137 182.234 161.142C182.303 161.204 182.362 161.271 182.416 161.343Z" fill="#2F9FEE"/>
<path d="M228.586 202.341C223.34 196.722 218.176 191.03 212.94 185.405C212.178 184.585 211.899 183.768 211.901 182.663C211.932 162.177 211.932 141.691 211.92 121.205C211.917 114.699 206.568 109.094 200.033 109.064C181.647 108.98 163.26 108.976 144.873 109.069C138.34 109.103 133.007 114.732 133.005 121.232C132.998 158.999 132.998 196.764 133.005 234.53C133.005 242.503 138.212 247.636 146.268 247.637C158.908 247.641 171.548 247.651 184.191 247.615C185.202 247.612 185.775 247.819 186.114 248.839C186.577 250.234 187.352 251.519 188.304 252.631C189.007 253.451 189.159 254.289 189.158 255.301C189.147 262.201 189.178 269.102 189.196 276H230.905C230.936 275.841 230.991 275.683 230.993 275.523C230.998 253.081 230.998 230.638 231 208.196C231 205.917 230.158 204.024 228.586 202.339V202.341ZM136.607 118.531C137.922 114.66 141.337 112.231 145.765 112.23C161.91 112.219 178.057 112.225 194.202 112.226C196.064 112.226 197.925 112.197 199.784 112.237C203.735 112.322 207.021 114.802 208.303 118.497C208.716 119.684 208.609 120.067 207.197 120.06C195.593 120.007 183.99 120.031 172.387 120.031C160.783 120.031 149.29 120.009 137.741 120.062C136.379 120.069 136.183 119.773 136.605 118.533L136.607 118.531ZM136.151 124.657C136.142 123.423 136.486 123.121 137.709 123.127C149.309 123.175 160.911 123.154 172.511 123.154C184.057 123.154 195.602 123.171 207.149 123.128C208.386 123.123 208.83 123.363 208.818 124.716C208.745 132.431 208.759 140.148 208.808 147.863C208.815 149.025 208.602 149.507 207.301 149.435C205.173 149.317 203.032 149.348 200.901 149.427C199.881 149.464 199.601 149.159 199.617 148.155C199.674 144.46 199.598 140.764 199.665 137.071C199.686 135.988 199.368 135.719 198.298 135.727C192.061 135.777 185.822 135.793 179.585 135.717C178.359 135.702 178.311 136.21 178.327 137.135C178.34 138.034 178.325 138.61 179.587 138.59C184.839 138.507 190.092 138.588 195.345 138.53C196.447 138.518 196.855 138.732 196.814 139.921C196.719 142.635 196.745 145.354 196.805 148.071C196.826 149.028 196.627 149.48 195.557 149.367C194.207 149.224 192.517 149.892 191.575 149.114C190.658 148.358 191.339 146.662 191.283 145.384C191.252 144.641 191.078 144.325 190.262 144.333C186.925 144.371 183.586 144.375 180.248 144.332C179.364 144.32 179.089 144.634 179.142 145.468C179.196 146.334 179.154 147.206 179.154 148.074C179.154 148.721 179.294 149.391 178.226 149.373C177.38 149.36 176.889 149.257 176.972 148.237C177.056 147.203 176.175 147.551 175.675 147.568C175.131 147.589 174.168 147.129 174.229 148.261C174.286 149.312 173.752 149.38 172.933 149.361C171.182 149.32 169.428 149.293 167.681 149.37C166.702 149.413 166.407 149.046 166.533 148.158C166.564 147.946 166.538 147.724 166.538 147.506C166.538 145.4 165.451 144.347 163.275 144.347C160.759 144.347 158.241 144.378 155.725 144.332C154.812 144.315 154.321 144.424 154.37 145.538C154.423 146.76 154.956 148.438 154.123 149.101C153.343 149.722 151.719 149.231 150.483 149.37C149.147 149.519 148.682 149.13 148.751 147.721C148.877 145.173 148.848 142.612 148.758 140.062C148.718 138.938 148.995 138.609 150.174 138.624C155.481 138.694 160.788 138.617 166.096 138.684C167.292 138.7 167.511 138.308 167.53 137.215C167.549 136.041 167.171 135.784 166.044 135.793C159.86 135.846 153.677 135.866 147.495 135.781C146.11 135.762 145.889 136.237 145.913 137.445C145.986 140.867 145.868 144.294 145.972 147.714C146.015 149.109 145.566 149.452 144.227 149.38C142.099 149.264 139.958 149.286 137.827 149.373C136.603 149.423 136.133 149.166 136.145 147.798C136.22 140.083 136.209 132.366 136.152 124.65L136.151 124.657ZM187.735 208.031C190.929 212.435 194.095 216.857 197.272 221.272C197.495 221.581 197.743 221.876 197.93 222.204C198.737 223.618 198.07 224.811 196.477 224.811C176.889 224.811 157.301 224.795 137.713 224.847C136.363 224.85 136.152 224.423 136.154 223.222C136.187 200.239 136.19 177.256 136.151 154.274C136.149 152.92 136.353 152.332 137.906 152.442C140.139 152.598 142.391 152.526 144.633 152.461C145.599 152.433 146.085 152.646 145.948 153.701C145.879 154.235 146.008 154.798 145.922 155.328C145.699 156.704 146.242 157.065 147.605 157.029C148.717 157 148.805 156.588 148.803 155.687C148.798 152.481 148.827 152.481 152.002 152.481C152.439 152.481 152.883 152.527 153.314 152.473C154.207 152.358 154.389 152.757 154.404 153.579C154.461 156.375 154.496 156.373 157.325 156.373C160.006 156.373 162.688 156.334 165.368 156.395C166.319 156.418 166.538 156.105 166.54 155.205C166.549 152.481 166.588 152.483 169.402 152.483C170.605 152.483 171.809 152.495 173.012 152.478C173.648 152.469 174.187 152.428 174.182 153.358C174.179 154.278 173.581 154.134 173.08 154.077C171.889 153.945 171.172 154.226 171.45 155.608C171.683 156.764 171.059 156.965 170.067 156.907C169.518 156.874 168.707 156.534 168.702 157.694C168.697 158.81 169.443 158.583 170.041 158.544C172.573 158.377 171.056 160.257 171.421 161.18C171.441 161.18 171.462 161.18 171.483 161.18C171.483 161.199 171.483 161.219 171.483 161.238C172.342 161.235 173.201 161.231 174.058 161.228C174.058 161.211 174.058 161.194 174.058 161.175C174.068 161.175 174.08 161.175 174.092 161.175C174.132 160.166 174.243 159.15 174.179 158.148C174.117 157.149 174.433 156.694 175.454 156.886C176.863 157.151 177.139 156.425 177.003 155.242C176.941 154.707 177.027 154.154 176.984 153.614C176.922 152.831 177.1 152.428 178.036 152.449C178.887 152.467 179.146 152.711 179.175 153.564C179.27 156.371 179.308 156.371 182.132 156.371C184.759 156.371 187.386 156.323 190.011 156.395C191.015 156.423 191.302 156.164 191.29 155.144C191.257 152.481 191.314 152.479 194.073 152.479C196.831 152.479 196.814 152.479 196.769 155.217C196.75 156.397 196.681 157.322 198.412 157.126C199.428 157.012 199.662 156.749 199.664 155.786C199.67 152.481 199.708 152.481 203.101 152.481C204.579 152.481 206.06 152.548 207.532 152.459C208.592 152.394 208.802 152.802 208.801 153.766C208.775 171.262 208.782 188.757 208.778 206.252C208.778 206.348 208.732 206.444 208.675 206.658C208.07 206.434 207.778 205.9 207.415 205.486C205.154 202.904 202.966 200.256 200.65 197.723C198.341 195.197 195.393 194.468 192.128 195.368C188.789 196.292 186.7 198.507 186.062 201.932C185.639 204.21 186.403 206.195 187.735 208.031ZM162.598 149.382C161.186 149.313 159.765 149.332 158.352 149.377C157.524 149.403 157.05 149.289 157.055 148.265C157.061 147.321 157.36 147.021 158.27 147.1C159.027 147.165 159.795 147.113 160.557 147.113C161.265 147.113 161.976 147.158 162.679 147.101C163.516 147.034 163.815 147.309 163.813 148.184C163.809 149.097 163.538 149.43 162.598 149.384V149.382ZM163.792 153.13C163.808 153.693 163.434 153.706 163.033 153.706C162.159 153.706 161.286 153.706 160.412 153.706C159.592 153.706 158.773 153.713 157.954 153.705C157.529 153.7 157.043 153.78 157.081 153.085C157.109 152.576 157.406 152.461 157.837 152.461C159.584 152.462 161.331 152.466 163.078 152.461C163.543 152.461 163.778 152.654 163.792 153.132V153.13ZM187.208 149.373C185.848 149.327 184.484 149.315 183.126 149.377C182.236 149.418 181.897 149.185 181.89 148.224C181.883 147.254 182.236 147.028 183.112 147.1C183.869 147.163 184.635 147.113 185.397 147.113C185.995 147.113 186.595 147.131 187.193 147.108C187.984 147.079 188.613 147 188.596 148.212C188.579 149.353 188.07 149.401 187.208 149.372V149.373ZM188.556 153.183C188.563 153.638 188.297 153.705 187.937 153.703C187.013 153.7 186.088 153.703 185.162 153.703C184.291 153.703 183.421 153.7 182.55 153.703C182.191 153.703 181.916 153.641 181.92 153.188C181.921 152.754 182.032 152.461 182.547 152.462C184.343 152.469 186.138 152.471 187.934 152.461C188.456 152.457 188.551 152.749 188.558 153.183H188.556ZM146.252 244.468C141.475 244.468 137.96 242.228 136.697 238.28C135.682 235.11 136.336 231.807 136.19 228.567C136.159 227.857 136.735 228.033 137.13 228.026C138.169 228.008 139.208 228.02 140.248 228.02C158.841 228.02 177.435 228.042 196.027 227.978C197.536 227.973 197.816 228.39 197.733 229.768C197.427 234.868 198.632 239.653 201.368 244.425C200.382 244.425 199.731 244.425 199.078 244.425C181.469 244.44 163.861 244.466 146.252 244.468ZM188.957 247.637C191.098 247.637 192.975 247.675 194.849 247.629C197.412 247.564 199.997 247.914 202.534 247.31C203.201 247.15 203.53 247.495 203.908 247.921C206.011 250.278 208.623 251.907 211.481 253.223C212.435 253.662 212.921 253.637 213.239 252.583C213.489 251.754 214.516 250.972 212.898 250.321C206.601 247.792 203.142 242.843 201.511 236.54C200.376 232.154 200.854 227.685 201.47 223.264C201.601 222.321 201.487 221.643 200.93 220.879C197.434 216.091 193.981 211.271 190.523 206.458C188.769 204.017 188.706 201.97 190.302 200.086C191.923 198.174 194.403 197.726 197.247 198.991C196.323 199.786 195.545 200.446 194.778 201.117C194.004 201.797 193.819 202.603 194.515 203.401C195.21 204.198 196.013 204.069 196.848 203.491C197.8 202.83 198.582 201.299 199.624 201.591C200.593 201.862 201.248 203.254 202.031 204.16C205.415 208.076 208.797 211.992 212.176 215.911C212.601 216.405 213.023 216.869 213.647 217.164C216.63 218.575 218.811 220.823 220.098 223.814C220.931 225.751 221.951 224.296 222.839 224.102C224.113 223.824 223.273 223.022 223.038 222.503C221.56 219.24 219.291 216.618 216.135 214.897C214.419 213.962 213.469 212.378 212.183 211.077C211.789 210.679 211.899 210.164 211.899 209.685C211.896 202.95 211.898 196.213 211.898 189.476C212.433 189.222 212.57 189.721 212.788 189.956C217.34 194.876 221.866 199.82 226.429 204.731C227.34 205.711 227.727 206.802 227.725 208.119C227.711 224.092 227.703 240.065 227.744 256.037C227.747 257.194 227.321 257.35 226.322 257.347C215.434 257.318 204.546 257.33 193.66 257.326C192.987 257.326 192.063 257.553 192.26 256.374C192.702 253.724 191.838 251.535 190.061 249.592C189.641 249.132 189.425 248.487 188.955 247.639L188.957 247.637ZM226.47 272.822C220.999 272.767 215.525 272.796 210.054 272.796C204.636 272.796 199.218 272.764 193.801 272.822C192.643 272.834 192.17 272.647 192.215 271.341C192.322 268.139 192.287 264.93 192.229 261.724C192.211 260.729 192.498 260.429 193.516 260.432C204.516 260.467 215.515 260.472 226.515 260.427C227.675 260.422 227.86 260.848 227.843 261.85C227.789 265.055 227.777 268.263 227.848 271.468C227.872 272.549 227.55 272.832 226.472 272.822H226.47Z" fill="#2F9FEE"/>
<path d="M171.518 177.45C171.518 177.45 171.523 177.446 171.525 177.444L171.518 177.45Z" fill="#2F9FEE"/>
<path d="M157.598 163.879C157.59 163.886 157.581 163.895 157.572 163.901V163.912C157.581 163.901 157.59 163.891 157.598 163.881V163.879Z" fill="#2F9FEE"/>
<path d="M171.414 177.549C171.4 177.561 171.387 177.573 171.373 177.585C171.376 177.585 171.38 177.586 171.383 177.588C171.394 177.575 171.404 177.563 171.416 177.549H171.414Z" fill="#2F9FEE"/>
<path d="M168.951 166.726C168.921 166.693 168.89 166.662 168.857 166.633C168.857 166.666 168.861 166.697 168.863 166.729C168.892 166.729 168.921 166.728 168.951 166.726Z" fill="#2F9FEE"/>
<path d="M198.182 189.525C199.298 189.551 199.678 189.282 199.668 188.101C199.607 181.964 199.6 175.824 199.673 169.688C199.689 168.425 199.179 168.324 198.149 168.325C197.152 168.325 196.733 168.481 196.749 169.633C196.82 174.846 196.742 180.061 196.809 185.276C196.825 186.428 196.521 186.707 195.375 186.694C190.016 186.629 184.653 186.709 179.294 186.632C178.044 186.613 178.041 187.176 178.035 188.082C178.03 189.01 178.08 189.57 179.313 189.534C182.482 189.439 185.657 189.503 188.83 189.503C192.003 189.503 195.067 189.457 198.183 189.527L198.182 189.525Z" fill="#2F9FEE"/>
<path d="M165.758 186.78C160.567 186.865 155.371 186.778 150.18 186.843C149.003 186.859 148.745 186.5 148.757 185.388C148.816 180.123 148.754 174.857 148.809 169.592C148.82 168.529 148.545 168.193 147.458 168.238C146.462 168.277 145.885 168.306 145.901 169.597C145.972 175.838 145.954 182.081 145.911 188.324C145.904 189.304 146.127 189.637 147.167 189.613C150.282 189.542 153.398 189.587 156.514 189.587C159.63 189.587 162.637 189.565 165.698 189.601C166.645 189.613 167.326 189.675 167.27 188.317C167.224 187.169 167.046 186.757 165.76 186.778L165.758 186.78Z" fill="#2F9FEE"/>
<path d="M179.133 179.948C179.123 180.794 179.389 181.074 180.255 181.062C183.538 181.017 186.822 181.024 190.106 181.058C190.901 181.067 191.291 180.933 191.277 180.01C191.229 176.641 191.239 173.271 191.274 169.901C191.281 169.182 191.049 168.967 190.341 168.986C188.701 169.029 187.057 169 185.415 169C183.665 169 181.912 169.034 180.161 168.984C179.373 168.962 179.123 169.214 179.133 170.002C179.171 173.317 179.171 176.633 179.133 179.948ZM185.344 171.68C187.474 171.68 188.538 172.802 188.538 175.045C188.538 177.194 187.431 178.268 185.217 178.268C183.026 178.268 181.931 177.179 181.931 175.001C181.931 172.788 183.069 171.682 185.344 171.682V171.68Z" fill="#404041"/>
<path d="M154.372 180.082C154.369 180.725 154.476 181.065 155.254 181.058C158.7 181.022 162.146 181.026 165.592 181.057C166.313 181.064 166.544 180.822 166.529 180.12C166.491 178.436 166.517 176.753 166.517 175.068C166.517 173.382 166.484 171.699 166.532 170.016C166.553 169.266 166.37 168.971 165.547 168.981C162.156 169.024 158.764 169.022 155.373 168.981C154.588 168.972 154.353 169.19 154.364 169.978C154.405 173.345 154.391 176.713 154.372 180.082ZM160.3 171.677C162.615 171.677 163.772 172.825 163.772 175.121C163.772 177.219 162.731 178.268 160.647 178.268H160.483C158.225 178.268 157.096 177.145 157.096 174.898C157.096 172.752 158.164 171.678 160.3 171.678V171.677Z" fill="#404041"/>
<path d="M171.525 177.648H171.523L171.526 177.651C171.526 177.631 171.526 177.611 171.526 177.59C171.511 177.594 171.496 177.599 171.48 177.602C171.48 177.602 171.526 177.651 171.525 177.648Z" fill="#2F9FEE"/>
<path d="M179.551 161.07H179.549C179.549 161.082 179.551 161.097 179.552 161.112C179.564 161.112 179.578 161.111 179.59 161.109C179.59 161.109 179.547 161.068 179.549 161.072L179.551 161.07Z" fill="#2F9FEE"/>
<path d="M171.858 172.797C171.832 172.291 171.58 171.759 171.042 171.701C169.267 171.509 169.264 170.299 169.317 168.988C169.347 168.289 169.369 167.579 169.079 166.91C169.07 166.892 169.058 166.877 169.048 166.861C168.985 166.831 168.925 166.796 168.863 166.76C168.863 166.767 168.863 166.776 168.863 166.783C168.845 166.781 168.826 166.777 168.809 166.776C168.794 167.996 168.837 169.219 168.742 170.433C168.65 171.599 168.892 172.296 170.264 172.027C171.346 171.814 171.5 172.394 171.471 173.307C171.427 174.683 171.495 176.063 171.523 177.443C171.567 177.393 171.611 177.34 171.65 177.278C172.203 175.809 171.937 174.295 171.858 172.797Z" fill="#404041"/>
<path d="M174.09 161.226C174.164 161.293 174.238 161.36 174.315 161.425C176.058 161.811 177.795 161.919 179.525 161.336C179.541 161.324 179.556 161.312 179.57 161.298C179.565 161.236 179.56 161.173 179.553 161.111C177.735 161.339 175.913 161.219 174.092 161.175C174.092 161.192 174.092 161.209 174.09 161.226Z" fill="#404041"/>
<path d="M177.405 163.896C176.788 163.953 176.668 164.627 176.608 165.183C176.53 165.887 176.539 166.596 176.563 167.299C176.594 168.253 176.288 168.845 175.222 168.945C174.188 169.041 173.708 169.705 173.679 170.719C173.649 171.788 174.2 172.336 175.237 172.42C176.19 172.497 176.56 173.024 176.554 173.93C176.547 175.397 176.584 176.863 176.535 178.33C176.516 178.888 176.439 179.45 175.713 179.54C175.04 179.622 174.776 179.238 174.565 178.649C173.962 176.964 173.502 176.791 171.601 177.383C171.574 177.403 171.548 177.424 171.523 177.446C171.523 177.494 171.525 177.544 171.527 177.592C172.322 177.371 173.236 177.274 173.884 177.588C174.522 177.897 174.054 178.872 174.162 179.545C174.353 180.717 175.272 180.065 175.861 180.185C176.525 180.32 177.004 180.163 176.976 179.275C176.919 177.539 176.881 175.794 176.985 174.06C177.071 172.597 176.902 171.608 175.044 171.979C174.074 172.171 174.168 171.419 174.213 170.831C174.258 170.258 173.903 169.286 175.013 169.468C176.997 169.793 177.145 168.718 176.988 167.236C176.921 166.59 177.047 165.925 176.973 165.283C176.859 164.293 177.194 163.84 178.222 164.035C179.511 164.281 179.888 163.682 179.698 162.511C179.634 162.118 179.606 161.72 179.572 161.322C179.498 161.406 179.428 161.492 179.413 161.592C179.238 162.788 178.891 163.762 177.405 163.898V163.896Z" fill="#404041"/>
<path d="M173.044 166.628C171.68 166.604 170.316 166.685 168.951 166.728C168.987 166.769 169.02 166.813 169.05 166.862C170.505 167.608 172.045 167.282 173.566 167.083C174.027 167.023 174.378 166.673 174.431 166.215C174.625 164.535 175.014 162.831 174.088 161.228H174.06C174.094 162.668 174.093 164.111 174.181 165.547C174.236 166.434 173.868 166.644 173.045 166.628H173.044Z" fill="#404041"/>
<path d="M174.089 161.226L174.059 161.173C174.069 161.19 174.077 161.207 174.088 161.226H174.091H174.089Z" fill="#2F9FEE"/>
<path d="M157.607 163.762C157.607 163.749 157.61 163.735 157.612 163.721C157.595 163.718 157.578 163.713 157.559 163.711C157.559 163.711 157.598 163.754 157.607 163.762Z" fill="#2F9FEE"/>
<path d="M164.644 161.205C163.515 161.25 163.028 160.958 163.228 159.803C163.401 158.806 163.069 158.394 161.941 158.412C160.859 158.429 160.287 158.623 160.478 159.819C160.634 160.794 160.349 161.403 159.189 161.18C157.976 160.946 157.492 161.423 157.693 162.649C157.75 162.993 157.649 163.364 157.611 163.723C157.862 163.774 158.121 163.879 158.356 163.839C159.867 163.591 160.606 164.066 160.306 165.701C160.237 166.074 160.154 166.525 160.819 166.68C162.461 167.062 163.244 166.59 163.206 164.953C163.183 163.961 163.582 163.776 164.441 163.839C165.191 163.894 166.094 163.68 165.846 164.927C165.523 166.558 166.394 166.836 167.742 166.678C168.09 166.637 168.454 166.733 168.81 166.776C168.81 166.76 168.81 166.746 168.81 166.731C168.821 166.731 168.829 166.731 168.84 166.731C168.81 166.673 168.784 166.616 168.758 166.561C168.734 166.546 168.712 166.529 168.686 166.515C167.307 166.35 166.113 166.027 166.159 164.248C166.171 163.791 165.687 163.568 165.235 163.448C163.911 163.098 163.194 163.575 162.774 165.195C162.62 165.787 162.407 166.216 161.719 166.199C161.106 166.184 160.931 165.768 160.786 165.253C160.216 163.254 159.801 163.05 157.789 163.699C157.777 163.709 157.765 163.719 157.753 163.728C157.776 163.702 157.796 163.676 157.817 163.649C158.111 162.523 158.477 161.53 159.953 161.463C160.596 161.434 160.885 160.795 161.045 160.189C161.17 159.716 161.286 159.208 161.935 159.215C162.587 159.222 162.711 159.718 162.793 160.207C162.919 160.981 163.277 161.571 164.122 161.591C166.498 161.65 168.885 161.926 171.247 161.416C171.273 161.392 171.299 161.37 171.325 161.348C171.359 161.303 171.398 161.262 171.441 161.223C171.434 161.209 171.429 161.195 171.423 161.181C169.165 161.181 166.902 161.118 164.645 161.209L164.644 161.205Z" fill="#404041"/>
<path d="M171.323 161.344C170.85 161.955 171.114 162.999 170.034 163.342C168.264 163.905 167.953 164.825 168.759 166.559C168.793 166.582 168.826 166.608 168.857 166.633C168.828 166.038 168.814 165.439 168.752 164.847C168.669 164.071 168.973 163.699 169.758 163.855C171.398 164.183 171.679 163.316 171.493 161.985C171.458 161.739 171.481 161.487 171.482 161.236H171.446C171.405 161.272 171.365 161.308 171.323 161.344Z" fill="#404041"/>
<path d="M171.446 161.236L171.482 161.178C171.467 161.192 171.453 161.205 171.439 161.219C171.441 161.224 171.443 161.231 171.446 161.236Z" fill="#2F9FEE"/>
<path d="M168.862 166.76C168.862 166.75 168.862 166.74 168.862 166.729C168.855 166.729 168.847 166.729 168.84 166.729C168.843 166.736 168.847 166.745 168.85 166.752C168.855 166.753 168.859 166.757 168.864 166.759L168.862 166.76Z" fill="#2F9FEE"/>
<path d="M168.811 166.731L168.864 166.783C168.859 166.772 168.855 166.764 168.85 166.753C168.836 166.747 168.824 166.74 168.811 166.731Z" fill="#2F9FEE"/>
<path d="M188.273 163.888C187.663 163.881 187.547 164.601 187.451 165.144C187.352 165.696 187.236 166.251 186.483 166.187C185.83 166.132 185.745 165.611 185.719 165.121C185.664 164.037 185.176 163.404 184.034 163.354C183.268 163.321 182.848 162.908 182.739 162.156C182.696 161.852 182.594 161.576 182.416 161.343C182.337 161.348 182.257 161.353 182.178 161.358C182.563 161.526 182.456 161.895 182.42 162.166C182.259 163.387 182.634 164.035 183.992 163.779C184.986 163.592 185.342 163.975 185.264 165.003C185.204 165.794 184.78 166.815 186.446 166.805C187.869 166.795 188.083 166.247 187.945 165.116C187.86 164.432 188.002 163.877 188.875 164.039C190.575 164.351 190.969 163.515 190.753 162.05C190.72 161.827 190.854 161.58 190.924 161.341C190.862 161.338 190.798 161.334 190.736 161.331C190.363 162.595 190.103 163.91 188.275 163.888H188.273Z" fill="#404041"/>
<path d="M190.545 161.432C190.599 161.399 190.645 161.365 190.69 161.329C187.946 161.171 185.201 161.145 182.457 161.341C182.502 161.375 182.549 161.408 182.599 161.439C185.245 161.887 187.892 161.882 190.545 161.432Z" fill="#404041"/>
<path d="M182.107 161.363C182.132 161.362 182.154 161.36 182.178 161.358C182.166 161.353 182.154 161.346 182.14 161.341L182.107 161.362V161.363Z" fill="#2F9FEE"/>
<path d="M190.924 161.341C190.943 161.341 190.962 161.343 190.981 161.344L190.936 161.3C190.932 161.314 190.927 161.327 190.924 161.341Z" fill="#2F9FEE"/>
<path d="M170.933 178.987C170.761 179.576 170.293 179.665 169.768 179.629C169.329 179.598 169.052 179.371 169.026 178.922C168.992 178.316 169.35 178.043 169.909 177.978C170.426 177.918 170.964 177.909 171.37 177.583C170.744 177.355 170.084 177.544 169.448 177.475C168.769 177.401 168.548 177.779 168.669 178.342C168.8 178.953 168.171 179.807 169.142 180.154C170.604 180.677 171.427 180.082 171.441 178.563C171.444 178.251 171.463 177.939 171.477 177.626C171.446 177.613 171.413 177.599 171.382 177.587C171.059 177.983 171.069 178.513 170.933 178.985V178.987Z" fill="#404041"/>
<path d="M171.479 177.628C171.494 177.635 171.508 177.64 171.523 177.647L171.48 177.6C171.48 177.609 171.48 177.618 171.48 177.626L171.479 177.628Z" fill="#404041"/>
<path d="M152.386 161.265C153.359 161.202 154.201 161.271 153.802 159.841C154.161 158.789 153.688 158.499 152.587 158.515C151.562 158.528 150.987 158.602 151.073 159.874C151.139 160.836 151.22 161.343 152.386 161.265Z" fill="#404041"/>
<path d="M182.144 161.338H182.125C182.125 161.338 182.117 161.351 182.112 161.36C182.108 161.363 182.149 161.334 182.144 161.338Z" fill="#2F9FEE"/>
<path d="M180.152 159.91C180.233 159.438 180.468 159.114 180.995 159.122C181.524 159.131 181.749 159.472 181.823 159.937C181.892 160.373 181.975 160.8 182.241 161.13C182.661 160.304 182.656 159.364 182.177 158.719C181.904 158.35 180.752 158.485 180.036 158.614C179.385 158.733 179.773 159.416 179.699 159.843C179.628 160.246 179.625 160.663 179.594 161.073C179.653 161.08 179.711 161.085 179.77 161.092C180.029 160.754 180.078 160.327 180.15 159.91H180.152Z" fill="#404041"/>
<path d="M179.594 161.073C179.58 161.073 179.566 161.07 179.551 161.068C179.558 161.073 179.59 161.106 179.59 161.106C179.59 161.094 179.59 161.083 179.592 161.072L179.594 161.073Z" fill="#2F9FEE"/>
<path d="M179.822 161.097C180.59 161.178 181.357 161.259 182.126 161.336C182.166 161.272 182.2 161.207 182.235 161.142C182.2 161.111 182.166 161.08 182.128 161.053C181.338 160.636 180.567 160.624 179.822 161.097Z" fill="#404041"/>
<path d="M190.98 161.342C190.966 161.327 190.956 161.31 190.942 161.295C190.938 161.295 190.935 161.295 190.932 161.295C190.935 161.298 190.98 161.342 190.98 161.342Z" fill="#2F9FEE"/>
<path d="M191.281 160.075C191.355 159.481 191.61 159.054 192.306 159.108C192.764 159.144 192.963 159.431 192.964 159.86C192.964 160.464 192.574 160.689 192.04 160.758C191.611 160.812 191.184 160.869 190.861 161.173C190.885 161.214 190.913 161.254 190.942 161.295C191.369 161.272 191.812 161.302 192.228 161.216C192.643 161.13 193.334 161.586 193.426 160.814C193.507 160.131 193.654 159.222 193.303 158.781C192.85 158.209 191.879 158.544 191.143 158.588C190.476 158.628 190.744 159.256 190.749 159.625C190.756 160.138 190.579 160.689 190.858 161.171C191.126 160.873 191.226 160.488 191.278 160.075H191.281Z" fill="#404041"/>
<path d="M157.559 163.711C157.559 163.73 157.562 163.749 157.562 163.767C157.578 163.767 157.593 163.767 157.609 163.767V163.764H157.607L157.559 163.713V163.711Z" fill="#2F9FEE"/>
<path d="M155.248 163.967C154.59 164.411 154.802 165.569 155.077 166.211C155.416 167.006 156.425 166.489 157.132 166.534C157.958 166.587 157.638 165.871 157.656 165.466C157.678 164.95 157.616 164.428 157.574 163.91C157.262 164.308 157.282 164.835 157.149 165.303C157.008 165.804 156.639 165.969 156.152 165.904C155.78 165.854 155.583 165.617 155.554 165.254C155.514 164.761 155.71 164.416 156.221 164.308C156.688 164.209 157.189 164.195 157.573 163.901C157.569 163.857 157.566 163.812 157.562 163.768C156.769 163.802 155.806 163.589 155.246 163.967H155.248Z" fill="#404041"/>
<path d="M172.875 183.42C171.863 183.142 171.329 183.414 171.42 184.659C171.486 185.544 171.419 186.182 172.672 186.093C173.65 186.025 174.329 186.054 174.191 184.753C174.097 183.89 174.23 183.058 172.875 183.42Z" fill="#404041"/>
<path d="M169.941 146.497C170.781 146.564 171.645 146.756 171.479 145.39C171.378 144.543 171.664 143.673 170.221 143.784C169.231 143.86 168.562 143.842 168.692 145.142C168.78 146.022 168.676 146.835 169.941 146.499V146.497Z" fill="#404041"/>
<path d="M174.294 236.569C174.325 235.812 174.609 234.896 173.199 234.963C171.237 235.055 169.263 235.066 167.304 234.957C166.064 234.889 165.788 235.266 165.734 236.478C165.67 237.945 166.125 238.391 167.535 238.199C168.339 238.091 169.17 238.18 169.989 238.18C171.082 238.18 172.179 238.112 173.264 238.197C174.744 238.314 174.265 237.269 174.294 236.571V236.569Z" fill="#2F9FEE"/>
<path d="M196.403 265.023C195.164 265.076 194.322 264.974 194.384 266.73C194.438 268.249 195.058 268.391 196.258 268.183C197.421 268.389 198.231 268.367 198.145 266.666C198.074 265.302 197.723 264.966 196.404 265.023H196.403Z" fill="#2F9FEE"/>
</g>
<defs>
<clipPath id="clip0_1161_199">
<rect width="98" height="167" fill="white" transform="translate(133 109)"/>
</clipPath>
</defs>
</svg>
