<svg width="367" height="418" viewBox="0 0 367 418" fill="none" xmlns="http://www.w3.org/2000/svg">
<g opacity="0.7">
<path d="M183.301 366.602C82.2106 366.602 0 284.358 0 183.301C0 82.2439 82.2439 0 183.301 0C284.358 0 366.602 82.2439 366.602 183.301C366.602 284.358 284.425 366.602 183.301 366.602ZM183.301 2.58286C83.677 2.58286 2.62453 83.6353 2.62453 183.268C2.62453 282.9 83.7103 363.953 183.301 363.953C282.892 363.953 363.986 282.9 363.986 183.268C363.986 83.6353 282.967 2.58286 183.301 2.58286Z" fill="#E0E0E0"/>
<path d="M183.302 330.2C102.283 330.2 36.3691 264.287 36.3691 183.268C36.3691 102.249 102.316 36.3352 183.302 36.3352C264.287 36.3352 330.268 102.257 330.268 183.268C330.268 264.279 264.354 330.2 183.302 330.2ZM183.302 38.9848C103.749 38.9848 39.0187 103.707 39.0187 183.268C39.0187 262.829 103.782 327.542 183.302 327.542C262.821 327.542 327.585 262.82 327.585 183.268C327.585 103.715 262.896 38.9848 183.302 38.9848Z" fill="#E0E0E0"/>
<path d="M183.302 293.798C122.354 293.798 72.7715 244.215 72.7715 183.268C72.7715 122.32 122.388 72.7371 183.302 72.7371C244.216 72.7371 293.833 122.32 293.833 183.268C293.833 244.215 244.283 293.798 183.302 293.798ZM183.302 75.3866C154.706 75.4285 127.294 86.8091 107.077 107.033C86.8595 127.256 75.4874 154.672 75.4543 183.268C75.4543 242.749 123.854 291.149 183.335 291.149C211.952 291.149 239.396 279.781 259.631 259.546C279.865 239.311 291.233 211.867 291.233 183.251C291.233 154.635 279.865 127.191 259.631 106.956C239.396 86.7211 211.952 75.3533 183.335 75.3533L183.302 75.3866Z" fill="#E0E0E0"/>
<path d="M183.301 257.396C168.635 257.396 154.298 253.048 142.104 244.899C129.909 236.751 120.405 225.17 114.792 211.62C109.18 198.07 107.711 183.161 110.572 168.776C113.434 154.392 120.496 141.179 130.867 130.808C141.237 120.438 154.45 113.375 168.834 110.514C183.219 107.653 198.129 109.121 211.679 114.734C225.228 120.346 236.81 129.851 244.958 142.045C253.106 154.24 257.455 168.577 257.455 183.243C257.439 202.905 249.622 221.757 235.719 235.66C221.815 249.564 202.963 257.381 183.301 257.396ZM183.301 111.789C169.164 111.789 155.344 115.981 143.589 123.835C131.835 131.689 122.673 142.853 117.263 155.914C111.853 168.975 110.437 183.347 113.195 197.213C115.954 211.078 122.761 223.815 132.758 233.811C142.754 243.808 155.491 250.616 169.356 253.374C183.222 256.132 197.594 254.716 210.655 249.306C223.716 243.896 234.88 234.734 242.734 222.98C250.588 211.225 254.78 197.405 254.78 183.268C254.758 164.317 247.22 146.149 233.82 132.749C220.42 119.349 202.252 111.811 183.301 111.789Z" fill="#E0E0E0"/>
<path d="M183.302 220.995C175.84 220.995 168.546 218.782 162.342 214.637C156.138 210.491 151.302 204.599 148.447 197.705C145.592 190.812 144.844 183.226 146.3 175.908C147.756 168.59 151.349 161.867 156.625 156.591C161.901 151.315 168.624 147.722 175.942 146.266C183.26 144.81 190.846 145.558 197.739 148.413C204.633 151.268 210.525 156.104 214.671 162.308C218.816 168.512 221.029 175.806 221.029 183.268C221.018 193.27 217.039 202.86 209.967 209.933C202.894 217.005 193.304 220.984 183.302 220.995ZM183.302 148.191C176.364 148.191 169.582 150.248 163.814 154.102C158.046 157.957 153.55 163.435 150.895 169.845C148.24 176.254 147.545 183.307 148.899 190.111C150.252 196.916 153.593 203.166 158.499 208.071C163.404 212.977 169.654 216.318 176.459 217.671C183.263 219.025 190.316 218.33 196.725 215.675C203.135 213.02 208.613 208.524 212.468 202.756C216.322 196.987 218.379 190.206 218.379 183.268C218.368 173.968 214.669 165.053 208.093 158.477C201.517 151.901 192.602 148.202 183.302 148.191Z" fill="#E0E0E0"/>
</g>
<g clip-path="url(#clip0_1161_200)">
<path d="M184 318.295C257.836 318.295 317.693 258.439 317.693 184.603C317.693 110.766 257.836 50.9102 184 50.9102C110.164 50.9102 50.3076 110.766 50.3076 184.603C50.3076 258.439 110.164 318.295 184 318.295Z" fill="white" stroke="#2F9FEE" stroke-width="6" stroke-miterlimit="10"/>
</g>
<circle cx="184" cy="326.603" r="16" fill="#2F9FEE"/>
<circle cx="184" cy="359.603" r="8" fill="#2F9FEE"/>
<circle cx="184" cy="384.603" r="8" fill="#2F9FEE"/>
<circle cx="184" cy="409.603" r="8" fill="#2F9FEE"/>
<g clip-path="url(#clip1_1161_200)">
<path d="M105.262 152.28C106.108 144.307 113.433 138.188 122.236 138.175C137.658 138.154 153.08 138.171 168.501 138.171C177.453 138.171 186.405 138.171 195.361 138.179C195.926 138.179 196.511 138.192 197.046 138.337C198.2 138.652 198.768 139.531 198.681 140.663C198.598 141.782 197.951 142.599 196.751 142.757C196.141 142.835 195.515 142.823 194.892 142.823C170.672 142.823 146.452 142.819 122.236 142.831C115.683 142.831 110.856 146.824 109.802 153.084C109.665 153.893 109.669 154.73 109.669 155.555C109.661 176.236 109.661 196.916 109.669 217.596C109.669 225.175 114.703 230.212 122.29 230.25C123.842 230.258 125.394 230.275 126.946 230.25C130.374 230.183 132.839 231.655 134.549 234.64C139.475 243.231 144.472 251.784 149.44 260.35C149.544 260.528 149.647 260.706 149.755 260.885C150.913 262.8 152.357 262.808 153.499 260.856C156.209 256.225 158.89 251.577 161.579 246.937C163.961 242.833 166.372 238.745 168.709 234.616C170.402 231.622 172.909 230.242 176.329 230.246C195.581 230.266 214.829 230.266 234.082 230.25C240.51 230.246 245.25 226.502 246.445 220.498C246.644 219.495 246.649 218.442 246.649 217.414C246.665 208.728 246.653 200.042 246.665 191.356C246.665 190.792 246.657 190.199 246.819 189.673C247.188 188.487 248.08 187.894 249.313 188.06C250.45 188.218 251.164 188.931 251.293 190.112C251.338 190.523 251.317 190.937 251.317 191.352C251.317 200.088 251.33 208.827 251.317 217.563C251.301 227.816 244.241 234.889 233.97 234.897C214.875 234.918 195.776 234.922 176.681 234.873C174.747 234.868 173.536 235.532 172.569 237.223C167.659 245.826 162.666 254.38 157.69 262.941C154.545 268.356 148.73 268.352 145.568 262.92C140.584 254.359 135.599 245.801 130.685 237.203C129.718 235.507 128.49 234.835 126.556 234.864C123.365 234.914 120.152 235.142 116.998 234.255C110.989 232.567 105.996 226.941 105.291 220.938C104.979 220.444 105.386 219.831 105.013 219.35V153.884C105.382 153.395 104.996 152.782 105.274 152.276L105.262 152.28Z" fill="#2F9FEE"/>
<path d="M105.261 152.28C105.365 152.848 105.398 153.404 105 153.889V152.338C105.075 152.259 105.162 152.243 105.261 152.28Z" fill="#535353"/>
<path d="M105 219.35C105.419 219.822 105.374 220.378 105.278 220.938L105.141 220.892L105 220.9V219.35Z" fill="#555555"/>
<path d="M178.287 205.56C195.419 205.56 212.551 205.56 229.683 205.56C232.33 205.56 233.492 206.286 233.455 207.919C233.422 209.507 232.28 210.216 229.753 210.216C195.332 210.216 160.915 210.216 126.494 210.216C123.962 210.216 122.879 209.495 122.908 207.836C122.933 206.232 123.966 205.564 126.423 205.56C143.708 205.56 160.998 205.56 178.283 205.56H178.287Z" fill="#404041"/>
<path d="M157.333 166.895C146.991 166.895 136.649 166.895 126.311 166.895C125.846 166.895 125.365 166.949 124.917 166.862C123.651 166.604 122.879 165.837 122.921 164.502C122.962 163.18 123.717 162.425 125.033 162.268C125.44 162.218 125.859 162.243 126.274 162.243C147.058 162.243 167.846 162.243 188.63 162.243C189.045 162.243 189.464 162.214 189.871 162.272C191.103 162.438 191.854 163.151 191.946 164.39C192.045 165.725 191.306 166.534 190.057 166.837C189.568 166.957 189.028 166.895 188.513 166.895C178.121 166.895 167.73 166.895 157.333 166.895Z" fill="#404041"/>
<path d="M157.329 183.922C167.734 183.922 178.138 183.922 188.538 183.922C189.003 183.922 189.476 183.897 189.933 183.951C191.116 184.092 191.809 184.805 191.941 185.958C192.074 187.119 191.539 187.94 190.431 188.375C189.883 188.591 189.314 188.57 188.746 188.57C167.887 188.57 147.029 188.57 126.17 188.57C125.548 188.57 124.925 188.599 124.336 188.342C123.244 187.861 122.784 187.011 122.941 185.854C123.095 184.747 123.767 184.101 124.871 183.951C125.382 183.885 125.904 183.918 126.423 183.918C136.724 183.918 147.025 183.918 157.321 183.918L157.329 183.922Z" fill="#404041"/>
<path d="M232.716 124C215.485 123.975 201.449 137.91 201.349 155.149C201.25 172.363 215.36 186.501 232.654 186.514C249.902 186.53 263.954 172.562 263.995 155.36C264.041 138.055 250.047 124.025 232.716 124ZM232.62 181.858C217.937 181.824 205.993 169.867 206.01 155.228C206.026 140.584 217.991 128.66 232.674 128.652C247.378 128.644 259.322 140.534 259.343 155.203C259.364 169.938 247.382 181.895 232.62 181.858Z" fill="#2F9FEE"/>
<path d="M233.666 137.628C231.25 137.441 228.806 137.475 226.387 137.607C225.1 137.678 224.349 138.656 224.415 139.966C224.482 141.256 225.237 142.064 226.582 142.143C227.511 142.197 228.449 142.251 229.37 142.155C230.632 142.023 231.022 142.425 231.014 143.743C230.952 152.321 230.981 160.895 230.985 169.473C230.985 169.988 230.968 170.514 231.043 171.02C231.213 172.214 231.985 172.852 233.143 172.927C234.297 173.002 235.156 172.459 235.471 171.31C235.616 170.775 235.637 170.191 235.637 169.627C235.65 164.822 235.645 160.016 235.645 155.211C235.645 150.302 235.637 145.393 235.65 140.485C235.65 139.046 235.218 137.748 233.666 137.628Z" fill="#2F9FEE"/>
</g>
<defs>
<clipPath id="clip0_1161_200">
<rect width="272" height="272" fill="white" transform="translate(48 48.6025)"/>
</clipPath>
<clipPath id="clip1_1161_200">
<rect width="159" height="143" fill="white" transform="translate(105 124)"/>
</clipPath>
</defs>
</svg>
