<svg width="125" height="125" viewBox="0 0 125 125" fill="none" xmlns="http://www.w3.org/2000/svg">
<g clip-path="url(#clip0_380_1063)">
<path d="M122.207 42.4018C109.958 42.4018 97.7127 42.4018 85.464 42.4018C85.017 42.4018 84.5602 42.3822 84.1262 42.467C82.8602 42.7183 82.299 44.1735 83.0299 45.2405C83.5291 45.9714 84.2828 46.0628 85.0822 46.0628C88.8671 46.0595 92.652 46.1019 96.4337 46.0334C97.4517 46.0138 97.6866 46.2716 97.6866 47.2864C97.6507 62.9518 97.6475 78.6172 97.6866 94.2825C97.6866 95.3626 97.4289 95.6497 96.3652 95.5877C93.2752 95.4082 90.293 95.8031 87.5685 97.4574C83.9598 99.6468 80.3184 101.784 76.6901 103.944C73.9689 105.563 72.0504 107.847 70.9769 110.832C70.1938 113.009 69.3977 115.175 68.6211 117.352C68.2426 118.405 67.6716 119.322 66.7972 120.037C64.8297 121.646 62.0856 121.77 59.9941 120.337C57.8537 118.872 56.9956 116.245 57.9157 113.635C59.6939 108.587 61.5342 103.562 63.3353 98.5211C64.0042 96.6482 63.2765 95.5942 61.2993 95.5681C59.3448 95.5453 57.3936 95.5616 55.4392 95.5616C48.3588 95.5616 41.2784 95.5747 34.198 95.5551C31.1015 95.5453 28.8436 93.4733 28.8534 90.7325C28.86 87.9459 31.0885 85.9425 34.1915 85.9359C37.3238 85.9294 40.4561 85.9359 43.5917 85.9359C45.6278 85.9359 47.6605 85.9522 49.6965 85.9294C50.9299 85.9164 51.726 85.1985 51.7521 84.1478C51.7815 83.0548 50.956 82.3108 49.6639 82.2749C49.3376 82.2651 49.0113 82.2749 48.6883 82.2749C41.9342 82.2749 35.1801 82.288 28.426 82.2684C25.5906 82.2586 23.4175 80.2095 23.3523 77.5632C23.2837 74.7212 25.4209 72.6623 28.5337 72.6525C35.3302 72.6329 42.1235 72.646 48.92 72.646C50.8744 72.646 51.7815 72.0423 51.7521 70.7698C51.726 69.5364 50.8712 68.985 48.9657 68.985C43.9213 68.985 38.8737 69.0241 33.8293 68.9654C30.971 68.9327 28.86 66.8184 28.86 64.1689C28.86 61.5324 31.144 59.5746 33.9598 59.2875C37.7904 58.8992 41.0761 59.6432 43.6211 62.7038C43.7745 62.8865 43.9996 63.0105 44.1823 63.1704C44.861 63.761 45.5821 64.1786 46.5022 63.7251C47.3864 63.2846 47.5985 62.5048 47.592 61.5879C47.5724 59.4735 47.6279 57.3558 47.5659 55.2414C47.5398 54.3278 47.729 53.9722 48.7438 54.0081C51.0996 54.0929 53.4619 54.057 55.8242 54.0276C59.9582 53.9754 62.7382 51.3063 62.8132 47.195C62.8328 46.1411 63.2178 46.0334 64.089 46.0432C67.8739 46.0791 71.6556 46.0563 75.4405 46.0628C76.1942 46.0628 76.9153 45.991 77.4145 45.3319C77.8387 44.7739 77.9561 44.1638 77.6592 43.5014C77.297 42.6922 76.6412 42.3985 75.7961 42.3985C71.8905 42.4018 67.9816 42.3594 64.0792 42.4246C63.022 42.4409 62.823 42.1016 62.8263 41.1227C62.8654 32.6195 62.8491 24.1163 62.8459 15.6098C62.8459 12.5589 62.9111 9.5048 62.8034 6.45722C62.6631 2.7962 59.7983 0.0226962 56.157 0.0161703C39.6763 -0.00993324 23.1989 -0.000144419 6.71822 0.0129073C4.35917 0.0161703 2.52219 1.09294 1.14852 3.00502C0.623205 3.73592 0.460063 4.62344 0 5.37392V11.2342C0.489428 12.4023 1.08327 12.833 2.05234 12.7253C3.01814 12.6176 3.76207 11.8639 3.96437 10.7839C4.03289 10.4217 4.03289 10.0562 4.03615 9.69079C4.04268 8.91747 4.02636 8.14416 4.04594 7.3741C4.10141 5.13572 5.12595 4.05895 7.35448 4.05569C23.3784 4.03611 39.4055 4.03611 55.4294 4.05569C57.7232 4.05569 58.6988 5.07047 58.702 7.35126C58.7118 20.4063 58.7118 33.4613 58.702 46.5196C58.702 49.0712 57.87 49.9 55.3543 49.9163C52.5059 49.9326 49.6607 49.8968 46.8122 49.9294C44.3748 49.9587 43.6015 50.7484 43.5722 53.1597C43.5559 54.5236 43.5885 55.8908 43.5526 57.4178C41.1707 55.4046 38.8671 53.6067 36.7006 51.6489C35.3563 50.4319 33.8945 49.8837 32.0641 49.8967C24.0929 49.9555 16.1218 49.9229 8.14735 49.9196C7.65792 49.9196 7.17176 49.9359 6.68233 49.9C5.3054 49.7956 4.34612 48.9211 4.1112 47.554C4.00679 46.9503 4.03941 46.3369 4.03941 45.7267C4.03941 37.4291 4.03941 29.1314 4.03941 20.8337C4.03941 20.2236 4.07204 19.6101 3.96437 19.0065C3.77186 17.9265 3.0214 17.1727 2.0556 17.065C1.08653 16.9574 0.492691 17.3881 0.00326286 18.5562V48.8298C0.06852 48.8722 0.166406 48.8983 0.192508 48.957C1.86309 52.8758 3.60545 54.0374 7.82106 54.0374C14.9015 54.0374 21.9786 54.0733 29.0557 54.0081C30.5077 53.995 31.6138 54.1614 31.9075 55.8777C29.134 56.6282 26.9838 58.276 25.832 61.0593C24.677 63.8523 25.1631 66.5019 26.6934 69.0208C21.9329 70.6588 19.5869 73.5824 19.6946 77.6481C19.799 81.606 22.2657 84.5133 26.6379 85.8217C26.6412 86.2622 26.3149 86.5494 26.1387 86.9083C25.1534 88.928 24.9086 91.0065 25.5873 93.1764C26.7587 96.9288 30.0313 99.2161 34.3383 99.2259C42.1887 99.2422 50.0424 99.252 57.8928 99.2063C58.9663 99.1998 59.198 99.3695 58.8032 100.436C57.2762 104.538 55.7426 108.643 54.3755 112.8C52.5907 118.219 56.0526 123.939 61.4983 124.778C61.9388 124.713 62.3793 124.67 62.748 125H64.7024C64.7873 124.931 64.8656 124.817 64.9634 124.798C68.4547 124.103 70.7615 122.018 72.0112 118.742C72.8074 116.66 73.5317 114.549 74.2658 112.444C75.1011 110.039 76.5955 108.212 78.8077 106.93C82.0021 105.073 85.2421 103.282 88.3222 101.252C90.9945 99.4934 93.8593 99.0791 96.9264 99.2128C97.517 99.2389 97.7356 99.4021 97.6736 99.9829C97.6377 100.306 97.6638 100.632 97.667 100.959C97.6833 102.623 98.3 103.262 99.9347 103.269C102.212 103.278 104.493 103.285 106.77 103.269C108.076 103.259 108.898 102.525 108.891 101.432C108.885 100.342 108.066 99.6305 106.748 99.6174C105.243 99.6011 103.733 99.562 102.232 99.6338C101.442 99.6729 101.312 99.4021 101.312 98.6777C101.331 81.4657 101.334 64.2537 101.312 47.0449C101.312 46.239 101.53 46.0432 102.317 46.0497C108.34 46.0824 114.36 46.0856 120.383 46.0497C121.215 46.0432 121.368 46.3075 121.362 47.071C121.333 52.4027 121.346 57.7311 121.346 63.0627C121.346 74.8615 121.333 86.6636 121.368 98.4624C121.368 99.4249 121.127 99.699 120.177 99.6403C118.758 99.5554 117.329 99.6044 115.906 99.624C114.598 99.6403 113.776 100.365 113.782 101.458C113.789 102.548 114.611 103.269 115.923 103.278C118.037 103.295 120.155 103.285 122.269 103.282C124.504 103.282 125.003 102.789 125.003 100.583C125.003 82.1118 125.003 63.637 125.003 45.1655C125.003 42.8749 124.537 42.4116 122.21 42.4116L122.207 42.4018Z" fill="#404041"/>
<path d="M61.4918 124.778C61.5538 124.843 61.5668 124.918 61.5211 125H62.7414C62.3629 124.703 61.8768 125.026 61.4918 124.778Z" fill="#404041"/>
<path d="M111.365 94.1424C114.51 94.113 117.097 91.5222 117.12 88.3865C117.143 85.2247 114.458 82.5459 111.296 82.572C108.121 82.5981 105.469 85.3096 105.544 88.4583C105.619 91.6103 108.242 94.175 111.368 94.1456L111.365 94.1424ZM111.407 86.2395C112.526 86.2885 113.476 87.2967 113.45 88.4061C113.423 89.5384 112.448 90.4813 111.316 90.4715C110.187 90.4618 109.221 89.5025 109.214 88.3735C109.205 87.2119 110.255 86.1873 111.407 86.2395Z" fill="#2F9FEE"/>
<path d="M111.306 78.3562C114.487 78.3693 117.146 75.7067 117.12 72.5384C117.091 69.3733 114.533 66.8348 111.355 66.8217C108.138 66.8087 105.508 69.4288 105.54 72.6134C105.573 75.7491 108.177 78.3431 111.306 78.3562ZM111.319 70.4925C112.474 70.4892 113.427 71.4029 113.449 72.5384C113.472 73.6543 112.526 74.6495 111.4 74.6919C110.236 74.7343 109.201 73.7294 109.211 72.5612C109.221 71.4257 110.167 70.499 111.319 70.4958V70.4925Z" fill="#2F9FEE"/>
<path d="M49.0538 26.9845C49.0375 17.3099 41.1055 9.41356 31.4148 9.42335C21.6915 9.4364 13.8378 17.2903 13.8312 27.0106C13.8247 36.7113 21.7045 44.637 31.3821 44.6598C41.0957 44.6827 49.0733 36.7081 49.0538 26.9878V26.9845ZM17.4954 27.0237C17.4954 19.3035 23.7666 13.0517 31.4637 13.0974C39.1836 13.1398 45.4222 19.4145 45.3896 27.0954C45.357 34.6948 39.0564 40.9792 31.4507 40.9956C23.783 41.0119 17.4922 34.7144 17.4954 27.0237Z" fill="#2F9FEE"/>
<path d="M38.3581 34.2544C39.0662 33.468 38.9748 32.4141 38.0873 31.5625C36.2112 29.7613 33.937 28.9521 31.5159 28.8868C28.8339 28.9521 26.6151 29.82 24.7618 31.5559C23.858 32.401 23.7764 33.4582 24.491 34.2511C25.2219 35.0603 26.1975 35.0701 27.1927 34.2772C30.0999 31.9605 32.7526 31.9638 35.6467 34.2837C36.6321 35.0734 37.6273 35.0636 38.3549 34.2511L38.3581 34.2544Z" fill="#2F9FEE"/>
<path d="M27.4504 23.9239C28.7099 23.9435 29.3037 23.0429 29.3037 21.108C29.3037 20.8241 29.3135 20.5402 29.3037 20.2596C29.2515 19.0621 28.5108 18.2888 27.4472 18.3083C26.4324 18.3279 25.7211 19.0719 25.6493 20.2041C25.633 20.4847 25.6461 20.7719 25.6461 21.0525C25.6461 23.02 26.2007 23.9043 27.4537 23.9239H27.4504Z" fill="#2F9FEE"/>
<path d="M35.3269 23.9238C36.5864 23.9565 37.1868 23.0526 37.177 21.121C37.177 20.7979 37.19 20.4749 37.177 20.1519C37.1215 19.0653 36.5603 18.416 35.4705 18.3181C34.4459 18.2268 33.6759 18.9446 33.5421 20.0703C33.4997 20.4292 33.5226 20.7979 33.5226 21.1601C33.5226 23.02 34.0936 23.8912 35.3269 23.9238Z" fill="#2F9FEE"/>
</g>
<defs>
<clipPath id="clip0_380_1063">
<rect width="125" height="125" fill="white"/>
</clipPath>
</defs>
</svg>
