<svg width="121" height="105" viewBox="0 0 121 105" fill="none" xmlns="http://www.w3.org/2000/svg">
<g clip-path="url(#clip0_380_1052)">
<path d="M-1.5219e-05 5.1682C0.369542 4.83609 0.363225 4.33318 0.565376 3.92516C1.79407 1.42644 3.81558 0.101174 6.56989 0.0410786C9.95592 -0.028506 13.3451 0.00628632 16.7311 0.0284269C18.0198 0.0379157 18.7748 0.762228 18.7621 1.83763C18.7495 2.92884 18.0198 3.55826 16.6806 3.56143C13.5315 3.57408 10.3792 3.56143 7.23004 3.56775C4.66841 3.57408 3.55026 4.69376 3.5471 7.2336C3.54394 9.67854 3.56605 12.1235 3.53131 14.5684C3.52183 15.1884 3.6924 15.4351 4.31465 15.3465C4.54522 15.3117 4.78528 15.3402 5.02217 15.3402C34.9153 15.3402 64.8052 15.3402 94.6982 15.3402C95.0931 15.3402 95.4911 15.3022 95.8796 15.3592C96.8714 15.5078 97.4494 16.1151 97.4494 17.1146C97.4494 18.1141 96.8651 18.7182 95.8764 18.8669C95.4911 18.9238 95.0899 18.8859 94.6951 18.8859C64.723 18.8859 34.7542 18.8922 4.78212 18.8605C3.73978 18.8605 3.51868 19.1104 3.51868 20.1352C3.55026 45.929 3.54394 71.7259 3.54394 97.5196C3.54394 100.376 4.59576 101.423 7.46378 101.426C10.496 101.426 13.5283 101.42 16.5606 101.426C17.9977 101.429 18.7463 102.03 18.759 103.15C18.7748 104.26 17.9883 104.959 16.6111 104.965C13.304 104.984 9.99382 105.009 6.68676 104.956C3.55026 104.905 1.35187 103.26 0.271625 100.294C0.208453 100.116 0.23688 99.8918 -0.00317383 99.8222V5.1682H-1.5219e-05Z" fill="#404041"/>
<path d="M121 52.549C121 67.5761 121 82.6001 121 97.6272C121 102.308 118.359 104.981 113.704 104.981C84.5213 104.984 55.3389 104.981 26.1596 104.978C25.6922 104.978 25.2057 104.959 24.7604 104.835C23.8854 104.589 23.4906 103.928 23.5569 103.042C23.6233 102.15 24.1286 101.587 25.032 101.467C25.4584 101.41 25.8975 101.435 26.3302 101.435C55.3136 101.435 84.3001 101.435 113.284 101.429C113.871 101.429 114.471 101.423 115.043 101.309C116.676 100.983 117.45 99.8191 117.45 97.779C117.45 74.193 117.45 50.6101 117.45 27.0241C117.45 24.6962 117.412 22.3683 117.469 20.0435C117.491 19.1674 117.32 18.8511 116.347 18.8669C112.292 18.9301 108.236 18.9048 104.18 18.8859C102.986 18.8795 102.238 18.1679 102.228 17.1336C102.219 16.093 102.968 15.394 104.152 15.3465C104.427 15.337 104.705 15.3465 104.98 15.3465C108.798 15.3465 112.62 15.3212 116.439 15.3687C117.254 15.3782 117.497 15.1947 117.475 14.347C117.412 11.8641 117.466 9.37807 117.45 6.89517C117.434 4.8614 116.284 3.68163 114.25 3.58041C113.896 3.56143 113.543 3.57409 113.186 3.57409C84.2401 3.57409 55.2946 3.57409 26.3491 3.57409C25.9164 3.57409 25.4774 3.59623 25.051 3.54246C24.1476 3.43175 23.6327 2.87824 23.5569 1.98629C23.478 1.10067 23.8633 0.43329 24.7383 0.177092C25.1805 0.0474115 25.6669 0.0284339 26.1344 0.0284339C55.3167 0.022108 84.4991 0.022108 113.678 0.0252709C118.344 0.0252709 120.997 2.68846 120.997 7.35696C120.997 22.422 120.997 37.4871 120.997 52.5553L121 52.549Z" fill="#404041"/>
<path d="M106.306 11.3517C105.257 11.3391 104.458 10.542 104.446 9.49509C104.433 8.41337 105.299 7.53723 106.366 7.55621C107.377 7.57519 108.22 8.42286 108.236 9.43816C108.252 10.5199 107.399 11.3675 106.306 11.3549V11.3517Z" fill="#2F9FEE"/>
<path d="M98.6686 7.54988C99.7015 7.53407 100.63 8.46397 100.611 9.49509C100.592 10.5104 99.7552 11.3359 98.7255 11.3517C97.6768 11.3675 96.8556 10.5926 96.8145 9.55202C96.7703 8.47346 97.6137 7.5657 98.6718 7.55304L98.6686 7.54988Z" fill="#2F9FEE"/>
<path d="M92.9326 9.43825C92.9452 10.4947 92.1745 11.3139 91.1353 11.3518C90.0519 11.3898 89.1549 10.5548 89.1359 9.49202C89.1201 8.46091 90.0519 7.53417 91.0848 7.55314C92.105 7.57212 92.92 8.40081 92.9326 9.44142V9.43825Z" fill="#2F9FEE"/>
<path d="M60.62 24.8923C41.2672 24.8038 25.4363 40.4951 25.3004 59.9092C25.1646 79.3518 40.9229 95.2582 60.44 95.372C79.6475 95.4859 95.5384 79.7155 95.6995 60.3836C95.8606 40.9189 80.1118 24.9809 60.62 24.8892V24.8923ZM60.421 91.8232C42.837 91.6872 28.6959 77.3718 28.8444 59.8586C28.9928 42.4023 43.2761 28.3146 60.6926 28.4411C78.1945 28.5677 92.2882 42.8736 92.1492 60.3678C92.0134 77.7355 77.667 91.9561 60.4178 91.8201L60.421 91.8232Z" fill="#404041"/>
<path d="M60.6674 32.5118C45.4619 32.4138 32.998 44.7967 32.9348 60.0673C32.8716 75.2336 45.2408 87.6481 60.4526 87.6861C75.6455 87.724 87.9988 75.4107 88.0652 60.1622C88.1315 45.0687 75.7845 32.6099 60.6674 32.5118ZM60.4179 84.1373C47.1454 84.0866 36.3461 73.1935 36.4819 60.0009C36.6209 46.6818 47.417 35.9879 60.6453 36.0638C73.8104 36.1397 84.5844 47.0202 84.5212 60.1717C84.4549 73.4718 73.6746 84.191 60.4147 84.1373H60.4179Z" fill="#404041"/>
<path d="M60.4715 40.163C57.2434 40.1883 54.9124 42.7124 54.8903 46.2232C54.8776 48.3519 54.8903 50.4837 54.8903 52.6123C54.8903 54.7821 54.8903 56.9487 54.8903 59.1185C54.8903 59.9092 54.9629 60.6905 55.2282 61.4433C56.1442 64.0685 58.6869 65.5772 61.476 65.1502C64.0945 64.7485 66.0717 62.4206 66.1002 59.536C66.1476 55.0794 66.1286 50.6229 66.1097 46.1663C66.0939 42.6839 63.6838 40.1377 60.4747 40.163H60.4715ZM62.5625 59.1375C62.5531 60.7474 61.8266 61.633 60.5347 61.652C59.2302 61.671 58.4405 60.7885 58.4342 59.2102C58.4184 54.8738 58.4153 50.5406 58.4342 46.2042C58.4405 44.4045 59.6219 43.3734 61.0969 43.8384C62.2119 44.1894 62.5594 45.0593 62.5625 46.1315C62.5657 48.2981 62.5625 50.4679 62.5625 52.6345C62.5625 54.8011 62.572 56.9709 62.5594 59.1375H62.5625Z" fill="#2F9FEE"/>
<path d="M60.5315 68.8856C57.4108 68.8698 54.8713 71.397 54.8965 74.4903C54.9218 77.5299 57.4392 80.0476 60.4715 80.0603C63.5511 80.0761 66.1286 77.4983 66.1064 74.4302C66.0812 71.3685 63.5985 68.8983 60.5315 68.8824V68.8856ZM60.4873 76.5083C59.3944 76.4988 58.4563 75.5689 58.4468 74.4808C58.4373 73.3865 59.347 72.4629 60.4589 72.4439C61.5802 72.4218 62.5056 73.2853 62.553 74.3923C62.6004 75.5246 61.6307 76.5178 60.4904 76.5115L60.4873 76.5083Z" fill="#2F9FEE"/>
</g>
<defs>
<clipPath id="clip0_380_1052">
<rect width="121" height="105" fill="white"/>
</clipPath>
</defs>
</svg>
