<svg width="110" height="128" viewBox="0 0 110 128" fill="none" xmlns="http://www.w3.org/2000/svg">
<g clip-path="url(#clip0_380_571)">
<path d="M109.123 36.2131C105.901 19.1036 91.2673 4.36588 74.1208 0.975391C72.2703 0.607949 70.4031 0.324017 68.5459 0H66.7924C65.7082 0.410867 64.624 0.407526 63.5364 0H61.0334C60.4143 0.507738 59.6313 0.337378 58.9319 0.447611C47.4173 2.27146 38.1212 7.79979 31.7565 17.547C22.9156 31.0755 22.862 45.2688 29.5446 59.7126C29.7086 60.0667 30.0733 60.3607 29.9328 60.845C29.7989 60.855 29.6784 60.8818 29.558 60.8717C23.2401 60.4675 17.4711 64.0818 15.1555 69.9609C14.3356 72.0453 13.6262 74.1765 12.8933 76.2943C12.4048 77.7072 12.7762 78.6526 13.934 79.0568C15.045 79.4442 15.9418 78.8897 16.4471 77.4768C17.0495 75.7965 17.6317 74.1097 18.2207 72.4228C20.4025 66.2097 25.857 63.3503 32.2116 65.0806C32.6299 65.1942 32.9411 65.3812 33.2055 65.752C36.3677 70.2148 40.2227 73.9827 45.0782 77.3365C44.5997 77.6438 44.1546 77.8375 43.83 78.1549C41.6315 80.3161 39.443 82.4907 37.2813 84.6953C36.4447 85.5471 36.4313 86.6261 37.1374 87.381C37.8936 88.186 38.9712 88.1793 39.9182 87.3476C40.1993 87.1004 40.4536 86.8198 40.7179 86.5559C45.8813 81.4017 51.0447 76.2475 56.208 71.0933C58.0083 69.2962 59.7618 67.4523 61.6324 65.7286C65.049 62.582 70.4298 63.3002 72.9597 67.165C74.9541 70.2114 74.4822 74.0662 71.7182 76.8421C66.866 81.719 61.9904 86.5693 57.1149 91.4228C56.5694 91.964 56.1177 92.5185 56.0507 93.3302C55.8901 95.281 55.6693 97.2251 55.5287 99.1759C54.8595 108.295 47.6582 116.102 38.6466 117.511C35.6918 117.972 32.7336 117.708 29.7788 117.685C28.5909 117.675 27.7209 118.009 26.9244 118.874C25.7097 120.19 24.3745 121.396 23.1464 122.699C22.5977 123.283 22.2898 123.424 21.6306 122.756C16.2062 117.274 10.745 111.829 5.2604 106.408C4.65137 105.807 4.66141 105.452 5.29387 104.971C7.08749 103.602 8.07465 101.731 8.68034 99.5967C9.07855 98.2005 9.62734 96.851 10.1092 95.4781C11.3306 91.9907 12.5654 88.51 13.76 85.0126C14.1315 83.9203 13.6295 82.9483 12.6357 82.5909C11.7087 82.2602 10.735 82.7078 10.2765 83.6965C10.1561 83.9604 10.0757 84.241 9.98205 84.5183C8.63349 88.3564 7.17449 92.1611 5.97317 96.0459C5.00274 99.1792 3.57721 101.902 0.993854 104.023C-0.364749 105.138 -0.271053 106.141 0.980468 107.397C3.71775 110.142 6.46508 112.878 9.20905 115.614C13.0138 119.412 16.8186 123.213 20.63 127.008C21.9652 128.341 22.7616 128.331 24.1169 126.998C24.7125 126.413 25.2981 125.822 25.8904 125.234C27.1319 123.998 28.1726 122.285 29.6684 121.667C31.1609 121.049 33.1118 121.526 34.8619 121.526C35.0694 121.526 35.2802 121.526 35.4876 121.526C46.0653 121.456 55.2677 114.538 58.3363 104.404C59.2766 101.3 59.3368 98.0869 59.7049 94.9102C59.7785 94.2822 60.0061 93.8413 60.4411 93.4137C62.4623 91.4262 64.5403 89.4888 66.4377 87.3877C67.9636 85.7008 69.5464 84.4815 71.9859 84.9191C72.538 85.0193 73.1437 84.8323 73.726 84.7755C85.0399 83.6732 94.3761 78.7929 101.407 69.8774C109.264 59.9197 111.452 48.5558 109.13 36.2164L109.123 36.2131ZM94.888 71.4407C88.8714 77.2596 81.5095 80.3127 73.1973 81.071C73.1236 80.9675 73.0467 80.8639 72.973 80.7604C73.485 80.2927 74.0271 79.8551 74.509 79.3574C79.0165 74.7143 79.07 67.7629 74.6429 63.3236C70.2056 58.8742 63.252 58.8842 58.5872 63.4204C55.1205 66.7909 51.7173 70.2281 48.3274 73.6787C47.7151 74.3001 47.3403 74.3902 46.6007 73.8424C34.2261 64.7098 27.9517 52.5809 28.7883 37.1317C29.655 21.1279 41.9393 7.39894 57.7272 4.47611C79.4448 0.450951 101.129 15.0751 105.375 36.7308C107.996 50.0957 104.807 61.8505 94.8947 71.4374L94.888 71.4407Z" fill="#404041"/>
<path d="M66.7924 0H63.5365C64.6207 0.207104 65.7049 0.207104 66.7924 0Z" fill="#404041"/>
<path d="M82.4632 31.5165C81.5798 32.4184 81.5965 33.5107 82.3996 34.2823C83.1458 35.0005 84.2434 34.9971 85.0834 34.1721C87.2551 32.0409 89.4369 29.9164 91.5217 27.7017C93.1279 25.9981 93.5328 23.8837 92.9238 21.6523C91.5752 16.7086 85.5786 15.1586 81.8642 18.8097C77.3467 23.2524 72.8693 27.7351 68.4187 32.248C67.6892 32.9896 67.3278 33.1198 66.5147 32.2914C62.141 27.822 57.6837 23.4327 53.2633 19.0134C51.2622 17.0125 48.9231 16.2609 46.1925 17.1762C41.4976 18.7529 40.1993 24.5217 43.753 28.1226C48.2338 32.6622 52.7546 37.1617 57.3056 41.6311C58.0117 42.3259 57.9782 42.6733 57.2956 43.3481C52.8082 47.7641 48.3776 52.2335 43.9103 56.6695C42.545 58.0224 41.7419 59.5957 41.7285 61.8003C41.7586 62.0375 41.7754 62.5419 41.8891 63.0229C43.1072 68.1337 49.1908 69.9074 52.9889 66.1963C57.5532 61.7402 62.0473 57.214 66.528 52.6744C67.2341 51.9596 67.5888 51.8727 68.3417 52.6377C72.7857 57.1539 77.2831 61.6199 81.7772 66.086C83.7147 68.0101 86.0203 68.6782 88.6505 67.8163C93.3487 66.2798 94.7107 60.4942 91.1837 56.89C87.2484 52.8682 83.2295 48.9265 79.2507 44.9448C78.4577 44.1531 77.1057 43.3648 77.0622 42.5197C77.012 41.5443 78.5012 40.8595 79.2641 39.9977C79.3478 39.9041 79.4415 39.824 79.5285 39.7304C80.4286 38.7517 80.4922 37.7797 79.7125 36.9613C78.9328 36.1462 77.7984 36.1896 76.8414 37.1183C75.6468 38.2807 74.4789 39.4699 73.301 40.6524C71.8587 42.0988 71.8587 42.8704 73.311 44.3201C77.8821 48.8864 82.4565 53.4527 87.0276 58.019C87.5864 58.5802 88.162 59.1247 88.694 59.7126C89.4704 60.5677 89.5908 61.5899 89.2094 62.6287C88.8379 63.6442 88.0248 64.2254 86.9573 64.3858C85.8195 64.5561 84.9729 63.995 84.1999 63.2233C79.2507 58.2662 74.2948 53.3191 69.3356 48.3753C67.8298 46.8755 67.0668 46.8755 65.5743 48.3653C60.7055 53.2222 55.8366 58.0858 50.9677 62.9427C50.6431 63.2667 50.3386 63.6242 49.9638 63.878C48.9432 64.5695 47.859 64.6396 46.8015 63.9615C45.7441 63.2835 45.3492 62.2747 45.5366 61.0554C45.6638 60.2303 46.226 59.6625 46.7948 59.0946C51.7273 54.1809 56.6531 49.2605 61.5755 44.3402C63.0077 42.9105 63.0178 42.072 61.609 40.6658C58.7211 37.7763 55.8265 34.8936 52.9353 32.0075C50.7502 29.8296 48.5583 27.6583 46.3866 25.467C45.56 24.6319 45.2622 23.6231 45.6404 22.4874C46.0018 21.4018 46.8049 20.7738 47.9159 20.5867C49.0536 20.3963 49.9002 20.9542 50.6766 21.7291C55.5956 26.6562 60.5281 31.5699 65.4539 36.4903C67.0768 38.1104 67.7996 38.1271 69.3925 36.537C74.3216 31.62 79.2541 26.7063 84.1698 21.7759C84.9395 21.0043 85.776 20.4197 86.9138 20.5734C88.0315 20.727 88.8747 21.3383 89.2361 22.4139C89.6042 23.5129 89.4135 24.5551 88.5602 25.4102C86.5256 27.4445 84.4743 29.4621 82.4632 31.5165Z" fill="#2F9FEE"/>
</g>
<defs>
<clipPath id="clip0_380_571">
<rect width="110" height="128" fill="white"/>
</clipPath>
</defs>
</svg>
