<svg width="367" height="418" viewBox="0 0 367 418" fill="none" xmlns="http://www.w3.org/2000/svg">
<g opacity="0.3">
<path d="M183.301 367C82.2101 367 -0.000488281 284.756 -0.000488281 183.699C-0.000488281 82.6413 82.2434 0.397461 183.301 0.397461C284.358 0.397461 366.602 82.6413 366.602 183.699C366.602 284.756 284.425 367 183.301 367ZM183.301 2.98032C83.6765 2.98032 2.62405 84.0327 2.62405 183.665C2.62405 283.298 83.7098 364.35 183.301 364.35C282.891 364.35 363.986 283.298 363.986 183.665C363.986 84.0327 282.966 2.98032 183.301 2.98032Z" fill="#E0E0E0"/>
<path d="M183.301 330.598C102.282 330.598 36.3682 264.684 36.3682 183.665C36.3682 102.646 102.315 36.7327 183.301 36.7327C264.286 36.7327 330.267 102.654 330.267 183.665C330.267 264.676 264.353 330.598 183.301 330.598ZM183.301 39.3822C103.748 39.3822 39.0177 104.104 39.0177 183.665C39.0177 263.226 103.781 327.94 183.301 327.94C262.82 327.94 327.584 263.218 327.584 183.665C327.584 104.112 262.895 39.3822 183.301 39.3822Z" fill="#E0E0E0"/>
<path d="M183.301 294.196C122.353 294.196 72.7705 244.613 72.7705 183.665C72.7705 122.718 122.387 73.1345 183.301 73.1345C244.215 73.1345 293.832 122.718 293.832 183.665C293.832 244.613 244.282 294.196 183.301 294.196ZM183.301 75.7841C154.705 75.826 127.293 87.2065 107.076 107.43C86.8585 127.654 75.4864 155.069 75.4534 183.665C75.4534 243.146 123.853 291.546 183.334 291.546C211.951 291.546 239.395 280.178 259.63 259.944C279.864 239.709 291.232 212.265 291.232 183.648C291.232 155.032 279.864 127.588 259.63 107.353C239.395 87.1185 211.951 75.7507 183.334 75.7507L183.301 75.7841Z" fill="#E0E0E0"/>
<path d="M183.301 257.794C168.634 257.794 154.297 253.445 142.103 245.297C129.908 237.149 120.404 225.567 114.791 212.018C109.179 198.468 107.71 183.558 110.572 169.174C113.433 154.789 120.495 141.576 130.866 131.206C141.237 120.835 154.449 113.773 168.834 110.912C183.218 108.05 198.128 109.519 211.678 115.131C225.228 120.744 236.809 130.248 244.957 142.443C253.105 154.637 257.454 168.974 257.454 183.64C257.439 203.302 249.621 222.155 235.718 236.058C221.815 249.961 202.963 257.779 183.301 257.794ZM183.301 112.186C169.163 112.186 155.344 116.378 143.589 124.233C131.834 132.087 122.673 143.25 117.262 156.311C111.852 169.373 110.437 183.745 113.195 197.61C115.953 211.476 122.761 224.212 132.757 234.209C142.754 244.205 155.49 251.013 169.356 253.771C183.221 256.529 197.593 255.114 210.654 249.703C223.716 244.293 234.879 235.132 242.733 223.377C250.587 211.622 254.78 197.803 254.78 183.665C254.758 164.715 247.22 146.546 233.82 133.146C220.419 119.746 202.251 112.208 183.301 112.186Z" fill="#E0E0E0"/>
<path d="M183.301 221.392C175.839 221.392 168.545 219.179 162.341 215.034C156.137 210.888 151.301 204.996 148.446 198.103C145.591 191.209 144.843 183.624 146.299 176.305C147.755 168.987 151.348 162.265 156.624 156.988C161.9 151.712 168.623 148.119 175.941 146.664C183.259 145.208 190.845 145.955 197.738 148.81C204.632 151.666 210.524 156.501 214.67 162.705C218.815 168.91 221.028 176.204 221.028 183.665C221.017 193.668 217.038 203.257 209.966 210.33C202.893 217.403 193.303 221.381 183.301 221.392ZM183.301 148.588C176.363 148.588 169.582 150.645 163.813 154.5C158.045 158.354 153.549 163.832 150.894 170.242C148.239 176.651 147.544 183.704 148.898 190.509C150.251 197.313 153.592 203.563 158.498 208.469C163.403 213.374 169.653 216.715 176.458 218.069C183.262 219.422 190.315 218.727 196.724 216.072C203.134 213.418 208.612 208.922 212.467 203.153C216.321 197.385 218.378 190.603 218.378 183.665C218.367 174.366 214.668 165.45 208.092 158.874C201.516 152.298 192.601 148.599 183.301 148.588Z" fill="#E0E0E0"/>
</g>
<g clip-path="url(#clip0_1076_198)">
<path d="M184 318.693C257.836 318.693 317.693 258.836 317.693 185C317.693 111.164 257.836 51.3076 184 51.3076C110.164 51.3076 50.3076 111.164 50.3076 185C50.3076 258.836 110.164 318.693 184 318.693Z" fill="white" stroke="#2F9FEE" stroke-width="6" stroke-miterlimit="10"/>
</g>
<circle cx="184" cy="327" r="16" fill="#2F9FEE"/>
<circle cx="184" cy="360" r="8" fill="#2F9FEE"/>
<circle cx="184" cy="385" r="8" fill="#2F9FEE"/>
<circle cx="184" cy="410" r="8" fill="#2F9FEE"/>
<g clip-path="url(#clip1_1076_198)">
<path d="M247 138.927C247 137.558 246.572 136.553 245.611 135.597C237.154 127.185 228.721 118.748 220.304 110.296C219.428 109.416 218.5 109 217.24 109C197.508 109.028 177.78 109.012 158.048 109.02C153.357 109.02 150.337 112.068 150.325 116.778C150.313 121.057 150.285 125.336 150.35 129.615C150.366 130.672 150.039 130.995 149.021 131.023C146.656 131.084 144.323 131.483 142.009 131.98C113.695 138.075 96.191 166.767 103.772 194.647C109.456 215.56 127.311 230.334 148.933 231.985C149.958 232.061 150.39 232.267 150.362 233.458C150.265 237.531 150.325 241.612 150.325 245.689C150.325 251.126 153.171 253.996 158.565 253.996C185.293 253.996 212.017 253.996 238.745 253.996C244.081 253.996 246.976 251.126 246.976 245.83C246.976 228.114 246.976 210.397 246.976 192.677C246.976 174.957 246.964 156.841 246.996 138.923L247 138.927ZM220.397 117.646C226.384 123.64 232.334 129.594 238.313 135.581C238.143 135.794 237.711 135.589 237.352 135.589C232.722 135.605 228.091 135.605 223.461 135.597C221.261 135.597 220.405 134.769 220.401 132.63C220.389 127.616 220.401 122.607 220.401 117.646H220.397ZM117.812 211.213C95.4442 184.717 108.996 144.751 142.413 136.8C144.617 136.275 146.858 136.004 149.106 135.742C150.136 135.621 150.35 135.871 150.346 136.86C150.309 144.005 150.325 151.149 150.325 158.294C150.325 165.439 150.309 172.281 150.346 179.276C150.35 180.148 150.111 180.753 149.486 181.375C139.507 191.317 129.544 201.279 119.609 211.265C118.87 212.008 118.523 212.056 117.816 211.217L117.812 211.213ZM123.016 216.424C122.148 215.714 122.281 215.35 123.012 214.628C132.93 204.762 142.821 194.869 152.691 184.955C153.414 184.229 154.116 183.894 155.166 183.902C162.109 183.954 169.052 183.93 176 183.93C182.947 183.93 190.29 183.942 197.435 183.914C198.311 183.914 198.622 184.023 198.529 185.052C196.628 205.667 182.774 221.841 162.642 226.289C147.919 229.543 134.678 225.97 123.02 216.428L123.016 216.424ZM242.144 245.858C242.144 248.417 241.389 249.168 238.817 249.168C225.427 249.168 212.041 249.168 198.651 249.168C185.26 249.168 171.874 249.168 158.484 249.168C155.904 249.168 155.157 248.426 155.157 245.862C155.157 241.737 155.21 237.608 155.121 233.482C155.097 232.324 155.484 232.094 156.53 231.985C177.61 229.769 192.163 218.781 200.213 199.216C202.433 193.819 203.349 188.116 203.467 182.287C203.515 179.934 202.687 179.098 200.342 179.094C185.797 179.094 171.248 179.078 156.704 179.118C155.513 179.118 155.117 178.933 155.121 177.613C155.174 157.479 155.157 137.344 155.157 117.214C155.157 114.558 155.88 113.852 158.577 113.852C177.098 113.852 195.623 113.864 214.144 113.82C215.355 113.82 215.605 114.155 215.593 115.301C215.533 121.089 215.557 126.878 215.569 132.666C215.577 137.365 218.613 140.416 223.296 140.424C229.133 140.436 234.974 140.469 240.812 140.396C241.994 140.38 242.172 140.739 242.172 141.817C242.144 176.495 242.148 211.177 242.148 245.854L242.144 245.858Z" fill="#2F9FEE"/>
<path d="M213.135 171.239C213.102 168.418 212.812 165.62 212.307 162.843C207.976 138.991 187.307 121.396 163.267 121.114C160.797 121.085 159.99 121.86 159.99 124.307C159.99 139.908 159.99 155.513 159.99 171.114C159.99 173.463 160.797 174.259 163.175 174.259C170.978 174.263 178.777 174.259 186.58 174.259C194.384 174.259 202.284 174.263 210.135 174.259C212.295 174.259 213.159 173.383 213.139 171.239H213.135ZM207.515 169.431C207.265 169.407 207.011 169.431 206.761 169.431C193.277 169.431 179.798 169.411 166.315 169.463C165.04 169.467 164.773 169.14 164.785 167.905C164.854 161.164 164.818 154.423 164.818 147.682C164.818 140.941 164.846 134.301 164.793 127.612C164.781 126.373 164.898 125.949 166.372 126.103C186.269 128.137 201.924 141.478 206.934 160.772C207.604 163.356 207.951 165.996 208.21 168.648C208.27 169.253 208.121 169.487 207.52 169.431H207.515Z" fill="#2F9FEE"/>
<path d="M215.625 200.839C203.575 200.851 193.806 210.579 193.818 222.556C193.83 234.588 203.555 244.32 215.569 244.32C227.571 244.32 237.291 234.576 237.303 222.535C237.316 210.648 227.502 200.827 215.621 200.839H215.625ZM215.488 239.497C206.232 239.497 198.63 231.844 198.655 222.547C198.679 213.175 206.296 205.634 215.71 205.671C224.906 205.707 232.496 213.336 232.479 222.539C232.463 231.928 224.882 239.493 215.492 239.497H215.488Z" fill="#404041"/>
<path d="M219.041 154.948C221.907 154.895 224.777 154.928 227.647 154.928H233.686C237.356 154.928 237.316 154.928 237.34 151.303C237.348 150.314 237.081 150.059 236.1 150.072C231.268 150.124 226.44 150.096 221.608 150.096C217.886 150.096 217.918 150.096 217.959 153.874C217.967 154.726 218.193 154.964 219.045 154.952L219.041 154.948Z" fill="#404041"/>
<path d="M236.217 164.579C233.4 164.623 230.582 164.595 227.764 164.595H221.576C217.93 164.595 217.983 164.595 217.955 168.252C217.947 169.306 218.314 169.455 219.23 169.447C224.01 169.407 228.794 169.427 233.573 169.427C237.429 169.427 237.392 169.427 237.344 165.616C237.332 164.708 237.025 164.563 236.222 164.575L236.217 164.579Z" fill="#404041"/>
<path d="M236.25 179.074C233.432 179.126 230.614 179.094 227.797 179.094H221.608C217.939 179.094 217.979 179.094 217.955 182.719C217.947 183.704 218.209 183.962 219.19 183.95C224.022 183.898 228.85 183.926 233.682 183.926C237.404 183.926 237.376 183.926 237.332 180.152C237.324 179.3 237.102 179.058 236.25 179.074Z" fill="#404041"/>
<path d="M222.634 214.482C219.008 218.176 215.315 221.797 211.69 225.49C210.991 226.2 210.531 226.41 209.829 225.534C209.235 224.796 208.496 224.17 207.822 223.496C205.11 220.783 205.126 220.796 202.469 223.569C201.949 224.114 201.856 224.424 202.437 224.989C204.601 227.088 206.716 229.236 208.848 231.367C209.36 231.88 209.954 232.227 210.596 232.243C211.637 232.251 212.279 231.714 212.897 231.097C216.728 227.258 220.567 223.423 224.402 219.585C226.985 217.001 226.953 217.033 224.382 214.438C223.659 213.707 223.296 213.8 222.63 214.478L222.634 214.482Z" fill="#404041"/>
</g>
<defs>
<clipPath id="clip0_1076_198">
<rect width="272" height="272" fill="white" transform="translate(48 49)"/>
</clipPath>
<clipPath id="clip1_1076_198">
<rect width="145" height="145" fill="white" transform="translate(102 109)"/>
</clipPath>
</defs>
</svg>
