<svg width="367" height="414" viewBox="0 0 367 414" fill="none" xmlns="http://www.w3.org/2000/svg">
<g opacity="0.3">
<path d="M183.699 366.602C82.608 366.602 0.397461 284.358 0.397461 183.301C0.397461 82.2439 82.6413 0 183.699 0C284.756 0 367 82.2439 367 183.301C367 284.358 284.823 366.602 183.699 366.602ZM183.699 2.58286C84.0744 2.58286 3.02199 83.6353 3.02199 183.268C3.02199 282.9 84.1078 363.953 183.699 363.953C283.289 363.953 364.384 282.9 364.384 183.268C364.384 83.6353 283.364 2.58286 183.699 2.58286Z" fill="#E0E0E0"/>
<path d="M183.699 330.2C102.68 330.2 36.7661 264.287 36.7661 183.268C36.7661 102.249 102.713 36.3352 183.699 36.3352C264.684 36.3352 330.664 102.257 330.664 183.268C330.664 264.279 264.751 330.2 183.699 330.2ZM183.699 38.9848C104.146 38.9848 39.4156 103.707 39.4156 183.268C39.4156 262.829 104.179 327.542 183.699 327.542C263.218 327.542 327.982 262.82 327.982 183.268C327.982 103.715 263.293 38.9848 183.699 38.9848Z" fill="#E0E0E0"/>
<path d="M183.699 293.798C122.751 293.798 73.1685 244.215 73.1685 183.268C73.1685 122.32 122.785 72.7371 183.699 72.7371C244.613 72.7371 294.23 122.32 294.23 183.268C294.23 244.215 244.68 293.798 183.699 293.798ZM183.699 75.3866C155.103 75.4285 127.691 86.8091 107.474 107.033C87.2564 127.256 75.8844 154.672 75.8513 183.268C75.8513 242.749 124.251 291.149 183.732 291.149C212.349 291.149 239.793 279.781 260.028 259.546C280.262 239.311 291.63 211.867 291.63 183.251C291.63 154.635 280.262 127.191 260.028 106.956C239.793 86.7211 212.349 75.3533 183.732 75.3533L183.699 75.3866Z" fill="#E0E0E0"/>
<path d="M183.699 257.396C169.032 257.396 154.695 253.047 142.501 244.899C130.306 236.751 120.802 225.17 115.19 211.62C109.577 198.07 108.109 183.16 110.97 168.776C113.831 154.392 120.893 141.179 131.264 130.808C141.635 120.438 154.847 113.375 169.232 110.514C183.616 107.653 198.526 109.121 212.076 114.734C225.626 120.346 237.207 129.851 245.355 142.045C253.503 154.24 257.852 168.577 257.852 183.243C257.837 202.905 250.019 221.757 236.116 235.66C222.213 249.563 203.361 257.381 183.699 257.396ZM183.699 111.789C169.561 111.789 155.742 115.981 143.987 123.835C132.232 131.689 123.071 142.853 117.66 155.914C112.25 168.975 110.835 183.347 113.593 197.213C116.351 211.078 123.159 223.815 133.155 233.811C143.152 243.808 155.888 250.615 169.754 253.373C183.619 256.131 197.991 254.716 211.052 249.306C224.114 243.896 235.277 234.734 243.131 222.979C250.985 211.225 255.178 197.405 255.178 183.268C255.156 164.317 247.618 146.149 234.218 132.749C220.817 119.349 202.649 111.811 183.699 111.789Z" fill="#E0E0E0"/>
<path d="M183.699 220.995C176.237 220.995 168.943 218.782 162.739 214.637C156.535 210.491 151.699 204.599 148.844 197.705C145.989 190.812 145.241 183.226 146.697 175.908C148.153 168.59 151.746 161.867 157.022 156.591C162.298 151.315 169.021 147.722 176.339 146.266C183.657 144.81 191.243 145.558 198.136 148.413C205.03 151.268 210.922 156.104 215.067 162.308C219.213 168.512 221.426 175.806 221.426 183.268C221.415 193.27 217.436 202.86 210.364 209.933C203.291 217.005 193.701 220.984 183.699 220.995ZM183.699 148.191C176.761 148.191 169.979 150.248 164.211 154.102C158.443 157.957 153.947 163.435 151.292 169.845C148.637 176.254 147.942 183.307 149.296 190.111C150.649 196.916 153.99 203.166 158.896 208.071C163.801 212.977 170.051 216.318 176.856 217.671C183.66 219.025 190.713 218.33 197.122 215.675C203.532 213.02 209.01 208.524 212.864 202.756C216.719 196.987 218.776 190.206 218.776 183.268C218.765 173.968 215.066 165.053 208.49 158.477C201.914 151.901 192.999 148.202 183.699 148.191Z" fill="#E0E0E0"/>
</g>
<path d="M182.692 315.987C256.529 315.987 316.385 256.131 316.385 182.295C316.385 108.459 256.529 48.6025 182.692 48.6025C108.856 48.6025 49 108.459 49 182.295C49 256.131 108.856 315.987 182.692 315.987Z" fill="white" stroke="#2F9FEE" stroke-width="6" stroke-miterlimit="10"/>
<circle cx="189" cy="322.603" r="16" fill="#2F9FEE"/>
<circle cx="189" cy="355.603" r="8" fill="#2F9FEE"/>
<circle cx="189" cy="380.603" r="8" fill="#2F9FEE"/>
<circle cx="189" cy="405.603" r="8" fill="#2F9FEE"/>
<g clip-path="url(#clip0_1076_199)">
<path d="M252.574 151.778C238.823 151.948 225.067 151.831 211.312 151.846C206.742 151.85 203.512 154.974 203.509 159.464C203.489 186.488 203.489 213.508 203.509 240.533C203.509 244.744 206.731 247.94 211.045 247.955C225.56 247.996 240.075 247.974 254.594 247.962C257.365 247.962 259.465 246.747 260.828 244.368C261.271 243.596 261.611 242.765 262 241.963V157.548C260.389 153.193 257.182 151.722 252.578 151.778H252.574ZM208.342 169.713C208.43 166.363 208.361 163.009 208.376 159.66C208.388 157.541 209.285 156.649 211.438 156.649C225.644 156.641 239.846 156.641 254.051 156.649C256.208 156.649 257.106 157.541 257.117 159.656C257.132 163.058 257.083 166.461 257.148 169.86C257.167 170.857 256.861 171.09 255.884 171.087C248.172 171.049 240.46 171.064 232.752 171.064C225.09 171.064 217.432 171.041 209.773 171.09C208.659 171.098 208.315 170.864 208.346 169.713H208.342ZM208.342 177.233C208.342 176.111 208.617 175.84 209.754 175.84C225.083 175.882 240.411 175.882 255.739 175.84C256.877 175.84 257.159 176.107 257.151 177.233C257.098 184.84 257.121 192.446 257.121 200.053C257.121 207.66 257.094 215.067 257.151 222.572C257.159 223.697 256.877 223.964 255.739 223.964C240.411 223.923 225.083 223.923 209.754 223.964C208.617 223.964 208.342 223.693 208.342 222.572C208.384 207.46 208.384 192.348 208.342 177.233ZM257.151 230.092C257.064 233.442 257.132 236.795 257.117 240.145C257.106 242.264 256.212 243.156 254.055 243.156C239.85 243.164 225.648 243.164 211.442 243.156C209.285 243.156 208.384 242.264 208.376 240.149C208.361 236.746 208.411 233.344 208.346 229.945C208.327 228.948 208.628 228.714 209.609 228.718C217.321 228.756 225.033 228.741 232.741 228.741C240.403 228.741 248.061 228.763 255.724 228.714C256.835 228.707 257.182 228.936 257.151 230.092Z" fill="#2F9FEE"/>
<path d="M196.843 209.485C168.71 209.53 140.581 209.515 112.448 209.53C111.463 209.53 110.833 209.587 110.837 208.19C110.891 182.457 110.875 156.724 110.879 130.987C110.879 128.657 111.734 127.806 114.082 127.806C152.572 127.806 191.063 127.806 229.553 127.806C231.893 127.806 232.741 128.661 232.749 130.994C232.756 135.199 232.749 139.406 232.749 143.611C232.749 147.058 232.749 147.013 236.314 147.055C237.383 147.066 237.662 146.795 237.651 145.737C237.589 140.931 237.624 136.124 237.624 131.318C237.62 125.932 234.638 123 229.145 123C210.003 123 190.857 123 171.715 123C152.572 123 133.53 123 114.437 123C108.848 123 106 125.804 106 131.314C106 161.003 106 190.692 106 220.381C106 225.794 108.978 228.744 114.437 228.744C126.623 228.744 138.81 228.759 151 228.722C152.061 228.722 152.366 228.966 152.34 230.032C152.263 233.133 152.34 236.238 152.301 239.343C152.286 240.578 152.859 242.192 152.065 242.945C151.278 243.687 149.652 243.145 148.396 243.156C144.994 243.186 145.059 243.167 144.968 246.453C144.933 247.699 145.254 248.011 146.529 248.008C162.678 247.959 178.823 247.977 194.972 247.977C198.687 247.977 198.637 247.977 198.656 244.342C198.66 243.284 198.274 243.115 197.351 243.152C195.728 243.216 194.098 243.115 192.479 243.19C191.551 243.231 191.269 242.983 191.288 242.038C191.353 238.937 191.288 235.832 191.322 232.726C191.338 231.439 190.75 229.753 191.563 228.978C192.368 228.206 194.071 228.771 195.377 228.759C198.626 228.729 198.553 228.748 198.656 225.62C198.702 224.273 198.351 223.908 196.946 223.912C169.577 223.957 142.207 223.945 114.838 223.945C114.433 223.945 114.025 223.961 113.62 223.945C111.864 223.874 110.921 222.959 110.887 221.213C110.852 219.512 110.978 217.799 110.849 216.109C110.738 214.705 111.093 214.295 112.616 214.299C140.241 214.352 167.862 214.336 195.488 214.336C198.633 214.336 198.538 214.333 198.672 211.254C198.736 209.767 198.282 209.492 196.847 209.496L196.843 209.485ZM157.165 229.956C157.15 228.97 157.436 228.722 158.425 228.726C167.351 228.763 176.281 228.763 185.206 228.726C186.191 228.722 186.482 228.966 186.466 229.956C186.409 233.957 186.409 237.958 186.466 241.959C186.482 242.949 186.195 243.201 185.206 243.19C180.743 243.137 176.281 243.167 171.818 243.167C167.355 243.167 162.892 243.137 158.429 243.19C157.444 243.201 157.154 242.949 157.169 241.959C157.226 237.958 157.226 233.957 157.169 229.956H157.165Z" fill="#2F9FEE"/>
<path d="M226.251 132.583C208.124 132.632 190.001 132.613 171.875 132.613C153.748 132.613 135.523 132.632 117.346 132.579C115.976 132.575 115.716 132.929 115.716 134.216C115.758 157.194 115.762 180.169 115.708 203.147C115.708 204.524 116.106 204.742 117.384 204.739C143.429 204.701 169.477 204.709 195.522 204.709C198.622 204.709 198.553 204.709 198.652 201.585C198.694 200.248 198.366 199.865 196.946 199.868C172.016 199.917 147.09 199.895 122.16 199.932C120.901 199.932 120.584 199.65 120.588 198.393C120.633 178.622 120.633 158.847 120.588 139.075C120.588 137.694 120.954 137.385 122.317 137.389C155.317 137.43 188.318 137.419 221.322 137.419C221.578 137.419 221.834 137.449 222.082 137.415C222.834 137.314 223.029 137.649 223.01 138.349C222.964 140.05 222.994 141.751 222.994 143.456C222.994 147.103 222.994 147.07 226.701 147.058C227.614 147.058 227.908 146.863 227.896 145.91C227.835 142.007 227.805 138.1 227.908 134.197C227.946 132.854 227.564 132.579 226.247 132.583H226.251Z" fill="#2F9FEE"/>
<path d="M144.998 181.972C144.998 185.528 144.998 185.498 148.617 185.506C149.572 185.506 149.904 185.314 149.896 184.29C149.85 176.781 149.87 169.272 149.87 161.764C149.87 160.194 149.614 158.67 148.877 157.262C146.857 153.4 142.234 151.285 137.962 152.237C133.316 153.276 130.51 156.558 130.395 161.301C130.304 165.053 130.376 168.809 130.376 172.562H130.369V181.874C130.369 185.607 130.369 185.574 134.202 185.506C135.11 185.491 135.271 185.186 135.263 184.384C135.225 181.08 135.267 177.775 135.229 174.474C135.221 173.71 135.4 173.431 136.229 173.446C138.817 173.499 141.409 173.495 143.998 173.446C144.811 173.431 145.029 173.676 145.013 174.459C144.968 176.962 144.994 179.465 144.994 181.968L144.998 181.972ZM144.074 168.678C142.757 168.625 141.436 168.663 140.119 168.663C138.802 168.663 137.481 168.625 136.164 168.678C135.419 168.708 135.217 168.448 135.232 167.741C135.278 165.591 135.19 163.439 135.274 161.289C135.377 158.722 137.569 156.694 140.138 156.656C142.643 156.618 144.864 158.692 144.968 161.297C145.052 163.442 144.968 165.595 145.01 167.748C145.025 168.463 144.807 168.708 144.07 168.678H144.074Z" fill="#404041"/>
<path d="M161.273 173.446C162.43 173.548 163.606 173.488 164.774 173.446C167.557 173.352 169.825 172.242 171.688 170.179C173.875 167.755 174.341 164.906 174.265 161.805C174.124 155.978 170.061 151.91 164.155 151.842C161.517 151.812 158.876 151.891 156.237 151.812C155.104 151.778 154.695 152.008 154.714 153.246C154.794 158.35 154.749 163.457 154.749 168.565V181.93C154.749 185.558 154.749 185.521 158.482 185.509C159.444 185.509 159.662 185.238 159.647 184.331C159.589 181.23 159.715 178.121 159.582 175.023C159.521 173.616 160.006 173.333 161.273 173.446ZM159.628 164.116C159.597 163.619 159.624 163.115 159.624 162.618C159.624 160.969 159.654 159.317 159.609 157.668C159.589 156.931 159.735 156.581 160.59 156.626C161.903 156.697 163.228 156.607 164.541 156.66C167.171 156.761 169.222 158.764 169.355 161.342C169.401 162.238 169.405 163.145 169.351 164.041C169.218 166.303 167.481 168.309 165.221 168.572C163.426 168.783 161.288 169.246 159.891 168.388C158.96 167.816 159.715 165.595 159.628 164.116Z" fill="#404041"/>
<path d="M190.028 156.618C191.223 156.652 192.83 157.168 193.525 156.411C194.27 155.602 193.678 154.029 193.751 152.794C193.751 152.746 193.743 152.693 193.751 152.644C193.857 151.944 193.479 151.827 192.865 151.831C188.604 151.85 184.344 151.853 180.087 151.831C179.403 151.827 179.14 151.963 179.106 152.723C178.915 156.596 178.884 156.634 182.778 156.626C183.779 156.626 184.042 156.897 184.027 157.868C183.969 161.466 184.004 165.068 184.004 168.666C184.004 172.265 183.969 175.867 184.027 179.465C184.042 180.443 183.775 180.707 182.775 180.707C178.88 180.699 178.911 180.737 179.106 184.61C179.144 185.37 179.411 185.502 180.091 185.498C184.351 185.476 188.612 185.476 192.872 185.498C193.491 185.498 193.728 185.37 193.777 184.685C194.064 180.714 194.086 180.718 190.181 180.681C190.131 180.681 190.078 180.673 190.028 180.681C189.081 180.85 188.852 180.455 188.856 179.536C188.894 172.287 188.894 165.034 188.856 157.785C188.852 156.863 189.081 156.588 190.032 156.618H190.028Z" fill="#404041"/>
<path d="M231.867 214.63C231.867 214.63 231.89 214.63 231.897 214.63C231.878 214.63 231.813 214.622 231.664 214.607C233.161 214.788 232.863 213.809 232.947 213.324C234.341 205.254 235.684 197.181 237.04 189.104C237.211 188.072 237.838 186.77 237.421 186.074C236.921 185.238 235.375 185.611 234.321 185.291C233.256 184.964 232.726 185.171 232.523 186.416C231.218 194.497 229.809 202.563 228.48 210.644C227.877 214.321 227.992 214.408 231.863 214.63H231.867Z" fill="#404041"/>
<path d="M218.68 206.225C221.387 208.894 221.356 208.868 223.998 206.173C224.644 205.514 224.514 205.183 223.93 204.637C222.532 203.327 221.215 201.931 219.814 200.625C219.234 200.083 219.219 199.737 219.806 199.191C221.208 197.885 222.548 196.515 223.907 195.164C224.151 194.919 224.369 194.648 224.621 194.366C224.422 194.14 224.266 193.944 224.09 193.767C223.376 193.056 222.62 192.378 221.948 191.633C221.44 191.069 221.108 191.163 220.612 191.656C218.085 194.189 215.542 196.707 212.965 199.191C212.396 199.74 212.377 200.057 212.957 200.61C214.897 202.45 216.775 204.347 218.68 206.225Z" fill="#404041"/>
<path d="M245.343 198.841C246.172 199.586 246.42 200.139 245.397 200.922C244.641 201.502 244.019 202.247 243.335 202.921C240.716 205.503 240.739 205.48 243.419 208.055C244.019 208.631 244.358 208.702 244.977 208.077C247.454 205.567 249.989 203.109 252.501 200.629C252.711 200.422 252.906 200.2 253.185 199.91C252.914 199.624 252.689 199.372 252.448 199.134C250.585 197.29 248.714 195.453 246.847 193.613C244.057 190.862 244.076 190.877 241.426 193.73C240.926 194.268 240.926 194.561 241.445 195.051C242.766 196.297 243.999 197.633 245.347 198.848L245.343 198.841Z" fill="#404041"/>
<path d="M232.913 166.258C234.43 166.258 235.188 165.502 235.188 163.992C235.188 162.298 234.321 161.451 232.588 161.451C231.071 161.451 230.313 162.206 230.313 163.717C230.313 165.411 231.179 166.258 232.913 166.258Z" fill="#2F9FEE"/>
<path d="M238.884 233.532C235.642 233.581 232.401 233.551 229.16 233.551C225.27 233.551 225.3 233.551 225.415 237.397C225.438 238.218 225.705 238.387 226.465 238.372C228.541 238.327 230.618 238.357 232.695 238.357C233.909 238.357 235.127 238.357 236.341 238.357C240.147 238.357 240.105 238.357 240.09 234.661C240.09 233.69 239.773 233.517 238.884 233.532Z" fill="#2F9FEE"/>
</g>
<defs>
<clipPath id="clip0_1076_199">
<rect width="156" height="125" fill="white" transform="translate(106 123)"/>
</clipPath>
</defs>
</svg>
