<svg width="367" height="414" viewBox="0 0 367 414" fill="none" xmlns="http://www.w3.org/2000/svg">
<g opacity="0.3">
<path d="M183.301 367C82.2106 367 0 284.756 0 183.699C0 82.6413 82.2439 0.397461 183.301 0.397461C284.358 0.397461 366.602 82.6413 366.602 183.699C366.602 284.756 284.425 367 183.301 367ZM183.301 2.98032C83.677 2.98032 2.62453 84.0327 2.62453 183.665C2.62453 283.298 83.7103 364.35 183.301 364.35C282.892 364.35 363.986 283.298 363.986 183.665C363.986 84.0327 282.967 2.98032 183.301 2.98032Z" fill="#E0E0E0"/>
<path d="M183.301 330.598C102.282 330.598 36.3687 264.684 36.3687 183.665C36.3687 102.646 102.315 36.7327 183.301 36.7327C264.287 36.7327 330.267 102.654 330.267 183.665C330.267 264.676 264.354 330.598 183.301 330.598ZM183.301 39.3822C103.748 39.3822 39.0182 104.104 39.0182 183.665C39.0182 263.226 103.782 327.94 183.301 327.94C262.821 327.94 327.584 263.218 327.584 183.665C327.584 104.112 262.896 39.3822 183.301 39.3822Z" fill="#E0E0E0"/>
<path d="M183.302 294.196C122.354 294.196 72.771 244.613 72.771 183.665C72.771 122.718 122.387 73.1345 183.302 73.1345C244.216 73.1345 293.832 122.718 293.832 183.665C293.832 244.613 244.283 294.196 183.302 294.196ZM183.302 75.7841C154.706 75.826 127.293 87.2065 107.076 107.43C86.859 127.654 75.4869 155.069 75.4539 183.665C75.4539 243.146 123.854 291.546 183.335 291.546C211.951 291.546 239.395 280.178 259.63 259.944C279.865 239.709 291.233 212.265 291.233 183.648C291.233 155.032 279.865 127.588 259.63 107.353C239.395 87.1185 211.951 75.7507 183.335 75.7507L183.302 75.7841Z" fill="#E0E0E0"/>
<path d="M183.301 257.794C168.635 257.794 154.298 253.445 142.104 245.297C129.909 237.149 120.405 225.567 114.792 212.018C109.18 198.468 107.711 183.558 110.572 169.174C113.434 154.789 120.496 141.576 130.867 131.206C141.237 120.835 154.45 113.773 168.834 110.912C183.219 108.05 198.129 109.519 211.678 115.131C225.228 120.744 236.809 130.248 244.958 142.443C253.106 154.637 257.455 168.974 257.455 183.64C257.439 203.302 249.622 222.155 235.719 236.058C221.815 249.961 202.963 257.779 183.301 257.794ZM183.301 112.186C169.164 112.186 155.344 116.378 143.589 124.233C131.835 132.087 122.673 143.25 117.263 156.311C111.853 169.373 110.437 183.745 113.195 197.61C115.953 211.476 122.761 224.212 132.758 234.209C142.754 244.205 155.491 251.013 169.356 253.771C183.222 256.529 197.594 255.114 210.655 249.703C223.716 244.293 234.88 235.132 242.734 223.377C250.588 211.622 254.78 197.803 254.78 183.665C254.758 164.715 247.22 146.546 233.82 133.146C220.42 119.746 202.252 112.208 183.301 112.186Z" fill="#E0E0E0"/>
<path d="M183.301 221.392C175.84 221.392 168.546 219.179 162.342 215.034C156.137 210.888 151.302 204.996 148.446 198.103C145.591 191.209 144.844 183.624 146.3 176.305C147.755 168.987 151.348 162.265 156.625 156.988C161.901 151.712 168.623 148.119 175.941 146.664C183.26 145.208 190.845 145.955 197.739 148.81C204.632 151.666 210.525 156.501 214.67 162.705C218.816 168.91 221.028 176.204 221.028 183.665C221.017 193.668 217.039 203.257 209.966 210.33C202.893 217.403 193.304 221.381 183.301 221.392ZM183.301 148.588C176.364 148.588 169.582 150.645 163.814 154.5C158.045 158.354 153.549 163.832 150.894 170.242C148.239 176.651 147.545 183.704 148.898 190.509C150.252 197.313 153.592 203.563 158.498 208.469C163.404 213.374 169.654 216.715 176.458 218.069C183.263 219.422 190.315 218.727 196.725 216.072C203.134 213.418 208.613 208.922 212.467 203.153C216.321 197.385 218.379 190.603 218.379 183.665C218.368 174.366 214.668 165.45 208.093 158.874C201.517 152.298 192.601 148.599 183.301 148.588Z" fill="#E0E0E0"/>
</g>
<path d="M182.692 316.385C256.529 316.385 316.385 256.529 316.385 182.692C316.385 108.856 256.529 49 182.692 49C108.856 49 49 108.856 49 182.692C49 256.529 108.856 316.385 182.692 316.385Z" fill="white" stroke="#2F9FEE" stroke-width="6" stroke-miterlimit="10"/>
<path d="M260.966 247.882C260.966 238.556 260.95 229.227 260.987 219.902C260.987 218.897 260.769 218.544 259.714 218.603C258.041 218.7 256.36 218.628 254.683 218.628C250.804 218.628 250.834 218.628 250.876 214.707C250.884 213.833 251.094 213.556 251.994 213.577C254.612 213.636 257.234 213.56 259.853 213.619C260.735 213.64 260.983 213.396 260.979 212.501C260.954 194.792 260.954 177.078 260.979 159.369C260.979 158.499 260.777 158.209 259.869 158.234C257.356 158.298 254.839 158.188 252.326 158.285C251.166 158.331 250.859 158.045 250.867 156.848C250.922 146.737 250.901 136.621 250.897 126.51C250.905 120.971 247.913 118 242.348 118C220.864 118 199.384 118 177.9 118C156.416 118 134.932 118 113.452 118C108.009 118 105 121.009 105 126.455C105 159.361 105 192.266 105 225.171C105 230.727 107.98 233.719 113.515 233.719C136.987 233.719 160.463 233.732 183.935 233.686C185.263 233.686 185.536 234.022 185.528 235.308C185.473 247.726 185.515 260.144 185.465 272.563C185.461 273.752 185.763 274 186.919 274C211.127 273.962 235.334 273.962 259.542 274C260.706 274 261.004 273.744 260.996 272.559C260.937 264.334 260.966 256.106 260.966 247.877V247.882ZM222.512 208.5C222.331 208.009 222.739 207.66 222.932 207.277C226.256 200.595 229.635 193.939 232.926 187.244C234.065 184.933 235.691 183.428 238.347 183.437C241.004 183.445 242.609 184.962 243.748 187.278C247.034 193.977 250.409 200.629 253.746 207.298C253.927 207.66 254.099 208.03 254.33 208.5H222.512ZM254.49 163.273C255.41 163.273 255.978 163.231 255.969 164.517C255.911 176.04 255.936 187.568 255.936 199.091V199.826L255.658 199.856C253.154 194.859 250.624 189.879 248.157 184.861C246.122 180.718 242.878 178.381 238.238 178.411C233.666 178.44 230.48 180.789 228.488 184.874C226.542 188.862 224.521 192.812 222.449 196.948C221.751 195.863 221.121 194.88 220.482 193.901C215.708 186.584 205.545 186.601 200.805 193.943C199.111 196.565 197.485 199.225 195.812 201.894C195.379 201.566 195.572 201.171 195.572 200.848C195.56 188.799 195.581 176.751 195.535 164.702C195.53 163.538 195.791 163.248 196.976 163.248C216.149 163.29 235.322 163.282 254.494 163.265L254.49 163.273ZM219.456 202.995C218.498 204.785 217.994 207.13 216.54 208.261C215.182 209.32 212.816 208.538 210.895 208.555C206.558 208.593 202.217 208.567 197.581 208.567C200.267 204.289 202.692 200.205 205.339 196.271C207.903 192.464 213.358 192.518 216.006 196.284C217.208 197.99 218.238 199.818 219.376 201.57C219.696 202.062 219.742 202.461 219.456 202.995ZM110.035 126.38C110.035 123.833 110.846 123.035 113.435 123.035C156.441 123.035 199.451 123.035 242.458 123.035C245.047 123.035 245.874 123.837 245.874 126.363C245.879 133.175 245.841 139.983 245.908 146.791C245.921 148.01 245.568 148.216 244.437 148.216C222.281 148.182 200.12 148.191 177.963 148.191C155.806 148.191 133.751 148.178 111.644 148.22C110.405 148.22 109.976 148.031 109.993 146.657C110.077 139.899 110.031 133.142 110.035 126.384V126.38ZM185.465 220.213C185.578 222.671 185.456 225.138 185.52 227.6C185.545 228.512 185.246 228.71 184.381 228.71C160.589 228.689 136.798 228.693 113.006 228.685C110.867 228.685 110.035 227.731 110.031 225.386C110.031 201.802 110.039 178.221 110.001 154.637C110.001 153.46 110.279 153.192 111.447 153.192C133.616 153.229 155.781 153.221 177.95 153.221C200.12 153.221 222.18 153.234 244.294 153.187C245.597 153.187 245.946 153.477 245.908 154.793C245.807 158.247 245.879 158.251 242.411 158.251C225.643 158.251 208.87 158.268 192.101 158.218C190.79 158.218 190.491 158.529 190.496 159.827C190.546 177.225 190.546 194.624 190.496 212.026C190.496 213.342 190.811 213.631 192.109 213.627C209.509 213.577 226.908 213.61 244.307 213.56C245.622 213.56 245.946 213.871 245.912 215.174C245.816 218.624 245.883 218.624 242.407 218.624C223.962 218.624 205.512 218.641 187.066 218.59C185.742 218.59 185.41 218.914 185.469 220.213H185.465ZM254.515 268.97C244.034 268.919 233.552 268.94 223.075 268.94C212.598 268.94 202.322 268.919 191.945 268.97C190.769 268.974 190.496 268.692 190.5 267.52C190.546 253.37 190.546 239.22 190.5 225.071C190.5 223.894 190.777 223.625 191.95 223.625C212.808 223.667 233.661 223.667 254.519 223.625C255.696 223.625 255.969 223.898 255.965 225.071C255.919 239.22 255.919 253.37 255.965 267.52C255.965 268.696 255.688 268.97 254.515 268.965V268.97Z" fill="#2F9FEE"/>
<path d="M126.921 249.226C124.917 249.252 122.908 249.235 120.903 249.235C118.898 249.235 116.889 249.252 114.885 249.226C114.288 249.218 114.124 249.336 114.128 249.756C114.158 251.786 114.158 253.816 114.128 255.841C114.12 256.261 114.288 256.375 114.885 256.371C118.898 256.354 122.912 256.354 126.921 256.371C127.518 256.371 127.682 256.261 127.678 255.841C127.648 253.811 127.648 251.782 127.678 249.756C127.686 249.336 127.518 249.218 126.921 249.226Z" fill="#404041"/>
<path d="M150.877 249.226C148.872 249.252 146.863 249.235 144.858 249.235C142.854 249.235 140.845 249.252 138.84 249.226C138.243 249.218 138.079 249.336 138.084 249.756C138.113 251.786 138.113 253.816 138.084 255.841C138.075 256.261 138.243 256.375 138.84 256.371C142.854 256.354 146.867 256.354 150.877 256.371C151.473 256.371 151.637 256.261 151.633 255.841C151.604 253.811 151.604 251.782 151.633 249.756C151.642 249.336 151.473 249.218 150.877 249.226Z" fill="#404041"/>
<path d="M174.832 249.226C172.827 249.252 170.818 249.235 168.814 249.235C166.809 249.235 164.8 249.252 162.796 249.226C162.199 249.218 162.035 249.336 162.039 249.756C162.068 251.786 162.068 253.816 162.039 255.841C162.031 256.261 162.199 256.375 162.796 256.371C166.809 256.354 170.823 256.354 174.832 256.371C175.429 256.371 175.593 256.261 175.589 255.841C175.559 253.811 175.559 251.782 175.589 249.756C175.597 249.336 175.429 249.218 174.832 249.226Z" fill="#404041"/>
<path d="M185.528 159.668C185.528 158.495 185.259 158.213 184.082 158.218C172.815 158.268 161.547 158.247 150.28 158.247C139.012 158.247 127.745 158.268 116.478 158.218C115.305 158.213 115.028 158.487 115.028 159.663C115.07 177.167 115.07 194.67 115.028 212.173C115.028 213.346 115.297 213.623 116.473 213.619C139.008 213.581 161.543 213.581 184.074 213.619C185.246 213.619 185.524 213.35 185.524 212.173C185.482 194.67 185.482 177.167 185.524 159.663L185.528 159.668ZM179.043 208.593C159.862 208.555 140.685 208.551 121.504 208.593C120.315 208.593 120.062 208.294 120.067 207.139C120.109 192.989 120.113 178.839 120.067 164.69C120.067 163.496 120.365 163.244 121.525 163.252C131.061 163.303 140.601 163.282 150.137 163.282C159.673 163.282 169.423 163.307 179.064 163.252C180.258 163.244 180.506 163.551 180.502 164.711C180.459 178.86 180.455 193.01 180.502 207.16C180.502 208.353 180.199 208.597 179.043 208.597V208.593Z" fill="#2F9FEE"/>
<path d="M208.151 168.316C204.037 168.312 200.637 171.666 200.599 175.767C200.561 179.949 203.957 183.395 208.13 183.403C212.24 183.407 215.644 180.049 215.687 175.948C215.729 171.762 212.329 168.32 208.155 168.316H208.151ZM208.18 178.368C206.827 178.394 205.676 177.297 205.629 175.939C205.583 174.523 206.752 173.33 208.172 173.351C209.53 173.372 210.643 174.498 210.647 175.855C210.647 177.209 209.534 178.343 208.18 178.368Z" fill="#2F9FEE"/>
<path d="M160.707 184.37C154.109 181.554 147.519 178.722 140.925 175.897C139.445 175.263 138.512 175.872 138.508 177.469C138.5 180.289 138.508 183.105 138.508 185.925C138.508 188.744 138.508 191.501 138.508 194.287C138.508 195.977 139.408 196.595 140.933 195.943C147.527 193.123 154.117 190.291 160.715 187.471C161.43 187.164 162.047 186.799 162.047 185.916C162.047 185.034 161.43 184.672 160.715 184.365L160.707 184.37ZM141.488 192.51V179.339C146.594 181.529 151.621 183.685 156.845 185.925C151.621 188.165 146.59 190.32 141.488 192.51Z" fill="#2F9FEE"/>
<path d="M122.58 133.095C124.278 133.095 125.127 133.923 125.127 135.579C125.127 137.235 124.247 138.084 122.487 138.126C120.893 138.126 120.096 137.298 120.096 135.642C120.096 133.944 120.924 133.095 122.58 133.095Z" fill="#404041"/>
<path d="M132.666 133.095C134.364 133.095 135.213 133.923 135.213 135.579C135.213 137.235 134.333 138.084 132.574 138.126C130.98 138.126 130.183 137.298 130.183 135.642C130.183 133.944 131.01 133.095 132.666 133.095Z" fill="#404041"/>
<path d="M142.753 133.095C144.451 133.095 145.3 133.923 145.3 135.579C145.3 137.235 144.42 138.084 142.66 138.126C141.066 138.126 140.269 137.298 140.269 135.642C140.269 133.944 141.097 133.095 142.753 133.095Z" fill="#404041"/>
<path d="M203.041 242.301L203.81 246.251C204.007 247.26 204.205 248.323 204.364 249.432H204.402C204.6 248.327 204.877 247.222 205.113 246.272L206.138 242.301H208.508L209.475 246.15C209.731 247.234 209.988 248.323 210.185 249.428H210.223C210.362 248.323 210.559 247.234 210.778 246.129L211.606 242.297H214.548L211.585 251.954H208.76L207.853 248.558C207.617 247.608 207.437 246.743 207.239 245.558H207.201C207.025 246.764 206.827 247.65 206.571 248.558L205.604 251.954H202.78L199.977 242.297H203.041V242.301Z" fill="#2F9FEE"/>
<path d="M218.406 242.301L219.175 246.251C219.372 247.26 219.57 248.323 219.729 249.432H219.767C219.965 248.327 220.242 247.222 220.478 246.272L221.503 242.301H223.873L224.84 246.15C225.096 247.234 225.353 248.323 225.55 249.428H225.588C225.727 248.323 225.924 247.234 226.143 246.129L226.971 242.297H229.913L226.95 251.954H224.125L223.218 248.558C222.982 247.608 222.802 246.743 222.604 245.558H222.566C222.39 246.764 222.192 247.65 221.936 248.558L220.969 251.954H218.145L215.342 242.297H218.406V242.301Z" fill="#2F9FEE"/>
<path d="M233.775 242.301L234.544 246.251C234.742 247.26 234.939 248.323 235.099 249.432H235.137C235.334 248.327 235.611 247.222 235.847 246.272L236.872 242.301H239.243L240.209 246.15C240.466 247.234 240.722 248.323 240.919 249.428H240.957C241.096 248.323 241.294 247.234 241.512 246.129L242.34 242.297H245.282L242.319 251.954H239.495L238.587 248.558C238.352 247.608 238.171 246.743 237.973 245.558H237.936C237.759 246.764 237.562 247.65 237.305 248.558L236.339 251.954H233.514L230.711 242.297H233.775V242.301Z" fill="#2F9FEE"/>
<path d="M245.526 250.357C245.526 249.289 246.257 248.52 247.303 248.52C248.35 248.52 249.06 249.273 249.06 250.357C249.06 251.441 248.35 252.172 247.282 252.172C246.215 252.172 245.526 251.403 245.526 250.357Z" fill="#2F9FEE"/>
<circle cx="188" cy="323" r="16" fill="#2F9FEE"/>
<circle cx="188" cy="356" r="8" fill="#2F9FEE"/>
<circle cx="188" cy="381" r="8" fill="#2F9FEE"/>
<circle cx="188" cy="406" r="8" fill="#2F9FEE"/>
</svg>
