<svg width="367" height="413" viewBox="0 0 367 413" fill="none" xmlns="http://www.w3.org/2000/svg">
<g opacity="0.3">
<path d="M183.699 367C82.608 367 0.397461 284.756 0.397461 183.699C0.397461 82.6413 82.6413 0.397461 183.699 0.397461C284.756 0.397461 367 82.6413 367 183.699C367 284.756 284.823 367 183.699 367ZM183.699 2.98032C84.0744 2.98032 3.02199 84.0327 3.02199 183.665C3.02199 283.298 84.1078 364.35 183.699 364.35C283.289 364.35 364.384 283.298 364.384 183.665C364.384 84.0327 283.364 2.98032 183.699 2.98032Z" fill="#E0E0E0"/>
<path d="M183.699 330.598C102.679 330.598 36.766 264.684 36.766 183.665C36.766 102.646 102.713 36.7327 183.699 36.7327C264.684 36.7327 330.664 102.654 330.664 183.665C330.664 264.676 264.751 330.598 183.699 330.598ZM183.699 39.3822C104.146 39.3822 39.4155 104.104 39.4155 183.665C39.4155 263.226 104.179 327.94 183.699 327.94C263.218 327.94 327.982 263.218 327.982 183.665C327.982 104.112 263.293 39.3822 183.699 39.3822Z" fill="#E0E0E0"/>
<path d="M183.699 294.196C122.752 294.196 73.1686 244.613 73.1686 183.665C73.1686 122.718 122.785 73.1345 183.699 73.1345C244.614 73.1345 294.23 122.718 294.23 183.665C294.23 244.613 244.68 294.196 183.699 294.196ZM183.699 75.7841C155.103 75.826 127.691 87.2065 107.474 107.43C87.2566 127.654 75.8845 155.069 75.8515 183.665C75.8515 243.146 124.251 291.546 183.733 291.546C212.349 291.546 239.793 280.178 260.028 259.944C280.263 239.709 291.63 212.265 291.63 183.648C291.63 155.032 280.263 127.588 260.028 107.353C239.793 87.1185 212.349 75.7507 183.733 75.7507L183.699 75.7841Z" fill="#E0E0E0"/>
<path d="M183.699 257.794C169.032 257.794 154.695 253.445 142.501 245.297C130.306 237.149 120.802 225.567 115.189 212.018C109.577 198.468 108.108 183.558 110.97 169.174C113.831 154.789 120.893 141.576 131.264 131.206C141.635 120.835 154.847 113.773 169.232 110.912C183.616 108.05 198.526 109.519 212.076 115.131C225.626 120.744 237.207 130.248 245.355 142.443C253.503 154.637 257.852 168.974 257.852 183.64C257.837 203.302 250.019 222.155 236.116 236.058C222.213 249.961 203.361 257.779 183.699 257.794ZM183.699 112.186C169.561 112.186 155.742 116.378 143.987 124.233C132.232 132.087 123.071 143.25 117.66 156.311C112.25 169.373 110.835 183.745 113.593 197.61C116.351 211.476 123.159 224.212 133.155 234.209C143.152 244.205 155.888 251.013 169.754 253.771C183.619 256.529 197.991 255.114 211.052 249.703C224.114 244.293 235.277 235.132 243.131 223.377C250.985 211.622 255.178 197.803 255.178 183.665C255.156 164.715 247.618 146.546 234.218 133.146C220.817 119.746 202.649 112.208 183.699 112.186Z" fill="#E0E0E0"/>
<path d="M183.699 221.392C176.237 221.392 168.943 219.179 162.739 215.034C156.535 210.888 151.699 204.996 148.844 198.103C145.989 191.209 145.241 183.624 146.697 176.305C148.153 168.987 151.746 162.265 157.022 156.988C162.298 151.712 169.021 148.119 176.339 146.664C183.657 145.208 191.243 145.955 198.136 148.81C205.03 151.666 210.922 156.501 215.068 162.705C219.213 168.91 221.426 176.204 221.426 183.665C221.415 193.668 217.436 203.257 210.364 210.33C203.291 217.403 193.701 221.381 183.699 221.392ZM183.699 148.588C176.761 148.588 169.979 150.645 164.211 154.5C158.443 158.354 153.947 163.832 151.292 170.242C148.637 176.651 147.942 183.704 149.296 190.509C150.649 197.313 153.99 203.563 158.896 208.469C163.801 213.374 170.051 216.715 176.856 218.069C183.66 219.422 190.713 218.727 197.122 216.072C203.532 213.418 209.01 208.922 212.865 203.153C216.719 197.385 218.776 190.603 218.776 183.665C218.765 174.366 215.066 165.45 208.49 158.874C201.914 152.298 192.999 148.599 183.699 148.588Z" fill="#E0E0E0"/>
</g>
<path d="M184.692 320.385C258.529 320.385 318.385 260.529 318.385 186.692C318.385 112.856 258.529 53 184.692 53C110.856 53 51 112.856 51 186.692C51 260.529 110.856 320.385 184.692 320.385Z" fill="white" stroke="#2F9FEE" stroke-width="6" stroke-miterlimit="10"/>
<circle cx="185" cy="322" r="16" fill="#2F9FEE"/>
<circle cx="185" cy="355" r="8" fill="#2F9FEE"/>
<circle cx="185" cy="380" r="8" fill="#2F9FEE"/>
<circle cx="185" cy="405" r="8" fill="#2F9FEE"/>
<g clip-path="url(#clip0_1076_196)">
<path d="M259.557 187.192C253.05 180.647 246.54 174.111 239.997 167.603C237.75 165.369 235.085 165.401 232.831 167.647C226.332 174.127 219.853 180.627 213.371 187.123C212.282 188.214 211.582 189.442 212.221 191.031C212.86 192.621 214.207 193.036 215.754 193.048C217.86 193.06 219.97 193.152 222.064 193.016C223.487 192.923 223.752 193.418 223.748 194.746C223.708 217.032 223.72 239.313 223.72 261.599C223.72 264.376 224.319 264.996 227.015 264.996C233.281 264.996 239.543 264.996 245.808 264.996C248.565 264.996 249.14 264.412 249.144 261.627C249.144 252.793 249.144 243.962 249.144 235.128C249.144 221.576 249.156 208.024 249.12 194.473C249.12 193.39 249.325 192.967 250.506 193.02C252.705 193.12 254.915 193.032 257.122 193.052C258.87 193.068 260.244 192.484 261 190.81V189.003C260.522 188.395 260.1 187.731 259.557 187.188V187.192ZM254.144 188.536C252.894 188.536 251.624 188.536 250.35 188.536C246.178 188.544 244.623 190.081 244.619 194.255C244.615 215.732 244.602 237.212 244.647 258.689C244.647 260.09 244.389 260.565 242.878 260.524C238.474 260.408 234.061 260.436 229.652 260.516C228.446 260.536 228.197 260.178 228.201 259.027C228.237 237.398 228.225 215.772 228.233 194.143C228.233 192.871 228.181 191.623 227.445 190.532C226.67 189.389 225.585 188.689 224.194 188.645C222.365 188.588 220.537 188.633 218.704 188.633C218.688 188.492 218.668 188.355 218.652 188.214C224.319 182.539 229.985 176.868 235.64 171.181C236.11 170.71 236.428 170.372 237.075 171.028C242.75 176.767 248.461 182.475 254.156 188.198C254.176 188.218 254.156 188.29 254.136 188.532L254.144 188.536Z" fill="#404041"/>
<path d="M257.604 116C215.208 116.028 172.815 116.024 130.419 116.024C129.768 116.024 129.117 116.032 128.465 116.064C114.226 116.749 104.078 130.719 107.792 144.52C110.581 154.876 119.439 161.449 130.708 161.461C149.75 161.481 168.792 161.465 187.838 161.465C190.298 161.465 191.351 160.776 191.355 159.187C191.355 157.597 190.302 156.913 187.842 156.913C173.659 156.913 159.48 156.913 145.297 156.913H143.468C154.46 148.223 156.128 130.912 143.621 120.54H145.088C181.769 120.54 218.451 120.544 255.136 120.512C256.262 120.512 256.527 120.777 256.523 121.9C256.475 133.041 256.467 144.186 256.531 155.327C256.539 156.659 256.209 156.945 254.907 156.941C236.866 156.892 218.825 156.909 200.787 156.913C200.14 156.913 199.477 156.913 198.846 157.033C197.705 157.259 197.134 158.072 197.138 159.191C197.138 160.31 197.725 161.102 198.862 161.34C199.397 161.449 199.955 161.461 200.506 161.461C219.548 161.465 238.59 161.457 257.636 161.485C259.011 161.485 260.156 161.211 261.012 160.092V117.328C260.116 116.25 258.974 116 257.604 116ZM147.921 138.555C147.994 148.71 139.875 156.86 129.639 156.909C119.796 156.957 111.59 148.742 111.562 138.813C111.533 128.642 119.672 120.54 129.908 120.54C139.703 120.54 147.853 128.69 147.921 138.551V138.555Z" fill="#2F9FEE"/>
<path d="M204.469 173.29C184.928 173.29 165.392 173.286 145.852 173.306C144.951 173.306 144.264 173.068 143.541 172.521C138.24 168.496 132.275 167.015 125.725 168.182C116.392 169.84 109.118 177.109 107.41 186.371C105.71 195.604 109.866 204.933 117.879 209.88C125.829 214.786 136.085 214.267 143.501 208.531C144.268 207.936 145.012 207.718 145.956 207.718C153.472 207.747 160.987 207.734 168.503 207.734C168.953 207.734 169.411 207.763 169.853 207.702C170.995 207.553 171.658 206.877 171.766 205.734C171.875 204.599 171.376 203.814 170.295 203.396C169.712 203.17 169.114 203.219 168.515 203.219C162.354 203.219 156.189 203.219 150.027 203.211C149.613 203.211 149.159 203.351 148.737 203.041C153.685 194.67 153.681 186.33 148.637 177.814C166.754 177.814 184.639 177.822 202.52 177.794C203.516 177.794 203.504 178.285 203.5 179.001C203.488 186.676 203.468 194.356 203.52 202.031C203.528 203.102 203.134 203.247 202.222 203.239C198.115 203.198 194.007 203.223 189.9 203.223C186.645 203.223 183.385 203.182 180.13 203.239C178.02 203.275 176.91 205.074 177.903 206.704C178.486 207.654 179.39 207.751 180.387 207.751C188.501 207.738 196.62 207.747 204.734 207.742C207.379 207.742 208.001 207.119 208.001 204.462C208.001 195.282 208.001 186.097 208.001 176.916C208.001 173.801 207.515 173.302 204.469 173.302V173.29ZM129.502 208.68C119.555 208.628 111.497 200.381 111.558 190.315C111.618 180.478 119.788 172.32 129.583 172.316C139.783 172.312 147.966 180.486 147.917 190.625C147.869 200.683 139.658 208.733 129.498 208.68H129.502Z" fill="#2F9FEE"/>
<path d="M188.288 230.97C175.765 230.97 163.242 230.962 150.715 230.986C149.839 230.986 149.304 230.785 148.773 229.996C144.409 223.492 138.316 219.958 130.463 219.608C116.039 218.968 104.484 232.6 107.474 246.719C109.407 255.843 116.481 262.951 125.258 264.585C134.651 266.332 143.589 262.557 148.782 254.58C149.296 253.787 149.83 253.561 150.719 253.569C154.525 253.614 158.335 253.59 162.141 253.59C162.442 253.59 162.744 253.59 163.041 253.59C164.89 253.561 165.975 252.708 165.947 251.299C165.919 249.895 164.853 249.082 162.965 249.074C159.556 249.062 156.152 249.033 152.744 249.09C151.619 249.11 151.434 248.864 151.735 247.737C152.696 244.139 152.696 240.481 151.748 236.882C151.434 235.691 151.623 235.45 152.825 235.462C158.335 235.518 163.845 235.486 169.355 235.486C174.865 235.486 180.375 235.514 185.885 235.462C186.97 235.45 187.352 235.671 187.324 236.85C187.239 240.36 187.223 243.878 187.328 247.383C187.368 248.772 186.982 249.138 185.608 249.102C181.854 249.005 178.092 249.05 174.338 249.078C172.63 249.09 171.706 249.899 171.678 251.283C171.646 252.736 172.586 253.537 174.387 253.586C174.535 253.59 174.688 253.586 174.837 253.586C179.446 253.586 184.056 253.59 188.662 253.586C191.085 253.586 191.797 252.869 191.801 250.462C191.805 245.145 191.801 239.825 191.801 234.508C191.801 231.582 191.198 230.974 188.284 230.974L188.288 230.97ZM129.84 260.472C119.833 260.536 111.606 252.418 111.558 242.437C111.509 232.342 119.648 224.112 129.699 224.083C139.666 224.055 147.881 232.238 147.917 242.223C147.95 252.245 139.867 260.408 129.84 260.472Z" fill="#2F9FEE"/>
<path d="M132.521 125.66C130.696 125.366 128.823 125.41 126.986 125.644C125.805 125.796 125.122 126.69 125.17 127.873C125.222 129.105 125.934 129.89 127.236 130.043C128.064 130.139 129.217 129.644 129.639 130.312C130.053 130.964 129.804 132.047 129.824 132.945C129.84 133.746 129.824 134.551 129.824 135.351C129.824 140.016 129.808 144.681 129.832 149.342C129.84 151.06 131.018 152.155 132.448 151.825C133.855 151.503 134.337 150.485 134.333 149.137C134.325 145.675 134.333 142.214 134.333 138.757C134.333 135.299 134.329 131.834 134.333 128.376C134.333 127.048 133.943 125.889 132.513 125.66H132.521Z" fill="#404041"/>
<path d="M136.21 199.415C135.639 199.278 135.02 199.314 134.422 199.31C132.641 199.298 130.865 199.306 128.9 199.306C130.961 196.392 132.923 193.631 134.864 190.858C135.909 189.365 136.644 187.743 136.938 185.924C137.593 181.899 134.723 177.934 130.636 177.274C126.368 176.582 122.156 179.428 121.545 183.44C121.356 184.692 121.878 185.634 123.104 186C124.314 186.362 125.27 185.924 125.813 184.74C125.998 184.334 126.086 183.879 126.287 183.481C127.063 181.931 128.879 181.267 130.515 181.915C132.066 182.531 132.786 184.004 132.404 185.698C132.143 186.853 131.532 187.827 130.861 188.761C128.405 192.178 125.917 195.571 123.454 198.98C123.076 199.504 122.662 200.039 122.437 200.635C121.806 202.317 122.574 203.657 124.354 203.71C128.208 203.822 132.066 203.802 135.925 203.762C137.151 203.75 137.854 202.884 137.942 201.721C138.035 200.538 137.388 199.697 136.214 199.415H136.21Z" fill="#404041"/>
<path d="M135.961 241.386C137.038 240.143 137.508 238.601 137.52 237.41C137.657 233.006 134.824 229.581 130.973 229.01C126.97 228.418 123.225 230.817 122.2 234.628C121.806 236.09 122.337 237.341 123.514 237.748C124.828 238.199 125.958 237.551 126.516 236.021C126.585 235.832 126.601 235.627 126.677 235.442C127.328 233.924 128.875 233.147 130.491 233.518C132.046 233.876 133.051 235.184 133.015 236.798C132.979 238.404 131.934 239.627 130.322 239.937C129.88 240.022 129.422 240.054 128.996 240.187C128.156 240.452 127.674 241.084 127.525 241.93C127.372 242.791 127.71 243.495 128.369 244.059C128.904 244.514 129.583 244.489 130.214 244.606C131.697 244.884 132.657 245.717 132.943 247.218C133.304 249.122 132.143 250.8 130.31 251.094C128.301 251.416 126.846 250.277 126.448 248.067C126.122 246.276 125.218 245.427 123.848 245.628C122.477 245.83 121.798 246.969 121.995 248.715C122.369 252.012 124.792 254.773 127.939 255.497C131.098 256.226 134.426 254.91 136.222 252.225C138.051 249.488 138.007 245.866 135.997 243.222C135.463 242.517 135.322 242.115 135.961 241.374V241.386Z" fill="#404041"/>
</g>
<defs>
<clipPath id="clip0_1076_196">
<rect width="154" height="149" fill="white" transform="translate(107 116)"/>
</clipPath>
</defs>
</svg>
