<svg width="367" height="418" viewBox="0 0 367 418" fill="none" xmlns="http://www.w3.org/2000/svg">
<g opacity="0.3">
<path d="M183.301 366.602C82.2101 366.602 -0.000488281 284.358 -0.000488281 183.301C-0.000488281 82.2439 82.2434 0 183.301 0C284.358 0 366.602 82.2439 366.602 183.301C366.602 284.358 284.425 366.602 183.301 366.602ZM183.301 2.58286C83.6765 2.58286 2.62405 83.6353 2.62405 183.268C2.62405 282.9 83.7098 363.953 183.301 363.953C282.891 363.953 363.986 282.9 363.986 183.268C363.986 83.6353 282.966 2.58286 183.301 2.58286Z" fill="#E0E0E0"/>
<path d="M183.301 330.2C102.282 330.2 36.3682 264.287 36.3682 183.268C36.3682 102.249 102.315 36.3352 183.301 36.3352C264.286 36.3352 330.267 102.257 330.267 183.268C330.267 264.279 264.353 330.2 183.301 330.2ZM183.301 38.9848C103.748 38.9848 39.0177 103.707 39.0177 183.268C39.0177 262.829 103.781 327.542 183.301 327.542C262.82 327.542 327.584 262.82 327.584 183.268C327.584 103.715 262.895 38.9848 183.301 38.9848Z" fill="#E0E0E0"/>
<path d="M183.301 293.798C122.353 293.798 72.7705 244.215 72.7705 183.268C72.7705 122.32 122.387 72.7371 183.301 72.7371C244.215 72.7371 293.832 122.32 293.832 183.268C293.832 244.215 244.282 293.798 183.301 293.798ZM183.301 75.3866C154.705 75.4285 127.293 86.8091 107.076 107.033C86.8585 127.256 75.4864 154.672 75.4534 183.268C75.4534 242.749 123.853 291.149 183.334 291.149C211.951 291.149 239.395 279.781 259.63 259.546C279.864 239.311 291.232 211.867 291.232 183.251C291.232 154.635 279.864 127.191 259.63 106.956C239.395 86.7211 211.951 75.3533 183.334 75.3533L183.301 75.3866Z" fill="#E0E0E0"/>
<path d="M183.301 257.396C168.634 257.396 154.298 253.047 142.103 244.899C129.909 236.751 120.404 225.17 114.792 211.62C109.179 198.07 107.711 183.16 110.572 168.776C113.433 154.392 120.495 141.179 130.866 130.808C141.237 120.438 154.45 113.375 168.834 110.514C183.218 107.653 198.128 109.121 211.678 114.734C225.228 120.346 236.809 129.851 244.957 142.045C253.105 154.24 257.454 168.577 257.454 183.243C257.439 202.905 249.621 221.757 235.718 235.66C221.815 249.563 202.963 257.381 183.301 257.396ZM183.301 111.789C169.163 111.789 155.344 115.981 143.589 123.835C131.834 131.689 122.673 142.853 117.262 155.914C111.852 168.975 110.437 183.347 113.195 197.213C115.953 211.078 122.761 223.815 132.757 233.811C142.754 243.808 155.49 250.615 169.356 253.373C183.221 256.131 197.593 254.716 210.654 249.306C223.716 243.896 234.879 234.734 242.733 222.979C250.588 211.225 254.78 197.405 254.78 183.268C254.758 164.317 247.22 146.149 233.82 132.749C220.419 119.349 202.251 111.811 183.301 111.789Z" fill="#E0E0E0"/>
<path d="M183.301 220.995C175.839 220.995 168.545 218.782 162.341 214.637C156.137 210.491 151.301 204.599 148.446 197.705C145.591 190.812 144.843 183.226 146.299 175.908C147.755 168.59 151.348 161.867 156.624 156.591C161.9 151.315 168.623 147.722 175.941 146.266C183.259 144.81 190.845 145.558 197.738 148.413C204.632 151.268 210.524 156.104 214.67 162.308C218.815 168.512 221.028 175.806 221.028 183.268C221.017 193.27 217.038 202.86 209.966 209.933C202.893 217.005 193.303 220.984 183.301 220.995ZM183.301 148.191C176.363 148.191 169.582 150.248 163.813 154.102C158.045 157.957 153.549 163.435 150.894 169.845C148.239 176.254 147.544 183.307 148.898 190.111C150.251 196.916 153.592 203.166 158.498 208.071C163.403 212.977 169.653 216.318 176.458 217.671C183.262 219.025 190.315 218.33 196.724 215.675C203.134 213.02 208.612 208.524 212.467 202.756C216.321 196.987 218.378 190.206 218.378 183.268C218.367 173.968 214.668 165.053 208.092 158.477C201.516 151.901 192.601 148.202 183.301 148.191Z" fill="#E0E0E0"/>
</g>
<g clip-path="url(#clip0_1076_200)">
<path d="M184 318.295C257.836 318.295 317.692 258.439 317.692 184.603C317.692 110.766 257.836 50.9102 184 50.9102C110.164 50.9102 50.3076 110.766 50.3076 184.603C50.3076 258.439 110.164 318.295 184 318.295Z" fill="white" stroke="#2F9FEE" stroke-width="6" stroke-miterlimit="10"/>
<g clip-path="url(#clip1_1076_200)">
<path d="M261.336 259.567C253.499 251.761 245.67 243.946 237.801 236.171C237.054 235.436 236.844 234.888 237.412 233.935C238.37 232.326 239.081 230.589 239.591 228.784C239.819 227.987 240.154 227.639 241.085 227.648C244.248 227.666 244.248 227.617 244.248 224.413C244.248 224.36 244.239 224.306 244.248 224.257C244.52 222.756 244.019 222.034 242.387 222.346C241.349 222.547 241.143 222.159 241.273 221.081C241.935 215.471 241.389 209.969 239.412 204.649C239.063 203.704 238.888 202.773 238.893 201.771C238.915 194.896 238.92 188.021 238.893 181.146C238.888 179.81 239.492 177.983 238.638 177.27C237.828 176.593 236.052 177.128 234.715 177.003C233.681 176.909 233.529 177.324 233.538 178.232C233.583 182.554 233.561 186.876 233.561 191.198V193.965C232.008 192.116 230.675 190.587 229.114 189.3C228.389 188.703 228.184 188.057 228.193 187.157C228.228 181.427 228.21 175.702 228.21 169.972C228.21 166.354 228.21 166.434 224.578 166.319C223.111 166.27 222.802 166.724 222.825 168.105C222.905 173.554 222.856 178.999 222.856 184.631C221.438 183.953 220.225 183.236 218.924 182.79C217.801 182.403 217.461 181.837 217.47 180.665C217.528 173.581 217.501 166.501 217.501 159.417C217.501 155.657 217.501 155.715 213.65 155.643C212.397 155.621 212.102 155.982 212.115 157.194C212.173 164.536 212.133 171.879 212.16 179.222C212.16 180.171 212.106 180.701 210.903 180.331C209.968 180.041 208.948 179.921 207.964 179.921C206.98 179.921 206.752 179.56 206.761 178.633C206.805 174.102 206.801 169.571 206.77 165.04C206.761 163.748 207.338 162.077 206.528 161.271C205.718 160.469 204.032 161.155 202.748 161.008C201.594 160.874 201.379 161.377 201.388 162.42C201.437 167.419 201.41 172.418 201.41 177.417C201.41 178.92 200.693 179.783 199.259 180.006C198.485 180.126 197.706 180.224 196.946 180.407C196.239 180.576 196.011 180.367 196.033 179.654C196.074 178.353 196.056 177.052 196.042 175.746C196.029 174.454 196.494 172.668 195.832 171.99C194.969 171.108 193.166 171.821 191.779 171.678C190.84 171.585 190.652 171.995 190.665 172.841C190.71 175.599 190.688 178.362 190.679 181.12C190.679 181.605 190.826 182.122 190.133 182.412C188.567 183.067 187.037 183.815 185.329 184.599V172.797C185.329 168.943 185.329 169.014 181.446 168.929C180.113 168.903 179.943 169.384 179.952 170.525C180.005 176.098 179.983 181.668 179.965 187.241C179.965 187.736 180.166 188.288 179.683 188.707C177.921 190.218 176.368 191.937 174.628 193.88C174.628 188.476 174.646 183.387 174.615 178.295C174.606 177.007 175.183 175.336 174.373 174.539C173.568 173.746 171.886 174.432 170.602 174.28C169.444 174.142 169.251 174.637 169.256 175.68C169.296 184.377 169.269 193.074 169.292 201.771C169.292 202.778 169.113 203.704 168.764 204.649C166.809 209.915 166.241 215.373 166.894 220.925C167.041 222.177 166.804 222.373 165.628 222.364C155.643 222.319 145.654 222.328 135.67 222.35C134.43 222.35 132.744 221.802 132.073 222.587C131.447 223.326 131.952 224.961 131.809 226.187C131.661 227.465 132.176 227.697 133.357 227.693C144.545 227.648 155.737 227.675 166.925 227.648C167.806 227.648 168.276 227.808 168.598 228.753C176.614 252.117 203.611 261.541 224.466 248.246C225.455 247.617 225.893 247.76 226.64 248.513C234.232 256.123 241.854 263.702 249.481 271.276C250.103 271.891 250.806 272.421 251.472 272.996H253.042C253.807 272.541 254.465 271.966 255.091 271.338C257.149 269.262 259.229 267.213 261.296 265.145C263.564 262.886 263.573 261.786 261.34 259.562L261.336 259.567ZM204.05 248.976C186.25 248.945 171.868 234.527 171.993 216.835C172.119 199.146 186.604 184.827 204.215 184.983C222.015 185.138 236.258 199.436 236.191 217.08C236.124 234.786 221.796 249.007 204.05 248.976ZM256.142 262.717C256.044 262.837 255.928 262.944 255.816 263.051C254.657 264.169 253.552 266.094 252.313 266.183C251.061 266.277 249.978 264.236 248.842 263.109C242.767 257.085 236.723 251.03 230.631 245.024C229.933 244.334 229.816 243.946 230.608 243.251C231.467 242.503 232.241 241.629 232.916 240.707C233.574 239.811 233.972 239.811 234.773 240.613C241.689 247.568 248.649 254.474 255.601 261.389C255.887 261.674 256.232 261.906 256.536 262.151C256.317 262.463 256.236 262.592 256.142 262.708V262.717Z" fill="#2F9FEE"/>
<path d="M169.292 242.534C169.439 241.349 169.068 240.983 167.802 240.988C156.981 241.046 146.155 241.028 135.334 241.019C129.724 241.014 126.468 237.784 126.468 232.201C126.459 204.288 126.463 176.375 126.468 148.461C126.468 147.423 126.49 146.385 126.808 145.373C127.953 141.698 130.977 139.644 135.339 139.644C159.231 139.644 183.128 139.644 207.02 139.644C218.365 139.644 229.709 139.626 241.058 139.653C246.176 139.662 249.598 143.012 249.598 148.007C249.611 176.232 249.598 204.457 249.611 232.683C249.611 233.734 249.388 234.732 249.141 235.748C248.895 236.773 247.473 237.53 248.014 238.542C248.52 239.491 249.656 240.101 250.524 240.858C250.877 241.166 251.244 241.451 251.642 241.776C254.022 239.009 254.97 235.842 254.97 232.259C254.939 204.346 254.957 176.432 254.952 148.519C254.952 139.973 249.298 134.315 240.74 134.315C205.606 134.306 170.473 134.306 135.339 134.315C126.794 134.315 121.113 139.969 121.109 148.519C121.091 176.379 121.1 204.243 121.118 232.103C121.118 233.347 121.171 234.621 121.44 235.828C122.871 242.231 128.23 246.343 135.133 246.361C145.225 246.388 155.312 246.374 165.404 246.361C166.643 246.361 168.245 246.887 169.032 246.143C169.828 245.385 169.153 243.772 169.3 242.547L169.292 242.534Z" fill="#2F9FEE"/>
<path d="M115.562 219.116C111.898 217.601 110.35 214.731 110.35 210.855C110.364 182.991 110.355 155.126 110.359 127.266C110.359 121.595 113.625 118.329 119.279 118.324C131.984 118.324 144.692 118.324 157.397 118.324C179.934 118.324 202.471 118.324 225.008 118.324C229.629 118.324 233.015 121.252 233.529 125.591C233.659 126.709 233.015 128.282 233.86 128.826C234.715 129.374 236.187 128.964 237.39 128.973C237.6 128.973 237.81 128.951 238.016 128.973C238.678 129.053 238.875 128.808 238.924 128.117C239.533 119.487 233.525 113.004 224.829 113C189.587 113 154.346 113 119.1 113.004C118.268 113.004 117.418 113.004 116.6 113.138C109.581 114.288 105.027 119.656 105.014 126.87C104.987 140.936 105.005 154.997 105.005 169.059C105.005 183.067 104.987 197.079 105.014 211.087C105.022 216.941 107.644 221.254 112.963 223.83C115.02 224.828 115.047 224.77 115.589 222.653C115.781 221.9 115.969 221.143 116.184 220.394C116.362 219.771 116.3 219.423 115.562 219.12V219.116Z" fill="#404041"/>
<path d="M152.073 217.053C153.084 217.044 153.268 216.719 153.263 215.805C153.223 210.918 153.245 206.03 153.245 201.142V188.819C153.245 184.956 153.245 185.018 149.372 184.938C148.061 184.911 147.864 185.366 147.868 186.52C147.913 195.359 147.891 204.194 147.891 213.034C147.891 217.124 147.891 217.084 152.073 217.048V217.053Z" fill="#2F9FEE"/>
<path d="M159.897 217.048C160.823 216.946 161.776 216.968 162.711 217.048C163.628 217.124 163.968 216.901 163.959 215.881C163.91 208.605 163.923 201.329 163.946 194.054C163.946 193.292 163.821 192.922 162.939 192.989C161.848 193.074 160.743 193.074 159.656 192.989C158.716 192.918 158.56 193.301 158.569 194.134C158.609 197.77 158.587 201.41 158.587 205.05C158.587 208.583 158.622 212.121 158.564 215.654C158.546 216.683 158.73 217.186 159.897 217.057V217.048Z" fill="#2F9FEE"/>
<path d="M142.263 201.267C141.454 200.621 139.767 201.111 138.47 201.004C137.463 200.924 137.141 201.227 137.159 202.274C137.226 205.865 137.186 209.456 137.186 213.052C137.186 217.089 137.186 217.057 141.239 217.053C142.236 217.053 142.608 216.835 142.567 215.77C142.487 213.587 142.541 211.399 142.541 209.211C142.541 207.808 142.581 206.4 142.527 204.996C142.478 203.713 143.122 201.962 142.259 201.272L142.263 201.267Z" fill="#2F9FEE"/>
<path d="M118.223 123.648H118.067C116.501 123.648 115.718 124.446 115.718 126.041C115.718 127.998 116.681 128.977 118.608 128.977C120.263 128.977 121.091 128.132 121.091 126.442C121.091 124.58 120.135 123.648 118.223 123.648Z" fill="#404041"/>
<path d="M126.459 126.335C126.459 128.097 127.355 128.977 129.147 128.977C130.94 128.977 131.834 128.086 131.831 126.304C131.828 124.522 130.926 123.637 129.125 123.649C127.324 123.66 126.436 124.556 126.463 126.335H126.459Z" fill="#404041"/>
<path d="M137.186 126.398C137.186 128.117 138.049 128.977 139.776 128.977C141.622 128.977 142.545 128.064 142.545 126.237C142.545 124.508 141.676 123.644 139.937 123.644C138.103 123.644 137.186 124.56 137.186 126.393V126.398Z" fill="#404041"/>
<path d="M155.912 150.328C157.695 150.328 158.587 149.44 158.587 147.664C158.587 145.887 157.694 144.993 155.907 144.981C154.121 144.969 153.231 145.866 153.237 147.672C153.243 149.478 154.134 150.365 155.912 150.332V150.328Z" fill="#2F9FEE"/>
<path d="M134.685 144.977C132.777 144.977 131.822 145.914 131.822 147.788C131.822 149.481 132.652 150.328 134.31 150.328C136.227 150.328 137.186 149.394 137.186 147.525C137.186 145.826 136.351 144.977 134.681 144.977H134.685Z" fill="#2F9FEE"/>
<path d="M145.269 150.328C147.02 150.328 147.895 149.468 147.895 147.748C147.895 145.901 146.98 144.977 145.149 144.977C143.41 144.977 142.541 145.841 142.541 147.57C142.541 149.406 143.45 150.323 145.269 150.323V150.328Z" fill="#2F9FEE"/>
<path d="M204.108 190.329C189.328 190.307 177.339 202.265 177.348 217.017C177.357 231.729 189.238 243.607 203.983 243.647C218.821 243.692 230.787 231.845 230.827 217.066C230.868 202.327 218.897 190.351 204.103 190.329H204.108ZM204.17 238.301C196.548 238.417 188.724 233.872 185.785 227.759H222.601C218.168 234.554 212.138 238.176 204.17 238.301ZM223.545 222.381C210.585 222.337 197.626 222.35 184.666 222.355C184 222.355 183.369 222.475 183.159 221.508C181.504 213.965 184.197 205.504 190.683 200.523C190.683 205.691 190.719 210.628 190.656 215.565C190.643 216.701 190.88 217.177 192.106 217.044C193.34 216.91 194.987 217.423 195.738 216.794C196.628 216.055 196.015 214.357 196.029 213.083C196.069 208.293 196.083 203.504 196.02 198.719C196.007 197.614 196.297 197.07 197.402 196.731C201.428 195.488 201.415 195.453 201.415 199.641C201.415 205.001 201.437 210.365 201.397 215.725C201.388 216.701 201.589 217.146 202.685 217.044C203.978 216.924 205.665 217.445 206.483 216.808C207.369 216.117 206.761 214.366 206.77 213.083C206.805 207.772 206.801 202.466 206.77 197.155C206.765 196.166 206.89 195.818 208.053 196.041C212.142 196.807 212.151 196.754 212.151 200.893C212.151 205.838 212.178 210.784 212.129 215.725C212.12 216.714 212.343 217.053 213.412 217.048C217.51 217.044 217.51 217.084 217.51 213.074V200.563C218.995 201.45 219.997 202.622 220.928 203.824C224.882 208.922 226.215 214.669 225.119 221.009C224.958 221.949 224.654 222.377 223.549 222.373L223.545 222.381Z" fill="#2F9FEE"/>
</g>
</g>
<circle cx="184" cy="326.603" r="16" fill="#2F9FEE"/>
<circle cx="184" cy="359.603" r="8" fill="#2F9FEE"/>
<circle cx="184" cy="384.603" r="8" fill="#2F9FEE"/>
<circle cx="184" cy="409.603" r="8" fill="#2F9FEE"/>
<defs>
<clipPath id="clip0_1076_200">
<rect width="272" height="272" fill="white" transform="translate(48 48.6025)"/>
</clipPath>
<clipPath id="clip1_1076_200">
<rect width="158" height="160" fill="white" transform="translate(105 113)"/>
</clipPath>
</defs>
</svg>
