<svg width="100" height="101" viewBox="0 0 100 101" fill="none" xmlns="http://www.w3.org/2000/svg">
<g clip-path="url(#clip0_562_1743)">
<path d="M92.6867 39.6727C93.2212 38.8772 93.8939 38.4874 94.8272 38.3241C97.5596 37.85 99.4785 36.4251 100.003 33.5041V27.3934C99.7757 26.4583 99.0092 26.0738 98.2714 25.6629C95.4556 24.0984 92.6372 22.5391 89.8292 20.9587C84.1011 17.7348 78.3522 14.5451 72.6241 11.3212C67.4905 8.43447 62.3699 5.51873 57.1998 2.70044C55.2288 1.62844 53.435 0.0955017 51.0363 -0.00195312H50.8408C50.3194 0.306215 49.8005 0.306215 49.2791 -0.00195312H49.0835C48.0067 0.185055 46.9586 0.348357 45.9549 0.919916C40.3181 4.12275 34.6604 7.29135 28.9897 10.431C28.5334 10.6838 28.0745 10.9367 27.6991 11.3081C27.1438 11.8586 27.016 12.7067 27.368 13.3941C27.6991 14.0368 28.403 14.3476 29.2009 14.1843C29.7171 14.0789 30.176 13.8182 30.627 13.5601C36.269 10.3651 41.9632 7.26501 47.5896 4.03847C49.2113 3.1087 50.773 3.02441 52.3921 3.95682C53.8052 4.7707 55.234 5.55297 56.6523 6.35105C64.6878 10.8761 72.7467 15.3538 80.7821 19.8736C84.4687 21.9464 88.184 23.9693 91.928 26.1186C63.9499 26.1186 36.0683 26.1186 8.17622 26.1186C12.6685 23.6401 17.119 21.072 21.6243 18.6066C22.3387 18.2168 23.0765 17.856 23.7179 17.3503C24.4635 16.7655 24.6408 15.9095 24.2341 15.1615C23.8013 14.3687 22.9435 14.0579 22.0571 14.3713C21.7494 14.4819 21.4731 14.6558 21.1889 14.8138C16.6393 17.3608 12.0792 19.8841 7.53745 22.4443C5.40996 23.6453 3.26161 24.8121 1.15497 26.0501C0.393663 26.4978 -0.0417426 27.072 0.00258014 28.0334C0.0677607 29.4426 0.0729751 30.8596 0.00518736 32.2687C-0.0860654 34.1968 0.638742 35.7007 2.05707 36.9413C3.08432 37.8395 4.28625 38.2846 5.60029 38.44C6.34334 38.5269 6.85697 38.8614 7.27673 39.4672C8.48909 41.2135 9.68841 42.973 10.9373 44.6929C11.3805 45.304 11.5448 45.9704 11.5421 46.7237C11.5343 57.9547 11.5343 69.1883 11.5421 80.4193C11.5421 81.2042 11.3701 81.8996 10.9138 82.5449C9.61019 84.3886 8.30137 86.2271 7.00297 88.0787C6.64578 88.5871 6.19734 88.7952 5.59768 88.7925C4.81812 88.7846 4.03595 88.753 3.25639 88.8136C1.34791 88.9611 0.0338668 90.3781 0.0182235 92.3088C0.00518736 93.9497 0.0156162 95.5933 0.0156162 97.2342C0.0156162 99.7707 1.20712 100.993 3.70484 100.993C34.59 100.993 65.4751 100.993 96.3603 100.993C98.5895 100.993 99.4811 100.287 99.9948 98.1376V91.6345C99.5437 89.7723 98.3887 88.8426 96.4594 88.7952C95.8414 88.7794 95.2235 88.7714 94.6082 88.7952C93.933 88.8215 93.4454 88.5844 93.0439 88.0103C91.7924 86.2113 90.5305 84.4202 89.2504 82.6397C88.7733 81.976 88.5569 81.2701 88.5595 80.4404C88.5725 69.2146 88.5725 57.9915 88.5595 46.7658C88.5595 45.9361 88.7681 45.2302 89.2504 44.5691C90.4289 42.9598 91.5682 41.3215 92.6789 39.6648L92.6867 39.6727ZM6.78136 35.2398C4.52872 35.2424 2.87052 34.1151 3.01914 31.3943C3.13385 29.3056 3.0426 29.3003 5.07363 29.3003H50.129C65.4073 29.3003 80.6883 29.3109 95.9666 29.274C96.9417 29.274 97.2076 29.5426 97.0851 30.4592C97.0121 31.0071 97.0799 31.5734 97.0695 32.1318C97.0356 33.8412 95.9431 35.0344 94.2589 35.195C93.9695 35.224 93.6749 35.2108 93.3828 35.2108C64.5157 35.2108 35.6459 35.1977 6.77875 35.2372L6.78136 35.2398ZM73.6331 62.6878C73.6331 62.9828 73.6175 63.2831 73.654 63.5728C73.7478 64.3182 74.1859 64.7607 74.9185 64.8423C75.6511 64.924 76.1621 64.5895 76.4411 63.8889C76.5923 63.507 76.5558 63.1145 76.5558 62.722C76.5558 57.5991 76.5689 52.4761 76.5428 47.3532C76.5402 46.6947 76.6575 46.4576 77.3719 46.4708C79.8096 46.5208 82.2474 46.5077 84.6851 46.4761C85.2405 46.4682 85.3813 46.6315 85.3813 47.1846C85.3656 58.1206 85.3656 69.0566 85.3813 79.9926C85.3813 80.5747 85.2692 80.7854 84.6408 80.7749C82.2031 80.7354 79.7653 80.7301 77.3276 80.7749C76.6288 80.7881 76.5428 80.5194 76.548 79.9215C76.5715 76.8688 76.5558 73.8135 76.561 70.7581C76.561 70.2919 76.5454 69.831 76.2534 69.4464C75.8623 68.9355 75.3513 68.6905 74.7151 68.8828C73.9642 69.1093 73.6279 69.644 73.6305 70.4342C73.6384 73.0602 73.4923 75.6993 73.6722 78.3122C73.8391 80.7117 73.2812 82.7029 71.709 84.515C70.6661 85.7161 69.8266 87.1042 68.9375 88.4343C68.609 88.9242 68.244 89.0849 67.66 89.0822C61.8094 89.0585 55.9562 89.0664 50.1056 89.0664C44.255 89.0664 38.3366 89.0559 32.4547 89.0822C31.868 89.0822 31.5135 88.9137 31.1823 88.429C29.7797 86.3799 28.3457 84.3517 26.9013 82.3289C26.6015 81.9101 26.4789 81.4887 26.4789 80.9698C26.492 69.4096 26.492 57.8493 26.4789 46.2891C26.4789 45.7359 26.6119 45.2934 26.9352 44.843C28.3665 42.8518 29.7823 40.85 31.1641 38.8246C31.4978 38.3373 31.8472 38.1555 32.4338 38.1582C44.2028 38.1766 55.9692 38.174 67.7382 38.1582C68.2857 38.1582 68.6194 38.3241 68.9297 38.7798C70.3141 40.8026 71.7246 42.8097 73.156 44.7983C73.4976 45.275 73.6488 45.7412 73.6462 46.3312C73.6279 51.7834 73.6357 57.233 73.6357 62.6852L73.6331 62.6878ZM10.3454 38.2583H27.9755C26.7709 39.9782 25.6159 41.6297 24.4635 43.2811C24.2576 43.5761 23.9656 43.5314 23.6788 43.5314C20.657 43.5314 17.6352 43.5287 14.6135 43.534C14.2771 43.534 14.0112 43.5024 13.787 43.1758C12.6815 41.5638 11.55 39.9703 10.3454 38.2556V38.2583ZM23.5614 63.665C23.5614 69.0487 23.5432 74.4324 23.5823 79.8135C23.5875 80.6142 23.3503 80.7854 22.6046 80.7696C20.2346 80.7222 17.8594 80.7301 15.4895 80.7696C14.8794 80.7802 14.736 80.6011 14.736 80.0005C14.7542 69.0698 14.7542 58.139 14.7334 47.2083C14.7334 46.5656 14.9367 46.4655 15.5025 46.4734C17.8751 46.505 20.2477 46.5156 22.6176 46.4682C23.3581 46.4524 23.5875 46.6209 23.5823 47.4164C23.5432 52.8317 23.5614 58.2497 23.5614 63.665ZM13.8782 83.933C14.0894 83.6301 14.3971 83.7143 14.676 83.7117C17.6639 83.7064 20.6544 83.7143 23.6423 83.7012C24.062 83.7012 24.3671 83.7775 24.6278 84.1568C25.7124 85.7477 26.8309 87.3149 28.038 89.0322H10.2881C11.5291 87.2675 12.705 85.6029 13.8756 83.9303L13.8782 83.933ZM95.5964 92.0217C96.5836 92.0217 97.0773 92.5213 97.0773 93.5204C97.0773 94.6688 97.046 95.8198 97.0877 96.9682C97.1138 97.6925 96.8609 97.9664 96.1335 97.948C94.6708 97.9085 93.2082 97.9375 91.7455 97.9375H50.0091C34.7986 97.9375 19.5854 97.9375 4.37489 97.9375C3.4867 97.9375 3.04173 97.4844 3.03999 96.5784C3.03999 95.3299 3.05824 94.0814 3.03217 92.8356C3.02174 92.2429 3.24857 91.9796 3.8352 92.0217C4.06202 92.0375 4.28885 92.0217 4.51829 92.0217H95.5938H95.5964ZM89.8214 89.0243H72.0949C73.3177 87.2807 74.4753 85.6371 75.625 83.9856C75.8023 83.7301 76.0344 83.7064 76.3029 83.7064C79.4212 83.7091 82.542 83.7117 85.6602 83.7064C85.9444 83.7064 86.1504 83.7828 86.3199 84.0251C87.454 85.6529 88.596 87.278 89.8214 89.0269V89.0243ZM86.3329 43.1758C86.1113 43.4997 85.8454 43.5366 85.5064 43.534C82.4846 43.5261 79.4629 43.5287 76.4411 43.5314C76.1517 43.5314 75.8623 43.5761 75.6563 43.2811C74.5065 41.627 73.3489 39.9782 72.1209 38.224H89.8005C88.5725 39.9729 87.441 41.5665 86.3329 43.1758Z" fill="#F6F6F6"/>
<path d="M50.8382 0H49.2765C49.7979 0.165936 50.3168 0.165936 50.8382 0Z" fill="#F6F6F6"/>
<path d="M56.7775 15.7948C56.8114 12.0389 53.774 8.94141 50.0613 8.94141C46.3512 8.94141 43.3086 12.0415 43.3425 15.7922C43.3737 19.5376 46.3538 22.5245 50.0587 22.5245C53.7687 22.5245 56.7462 19.5429 56.7801 15.7948H56.7775ZM46.2678 15.7843C46.2443 13.6535 47.9703 11.8888 50.0691 11.8967C52.1366 11.9046 53.8287 13.6113 53.8522 15.7079C53.8756 17.8546 52.1809 19.5745 50.0482 19.5666C47.952 19.5613 46.2886 17.8993 46.2678 15.7817V15.7843Z" fill="#F6F6F6"/>
<path d="M50.1265 46.6837C40.8943 46.6495 33.3333 54.193 33.289 63.4854C33.2447 72.8464 40.73 80.4979 49.9857 80.5558C59.1631 80.6138 66.7736 73.0044 66.8257 63.7251C66.8779 54.3563 59.3925 46.718 50.1265 46.6837ZM50.0873 77.6006C42.4612 77.6243 36.1961 71.2845 36.2143 63.5618C36.2326 55.8708 42.443 49.6311 50.0743 49.639C57.7004 49.6469 63.8978 55.9024 63.9004 63.5987C63.903 71.2766 57.69 77.5742 50.0873 77.5979V77.6006Z" fill="#F6F6F6"/>
<path d="M52.0532 62.1411C51.6439 62.0647 51.5083 61.9567 51.5161 61.5406C51.537 60.1947 51.5317 58.8487 51.5213 57.5054C51.5161 56.9576 51.756 56.8865 52.1888 57.0972C52.8327 57.408 52.9631 57.9822 53.0518 58.6327C53.1769 59.5599 53.8417 60.0972 54.6396 60.0182C55.4582 59.9365 55.951 59.3149 55.9458 58.3667C55.9353 56.2095 54.444 54.4317 52.2644 54.0866C51.7221 53.9997 51.5109 53.897 51.4952 53.2859C51.4744 52.2982 50.9034 51.7767 50.0587 51.7793C49.2139 51.7793 48.6482 52.3035 48.6273 53.2912C48.6169 53.9128 48.3926 53.9971 47.8529 54.0787C45.7333 54.3922 44.2706 56.0884 44.1872 58.2693C44.1507 59.2201 44.1168 60.1789 44.2107 61.1218C44.388 62.8971 45.3396 64.1139 46.9587 64.8725C47.4958 65.1227 48.3301 64.6934 48.5569 65.4256C48.7342 65.9945 48.596 66.6609 48.5986 67.2852C48.5986 67.4168 48.5986 67.5485 48.5986 67.6802C48.5986 68.2702 48.6117 68.8629 48.5908 69.4529C48.583 69.6925 48.7342 70.0244 48.4213 70.1508C48.085 70.2878 47.7904 70.0903 47.5427 69.8664C47.1125 69.4792 47.1594 68.9234 47.0447 68.4177C46.8622 67.6144 46.3486 67.1508 45.5117 67.2167C44.7347 67.2772 44.2732 67.7382 44.1872 68.5336C43.9578 70.6934 45.6916 72.9059 47.8347 73.1245C48.3822 73.1798 48.6169 73.2668 48.6273 73.8989C48.6455 74.8682 49.2322 75.4476 50.0222 75.4714C50.8434 75.4977 51.4561 74.8945 51.5057 73.8805C51.5317 73.3537 51.6621 73.1772 52.2096 73.1193C54.2198 72.9085 55.7763 71.2413 55.9223 69.1974C55.9771 68.4125 55.964 67.6223 55.9536 66.8348C55.9249 64.1745 54.6526 62.6258 52.0584 62.1464L52.0532 62.1411ZM48.6012 59.5441C48.6012 60.2315 48.5804 60.9216 48.6064 61.6091C48.6299 62.2043 48.2884 62.1859 47.9233 62.0305C47.441 61.825 47.1412 61.4221 47.1229 60.89C47.0943 60.0076 47.1047 59.12 47.1203 58.2377C47.1281 57.8162 47.3706 57.4975 47.6783 57.242C47.879 57.0761 48.1293 56.9128 48.39 56.9945C48.729 57.1024 48.5882 57.4343 48.596 57.674C48.6143 58.2956 48.6012 58.9198 48.6012 59.5414V59.5441ZM52.6607 69.761C52.4208 70.0534 52.1027 70.2825 51.7325 70.1798C51.3492 70.0718 51.5291 69.6767 51.5239 69.4134C51.5057 68.2334 51.5057 67.0534 51.5239 65.8734C51.5265 65.6021 51.3675 65.207 51.7195 65.0911C52.0349 64.9884 52.34 65.2123 52.5772 65.4493C53.2264 66.092 52.9657 66.9217 53.0361 67.6565C52.9918 68.3914 53.1691 69.1394 52.6607 69.761Z" fill="#F6F6F6"/>
</g>
<defs>
<clipPath id="clip0_562_1743">
<rect width="100" height="101" fill="white"/>
</clipPath>
</defs>
</svg>
