<svg width="103" height="130" viewBox="0 0 103 130" fill="none" xmlns="http://www.w3.org/2000/svg">
<g clip-path="url(#clip0_1142_901)">
<path d="M69.2156 67.5512C71.293 67.5512 73.1655 67.5512 75.0243 67.5512C76.4287 67.5512 77.2692 68.2704 77.2966 69.4103C77.3239 70.6044 76.4662 71.3474 74.9901 71.3508C69.3249 71.3508 63.6584 71.3508 57.9909 71.3508C56.5626 71.3508 55.763 70.6723 55.7494 69.4883C55.7357 68.3043 56.5694 67.5614 58.0592 67.5512C60.1094 67.5512 62.1595 67.5512 64.2097 67.5512C64.7222 67.5512 65.0742 67.4901 65.2928 66.9372C66.9842 62.6728 69.1608 58.6188 70.0219 54.0186C71.2247 47.6102 67.2576 41.938 60.7484 41.2154C58.4556 40.9609 56.9897 41.9278 56.3679 44.1499C55.8861 45.8461 55.3428 47.5423 54.984 49.2827C54.0307 53.944 51.9087 58.0726 49.5169 62.1368C46.5202 67.2255 43.6637 72.4228 40.8071 77.6031C40.1716 78.7532 39.3617 79.2349 38.0565 79.2112C35.0735 79.1535 32.0905 79.2112 29.1076 79.1739C28.3285 79.1739 28.0825 79.3469 28.1167 80.1441C28.1782 82.0473 28.1508 83.9505 28.1167 85.8537C28.1167 87.3362 27.3752 88.2284 26.21 88.2284C25.0448 88.2284 24.2965 87.3871 24.2896 85.8978C24.2896 82.5053 24.2521 79.1128 24.3067 75.7474C24.3272 74.5194 23.8592 74.1292 22.6496 74.136C16.0891 74.1767 9.52853 74.1564 2.9646 74.1564C2.62291 74.1564 2.28122 74.1564 1.93952 74.1564C0.764097 74.0953 0.0568188 73.444 0.00214787 72.3923C-0.0184516 72.1383 0.0136438 71.8828 0.0964972 71.6416C0.179351 71.4004 0.311186 71.1787 0.483822 70.9901C0.656458 70.8015 0.866202 70.6501 1.10014 70.5453C1.33407 70.4404 1.5872 70.3844 1.84384 70.3806C2.73566 70.3127 3.63435 70.3568 4.52958 70.3568H22.6803C25.9025 70.3568 27.4948 71.6256 28.0722 74.7195C28.1713 75.2555 28.3285 75.398 28.8615 75.398C31.5438 75.3709 34.2296 75.3675 36.9153 75.398C37.1421 75.4177 37.3693 75.3647 37.5635 75.2469C37.7578 75.1291 37.909 74.9526 37.995 74.7433C41.798 67.9583 45.6284 61.1733 49.4212 54.3884C49.7629 53.7811 49.8962 53.0619 50.1627 52.2816C49.3051 52.2579 48.6729 52.6209 48.0203 52.8617C45.133 53.8523 42.2628 54.8973 39.3755 55.8946C36.5497 56.8717 34.5337 55.4231 34.5917 52.4479C34.6669 48.5578 34.7683 44.6678 34.8958 40.7777C34.9449 40.0653 34.7175 39.3613 34.2603 38.8101C31.8685 35.7874 29.5142 32.7307 27.1599 29.6775C25.2943 27.2519 26.0494 24.8805 28.9812 24.0053C32.6441 22.9129 36.3036 21.8239 39.9837 20.7994C40.8384 20.5771 41.5732 20.0349 42.0338 19.2863C44.1387 16.1619 46.2948 13.0679 48.444 9.97398C50.2174 7.42622 52.7289 7.44996 54.5262 10.0113C54.7688 10.3505 55.0216 10.6898 55.2437 11.0596C55.9066 12.135 55.7323 13.2511 54.82 13.8618C53.9076 14.4724 52.9168 14.2485 52.1343 13.2817C51.9293 13.0238 51.7379 12.7524 51.4509 12.3657C49.6946 14.9066 47.8152 17.2644 46.3494 19.8529C44.7058 22.7501 42.437 24.3649 39.1738 25.0332C36.2455 25.6303 33.4129 26.6752 30.3752 27.5674C32.1349 29.8404 33.6384 32.171 35.5246 34.1386C38.1864 36.9137 39.167 39.9839 38.733 43.7767C38.4221 46.4907 38.6715 49.2623 38.6715 52.1052C40.4791 51.4776 42.4302 50.8059 44.3608 50.1274C46.4451 49.398 48.5089 48.6177 50.6103 47.946C50.8892 47.875 51.1408 47.7238 51.3335 47.5113C51.5262 47.2989 51.6514 47.0347 51.6935 46.7519C51.9429 45.7681 52.288 44.808 52.4793 43.8174C53.3404 39.4072 56.9214 36.303 62.6481 37.6838C64.1823 38.0569 64.8896 37.6838 65.7234 36.5134C67.6574 33.8367 69.7417 31.2652 71.7509 28.6428C72.0003 28.3205 72.3591 28.0491 72.4343 27.5063C68.5321 26.3664 64.6471 25.1757 60.7313 24.1138C58.6811 23.5541 57.9806 21.8375 57.1845 20.2566C56.7983 19.4899 57.2904 18.6757 58.0832 18.2211C58.9306 17.7529 59.942 17.7868 60.3691 18.5943C61.3941 20.5517 63.2564 20.8503 65.0844 21.3659C68.105 22.2242 71.1119 23.13 74.1188 24.046C76.8148 24.8636 77.6246 27.2383 75.9435 29.474C73.5585 32.6629 71.145 35.8292 68.703 38.9729C68.2076 39.6107 68.105 39.9092 68.8362 40.5267C73.5004 44.462 74.8671 49.4421 73.6712 55.3519C72.9058 59.1277 71.3135 62.5541 69.8408 66.0483L69.2156 67.5512Z" fill="#404041"/>
<path d="M99.0786 85.952C104.18 89.704 104.611 97.5984 98.2244 101.696C100.23 104.024 101.054 106.67 100.333 109.699C100.086 110.795 99.6185 111.83 98.9578 112.742C98.2971 113.653 97.4571 114.422 96.4885 115.002C95.9555 115.341 95.9043 115.511 96.2802 116.02C98.4055 118.961 98.7198 122.126 97.0113 125.318C95.2687 128.579 92.3882 129.983 88.7048 129.976C79.1203 129.952 69.5324 129.915 59.9445 129.976C55.5913 130.01 51.8326 128.728 48.7232 125.695C48.4017 125.368 48.0131 125.114 47.5839 124.95C47.1547 124.785 46.695 124.714 46.2358 124.742C40.5671 124.789 34.9018 124.776 29.2331 124.742C28.4951 124.742 28.1465 124.833 28.0406 125.719C27.7262 128.382 25.8879 129.932 23.1953 129.939C16.2521 129.953 9.30437 129.953 2.35205 129.939C0.841764 129.939 -0.00219813 129.26 -0.0192828 128.063C-0.0363675 126.865 0.82809 126.139 2.43063 126.136H22.4983C24.1862 126.136 24.2717 126.048 24.2717 124.321C24.2717 115.048 24.2717 105.784 24.2717 96.5297C24.251 96.0652 24.2716 95.5998 24.3332 95.1388C24.3823 94.7343 24.5764 94.3608 24.8801 94.0867C25.1838 93.8126 25.5768 93.6562 25.987 93.6461C26.4142 93.5718 26.8537 93.6616 27.2167 93.8972C27.5796 94.1328 27.8387 94.4966 27.9415 94.9149C28.068 95.4055 28.121 95.9119 28.0987 96.4178C28.0987 104.156 28.1226 111.898 28.0816 119.639C28.0816 120.674 28.3276 120.996 29.4005 120.973C35.4519 120.922 41.4999 120.973 47.5512 120.932C48.0555 120.906 48.5597 120.986 49.0307 121.166C49.5018 121.347 49.9291 121.624 50.2848 121.98C52.27 123.931 54.4193 125.651 57.3374 126.007C57.8858 126.08 58.4379 126.121 58.9911 126.129C69.0027 126.129 79.0155 126.129 89.0294 126.129C91.1377 126.129 92.7402 125.251 93.6833 123.371C94.1079 122.581 94.2936 121.686 94.2178 120.793C94.142 119.9 93.8081 119.049 93.2561 118.34C92.2311 116.885 90.7071 116.305 88.9406 116.305C86.0874 116.305 83.2343 116.305 80.3777 116.305C78.7923 116.305 78.0132 115.694 77.9859 114.476C77.9585 113.258 78.8026 112.512 80.3983 112.505C84.2765 112.488 88.1547 112.542 92.0158 112.471C92.6458 112.462 93.2676 112.329 93.8453 112.079C94.4231 111.83 94.9452 111.469 95.3815 111.018C95.8179 110.567 96.1597 110.034 96.3873 109.451C96.6148 108.867 96.7236 108.245 96.7073 107.62C96.7059 106.359 96.2086 105.149 95.3213 104.247C94.4341 103.345 93.227 102.823 91.9577 102.792C91.1479 102.765 90.3381 102.792 89.5283 102.792C87.4405 102.792 85.3528 102.792 83.265 102.792C81.8743 102.792 81.0509 102.056 81.0474 100.892C81.044 99.7289 81.8607 98.9995 83.2582 98.9927C86.5794 98.9757 89.9041 98.9927 93.2288 98.9927C96.5535 98.9927 99.0376 96.7299 99.082 93.5986C99.1264 90.4029 96.6902 88.0858 93.2732 88.0587C90.5055 88.0383 87.7344 88.0587 84.9667 88.0587C83.453 88.0587 82.6124 87.3802 82.6022 86.1691C82.5919 84.958 83.3983 84.2659 84.9189 84.2591C87.3927 84.2591 89.8631 84.2591 92.3336 84.2591C96.2221 84.2354 99.0923 81.4976 99.0991 77.8134C99.106 74.1291 96.2323 71.3677 92.3575 71.3677C89.9281 71.3677 87.4986 71.3677 85.0692 71.3677C83.5896 71.3677 82.7183 70.6179 82.7457 69.4373C82.773 68.311 83.6409 67.5477 85.0248 67.5749C88.1 67.6325 91.1752 67.2797 94.2129 67.7445C98.4362 68.3925 101.279 70.8825 102.489 74.8925C103.698 78.9024 102.646 82.4034 99.6355 85.3277C99.451 85.5042 99.2734 85.667 99.0957 85.8637C99.0845 85.8918 99.0787 85.9217 99.0786 85.952Z" fill="#404041"/>
<path d="M10.9815 118.758C11.4906 118.758 12.0065 118.734 12.5088 118.758C12.9631 118.751 13.4018 118.922 13.7303 119.234C14.0588 119.545 14.2509 119.972 14.2652 120.423C14.3711 121.417 13.8961 122.187 12.8984 122.404C11.6097 122.676 10.2781 122.676 8.98944 122.404C8.76688 122.368 8.55382 122.287 8.3627 122.168C8.17158 122.049 8.00611 121.893 7.87585 121.711C7.7456 121.528 7.65315 121.321 7.60382 121.102C7.55449 120.884 7.54928 120.657 7.58847 120.437C7.59918 119.983 7.78825 119.552 8.11519 119.235C8.44212 118.918 8.88101 118.74 9.33798 118.741C9.89494 118.73 10.4313 118.758 10.9815 118.758Z" fill="#232C61"/>
<path d="M86.3733 5.18033C84.3983 3.23983 82.4507 1.20433 79.8606 0H77.8105C76.9597 0.51905 75.9824 0.854904 75.3913 1.73695C73.717 4.23043 71.9744 6.68319 70.3821 9.20042C69.8515 10.007 69.6263 10.9743 69.7464 11.9303C69.8665 12.8863 70.3242 13.769 71.0381 14.4215C72.0045 15.3675 73.0318 16.2502 74.1133 17.0642C74.8712 17.6653 75.8182 17.9821 76.7879 17.9592C77.7576 17.9362 78.6882 17.5749 79.4164 16.9387C81.7058 14.9846 83.9507 12.9729 86.1273 10.8933C87.7606 9.36664 87.9383 6.72391 86.3733 5.18033ZM83.1238 8.57281C81.1898 10.2928 79.2729 12.0298 77.3423 13.7531C77.153 13.9034 76.9519 14.0384 76.7409 14.1568C76.1327 13.9906 75.7808 13.5462 75.3742 13.19C73.4163 11.4937 73.4197 11.4937 74.8549 9.36664C75.9654 7.7179 77.1032 6.08613 78.1864 4.42042C78.6237 3.74192 79.0166 3.71477 79.6009 4.23721C80.7388 5.25495 81.9073 6.23879 83.0759 7.22261C83.5987 7.65685 83.6808 8.06393 83.1238 8.55923V8.57281Z" fill="#232C61"/>
<path d="M81.7388 27.3436C82.4939 29.0398 83.9188 29.8642 85.9997 29.9795C89.1467 29.2603 92.5807 28.8227 95.8439 27.7405C96.8006 27.3958 97.5884 26.7012 98.0464 25.7988C98.5043 24.8964 98.5977 23.8543 98.3075 22.8858C97.7303 20.8591 97.0402 18.8658 96.2402 16.9151C96.0308 16.3908 95.7154 15.9149 95.3133 15.5165C94.9112 15.1182 94.4311 14.806 93.9026 14.5993C93.3741 14.3927 92.8086 14.2958 92.2409 14.3148C91.6732 14.3339 91.1155 14.4684 90.6023 14.71C87.8926 15.9245 85.2274 17.234 82.5896 18.591C81.6783 19.0366 80.9587 19.7927 80.5623 20.7213C80.1658 21.6499 80.1189 22.6891 80.4301 23.6491C80.7796 24.9092 81.2169 26.1437 81.7388 27.3436ZM84.568 21.8444C86.9963 20.657 89.4268 19.4742 91.8597 18.2958C92.3927 18.0414 92.7242 18.2517 92.9121 18.8115C93.4178 20.3279 93.9372 21.8376 94.4839 23.3371C94.6821 23.8765 94.6411 24.2428 94.0192 24.3751L85.7502 26.163C84.7047 25.5659 84.8379 24.2361 84.3561 23.2523C84.1101 22.7705 83.8436 22.2006 84.568 21.8444Z" fill="#232C61"/>
<path d="M93.3512 33.5957C90.7202 33.3752 88.0857 33.2564 84.515 33.0155C83.1004 32.9579 81.2962 34.2335 80.7563 36.4793C80.4568 37.7092 80.2286 38.9552 80.0729 40.211C79.8235 42.1821 80.8213 44.0038 82.6972 44.6688C85.6084 45.6865 88.5572 46.6635 91.5368 47.4879C93.9286 48.1664 96.1941 46.7043 96.7613 44.2854C97.1577 42.5892 97.4823 40.8929 97.7864 39.1967C98.2955 35.9467 96.6861 33.8739 93.3512 33.5957ZM94.079 37.9516C93.7032 39.9294 93.3957 41.5918 93.054 43.2439C92.9549 43.7188 92.6678 43.9224 92.1109 43.7494C89.5687 42.9216 87.0162 42.1311 84.4706 41.3237C83.4455 40.9845 83.8111 40.1499 84.0298 39.6275C84.433 38.6912 83.6881 36.9373 85.3282 36.9135C87.9559 36.866 90.5904 37.2087 93.2248 37.3919C93.7681 37.436 94.1474 37.6327 94.079 37.9516Z" fill="#232C61"/>
<path d="M32.3241 8.77636C31.0666 6.87317 29.7272 5.02087 28.5074 3.09055C27.6566 1.73355 26.6589 0.607255 25.1418 0H23.0916C20.4982 1.20094 18.5573 3.24662 16.5789 5.18373C14.9764 6.75105 15.2121 9.41416 16.8932 11.0018C19.0231 13.0102 21.1975 14.9699 23.4162 16.881C25.0392 18.2889 27.1748 18.3194 28.9277 17.0133C29.8434 16.3348 30.7079 15.5715 31.5553 14.8048C33.4517 13.0916 33.7319 10.8967 32.3241 8.77636ZM28.8696 12.0976C28.8343 12.1219 28.8011 12.1491 28.7705 12.179C26.3787 14.374 26.3787 14.3774 23.9322 12.2163C22.5961 11.0358 21.2908 9.82125 19.9411 8.65763C19.2919 8.10126 19.309 7.68735 19.9753 7.14795C21.1302 6.21501 22.2305 5.21426 23.3615 4.25419C23.5693 4.09355 23.7874 3.94622 24.0142 3.81315C24.1759 3.84412 24.3276 3.91334 24.4567 4.01491C24.5858 4.11648 24.6883 4.2474 24.7556 4.39665C26.1771 6.49999 27.5848 8.61014 29.0268 10.6999C29.4061 11.2529 29.4402 11.6871 28.8696 12.0976Z" fill="#232C61"/>
<path d="M8.10421 28.1032C10.8378 28.7297 13.5816 29.3121 16.3356 29.8503C18.1774 30.2133 19.7765 29.6332 20.7776 28.0625C21.8266 26.4137 22.3084 24.514 22.7013 22.7838C22.6808 20.7483 21.9086 19.3438 20.2138 18.5059C17.7058 17.2642 15.2012 16.0124 12.6693 14.8216C10.0826 13.6105 7.47207 14.7165 6.47774 17.4135C5.89687 18.9944 5.34336 20.5923 4.81032 22.1901C3.88775 24.9754 5.24423 27.4485 8.10421 28.1032ZM8.52448 23.1332C9.04386 21.7559 9.54957 20.3718 9.98694 18.9707C10.2261 18.2141 10.5918 18.0309 11.2922 18.377C13.6021 19.5078 15.9164 20.6386 18.2354 21.7695C18.3401 21.7986 18.438 21.8483 18.523 21.9156C18.6081 21.9829 18.6786 22.0665 18.7306 22.1614C18.7825 22.2563 18.8147 22.3606 18.8253 22.4681C18.836 22.5756 18.8248 22.6841 18.7924 22.7872C18.4814 23.6625 18.1295 24.6937 17.7434 25.7183C17.5452 26.2509 17.1079 26.1491 16.6739 26.0575C14.1932 25.5079 11.7193 24.9278 9.22839 24.4461C8.30924 24.2595 8.2443 23.8762 8.5279 23.1332H8.52448Z" fill="#232C61"/>
<path d="M22.1952 36.4252C21.6725 34.3049 19.9059 33.0327 17.6098 33.0327C14.7259 33.243 11.7463 33.372 8.78721 33.7112C6.29968 33.9894 4.73473 36.1538 5.12085 38.5998C5.41812 40.4758 5.78028 42.3315 6.19373 44.194C6.76777 46.735 9.07082 48.1632 11.613 47.4474C14.4662 46.64 17.2886 45.7138 20.087 44.7334C22.1064 44.0278 23.1623 42.2331 22.8889 40.1434C22.7308 38.8916 22.4992 37.6501 22.1952 36.4252ZM18.3102 41.3714C15.8841 42.1381 13.4548 42.8879 11.0424 43.6953C10.2565 43.9565 9.94213 43.6953 9.81229 42.9693C9.5526 41.5139 9.30661 40.0551 8.98542 38.6167C8.80432 37.8059 9.00245 37.426 9.87377 37.3751C12.4228 37.2258 14.9685 37.0359 17.5175 36.8662C17.9719 36.8357 18.3785 36.8662 18.4913 37.426C18.686 38.42 18.8842 39.4106 19.0824 40.4046C19.202 41.0254 18.8056 41.2188 18.3204 41.3714H18.3102Z" fill="#232C61"/>
</g>
<defs>
<clipPath id="clip0_1142_901">
<rect width="103" height="130" fill="white"/>
</clipPath>
</defs>
</svg>
