<svg width="161" height="134" viewBox="0 0 161 134" fill="none" xmlns="http://www.w3.org/2000/svg">
<g clip-path="url(#clip0_1142_880)">
<path d="M160.999 112.318C160.482 112.64 160.579 113.233 160.432 113.701C158.839 118.553 154.549 121.945 149.431 122.029C142.464 122.146 135.493 122.087 128.522 122.075C126.917 122.075 125.916 121.135 125.904 119.781C125.891 118.427 126.959 117.416 128.639 117.408C135.035 117.383 141.43 117.236 147.817 117.449C153.343 117.629 156.368 113.651 156.343 108.93C156.213 83.6549 156.268 58.3716 156.314 33.1093C156.314 31.6886 155.969 31.3418 154.541 31.3418C105.175 31.3836 55.8088 31.3836 6.44081 31.3418C4.9575 31.3418 4.6717 31.7597 4.69271 33.1385C4.77255 38.1901 4.73056 43.246 4.72215 48.3018C4.72215 50.2071 3.78931 51.3436 2.306 51.3018C0.82269 51.2601 0.0117188 50.1737 0.0117188 48.3394C0.0117188 36.3029 0.0117188 24.2651 0.0117188 12.2258C0.0327288 5.26468 5.2012 0.0375493 12.1975 0.0333709C51.1866 -5.59371e-05 90.1756 -5.59371e-05 129.165 0.0333709C131.047 0.0333709 132.064 0.869042 132.064 2.344C132.064 3.81896 131.005 4.71314 129.026 4.71732H12.6849C8.45352 4.71732 5.43229 7.04048 4.81879 10.847C4.68462 12.0958 4.64809 13.3531 4.70954 14.6075C4.70954 18.1507 4.76833 21.7107 4.67589 25.2372C4.64227 26.4907 5.02052 26.7414 6.21809 26.7414C32.4722 26.708 58.7264 26.6997 84.9805 26.7164C108.198 26.7164 131.414 26.7289 154.629 26.754C156.049 26.754 156.31 26.3779 156.31 25.0492C156.217 20.8291 156.31 16.6089 156.272 12.3888C156.272 7.82184 153.183 4.77581 148.582 4.7382C146.116 4.71313 143.653 4.7382 141.191 4.7382C139.346 4.7382 138.321 3.83986 138.329 2.35236C138.338 0.864866 139.321 0.0667968 141.233 0.0584401C143.855 0.0584401 146.477 0.0166565 149.095 0.0584401C154.877 0.179613 159.449 3.96103 160.705 9.61435C160.751 9.81491 160.751 10.0322 160.995 10.099L160.999 112.318Z" fill="#404041"/>
<path d="M46.8102 11.3483C47.9703 11.3392 49.0873 11.7849 49.9194 12.5889C50.7515 13.3928 51.2317 14.4903 51.2559 15.6436C51.2505 16.7987 50.7889 17.9054 49.9707 18.7252C49.1525 19.5451 48.0432 20.0125 46.8817 20.0267C45.7474 20.0043 44.6643 19.5528 43.8531 18.764C43.0419 17.9753 42.5636 16.9087 42.5157 15.7815C42.5075 14.6313 42.9523 13.5235 43.7548 12.695C44.5573 11.8665 45.6539 11.3832 46.8102 11.3483Z" fill="#232C61"/>
<path d="M37.7715 15.8275C37.7335 16.9531 37.2593 18.0205 36.4479 18.8063C35.6365 19.5922 34.5509 20.0354 33.4182 20.0434C32.2612 20.0183 31.1599 19.5439 30.3502 18.7215C29.5406 17.8992 29.0868 16.7945 29.0859 15.6436C29.108 14.4892 29.5891 13.3905 30.4238 12.5878C31.2585 11.7852 32.3791 11.344 33.5401 11.3608C34.113 11.3776 34.6768 11.5064 35.1996 11.74C35.7223 11.9736 36.1937 12.3074 36.5867 12.7222C36.9796 13.137 37.2866 13.6248 37.4899 14.1576C37.6932 14.6904 37.7888 15.2579 37.7715 15.8275Z" fill="#232C61"/>
<path d="M15.676 15.7106C15.6704 15.1396 15.7787 14.573 15.9945 14.0438C16.2103 13.5146 16.5293 13.0331 16.9333 12.6271C17.3373 12.2211 17.8181 11.8988 18.348 11.6786C18.8779 11.4584 19.4465 11.3448 20.0208 11.3442C21.154 11.356 22.2382 11.8063 23.043 12.5996C23.8479 13.393 24.3103 14.4669 24.3321 15.5936C24.3455 16.1649 24.2456 16.7331 24.038 17.266C23.8305 17.7988 23.5194 18.2858 23.1225 18.699C22.7257 19.1123 22.2508 19.4437 21.7251 19.6744C21.1994 19.9051 20.6331 20.0306 20.0587 20.0436C18.9003 20.0447 17.7887 19.5893 16.9673 18.7772C16.1458 17.9651 15.6815 16.8624 15.676 15.7106Z" fill="#232C61"/>
<path d="M117.861 117.625C117.215 117.404 116.527 117.327 115.848 117.399C107.15 117.399 98.4516 117.303 89.7576 117.458C87.3835 117.504 85.6817 116.869 84.232 115.064C83.6942 114.395 83.5765 114.098 84.232 113.472C86.4969 111.303 88.6987 109.072 90.9132 106.853C93.4722 104.292 92.8714 101.421 89.4972 100.168C76.09 95.2122 62.6814 90.2567 49.2713 85.3011C47.4939 84.6409 45.9097 84.5657 44.481 85.9446C42.9977 87.3861 43.128 89.0742 43.8045 90.8542C45.6324 95.6593 47.4308 100.464 49.2335 105.295C50.721 109.272 52.2001 113.233 53.7422 117.412H52.3178C39.1515 117.412 25.9991 117.412 12.8609 117.412C7.64196 117.412 4.73003 114.487 4.73003 109.251C4.73003 92.8946 4.73003 76.5349 4.73003 60.1725C4.73003 58.2295 3.86022 57.1724 2.31808 57.2058C0.843179 57.2351 0.0195973 58.2546 0.0195973 60.1307C0.0195973 76.7522 0.0195973 93.3723 0.0195973 109.991C0.0156196 111.189 0.19123 112.38 0.540642 113.526C2.17102 118.891 6.71336 122.1 12.7937 122.108C26.5707 122.125 40.3505 122.118 54.1331 122.087C55.2004 122.087 55.6836 122.372 56.0282 123.399C56.8686 125.957 57.8729 128.476 58.8435 130.996C60.0285 134.075 62.9194 134.685 65.2893 132.362C67.5668 130.131 69.8444 127.904 72.0546 125.61C72.7269 124.912 73.0757 124.904 73.7354 125.61C76.0633 128.014 78.4318 130.381 80.841 132.713C82.6058 134.418 84.7489 134.518 86.4591 132.939C88.2618 131.267 89.9972 129.529 91.678 127.741C92.9386 126.42 93.0184 124.866 92.2159 123.257C92.0436 122.915 91.5645 122.672 91.7957 122.146H115.684C116.259 122.172 116.836 122.15 117.407 122.079C117.908 122.02 118.371 121.784 118.711 121.413C119.052 121.042 119.246 120.563 119.26 120.061C119.352 119.556 119.262 119.035 119.006 118.59C118.751 118.144 118.345 117.802 117.861 117.625ZM86.7196 126.061C85.6943 126.938 84.7489 128.656 83.7782 128.647C82.8075 128.639 81.8116 126.976 80.8368 126.036C78.9753 124.202 77.1306 122.351 75.2775 120.512C73.4244 118.674 72.4244 118.607 70.5503 120.475C68.0291 122.982 65.5373 125.489 62.8186 128.209C58.0451 115.448 53.3473 102.905 48.5318 90.0394L86.8961 104.246C84.2615 106.857 81.7445 109.339 79.2359 111.83C77.2399 113.81 77.2525 114.721 79.2821 116.743C81.7654 119.213 84.211 121.72 86.749 124.126C87.5936 124.916 87.5222 125.372 86.7196 126.061Z" fill="#232C61"/>
</g>
<defs>
<clipPath id="clip0_1142_880">
<rect width="161" height="134" fill="white"/>
</clipPath>
</defs>
</svg>
