<svg width="83" height="83" viewBox="0 0 83 83" fill="none" xmlns="http://www.w3.org/2000/svg">
<circle cx="41.5" cy="41.5" r="41.5" fill="white"/>
<g clip-path="url(#clip0_1500_251)">
<path d="M33.6155 71.0002C33.6055 70.779 33.5887 70.5579 33.5887 70.3351C33.5887 62.1001 33.582 53.8635 33.5988 45.6286C33.5988 45.1229 33.4813 44.9823 32.9779 44.9875C30.4908 45.0149 28.0022 44.9909 25.5151 45.0097C25.1225 45.0132 24.9966 44.9343 25 44.5023C25.0218 41.4614 25.0201 38.4187 25 35.376C24.9966 34.9595 25.0956 34.8498 25.5068 34.8532C28.0307 34.8738 30.5546 34.8532 33.0785 34.8738C33.4779 34.8772 33.5988 34.7829 33.5971 34.3544C33.587 31.646 33.5333 28.9359 33.639 26.2309C33.7632 23.0202 34.6912 20.077 36.9131 17.684C38.5929 15.8772 40.6872 14.8538 43.0484 14.3413C45.0236 13.9145 47.0206 13.9779 49.0159 14.0585C50.5027 14.1185 51.9845 14.2659 53.4713 14.3413C53.8926 14.3619 54.0033 14.5041 54 14.931C53.9798 17.6205 53.9798 20.3101 54 22.9996C54.0033 23.4008 53.8875 23.4745 53.5183 23.4779C51.5398 23.4968 49.5613 23.3853 47.5844 23.5533C45.2468 23.7505 43.9428 25.0498 43.874 27.4342C43.8052 29.7878 43.8522 32.1448 43.8237 34.5001C43.8187 34.9321 44.0553 34.8652 44.3053 34.8652C47.2286 34.8652 50.152 34.8772 53.0753 34.8532C53.5401 34.8498 53.6408 34.9543 53.5771 35.4292C53.1793 38.441 52.8051 41.4545 52.4443 44.4715C52.3906 44.9206 52.2178 45.0183 51.7932 45.0132C49.3062 44.9892 46.8175 45.008 44.3305 44.9943C43.9831 44.9926 43.822 45.0372 43.8237 45.4623C43.8371 53.8841 43.8338 62.3041 43.8338 70.7259C43.8338 70.8168 43.8505 70.9093 43.8606 71.0002H33.6155Z" fill="#232C61"/>
</g>
<defs>
<clipPath id="clip0_1500_251">
<rect width="29" height="57" fill="white" transform="translate(25 14)"/>
</clipPath>
</defs>
</svg>
