<svg width="132" height="102" viewBox="0 0 132 102" fill="none" xmlns="http://www.w3.org/2000/svg">
<g clip-path="url(#clip0_562_1769)">
<path d="M122.819 47.0542C123.024 48.1506 123.845 48.9274 124.88 49.0073C125.936 49.0904 126.827 48.4671 127.202 47.3802C127.314 47.0574 127.388 46.7186 127.375 46.3797C127.34 45.3408 127.85 44.9349 128.86 44.9796C130.04 45.034 130.797 44.4713 131.092 43.3174V42.0419C130.335 41.0414 129.29 40.8464 128.097 40.8496C119.439 40.8752 110.78 40.856 102.122 40.8752C101.327 40.8752 100.65 40.7026 99.9574 40.2934C90.2858 34.5971 80.6719 28.7953 70.8688 23.3355C68.1109 21.8011 66.9757 20.1165 67.4567 17.1053C67.5818 16.3254 67.6716 16.0217 68.5374 16.0345C72.1194 16.0856 75.7014 16.0601 79.2865 16.0537C81.2299 16.0505 81.8648 15.4111 81.8744 13.4389C81.8872 10.5459 81.884 7.65622 81.8744 4.76331C81.868 2.64397 81.2363 2.01104 79.139 2.00784C75.6404 2.00145 72.1451 2.00145 68.6465 2.00784C67.9955 2.00784 67.4792 2.07817 67.2708 1.15755C67.0816 0.316848 66.2574 -0.105102 65.3595 0.019565C64.4905 0.141035 63.8684 0.639704 63.7433 1.57311C63.6824 2.03342 63.6567 2.50332 63.6567 2.97002C63.6503 8.66634 63.6343 14.3659 63.6727 20.0622C63.6792 20.9349 63.4098 21.4271 62.653 21.8683C52.1861 27.9738 41.732 34.1016 31.2907 40.2455C30.5243 40.6962 29.7643 40.8816 28.8824 40.8784C20.2658 40.856 11.6524 40.8624 3.03581 40.872C2.48746 40.872 1.91344 40.888 1.39074 41.0318C0.508875 41.278 0.0567193 41.962 0.0887871 42.8507C0.120855 43.7329 0.601871 44.3691 1.49656 44.5928C1.82365 44.6727 2.17319 44.6823 2.51311 44.6919C3.60555 44.7239 4.15177 45.2971 4.15177 46.4117C4.15177 57.1267 4.15177 67.8416 4.15177 78.5566C4.15177 80.5449 4.72899 81.4559 6.0117 81.5102C7.34572 81.5646 7.99028 80.6024 7.99028 78.5598C7.99028 67.6754 7.99028 56.791 7.99028 45.9034C7.99028 45.3025 7.76581 44.6695 8.86253 44.6759C17.2643 44.7207 25.666 44.7079 34.071 44.6855C34.7669 44.6855 34.94 44.9285 34.9208 45.571C34.8791 46.9295 34.908 48.2913 34.908 49.653C34.908 52.4053 35.3088 52.8368 38.0474 52.8784C38.7016 52.888 39.0287 52.9615 39.0255 53.7542C38.9998 65.5337 39.003 77.3099 39.0255 89.0894C39.0255 89.8342 38.7817 90.01 38.0795 89.9972C35.947 89.9556 33.8112 89.9205 31.6819 90.01C30.659 90.0515 30.5115 89.6807 30.5211 88.7793C30.566 84.5278 30.55 80.2764 30.5371 76.0249C30.5307 74.2955 29.8862 73.6434 28.1545 73.6306C25.169 73.6115 22.1835 73.6211 19.198 73.6275C17.0526 73.6307 16.453 74.222 16.4498 76.335C16.4466 80.5033 16.4145 84.6685 16.4754 88.8368C16.4882 89.815 16.2125 90.0452 15.2697 90.0068C13.352 89.9301 11.4247 89.8789 9.51671 90.0196C8.16024 90.1187 7.88446 89.652 7.96142 88.4181C8.06083 86.807 7.31045 85.9247 6.09187 85.912C4.86688 85.9024 4.15819 86.7878 4.15177 88.3829C4.14215 90.8922 4.15177 93.4016 4.15177 95.9077C4.15177 97.3078 3.44949 98.0601 2.04492 98.1645C1.95834 98.1709 1.87496 98.1709 1.78838 98.1837C0.765417 98.3435 0.149716 98.954 0.0887871 99.961C0.0278583 100.974 0.589044 101.655 1.58635 101.895C1.99361 101.991 2.43294 101.984 2.85624 101.984C44.6566 101.988 86.4537 101.984 128.254 102.004C129.441 102.004 130.422 101.78 131.086 100.731V99.4559C130.8 98.2636 129.944 97.7937 128.822 97.8097C127.67 97.8288 127.324 97.2567 127.391 96.2274C127.42 95.8054 127.391 95.3771 127.391 94.9519C127.391 82.2423 127.391 69.5294 127.391 56.8198C127.391 56.0974 127.439 55.3685 127.225 54.6653C126.888 53.5625 126.016 52.9008 124.97 52.9455C123.886 52.9903 123.005 53.7958 122.812 54.9434C122.713 55.5316 122.748 56.1325 122.748 56.7271C122.748 66.6749 122.748 76.6227 122.748 86.5705C122.748 87.0819 122.758 87.5902 122.745 88.1016C122.706 89.4378 122.581 89.5816 121.279 89.604C119.743 89.6328 118.21 89.6264 116.674 89.604C115.279 89.5848 115.145 89.4442 115.116 88.0569C115.093 86.9956 115.113 85.9311 115.109 84.8699C115.103 81.9801 115.154 79.0872 115.087 76.1975C115.042 74.1709 114.167 73.3142 112.172 73.295C109.103 73.263 106.031 73.2503 102.962 73.3014C101.147 73.3334 100.326 74.1805 100.236 75.9769C100.214 76.4021 100.224 76.8272 100.224 77.2524C100.224 80.6951 100.224 84.1378 100.224 87.5838C100.224 89.6072 100.214 89.6104 98.136 89.6136C96.8982 89.6136 95.6636 89.62 94.4257 89.6136C92.7101 89.6008 92.5947 89.5017 92.5915 87.8203C92.585 76.9359 92.5979 66.0547 92.5722 55.1703C92.5722 54.0643 92.848 53.4729 94.0634 53.2844C95.8431 53.0094 96.523 52.1336 96.6512 50.3339C96.7282 49.2311 96.6769 48.1251 96.6833 47.019C96.6961 45.0595 96.7378 45.0084 98.6779 45.0084C105.884 45.0052 113.092 45.0084 120.298 45.0084C121.718 45.0084 122.557 45.6935 122.815 47.0638L122.819 47.0542ZM67.4824 6.62052C67.4696 6.01637 67.6556 5.81498 68.2777 5.82138C71.26 5.85015 74.2455 5.84695 77.231 5.82138C77.8307 5.81498 78.0616 5.97801 78.0487 6.60454C78.0135 8.21882 78.0102 9.8363 78.0487 11.4474C78.0648 12.0771 77.8371 12.2497 77.2374 12.2369C75.7463 12.205 74.2551 12.2273 72.7607 12.2273C71.2664 12.2273 69.7752 12.2018 68.2841 12.2401C67.6876 12.2561 67.4632 12.0931 67.4792 11.4634C67.5209 9.84908 67.5145 8.2348 67.4792 6.62052H67.4824ZM20.2915 83.6775C20.2915 81.9354 20.3268 80.1901 20.2754 78.4511C20.253 77.7031 20.4005 77.393 21.2375 77.4314C22.7703 77.5017 24.3064 77.4793 25.8392 77.4378C26.4741 77.4218 26.7275 77.5529 26.7211 78.2625C26.6858 81.8747 26.6826 85.4868 26.7211 89.099C26.7307 89.8597 26.4613 90.0164 25.7654 89.994C24.2743 89.9461 22.7767 89.9205 21.292 90.0004C20.3813 90.0515 20.253 89.6775 20.2722 88.9008C20.3203 87.1586 20.2883 85.4165 20.2883 83.6743L20.2915 83.6775ZM34.7059 97.9599C34.0934 98.6152 32.6889 98.1453 31.6371 98.1485C24.1396 98.1645 16.6422 98.1357 9.14793 98.1837C8.17628 98.1901 7.88446 97.9407 7.97746 96.9945C8.07687 95.9908 7.65037 94.6418 8.16345 94.0441C8.76632 93.3408 10.1549 93.8331 11.2003 93.8235C14.6091 93.7884 18.0147 93.8107 21.4235 93.8107C25.5987 93.8107 29.7739 93.8331 33.9459 93.7915C34.7348 93.7852 35.0074 93.9802 34.924 94.7729C34.8118 95.8597 35.3633 97.2567 34.7059 97.9599ZM105.287 77.4378C106.865 77.4825 108.443 77.4857 110.017 77.4378C110.703 77.4186 110.87 77.6488 110.867 78.3073C110.838 81.9194 110.835 85.5316 110.867 89.1437C110.873 89.8246 110.658 90.0132 109.995 89.9972C108.417 89.9524 106.839 89.9492 105.265 89.9972C104.559 90.0196 104.415 89.7543 104.424 89.1181C104.46 87.2897 104.437 85.4644 104.437 83.636C104.437 81.8523 104.469 80.0654 104.421 78.2817C104.402 77.5944 104.626 77.4218 105.287 77.4378ZM96.4364 94.0185C97.0008 93.3472 98.4342 93.8299 99.486 93.8203C102.895 93.7915 106.3 93.8107 109.709 93.8107C113.84 93.8107 117.973 93.8299 122.103 93.7948C122.899 93.7884 123.271 93.9386 123.165 94.8177C123.033 95.8981 123.627 97.3462 122.918 97.9759C122.315 98.5097 120.898 98.1581 119.843 98.1581C112.345 98.1645 104.848 98.1453 97.3503 98.1805C96.4813 98.1837 96.1221 98.0079 96.2151 97.0808C96.3177 96.0388 95.9009 94.6514 96.4332 94.0217L96.4364 94.0185ZM89.2243 98.1581C72.857 98.1581 56.4896 98.1453 40.1222 98.1837C39.0062 98.1837 38.6888 97.9471 38.7208 96.8027C38.8106 93.8107 38.7465 93.8075 41.7961 93.8075H65.7091C74.191 93.8075 82.6729 93.8235 91.1548 93.7852C92.1425 93.782 92.444 94.0089 92.4247 95.0286C92.3638 98.1549 92.4119 98.1549 89.2276 98.1549L89.2243 98.1581ZM47.2444 88.7377C47.2444 89.7063 47.0424 90.0324 46.0034 90.01C42.8544 89.946 42.8544 89.9972 42.8544 86.8294V71.4122C42.8544 65.636 42.8768 59.8597 42.8319 54.0835C42.8255 53.1405 43.0532 52.856 44.028 52.8656C47.222 52.8976 47.2252 52.856 47.2252 55.9887C47.2252 66.905 47.2124 77.8214 47.2476 88.7345L47.2444 88.7377ZM51.0477 53.7926C51.0381 53.035 51.3299 52.8688 52.0193 52.8784C54.232 52.9104 56.4447 52.9231 58.6573 52.8752C59.4302 52.8592 59.5777 53.1693 59.5585 53.8438C59.52 55.2854 59.5456 56.7271 59.5456 58.1719C59.5456 59.572 59.4911 60.9753 59.5649 62.3691C59.613 63.2545 59.2763 63.4367 58.4682 63.4175C56.3421 63.3696 54.2128 63.3728 52.0867 63.4175C51.3427 63.4335 51.0316 63.2769 51.0445 62.449C51.0926 59.5657 51.0862 56.6791 51.0477 53.7958V53.7926ZM59.5424 83.6584C59.5424 85.4836 59.5168 87.3121 59.5552 89.1373C59.5681 89.8086 59.3468 90.0068 58.6798 89.994C56.4222 89.9588 54.1647 89.9556 51.9071 89.994C51.2176 90.0068 51.0445 89.767 51.0509 89.1149C51.0765 85.506 51.0797 81.8938 51.0509 78.2849C51.0445 77.588 51.2978 77.4282 51.9392 77.4378C54.1967 77.4698 56.4543 77.4762 58.7119 77.4346C59.4013 77.4218 59.5713 77.6552 59.5585 78.3073C59.52 80.091 59.5456 81.8747 59.5456 83.6584H59.5424ZM59.5552 72.758C59.5713 73.4101 59.3757 73.6498 58.6926 73.637C56.4415 73.6019 54.1871 73.6051 51.9359 73.637C51.2818 73.6466 51.0316 73.4612 51.0509 72.7804C51.0926 71.214 51.0926 69.6445 51.0509 68.0782C51.0316 67.4037 51.2657 67.1927 51.9263 67.2151C53.0711 67.2567 54.2192 67.2279 55.3672 67.2279C56.4735 67.2279 57.5767 67.2598 58.6798 67.2151C59.3308 67.1895 59.5809 67.3653 59.5585 68.0558C59.5104 69.6221 59.52 71.1917 59.5552 72.758ZM67.7935 88.6322C67.7999 89.783 67.4824 90.0356 66.3793 90.0068C63.3841 89.9301 63.3809 89.9812 63.3809 87.0563V71.3834C63.3809 65.6072 63.4066 59.831 63.3553 54.0547C63.3457 53.0798 63.6279 52.8528 64.5706 52.8656C67.7614 52.9008 67.7614 52.8656 67.7614 56.0142C67.7614 66.889 67.7421 77.7638 67.7902 88.6355L67.7935 88.6322ZM80.0818 58.2039C80.0818 59.6456 80.0562 61.0904 80.0947 62.5321C80.1139 63.1874 79.9119 63.4239 79.2288 63.4143C76.9745 63.3792 74.7169 63.3792 72.4625 63.4143C71.7891 63.4239 71.5839 63.197 71.5903 62.5385C71.6191 59.6104 71.6191 56.6855 71.5903 53.7574C71.5839 53.1021 71.7666 52.8656 72.4497 52.8784C74.7041 52.9135 76.9616 52.9104 79.216 52.8784C79.8798 52.8688 80.1139 53.0798 80.0947 53.7511C80.053 55.2343 80.0818 56.7207 80.0818 58.2039ZM72.4401 67.2119C73.5849 67.263 74.7329 67.2247 75.881 67.2247C76.9873 67.2247 78.0904 67.2503 79.1935 67.2151C79.8221 67.1927 80.1171 67.3398 80.0947 68.0494C80.0465 69.6157 80.0562 71.1853 80.0947 72.7516C80.1107 73.4005 79.9247 73.6466 79.2352 73.6339C76.9841 73.5955 74.7297 73.5987 72.4786 73.6339C71.8276 73.6434 71.571 73.4612 71.5871 72.7804C71.6256 71.214 71.6288 69.6445 71.5871 68.0782C71.571 67.4229 71.7538 67.1799 72.4369 67.2087L72.4401 67.2119ZM72.4721 77.4314C74.6848 77.4857 76.9039 77.4698 79.1166 77.4378C79.7804 77.4282 80.1075 77.5337 80.0979 78.3232C80.0562 81.9322 80.0626 85.5443 80.0947 89.1533C80.1011 89.8533 79.8317 90.0004 79.1968 89.9908C76.9392 89.962 74.6816 89.9524 72.424 89.994C71.7025 90.0068 71.5807 89.7159 71.5903 89.0958C71.6191 87.2705 71.5999 85.4421 71.5999 83.6168C71.5999 81.8747 71.6288 80.1325 71.5871 78.3936C71.571 77.7191 71.6897 77.4122 72.4721 77.4314ZM83.8883 54.2242C83.8819 53.051 84.2314 52.8368 85.3089 52.8624C88.288 52.9327 88.2912 52.8848 88.2912 55.8448V71.5177C88.2912 77.2939 88.2751 83.0702 88.3104 88.8464C88.3168 89.7031 88.1469 90.1027 87.2041 89.9908C86.1587 89.8661 84.7862 90.4287 84.1288 89.7766C83.4714 89.1245 83.9332 87.7628 83.9332 86.7143C83.9171 75.8842 83.946 65.0542 83.8915 54.221L83.8883 54.2242ZM92.4215 46.0728C92.3413 49.0585 92.3991 49.0617 89.4552 49.0617H65.5487C57.0251 49.0617 48.5047 49.0425 39.9811 49.084C38.9645 49.0904 38.7048 48.8123 38.7208 47.815C38.7753 44.6951 38.7337 44.6951 41.8122 44.6951C58.218 44.6951 74.6239 44.7079 91.0298 44.6663C92.1746 44.6663 92.4504 44.9604 92.4215 46.0728ZM37.9993 40.7889C38.4931 40.4724 38.7561 40.2902 39.0287 40.1304C47.5715 35.1181 56.1176 30.1155 64.654 25.0872C65.2569 24.7324 65.7091 24.6077 66.3825 25.0041C75.0568 30.1283 83.7504 35.2172 92.4375 40.3158C92.6011 40.4117 92.7582 40.5172 93.1847 40.7857H38.0025L37.9993 40.7889Z" fill="#FEFEFE"/>
<path d="M30.3769 56.6409C29.5623 53 26.3908 50.8423 22.578 51.2131C19.2333 51.5391 16.6038 54.4608 16.4723 58.1209C16.3921 60.3266 16.4402 62.5418 16.4563 64.7506C16.4691 66.5088 17.1618 67.196 18.9543 67.2248C20.4872 67.2504 22.0232 67.2312 23.5593 67.228C25.137 67.228 26.7147 67.2632 28.2893 67.2184C29.8542 67.1705 30.5116 66.4704 30.5404 64.9169C30.5597 63.9387 30.5629 62.9606 30.5404 61.9856C30.5019 60.2051 30.7649 58.3958 30.3737 56.6473L30.3769 56.6409ZM25.6918 63.4113C24.9735 63.3537 24.2487 63.3985 23.3316 63.3985C22.4786 63.2738 21.0901 63.8748 20.4776 63.1651C19.9645 62.5706 20.3108 61.2312 20.2916 60.2211C20.2787 59.5018 20.2595 58.7794 20.3044 58.0602C20.4166 56.2957 21.8501 54.9467 23.5496 54.9659C25.2653 54.9851 26.641 56.3468 26.6891 58.1369C26.7276 59.5754 26.6506 61.0202 26.7211 62.4587C26.7628 63.2962 26.4293 63.472 25.6886 63.4145L25.6918 63.4113Z" fill="#FEFEFE"/>
<path d="M107.625 51.136C103.658 51.1392 100.676 54.1792 100.605 58.3315C100.57 60.4573 100.589 62.5798 100.602 64.7055C100.612 66.55 101.269 67.1989 103.161 67.2213C104.652 67.2372 106.147 67.2245 107.638 67.2245C109.174 67.2245 110.707 67.2468 112.243 67.2181C113.958 67.1861 114.673 66.4892 114.689 64.8206C114.712 62.6533 114.734 60.486 114.686 58.3188C114.593 54.1792 111.569 51.1264 107.628 51.1328L107.625 51.136ZM110.861 62.762C110.87 63.2767 110.639 63.4141 110.171 63.4045C109.321 63.3854 108.471 63.3981 107.622 63.3981V63.4461C106.608 63.3981 105.268 63.7242 104.675 63.2031C103.976 62.5894 104.508 61.2149 104.447 60.1728C104.408 59.4983 104.425 58.8174 104.447 58.1397C104.511 56.3976 105.803 55.055 107.461 54.9783C109.177 54.8984 110.716 56.1866 110.816 57.9384C110.909 59.5431 110.832 61.1573 110.857 62.7684L110.861 62.762Z" fill="#FEFEFE"/>
</g>
<defs>
<clipPath id="clip0_562_1769">
<rect width="131" height="102" fill="white" transform="translate(0.0888672)"/>
</clipPath>
</defs>
</svg>
