<svg width="83" height="83" viewBox="0 0 83 83" fill="none" xmlns="http://www.w3.org/2000/svg">
<circle cx="41.5" cy="41.5" r="41.5" fill="white"/>
<g clip-path="url(#clip0_1500_252)">
<path d="M66.7737 25.9739C66.152 23.4396 64.896 21.2755 62.9914 19.5006C60.6122 17.2827 57.8249 16.0108 54.5362 16.0077C45.5241 15.995 36.5136 15.9998 27.5016 16.0093C26.7281 16.0093 25.9513 16.0536 25.1889 16.2292C22.5756 16.8271 20.342 18.0911 18.5117 20.048C16.2891 22.4256 15.0157 25.2146 15.0094 28.5019C14.9936 37.5126 14.9999 46.5249 15.0094 55.5357C15.0094 56.3266 15.0553 57.1192 15.2356 57.8991C15.6026 59.481 16.2164 60.957 17.1339 62.2969C18.6746 64.5464 20.6931 66.2011 23.2337 67.2246C24.3267 67.6644 25.4578 67.8811 26.6173 68.0014H27.2264C27.2944 67.8685 27.3624 67.889 27.4288 68.0014H54.6216C54.6896 67.889 54.7576 67.8685 54.8241 68.0014H55.2306C55.7685 67.8685 56.3284 67.9333 56.8726 67.8084C58.4339 67.4461 59.8925 66.8481 61.2197 65.9496C63.5008 64.4056 65.1855 62.3775 66.209 59.8037C66.6424 58.7154 66.8844 57.5922 67.0015 56.4342V55.8251C66.8686 55.7571 66.8892 55.6891 67.0015 55.6227V28.4307C66.8892 28.3626 66.8686 28.2946 67.0015 28.2282V27.7204C66.8544 27.1477 66.9176 26.5529 66.7753 25.9739H66.7737ZM62.6544 54.8016C62.6465 58.5382 60.9128 61.2386 57.5766 62.8917C56.4107 63.4691 55.1436 63.6668 53.8417 63.6652C45.3027 63.6605 36.7652 63.6716 28.2261 63.6589C23.9202 63.6526 20.5634 60.9807 19.5826 56.8265C19.426 56.1653 19.3928 55.4898 19.3928 54.8143C19.3928 46.2924 19.3865 37.7704 19.396 29.2501C19.3991 25.3174 21.6027 22.1614 25.2268 20.8563C26.2393 20.4925 27.2928 20.3833 28.3653 20.3849C32.5921 20.3912 36.819 20.3881 41.0458 20.3881V20.4118C45.5605 20.4118 50.0752 20.3628 54.5884 20.426C58.4213 20.4798 62.0328 23.8177 62.5469 27.6207C62.6196 28.1586 62.6576 28.6964 62.6576 29.2359C62.6608 37.7578 62.6718 46.2797 62.6544 54.8001V54.8016Z" fill="#232C61"/>
<path d="M67 28.431V28.2285C66.9367 28.2965 66.9367 28.3646 67 28.431Z" fill="#232C61"/>
<path d="M67 55.8255V55.623C66.9367 55.6911 66.9367 55.7591 67 55.8255Z" fill="#232C61"/>
<path d="M27.228 67.9996H27.4305C27.3625 67.9363 27.296 67.9363 27.228 67.9996Z" fill="#232C61"/>
<path d="M54.6217 67.9996H54.8242C54.7562 67.9363 54.6897 67.9363 54.6217 67.9996Z" fill="#232C61"/>
<path d="M40.8877 29.0434C33.6869 29.181 27.9383 35.0358 28.0427 42.126C28.1487 49.3302 34.0381 55.1248 41.1392 55.0109C48.3479 54.8955 54.1361 48.9996 54.0095 41.8998C53.8814 34.683 47.9857 28.9073 40.8877 29.0434ZM41.0158 50.6733C36.2195 50.6638 32.3407 46.7659 32.3787 41.99C32.4167 37.1967 36.2654 33.3684 41.0364 33.3779C45.8327 33.3874 49.7115 37.2853 49.6735 42.0612C49.6356 46.8545 45.7868 50.6827 41.0158 50.6733Z" fill="#232C61"/>
<path d="M55.12 24.7114C53.3514 24.6813 51.8629 26.1668 51.8644 27.9591C51.8644 29.7435 53.2897 31.1768 55.0741 31.1894C56.8664 31.2021 58.3502 29.7372 58.347 27.9559C58.3439 26.1984 56.8964 24.7414 55.12 24.713V24.7114Z" fill="#232C61"/>
</g>
<defs>
<clipPath id="clip0_1500_252">
<rect width="52" height="52" fill="white" transform="translate(15 16)"/>
</clipPath>
</defs>
</svg>
