<svg width="83" height="83" viewBox="0 0 83 83" fill="none" xmlns="http://www.w3.org/2000/svg">
<circle cx="41.5" cy="41.5" r="41.5" fill="white"/>
<g clip-path="url(#clip0_1500_253)">
<path d="M45.1705 34.5367C47.5474 30.9199 50.8758 29.2536 55.0558 29.1455C57.3545 29.0857 59.6067 29.3584 61.7225 30.3312C64.6982 31.6998 66.2851 34.1742 67.1251 37.2207C67.7405 39.4539 67.9501 41.7454 67.9617 44.0469C67.9983 50.4941 67.98 56.9428 68 63.39C68 63.7974 67.8935 63.9071 67.486 63.9055C64.314 63.8889 61.1403 63.8839 57.9683 63.9088C57.486 63.9121 57.4011 63.7724 57.4028 63.3235C57.4161 57.623 57.4128 51.9208 57.3995 46.2204C57.3961 45.0397 57.3113 43.8623 57.0751 42.6983C56.3632 39.1879 54.1027 38.0504 50.9141 38.4263C47.9367 38.7771 46.3315 40.5332 45.8492 43.7376C45.6728 44.9083 45.6063 46.0857 45.608 47.2697C45.613 52.6193 45.6013 57.9672 45.6229 63.3168C45.6246 63.8439 45.5248 64.0053 44.9593 64.0003C41.8288 63.967 38.6967 63.9753 35.5663 63.9953C35.1255 63.9986 35.0224 63.8755 35.0224 63.4449C35.034 52.4563 35.034 41.4694 35.0224 30.4809C35.0224 30.0385 35.1472 29.9338 35.5763 29.9371C38.6036 29.9554 41.6309 29.9554 44.6582 29.9371C45.0774 29.9338 45.1855 30.0585 45.1772 30.4609C45.1539 31.6216 45.1688 32.7823 45.1688 33.943V34.5367H45.1705Z" fill="#232C61"/>
<path d="M17.8417 46.9531C17.8417 41.5021 17.8517 36.051 17.8267 30.6017C17.8234 30.0429 17.9698 29.9248 18.5087 29.9298C21.6175 29.9581 24.728 29.9515 27.8368 29.9332C28.2825 29.9298 28.4322 30.0146 28.4322 30.5019C28.4173 41.4854 28.4173 52.4707 28.4322 63.4542C28.4322 63.9049 28.2958 63.9947 27.8734 63.9914C24.723 63.9731 21.5726 63.9664 18.4222 63.9964C17.8949 64.0013 17.835 63.8134 17.835 63.3661C17.8483 57.8951 17.8433 52.4241 17.8433 46.9515L17.8417 46.9531Z" fill="#232C61"/>
<path d="M29.2306 19.0997C29.2456 22.4838 26.5077 25.2808 23.1627 25.2991C19.7978 25.3174 17 22.5137 17 19.123C17 15.7856 19.7412 13.0251 23.0795 13.0002C26.4545 12.9752 29.2156 15.714 29.2306 19.0997Z" fill="#232C61"/>
</g>
<defs>
<clipPath id="clip0_1500_253">
<rect width="51" height="51" fill="white" transform="translate(17 13)"/>
</clipPath>
</defs>
</svg>
