<svg width="157" height="136" viewBox="0 0 157 136" fill="none" xmlns="http://www.w3.org/2000/svg">
<g clip-path="url(#clip0_1142_864)">
<path d="M21.0606 117.763C21.0606 119.426 21.094 121.09 21.0481 122.749C21.0064 124.321 20.0306 125.378 18.6794 125.437C17.2615 125.5 16.123 124.434 16.0938 122.783C16.0312 119.347 16.0312 115.911 16.0938 112.475C16.123 110.815 17.2365 109.741 18.6502 109.783C20.0556 109.825 21.0231 110.924 21.0565 112.609C21.0898 114.327 21.0648 116.045 21.0648 117.763H21.0606Z" fill="#404041"/>
<path d="M74.8191 117.579C74.8191 115.915 74.7732 114.251 74.8274 112.592C74.8858 110.887 75.8575 109.816 77.2504 109.787C78.6349 109.758 79.7442 110.828 79.7734 112.496C79.8401 115.932 79.8401 119.368 79.7651 122.804C79.7317 124.413 78.6891 125.412 77.3463 125.441C75.9409 125.471 74.8983 124.409 74.8316 122.737C74.7648 121.023 74.8149 119.301 74.8149 117.583L74.8191 117.579Z" fill="#404041"/>
<path d="M95.8306 104.266C95.768 97.866 92.5068 93.2931 86.5308 91.0819C82.7441 89.6816 78.9449 88.3231 75.1583 86.9228C73.5194 86.3167 71.5468 86.1328 71.1298 83.8714C71.0964 83.6833 70.8795 83.4952 70.7044 83.3698C66.7217 80.6194 65.8752 76.7111 66.3839 72.1842C66.5049 71.1015 66.7843 70.3617 67.5766 69.6385C70.0997 67.3437 72.1473 64.6769 73.7404 61.6422C76.1467 57.0652 77.1726 52.1787 77.1267 47.0457C77.0975 43.9358 77.0641 40.8761 78.4153 37.925C79.2202 36.1694 79.5204 34.1881 79.6039 32.2486C80.0251 22.5217 79.729 12.7907 79.779 3.06391C79.7915 0.948841 78.8115 0.0501442 76.6638 0.0501442C64.3488 0.0376043 52.0339 -0.0794353 39.7189 0.0919441C29.1347 0.238244 20.2602 6.81336 17.2534 16.7534C15.235 23.4288 15.4101 30.3258 17.2367 36.997C18.1876 40.4622 18.7506 43.8313 18.7797 47.4094C18.834 54.4485 20.7481 61.103 25.5815 66.236C28.6801 69.5299 30.0354 72.8237 29.3974 77.1333C29.389 77.1876 29.389 77.2461 29.3974 77.3005C29.5892 78.4416 29.0971 79.2483 28.3256 80.0843C26.9077 81.6226 25.0853 82.864 24.2679 84.8662C23.9718 85.5852 23.6006 85.8736 22.9376 86.1119C18.3585 87.7546 13.7795 89.4057 9.22555 91.107C3.9918 93.0632 0.559626 96.7834 0.226 102.389C-0.182691 109.202 0.0633578 116.061 0.0883797 122.896C0.09255 124.434 1.25607 125.471 2.62393 125.433C3.93341 125.395 4.9051 124.396 5.03855 122.929C5.08025 122.486 5.05523 122.039 5.05523 121.596C5.05523 115.815 5.04272 110.03 5.0594 104.249C5.07191 100.09 6.99026 97.2724 10.8478 95.8345C15.7187 94.0204 20.6189 92.2899 25.4856 90.4674C26.3739 90.1372 26.816 90.2668 27.3331 91.0861C29.1138 93.895 30.9863 96.6496 32.8337 99.4168C35.386 103.233 38.7389 103.593 41.9459 100.37C43.0135 99.2997 44.0018 98.1502 45.0277 97.0384C45.4031 102.786 45.4031 108.232 45.4031 113.675C45.4031 116.622 45.3655 119.568 45.4197 122.515C45.4531 124.329 46.479 125.441 47.9428 125.437C49.4024 125.437 50.3491 124.309 50.3949 122.494C50.4158 121.663 50.3949 120.827 50.3949 119.991C50.3949 112.442 50.3949 104.893 50.3949 97.3435C50.5326 97.2474 50.6743 97.1554 50.8161 97.0592C51.8712 98.192 52.8888 99.3624 53.9856 100.453C57.0674 103.522 60.4996 103.191 62.9101 99.6007C64.8284 96.7458 66.7301 93.8783 68.6067 90.9983C69.0154 90.3713 69.349 90.087 70.1831 90.4005C75.2542 92.3108 80.3545 94.1374 85.434 96.0226C87.9278 96.9464 89.5793 98.7312 90.4133 101.252C90.8012 102.422 90.847 103.647 90.8429 104.876C90.8387 110.824 90.822 116.776 90.8595 122.724C90.8679 124.329 91.8521 125.37 93.2074 125.429C94.5544 125.487 95.597 124.497 95.8055 122.938C95.8431 122.666 95.8347 122.382 95.8347 122.106C95.8347 116.158 95.8806 110.205 95.8222 104.257L95.8306 104.266ZM26.1237 58.0015C24.4264 54.3064 23.659 50.4106 23.7341 46.3602C23.7966 43.0204 23.5089 39.8269 22.337 36.5916C20.3853 31.2036 20.4771 25.4854 21.5864 19.9636C23.3713 11.0644 30.9321 5.17481 40.1193 5.06195C45.499 4.99507 50.8787 5.04941 56.2584 5.04941C61.9717 5.04941 67.6851 5.05777 73.3984 5.04105C74.2366 5.04105 74.8539 4.98253 74.8372 6.20308C74.7121 14.4836 74.9748 22.7684 74.6787 31.0489C74.5911 33.5151 74.049 35.8935 73.0564 38.1424C72.3642 39.7057 72.114 41.2899 72.1265 42.987C72.1515 46.6486 72.3058 50.3186 71.38 53.926C68.8778 63.6821 60.3203 71.1141 50.9538 72.1424C39.7314 73.3755 30.269 67.0344 26.1195 58.0056L26.1237 58.0015ZM38.4011 96.9088C37.8089 97.5107 37.5128 97.4773 37.0541 96.775C34.848 93.3934 32.6544 90.0076 30.3399 86.7054C29.5183 85.535 30.515 85.209 30.9487 84.5486C31.7953 83.2486 32.6002 83.2653 33.8555 84.1849C37.15 86.6009 40.5697 88.8414 44.1019 91.27C42.0918 93.2513 40.2194 95.0529 38.4011 96.913V96.9088ZM48.7393 87.3073C48.1471 87.717 47.7468 87.7379 47.1421 87.3157C43.197 84.5611 39.2268 81.8399 35.24 79.1397C34.6228 78.7217 34.335 78.2828 34.3809 77.522C34.4476 76.4185 34.3976 75.3066 34.3976 73.9189C43.4805 78.4332 52.3717 78.3287 61.4379 74.0401C61.4379 75.4153 61.4088 76.6191 61.4505 77.8188C61.4713 78.475 61.1293 78.7969 60.6414 79.1313C56.6629 81.8399 52.6886 84.5569 48.7393 87.3073ZM65.1787 87.1569C63.1311 90.3086 61.0084 93.4101 58.9691 96.566C58.4061 97.4396 58.0725 97.5609 57.2968 96.7458C55.5453 94.9066 53.677 93.176 51.742 91.2909C55.5995 88.6408 59.2777 86.1161 62.9559 83.5955C63.1728 83.4492 63.4397 83.1441 63.6732 83.3614C64.4406 84.072 65.2579 84.7659 65.846 85.6103C66.263 86.208 65.479 86.6845 65.1745 87.1527L65.1787 87.1569Z" fill="#404041"/>
<path d="M26.741 31.5717C26.741 30.6813 26.7035 29.791 26.7494 28.9048C26.8828 26.284 28.5843 24.1731 31.1491 23.8011C39.5814 22.5805 48.0305 22.2586 56.417 24.1229C60.6124 25.0551 64.5241 26.7103 67.7603 29.6739C69.1907 30.9823 69.4659 32.4327 68.4984 33.5864C67.5267 34.7484 65.9879 34.7568 64.5533 33.4777C61.142 30.4472 57.0175 29.1347 52.6429 28.4868C46.0788 27.5087 39.5105 27.7177 32.9423 28.5913C31.9164 28.7293 31.662 29.0804 31.7079 30.0376C31.7788 31.534 31.7496 33.0346 31.712 34.5353C31.6745 36.0066 30.953 36.9513 29.435 37.0934C28.013 37.2272 26.9871 36.2909 26.7619 34.7317C26.7452 34.623 26.741 34.5102 26.741 34.4015C26.741 33.4568 26.741 32.5121 26.741 31.5675V31.5717Z" fill="#404041"/>
<path d="M155.119 113.946C152.325 108.546 146.453 105.44 140.51 106.042C134.313 106.669 129.18 110.974 127.553 117.031C127.253 118.151 126.89 118.653 125.631 118.536C124.033 118.39 122.403 118.423 120.797 118.528C119.684 118.603 119.442 118.248 119.446 117.161C119.492 107.463 119.471 97.7698 119.471 88.0723C119.471 83.5872 119.504 79.1062 119.446 74.6253C119.434 73.6346 119.709 73.388 120.655 73.4381C122.211 73.5218 123.783 73.5719 125.33 73.4256C126.702 73.3002 127.228 73.7224 127.603 75.0976C129.801 83.0897 138.046 87.6208 146.074 85.3595C153.918 83.1524 158.534 74.8719 156.341 66.9508C154.531 60.4259 148.659 55.9366 141.937 55.9449C135.193 55.9533 129.305 60.3924 127.57 66.955C127.228 68.2508 126.715 68.5559 125.501 68.4807C123.846 68.3762 122.173 68.4222 120.509 68.4681C119.738 68.489 119.446 68.3302 119.446 67.4608C119.475 53.1234 119.471 38.7903 119.45 24.4529C119.45 23.6754 119.596 23.3536 120.459 23.3912C122.119 23.4622 123.796 23.5124 125.447 23.3828C126.773 23.2783 127.236 23.7507 127.587 25.0214C129.788 33.0261 138 37.5655 146.04 35.3209C153.893 33.1264 158.526 24.8625 156.345 16.9373C154.543 10.3998 148.684 5.89795 141.97 5.89795C135.222 5.89795 129.326 10.3287 127.57 16.8746C127.24 18.1119 126.802 18.5006 125.531 18.4421C123.041 18.325 120.539 18.4086 118.045 18.4086C115.088 18.4086 114.475 19.0147 114.471 21.924C114.471 36.9887 114.458 52.0533 114.496 67.118C114.496 68.2132 114.241 68.5141 113.141 68.4765C110.438 68.3887 107.732 68.4389 105.029 68.4514C103.094 68.4598 101.952 69.4421 101.997 71.0179C102.039 72.5311 103.144 73.4381 105.013 73.4507C107.715 73.4632 110.421 73.5092 113.124 73.4256C114.196 73.3922 114.508 73.643 114.5 74.7674C114.446 82.4293 114.471 90.0912 114.471 97.7573C114.471 105.369 114.471 112.981 114.471 120.588C114.471 122.657 115.317 123.489 117.403 123.493C120.055 123.502 122.716 123.611 125.355 123.452C126.79 123.364 127.203 123.878 127.603 125.165C129.438 131.126 133.487 134.788 139.635 135.766C145.598 136.715 150.544 134.6 154.047 129.701C157.588 124.747 157.909 119.368 155.102 113.938L155.119 113.946ZM142.062 60.9567C147.575 61.0152 151.983 65.5547 151.929 71.1183C151.874 76.5481 147.354 80.9914 141.903 80.9663C136.382 80.9454 131.932 76.4268 131.961 70.88C131.99 65.3582 136.532 60.8982 142.062 60.9567ZM141.866 10.9098C147.408 10.8889 151.899 15.3405 151.929 20.879C151.954 26.4008 147.454 30.9319 141.945 30.9235C136.478 30.9193 132.011 26.4886 131.965 21.0337C131.919 15.4827 136.369 10.9348 141.866 10.9098ZM141.799 131.009C136.357 130.942 131.953 126.449 131.965 120.973C131.978 115.443 136.494 110.962 142.016 110.999C147.533 111.037 151.966 115.556 151.933 121.115C151.899 126.616 147.329 131.08 141.803 131.013L141.799 131.009Z" fill="#232C61"/>
</g>
<defs>
<clipPath id="clip0_1142_864">
<rect width="157" height="136" fill="white"/>
</clipPath>
</defs>
</svg>
