<svg width="202" height="177" viewBox="0 0 202 177" fill="none" xmlns="http://www.w3.org/2000/svg">
<g clip-path="url(#clip0_159_997)">
<g opacity="0.5">
<path opacity="0.5" d="M7.84988 3.92718C7.8445 4.6974 7.60982 5.44869 7.17528 6.0865C6.74074 6.72432 6.12584 7.22012 5.40818 7.51117C4.69053 7.80222 3.90223 7.87565 3.14266 7.72211C2.3831 7.56858 1.68619 7.19476 1.14 6.64824C0.593801 6.10172 0.222698 5.40674 0.0734477 4.65092C-0.0758023 3.8951 0.00350758 3.11244 0.301364 2.40134C0.59922 1.69024 1.10236 1.08268 1.74722 0.655302C2.39207 0.227925 3.14978 1.85738e-05 3.9249 1.13746e-09C4.44264 -1.24043e-05 4.95532 0.101521 5.4333 0.299217C5.91129 0.496913 6.34514 0.786859 6.70997 1.1519C7.07479 1.51695 7.36328 1.94981 7.55891 2.42614C7.75455 2.90247 7.85348 3.41272 7.84988 3.92718Z" fill="#9B9B9B"/>
<path opacity="0.5" d="M56.3937 3.92728C56.3937 4.70517 56.1613 5.46564 55.7258 6.11206C55.2903 6.75847 54.6713 7.26178 53.9476 7.55822C53.2238 7.85465 52.4278 7.93084 51.6604 7.77709C50.893 7.62335 50.1889 7.24658 49.6373 6.69462C49.0856 6.14266 48.7113 5.44041 48.5619 4.67681C48.4125 3.91321 48.4947 3.12254 48.798 2.4054C49.1013 1.68827 49.6121 1.07672 50.2656 0.648452C50.9191 0.220188 51.6859 -0.00527126 52.4688 9.35611e-05C53.5122 0.00724468 54.5105 0.42386 55.2458 1.1596C55.9812 1.89534 56.3938 2.89036 56.3937 3.92728Z" fill="#9B9B9B"/>
<path opacity="0.5" d="M104.911 3.92718C104.906 4.6974 104.671 5.44869 104.237 6.0865C103.802 6.72432 103.187 7.22012 102.47 7.51117C101.752 7.80222 100.964 7.87565 100.204 7.72211C99.4445 7.56858 98.7478 7.19476 98.2016 6.64824C97.6554 6.10172 97.2843 5.40674 97.135 4.65092C96.9858 3.8951 97.0649 3.11244 97.3628 2.40134C97.6606 1.69024 98.1638 1.08268 98.8086 0.655302C99.4535 0.227925 100.211 1.85738e-05 100.986 1.13746e-09C101.504 -1.24043e-05 102.017 0.101521 102.495 0.299217C102.973 0.496913 103.407 0.786859 103.771 1.1519C104.136 1.51695 104.425 1.94981 104.62 2.42614C104.816 2.90247 104.915 3.41272 104.911 3.92718Z" fill="#9B9B9B"/>
<path opacity="0.5" d="M153.455 3.92718C153.455 4.70393 153.224 5.46314 152.789 6.10899C152.355 6.75483 151.738 7.25823 151.016 7.55548C150.293 7.85273 149.499 7.93052 148.732 7.77898C147.965 7.62745 147.261 7.25336 146.708 6.70411C146.156 6.15487 145.779 5.45507 145.627 4.69324C145.474 3.93142 145.553 3.14178 145.852 2.42415C146.151 1.70653 146.657 1.09312 147.307 0.661584C147.957 0.230045 148.721 0 149.503 0C150.551 0 151.556 0.413735 152.298 1.15025C153.039 1.88676 153.455 2.88559 153.455 3.92718Z" fill="#9B9B9B"/>
<path opacity="0.5" d="M198.048 7.80046C200.216 7.80046 201.973 6.05427 201.973 3.90023C201.973 1.74619 200.216 0 198.048 0C195.88 0 194.123 1.74619 194.123 3.90023C194.123 6.05427 195.88 7.80046 198.048 7.80046Z" fill="#9B9B9B"/>
<path opacity="0.5" d="M7.84988 46.2067C7.84988 46.9781 7.61971 47.7322 7.18843 48.3736C6.75714 49.015 6.14418 49.515 5.42698 49.8102C4.70979 50.1054 3.9205 50.1825 3.15913 50.0321C2.39776 49.8816 1.6984 49.5099 1.14948 48.9645C0.60056 48.419 0.22689 47.7241 0.0754438 46.9675C-0.0760023 46.2109 0.00162971 45.4269 0.298702 44.7143C0.595774 44.0016 1.09893 43.3925 1.74439 42.9639C2.38985 42.5354 3.14861 42.3066 3.9249 42.3066C4.96587 42.3066 5.96424 42.7175 6.70032 43.449C7.4364 44.1804 7.84988 45.1723 7.84988 46.2067Z" fill="#9B9B9B"/>
<path opacity="0.5" d="M56.3945 46.2068C56.3999 46.9858 56.1721 47.7489 55.7399 48.3989C55.3077 49.0488 54.6908 49.5563 53.9675 49.8569C53.2442 50.1575 52.4472 50.2377 51.678 50.087C50.9088 49.9364 50.2021 49.5617 49.6477 49.0108C49.0934 48.46 48.7165 47.7577 48.5649 46.9934C48.4132 46.229 48.4938 45.437 48.7963 44.7183C49.0988 43.9996 49.6095 43.3865 50.2636 42.9571C50.9177 42.5276 51.6856 42.3014 52.4696 42.3067C53.5083 42.3138 54.5026 42.7267 55.2372 43.4567C55.9717 44.1866 56.3874 45.1746 56.3945 46.2068Z" fill="#9B9B9B"/>
<path opacity="0.5" d="M104.911 46.2067C104.911 46.9781 104.681 47.7322 104.25 48.3736C103.819 49.015 103.206 49.515 102.489 49.8102C101.771 50.1054 100.982 50.1825 100.221 50.0321C99.4595 49.8816 98.7601 49.5099 98.2112 48.9645C97.6623 48.419 97.2884 47.7241 97.137 46.9675C96.9855 46.2109 97.0632 45.4269 97.3602 44.7143C97.6573 44.0016 98.1605 43.3925 98.8059 42.9639C99.4514 42.5354 100.21 42.3066 100.986 42.3066C102.027 42.3066 103.026 42.7175 103.762 43.449C104.498 44.1804 104.911 45.1723 104.911 46.2067Z" fill="#9B9B9B"/>
<path opacity="0.5" d="M153.455 46.2067C153.46 46.9846 153.233 47.7467 152.802 48.3961C152.371 49.0455 151.756 49.5531 151.034 49.8545C150.313 50.1559 149.517 50.2374 148.749 50.0889C147.98 49.9405 147.274 49.5685 146.718 49.0203C146.163 48.4722 145.783 47.7727 145.629 47.0101C145.474 46.2476 145.551 45.4563 145.849 44.7371C146.147 44.0179 146.654 43.403 147.304 42.9702C147.955 42.5375 148.72 42.3067 149.503 42.3066C150.546 42.3066 151.548 42.7166 152.288 43.4473C153.028 44.178 153.448 45.1698 153.455 46.2067Z" fill="#9B9B9B"/>
<path opacity="0.5" d="M198.048 50.1071C200.216 50.1071 201.973 48.3609 201.973 46.2069C201.973 44.0528 200.216 42.3066 198.048 42.3066C195.88 42.3066 194.123 44.0528 194.123 46.2069C194.123 48.3609 195.88 50.1071 198.048 50.1071Z" fill="#9B9B9B"/>
<path opacity="0.5" d="M7.84988 88.5137C7.8445 89.2839 7.60982 90.0352 7.17528 90.673C6.74074 91.3109 6.12584 91.8067 5.40818 92.0977C4.69053 92.3888 3.90223 92.4622 3.14266 92.3086C2.3831 92.1551 1.68619 91.7816 1.14 91.2351C0.593801 90.6886 0.222698 89.9936 0.0734477 89.2378C-0.0758023 88.482 0.00350758 87.699 0.301364 86.9879C0.59922 86.2768 1.10236 85.6692 1.74722 85.2418C2.39207 84.8144 3.14978 84.5865 3.9249 84.5865C4.44366 84.5829 4.95798 84.6821 5.43763 84.8785C5.91728 85.0749 6.35256 85.3644 6.71812 85.7302C7.08368 86.0959 7.37207 86.5307 7.5664 87.0087C7.76073 87.4867 7.85715 87.9983 7.84988 88.5137Z" fill="#9B9B9B"/>
<path opacity="0.5" d="M56.3937 88.5137C56.3937 89.2916 56.1613 90.0521 55.7258 90.6985C55.2903 91.3449 54.6713 91.8482 53.9476 92.1447C53.2238 92.4411 52.4278 92.5173 51.6604 92.3635C50.893 92.2098 50.1889 91.833 49.6373 91.2811C49.0856 90.7291 48.7113 90.0268 48.5619 89.2632C48.4125 88.4996 48.4947 87.709 48.798 86.9918C49.1013 86.2747 49.6121 85.6635 50.2656 85.2352C50.9191 84.8069 51.6859 84.5812 52.4688 84.5865C52.9865 84.5865 53.4992 84.688 53.9772 84.8857C54.4552 85.0834 54.889 85.3734 55.2538 85.7384C55.6187 86.1035 55.9071 86.5367 56.1028 87.013C56.2984 87.4893 56.3973 87.9992 56.3937 88.5137Z" fill="#9B9B9B"/>
<path opacity="0.5" d="M104.911 88.5137C104.906 89.2839 104.671 90.0352 104.237 90.673C103.802 91.3109 103.187 91.8067 102.47 92.0977C101.752 92.3888 100.964 92.4622 100.204 92.3086C99.4445 92.1551 98.7478 91.7816 98.2016 91.2351C97.6554 90.6886 97.2843 89.9936 97.135 89.2378C96.9858 88.482 97.0649 87.699 97.3628 86.9879C97.6606 86.2768 98.1638 85.6692 98.8086 85.2418C99.4535 84.8144 100.211 84.5865 100.986 84.5865C101.505 84.5829 102.019 84.6821 102.499 84.8785C102.979 85.0749 103.414 85.3644 103.78 85.7302C104.145 86.0959 104.434 86.5307 104.628 87.0087C104.822 87.4867 104.919 87.9983 104.911 88.5137Z" fill="#9B9B9B"/>
<path opacity="0.5" d="M153.455 88.5137C153.455 89.2905 153.224 90.0497 152.789 90.6955C152.355 91.3414 151.738 91.8448 151.016 92.142C150.293 92.4393 149.499 92.517 148.732 92.3655C147.965 92.214 147.261 91.8399 146.708 91.2906C146.156 90.7414 145.779 90.0416 145.627 89.2798C145.474 88.5179 145.553 87.7283 145.852 87.0107C146.151 86.2931 146.657 85.68 147.307 85.2484C147.957 84.8169 148.721 84.5865 149.503 84.5865C150.023 84.5829 150.539 84.682 151.02 84.8781C151.501 85.0742 151.938 85.3634 152.306 85.7288C152.674 86.0942 152.964 86.5286 153.162 87.0067C153.359 87.4848 153.459 87.997 153.455 88.5137Z" fill="#9B9B9B"/>
<path opacity="0.5" d="M201.973 88.5134C201.891 89.4952 201.44 90.4103 200.71 91.0774C199.981 91.7445 199.026 92.115 198.034 92.115C197.043 92.115 196.088 91.7445 195.358 91.0774C194.628 90.4103 194.178 89.4952 194.096 88.5134C194.05 87.9721 194.118 87.4274 194.296 86.9135C194.473 86.3997 194.756 85.9279 195.126 85.5282C195.496 85.1285 195.946 84.8095 196.446 84.5912C196.947 84.373 197.488 84.2603 198.034 84.2603C198.581 84.2603 199.122 84.373 199.622 84.5912C200.123 84.8095 200.572 85.1285 200.942 85.5282C201.313 85.9279 201.595 86.3997 201.773 86.9135C201.95 87.4274 202.018 87.9721 201.973 88.5134Z" fill="#9B9B9B"/>
<path opacity="0.5" d="M7.84988 130.793C7.84988 131.565 7.61971 132.319 7.18843 132.96C6.75714 133.601 6.14418 134.101 5.42698 134.397C4.70979 134.692 3.9205 134.769 3.15913 134.619C2.39776 134.468 1.6984 134.097 1.14948 133.551C0.60056 133.006 0.22689 132.311 0.0754438 131.554C-0.0760023 130.798 0.00162971 130.013 0.298702 129.301C0.595774 128.588 1.09893 127.979 1.74439 127.55C2.38985 127.122 3.14861 126.893 3.9249 126.893C4.96587 126.893 5.96424 127.304 6.70032 128.035C7.4364 128.767 7.84988 129.759 7.84988 130.793Z" fill="#9B9B9B"/>
<path opacity="0.5" d="M56.3945 130.793C56.3999 131.572 56.1721 132.335 55.7399 132.985C55.3077 133.635 54.6908 134.143 53.9675 134.443C53.2442 134.744 52.4472 134.824 51.678 134.673C50.9088 134.523 50.2021 134.148 49.6477 133.597C49.0934 133.046 48.7165 132.344 48.5649 131.58C48.4132 130.815 48.4938 130.024 48.7963 129.305C49.0988 128.586 49.6095 127.973 50.2636 127.544C50.9177 127.114 51.6856 126.888 52.4696 126.893C53.5083 126.9 54.5026 127.314 55.2372 128.043C55.9717 128.773 56.3874 129.761 56.3945 130.793Z" fill="#9B9B9B"/>
<path opacity="0.5" d="M104.911 130.793C104.911 131.565 104.681 132.319 104.25 132.96C103.819 133.601 103.206 134.101 102.489 134.397C101.771 134.692 100.982 134.769 100.221 134.619C99.4595 134.468 98.7601 134.097 98.2112 133.551C97.6623 133.006 97.2884 132.311 97.137 131.554C96.9855 130.798 97.0632 130.013 97.3602 129.301C97.6573 128.588 98.1605 127.979 98.8059 127.55C99.4514 127.122 100.21 126.893 100.986 126.893C102.027 126.893 103.026 127.304 103.762 128.035C104.498 128.767 104.911 129.759 104.911 130.793Z" fill="#9B9B9B"/>
<path opacity="0.5" d="M153.455 130.793C153.46 131.571 153.233 132.333 152.802 132.983C152.371 133.632 151.756 134.14 151.034 134.441C150.313 134.742 149.517 134.824 148.749 134.675C147.98 134.527 147.274 134.155 146.718 133.607C146.163 133.059 145.783 132.359 145.629 131.597C145.474 130.834 145.551 130.043 145.849 129.324C146.147 128.605 146.654 127.989 147.304 127.557C147.955 127.124 148.72 126.893 149.503 126.893C150.546 126.893 151.548 127.303 152.288 128.034C153.028 128.764 153.448 129.756 153.455 130.793Z" fill="#9B9B9B"/>
<path opacity="0.5" d="M201.973 130.793C201.978 131.572 201.75 132.335 201.318 132.985C200.886 133.635 200.269 134.143 199.546 134.443C198.822 134.744 198.025 134.824 197.256 134.673C196.487 134.523 195.78 134.148 195.226 133.597C194.672 133.046 194.295 132.344 194.143 131.58C193.991 130.815 194.072 130.024 194.374 129.305C194.677 128.586 195.188 127.973 195.842 127.544C196.496 127.114 197.264 126.888 198.048 126.893C198.563 126.893 199.074 126.994 199.55 127.19C200.026 127.386 200.459 127.673 200.823 128.035C201.188 128.398 201.477 128.828 201.674 129.301C201.871 129.774 201.973 130.281 201.973 130.793Z" fill="#9B9B9B"/>
<path opacity="0.5" d="M7.84988 173.1C7.8445 173.87 7.60982 174.621 7.17528 175.259C6.74074 175.897 6.12584 176.393 5.40818 176.684C4.69053 176.975 3.90223 177.048 3.14266 176.895C2.3831 176.741 1.68619 176.368 1.14 175.821C0.593801 175.274 0.222698 174.58 0.0734477 173.824C-0.0758023 173.068 0.00350758 172.285 0.301364 171.574C0.59922 170.863 1.10236 170.255 1.74722 169.828C2.39207 169.4 3.14978 169.172 3.9249 169.172C4.44366 169.169 4.95798 169.268 5.43763 169.464C5.91728 169.661 6.35256 169.95 6.71812 170.316C7.08368 170.682 7.37207 171.117 7.5664 171.595C7.76073 172.073 7.85715 172.584 7.84988 173.1Z" fill="#9B9B9B"/>
<path opacity="0.5" d="M56.3937 173.1C56.3937 173.878 56.1613 174.638 55.7258 175.284C55.2903 175.931 54.6713 176.434 53.9476 176.731C53.2238 177.027 52.4278 177.103 51.6604 176.949C50.893 176.796 50.1889 176.419 49.6373 175.867C49.0856 175.315 48.7113 174.613 48.5619 173.849C48.4125 173.086 48.4947 172.295 48.798 171.578C49.1013 170.861 49.6121 170.249 50.2656 169.821C50.9191 169.393 51.6859 169.167 52.4688 169.172C52.9865 169.172 53.4992 169.274 53.9772 169.472C54.4552 169.67 54.889 169.959 55.2538 170.324C55.6187 170.689 55.9071 171.123 56.1028 171.599C56.2984 172.075 56.3973 172.585 56.3937 173.1Z" fill="#9B9B9B"/>
<path opacity="0.5" d="M104.911 173.1C104.906 173.87 104.671 174.621 104.237 175.259C103.802 175.897 103.187 176.393 102.47 176.684C101.752 176.975 100.964 177.048 100.204 176.895C99.4445 176.741 98.7478 176.368 98.2016 175.821C97.6554 175.274 97.2843 174.58 97.135 173.824C96.9858 173.068 97.0649 172.285 97.3628 171.574C97.6606 170.863 98.1638 170.255 98.8086 169.828C99.4535 169.4 100.211 169.172 100.986 169.172C101.505 169.169 102.019 169.268 102.499 169.464C102.979 169.661 103.414 169.95 103.78 170.316C104.145 170.682 104.434 171.117 104.628 171.595C104.822 172.073 104.919 172.584 104.911 173.1Z" fill="#9B9B9B"/>
<path opacity="0.5" d="M153.455 173.1C153.455 173.876 153.224 174.636 152.789 175.282C152.355 175.928 151.738 176.431 151.016 176.728C150.293 177.025 149.499 177.103 148.732 176.951C147.965 176.8 147.261 176.426 146.708 175.877C146.156 175.328 145.779 174.628 145.627 173.866C145.474 173.104 145.553 172.315 145.852 171.597C146.151 170.879 146.657 170.266 147.307 169.834C147.957 169.403 148.721 169.172 149.503 169.172C150.023 169.169 150.539 169.268 151.02 169.464C151.501 169.66 151.938 169.949 152.306 170.315C152.674 170.68 152.964 171.115 153.162 171.593C153.359 172.071 153.459 172.583 153.455 173.1Z" fill="#9B9B9B"/>
<path opacity="0.5" d="M198.048 177C200.216 177 201.973 175.254 201.973 173.1C201.973 170.946 200.216 169.2 198.048 169.2C195.88 169.2 194.123 170.946 194.123 173.1C194.123 175.254 195.88 177 198.048 177Z" fill="#9B9B9B"/>
</g>
</g>
<defs>
<clipPath id="clip0_159_997">
<rect width="202" height="177" fill="white"/>
</clipPath>
</defs>
</svg>
