<svg width="120" height="97" viewBox="0 0 120 97" fill="none" xmlns="http://www.w3.org/2000/svg">
<g clip-path="url(#clip0_562_1756)">
<path d="M119.586 43.0527C118.179 36.3529 114.323 31.4756 108.083 28.4904C107.367 28.1475 106.961 27.7609 106.826 26.9005C106.183 22.8196 104.738 19.0148 102.6 15.4629C92.4837 -1.34899 69.895 -5.13924 54.8447 7.49588C53.9079 8.28357 53.4293 8.26904 52.4983 7.49297C45.1333 1.34836 36.6522 -1.03217 27.1199 0.421143C14.6803 2.31917 4.19059 11.8936 1.12473 23.9881C0.701857 25.6507 0.690111 27.3947 0 28.9904V30.3827C0.317157 30.5367 0.270171 30.6908 0 30.8477V33.6323C0.267234 33.7863 0.328904 33.9404 0 34.0973V35.2571C0.343587 36.6668 0.355334 38.1375 0.901549 39.5153C1.38609 40.7303 1.75024 41.9946 2.29058 43.1893C2.54313 43.7473 2.4286 44.0554 1.81191 44.1891C0.745907 44.4217 0.155642 45.0989 0 46.1598V47.3196C0.660744 48.5811 1.68857 49.1449 3.1334 48.9967C3.63556 48.9444 4.15535 49.0374 4.65458 48.9764C5.37699 48.8892 5.76756 49.1944 6.13171 49.796C8.64841 53.9467 11.5733 57.8067 14.7302 61.4952C25.8072 74.4442 38.5258 85.6784 51.8963 96.2236C53.2296 97.2758 54.1399 97.2467 55.4761 96.2091C62.48 90.762 69.2049 84.9895 75.7242 78.9815C76.0062 78.7199 76.2793 78.4292 76.4819 78.1066C77.0399 77.2201 76.8813 76.0778 76.1471 75.3453C75.4042 74.607 74.2589 74.4442 73.3573 74.9936C72.9638 75.2348 72.6055 75.5458 72.2649 75.8598C66.5443 81.1266 60.624 86.1638 54.554 91.0324C53.9138 91.5468 53.5056 91.6689 52.8243 91.0731C51.1269 89.5907 49.3268 88.2246 47.6 86.7771C35.8329 76.9265 24.5797 66.5615 15.0797 54.4728C13.7288 52.7521 12.5072 50.9325 11.1005 48.9851H12.4866C18.774 48.9851 25.0642 48.9851 31.3516 48.9851C33.4307 48.9851 34.0004 48.5636 34.5848 46.558C35.7272 42.6312 36.846 38.7014 38.006 34.7804C38.1264 34.3735 38.0589 33.8416 38.5757 33.5712C41.5065 42.8666 44.4285 52.1359 47.3504 61.4051C48.1374 63.9077 48.9127 66.4132 49.7144 68.91C50.0609 69.9913 50.754 70.7179 51.9815 70.7557C53.115 70.7906 53.9197 70.157 54.3602 68.9013C54.4365 68.6833 54.507 68.4624 54.5746 68.2415C56.454 62.2829 58.354 56.3301 60.1865 50.357C60.4596 49.4618 60.8179 49.1711 61.7752 49.1915C64.8205 49.2641 67.8687 49.2583 70.914 49.1973C72.8933 49.1566 73.9505 47.2818 72.9667 45.7064C72.3765 44.7617 71.4368 44.5844 70.4295 44.5815C66.7587 44.5757 63.0849 44.5728 59.4141 44.5815C57.6522 44.5874 56.9679 45.0902 56.4364 46.7644C55.1149 50.918 53.814 55.0774 52.4895 59.228C52.3721 59.5943 52.3721 60.039 51.9492 60.3529C51.8758 60.1262 51.8259 59.9838 51.7818 59.8413C48.1227 48.2555 44.4666 36.6726 40.8017 25.0897C40.6754 24.6886 40.5433 24.27 40.326 23.9154C39.4185 22.4243 37.2278 22.4476 36.3674 23.9677C36.1236 24.3979 35.9944 24.8979 35.8564 25.3745C34.112 31.3738 32.3794 37.3789 30.6321 43.3782C30.4912 43.8607 30.4794 44.3781 29.6483 44.3723C22.7737 44.3316 15.899 44.349 9.0243 44.3461C8.68659 44.3461 8.36943 44.3984 8.15212 43.9711C6.211 40.1489 4.58703 36.2192 4.72212 31.8476C4.97467 23.6829 8.16974 16.8262 14.2926 11.321C22.9146 3.56611 36.4555 2.42672 46.2433 8.63527C47.9906 9.7427 49.6087 11.0071 51.0858 12.4517C53.2677 14.588 54.0665 14.5851 56.2279 12.4953C56.4804 12.2511 56.7271 12.0041 56.9826 11.7657C59.9721 9.01895 63.3904 6.94943 67.302 5.82166C78.7226 2.53426 89.873 6.22277 97.056 15.6054C99.558 18.8753 101.194 22.5435 102.031 26.6796C101.047 26.6128 100.157 26.4965 99.2673 26.5023C86.4312 26.5604 76.7168 38.2713 79.1425 50.7407C81.2393 61.5243 91.3442 68.599 102.459 67.0672C113.93 65.486 121.947 54.2926 119.589 43.0527H119.586ZM99.3025 62.6695C90.5044 62.6172 83.4006 55.5279 83.4447 46.8458C83.4887 38.1841 90.7657 31.0425 99.4582 31.1326C108.256 31.2256 115.36 38.3352 115.316 46.9969C115.272 55.6849 108.083 62.7189 99.3025 62.6695Z" fill="white"/>
<path d="M0 30.3828V30.8479C0.146832 30.6938 0.146832 30.5398 0 30.3828Z" fill="white"/>
<path d="M0 33.6328V34.0979C0.146832 33.9438 0.146832 33.7898 0 33.6328Z" fill="white"/>
<path d="M81.0954 68.2656C79.8414 68.2656 78.7167 69.4021 78.7226 70.6578C78.7314 71.9105 79.7827 72.9511 81.0308 72.9424C82.2906 72.9336 83.4388 71.8001 83.4271 70.5706C83.4153 69.3643 82.3023 68.2656 81.0954 68.2656Z" fill="white"/>
<path d="M107.631 44.5909C105.916 44.5415 104.198 44.5531 102.483 44.5909C101.86 44.6054 101.696 44.4107 101.711 43.8119C101.749 42.1522 101.74 40.4925 101.719 38.8329C101.702 37.1441 100.777 36.1239 99.329 36.1529C97.937 36.1791 97.0619 37.1819 97.0413 38.8183C97.0208 40.3617 96.9885 41.9081 97.056 43.4515C97.0942 44.3177 96.9062 44.6519 95.9401 44.6025C94.228 44.5182 92.5042 44.5153 90.7951 44.6171C89.3209 44.7072 88.4428 45.7303 88.5075 47.0266C88.5691 48.2823 89.503 49.1485 90.9155 49.2037C91.8112 49.2415 92.7098 49.1834 93.6055 49.2211C94.7214 49.2677 96.2132 48.7328 96.8475 49.4362C97.3849 50.0379 96.9591 51.4854 96.9591 52.5609C96.9855 52.5609 97.012 52.5609 97.0384 52.5609C97.0384 53.3718 97.0266 54.1828 97.0384 54.9937C97.0678 56.633 98.0545 57.7492 99.4318 57.7085C100.78 57.6707 101.702 56.6011 101.719 55.0082C101.737 53.3486 101.755 51.686 101.708 50.0292C101.687 49.3549 101.91 49.1834 102.565 49.2008C104.318 49.2415 106.077 49.2415 107.831 49.2008C109.14 49.1717 109.971 48.4887 110.183 47.3783C110.485 45.7913 109.466 44.6345 107.628 44.5822L107.631 44.5909Z" fill="white"/>
</g>
<defs>
<clipPath id="clip0_562_1756">
<rect width="120" height="97" fill="white"/>
</clipPath>
</defs>
</svg>
