<svg width="98" height="88" viewBox="0 0 98 88" fill="none" xmlns="http://www.w3.org/2000/svg">
<g clip-path="url(#clip0_562_1726)">
<path d="M97.9846 34.9362C97.9731 33.542 97.0926 32.6507 95.7153 32.5886C95.111 32.5614 94.501 32.5498 93.8987 32.5925C93.3788 32.6294 93.1506 32.4993 93.2004 31.9187C93.4997 28.4273 92.6902 24.8991 93.7299 21.4078C94.244 19.6815 94.76 18.864 96.6015 18.6116C97.5012 18.4892 97.9692 17.9747 97.9865 17.0659C98.0057 16.13 97.9922 15.194 97.9922 14.2561C97.9922 12.5687 97.5913 12.1668 95.9013 12.1648C89.1069 12.1648 82.3124 12.1648 75.5179 12.1648C74.624 12.1648 73.7301 12.1435 72.84 12.1823C72.0152 12.2192 71.4033 12.8289 71.4282 13.5843C71.455 14.3998 71.9097 14.8989 72.7019 15.0387C73.0127 15.0931 73.3369 15.0678 73.6553 15.0678C80.5457 15.0678 87.4361 15.0659 94.3245 15.0814C94.5988 15.0814 95.0631 14.8057 95.1244 15.4329C95.1743 15.93 94.8425 15.9746 94.5048 16.1106C93.0163 16.7125 91.9152 17.7611 91.3397 19.2776C91.1287 19.831 90.8793 19.9805 90.3211 19.9786C83.3348 19.9592 76.3504 19.9534 69.3641 19.9864C68.6352 19.9902 68.4837 19.798 68.4894 19.0854C68.5259 15.0503 68.5412 11.0134 68.4933 6.97831C68.4472 3.11026 65.4068 0.0344683 61.5914 0.018934C53.2028 -0.0140765 44.8124 -0.00825109 36.4238 0.0169922C33.0227 0.0267011 30.2336 2.42675 29.6217 5.79964C29.3032 7.55891 29.4912 9.34341 29.4989 11.1143C29.5027 11.926 29.3608 12.192 28.4765 12.1881C19.641 12.1474 10.8055 12.1726 1.96996 12.1512C1.0914 12.1493 0.408497 12.3551 -0.00392914 13.1804V17.6368C0.178305 18.4446 0.740355 18.7786 1.49807 18.8873C2.31525 19.0038 3.11324 19.2679 3.47963 20.0563C3.98797 21.1514 4.53275 22.3282 4.62483 23.4855C4.83584 26.1438 4.69581 28.8273 4.69005 31.4992C4.69005 32.0216 4.433 32.2546 3.9285 32.2682C3.32425 32.2837 2.71808 32.2352 2.11767 32.342C0.782557 32.5828 0.199406 33.1925 0.103493 34.4585C0.118839 34.4605 0.136104 34.4644 0.15145 34.4721C0.15145 37.3266 0.147613 40.179 0.147613 43.0335C0.510164 44.3733 1.18923 44.9267 2.51666 44.9558C2.96362 44.9656 3.41824 45.0141 3.85369 44.9461C4.75911 44.8063 4.94326 45.1947 4.92983 46.051C4.87996 49.3443 4.91257 52.6376 4.90873 55.9309C4.90873 56.5522 5.06603 57.0784 5.64534 57.3911C6.13642 57.6571 6.62749 57.6416 7.09555 57.3484C7.72665 56.9542 7.78228 56.3134 7.78228 55.6473C7.77845 52.3541 7.79187 49.0608 7.76886 45.7675C7.76502 45.185 7.84559 44.9384 8.52465 44.9384C35.5414 44.9578 62.5601 44.9578 89.5768 44.9384C90.2406 44.9384 90.3441 45.1578 90.3384 45.7539C90.3134 49.0802 90.323 52.4046 90.3269 55.7308C90.3269 56.9367 90.8563 57.5872 91.7963 57.5658C92.6978 57.5464 93.1927 56.9153 93.1947 55.7561C93.2004 53.0123 93.1851 50.2666 93.2023 47.5229C93.2081 46.6938 92.8551 45.6297 93.3462 45.0995C93.8008 44.6102 94.854 44.9908 95.6424 44.9578C97.0772 44.8995 97.9635 44.0354 97.975 42.581C97.9942 40.0295 97.9961 37.48 97.975 34.9284L97.9846 34.9362ZM37.0338 2.91609C41.018 2.91609 45.0023 2.91609 48.9865 2.91609C52.9707 2.91609 57.0835 2.9122 61.131 2.91609C63.9547 2.91997 65.635 4.62292 65.637 7.49483C65.6427 12.4969 65.6408 17.497 65.637 22.499C65.635 25.4078 63.9431 27.1069 61.0504 27.1069C53.0187 27.1089 44.985 27.1089 36.9532 27.1069C34.0126 27.1069 32.3533 25.4137 32.3513 22.4175C32.3494 17.4815 32.3494 12.5435 32.3513 7.60745C32.3513 4.55884 33.9915 2.91803 37.0338 2.91609ZM3.48155 16.1086C3.14969 15.9746 2.80632 15.9222 2.8677 15.4251C2.94252 14.8057 3.40482 15.0872 3.67913 15.0872C12.0044 15.0717 20.3296 15.0814 28.6549 15.0581C29.3128 15.0581 29.5123 15.2037 29.4989 15.8931C29.4529 18.1514 29.472 20.4136 29.4835 22.6738C29.5046 26.938 32.5106 30.0041 36.7135 30.0118C44.8795 30.0254 53.0455 30.0215 61.2115 30.0118C65.1516 30.0079 68.0156 27.4545 68.4683 23.5127C68.5355 22.9321 68.733 22.868 69.2164 22.8699C76.0109 22.8835 82.8054 22.8913 89.5999 22.8602C90.2866 22.8563 90.3537 23.1165 90.348 23.6894C90.323 26.369 90.3019 29.0506 90.3595 31.7284C90.3767 32.5031 90.1197 32.5964 89.4521 32.5964C75.9917 32.5769 62.5294 32.5828 49.069 32.5828C35.6085 32.5828 22.2747 32.5711 8.87761 32.608C7.9204 32.6099 7.74584 32.34 7.76694 31.441C7.83216 28.8914 7.8264 26.3399 7.76694 23.7903C7.74967 22.9942 8.00864 22.8583 8.72223 22.8622C14.0818 22.8913 19.4395 22.8796 24.7992 22.8757C25.858 22.8757 26.4623 22.4583 26.5908 21.666C26.75 20.6912 26.0499 19.9786 24.8855 19.9747C22.1098 19.965 19.336 19.9708 16.5602 19.9708C13.5946 19.9708 10.6271 19.9553 7.66143 19.9844C7.1013 19.9902 6.85768 19.8271 6.64476 19.2776C6.06352 17.7688 4.97395 16.7086 3.47963 16.1086H3.48155ZM95.1417 41.1946C95.1743 41.948 94.9345 42.0742 94.2459 42.0723C79.1952 42.0509 64.1446 42.0568 49.0939 42.0568C34.0432 42.0568 19.1211 42.0432 4.13376 42.0859C3.12283 42.0878 2.93676 41.7907 2.9828 40.8684C3.05953 39.3557 3.04035 37.8334 2.98664 36.3188C2.96362 35.6275 3.18422 35.4702 3.84026 35.4721C10.3125 35.4974 16.7866 35.4877 23.2588 35.4877C46.8553 35.4877 70.4518 35.4916 94.0464 35.4683C94.8885 35.4683 95.1916 35.6353 95.1417 36.5498C95.0573 38.0936 95.0707 39.6489 95.1398 41.1946H95.1417Z" fill="white"/>
<path d="M0.0978116 34.6781C0.0997298 34.6043 0.105485 34.5325 0.109321 34.4626C0.0709559 34.4567 0.034509 34.4664 -0.00193787 34.4936V43.0181L0.070956 43.0647L0.153441 43.0375C0.0249177 40.251 0.134258 37.4626 0.0978116 34.6781Z" fill="white"/>
<path d="M93.0816 62.3772C93.0816 61.1714 92.5425 60.4801 91.6506 60.4859C90.7605 60.4918 90.231 61.1927 90.2138 62.3928C90.2119 62.587 90.2138 62.7811 90.2138 62.9734C90.2138 69.9793 90.1908 76.9853 90.2406 83.9913C90.2483 84.9641 89.9682 85.1175 89.0839 85.1137C79.93 85.0787 70.7761 85.0807 61.6221 85.1117C60.8433 85.1137 60.6266 84.9525 60.6285 84.1292C60.663 75.4766 60.6515 66.8239 60.6496 58.1713C60.6496 55.5441 59.3663 54.2334 56.79 54.2314C51.6223 54.2275 46.4564 54.2275 41.2886 54.2314C38.5819 54.2314 37.3427 55.5052 37.3427 58.2781C37.3427 66.8667 37.3255 75.4533 37.3658 84.0418C37.3696 84.9603 37.0953 85.1156 36.2666 85.1137C27.0801 85.0845 17.8954 85.0865 8.70889 85.1117C7.98763 85.1117 7.75552 84.968 7.75744 84.1816C7.79197 77.0145 7.77854 69.8473 7.77278 62.6802C7.77278 62.2957 7.76703 61.8976 7.6692 61.5306C7.47929 60.8141 6.93834 60.4549 6.23626 60.5073C5.54377 60.5597 5.04694 60.9636 4.94527 61.7112C4.89731 62.0607 4.9069 62.42 4.9069 62.7734C4.90499 70.1658 4.9069 77.5601 4.9069 84.9525C4.9069 87.3545 5.53993 87.9992 7.90131 87.9992C21.5842 87.9992 35.2672 87.9992 48.9501 87.9992C62.6331 87.9992 76.316 87.9992 89.9989 87.9992C90.3174 87.9992 90.6377 88.0069 90.9562 87.9895C92.1666 87.9176 92.9722 87.1409 93.0547 85.9137C93.1046 85.1739 93.0816 84.4302 93.0816 83.6864C93.0816 76.5834 93.0854 69.4803 93.0816 62.3792V62.3772ZM57.7799 71.2881C57.7799 75.6144 57.7645 79.9407 57.7971 84.267C57.8029 84.9583 57.6034 85.1117 56.9473 85.1098C51.6529 85.0826 46.3586 85.0768 41.0642 85.1156C40.3045 85.1214 40.199 84.869 40.2009 84.1874C40.224 75.5678 40.2278 66.9482 40.1971 58.3286C40.1933 57.4004 40.4542 57.113 41.3826 57.1208C46.4525 57.1616 51.5244 57.1596 56.5963 57.1208C57.5036 57.113 57.8106 57.3616 57.801 58.3131C57.7549 62.6394 57.7818 66.9657 57.7818 71.292L57.7799 71.2881Z" fill="white"/>
<path d="M13.5448 79.3721C19.2171 79.3779 24.8894 79.3798 30.5617 79.3721C32.7217 79.3682 33.9589 78.1507 33.9666 75.97C33.9858 70.8728 33.9877 65.7756 33.9666 60.6804C33.957 58.5327 32.7351 57.3444 30.6173 57.3405C27.7802 57.3347 24.945 57.3405 22.1079 57.3405C19.2401 57.3405 16.3723 57.3366 13.5026 57.3405C11.3101 57.3444 10.1169 58.525 10.1131 60.7211C10.1054 65.7853 10.1054 70.8495 10.1131 75.9137C10.115 78.1565 11.3196 79.3701 13.5448 79.3721ZM13.7827 60.2318C16.5239 60.259 19.267 60.2435 22.0101 60.2435C24.7532 60.2435 27.4311 60.2784 30.1416 60.2221C30.9626 60.2046 31.1257 60.4706 31.1199 61.2493C31.0835 65.9931 31.0892 70.7389 31.1161 75.4826C31.1199 76.1933 31.0048 76.4943 30.1896 76.4885C24.7379 76.4477 19.2843 76.4574 13.8326 76.4807C13.1784 76.4846 12.9655 76.3196 12.9693 75.6283C12.9981 70.7544 12.9981 65.8805 12.9693 61.0066C12.9655 60.3347 13.1976 60.224 13.7865 60.2299L13.7827 60.2318Z" fill="white"/>
<path d="M67.304 79.3685C73.0722 79.384 78.8404 79.384 84.6086 79.3685C86.6439 79.3627 87.8716 78.1025 87.8773 76.0403C87.8888 70.912 87.8888 65.7818 87.8773 60.6535C87.8735 58.57 86.6573 57.3466 84.6125 57.3408C81.7447 57.3311 78.8769 57.3389 76.0091 57.3389C73.1413 57.3389 70.2083 57.3331 67.3098 57.3408C65.3052 57.3466 64.0449 58.535 64.0334 60.5525C64.0008 65.7449 64.0008 70.9392 64.0334 76.1335C64.0449 78.1355 65.3148 79.3646 67.3079 79.3685H67.304ZM67.6589 60.2321C70.4327 60.2574 73.2065 60.2438 75.9822 60.2438C78.7579 60.2438 81.4032 60.2671 84.1137 60.2283C84.7909 60.2186 85.0364 60.3389 85.0306 61.106C84.9904 65.9468 84.9961 70.7897 85.0268 75.6306C85.0306 76.3238 84.8177 76.4849 84.1636 76.483C78.6793 76.4578 73.195 76.4597 67.7107 76.483C67.1026 76.4849 66.8782 76.3374 66.882 75.6791C66.9069 70.7722 66.9069 65.8672 66.882 60.9603C66.8782 60.3234 67.1141 60.2302 67.6647 60.2341L67.6589 60.2321Z" fill="white"/>
<path d="M38.5896 8.7055C38.8409 8.73851 39.1056 8.75793 39.3531 8.71521C40.1952 8.56764 40.5616 8.86279 40.7227 9.76378C41.1812 12.3308 41.7298 14.8823 42.2938 17.428C42.6928 19.2339 44.0471 20.3388 45.8387 20.3543C48.6777 20.3776 51.5168 20.3795 54.3539 20.3543C55.9 20.3388 57.072 19.5951 57.6513 18.1465C58.6757 15.5833 59.6444 12.9949 60.5652 10.391C61.0927 8.8958 60.1144 7.36373 58.5817 7.34237C54.4996 7.28605 50.4176 7.30741 46.3355 7.32877C45.4608 7.33266 44.9525 7.90548 44.941 8.72298C44.9275 9.6531 45.5299 10.1987 46.6693 10.2123C48.5185 10.2337 50.3696 10.2182 52.2188 10.2182C53.9664 10.2182 55.7139 10.2182 57.5746 10.2182C56.7172 12.5289 55.9076 14.7251 55.0828 16.9154C54.891 17.4261 54.4517 17.4669 53.976 17.463C51.4247 17.4513 48.8734 17.43 46.3221 17.4727C45.4877 17.4863 45.127 17.1756 44.9697 16.362C44.4326 13.6124 43.861 10.8706 43.2644 8.13462C42.9747 6.80449 42.0041 5.93263 40.7611 5.84136C40.0628 5.79087 39.3569 5.79087 38.6568 5.83554C37.8511 5.88796 37.3696 6.35399 37.3063 7.18508C37.2468 7.97733 37.7782 8.60259 38.5877 8.70939L38.5896 8.7055Z" fill="white"/>
<path d="M45.9864 21.5789C45.033 21.5304 44.2888 22.1343 44.2504 22.9828C44.2139 23.8061 44.8662 24.445 45.7792 24.4799C46.8017 24.5188 47.4558 23.9887 47.4846 23.0935C47.5134 22.2275 46.9168 21.6236 45.9845 21.577L45.9864 21.5789Z" fill="white"/>
<path d="M52.0692 21.5785C51.1273 21.594 50.5077 22.1668 50.5039 23.029C50.4982 23.9358 51.1331 24.4989 52.1459 24.4834C53.0763 24.4698 53.7323 23.8795 53.74 23.0484C53.7477 22.194 53.0283 21.559 52.0711 21.5765L52.0692 21.5785Z" fill="white"/>
<path d="M43.7996 69.7397C43.4984 69.6581 43.1704 69.6737 42.8462 69.6445C42.5355 69.6756 42.2074 69.6581 41.9082 69.7474C41.116 69.9824 40.7994 70.5669 40.9145 71.3727C41.0392 72.2543 41.6396 72.5902 42.9843 72.5747C44.1487 72.5611 44.7376 72.1824 44.8355 71.3378C44.9295 70.53 44.6014 69.9533 43.7996 69.7377V69.7397Z" fill="white"/>
</g>
<defs>
<clipPath id="clip0_562_1726">
<rect width="98" height="88" fill="white"/>
</clipPath>
</defs>
</svg>
