<svg width="55" height="101" viewBox="0 0 55 101" fill="none" xmlns="http://www.w3.org/2000/svg">
<g clip-path="url(#clip0_1468_237)">
<path d="M43.6272 69.547C39.5154 55.5852 35.401 41.6234 31.2842 27.664C31.1254 27.1252 30.9343 26.7446 31.7234 26.3788C34.7087 24.9898 36.2869 21.6236 35.5995 18.4081C34.9072 15.1703 31.9493 12.7779 28.5571 12.7136C25.2467 12.6518 22.2664 14.9825 21.4227 18.2919C20.6411 21.364 22.1573 24.8267 25.073 26.2775C25.9316 26.7051 25.882 27.1104 25.6661 27.8346C18.7998 51.0993 11.9484 74.3689 5.09445 97.6386C4.54108 99.5195 4.63537 99.8235 6.11187 100.997H7.30051C8.20377 100.535 8.75218 99.7889 8.87874 98.8027C9.19886 96.2966 10.658 94.7766 12.7772 93.4642C17.8643 90.3129 22.8099 86.9368 27.7952 83.6274C28.3089 83.2863 28.6464 83.2665 29.1725 83.615C34.9246 87.4336 40.6966 91.2299 46.4735 95.0138C46.9152 95.303 47.1931 95.6268 47.3222 96.1433C47.5529 97.0652 47.8731 97.9624 48.1063 98.8818C48.3445 99.8136 48.7838 100.57 49.687 100.997H50.8757C52.3621 99.8235 52.4539 99.5318 51.8757 97.5645C49.1287 88.2245 46.3792 78.8845 43.6272 69.547ZM25.2045 19.9577C25.1897 18.1782 26.6537 16.7076 28.4553 16.6879C30.2618 16.6681 31.7383 18.0818 31.783 19.8786C31.8277 21.6705 30.2891 23.2325 28.4851 23.2226C26.7133 23.2152 25.2169 21.7274 25.2045 19.9577ZM24.4154 46.0672C25.748 41.5838 27.0681 37.0955 28.3933 32.6096C28.4628 32.6096 28.5322 32.6071 28.6017 32.6047C29.7556 36.5221 30.9095 40.4395 32.0659 44.3569C32.2421 44.955 32.4183 45.5506 32.6069 46.1438C32.7384 46.5566 32.6441 46.7271 32.1676 46.7222C29.7283 46.7049 27.2865 46.6999 24.8472 46.7222C24.269 46.7271 24.2913 46.4923 24.4179 46.0672H24.4154ZM20.924 58.0073C21.5741 55.7779 22.2466 53.5535 22.8794 51.3193C23.0034 50.8843 23.13 50.6594 23.6486 50.6643C26.8771 50.689 30.1055 50.6816 33.3339 50.6717C33.7459 50.6717 33.9618 50.7483 34.0908 51.208C34.875 53.9786 35.7038 56.7369 36.5301 59.4952C36.6542 59.9104 36.7063 60.1526 36.1157 60.1526C30.8822 60.1353 25.6462 60.1427 20.3755 60.1427C20.4227 59.3543 20.7229 58.6944 20.924 58.0097V58.0073ZM11.8987 89.354C11.8541 89.2551 11.8094 89.1562 11.7647 89.0599C13.1444 84.3837 14.5242 79.7075 15.9337 74.9275C18.9189 76.8899 21.8496 78.8177 24.8919 80.8172C20.5095 83.6966 16.2017 86.5265 11.8962 89.354H11.8987ZM29.0459 78.0985C28.6067 78.3926 28.3064 78.3333 27.9044 78.0664C24.5072 75.8148 21.1051 73.5706 17.6881 71.3512C17.2091 71.0398 17.1446 70.7432 17.3059 70.2217C17.8543 68.4718 18.373 66.7121 18.8469 64.9425C19.0182 64.3073 19.2638 64.0626 19.976 64.0774C22.8421 64.1293 25.7108 64.0997 28.5794 64.0997C31.448 64.0997 34.1826 64.1219 36.9842 64.0824C37.6468 64.0725 37.9669 64.2208 38.1456 64.9004C38.6171 66.7047 39.158 68.4916 39.7114 70.2761C39.8653 70.7679 39.7784 71.0398 39.3417 71.324C35.8998 73.5657 32.4654 75.8222 29.0459 78.0985ZM45.0764 89.1043C44.8928 89.265 44.7116 89.1043 44.5503 88.9981C40.436 86.2893 36.3217 83.5829 32.1155 80.8148C35.1405 78.8252 38.0662 76.8998 41.0638 74.9275C42.4262 79.5296 43.7637 84.0377 45.0938 88.5482C45.1484 88.7287 45.2476 88.9536 45.0789 89.1043H45.0764Z" fill="#FEFEFE"/>
<path d="M7.93065 39.1815C8.52621 39.7994 9.26818 40.0392 10.0945 39.7599C10.839 39.5078 11.2757 38.9393 11.4048 38.1682C11.5363 37.3724 11.1219 36.7718 10.6132 36.2379C9.54363 35.1158 8.54606 33.9319 7.72469 32.6196C1.89068 23.2969 2.94532 12.029 10.3898 3.89023C10.6777 3.57634 10.973 3.25257 11.1765 2.88431C11.8862 1.59663 10.9134 -0.00246869 9.44685 2.86147e-06C8.82151 0.0346046 8.30288 0.304004 7.8835 0.748883C7.29787 1.37171 6.69735 1.98713 6.16382 2.65445C-1.40476 12.0562 -2.05987 24.7847 4.50866 34.9799C5.49134 36.5024 6.67005 37.879 7.92817 39.1815H7.93065Z" fill="#FEFEFE"/>
<path d="M47.5133 7.55556C47.7119 8.00291 47.9848 8.41813 48.2131 8.85312C51.2654 14.6934 51.8907 20.7536 49.908 27.061C48.7814 30.6399 46.8061 33.6972 44.2452 36.4184C43.2973 37.4267 43.3543 38.6205 44.2452 39.3867C45.0963 40.1207 46.2527 40.0219 47.1535 39.0852C52.315 33.7169 54.8784 27.2934 55.0025 20.6474C54.9851 17.1674 54.5757 14.513 53.7915 11.9228C53.1339 9.75029 52.2083 7.68408 51.0147 5.74885C50.3745 4.71327 49.2553 4.39938 48.29 4.91841C47.3595 5.42013 47.0344 6.48043 47.5158 7.55556H47.5133Z" fill="#FEFEFE"/>
<path d="M10.6953 24.2434C11.472 27.1919 12.9137 29.7747 15.0429 31.967C15.9511 32.9012 17.0901 32.9877 17.9537 32.2166C18.7403 31.5147 18.8048 30.4124 18.1001 29.4633C17.904 29.2013 17.6658 28.969 17.4499 28.7193C15.5143 26.49 14.3977 23.9146 14.1917 20.9636C13.9163 17.0141 15.1719 13.6107 17.8569 10.7017C18.842 9.63401 18.8321 8.44519 17.9288 7.65924C17.0132 6.85846 15.9015 7.01169 14.8964 8.08187C11.7573 11.4209 10.2213 15.3977 10.1543 19.9898C10.199 21.4011 10.3255 22.8395 10.6953 24.2458V24.2434Z" fill="#FEFEFE"/>
<path d="M37.2846 29.0012C36.6245 29.7081 36.1307 30.4693 36.5352 31.4777C37.1183 32.931 38.8256 33.1411 40.0068 31.8979C43.1657 28.581 44.7365 24.6167 44.8308 20.3063C44.8358 17.0488 44.1286 14.2114 42.6694 11.5694C41.9027 10.1803 40.9696 8.90996 39.8281 7.80023C38.9844 6.97968 37.8851 6.94261 37.0712 7.64947C36.2548 8.3588 36.1704 9.44629 36.8726 10.3904C37.0885 10.6796 37.3541 10.9317 37.5848 11.2085C40.5304 14.728 41.4758 18.7245 40.4386 23.1807C39.9224 25.4026 38.8355 27.3304 37.2796 28.9963L37.2846 29.0012Z" fill="#FEFEFE"/>
<path d="M45.5405 3.93224C46.6051 3.93224 47.4637 3.05237 47.4612 1.96736C47.4562 0.887287 46.5902 0 45.538 0C44.4635 0 43.6273 0.862572 43.6273 1.9723C43.6273 3.07955 44.4635 3.93471 45.5405 3.93224Z" fill="#FEFEFE"/>
</g>
<defs>
<clipPath id="clip0_1468_237">
<rect width="55" height="101" fill="white"/>
</clipPath>
</defs>
</svg>
