<svg width="103" height="100" viewBox="0 0 103 100" fill="none" xmlns="http://www.w3.org/2000/svg">
<g clip-path="url(#clip0_1527_481)">
<path d="M55.0227 78.577C53.9429 78.5949 53.2962 79.3854 53.2755 80.71C53.2725 80.9696 53.2755 81.2321 53.2755 81.4916C53.2755 86.1784 53.2666 90.8652 53.2873 95.5519C53.2873 96.1724 53.2339 96.4767 52.4775 96.4499C50.6293 96.3842 48.7782 96.3992 46.9301 96.4439C46.2686 96.4618 46.1499 96.2261 46.1588 95.6235C46.1885 93.0579 46.1796 90.4893 46.1707 87.9236C46.1647 86.3305 45.5447 85.716 43.9399 85.713C33.5808 85.71 23.2248 85.71 12.8657 85.713C11.2757 85.713 10.6616 86.3395 10.6587 87.9445C10.6527 90.5101 10.6349 93.0788 10.6705 95.6444C10.6794 96.2768 10.5014 96.4558 9.87549 96.4409C8.13712 96.3992 6.39578 96.3663 4.66038 96.4499C3.72593 96.4946 3.52717 96.2261 3.53014 95.3043C3.55684 65.0984 3.55684 34.8956 3.53014 4.68974C3.53014 3.77088 3.7289 3.54117 4.65741 3.54415C20.4896 3.57697 36.3219 3.57697 52.1541 3.54415C53.0619 3.54415 53.3022 3.73508 53.2962 4.67482C53.2547 14.1229 53.2725 23.571 53.2725 33.0191C53.2725 33.392 53.2339 33.7709 53.2962 34.1319C53.4623 35.0925 54.0527 35.6742 55.0316 35.6862C56.0135 35.6951 56.6039 35.1193 56.7937 34.1647C56.859 33.8425 56.8204 33.4964 56.8204 33.1623C56.8204 22.9714 56.8204 12.7774 56.8204 2.58652C56.8264 0.48926 56.328 0 54.1921 0C36.9923 0 19.7925 0 2.58976 0C0.48354 0 0 0.48926 0 2.63126C0 18.4039 0 34.1766 0 49.9463C0 65.716 0 81.7124 0 97.5955C0 99.4242 0.566602 99.997 2.37617 99.997C19.7243 99.997 37.0754 99.997 54.4235 99.997C56.2479 99.997 56.8234 99.4272 56.8234 97.6193C56.8264 92.6342 56.8234 87.6492 56.8234 82.6671C56.8234 81.9988 56.8323 81.3276 56.8234 80.6593C56.8026 79.3556 56.1085 78.562 55.0227 78.5799V78.577ZM25.8739 96.435C24.0257 96.4141 22.1746 96.426 20.3265 96.426C18.514 96.426 16.7014 96.4081 14.8889 96.4379C14.3786 96.4469 14.1829 96.3335 14.1918 95.7727C14.2274 93.8395 14.2214 91.9063 14.1918 89.9702C14.1858 89.457 14.2986 89.2661 14.8533 89.2721C18.5525 89.2959 22.2488 89.2929 25.948 89.2721C26.4583 89.2721 26.654 89.3765 26.6451 89.9373C26.6095 91.8705 26.6006 93.8067 26.6511 95.7399C26.6689 96.4051 26.3782 96.4409 25.8709 96.435H25.8739ZM41.8336 96.4409C38.2086 96.4111 34.5835 96.4111 30.9614 96.4409C30.3266 96.4469 30.1604 96.2589 30.1753 95.6384C30.2138 93.7798 30.2168 91.9183 30.1753 90.0597C30.1604 89.4183 30.3562 89.2542 30.9762 89.2691C32.7502 89.3109 34.5271 89.284 36.3011 89.284C38.1492 89.284 40.0003 89.3109 41.8485 89.2691C42.4863 89.2542 42.6494 89.4511 42.6346 90.0716C42.596 91.9302 42.5931 93.7918 42.6346 95.6503C42.6494 96.2918 42.4507 96.4439 41.8336 96.4409Z" fill="#FEFEFE"/>
<path d="M93.6674 39.2869C83.3143 39.2779 72.9612 39.2809 62.6081 39.2869C57.0577 39.2899 53.2873 43.0816 53.2784 48.6604C53.2695 54.3108 53.2695 59.9641 53.2784 65.6145C53.2873 71.1932 57.0577 74.985 62.6051 74.9939C67.7816 75.0029 72.9582 74.9939 78.1347 74.9939C83.3113 74.9939 88.4878 74.9999 93.6644 74.9939C99.2118 74.985 102.988 71.1932 102.997 65.6174C103.006 59.9671 103.006 54.3137 102.997 48.6634C102.988 43.0846 99.2177 39.2899 93.6703 39.2839L93.6674 39.2869ZM93.6169 71.4259C83.2965 71.4289 72.976 71.4289 62.6526 71.4259C59.0275 71.4259 56.8293 69.2362 56.8263 65.6234C56.8204 59.9701 56.8204 54.3137 56.8263 48.6604C56.8293 45.0476 59.0275 42.8609 62.6526 42.8579C67.8321 42.8549 73.0116 42.8579 78.1911 42.8579C83.3706 42.8579 88.476 42.8579 93.6169 42.8579C97.242 42.8579 99.4402 45.0447 99.4431 48.6604C99.4491 54.3137 99.4491 59.9701 99.4431 65.6234C99.4402 69.2392 97.242 71.4259 93.6169 71.4289V71.4259Z" fill="#FEFEFE"/>
<path d="M24.8593 12.8671C24.8563 11.3546 24.2096 10.7192 22.6878 10.7162C19.4009 10.7072 16.111 10.7072 12.8241 10.7162C11.3023 10.7192 10.6675 11.3546 10.6586 12.8731C10.6467 15.1404 10.6586 17.4047 10.6586 19.672C10.6586 21.9393 10.6497 24.2037 10.6616 26.471C10.6705 27.9119 11.3261 28.5622 12.7737 28.5682C16.0992 28.5801 19.4246 28.5801 22.7501 28.5682C24.1948 28.5622 24.8563 27.9089 24.8593 26.465C24.8711 21.9334 24.8682 17.4017 24.8593 12.8671ZM20.6438 25.0121C18.7216 24.9823 16.7963 24.9823 14.874 25.0121C14.34 25.0211 14.1828 24.863 14.1947 24.329C14.2273 22.7687 14.2065 21.2054 14.2065 19.6422C14.2065 18.079 14.2273 16.5187 14.1947 14.9554C14.1828 14.4185 14.34 14.2633 14.874 14.2723C16.7963 14.3021 18.7216 14.3021 20.6438 14.2723C21.1778 14.2633 21.3261 14.4214 21.3232 14.9554C21.2994 18.079 21.2994 21.2025 21.3232 24.326C21.3261 24.863 21.1778 25.0181 20.6438 25.0091V25.0121Z" fill="#FEFEFE"/>
<path d="M46.1677 12.8162C46.1588 11.3723 45.5061 10.7219 44.0555 10.716C40.7301 10.704 37.4046 10.704 34.0821 10.716C32.6285 10.7219 31.973 11.3663 31.97 12.8103C31.9581 17.3419 31.9611 21.8735 31.97 26.4081C31.97 27.9236 32.6137 28.562 34.1355 28.565C37.4224 28.574 40.7123 28.574 43.9992 28.565C45.521 28.562 46.1617 27.9236 46.1706 26.4111C46.1825 24.1438 46.1736 21.8795 46.1706 19.6122C46.1706 17.3449 46.1825 15.0805 46.1677 12.8132V12.8162ZM42.6197 19.642C42.6197 21.2052 42.599 22.7655 42.6316 24.3288C42.6435 24.8657 42.4862 25.0209 41.9523 25.0119C40.03 24.9821 38.1047 24.9821 36.1824 25.0119C35.6485 25.0209 35.5001 24.8657 35.5031 24.3288C35.5268 21.2052 35.5268 18.0817 35.5031 14.9582C35.5001 14.4242 35.6485 14.2661 36.1824 14.2751C38.1047 14.3049 40.03 14.3049 41.9523 14.2751C42.4862 14.2661 42.6435 14.4212 42.6316 14.9582C42.599 16.5185 42.6197 18.0817 42.6197 19.645V19.642Z" fill="#FEFEFE"/>
<path d="M24.8593 37.9414C24.8533 36.3454 24.2333 35.7189 22.6492 35.7159C19.3979 35.7099 16.1466 35.7099 12.8954 35.7159C11.2845 35.7189 10.6586 36.3275 10.6556 37.9086C10.6497 42.4044 10.6467 46.9003 10.6556 51.3931C10.6556 52.9176 11.2934 53.562 12.8064 53.5649C16.0932 53.5739 19.3831 53.5739 22.67 53.5649C24.2422 53.562 24.8504 52.9295 24.8563 51.3126C24.8622 49.084 24.8563 46.8555 24.8563 44.627C24.8563 42.3985 24.8622 40.17 24.8563 37.9414H24.8593ZM21.3084 44.7523C21.3084 46.2768 21.2876 47.8012 21.3202 49.3257C21.3321 49.8597 21.1778 50.0178 20.6409 50.0089C18.7186 49.979 16.7933 49.979 14.871 50.0089C14.3371 50.0178 14.1858 49.8627 14.1917 49.3257C14.2154 46.2022 14.2154 43.0787 14.1917 39.9552C14.1887 39.4211 14.3341 39.263 14.8681 39.272C16.7904 39.3018 18.7156 39.3018 20.6379 39.272C21.1719 39.263 21.3291 39.4152 21.3173 39.9552C21.2846 41.5542 21.3054 43.1532 21.3054 44.7523H21.3084Z" fill="#FEFEFE"/>
<path d="M46.1648 37.7805C46.1618 36.3963 45.4973 35.7251 44.1298 35.7191C40.7687 35.7042 37.4047 35.7072 34.0436 35.7191C32.6108 35.7251 31.973 36.3844 31.9671 37.8492C31.9552 40.1165 31.9641 42.3808 31.9641 44.6481C31.9641 46.9512 31.9493 49.2543 31.97 51.5574C31.9819 52.873 32.6494 53.5592 33.9457 53.5651C37.3454 53.583 40.745 53.583 44.1416 53.5651C45.5003 53.5592 46.1618 52.879 46.1648 51.4888C46.1766 46.9184 46.1766 42.3509 46.1648 37.7805ZM41.9345 50.0091C40.0122 49.9822 38.087 49.9762 36.1647 50.0091C35.607 50.018 35.4943 49.8211 35.5032 49.308C35.5328 47.7477 35.515 46.1845 35.515 44.6212C35.515 43.0968 35.5299 41.5723 35.5061 40.0478C35.5002 39.5347 35.5388 39.2453 36.1973 39.2632C38.1196 39.314 40.0449 39.302 41.9672 39.2692C42.5249 39.2603 42.6317 39.4601 42.6287 39.9703C42.6079 43.0938 42.605 46.2173 42.6287 49.3408C42.6346 49.9017 42.4418 50.015 41.9316 50.0061L41.9345 50.0091Z" fill="#FEFEFE"/>
<path d="M24.8564 62.8132C24.8475 61.3723 24.1919 60.7219 22.7413 60.7189C19.4158 60.707 16.0904 60.707 12.7679 60.7189C11.3173 60.7249 10.6617 61.3723 10.6587 62.8192C10.6468 67.3508 10.6498 71.8824 10.6587 76.417C10.6587 77.9325 11.3054 78.568 12.8272 78.5709C16.1141 78.5799 19.404 78.5799 22.6908 78.5709C24.2097 78.568 24.8505 77.9265 24.8594 76.414C24.8712 74.1467 24.8594 71.8824 24.8594 69.6151C24.8594 67.3478 24.8712 65.0835 24.8564 62.8162V62.8132ZM20.5639 75.0178C18.6801 74.9671 16.7905 74.9701 14.9067 75.0178C14.2778 75.0328 14.1948 74.7911 14.1977 74.2511C14.2185 71.1634 14.2274 68.0787 14.1918 64.991C14.1859 64.3615 14.4143 64.269 14.9542 64.278C16.8409 64.3048 18.7276 64.3168 20.6113 64.272C21.2402 64.2571 21.3322 64.4987 21.3203 65.0387C21.2907 66.599 21.3114 68.1622 21.3114 69.7255C21.3114 71.2887 21.2877 72.6998 21.3233 74.1885C21.3381 74.7732 21.2462 75.0387 20.5639 75.0208V75.0178Z" fill="#FEFEFE"/>
<path d="M46.1677 62.8132C46.1588 61.3723 45.5032 60.7219 44.0526 60.7189C40.7271 60.707 37.4017 60.707 34.0762 60.7189C32.6256 60.7249 31.97 61.3723 31.9671 62.8192C31.9552 67.3508 31.9582 71.8824 31.9671 76.417C31.9671 77.9325 32.6138 78.568 34.1356 78.5709C37.4225 78.5799 40.7123 78.5799 43.9992 78.5709C45.5181 78.568 46.1588 77.9265 46.1677 76.414C46.1796 74.1467 46.1707 71.8824 46.1677 69.6151C46.1677 67.3478 46.1796 65.0835 46.1647 62.8162L46.1677 62.8132ZM41.9523 75.0119C40.03 74.982 38.1048 74.982 36.1825 75.0119C35.6485 75.0208 35.4913 74.8657 35.5031 74.3287C35.5358 72.7296 35.515 71.1306 35.515 69.5316C35.515 67.9325 35.5387 66.4826 35.5031 64.9582C35.4913 64.4212 35.6485 64.266 36.1825 64.275C38.1048 64.3048 40.03 64.3048 41.9523 64.275C42.4863 64.266 42.6346 64.4242 42.6316 64.9582C42.6079 68.0817 42.6079 71.2052 42.6316 74.3287C42.6346 74.8657 42.4863 75.0208 41.9523 75.0119Z" fill="#FEFEFE"/>
<path d="M64.5719 23.21C72.6646 15.8234 83.5338 15.8263 91.7006 23.2189C92.0269 23.5143 92.3355 23.8395 92.8071 23.9111C93.6674 24.0453 94.3556 23.7888 94.7621 22.9982C95.2278 22.0972 94.8985 21.3604 94.2221 20.707C89.719 16.3723 84.3318 14.2362 78.025 14.105C71.9615 14.2512 66.5862 16.3395 62.1127 20.6473C61.1249 21.599 61.0151 22.5507 61.7508 23.3711C62.4865 24.1945 63.5544 24.1318 64.569 23.207L64.5719 23.21Z" fill="#FEFEFE"/>
<path d="M88.568 28.9826C89.2206 28.8245 89.6983 28.4099 89.8703 27.7416C90.0631 26.9988 89.8436 26.3663 89.2829 25.8263C86.174 22.8371 82.454 21.3663 78.1734 21.2529C73.9817 21.3365 70.3062 22.7416 67.2092 25.6175C66.8532 25.9457 66.4883 26.2798 66.3875 26.775C66.2243 27.5715 66.4201 28.2696 67.1261 28.7231C67.9182 29.2332 68.6954 29.1109 69.3599 28.4844C70.6414 27.2762 72.0505 26.2649 73.7118 25.6831C78.4878 24.0035 82.7952 24.8478 86.5953 28.2189C87.1708 28.7291 87.7522 29.1795 88.571 28.9826H88.568Z" fill="#FEFEFE"/>
<path d="M72.1572 30.7636C71.2079 31.6466 71.0774 32.6878 71.8101 33.4963C72.5221 34.2809 73.5159 34.2898 74.4622 33.4634C75.2038 32.8191 76.0107 32.3358 76.9748 32.1299C78.8526 31.7242 80.4693 32.2403 81.8725 33.5261C82.4717 34.075 83.157 34.254 83.9135 33.899C84.578 33.5887 84.8776 33.013 84.9458 32.2642C84.8954 31.6705 84.5987 31.1902 84.1448 30.7636C80.8283 27.652 75.5004 27.643 72.1542 30.7576L72.1572 30.7636Z" fill="#FEFEFE"/>
<path d="M70.2261 48.1207C69.44 47.1482 68.197 47.2824 67.3575 48.3206C65.8179 50.2239 64.4414 52.2466 63.3557 54.4513C62.5666 56.0533 61.908 57.703 61.8932 60.0509C61.9674 62.3808 63.2014 64.5557 65.7289 65.8325C68.2474 67.1064 70.7779 66.9244 73.0413 65.2209C75.3285 63.4996 76.3134 61.1308 75.7438 58.2639C74.9606 54.317 72.6764 51.1547 70.2261 48.1207ZM70.8283 62.5479C69.6358 63.3862 68.197 63.3952 67.0045 62.5718C65.7615 61.7126 65.2008 60.218 65.542 58.6637C65.9187 56.9363 67.6571 53.6696 68.9624 52.2526C70.3092 54.2544 71.6411 56.2502 72.2285 58.6308C72.6141 60.1881 72.0713 61.6738 70.8283 62.5479Z" fill="#FEFEFE"/>
<path d="M90.075 55.3581C89.0634 55.3432 88.0548 55.3581 86.9067 55.3581C87.9569 53.237 88.9477 51.2979 89.8822 49.3319C90.3598 48.3265 89.9889 47.3182 89.0782 46.8796C88.1972 46.456 87.242 46.7513 86.7436 47.7269C85.2959 50.561 83.8631 53.4041 82.4926 56.274C81.8251 57.6702 82.6617 58.8844 84.2339 58.9232C85.1565 58.947 86.0791 58.9262 87.2301 58.9262C85.9871 60.9279 84.8302 62.7716 83.697 64.6242C83.0117 65.743 83.1808 66.7722 84.1004 67.348C85.0201 67.9208 86.0079 67.6225 86.708 66.4978C88.393 63.7949 90.072 61.0861 91.7244 58.3653C92.7092 56.7483 91.9468 55.382 90.075 55.3552V55.3581Z" fill="#FEFEFE"/>
</g>
<defs>
<clipPath id="clip0_1527_481">
<rect width="103" height="100" fill="white"/>
</clipPath>
</defs>
</svg>
