<svg width="148" height="153" viewBox="0 0 148 153" fill="none" xmlns="http://www.w3.org/2000/svg">
<g clip-path="url(#clip0_1180_780)">
<path d="M144.359 92.6465C143.1 91.8603 141.845 91.0404 140.501 90.4302C139.328 89.8985 139.264 89.1535 139.465 88.0641C139.801 86.2559 140.072 84.4327 140.251 82.602C140.847 76.5221 140.583 70.4722 139.41 64.4709C139.238 63.5949 139.488 63.1232 140.281 62.7188C141.644 62.0225 142.958 61.2213 144.262 60.4127C147.959 58.129 149.043 54.3029 146.906 50.5217C142.266 42.3153 137.574 34.139 132.83 25.9963C130.666 22.2825 126.726 21.2941 122.958 23.3569C121.569 24.1169 120.195 24.9069 118.858 25.753C118.225 26.1535 117.804 26.1947 117.189 25.6631C110.989 20.2758 104.007 16.2176 96.2838 13.4697C95.4646 13.1777 95.2561 12.7584 95.2896 11.9535C95.3492 10.5121 95.3268 9.06701 95.3045 7.62192C95.2225 2.87857 92.3664 0.0333163 87.6706 0.00710996C85.7901 -0.00412132 83.9058 0.00710996 82.0253 0.00710996C74.6931 0.00710996 67.3646 -0.0153526 60.0323 0.0145975C56.0218 0.0295725 53.2177 2.50045 52.8118 6.43889C52.6256 8.2621 52.6778 10.119 52.7076 11.9572C52.7187 12.7621 52.5325 13.1851 51.7133 13.4772C43.9826 16.2176 37.0339 20.3282 30.8151 25.6856C30.2864 26.1423 29.8991 26.2247 29.2847 25.8428C27.8584 24.9518 26.4024 24.1057 24.9203 23.312C21.2561 21.3465 17.3498 22.29 15.257 25.8615C10.4421 34.0791 5.70535 42.3416 1.02821 50.6415C-1.01989 54.2729 0.071188 58.114 3.59393 60.3341C4.93079 61.1802 6.29371 62.0038 7.70504 62.7114C8.58014 63.1494 8.78496 63.6997 8.58759 64.5945C8.14073 66.6386 7.91358 68.7164 7.71622 70.7941C7.15019 76.7804 7.46672 82.7255 8.60249 88.6257C8.76261 89.4605 8.48333 89.8836 7.76463 90.2579C6.45011 90.9431 5.17656 91.7105 3.90674 92.478C-0.0181838 94.8441 -1.07203 98.6926 1.21068 102.702C5.79844 110.766 10.416 118.812 15.0745 126.834C17.3237 130.709 21.2412 131.746 25.1326 129.59C26.5178 128.822 27.8957 128.04 29.2288 127.19C29.8395 126.801 30.2305 126.846 30.7705 127.314C37.0191 132.72 44.031 136.815 51.8101 139.567C52.4581 139.795 52.7374 140.121 52.7076 140.851C52.648 142.394 52.6703 143.94 52.6927 145.482C52.7262 147.706 53.3704 149.664 55.0759 151.214C56.0106 152.064 57.1911 152.408 58.2486 153H89.7523C89.9049 152.899 90.0464 152.764 90.214 152.708C93.2489 151.686 94.9842 149.585 95.2226 146.373C95.3566 144.539 95.3268 142.693 95.2896 140.851C95.2747 140.125 95.5391 139.795 96.187 139.563C103.974 136.815 110.959 132.678 117.215 127.284C117.782 126.797 118.173 126.838 118.75 127.19C120.183 128.066 121.636 128.924 123.122 129.71C126.786 131.653 130.681 130.679 132.77 127.104C137.577 118.883 142.325 110.624 146.991 102.32C149.028 98.6964 147.889 94.8515 144.359 92.6427V92.6465ZM142.902 100.508C138.322 108.516 133.723 116.517 129.109 124.506C128.063 126.314 126.808 126.64 125.006 125.633C123.066 124.543 121.137 123.428 119.23 122.278C117.945 121.503 116.836 121.623 115.73 122.634C109.049 128.74 101.419 133.203 92.8244 135.988C91.4727 136.426 90.8061 137.276 90.8359 138.743C90.8806 140.933 90.8731 143.124 90.8396 145.317C90.8061 147.567 89.8751 148.511 87.6706 148.515C78.5584 148.526 69.4462 148.526 60.334 148.515C58.1257 148.515 57.1873 147.571 57.1501 145.332C57.1166 143.142 57.1091 140.948 57.1538 138.758C57.1836 137.295 56.5319 136.433 55.1765 135.995C46.5781 133.221 38.9405 128.77 32.2488 122.679C31.0907 121.627 29.9587 121.53 28.6255 122.361C26.8195 123.484 24.9613 124.521 23.1068 125.565C21.163 126.662 19.908 126.333 18.7834 124.382C14.2292 116.475 9.68612 108.557 5.1505 100.636C3.99238 98.6103 4.3387 97.4235 6.39053 96.2143C8.09605 95.2072 9.81273 94.2263 11.522 93.2305C13.4323 92.1186 13.7265 91.5009 13.2647 89.3445C12.2146 84.4064 11.7417 79.416 11.9428 74.3694C12.0843 70.8353 12.4939 67.3312 13.2424 63.8719C13.76 61.4759 13.5179 60.9555 11.4475 59.75C9.69357 58.7317 7.92475 57.7359 6.18572 56.6951C4.39456 55.6244 4.02217 54.3665 5.04623 52.5732C9.64888 44.5204 14.2702 36.4788 18.9138 28.4485C19.9378 26.6739 21.2002 26.3931 23.0398 27.4264C24.9799 28.5158 26.9126 29.624 28.8192 30.7696C30.0592 31.5146 31.1391 31.3911 32.193 30.4289C38.9108 24.2929 46.5781 19.7929 55.2286 17.0075C56.5952 16.5658 57.1799 15.6448 57.1464 14.1997C57.0942 12.0583 57.1129 9.91684 57.1389 7.77541C57.165 5.44305 58.0922 4.51085 60.3861 4.50337C64.9404 4.49214 69.4983 4.50337 74.0563 4.50337C78.5137 4.50337 82.9711 4.49962 87.4286 4.50337C89.9198 4.50711 90.8173 5.40561 90.8359 7.91768C90.8508 10.0591 90.8694 12.2005 90.8284 14.342C90.8024 15.7421 91.4466 16.592 92.735 17.0075C101.385 19.7854 109.06 24.2704 115.786 30.399C116.903 31.4173 118.02 31.4697 119.293 30.7022C121.155 29.5753 123.047 28.4934 124.942 27.4302C126.812 26.3819 128.078 26.7076 129.158 28.5832C133.742 36.5312 138.315 44.4867 142.869 52.4535C143.979 54.3927 143.61 55.6169 141.648 56.7775C139.946 57.7846 138.229 58.7692 136.52 59.765C134.513 60.9368 134.252 61.5021 134.729 63.7559C135.738 68.5479 136.203 73.3886 136.051 78.2854C135.935 81.9206 135.503 85.5221 134.751 89.0824C134.222 91.5758 134.442 92.0662 136.591 93.3166C138.304 94.3087 140.024 95.2858 141.722 96.2966C143.599 97.416 143.964 98.6515 142.895 100.523L142.902 100.508Z" fill="#404041"/>
<path d="M74.0206 31.1628C48.9145 31.2452 28.9473 51.3866 28.9063 76.5522C28.8616 101.516 49.1863 121.927 73.9721 121.844C99.0782 121.762 118.923 101.62 119.124 76.4549C119.008 51.4915 98.8064 31.0805 74.0243 31.1628H74.0206ZM73.9647 117.355C51.6366 117.445 33.3414 98.9137 33.3302 76.5073C33.3191 54.1158 51.6105 35.704 73.9573 35.6142C96.1736 35.5243 114.648 53.895 114.625 76.4249C114.603 99.1346 96.6726 117.266 73.9684 117.359L73.9647 117.355Z" fill="#404041"/>
<path d="M128.758 60.63C126.047 51.1807 121.187 42.9969 114.332 36.0073C111.896 33.5252 109.215 31.3238 106.37 29.3284C105.115 28.4486 103.886 28.6246 103.101 29.699C102.348 30.7323 102.594 31.9865 103.775 32.9486C104.426 33.4802 105.115 33.9707 105.782 34.4836C113.125 40.1179 118.618 47.1974 122.289 55.7257C123.291 58.0543 123.98 60.484 124.829 62.8613C125.261 64.0668 126.218 64.5347 127.432 64.254C128.527 64.0031 129.071 63.2207 129.078 62.0826C129.056 61.8767 129.048 61.6782 129.004 61.4836C128.937 61.1953 128.836 60.9145 128.754 60.63H128.758Z" fill="#404041"/>
<path d="M69.4909 129.16C69.2526 129.104 68.9993 129.104 68.7536 129.077C58.8072 127.977 49.8216 124.446 41.8973 118.28C40.337 117.067 38.8735 115.72 37.3616 114.443C36.6616 113.855 35.8907 113.672 35.0194 114.054C34.215 114.406 33.7793 115.057 33.6974 115.892C33.6043 116.869 34.1815 117.539 34.8592 118.176C39.3353 122.376 44.3252 125.824 49.87 128.426C55.9138 131.26 62.2741 132.978 69.0887 133.596C70.284 133.619 71.2076 132.926 71.3751 131.75C71.5576 130.466 70.8501 129.482 69.4909 129.163V129.16Z" fill="#404041"/>
<path d="M27.3087 101.224C26.6607 100.441 25.6255 100.434 24.7243 100.977C23.7412 101.568 23.3726 102.583 23.8232 103.549C24.7579 105.563 25.8973 107.491 27.3199 109.205C27.9417 109.954 28.8578 110.085 29.7478 109.64C30.5633 109.232 31.0064 108.547 30.9543 107.401C30.9543 107.397 30.9804 107.173 30.8947 107.008C29.8595 104.979 28.7647 102.972 27.3124 101.22L27.3087 101.224Z" fill="#404041"/>
<path d="M89.3511 25.7422C91.2317 26.8204 93.3319 27.4045 95.3279 28.0596C96.4078 27.9361 97.201 27.528 97.5063 26.4872C97.8229 25.4128 97.5845 24.402 96.5754 23.9452C94.7917 23.1403 92.9409 22.4477 91.0753 21.8637C90.014 21.5305 89.0942 22.0921 88.666 23.1066C88.2452 24.095 88.3681 25.1807 89.3511 25.746V25.7422Z" fill="#404041"/>
<path d="M83.4014 64.8084C80.5378 64.5014 77.663 64.6998 74.7956 64.6773C72.4906 64.6586 71.7868 65.3961 71.7719 67.721C71.7533 70.6074 71.7682 73.4939 71.7682 76.3841C71.7682 79.4202 71.7495 82.4564 71.7756 85.4926C71.7942 87.3084 72.5762 88.2593 73.9652 88.2817C75.3728 88.3042 76.1735 87.357 76.2256 85.56C76.2554 84.5642 76.3187 83.5609 76.2107 82.5762C76.0729 81.3333 76.5942 81.0975 77.7077 81.1274C79.5845 81.1798 81.465 81.236 83.3456 81.0263C87.3673 80.5846 90.5586 76.9718 90.5177 72.8649C90.473 68.7618 87.3673 65.2351 83.4051 64.8084H83.4014ZM82.7833 76.5563C80.8655 76.6948 78.9328 76.6087 77.0076 76.6574C76.2963 76.6761 76.2107 76.2867 76.2256 75.7214C76.2442 74.778 76.2293 73.8346 76.2293 72.8911C76.2293 70.3978 77.488 69.1524 80.0053 69.1549C80.9921 69.1549 81.9901 69.1361 82.9583 69.2821C84.7197 69.5442 86.0602 71.1915 86.0491 72.9286C86.0416 74.7331 84.6191 76.4252 82.7833 76.56V76.5563Z" fill="#232C61"/>
<path d="M68.5686 84.2532C66.4572 78.5852 64.3271 72.9283 62.2046 67.264C61.3146 64.8942 60.9906 64.6659 58.5366 64.6621C56.0677 64.6621 55.6841 64.9204 54.8239 67.2191C53.7813 70.0045 52.7498 72.7936 51.7108 75.5789C50.549 78.69 49.3611 81.7898 48.229 84.9121C47.6779 86.4396 48.1881 87.7124 49.4095 88.143C50.7016 88.5997 51.7592 88.0157 52.3997 86.4733C52.6083 85.9716 52.8354 85.4662 52.962 84.9383C53.219 83.8601 53.7775 83.4371 54.9431 83.5045C56.8683 83.6205 58.8047 83.5344 60.7337 83.5344C62.5683 83.5344 63.8257 84.4154 64.5059 86.1775C64.6474 86.5481 64.7889 86.9263 65.0012 87.2557C65.623 88.2179 66.5354 88.5024 67.5818 88.1467C68.5798 87.8098 69.1048 87.0311 69.008 85.9641C68.9559 85.3801 68.7734 84.7961 68.5686 84.2457V84.2532ZM61.1433 79.0681C59.4191 79.0494 57.695 79.0381 55.9709 79.0681C55.066 79.0831 55.3378 78.6451 55.524 78.1471C56.4773 75.6089 57.4157 73.0669 58.5105 70.113C59.6239 73.1193 60.5847 75.7436 61.5752 78.353C61.7652 78.8547 61.7428 79.0718 61.1395 79.0644L61.1433 79.0681Z" fill="#232C61"/>
<path d="M97.6892 68.1254C97.6892 67.5825 97.6519 67.0322 97.5551 66.5006C97.3317 65.2876 96.5199 64.6998 95.3432 64.7522C94.1627 64.8009 93.4179 65.4598 93.2802 66.684C93.228 67.1258 93.2243 67.5788 93.2243 68.0243C93.2243 73.6961 93.2206 79.3641 93.2243 85.0359C93.2243 85.5301 93.2243 86.0355 93.3062 86.5222C93.4924 87.5892 94.1888 88.1732 95.2389 88.2556C96.3486 88.3417 97.1716 87.8625 97.4918 86.7543C97.6408 86.2377 97.678 85.6799 97.6817 85.137C97.7004 82.2506 97.6892 79.3679 97.6892 76.4814C97.6892 73.595 97.6966 70.9107 97.6817 68.1254H97.6892Z" fill="#232C61"/>
</g>
<defs>
<clipPath id="clip0_1180_780">
<rect width="148" height="153" fill="white"/>
</clipPath>
</defs>
</svg>
