<svg width="153" height="151" viewBox="0 0 153 151" fill="none" xmlns="http://www.w3.org/2000/svg">
<g clip-path="url(#clip0_1180_770)">
<path d="M152.927 147.489C152.569 145.941 151.433 145.242 149.266 145.234C149.132 145.234 148.991 145.21 148.861 145.237C147.428 145.534 147.205 144.857 147.208 143.552C147.246 116.561 147.236 89.5709 147.235 62.582C147.235 62.0849 147.259 61.5829 147.197 61.0921C146.994 59.4624 145.958 58.4442 144.319 58.4347C138.544 58.4013 132.769 58.4013 126.995 58.4347C125.362 58.4442 124.316 59.4751 124.121 61.0985C124.063 61.5893 124.087 62.0912 124.087 62.5884C124.087 89.6694 124.079 116.75 124.109 143.83C124.109 144.921 123.882 145.297 122.724 145.263C119.839 145.174 116.946 145.154 114.063 145.269C112.749 145.321 112.551 144.854 112.553 143.682C112.589 128.039 112.58 112.397 112.575 96.7537C112.575 94.1503 111.569 93.1464 108.973 93.1417C103.784 93.1337 98.596 93.1385 93.4076 93.1401C90.2667 93.1401 89.4284 93.9947 89.4284 97.1906C89.4284 112.743 89.4157 128.295 89.4537 143.847C89.4569 144.962 89.1859 145.294 88.0496 145.261C85.1194 145.175 82.1845 145.188 79.2528 145.256C78.2179 145.28 77.8867 145.037 77.8946 143.935C77.9485 136.61 77.9216 129.286 77.9216 121.964C77.9216 109.803 77.9216 97.6401 77.9216 85.4791C77.9216 82.4754 76.9771 81.543 73.9486 81.543C68.6255 81.543 63.3008 81.5319 57.9777 81.5494C56.0063 81.5557 54.8858 82.6613 54.7797 84.623C54.7575 85.028 54.7733 85.4362 54.7733 85.8429C54.7733 105.193 54.7654 124.543 54.7939 143.892C54.7939 144.908 54.6053 145.294 53.4849 145.263C50.5104 145.175 47.5279 145.175 44.5534 145.263C43.4314 145.296 43.2412 144.907 43.2444 143.892C43.2792 133.945 43.2697 124 43.2618 114.053C43.2602 111.536 42.2349 110.513 39.7294 110.508C34.4507 110.498 29.1719 110.502 23.8932 110.506C21.0438 110.508 20.1167 111.453 20.1151 114.35C20.1136 124.206 20.0977 134.061 20.1389 143.917C20.1437 144.985 19.8743 145.371 18.7998 145.245C16.9583 145.027 15.3118 145.345 14.3594 147.2V148.829C14.5274 150.107 15.25 150.83 16.5257 150.998H150.824C152.536 150.042 153.246 148.859 152.929 147.488L152.927 147.489ZM36.1986 145.162C33.1813 145.096 30.1624 145.107 27.1434 145.158C26.2607 145.172 25.9074 145.026 25.9121 144.016C25.9549 135.122 25.9454 126.23 25.9216 117.336C25.92 116.579 26.0024 116.229 26.9121 116.247C30.1101 116.31 33.3097 116.298 36.5077 116.253C37.2937 116.242 37.468 116.488 37.4617 117.24C37.4268 121.708 37.4442 126.178 37.4442 130.647C37.4442 135.071 37.4062 139.497 37.4712 143.919C37.487 144.961 37.1843 145.185 36.197 145.162H36.1986ZM70.6413 145.166C67.803 145.081 64.9584 145.081 62.1202 145.166C60.9348 145.201 60.5545 144.938 60.5592 143.655C60.6115 129.601 60.5925 115.546 60.5925 101.492C60.5925 97.154 60.621 92.8145 60.5703 88.4781C60.5592 87.5139 60.8492 87.2709 61.781 87.2883C64.8015 87.3455 67.8252 87.3535 70.8441 87.2852C71.8473 87.2629 72.1309 87.5107 72.1246 88.5464C72.0818 97.81 72.0993 107.074 72.0993 116.339C72.0993 125.604 72.0707 134.596 72.1341 143.723C72.142 144.965 71.7839 145.201 70.6413 145.167V145.166ZM105.366 145.166C102.349 145.088 99.3266 145.113 96.3077 145.156C95.5217 145.167 95.2269 145.018 95.2285 144.136C95.2586 129.367 95.257 114.598 95.2301 99.8289C95.2301 99.0109 95.5233 98.887 96.2348 98.8949C99.39 98.9283 102.545 98.9505 105.699 98.8838C106.64 98.8648 106.776 99.1967 106.773 100.027C106.745 107.39 106.756 114.752 106.756 122.113C106.756 129.34 106.726 136.566 106.788 143.792C106.797 144.962 106.455 145.193 105.364 145.166H105.366ZM140.054 145.169C137.035 145.08 134.012 145.102 130.991 145.161C130.085 145.178 129.887 144.891 129.888 144.027C129.91 117.773 129.91 91.5215 129.887 65.2681C129.887 64.3801 130.115 64.1435 130.996 64.1594C134.061 64.2149 137.129 64.2292 140.194 64.153C141.213 64.1276 141.443 64.3976 141.439 65.4079C141.401 78.4663 141.414 91.5247 141.414 104.585C141.414 117.645 141.398 130.701 141.441 143.76C141.444 144.873 141.199 145.204 140.054 145.169Z" fill="#404041"/>
<path d="M34.0416 87.0709C41.2917 85.4492 45.1553 77.9518 42.2537 71.1137C42.0191 70.5593 41.7434 70.1431 42.4121 69.6158C47.9001 65.2826 53.3643 60.9176 58.8173 56.5399C59.2833 56.1666 59.5606 56.1952 60.0661 56.497C65.749 59.8915 71.8169 58.6843 75.8374 53.3583C76.2368 52.8278 76.5632 52.7118 77.1718 52.8913C81.0132 54.0223 84.8562 55.1421 88.715 56.2079C89.4218 56.4033 89.5993 56.64 89.5327 57.3897C88.9384 64.1469 94.1776 69.8906 100.925 69.9366C109.397 69.9954 115.056 61.2115 111.44 53.5267C111.015 52.6245 111.223 52.2162 111.83 51.6126C117.495 45.9753 123.15 40.3253 128.761 34.634C129.508 33.8763 130.008 33.7794 131.032 34.2115C135.336 36.0255 139.463 35.5378 143.056 32.496C146.631 29.4685 147.954 25.5085 146.837 20.9323C145.721 16.364 142.74 13.4381 138.178 12.4025C133.599 11.3636 129.647 12.7773 126.707 16.4212C123.728 20.1143 123.319 24.2775 125.259 28.6202C125.549 29.2683 125.641 29.6511 125.058 30.2277C119.191 36.0477 113.359 41.9026 107.538 47.7687C107.055 48.2563 106.74 48.323 106.081 48.0133C101.329 45.7847 96.3075 46.6869 92.6879 50.4213C92.119 51.0074 91.6547 51.063 90.9447 50.8518C87.6247 49.8622 84.3158 48.8186 80.9561 47.991C78.9926 47.5081 77.3397 47.0141 77.6678 44.4901C77.6836 44.3678 77.5933 44.2328 77.56 44.1026C75.9071 37.5805 69.4018 33.8318 63.0185 35.7221C56.7572 37.5758 53.35 44.2932 55.4688 50.6199C55.659 51.1885 55.7968 51.5904 55.1629 52.0907C49.5989 56.4732 44.0714 60.9033 38.5549 65.3461C38.0208 65.7766 37.6437 65.8481 37.0161 65.5145C34.582 64.2231 31.9988 63.8911 29.2858 64.4375C23.1719 65.6686 19.0817 71.9365 20.3764 78.1377C21.6695 84.3293 27.9483 88.4338 34.0447 87.0694L34.0416 87.0709ZM135.748 17.8619C138.932 17.9334 141.43 20.5161 141.406 23.7136C141.382 26.8968 138.81 29.4558 135.642 29.4478C132.428 29.4399 129.864 26.792 129.918 23.5389C129.97 20.3652 132.614 17.792 135.75 17.8619H135.748ZM101.028 52.5895C104.239 52.6101 106.803 55.2676 106.748 58.5159C106.694 61.6927 104.089 64.2183 100.911 64.1754C97.7527 64.1326 95.233 61.5275 95.2584 58.3316C95.2837 55.1548 97.8811 52.5704 101.028 52.5895ZM66.3544 41.0576C69.5587 41.0608 72.0832 43.5832 72.0911 46.7886C72.099 50.002 69.6015 52.545 66.4082 52.572C63.1421 52.599 60.5827 50.0433 60.6002 46.7727C60.6192 43.5609 63.1421 41.056 66.3528 41.0592L66.3544 41.0576ZM31.7199 69.9525C34.8783 69.9779 37.4377 72.5718 37.4361 75.7503C37.4361 78.9398 34.8878 81.521 31.7247 81.5385C28.4982 81.5559 25.915 78.9414 25.9436 75.6867C25.9721 72.5051 28.5679 69.9271 31.7183 69.9525H31.7199Z" fill="#232C61"/>
</g>
<defs>
<clipPath id="clip0_1180_770">
<rect width="153" height="151" fill="white"/>
</clipPath>
</defs>
</svg>
