<svg width="90" height="91" viewBox="0 0 90 91" fill="none" xmlns="http://www.w3.org/2000/svg">
<path d="M14.0754 24.8963C17.1749 28.0261 20.1463 31.0421 23.1381 34.0374C24.3549 35.2557 24.8441 36.6809 24.3728 38.3467C23.5121 41.3886 19.844 42.3275 17.5463 40.0927C15.7302 38.326 13.9729 36.4947 12.1901 34.6944C8.64491 31.1145 5.09973 27.5346 1.5571 23.9522C-0.515188 21.8544 -0.520311 19.529 1.54942 17.439C6.87232 12.0511 12.1978 6.66576 17.5386 1.29593C19.137 -0.310363 21.4424 -0.424174 23.0844 0.962256C24.6981 2.32282 25.0491 4.71027 23.8631 6.44848C23.5941 6.84424 23.2483 7.18826 22.9102 7.52969C20.2026 10.2689 17.4874 13.0004 14.7824 15.7396C14.5672 15.9569 14.2701 16.1199 14.1804 16.4794C14.5083 16.6812 14.8618 16.5699 15.1922 16.5699C35.8537 16.5777 56.5151 16.6165 77.1766 16.5441C81.8796 16.5286 85.1097 19.811 85.7065 23.3469C85.8192 24.0091 85.8346 24.6945 85.8372 25.367C85.85 29.4617 85.8474 33.5589 85.85 37.6535C85.85 40.1134 84.0979 41.9706 81.7797 41.968C79.464 41.9654 77.7171 40.0979 77.7222 37.6406C77.7299 33.6417 77.7171 29.6427 77.7401 25.6438C77.7427 25.0567 77.6556 24.798 76.9742 24.798C56.1539 24.8161 35.3311 24.8135 14.5109 24.8161C14.4263 24.8161 14.3392 24.8446 14.0728 24.8911L14.0754 24.8963Z" fill="#404041"/>
<path d="M75.8673 74.337C75.4395 74.337 75.1014 74.337 74.7607 74.337C54.13 74.337 33.5018 74.3008 12.8711 74.3654C8.23216 74.381 5.32481 71.365 4.49999 68.5792C4.31556 67.9584 4.15162 67.3376 4.15162 66.6883C4.14393 62.3351 4.11832 57.9818 4.14393 53.6285C4.15418 52.0015 4.979 50.8039 6.41603 50.1003C7.85049 49.3968 9.27215 49.5235 10.5785 50.4573C11.7594 51.3031 12.2768 52.493 12.2743 53.9492C12.264 57.6895 12.2871 61.4323 12.2564 65.1726C12.2512 65.8865 12.3691 66.1607 13.176 66.1581C33.8374 66.1322 54.4988 66.1374 75.1603 66.1322C75.3652 66.1322 75.5983 66.2279 75.8007 66.0469C75.7546 65.6847 75.4395 65.5347 75.2295 65.32C72.3708 62.4152 69.4967 59.5234 66.6406 56.6186C65.4802 55.4417 65.1293 54.0165 65.6083 52.4412C66.077 50.8996 67.1606 49.9606 68.7231 49.6296C70.0705 49.345 71.2924 49.6994 72.2529 50.6616C77.8038 56.2306 83.347 61.8074 88.8466 67.4255C90.4912 69.1068 90.3451 71.5512 88.6161 73.3075C84.9685 77.0116 81.3029 80.7001 77.645 84.3938C75.9287 86.1268 74.2176 87.865 72.4937 89.5903C70.6904 91.3932 68.1852 91.4734 66.5228 89.7921C64.8449 88.0978 64.9192 85.5991 66.7174 83.7704C69.7324 80.7053 72.7576 77.6504 75.7751 74.5879C75.7956 74.5672 75.7981 74.5284 75.8673 74.3344V74.337Z" fill="#F48700"/>
</svg>
