<svg width="206" height="105" viewBox="0 0 206 105" fill="none" xmlns="http://www.w3.org/2000/svg">
<g clip-path="url(#clip0_1495_1230)">
<path d="M70.7992 74.6143C68.6004 73.4612 66.3047 72.5559 63.9338 71.8554C61.821 71.2304 59.6812 70.6754 57.5576 70.0934C56.2566 69.7378 55.4878 68.7624 55.176 67.5824C54.891 66.4831 56.1329 66.2945 56.7512 65.7988C63.6166 60.3187 69.0251 53.6639 70.181 44.7945C71.1379 37.4392 71.1272 29.9007 69.1756 22.5778C65.794 9.88249 54.9609 0.711284 42.6225 0.0592777C29.3487 -0.641225 17.7415 6.94576 13.0534 19.5225C9.89221 28.004 9.94598 36.8788 11.2255 45.5758C12.505 54.2728 17.9995 60.7228 24.8112 66.0197C26.3918 67.2483 26.4671 67.8356 25.0692 69.269C24.4725 69.8833 23.7037 70.0503 22.9241 70.2658C18.5479 71.4836 14.1125 72.5506 10.0965 74.7868C4.61816 77.842 1.12363 82.3145 0.344077 88.6891C0.483858 89.4273 0.564501 90.1547 8.80775e-10 90.7744L9.82483e-10 101.255C1.42469 104.062 3.65582 105.113 6.81703 104.989C11.8384 104.79 16.8705 104.935 21.8973 104.935C25.8542 104.935 29.8057 104.968 33.7626 104.914C35.4776 104.892 36.5098 103.912 36.655 102.187C36.8001 100.441 35.8593 99.396 34.2249 99.0026C33.5851 98.8517 32.8916 98.8949 32.225 98.8949C25.3219 98.8895 18.4135 98.9164 11.5105 98.8733C9.73093 98.8625 7.36002 99.6546 6.33317 98.523C5.45147 97.5531 6.03748 95.2145 6.04285 93.4794C6.04285 85.2782 8.80085 81.3661 16.5372 78.5425C17.1662 78.3162 17.8275 78.1654 18.4189 77.869C19.4404 77.3625 20.2575 77.6265 21.1984 78.1869C26.08 81.1075 31.0368 83.8933 35.9023 86.8408C39.1011 88.7753 42.1494 88.7861 45.3321 86.8462C49.1062 84.5507 53.2083 82.7132 56.6867 80.0459C60.5253 77.1038 63.8693 77.7666 67.6595 79.7711C71.896 82.0073 74.5249 85.235 75.0303 90.0631C75.1539 91.2648 75.2023 92.4718 75.2023 93.6788C75.2023 95.3438 75.74 97.5154 74.9066 98.5392C74.0249 99.6277 71.7723 98.8571 70.1218 98.8679C62.95 98.911 55.7781 98.8679 48.6009 98.8949C46.2515 98.9056 44.9612 100.091 45.0042 102.031C45.0472 103.901 46.273 104.925 48.5686 104.93C57.6168 104.941 66.6703 104.952 75.7185 104.93C79.0409 104.919 81.1484 102.872 81.2237 99.5846C81.2828 96.8311 81.3205 94.0722 81.1968 91.324C80.8689 83.8179 77.5356 78.1492 70.7938 74.6197L70.7992 74.6143ZM41.1871 6.08899C54.2083 6.49852 63.4661 17.0438 64.1865 29.5505C62.45 29.1409 61.2135 27.9878 60.1221 26.7431C56.9232 23.1004 53.0793 22.0389 48.5579 23.7255C43.2677 25.6977 38.0205 25.7192 32.7303 23.7417C28.1229 22.0174 24.2306 23.122 21.0102 26.8508C19.9672 28.0578 18.7522 29.114 16.9834 29.5989C17.8759 15.993 28.4993 5.69563 41.1925 6.09438L41.1871 6.08899ZM17.1716 45.1717C16.4351 42.4828 16.7845 39.7024 16.7146 36.9542C16.6985 36.3346 16.8867 35.9843 17.5479 35.828C21.0693 34.982 23.8005 32.859 26.1767 30.2456C27.2627 29.0547 28.5046 28.7799 29.9831 29.2271C30.5583 29.3996 31.1551 29.5073 31.7196 29.7175C37.6711 31.9106 43.6333 31.9591 49.5417 29.669C52.2728 28.6129 54.3588 29.087 56.2566 31.3933C57.891 33.3817 60.0737 34.8473 62.5898 35.4454C64.3048 35.8496 64.7026 36.6902 64.5037 38.2259C64.4177 38.8887 64.4876 39.5676 64.4876 40.2358C65.3155 50.8296 54.1921 63.4979 43.0795 65.7126C39.1603 66.4939 35.5098 65.3731 32.1013 63.471C24.7252 59.3542 19.435 53.4807 17.1662 45.1771L17.1716 45.1717ZM41.2785 82.1528C40.7194 82.4762 40.1226 82.2929 39.5689 81.9696C35.6657 79.6741 31.7572 77.3894 27.6391 74.9754C28.8702 74.1024 29.8917 73.3373 30.3648 72.2326C31.1874 70.2982 32.1927 70.1042 34.155 70.8424C38.5474 72.4913 43.0795 72.3889 47.488 70.7185C48.9288 70.1742 49.8858 69.9964 50.5686 71.7477C51.0793 73.0571 52.2029 74.0108 53.6007 74.9754C49.4181 77.4164 45.3537 79.7981 41.2785 82.1474L41.2785 82.1528Z" fill="#404041"/>
<path d="M0.344077 88.6945C0.220424 88.6729 0.107524 88.6945 0 88.7591L0 90.7744C0.478482 90.1386 -0.026881 89.3411 0.344077 88.6891L0.344077 88.6945Z" fill="#F48700"/>
<path d="M205.927 91.2647C205.621 83.8286 202.304 78.2192 195.675 74.679C193.782 73.666 191.82 72.8307 189.766 72.2165C187.331 71.489 184.89 70.7993 182.439 70.1419C181.051 69.7701 180.202 68.7948 179.89 67.5446C179.621 66.4885 180.879 66.2784 181.503 65.7826C188.25 60.3941 193.54 53.8579 194.863 45.177C195.922 38.2259 195.766 31.0969 194.282 24.1296C191.454 10.847 180.568 1.00764 167.762 0.0808244C154.407 -0.889103 142.397 6.90803 137.709 19.7003C134.644 28.0632 134.719 36.8087 135.918 45.371C137.144 54.1489 142.665 60.6743 149.536 66.0089C151.117 67.2375 151.171 68.0512 149.676 69.4091C149.16 69.8779 148.52 70.0449 147.87 70.2227C144.063 71.2573 140.235 72.2165 136.633 73.8761C129.935 76.9637 125.752 81.9481 124.919 89.4704C124.553 92.752 124.747 96.0497 124.747 99.3367C124.747 102.888 126.832 104.919 130.397 104.935C135.02 104.962 139.644 104.941 144.273 104.941C149.031 104.941 153.789 104.962 158.547 104.93C160.552 104.919 161.708 103.874 161.805 102.144C161.907 100.334 160.719 99.0727 158.724 98.9056C158.192 98.8625 157.654 98.8895 157.117 98.8895C150.214 98.8895 143.311 98.9164 136.407 98.8679C134.563 98.8571 132.101 99.7031 131.047 98.4907C130.144 97.4453 130.762 95.0421 130.768 93.2369C130.784 85.4667 133.504 81.5116 140.735 78.7204C141.359 78.4779 142.036 78.3593 142.622 78.0522C143.95 77.3679 145.058 77.6157 146.327 78.3863C151.074 81.2691 155.923 83.9741 160.67 86.857C163.875 88.8022 166.928 88.7699 170.1 86.8462C173.874 84.5561 177.982 82.7186 181.444 80.0351C185.293 77.0499 188.637 77.8528 192.417 79.7819C197.341 82.2929 199.761 86.2373 199.917 91.6797C199.97 93.4902 199.804 95.3223 199.981 97.1166C200.142 98.7494 199.476 98.9326 198.078 98.9218C189.632 98.8571 181.186 98.8733 172.745 98.9056C170.53 98.9164 169.272 100.102 169.278 101.966C169.283 103.858 170.503 104.93 172.772 104.93C182.019 104.946 191.272 104.957 200.519 104.925C203.83 104.914 205.906 102.834 205.965 99.5307C206.013 96.7772 206.051 94.0183 205.938 91.2701L205.927 91.2647ZM164.708 6.10515C177.342 5.69562 188.094 15.6751 188.933 29.5451C187.256 29.1733 186.046 28.0956 185.008 26.8885C181.729 23.0789 177.772 22.0227 173.1 23.7794C167.869 25.7462 162.676 25.6761 157.461 23.7363C152.848 22.0227 148.956 23.1166 145.741 26.8454C144.692 28.0578 143.445 29.0655 141.832 29.6043C142.198 18.1322 150.95 6.547 164.713 6.09976L164.708 6.10515ZM141.864 45.0262C141.176 42.3265 141.547 39.5461 141.456 36.8033C141.434 36.0759 141.87 35.925 142.423 35.7849C145.719 34.9497 148.364 33.0422 150.585 30.5527C151.929 29.0439 153.402 28.6667 155.246 29.3942C155.74 29.5882 156.289 29.642 156.789 29.8199C162.482 31.8459 168.213 31.986 173.842 29.7821C176.992 28.5482 179.288 29.1786 181.396 31.7705C182.842 33.5541 184.858 34.8635 187.094 35.3485C189.105 35.7849 189.481 36.8411 189.261 38.5708C189.191 39.0988 189.25 39.6431 189.25 40.1819C189.992 51.099 178.74 63.5302 167.869 65.6964C163.111 66.6448 158.864 64.942 154.972 62.404C148.542 58.2118 143.805 52.6455 141.864 45.0316L141.864 45.0262ZM169.385 80.3207C166.546 82.3845 164.192 82.4222 161.342 80.3315C158.617 78.3324 155.531 76.829 152.375 74.97C153.757 74.0216 154.821 73.0571 155.402 71.7638C156.047 70.3359 156.816 70.0449 158.289 70.6322C163.1 72.5452 167.966 72.3673 172.767 70.5622C173.928 70.1257 174.503 70.1688 175.068 71.3866C175.713 72.7876 176.74 73.9677 178.369 74.9323C175.251 76.7751 172.154 78.3162 169.391 80.3261L169.385 80.3207Z" fill="#404041"/>
<path d="M115.945 75.4981C115.279 75.4496 114.607 75.4873 113.935 75.4873C108.876 75.4873 103.822 75.4873 98.3382 75.4873C99.3973 74.5497 100.15 73.93 100.843 73.2564C102.214 71.9201 102.376 70.2389 101.306 68.9457C100.161 67.5554 98.4511 67.4207 96.8651 68.7463C94.2953 70.8963 91.7469 73.0732 89.2793 75.3364C87.2148 77.2278 87.1933 79.7765 89.247 81.6786C91.7523 84.0011 94.3544 86.2211 96.978 88.4089C98.4134 89.6051 100.209 89.4219 101.284 88.1556C102.365 86.8785 102.214 85.1488 100.865 83.8394C100.139 83.1335 99.3758 82.4761 98.3328 81.5332C104.515 81.5332 110.198 81.5601 115.881 81.517C117.736 81.5008 119.01 80.2076 119.026 78.5533C119.042 76.8937 117.779 75.6328 115.934 75.5034L115.945 75.4981Z" fill="#F48700"/>
<path d="M109.759 27.8908C108.275 26.6676 106.592 26.8939 105.49 28.2518C104.496 29.475 104.619 31.1886 105.856 32.4171C106.582 33.1392 107.377 33.7912 108.463 34.7611C102.539 34.7611 97.0711 34.7503 91.6035 34.7611C89.1681 34.7665 87.7004 35.9843 87.7595 37.8864C87.8133 39.7239 89.195 40.7962 91.5659 40.8016C97.0389 40.8124 102.517 40.8016 108.544 40.8016C107.415 41.8093 106.646 42.4451 105.936 43.1402C104.603 44.4442 104.463 46.1955 105.549 47.451C106.641 48.7065 108.426 48.8682 109.856 47.6719C112.474 45.4788 115.071 43.2534 117.576 40.9309C119.571 39.0827 119.608 36.577 117.64 34.7396C115.098 32.3632 112.442 30.1001 109.759 27.88L109.759 27.8908Z" fill="#F48700"/>
</g>
<defs>
<clipPath id="clip0_1495_1230">
<rect width="206" height="105" fill="white"/>
</clipPath>
</defs>
</svg>
