<svg width="150" height="131" viewBox="0 0 150 131" fill="none" xmlns="http://www.w3.org/2000/svg">
<g clip-path="url(#clip0_1495_1236)">
<path d="M149.699 77.9393C149.401 75.6294 149.013 73.3312 148.399 71.0837C145.596 60.8587 140.033 52.4918 131.444 46.1582C131.1 45.905 130.368 45.7492 130.728 45.1065C131.624 43.5017 132.599 41.9397 133.543 40.3582C134.858 40.7283 135.895 41.6242 137.093 42.2162C137.179 42.2591 137.262 42.3136 137.348 42.3565C138.812 43.1121 139.841 42.8667 140.687 41.4567C142.131 39.0416 143.545 36.6071 144.934 34.1609C145.784 32.6652 145.514 31.5784 144.042 30.7215C140.303 28.5401 136.553 26.3783 132.787 24.2515C131.299 23.4101 130.211 23.7101 129.33 25.1864C127.89 27.6014 126.48 30.0398 125.102 32.4899C124.292 33.9272 124.605 34.9283 125.975 35.8242C127.177 36.611 129.303 37.0005 129.432 38.1224C129.573 39.3338 128.097 40.6893 127.451 42.041C126.974 43.042 126.508 42.9018 125.701 42.4305C121.466 39.9609 116.917 38.286 112.117 37.2849C109.017 36.6383 109.087 36.6695 108.978 33.4715C108.927 32.0186 109.228 31.446 110.825 31.555C112.638 31.6797 113.538 30.8695 113.574 29.2802C113.64 26.3199 113.636 23.3556 113.574 20.3913C113.546 19.0436 112.732 18.1867 111.346 18.1789C105.294 18.1477 99.2418 18.1438 93.1858 18.1867C91.89 18.1944 91.0562 18.9618 91.0366 20.294C90.9935 23.3517 90.9975 26.4134 91.0366 29.4711C91.0523 30.6436 91.7608 31.2707 92.9118 31.555C93.7769 31.7693 94.9865 31.0564 95.4446 31.964C95.8165 32.7041 95.5268 33.7714 95.5307 34.6946C95.5307 34.9867 95.4916 35.2828 95.5385 35.5671C95.6951 36.4825 95.2997 36.8408 94.3915 36.9577C92.0701 37.2576 89.7878 37.7991 87.5956 38.6132C86.4681 39.0338 86.2489 38.7807 86.2528 37.616C86.2998 29.0699 86.2998 20.5199 86.2724 11.9699C86.2528 4.75205 81.5043 0.0466326 74.2542 0.0310517C65.8102 0.0154709 57.3623 0.0271565 48.9182 0.0310517C48.3349 0.0310517 47.7477 -0.00790041 47.184 0.218022C46.2093 0.607544 45.6925 1.34374 45.763 2.36039C45.8374 3.43158 46.448 4.16777 47.5598 4.35085C48.0374 4.42875 48.5346 4.40148 49.02 4.40538C57.464 4.40538 65.912 4.39759 74.356 4.40927C79.0302 4.41706 81.8644 7.18656 81.8801 11.8141C81.9075 21.0925 81.8762 30.367 81.9114 39.6454C81.9114 40.5608 81.5982 40.997 80.7957 41.3982C74.9276 44.3391 69.8737 48.3239 65.6967 53.376C65.086 54.1161 64.4518 54.4122 63.4731 54.4083C55.6633 54.3654 47.8534 54.4238 40.0397 54.3537C38.4894 54.342 37.3855 54.8173 36.3129 55.9001C32.1985 60.0485 28.0058 64.119 23.8328 68.209C23.4883 68.5479 23.2142 69.027 22.6388 69.1244C22.6192 68.9842 22.6075 68.9374 22.6075 68.8868C22.6035 65.0033 22.6075 61.1158 22.5957 57.2323C22.5918 55.0743 21.9028 54.3966 19.6988 54.3888C17.2091 54.381 14.7193 54.3888 12.2296 54.3888C7.17567 54.381 4.41579 51.6621 4.41579 46.6802C4.41579 35.2165 4.41579 23.7568 4.41579 12.2932C4.41579 7.0775 7.09737 4.40927 12.3431 4.40927C20.885 4.40927 29.4308 4.41706 37.9727 4.40148C39.6325 4.40148 40.5133 3.62244 40.5212 2.25522C40.529 0.91137 39.613 0.0466326 37.9962 0.0427374C29.0628 0.0271565 20.1294 -0.0663286 11.1961 0.0777943C4.82292 0.18686 0.0587207 5.04419 0.0352324 11.2259C-0.0117441 23.3673 -0.0117441 35.5126 0.0352324 47.654C0.0587207 53.2748 4.24746 57.8672 9.82201 58.6073C12.1082 58.9111 14.4061 58.7748 16.6962 58.7281C17.8667 58.7047 18.2582 58.9267 18.2347 60.1966C18.1447 64.7111 18.2073 69.2296 18.1917 73.748C18.1877 74.901 18.1917 76.0306 19.4561 76.5915C20.8302 77.1992 21.7423 76.4357 22.6544 75.532C28.0215 70.2267 33.4238 64.9565 38.783 59.6434C39.4172 59.0124 40.0397 58.7397 40.9479 58.7436C47.3915 58.7826 53.8351 58.7631 60.2787 58.7709C60.6859 58.7709 61.1282 58.6424 61.5667 58.954C60.9012 60.1849 60.2043 61.3417 59.6445 62.561C59.3 63.3127 58.8303 63.4763 58.0552 63.4646C54.7355 63.4218 51.4158 63.4646 48.0961 63.4374C47.0901 63.4296 46.2523 63.675 45.7551 64.5981C44.9252 66.1407 46.0566 67.7728 48.0374 67.8078C50.7699 67.8545 53.5063 67.8468 56.2387 67.8078C57.147 67.7922 57.2957 68.0182 57.006 68.879C55.7416 72.6184 54.9195 76.4552 54.7629 80.4049C54.7237 81.406 54.3049 81.5696 53.4202 81.5579C50.1983 81.5112 46.9765 81.5306 43.7547 81.5423C41.9031 81.5501 40.9479 82.3292 40.9831 83.7704C41.0183 85.1415 41.9735 85.8972 43.7273 85.905C46.2641 85.9167 48.8047 85.8894 51.3414 85.9167C52.4062 85.9284 53.6863 85.5038 54.4693 86.1075C55.1661 86.6451 54.6807 87.9461 54.8647 88.8887C54.9117 89.1263 54.9351 89.3717 54.9978 89.6054C55.1935 90.3533 54.9665 90.6221 54.1444 90.6026C52.0461 90.5481 49.9478 90.5637 47.8495 90.5948C46.4637 90.6182 45.5438 91.4712 45.4929 92.6788C45.442 93.9135 46.4167 94.8951 47.8378 94.9419C49.251 94.9886 50.6681 94.9419 52.0852 94.9575C53.3497 94.9691 54.9547 94.5524 55.7846 95.1639C56.6067 95.7716 56.6537 97.4231 57.0373 98.619C57.053 98.6657 57.0647 98.7124 57.0843 98.7553C57.374 99.4408 57.1704 99.659 56.4071 99.6473C53.8194 99.6045 51.2318 99.6317 48.6442 99.6317C45.3754 99.6317 42.1027 99.6083 38.8339 99.6434C36.9392 99.6629 35.8705 101.233 36.6495 102.771C37.1898 103.839 38.1489 104.018 39.2411 104.014C45.4889 103.998 51.7368 104.026 57.9847 103.983C58.8968 103.975 59.3705 104.251 59.7581 105.069C60.9403 107.578 62.467 109.884 64.123 112.112C65.5558 114.04 67.2038 115.785 68.9968 117.725C65.0821 117.725 61.4336 117.725 57.7851 117.725C55.6711 117.725 54.6141 118.438 54.5867 119.871C54.5554 121.355 55.6359 122.095 57.8516 122.095C62.8781 122.095 67.9085 122.111 72.935 122.08C73.851 122.072 74.5987 122.29 75.3621 122.816C91.6825 134.03 114.349 133.691 130.379 122.018C132.231 120.67 132.689 119.404 131.761 118.212C130.861 117.059 129.651 117.145 127.804 118.485C120.62 123.673 112.595 126.485 103.724 126.735C92.1719 127.058 81.9897 123.346 73.5339 115.575C61.5941 104.606 56.7007 90.9571 59.9303 75.0334C64.5966 52.0244 86.4681 37.4563 109.847 41.3281C129.671 44.6118 145.013 62.1636 145.541 82.2513C145.827 93.1033 142.48 102.76 135.602 111.197C134.502 112.548 134.517 113.767 135.594 114.648C136.631 115.497 137.915 115.248 139 113.939C143.92 107.999 147.177 101.26 148.865 93.7422C149.291 91.8296 149.338 89.8508 149.996 87.985V85.6518C149.518 84.9701 149.55 84.2924 149.996 83.6107V80.6971C149.706 80.5802 149.699 80.3504 149.749 80.0933C149.718 79.8557 149.648 79.6064 149.996 79.5324V78.6599C149.589 78.5508 149.73 78.2041 149.695 77.9471L149.699 77.9393ZM102.319 36.2838C100.719 36.2812 99.9191 35.4879 99.9191 33.9039C99.9191 32.3665 100.711 31.5979 102.295 31.5979C103.879 31.5979 104.653 32.3808 104.617 33.9467C104.58 35.5126 103.814 36.2903 102.319 36.2799V36.2838ZM105.705 27.2352C102.64 27.2352 99.5707 27.2002 96.5055 27.2547C95.5855 27.2703 95.3702 26.9704 95.3624 26.0939C95.3232 22.5298 95.2919 22.5298 98.8856 22.5298C100.005 22.5298 101.125 22.5298 102.244 22.5298C104.19 22.5298 106.14 22.5727 108.085 22.5103C108.997 22.4792 109.217 22.7947 109.224 23.6672C109.26 27.2313 109.287 27.2313 105.705 27.2313V27.2352ZM130.305 32.2016C130.857 31.407 131.284 30.5306 131.781 29.7009C131.922 29.4672 132.11 29.2569 132.286 29.027C132.568 29.179 132.783 29.288 132.991 29.4088C135.136 30.6436 137.273 31.9017 139.434 33.1092C140.017 33.4325 140.213 33.6857 139.79 34.3167C139.117 35.3217 138.769 36.8993 137.868 37.2927C136.925 37.7017 135.813 36.3695 134.768 35.8164C133.394 35.088 132.078 34.2544 130.712 33.5182C130.086 33.1793 129.835 32.8911 130.309 32.2055L130.305 32.2016Z" fill="#404041"/>
<path d="M150.002 85.648V83.6069C149.76 84.2886 149.76 84.9663 150.002 85.648Z" fill="#404041"/>
<path d="M149.996 80.109V79.5247C149.82 79.6805 149.852 79.8948 149.844 80.0934C149.895 80.0934 149.946 80.0973 149.996 80.1051V80.109Z" fill="#404041"/>
<path d="M149.844 80.1947C149.844 80.3739 149.84 80.5531 149.993 80.6894V80.1051C149.938 80.1869 149.887 80.2103 149.844 80.1908V80.1947Z" fill="#404041"/>
<path d="M149.844 80.1947C149.844 80.1674 149.844 80.1363 149.844 80.109C149.844 80.1051 149.844 80.1012 149.844 80.0973C149.813 80.0973 149.781 80.0895 149.75 80.0895C149.777 80.1519 149.813 80.183 149.844 80.1947Z" fill="#404041"/>
<path d="M124.62 54.7044C125.211 53.5592 124.777 52.5231 123.367 51.5571C114.904 45.7727 105.587 44.2574 95.6003 45.9908C77.2951 49.1654 63.6562 65.276 63.6797 84.0899C63.7463 85.1728 63.7658 86.6335 63.942 88.0786C66.604 109.989 86.8157 125.11 108.64 121.539C137.656 116.786 150.794 82.3916 132.301 59.6007C130.899 57.8751 129.682 57.4661 128.527 58.327C127.317 59.2345 127.435 60.5394 128.879 62.3429C133.088 67.5937 135.569 73.5456 136.286 80.2375C136.392 81.2191 136.223 81.6126 135.127 81.558C133.373 81.4684 131.612 81.5152 129.854 81.5424C128.316 81.5658 127.435 82.3488 127.407 83.6497C127.376 85.0014 128.304 85.8583 129.885 85.9012C130.86 85.9285 131.839 85.8739 132.814 85.9129C133.972 85.9596 135.597 85.3909 136.168 86.1388C136.783 86.9412 136.125 88.4448 135.937 89.6367C133.604 104.337 120.31 116.494 105.395 117.597C104.635 117.651 104.471 117.437 104.483 116.759C104.51 114.913 104.522 113.066 104.483 111.22C104.448 109.611 103.598 108.677 102.271 108.68C100.944 108.684 100.13 109.619 100.106 111.24C100.079 113.035 100.063 114.835 100.118 116.631C100.145 117.491 99.8869 117.667 99.0257 117.577C91.5055 116.798 84.9131 113.927 79.3347 108.875C72.9889 103.13 69.3521 95.9547 68.2834 87.4865C68.1581 86.4894 68.0838 85.7415 69.5557 85.87C71.2508 86.018 72.9693 85.9285 74.6801 85.8973C76.242 85.87 77.1855 84.9702 77.1424 83.6303C77.1033 82.3293 76.2264 81.5619 74.6801 81.5385C73.0202 81.5113 71.3486 81.41 69.7045 81.5697C68.2404 81.7099 68.1151 81.0828 68.2756 79.922C68.671 77.0785 69.2229 74.2701 70.3347 71.6135C75.6235 58.9814 85.1128 51.7518 98.7242 49.8393C99.7851 49.6913 100.204 49.9055 100.13 51.0819C100.02 52.823 100.075 54.5798 100.114 56.3248C100.145 57.7972 101.034 58.7437 102.287 58.7398C103.52 58.7398 104.416 57.7777 104.483 56.3131C104.526 55.3432 104.494 54.3694 104.494 53.3995C104.494 49.4965 104.491 49.5199 108.323 50.2249C112.935 51.0702 117.186 52.7763 121.12 55.3121C122.596 56.2625 123.958 55.982 124.616 54.7044H124.62Z" fill="#404041"/>
<path d="M21.3839 29.0232C21.2626 41.1919 30.8771 50.9767 43.0323 51.0507C55.0309 51.1247 64.8059 41.5386 64.9547 29.5491C65.0995 17.6765 55.3676 7.86053 43.3416 7.74757C31.386 7.63461 21.5014 17.2091 21.3839 29.0232ZM43.1223 12.1141C52.7056 12.1024 60.5428 19.8539 60.5663 29.3699C60.5898 38.8664 52.7604 46.6608 43.1771 46.6841C33.5978 46.7075 25.7841 38.9599 25.7763 29.4206C25.7684 19.8695 33.5274 12.1258 43.1223 12.1102V12.1141Z" fill="#F48700"/>
<path d="M108.886 82.3566C108.068 78.5704 104.36 76.28 100.575 77.211C96.9969 78.0913 94.8124 81.8502 95.7872 85.4571C96.7737 89.1109 100.563 91.2221 104.243 90.0613C105.1 89.7886 105.55 90.0068 106.106 90.5716C108.702 93.2008 111.325 95.799 113.955 98.3932C115.224 99.6474 116.551 99.7565 117.522 98.7398C118.434 97.7855 118.273 96.5235 117.052 95.3004C114.715 92.9632 112.397 90.6027 110.005 88.324C108.945 87.3113 107.974 86.4076 108.913 84.8028C109.089 84.5028 108.988 84.0432 109.019 83.603C108.98 83.2213 108.976 82.7811 108.882 82.3566H108.886ZM102.368 86.0025C101.017 86.0453 99.9133 84.9975 99.925 83.6809C99.9368 82.45 101.021 81.3672 102.258 81.3555C103.511 81.3438 104.58 82.3838 104.607 83.642C104.634 84.9352 103.664 85.9596 102.368 86.0025Z" fill="#F48700"/>
<path d="M36.8413 36.4397C38.462 38.4886 40.6386 39.3806 43.2145 39.3923C45.8882 39.3845 48.3506 38.1653 49.6189 36.2333C50.3432 35.1309 50.257 33.9585 49.3214 33.2379C48.2879 32.4432 47.2662 32.5406 46.2914 33.417C43.7743 35.6763 42.4824 35.6763 40.0279 33.4638C38.967 32.5056 37.8278 32.451 36.9 33.308C36.0036 34.1377 35.9605 35.3335 36.8374 36.4397H36.8413Z" fill="#F48700"/>
<path d="M35.0566 28.7428C36.1997 28.8012 37.1236 27.8664 37.2215 26.6277C37.2606 26.1447 37.2293 25.6578 37.2293 25.1709H37.2371C37.2371 24.7814 37.2528 24.3957 37.2371 24.0062C37.1745 22.6078 36.372 21.7392 35.1271 21.7041C33.8392 21.6652 32.9153 22.5806 32.8605 24.0179C32.8213 24.9372 32.7822 25.872 32.8918 26.7796C33.0406 27.9949 33.8431 28.6805 35.0645 28.7428H35.0566Z" fill="#F48700"/>
<path d="M51.3555 28.7233C52.479 28.6571 53.2581 28.0066 53.3794 26.8069C53.4342 26.281 53.3872 25.7435 53.3872 25.2098H53.4107C53.4107 24.7736 53.4342 24.3373 53.4068 23.9011C53.3168 22.565 52.5534 21.7626 51.3477 21.708C50.1537 21.6574 49.1828 22.4248 49.0811 23.6946C48.991 24.797 48.9988 25.9305 49.1593 27.0211C49.3316 28.1819 50.2202 28.7896 51.3594 28.7233H51.3555Z" fill="#F48700"/>
</g>
<defs>
<clipPath id="clip0_1495_1236">
<rect width="150" height="131" fill="white"/>
</clipPath>
</defs>
</svg>
