<svg width="176" height="175" viewBox="0 0 176 175" fill="none" xmlns="http://www.w3.org/2000/svg">
<g clip-path="url(#clip0_837_193)">
<path d="M173.341 126.524C171.807 126.511 170.797 127.68 170.77 129.512C170.765 129.909 170.774 130.311 170.77 130.709C170.572 144.34 157.53 154.768 144.107 152.028C143.308 151.863 142.707 151.566 142.27 150.744C139.313 145.18 134.808 141.329 128.893 139.118C128.14 138.835 127.695 138.474 127.396 137.684C122.216 123.994 132.641 108.435 147.377 108.033C156.019 107.8 162.719 111.413 167.472 118.599C168.57 120.257 170.012 120.677 171.362 119.768C172.652 118.9 172.831 117.512 171.821 115.863C170.411 113.56 168.712 111.482 166.614 109.778C165.764 109.088 165.727 108.645 166.384 107.796C169.644 103.575 171.463 98.7373 171.715 93.4613C172.23 82.7447 167.973 74.1843 158.853 68.4789C149.783 62.8054 140.287 62.8419 130.804 67.7754C130.317 68.0266 129.931 68.5154 129.275 68.4286C127.984 60.7041 124.88 53.8704 119.282 48.27C117.794 46.7854 116.224 46.621 115.094 47.7904C114.006 48.9141 114.175 50.3805 115.571 51.8376C122.423 58.9911 125.16 67.5653 124.343 77.3042C124.131 79.8395 123.447 82.3016 121.831 84.4303C119.075 77.3408 113.909 73.2113 106.663 71.5668C103.577 70.8679 100.399 70.909 97.2578 70.8497C89.2261 70.6898 82.5491 67.5242 76.7629 62.175C76.0879 61.5492 75.7251 60.8914 75.647 59.987C75.4496 57.7212 75.2567 55.4464 74.9306 53.1943C74.7699 52.0797 75.1649 51.4037 75.9823 50.7322C79.0269 48.2335 82.4297 46.4474 86.232 45.415C92.707 43.6564 99.136 44.0264 105.547 45.7896C107.351 46.2875 108.679 45.6297 109.133 44.1406C109.565 42.7245 108.702 41.4454 106.929 40.879C104.523 40.107 102.047 39.5589 99.5448 39.431C97.9099 39.3442 97.8227 38.7503 97.864 37.3891C98.3783 21.1316 85.4881 8.33203 69.1491 8.91216C62.8257 9.136 57.2553 11.4748 52.3738 15.5723C47.722 7.00731 40.8337 1.5851 30.9835 0.292352C30.2441 0.420256 29.514 0.475072 28.8619 0H27.1444C26.4556 0.493344 25.7713 0.561864 25.0825 0H24.0539C23.8748 0.173584 23.6497 0.15988 23.4201 0.178152C16.6007 0.671496 11.2095 3.95132 6.71836 8.83908C2.80123 13.101 0.450034 18.1075 0 23.9226V29.3905C0.491364 29.9021 0.408704 30.5188 0.307676 31.1355C0.436257 31.9212 0.523509 32.716 0.707196 33.488C1.74044 37.8185 3.65079 41.7241 6.60815 45.0816C7.70568 46.3286 9.11089 46.4474 10.2543 45.5201C11.3748 44.6111 11.508 43.195 10.5804 41.8657C10.3186 41.4911 10.0018 41.1577 9.73084 40.7922C6.04331 35.7948 4.50034 30.2401 5.42796 24.0734C6.8148 14.8369 13.8271 7.46411 23.0022 5.55469C31.9524 3.69094 41.3618 7.67424 46.3259 15.4261C51.3406 23.2602 50.9365 33.2779 45.3019 40.7146C39.4652 48.4208 29.6655 51.3717 20.1367 48.2883C17.9876 47.594 16.5778 48.0965 16.0726 49.7455C15.5951 51.3169 16.3987 52.4954 18.5019 53.1898C22.465 54.4962 26.5061 54.9896 30.6804 54.4917C36.2966 53.8202 41.1965 51.5773 45.559 47.9548C46.6612 49.9693 47.7174 51.9427 49.2466 53.5689C50.0226 54.3957 49.9538 54.8891 49.3522 55.8346C43.3089 65.3178 42.7991 75.2121 47.3821 85.4033C47.8184 86.3763 49.0124 87.2853 48.9297 88.1395C48.8516 88.9526 47.4143 89.5465 46.8449 90.4144C46.1423 91.4833 45.6417 91.1727 44.8473 90.588C40.6913 87.5366 35.9889 85.8829 30.8641 85.5175C13.423 84.2704 -0.642906 99.2032 1.65778 116.466C3.34311 129.128 13.6572 138.876 26.6209 140.059C39.0611 141.192 51.0329 133.271 54.9822 121.303C56.1486 117.763 56.5298 114.122 56.4012 110.372C59.4688 115.991 63.2849 121.025 68.0791 125.168C70.3844 127.159 71.0916 129.005 70.5727 131.979C69.7736 136.519 70.017 136.551 65.6544 137.702C65.0115 137.871 64.5431 137.899 64.0059 137.323C62.3067 135.519 60.1989 135.185 57.8707 135.893C54.647 136.871 51.3727 137.689 48.2041 138.817C39.9795 141.75 34.322 147.263 31.957 155.737C30.4875 160.999 29.9135 166.453 28.9124 171.821C28.6047 173.479 29.5828 174.749 31.0569 174.963C32.5035 175.174 33.702 174.214 34.0097 172.524C34.7307 168.55 35.4838 164.58 36.1037 160.593C37.3896 152.338 41.8072 146.592 49.7379 143.718C52.7366 142.631 55.8501 141.864 58.8993 140.9C60.1163 140.516 60.4836 140.886 60.5755 142.129C60.8005 145.134 61.2827 148.117 61.8705 151.077C62.2333 152.9 63.3951 153.91 64.8692 153.672C66.4764 153.416 67.2709 152.119 66.9678 150.178C66.7382 148.716 66.4581 147.263 66.2239 145.806C65.7647 142.933 65.7876 142.987 68.6577 142.11C69.5532 141.836 69.8287 141.987 70.0262 142.846C71.1145 147.688 74.3107 150.794 78.6733 152.772C83.6512 155.029 88.9001 155.243 94.1214 153.932C100.211 152.402 104.757 149.026 106.277 142.554C106.341 142.284 106.405 141.823 106.681 141.887C107.788 142.138 108.894 142.426 109.951 142.837C110.773 143.156 110.318 143.951 110.258 144.481C109.225 153.617 107.328 162.534 103.333 170.903C102.52 172.606 102.892 173.986 104.302 174.685C105.707 175.388 107.062 174.845 107.925 173.164C109.331 170.427 110.456 167.586 111.365 164.644C113.643 157.276 115.103 149.757 115.663 142.074C115.755 140.799 116.21 140.539 117.381 140.909C120.37 141.859 123.42 142.636 126.381 143.664C133.389 146.094 137.931 150.895 139.561 158.13C140.645 162.954 141.361 167.86 142.275 172.721C142.569 174.278 143.827 175.178 145.214 174.954C146.674 174.721 147.597 173.383 147.34 171.78C147.106 170.318 146.803 168.874 146.541 167.417C145.949 164.092 145.361 160.766 144.755 157.336C145.2 157.368 145.421 157.377 145.641 157.4C161.879 159.236 176.487 145.797 175.931 129.539C175.867 127.703 174.866 126.534 173.35 126.52L173.341 126.524ZM126.391 86.961C128.554 83.6218 129.481 79.8989 129.61 75.9704C129.637 75.0751 130.014 74.5315 130.694 74.0016C139.432 67.1724 152.19 68.0084 160.12 75.9475C168.023 83.8593 168.841 96.4761 162.063 105.101C161.424 105.914 160.97 105.95 160.106 105.53C156.405 103.721 152.46 102.899 148.084 102.867C142.326 102.954 136.82 104.657 132.085 108.362C130.101 109.911 129.619 107.978 128.558 107.298C127.19 106.421 128.333 105.813 128.838 105.206C132.912 100.272 133.256 91.9401 126.652 88.1395C126.092 87.8198 126 87.564 126.391 86.9656V86.961ZM122.331 92.6436C122.322 91.931 122.625 91.9721 123.172 92.132C124.921 92.6481 126.349 94.3977 126.584 96.4167C126.965 99.6555 124.861 102.999 121.578 104.205C122.203 100.332 122.368 96.4898 122.331 92.6436ZM51.3544 40.5319C55.0235 35.064 55.7307 28.6688 54.4357 22.1776C54.2337 21.1635 54.523 20.6017 55.2072 19.9804C59.5285 16.0428 64.6258 14.106 69.2777 14.0146C83.293 14.0238 93.5657 24.9321 92.7621 37.654C92.6886 38.8234 92.3534 39.2391 91.0768 39.3579C84.138 39.9883 77.8788 42.391 72.5611 46.9636C71.8998 47.53 71.3717 47.7539 70.467 47.53C64.9472 46.1733 59.804 47.2377 55.1016 50.3028C53.9995 51.0245 53.4484 50.9058 52.8285 49.8962C52.5346 49.412 52.1626 48.9735 51.8366 48.5076C50.0502 45.9541 49.1685 43.7934 51.3544 40.5364V40.5319ZM41.5225 130.983C33.9546 136.222 25.7484 136.569 17.7534 131.96C9.77217 127.36 6.01117 120.138 6.62193 110.984C7.38882 99.5138 17.285 90.5788 30.1155 90.5743C34.2715 90.6245 39.0565 92.3421 43.2262 95.7727C43.9656 96.3802 44.3743 97.0151 44.4661 98.0384C44.8105 101.99 46.652 105.164 49.8481 107.54C50.4268 107.969 50.7941 108.389 50.8998 109.161C52.1305 118.297 49.0767 125.752 41.5225 130.983ZM49.7884 95.5397C50.2431 93.9637 51.2579 92.9039 52.7596 92.237C53.6964 91.8168 53.9168 92.0771 53.9076 93.0364C53.8801 96.7319 53.9581 100.423 54.6653 104.265C50.9181 102.721 48.8333 98.856 49.7884 95.5397ZM54.1097 85.8373C52.0111 83.841 51.1018 81.5022 50.4543 79.0309C48.7965 72.7317 49.3292 66.6014 52.2866 60.8001C55.446 54.6059 61.9485 51.2484 68.2444 52.2442C69.2915 52.4086 69.8195 52.7238 69.8976 53.9024C70.0721 56.4513 70.4303 58.9911 70.6967 61.5355C70.8206 62.7232 70.1777 63.719 69.8012 64.7742C68.2995 68.9768 65.8198 72.3251 61.8613 74.6639C57.7192 77.1078 55.0511 80.7668 54.1097 85.8418V85.8373ZM101.299 140.918C101.005 144.372 98.7319 146.596 95.7241 147.944C90.792 150.155 85.7085 150.187 80.7489 148.067C76.1246 146.089 74.3704 142.764 74.972 137.807C75.1924 135.998 75.4542 134.194 75.5965 132.381C75.6792 131.325 75.9271 131.129 76.9099 131.668C79.9912 133.358 83.2792 134.454 86.8244 134.678C90.6864 134.92 94.3143 134.043 97.7859 132.431C98.6034 132.052 99.4116 131.645 100.399 131.166C100.734 134.505 101.57 137.684 101.294 140.918H101.299ZM95.9353 127.676C91.2191 129.969 86.3147 130.471 81.5296 128.169C71.2661 123.226 63.9553 115.438 60.0795 104.726C58.7524 101.058 59.0922 97.0745 59.0417 93.2054C59.0417 91.7802 59.0647 90.3596 59.0417 88.9344C58.9728 84.5582 60.8602 81.1962 64.5845 78.999C68.993 76.3952 72.0927 72.7636 74.0214 68.0906C74.2969 67.4191 74.499 66.9486 75.2934 67.6475C82.8981 74.367 92.0779 76.2582 101.896 76.1988C106.318 76.1714 110.171 77.6468 113.436 80.6526C115.774 82.8087 117.128 85.4079 117.17 88.6055C117.225 92.8765 117.243 97.1476 116.816 101.405C116.329 106.274 114.125 110.381 111.186 114.186C106.966 119.654 102.277 124.588 95.9399 127.666L95.9353 127.676ZM121.491 135.569C121.546 135.848 121.606 136.126 121.633 136.405C121.642 136.501 121.56 136.606 121.482 136.798C120.407 136.483 119.328 136.158 118.244 135.852C116.054 135.236 114.024 135.496 112.384 137.163C111.755 137.803 111.218 137.711 110.428 137.611C107.122 137.195 105.804 135.587 105.616 132.125C105.459 129.215 105.694 127.232 108.118 125.163C112.77 121.194 116.513 116.356 119.355 110.888C120.086 109.481 123.135 109.111 124.242 110.24C125.16 111.171 126.776 111.994 126.882 112.989C126.988 113.981 125.532 115.095 124.871 116.219C121.316 122.24 120.15 128.69 121.5 135.56L121.491 135.569Z" fill="#404041"/>
<path d="M153.317 54.2678C165.4 52.066 174.262 42.4869 175.819 29.9478C177.211 18.7471 170.414 7.24028 159.623 2.35709C157.023 1.18311 154.245 0.73088 151.531 0H148.096C147.407 0.493344 146.723 0.561864 146.034 0H145.006C144.762 0.452232 144.308 0.292352 143.94 0.356304C128.882 2.85043 118.656 17.2579 121.365 32.1724C124.056 46.9819 138.503 56.9721 153.322 54.2678H153.317ZM148.546 5.12529C160.839 5.16184 170.823 15.2114 170.772 27.4902C170.722 39.6365 160.66 49.5673 148.413 49.5536C136.111 49.5445 126.081 39.5269 126.104 27.2709C126.127 15.0424 136.216 5.08418 148.546 5.12529Z" fill="#404041"/>
<path d="M27.1439 0H25.082C25.7709 0.278648 26.4551 0.278648 27.1439 0Z" fill="#404041"/>
<path d="M30.9849 0.292352C30.9435 0.200992 30.9206 0.100496 30.9252 0H28.8633C29.5246 0.424824 30.3098 -0.036544 30.9849 0.292352Z" fill="#404041"/>
<path d="M148.097 0H146.035C146.724 0.278648 147.408 0.278648 148.097 0Z" fill="#404041"/>
<path d="M0 29.395V31.1034H0.156134L0.307676 31.14C-0.0321453 30.601 0.413296 29.9249 0 29.395Z" fill="#404041"/>
<path d="M31.359 26.5446C36.1303 24.2378 37.6549 18.4181 34.7251 14.0831C32.6448 11.0043 28.8793 9.62474 25.2514 10.6069C21.7935 11.5433 19.1989 14.7226 18.9693 18.3085C18.8637 19.9758 19.7638 21.2183 21.2287 21.4239C22.6568 21.6203 23.8187 20.5971 24.0942 18.9252C24.1769 18.4227 24.2503 17.902 24.4478 17.4406C25.0677 16.0108 26.776 15.152 28.2593 15.4718C29.9217 15.8281 31.0376 17.2168 31.0238 18.9023C31.01 20.524 29.9309 21.867 28.3603 22.2187C25.1963 22.9313 25.0448 23.114 25.0448 26.2614C25.0448 26.8324 25.0448 27.3988 25.0448 27.9698H25.054C25.054 29.0524 25.0126 30.1351 25.0631 31.2131C25.1366 32.6886 26.1745 33.7255 27.5292 33.762C28.8425 33.7986 30.0181 32.7708 30.1605 31.3364C30.2569 30.3772 30.2523 29.3996 30.1788 28.4403C30.1054 27.4673 30.4314 26.9968 31.3636 26.5446H31.359Z" fill="#619DEA"/>
<path d="M69.6802 161.506C69.2394 160.318 68.0683 159.948 66.8055 160.25C65.6023 160.542 65.01 161.369 64.9227 162.283C64.863 163.585 68.05 173.136 68.7526 173.968C69.5746 174.936 70.5986 175.292 71.8064 174.735C72.9912 174.187 73.6111 173.173 73.2345 171.962C72.1416 168.45 70.966 164.955 69.6802 161.506Z" fill="#404041"/>
<path d="M27.7523 39.0518C26.3654 38.997 25.1531 40.1436 25.0888 41.5779C25.0199 43.0945 26.1955 44.3735 27.6558 44.3781C29.0427 44.3781 30.2091 43.195 30.2321 41.7561C30.2596 40.3034 29.1575 39.1066 27.7477 39.0518H27.7523Z" fill="#619DEA"/>
<path d="M135.397 129.932C135.333 131.344 136.476 132.563 137.891 132.6C139.305 132.641 140.517 131.481 140.536 130.069C140.554 128.662 139.365 127.475 137.95 127.484C136.6 127.493 135.457 128.585 135.397 129.928V129.932Z" fill="#619DEA"/>
<path d="M145.7 130.001C145.677 131.344 146.751 132.504 148.101 132.595C149.511 132.691 150.765 131.581 150.838 130.17C150.912 128.763 149.773 127.539 148.354 127.488C146.939 127.443 145.723 128.589 145.7 130.001Z" fill="#619DEA"/>
<path d="M156.008 129.987C155.976 131.394 157.147 132.595 158.562 132.604C159.976 132.614 161.161 131.426 161.147 130.019C161.133 128.676 160.027 127.548 158.677 127.493C157.258 127.438 156.041 128.575 156.008 129.987Z" fill="#619DEA"/>
<path d="M31.6067 98.7739C31.5929 96.837 30.5459 95.6539 28.9478 95.7042C27.4186 95.7544 26.4635 96.8919 26.4635 98.7693C26.4497 104.58 26.4497 110.39 26.4635 116.196C26.4635 118.074 27.4186 119.211 28.9478 119.266C30.5413 119.321 31.5975 118.133 31.6067 116.201C31.6251 113.296 31.6113 110.39 31.6113 107.485C31.6113 104.58 31.6251 101.675 31.6067 98.7693V98.7739Z" fill="#619DEA"/>
<path d="M29.0492 124.487C27.5889 124.478 26.3995 125.748 26.4592 127.264C26.5143 128.694 27.722 129.859 29.0997 129.818C30.5003 129.772 31.6162 128.571 31.6024 127.127C31.5887 125.684 30.4406 124.496 29.0446 124.487H29.0492Z" fill="#619DEA"/>
<path d="M138.155 85.6866C139.538 85.8145 140.649 84.8186 140.911 83.2427C140.984 82.795 141.044 82.3382 141.2 81.918C141.783 80.3466 143.45 79.401 145.021 79.7116C146.683 80.0359 147.836 81.4155 147.845 83.0919C147.859 84.7867 146.747 86.1525 145.076 86.4905C142.123 87.0889 141.866 87.4041 141.866 90.4555C141.866 91.0265 141.866 91.593 141.866 92.164H141.87C141.87 93.2466 141.834 94.3292 141.88 95.4073C141.944 96.9056 142.931 97.9425 144.286 98.0201C145.664 98.0978 146.848 97.0243 146.991 95.4895C147.064 94.6992 147.096 93.8861 146.995 93.105C146.844 91.8808 147.248 91.2412 148.419 90.6611C152.295 88.7425 153.985 84.2248 152.52 80.205C151.156 76.4638 147.151 74.029 143.303 74.5955C139.124 75.2076 135.96 78.6062 135.781 82.6717C135.708 84.3207 136.677 85.5586 138.151 85.6911L138.155 85.6866Z" fill="#619DEA"/>
<path d="M68.044 39.6457C68.0532 41.5231 68.9992 42.6605 70.533 42.7108C72.1265 42.7656 73.1873 41.5779 73.1919 39.6411C73.2056 33.8306 73.2056 28.0201 73.1919 22.2142C73.1919 20.3367 72.2321 19.1993 70.7029 19.149C69.1048 19.0942 68.0578 20.2773 68.0486 22.2187C68.0302 25.124 68.044 28.0292 68.044 30.9345C68.044 33.8397 68.0302 36.745 68.0486 39.6502L68.044 39.6457Z" fill="#619DEA"/>
<path d="M158.936 29.7286C160.351 29.7195 161.526 28.5226 161.494 27.1157C161.462 25.7088 160.241 24.5622 158.826 24.617C157.476 24.6672 156.369 25.7955 156.356 27.1431C156.342 28.5546 157.522 29.7377 158.936 29.7332V29.7286Z" fill="#619DEA"/>
<path d="M148.57 29.7285C149.984 29.7514 151.183 28.5774 151.188 27.1705C151.188 25.7635 149.984 24.5895 148.57 24.6124C147.22 24.6352 146.09 25.7407 146.044 27.0837C145.998 28.4952 147.151 29.7011 148.57 29.724V29.7285Z" fill="#619DEA"/>
<path d="M138.187 29.724C139.601 29.788 140.827 28.6551 140.873 27.2436C140.915 25.8412 139.748 24.6307 138.334 24.6124C136.984 24.5941 135.822 25.6676 135.739 27.0106C135.652 28.4176 136.768 29.6555 138.187 29.724Z" fill="#619DEA"/>
</g>
<defs>
<clipPath id="clip0_837_193">
<rect width="176" height="175" fill="white"/>
</clipPath>
</defs>
</svg>
