<svg width="148" height="148" viewBox="0 0 148 148" fill="none" xmlns="http://www.w3.org/2000/svg">
<g clip-path="url(#clip0_838_213)">
<path d="M145.977 47.5945C139.673 20.7096 115.657 1.2846 88.0476 0.0688128C71.1006 -0.67901 56.0436 4.4961 43.354 15.7868C37.5092 20.9849 32.2196 26.8069 26.6868 32.3536C26.2785 32.762 25.8931 33.2024 25.5582 33.6704C24.7049 34.854 23.6084 35.7808 22.5074 36.7167C10.6206 46.8513 3.38115 59.6193 0.80744 75.0346C0.545939 76.6128 0.623931 78.2552 0 79.7738V82.9532C0.247737 84.3021 0.247737 85.6509 0 86.9997V87.8668C0.183509 88.0595 0.183509 88.2522 0 88.4449V90.1791C0.30279 91.6335 0.169746 93.1291 0.376193 94.5926C1.49101 102.461 4.17942 109.792 8.14321 116.651C12.9099 124.9 19.1813 131.786 27.0584 137.168C33.3941 141.494 40.294 144.582 47.7399 146.486C51.0614 147.335 54.4288 147.67 57.8145 147.995H59.2596C59.4523 147.605 59.645 147.656 59.8377 147.995H60.9938C62.3426 147.532 63.6914 147.527 65.0402 147.995H67.9304C68.9122 147.39 70.0408 147.628 71.0914 147.482C87.6026 145.197 101.146 137.599 111.84 124.85C112.33 124.262 112.835 123.666 113.427 123.184C116.996 120.289 120.221 117.064 123.112 113.495C123.561 112.94 124.103 112.453 124.648 111.981C144.578 94.7624 151.973 73.1857 145.972 47.5899L145.977 47.5945ZM63.15 142.513C31.1874 142.531 5.45939 116.766 5.48233 84.7654C5.50527 53.2284 31.302 27.4309 62.8243 27.4309C94.8007 27.4309 120.547 53.077 120.57 84.9535C120.598 116.683 94.8466 142.499 63.15 142.513ZM142.174 69.4236C141.412 77.0899 137.122 89.4772 134.503 91.661C136.398 85.0636 137.251 78.4296 136.985 71.6717C136.577 61.3535 133.829 51.6869 128.713 42.7085C127.777 41.066 126.286 40.543 124.855 41.3275C123.373 42.1396 123.011 43.6948 123.988 45.4336C127.397 51.4805 129.727 57.9035 130.801 64.7623C132.897 78.1727 130.553 90.7893 123.901 102.612C123.809 102.773 123.671 102.91 123.566 103.043C129.589 79.2462 124.965 57.9126 107.477 40.4329C90.0112 22.976 68.6874 18.4707 44.8037 24.4625C49.5841 21.5813 54.571 19.503 59.8606 18.2184C74.6193 14.6261 88.6807 16.4796 102.026 23.733C102.279 23.8707 102.522 24.0267 102.779 24.1551C104.362 24.9626 105.862 24.5956 106.66 23.21C107.445 21.852 106.986 20.2738 105.472 19.3975C102.013 17.3972 98.3975 15.7272 94.6126 14.4426C82.4322 10.3043 70.1188 9.85015 57.6723 13.1167C57.1952 13.2406 56.7456 13.3645 56.2593 13.2452C78.652 -0.293628 111.72 3.34914 130.64 28.0777C139.967 40.2723 143.692 54.1552 142.178 69.4236H142.174Z" fill="#404041"/>
<path d="M60.9922 148H65.0386C63.6898 147.752 62.341 147.752 60.9922 148Z" fill="#404041"/>
<path d="M59.2578 148H59.8359C59.6432 147.816 59.4505 147.816 59.2578 148Z" fill="#404041"/>
<path d="M50.9323 37.1205C27.1863 43.3692 11.8174 65.1248 13.9369 89.5185C14.1984 92.5419 14.7765 95.5194 15.6344 98.4373C16.1023 100.025 17.5199 100.828 18.9697 100.419C20.4744 99.9926 21.236 98.6805 20.9011 97.0656C20.8231 96.6894 20.7176 96.3177 20.6212 95.9461C19.1165 90.0828 18.7816 84.1461 19.745 78.1819C23.695 53.7194 46.496 37.5655 70.9348 41.8689C96.9105 46.443 113.032 73.4013 104.801 98.5061C99.1952 115.605 83.7346 127.557 65.8057 128.685C62.0805 128.919 58.3966 128.648 54.731 128.02C53.4877 127.809 52.4279 128.08 51.7122 129.199C50.6617 130.846 51.5104 132.837 53.529 133.314C56.6349 134.053 59.8142 134.214 62.9935 134.287C66.0305 134.255 69.0584 134.044 72.045 133.466C99.0851 128.19 116.349 103.117 111.614 76.0256C106.765 48.2874 78.1742 29.9588 50.9323 37.1251V37.1205Z" fill="#404041"/>
<path d="M60.1683 115.215C60.728 116.334 60.3839 117.949 60.2968 119.34C60.228 120.376 60.5675 120.698 61.5722 120.583C62.9393 120.422 64.779 121.184 65.5635 120.275C66.2425 119.491 65.8709 117.702 65.7653 116.371C65.669 115.165 66.1048 114.77 67.2518 114.476C78.9184 111.494 83.3226 96.7902 75.2849 87.8025C71.7844 83.8891 67.3298 82.3567 62.1869 82.1136C56.6633 81.8567 52.3463 77.2688 52.0848 71.7358C51.8278 66.3405 55.7687 61.404 61.0859 60.4589C66.481 59.4954 71.711 62.6748 73.4911 67.8591C73.8764 68.9831 73.3167 70.6669 74.5141 71.1624C75.6244 71.6211 77.0787 71.1899 78.3724 71.2908C79.4414 71.3734 79.5652 70.8871 79.4597 70.0292C78.6156 63.1015 75.0004 58.3163 68.4767 55.7517C67.6096 55.4122 66.3296 55.6141 65.9259 54.7745C65.5497 53.9854 65.802 52.8889 65.802 51.9254C65.799 50.2065 64.9518 49.347 63.2604 49.347C61.303 49.347 60.3243 50.3044 60.3243 52.2191C60.3243 54.9075 60.3105 54.8663 57.9249 55.7104C51.6994 57.9126 47.9099 62.3399 46.9281 68.7996C45.9556 75.2043 48.2448 80.5354 53.4335 84.5039C56.5853 86.9171 60.2738 87.5364 64.1367 87.8209C69.642 88.2338 73.8489 92.8354 73.9957 98.2721C74.1471 103.833 70.1925 108.641 64.7652 109.494C59.3609 110.343 54.1859 107.062 52.5389 101.823C52.2086 100.768 52.6261 99.2263 51.6168 98.7354C50.6809 98.2812 49.3505 98.6345 48.1944 98.6299C48.0521 98.6299 47.9007 98.6483 47.7631 98.6299C46.818 98.4877 46.5015 98.841 46.6162 99.8228C47.364 106.333 50.6442 110.999 56.6082 113.77C57.8056 114.325 59.6361 114.146 60.1683 115.21V115.215Z" fill="#619DEA"/>
<path d="M43.0388 123.973C35.8636 120.276 30.1473 114.99 25.844 108.164C24.7567 106.438 23.2703 106.012 21.8435 106.897C20.3662 107.81 20.1552 109.352 21.27 111.164C23.5547 114.871 26.3211 118.183 29.5096 121.143C32.8403 124.235 36.5334 126.813 40.5798 128.873C42.7085 129.956 44.8463 128.832 44.8739 126.648C44.8922 125.322 44.1536 124.547 43.0388 123.969V123.973Z" fill="#404041"/>
<path d="M114.412 25.6186C113.807 25.1094 113.165 24.7148 112.596 24.7607C111.096 24.802 110.251 25.3892 109.802 26.5454C109.316 27.7979 109.733 28.8256 110.683 29.6376C113.472 32.0095 116.041 34.6017 118.427 37.3773C119.578 38.7216 121.193 38.8684 122.381 37.8774C123.652 36.8176 123.735 35.2532 122.533 33.7896C120.083 30.8121 117.358 28.1007 114.408 25.6141L114.412 25.6186Z" fill="#404041"/>
</g>
<defs>
<clipPath id="clip0_838_213">
<rect width="148" height="148" fill="white"/>
</clipPath>
</defs>
</svg>
