<svg width="367" height="414" viewBox="0 0 367 414" fill="none" xmlns="http://www.w3.org/2000/svg">
<g opacity="0.7">
<path d="M183.301 366.602C82.2106 366.602 0 284.358 0 183.301C0 82.2439 82.2439 0 183.301 0C284.358 0 366.602 82.2439 366.602 183.301C366.602 284.358 284.425 366.602 183.301 366.602ZM183.301 2.58286C83.677 2.58286 2.62453 83.6353 2.62453 183.268C2.62453 282.9 83.7103 363.953 183.301 363.953C282.892 363.953 363.986 282.9 363.986 183.268C363.986 83.6353 282.967 2.58286 183.301 2.58286Z" fill="#E0E0E0"/>
<path d="M183.3 330.2C102.281 330.2 36.3672 264.287 36.3672 183.268C36.3672 102.249 102.314 36.3352 183.3 36.3352C264.285 36.3352 330.266 102.257 330.266 183.268C330.266 264.279 264.352 330.2 183.3 330.2ZM183.3 38.9848C103.747 38.9848 39.0167 103.707 39.0167 183.268C39.0167 262.829 103.78 327.542 183.3 327.542C262.819 327.542 327.583 262.82 327.583 183.268C327.583 103.715 262.894 38.9848 183.3 38.9848Z" fill="#E0E0E0"/>
<path d="M183.3 293.798C122.353 293.798 72.7695 244.215 72.7695 183.268C72.7695 122.32 122.386 72.7371 183.3 72.7371C244.214 72.7371 293.831 122.32 293.831 183.268C293.831 244.215 244.281 293.798 183.3 293.798ZM183.3 75.3866C154.704 75.4285 127.292 86.8091 107.075 107.033C86.8575 127.256 75.4855 154.672 75.4524 183.268C75.4524 242.749 123.852 291.149 183.333 291.149C211.95 291.149 239.394 279.781 259.629 259.546C279.863 239.311 291.231 211.867 291.231 183.251C291.231 154.635 279.863 127.191 259.629 106.956C239.394 86.7211 211.95 75.3533 183.333 75.3533L183.3 75.3866Z" fill="#E0E0E0"/>
<path d="M183.302 257.396C168.636 257.396 154.299 253.047 142.105 244.899C129.91 236.751 120.406 225.17 114.793 211.62C109.181 198.07 107.712 183.16 110.573 168.776C113.435 154.392 120.497 141.179 130.868 130.808C141.238 120.438 154.451 113.375 168.835 110.514C183.22 107.653 198.13 109.121 211.679 114.734C225.229 120.346 236.811 129.851 244.959 142.045C253.107 154.24 257.456 168.577 257.456 183.243C257.44 202.905 249.623 221.757 235.72 235.66C221.816 249.563 202.964 257.381 183.302 257.396ZM183.302 111.789C169.165 111.789 155.345 115.981 143.59 123.835C131.836 131.689 122.674 142.853 117.264 155.914C111.854 168.975 110.438 183.347 113.196 197.213C115.954 211.078 122.762 223.815 132.759 233.811C142.755 243.808 155.492 250.615 169.357 253.373C183.223 256.131 197.595 254.716 210.656 249.306C223.717 243.896 234.881 234.734 242.735 222.979C250.589 211.225 254.781 197.405 254.781 183.268C254.759 164.317 247.221 146.149 233.821 132.749C220.421 119.349 202.253 111.811 183.302 111.789Z" fill="#E0E0E0"/>
<path d="M183.301 220.995C175.839 220.995 168.545 218.782 162.341 214.637C156.137 210.491 151.301 204.599 148.446 197.705C145.591 190.812 144.843 183.226 146.299 175.908C147.755 168.59 151.348 161.867 156.624 156.591C161.9 151.315 168.623 147.722 175.941 146.266C183.259 144.81 190.845 145.558 197.738 148.413C204.632 151.268 210.524 156.104 214.67 162.308C218.815 168.512 221.028 175.806 221.028 183.268C221.017 193.27 217.038 202.86 209.966 209.933C202.893 217.005 193.303 220.984 183.301 220.995ZM183.301 148.191C176.363 148.191 169.582 150.248 163.813 154.102C158.045 157.957 153.549 163.435 150.894 169.845C148.239 176.254 147.544 183.307 148.898 190.111C150.251 196.916 153.592 203.166 158.498 208.071C163.403 212.977 169.653 216.318 176.458 217.671C183.262 219.025 190.315 218.33 196.724 215.675C203.134 213.02 208.612 208.524 212.467 202.756C216.321 196.987 218.378 190.206 218.378 183.268C218.367 173.968 214.668 165.053 208.092 158.477C201.516 151.901 192.601 148.202 183.301 148.191Z" fill="#E0E0E0"/>
</g>
<path d="M182.692 315.987C256.529 315.987 316.385 256.131 316.385 182.295C316.385 108.459 256.529 48.6025 182.692 48.6025C108.856 48.6025 49 108.459 49 182.295C49 256.131 108.856 315.987 182.692 315.987Z" fill="white" stroke="#2F9FEE" stroke-width="6" stroke-miterlimit="10"/>
<circle cx="188" cy="322.603" r="16" fill="#2F9FEE"/>
<circle cx="188" cy="355.603" r="8" fill="#2F9FEE"/>
<circle cx="188" cy="380.603" r="8" fill="#2F9FEE"/>
<circle cx="188" cy="405.603" r="8" fill="#2F9FEE"/>
<g clip-path="url(#clip0_1490_235)">
<path d="M235.609 116H138.577C135.568 116.875 133.359 118.683 133.255 121.936C133.068 127.857 133.179 133.789 133.204 139.718C133.208 140.939 134.084 141.785 135.204 141.857C136.555 141.947 137.489 140.935 137.492 139.318C137.503 134.02 137.496 128.718 137.496 123.42C137.496 120.931 138.112 120.311 140.576 120.311C171.571 120.311 202.565 120.311 233.555 120.311C236.052 120.311 236.683 120.927 236.683 123.377C236.683 158.721 236.683 194.066 236.683 229.41C236.683 231.773 236.031 232.418 233.631 232.418C217.057 232.418 200.482 232.418 183.908 232.418C183.457 232.418 183 232.375 182.564 232.443C181.396 232.623 180.715 233.326 180.64 234.514C180.568 235.634 181.407 236.571 182.575 236.711C183.018 236.765 183.472 236.733 183.922 236.733C200.453 236.733 216.981 236.733 233.512 236.733C238.531 236.733 240.999 234.244 240.999 229.187C240.999 194.066 240.999 158.948 240.999 123.827C240.999 119.278 239.753 117.47 235.609 116.004V116Z" fill="#2F9FEE"/>
<path d="M176.19 216.138C175.524 212.828 172.922 210.829 169.247 210.879C168.141 210.893 167.593 210.778 167.291 209.453C165.806 202.948 159.901 198.147 153.404 197.941C151.639 197.887 150.565 198.669 150.536 200.034C150.507 201.349 151.48 202.163 153.184 202.245C157.624 202.462 161.425 205.368 162.906 209.554C163.295 210.649 163.111 210.886 161.951 210.883C151.891 210.843 141.831 210.857 131.771 210.861C127.188 210.861 124.568 213.458 124.565 218.007C124.561 223.889 124.543 229.771 124.586 235.656C124.594 236.542 124.356 236.787 123.48 236.751C121.776 236.679 120.068 236.711 118.36 236.736C116.883 236.758 115.95 237.605 115.946 238.88C115.942 240.155 116.876 241.015 118.349 241.037C120.1 241.062 121.855 241.077 123.603 241.026C124.341 241.005 124.601 241.185 124.583 241.974C124.529 244.171 124.525 246.375 124.583 248.572C124.604 249.426 124.403 249.696 123.498 249.689C118.515 249.642 113.528 249.635 108.542 249.689C107.511 249.699 107.216 249.465 107.219 248.388C107.284 236.938 107.288 225.488 107.309 214.038C107.324 207.018 111.039 202.919 118.014 202.231C119.275 202.105 120.158 201.212 120.151 200.063C120.14 198.86 119.178 197.967 117.849 197.927C110.83 197.722 103.908 203.816 103.223 210.803C103.313 211.297 103.357 211.783 103 212.205V252.898C103.868 253.748 104.884 254.004 106.113 254C128.525 253.968 150.936 253.975 173.348 253.975C175.643 253.975 176.313 253.308 176.313 251.021C176.313 239.975 176.313 228.928 176.309 217.881C176.309 217.301 176.309 216.707 176.19 216.141V216.138ZM170.761 249.685C163.983 249.642 157.206 249.663 150.428 249.663C143.651 249.663 136.873 249.642 130.096 249.689C129.101 249.696 128.845 249.476 128.849 248.457C128.892 238.314 128.874 228.175 128.878 218.032C128.878 215.86 129.584 215.172 131.8 215.172C144.234 215.172 156.665 215.172 169.099 215.172C171.305 215.172 172.004 215.864 172.004 218.05C172.004 228.193 171.986 238.336 172.032 248.475C172.036 249.534 171.715 249.689 170.764 249.685H170.761Z" fill="#2F9FEE"/>
<path d="M103.223 210.803C103.13 210.746 103.054 210.764 103 210.857V212.205C103.317 211.776 102.993 211.243 103.223 210.803Z" fill="#2F9FEE"/>
<path d="M118.105 160.742C118.076 162.669 118.858 163.421 120.786 163.429C124.331 163.436 127.881 163.429 131.426 163.429C134.928 163.429 138.43 163.465 141.933 163.418C147.118 163.349 151.405 159.708 152.382 154.644C152.767 152.638 152.555 150.613 152.58 148.6C152.598 147.019 151.755 146.194 150.169 146.19C142.942 146.18 135.71 146.133 128.482 146.212C123.539 146.266 119.287 149.983 118.321 154.835C117.932 156.798 118.134 158.771 118.105 160.742ZM129.783 150.494C132.521 150.494 135.263 150.494 138.002 150.494C141.01 150.494 144.019 150.527 147.028 150.473C147.95 150.455 148.325 150.574 148.314 151.665C148.267 156.571 145.766 159.114 140.837 159.114C135.134 159.114 129.43 159.092 123.726 159.135C122.757 159.142 122.361 159.006 122.375 157.871C122.436 153.034 124.93 150.494 129.783 150.491V150.494Z" fill="#2F9FEE"/>
<path d="M175.996 169.901C170.476 169.887 164.96 169.887 159.44 169.901C157.696 169.905 156.918 170.701 156.907 172.466C156.892 175.156 156.903 177.85 156.903 180.541C156.903 183.368 156.889 186.192 156.91 189.02C156.925 190.612 157.732 191.444 159.306 191.447C164.87 191.465 170.433 191.465 175.996 191.447C177.65 191.444 178.457 190.622 178.461 188.948C178.475 183.43 178.475 177.912 178.461 172.394C178.457 170.719 177.654 169.901 175.996 169.898V169.901ZM174.169 186.325C174.173 186.967 174.007 187.172 173.351 187.157C171.42 187.114 169.489 187.143 167.558 187.143C165.626 187.143 163.875 187.118 162.034 187.157C161.393 187.172 161.198 186.992 161.205 186.34C161.234 182.569 161.234 178.798 161.205 175.027C161.202 174.385 161.367 174.191 162.023 174.198C165.796 174.227 169.568 174.227 173.341 174.198C173.978 174.195 174.177 174.36 174.169 175.016C174.141 178.787 174.141 182.558 174.169 186.329V186.325Z" fill="#404041"/>
<path d="M134.397 193.594C142.648 193.972 150.038 188.544 152.056 180.678C152.816 177.71 152.517 174.699 152.596 172.015C152.596 169.815 152.607 167.927 152.596 166.04C152.585 164.43 151.804 163.475 150.499 163.439C149.144 163.403 148.294 164.39 148.291 166.062C148.28 169.026 148.276 171.99 148.291 174.954C148.298 176.438 148.283 177.919 147.93 179.37C146.413 185.605 140.465 189.888 134.199 189.261C127.681 188.613 122.532 183.048 122.42 176.51C122.384 174.31 122.442 172.109 122.395 169.908C122.366 168.63 121.447 167.762 120.269 167.754C119.091 167.744 118.111 168.608 118.125 169.879C118.154 172.927 117.873 175.985 118.334 179.024C119.52 186.819 126.6 193.241 134.404 193.601L134.397 193.594Z" fill="#2F9FEE"/>
<path d="M230.513 128.898C231.666 128.671 232.361 127.947 232.35 126.759C232.34 125.57 231.637 124.86 230.477 124.652C230.084 124.58 229.67 124.623 229.266 124.623C219.57 124.623 209.874 124.623 200.178 124.623C190.482 124.623 180.696 124.623 170.957 124.623C170.553 124.623 170.146 124.601 169.746 124.637C168.553 124.745 167.721 125.606 167.696 126.73C167.671 127.908 168.525 128.815 169.786 128.923C170.142 128.952 170.503 128.934 170.863 128.934C190.298 128.934 209.734 128.934 229.173 128.934C229.623 128.934 230.084 128.985 230.516 128.898H230.513Z" fill="#2F9FEE"/>
<path d="M176.293 150.502C175.068 150.509 174.204 151.409 174.16 152.789C174.128 153.866 174.103 154.946 174.168 156.02C174.214 156.783 173.966 156.989 173.206 156.981C169.527 156.942 165.844 156.942 162.166 156.981C161.416 156.989 161.182 156.798 161.196 156.027C161.243 153.336 161.185 150.642 161.225 147.948C161.243 146.666 160.656 144.955 161.47 144.224C162.176 143.594 163.855 144.051 165.106 144.029C165.149 144.029 165.196 144.029 165.239 144.029C166.72 143.986 167.657 143.165 167.671 141.897C167.686 140.626 166.752 139.743 165.289 139.725C163.358 139.7 161.43 139.707 159.499 139.722C157.669 139.736 156.905 140.503 156.901 142.358C156.894 147.79 156.891 153.218 156.901 158.649C156.901 160.493 157.676 161.264 159.514 161.275C162.205 161.289 164.9 161.275 167.592 161.275C170.42 161.275 173.249 161.293 176.074 161.268C177.587 161.253 178.423 160.443 178.448 158.955C178.484 156.891 178.484 154.828 178.448 152.764C178.423 151.399 177.515 150.498 176.29 150.505L176.293 150.502Z" fill="#404041"/>
<path d="M187.169 148.334C187.435 148.348 187.706 148.337 187.976 148.337C200.316 148.337 212.654 148.337 224.994 148.337C225.398 148.337 225.812 148.38 226.201 148.301C227.354 148.067 228.046 147.347 228.032 146.158C228.017 144.969 227.315 144.264 226.158 144.055C225.765 143.983 225.351 144.026 224.948 144.026C218.801 144.026 212.654 144.026 206.507 144.026C200.36 144.026 194.303 144.026 188.199 144.026C187.839 144.026 187.479 144.008 187.122 144.033C185.836 144.116 184.967 144.959 184.942 146.136C184.917 147.361 185.814 148.254 187.165 148.334H187.169Z" fill="#2F9FEE"/>
<path d="M227.746 175.257C227.184 174.339 226.29 174.198 225.292 174.198C212.775 174.213 200.254 174.205 187.737 174.209C187.423 174.209 187.102 174.187 186.796 174.238C185.607 174.425 184.8 175.506 184.962 176.651C185.128 177.832 186.029 178.513 187.51 178.517C193.79 178.524 200.074 178.52 206.354 178.52C208.865 178.52 211.38 178.52 213.892 178.52C217.794 178.52 221.7 178.538 225.602 178.513C227.551 178.502 228.672 176.774 227.746 175.261V175.257Z" fill="#2F9FEE"/>
<path d="M226.024 208.686C227.21 208.567 228.038 207.692 228.053 206.568C228.067 205.451 227.246 204.536 226.075 204.403C225.722 204.363 225.358 204.385 224.997 204.385C212.657 204.385 200.319 204.385 187.979 204.385C187.575 204.385 187.161 204.342 186.772 204.421C185.68 204.641 185.003 205.322 184.959 206.445C184.912 207.637 185.583 208.376 186.721 208.65C187.107 208.74 187.525 208.693 187.928 208.693C194.122 208.693 200.312 208.693 206.506 208.693C212.7 208.693 218.8 208.693 224.947 208.693C225.307 208.693 225.668 208.714 226.024 208.678V208.686Z" fill="#2F9FEE"/>
<path d="M187.573 156.96C196.588 156.967 205.603 156.967 214.622 156.96C216.312 156.96 217.288 156.139 217.274 154.784C217.259 153.437 216.286 152.656 214.578 152.652C210.139 152.645 205.697 152.652 201.258 152.652C196.819 152.652 192.106 152.645 187.533 152.652C185.93 152.652 184.979 153.452 184.95 154.759C184.921 156.117 185.901 156.956 187.577 156.96H187.573Z" fill="#2F9FEE"/>
<path d="M187.652 187.14C192.091 187.147 196.533 187.14 200.972 187.14C205.411 187.14 210.034 187.143 214.563 187.14C216.275 187.14 217.248 186.365 217.273 185.018C217.295 183.664 216.311 182.832 214.632 182.832C205.617 182.825 196.602 182.825 187.583 182.832C185.893 182.832 184.924 183.657 184.946 185.018C184.967 186.365 185.937 187.136 187.652 187.14Z" fill="#2F9FEE"/>
<path d="M187.59 213.015C185.9 213.015 184.927 213.833 184.942 215.19C184.96 216.538 185.929 217.319 187.637 217.319C192.123 217.326 196.609 217.319 201.094 217.319C205.624 217.319 210.156 217.326 214.685 217.319C216.285 217.315 217.24 216.516 217.269 215.208C217.298 213.854 216.31 213.015 214.639 213.015C205.624 213.008 196.609 213.008 187.59 213.015Z" fill="#2F9FEE"/>
<path d="M142.169 198.975C138.271 203.092 132.646 203.121 128.776 199.04C127.573 197.772 126.416 197.578 125.4 198.478C124.337 199.418 124.391 200.661 125.627 202.004C128.25 204.85 131.5 206.323 135.687 206.366C139.362 206.323 142.699 204.857 145.344 201.875C146.435 200.646 146.461 199.314 145.448 198.449C144.45 197.599 143.297 197.783 142.166 198.975H142.169Z" fill="#2F9FEE"/>
<path d="M166.938 146.77C166.004 145.859 164.747 146.01 163.943 146.889C163.147 147.761 163.176 148.939 164.066 149.915C164.639 150.545 165.259 151.132 165.871 151.723C167.161 152.969 168.217 152.994 169.481 151.744C172.191 149.065 174.875 146.36 177.574 143.666C178.064 143.179 178.442 142.643 178.471 141.832C178.424 140.989 178.032 140.298 177.16 139.905C176.212 139.48 175.394 139.747 174.706 140.428C172.634 142.477 170.573 144.537 168.527 146.612C168.011 147.134 167.68 147.483 166.945 146.763L166.938 146.77Z" fill="#404041"/>
<path d="M146.12 126.777C146.12 125.613 145.165 124.648 144.001 124.63C142.783 124.612 141.782 125.628 141.821 126.849C141.861 128.012 142.845 128.952 144.005 128.93C145.165 128.909 146.12 127.94 146.12 126.777Z" fill="#2F9FEE"/>
<path d="M154.74 126.838C154.776 125.624 153.767 124.605 152.549 124.626C151.382 124.648 150.438 125.613 150.441 126.78C150.441 127.944 151.4 128.909 152.56 128.927C153.717 128.941 154.704 127.998 154.74 126.838Z" fill="#2F9FEE"/>
<path d="M161.175 128.927C162.332 128.949 163.323 128.008 163.366 126.849C163.405 125.693 162.483 124.688 161.323 124.626C160.163 124.569 159.15 125.473 159.071 126.636C158.992 127.846 159.965 128.902 161.179 128.927H161.175Z" fill="#2F9FEE"/>
<path d="M150.492 228.11C149.328 228.078 148.337 229.003 148.287 230.17C148.237 231.381 149.231 232.418 150.445 232.411C151.605 232.404 152.571 231.445 152.586 230.282C152.6 229.119 151.656 228.143 150.492 228.11Z" fill="#2F9FEE"/>
</g>
<defs>
<clipPath id="clip0_1490_235">
<rect width="138" height="138" fill="white" transform="translate(103 116)"/>
</clipPath>
</defs>
</svg>
