<svg width="367" height="413" viewBox="0 0 367 413" fill="none" xmlns="http://www.w3.org/2000/svg">
<g opacity="0.7">
<path d="M183.301 366.602C82.2106 366.602 0 284.358 0 183.301C0 82.2439 82.2439 0 183.301 0C284.358 0 366.602 82.2439 366.602 183.301C366.602 284.358 284.425 366.602 183.301 366.602ZM183.301 2.58286C83.677 2.58286 2.62453 83.6353 2.62453 183.268C2.62453 282.9 83.7103 363.953 183.301 363.953C282.892 363.953 363.986 282.9 363.986 183.268C363.986 83.6353 282.967 2.58286 183.301 2.58286Z" fill="#E0E0E0"/>
<path d="M183.3 330.2C102.281 330.2 36.3672 264.287 36.3672 183.268C36.3672 102.249 102.314 36.3352 183.3 36.3352C264.285 36.3352 330.266 102.257 330.266 183.268C330.266 264.279 264.352 330.2 183.3 330.2ZM183.3 38.9848C103.747 38.9848 39.0167 103.707 39.0167 183.268C39.0167 262.829 103.78 327.542 183.3 327.542C262.819 327.542 327.583 262.82 327.583 183.268C327.583 103.715 262.894 38.9848 183.3 38.9848Z" fill="#E0E0E0"/>
<path d="M183.3 293.798C122.353 293.798 72.7695 244.215 72.7695 183.268C72.7695 122.32 122.386 72.7371 183.3 72.7371C244.214 72.7371 293.831 122.32 293.831 183.268C293.831 244.215 244.281 293.798 183.3 293.798ZM183.3 75.3866C154.704 75.4285 127.292 86.8091 107.075 107.033C86.8575 127.256 75.4855 154.672 75.4524 183.268C75.4524 242.749 123.852 291.149 183.333 291.149C211.95 291.149 239.394 279.781 259.629 259.546C279.863 239.311 291.231 211.867 291.231 183.251C291.231 154.635 279.863 127.191 259.629 106.956C239.394 86.7211 211.95 75.3533 183.333 75.3533L183.3 75.3866Z" fill="#E0E0E0"/>
<path d="M183.302 257.396C168.636 257.396 154.299 253.047 142.105 244.899C129.91 236.751 120.406 225.17 114.793 211.62C109.181 198.07 107.712 183.16 110.573 168.776C113.435 154.392 120.497 141.179 130.868 130.808C141.238 120.438 154.451 113.375 168.835 110.514C183.22 107.653 198.13 109.121 211.679 114.734C225.229 120.346 236.811 129.851 244.959 142.045C253.107 154.24 257.456 168.577 257.456 183.243C257.44 202.905 249.623 221.757 235.72 235.66C221.816 249.563 202.964 257.381 183.302 257.396ZM183.302 111.789C169.165 111.789 155.345 115.981 143.59 123.835C131.836 131.689 122.674 142.853 117.264 155.914C111.854 168.975 110.438 183.347 113.196 197.213C115.954 211.078 122.762 223.815 132.759 233.811C142.755 243.808 155.492 250.615 169.357 253.373C183.223 256.131 197.595 254.716 210.656 249.306C223.717 243.896 234.881 234.734 242.735 222.979C250.589 211.225 254.781 197.405 254.781 183.268C254.759 164.317 247.221 146.149 233.821 132.749C220.421 119.349 202.253 111.811 183.302 111.789Z" fill="#E0E0E0"/>
<path d="M183.301 220.995C175.839 220.995 168.545 218.782 162.341 214.637C156.137 210.491 151.301 204.599 148.446 197.705C145.591 190.812 144.843 183.226 146.299 175.908C147.755 168.59 151.348 161.867 156.624 156.591C161.9 151.315 168.623 147.722 175.941 146.266C183.259 144.81 190.845 145.558 197.738 148.413C204.632 151.268 210.524 156.104 214.67 162.308C218.815 168.512 221.028 175.806 221.028 183.268C221.017 193.27 217.038 202.86 209.966 209.933C202.893 217.005 193.303 220.984 183.301 220.995ZM183.301 148.191C176.363 148.191 169.582 150.248 163.813 154.102C158.045 157.957 153.549 163.435 150.894 169.845C148.239 176.254 147.544 183.307 148.898 190.111C150.251 196.916 153.592 203.166 158.498 208.071C163.403 212.977 169.653 216.318 176.458 217.671C183.262 219.025 190.315 218.33 196.724 215.675C203.134 213.02 208.612 208.524 212.467 202.756C216.321 196.987 218.378 190.206 218.378 183.268C218.367 173.968 214.668 165.053 208.092 158.477C201.516 151.901 192.601 148.202 183.301 148.191Z" fill="#E0E0E0"/>
</g>
<path d="M184.294 319.987C258.13 319.987 317.986 260.131 317.986 186.295C317.986 112.459 258.13 52.6025 184.294 52.6025C110.458 52.6025 50.6016 112.459 50.6016 186.295C50.6016 260.131 110.458 319.987 184.294 319.987Z" fill="white" stroke="#2F9FEE" stroke-width="6" stroke-miterlimit="10"/>
<circle cx="184.602" cy="321.603" r="16" fill="#2F9FEE"/>
<circle cx="184.602" cy="354.603" r="8" fill="#2F9FEE"/>
<circle cx="184.602" cy="379.603" r="8" fill="#2F9FEE"/>
<circle cx="184.602" cy="404.603" r="8" fill="#2F9FEE"/>
<g clip-path="url(#clip0_1490_234)">
<path d="M222.179 227.235C221.472 226.65 219.946 227.118 218.796 227.001C217.769 226.899 217.585 227.292 217.589 228.251C217.634 234.793 217.581 241.339 217.642 247.881C217.653 248.957 217.363 249.176 216.33 249.176C186.237 249.145 156.145 249.145 126.056 249.176C124.966 249.176 124.77 248.862 124.774 247.843C124.804 224.166 124.808 200.489 124.767 176.812C124.767 175.63 125.161 175.46 126.184 175.468C131.996 175.509 137.807 175.491 143.619 175.491C146.991 175.491 146.946 175.491 147.006 172.036C147.025 170.949 146.766 170.617 145.634 170.625C139.074 170.681 132.511 170.636 125.947 170.674C125.049 170.677 124.748 170.47 124.77 169.518C124.834 166.649 124.842 163.777 124.77 160.904C124.744 159.922 125.09 159.771 125.955 159.775C131.721 159.809 137.484 159.805 143.251 159.783C144.36 159.779 145.867 160.292 146.465 159.556C147.025 158.869 146.593 157.404 146.694 156.294C146.788 155.287 146.536 154.935 145.427 154.943C137.977 155 130.522 155 123.071 154.947C121.628 154.935 120.65 155.441 120 156.687V252.445C120.729 253.517 121.688 254 123.034 254C155.141 253.974 187.248 253.981 219.356 253.977C221.626 253.977 222.404 253.185 222.408 250.935C222.416 244.155 222.423 237.379 222.401 230.599C222.397 229.44 222.923 227.858 222.183 227.239L222.179 227.235Z" fill="#2F9FEE"/>
<path d="M254.177 117.785C248.185 115.701 241.441 117.857 237.738 123.142C237.118 124.029 236.513 124.32 235.468 124.32C208.706 124.29 181.944 124.297 155.183 124.297C152.209 124.297 151.566 124.95 151.562 127.959C151.562 147.918 151.562 167.873 151.562 187.831C151.562 191.202 151.562 191.149 154.863 191.229C156.051 191.259 156.416 191.021 156.408 189.726C156.352 175.23 156.389 160.734 156.344 146.234C156.344 145.018 156.589 144.66 157.87 144.664C171.885 144.716 185.895 144.698 199.91 144.698C212.657 144.698 225.405 144.698 238.152 144.698C240.757 144.698 243.355 144.524 245.877 145.611C246.806 146.011 247.121 146.325 247.118 147.325C247.088 170.247 247.08 193.169 247.133 216.091C247.133 217.477 246.674 217.65 245.482 217.65C225.468 217.616 205.458 217.628 185.444 217.628C182.271 217.628 182.328 217.628 182.249 220.855C182.219 222.093 182.482 222.501 183.824 222.497C205.338 222.448 226.848 222.463 248.362 222.463C251.215 222.463 251.896 221.769 251.896 218.858C251.896 194.996 251.899 171.13 251.877 147.268C251.877 146.359 252.005 145.902 253.038 145.649C259.2 144.143 263.711 138.608 263.978 132.376C264.26 125.8 260.305 119.914 254.17 117.782L254.177 117.785ZM235.878 139.832C209.924 139.832 183.971 139.82 158.021 139.866C156.649 139.866 156.288 139.518 156.348 138.163C156.465 135.581 156.419 132.987 156.363 130.401C156.344 129.465 156.536 129.103 157.573 129.103C183.057 129.133 208.541 129.126 234.028 129.129C234.554 129.129 235.197 128.929 235.088 129.918C234.701 133.399 235.505 136.619 237.547 139.832H235.878ZM249.482 141.357C244.035 141.308 239.731 136.879 239.806 131.402C239.881 126.064 244.238 121.806 249.569 121.866C254.956 121.923 259.264 126.324 259.207 131.704C259.151 136.985 254.7 141.406 249.482 141.357Z" fill="#2F9FEE"/>
<path d="M139.992 231.037C139.18 231.875 137.785 232.758 137.789 233.611C137.793 234.449 139.308 235.223 140.037 236.125C140.744 236.994 141.154 236.771 141.838 236.065C151.63 225.929 161.449 215.823 171.276 205.717C171.667 205.313 171.979 204.781 172.866 204.475C172.866 209.19 172.855 213.705 172.866 218.224C172.877 221.678 172.889 221.629 176.404 221.625C177.467 221.625 177.719 221.338 177.697 220.285C177.558 213.226 177.49 206.163 177.4 199.103C177.37 196.767 176.58 195.966 174.257 195.993C168.024 196.065 161.792 196.151 155.559 196.242C154.397 196.257 152.845 195.883 152.172 196.484C151.371 197.193 152.082 198.786 151.95 199.987C151.841 200.976 152.285 201.116 153.149 201.097C156.1 201.021 159.055 201.025 162.006 201.01C164.284 200.999 166.566 201.01 168.844 201.01C168.908 201.119 168.972 201.229 169.036 201.338C168.739 201.561 168.404 201.75 168.148 202.014C158.754 211.686 149.367 221.365 139.984 231.048L139.992 231.037Z" fill="#404041"/>
<path d="M254.37 130.103C255.48 128.988 255.494 127.886 254.412 126.796C253.229 125.608 252.047 125.608 250.867 126.796C249.954 127.712 249.038 127.708 248.119 126.785C246.943 125.607 245.758 125.618 244.562 126.819C243.497 127.888 243.495 128.957 244.555 130.024C245.615 131.091 245.623 132.122 244.577 133.116C243.492 134.205 243.492 135.296 244.577 136.389C246.344 138.163 246.356 138.174 248.145 136.339C248.57 135.905 248.901 135.384 249.51 134.603C250.092 135.366 250.416 135.89 250.837 136.321C252.637 138.167 252.645 138.155 254.393 136.4C255.495 135.293 255.502 134.191 254.412 133.097C253.404 132.085 253.39 131.087 254.37 130.103Z" fill="#404041"/>
</g>
<defs>
<clipPath id="clip0_1490_234">
<rect width="144" height="137" fill="white" transform="translate(120 117)"/>
</clipPath>
</defs>
</svg>
