<svg width="367" height="418" viewBox="0 0 367 418" fill="none" xmlns="http://www.w3.org/2000/svg">
<g opacity="0.7">
<path d="M183.301 366.602C82.2106 366.602 0 284.358 0 183.301C0 82.2439 82.2439 0 183.301 0C284.358 0 366.602 82.2439 366.602 183.301C366.602 284.358 284.425 366.602 183.301 366.602ZM183.301 2.58286C83.677 2.58286 2.62453 83.6353 2.62453 183.268C2.62453 282.9 83.7103 363.953 183.301 363.953C282.892 363.953 363.986 282.9 363.986 183.268C363.986 83.6353 282.967 2.58286 183.301 2.58286Z" fill="#E0E0E0"/>
<path d="M183.3 330.2C102.281 330.2 36.3672 264.287 36.3672 183.268C36.3672 102.249 102.314 36.3352 183.3 36.3352C264.285 36.3352 330.266 102.257 330.266 183.268C330.266 264.279 264.352 330.2 183.3 330.2ZM183.3 38.9848C103.747 38.9848 39.0167 103.707 39.0167 183.268C39.0167 262.829 103.78 327.542 183.3 327.542C262.819 327.542 327.583 262.82 327.583 183.268C327.583 103.715 262.894 38.9848 183.3 38.9848Z" fill="#E0E0E0"/>
<path d="M183.3 293.798C122.353 293.798 72.7695 244.215 72.7695 183.268C72.7695 122.32 122.386 72.7371 183.3 72.7371C244.214 72.7371 293.831 122.32 293.831 183.268C293.831 244.215 244.281 293.798 183.3 293.798ZM183.3 75.3866C154.704 75.4285 127.292 86.8091 107.075 107.033C86.8575 127.256 75.4855 154.672 75.4524 183.268C75.4524 242.749 123.852 291.149 183.333 291.149C211.95 291.149 239.394 279.781 259.629 259.546C279.863 239.311 291.231 211.867 291.231 183.251C291.231 154.635 279.863 127.191 259.629 106.956C239.394 86.7211 211.95 75.3533 183.333 75.3533L183.3 75.3866Z" fill="#E0E0E0"/>
<path d="M183.302 257.396C168.636 257.396 154.299 253.047 142.105 244.899C129.91 236.751 120.406 225.17 114.793 211.62C109.181 198.07 107.712 183.16 110.573 168.776C113.435 154.392 120.497 141.179 130.868 130.808C141.238 120.438 154.451 113.375 168.835 110.514C183.22 107.653 198.13 109.121 211.679 114.734C225.229 120.346 236.811 129.851 244.959 142.045C253.107 154.24 257.456 168.577 257.456 183.243C257.44 202.905 249.623 221.757 235.72 235.66C221.816 249.563 202.964 257.381 183.302 257.396ZM183.302 111.789C169.165 111.789 155.345 115.981 143.59 123.835C131.836 131.689 122.674 142.853 117.264 155.914C111.854 168.975 110.438 183.347 113.196 197.213C115.954 211.078 122.762 223.815 132.759 233.811C142.755 243.808 155.492 250.615 169.357 253.373C183.223 256.131 197.595 254.716 210.656 249.306C223.717 243.896 234.881 234.734 242.735 222.979C250.589 211.225 254.781 197.405 254.781 183.268C254.759 164.317 247.221 146.149 233.821 132.749C220.421 119.349 202.253 111.811 183.302 111.789Z" fill="#E0E0E0"/>
<path d="M183.301 220.995C175.839 220.995 168.545 218.782 162.341 214.637C156.137 210.491 151.301 204.599 148.446 197.705C145.591 190.812 144.843 183.226 146.299 175.908C147.755 168.59 151.348 161.867 156.624 156.591C161.9 151.315 168.623 147.722 175.941 146.266C183.259 144.81 190.845 145.558 197.738 148.413C204.632 151.268 210.524 156.104 214.67 162.308C218.815 168.512 221.028 175.806 221.028 183.268C221.017 193.27 217.038 202.86 209.966 209.933C202.893 217.005 193.303 220.984 183.301 220.995ZM183.301 148.191C176.363 148.191 169.582 150.248 163.813 154.102C158.045 157.957 153.549 163.435 150.894 169.845C148.239 176.254 147.544 183.307 148.898 190.111C150.251 196.916 153.592 203.166 158.498 208.071C163.403 212.977 169.653 216.318 176.458 217.671C183.262 219.025 190.315 218.33 196.724 215.675C203.134 213.02 208.612 208.524 212.467 202.756C216.321 196.987 218.378 190.206 218.378 183.268C218.367 173.968 214.668 165.053 208.092 158.477C201.516 151.901 192.601 148.202 183.301 148.191Z" fill="#E0E0E0"/>
</g>
<g clip-path="url(#clip0_1490_236)">
<path d="M184.001 318.295C257.837 318.295 317.693 258.439 317.693 184.603C317.693 110.766 257.837 50.9102 184.001 50.9102C110.165 50.9102 50.3086 110.766 50.3086 184.603C50.3086 258.439 110.165 318.295 184.001 318.295Z" fill="white" stroke="#2F9FEE" stroke-width="6" stroke-miterlimit="10"/>
<g clip-path="url(#clip1_1490_236)">
<path d="M255.359 119.855C251.048 115.566 246.725 111.285 242.41 107H220.966C218.064 107.963 217.196 109.153 217.192 112.361C217.176 124.917 217.176 137.472 217.192 150.028C217.196 153.71 219.097 155.571 222.803 155.592C225.971 155.608 229.139 155.579 232.308 155.604C233.89 155.616 234.052 155.786 234.088 157.327C234.116 158.687 234.112 160.05 234.088 161.41C234.039 164.06 233.418 164.667 230.726 164.667C218.101 164.671 205.475 164.655 192.85 164.692C191.417 164.696 190.299 164.416 189.593 163.061C189.29 162.482 188.826 161.944 188.245 161.657C186.582 160.827 186.263 159.464 186.36 157.76C186.477 155.697 186.477 155.608 188.483 155.6C191.651 155.587 194.82 155.6 197.988 155.592C199.857 155.587 201.274 154.77 202.275 153.212C203.098 151.938 203.304 150.513 203.3 149.016C203.288 140.394 203.268 131.771 203.312 123.149C203.324 121.198 202.702 119.649 201.322 118.289C198.129 115.145 194.973 111.961 191.825 108.772C191.07 108.008 190.271 107.352 189.246 107H167.802C166.349 107.275 165.166 107.914 164.504 109.327C163.935 110.54 163.721 111.815 163.721 113.146C163.721 116.881 163.721 120.612 163.721 124.346C163.721 132.718 163.689 141.094 163.737 149.465C163.761 153.504 165.848 155.575 169.763 155.592C172.782 155.604 175.801 155.587 178.82 155.6C179.361 155.6 179.963 155.498 180.374 155.984C181.081 156.822 180.576 160.346 179.628 161.001C178.663 161.669 177.763 162.397 177.165 163.417C176.617 164.352 175.842 164.679 174.784 164.679C161.751 164.667 148.718 164.679 135.682 164.659C133.781 164.659 133.062 163.939 132.949 162.009C132.856 160.447 132.905 158.881 132.925 157.319C132.945 155.774 133.106 155.612 134.697 155.604C137.865 155.583 141.038 155.608 144.206 155.592C147.907 155.571 149.8 153.73 149.812 150.012C149.849 140.782 149.812 131.549 149.836 122.319C149.841 120.907 149.388 119.814 148.387 118.823C144.872 115.356 141.393 111.851 137.922 108.339C137.3 107.712 136.598 107.279 135.774 107.004H114.657C111.989 108.068 110.98 110.023 111 112.903C111.089 125.111 111.037 137.323 111.037 149.53C111.037 153.496 112.744 155.187 116.744 155.187C120.066 155.187 123.387 155.219 126.709 155.167C127.65 155.15 128.053 155.337 127.993 156.389C127.9 158.048 128.081 159.727 127.948 161.382C127.577 165.95 130.548 169.915 136.396 169.826C149.38 169.632 162.365 169.774 175.349 169.749C176.29 169.749 176.891 169.887 177.307 170.886C177.864 172.214 178.937 173.221 180.253 173.796C181.117 174.176 181.27 174.702 181.262 175.536C181.23 179.521 181.262 183.507 181.234 187.492C181.23 188.107 181.593 188.965 180.964 189.289C180.33 189.612 179.611 189.082 179.03 188.702C178.53 188.378 178.082 187.953 177.654 187.533C176.185 186.08 174.687 184.652 173.283 183.138C171.083 180.771 168.391 179.752 165.198 179.772C158.656 179.812 152.113 179.764 145.57 179.788C139.161 179.812 135.238 183.782 135.238 190.195C135.234 210.677 135.234 231.159 135.238 251.646C135.238 258.027 139.225 261.992 145.619 261.996C171.587 261.996 197.56 261.996 223.529 261.996C228.667 261.996 231.953 259.641 233.579 254.745C238.968 238.536 244.267 222.29 249.789 206.125C250.947 202.73 249.002 198.98 244.731 199.19C240.816 199.384 236.881 199.226 232.958 199.234C232.344 199.234 231.896 199.303 231.747 198.385C230.746 192.36 227.307 189.519 221.16 189.515C212.252 189.511 203.344 189.515 194.436 189.515C193.835 189.515 193.217 189.507 192.636 189.633C191.712 189.827 191.163 190.462 191.026 191.409C190.88 192.404 191.215 193.206 192.091 193.723C192.725 194.1 193.443 194.055 194.15 194.055C200.341 194.055 206.533 194.055 212.72 194.055C215.84 194.055 218.96 194.019 222.08 194.071C224.748 194.116 226.52 195.589 227.142 197.976C227.42 199.048 227.097 199.255 226.084 199.251C213.047 199.222 200.014 199.222 186.977 199.251C186.053 199.251 185.775 198.996 185.779 198.061C185.815 190.495 185.807 182.924 185.787 175.357C185.787 174.621 185.944 174.18 186.687 173.856C188.007 173.278 189.088 172.307 189.674 170.988C190.142 169.931 190.804 169.737 191.877 169.741C205.015 169.782 218.149 169.778 231.287 169.761C236.191 169.757 239.064 166.852 239.081 161.96C239.085 160.144 239.141 158.327 239.056 156.514C239.008 155.474 239.282 155.142 240.368 155.163C243.989 155.235 247.617 155.215 251.238 155.179C254.027 155.15 255.992 153.204 256 150.408C256.029 140.871 256.008 131.338 256.016 121.801C256.016 121.065 255.903 120.377 255.375 119.851L255.359 119.855ZM137.441 115.198C138.733 116.493 140.025 117.787 141.3 119.062C141.272 119.066 141.134 119.114 141.001 119.119C138.343 119.202 137.156 117.895 137.441 115.198ZM116.586 150.675C115.456 150.683 115.561 150.101 115.565 149.372C115.573 143.271 115.569 137.173 115.569 131.071C115.569 124.969 115.589 118.872 115.545 112.77C115.537 111.795 115.775 111.503 116.776 111.516C121.704 111.568 126.632 111.58 131.561 111.512C132.679 111.495 132.872 111.872 132.828 112.875C132.747 114.736 132.796 116.606 132.808 118.471C132.828 121.724 134.737 123.646 137.946 123.662C139.956 123.671 141.97 123.695 143.98 123.65C144.698 123.634 144.92 123.841 144.92 124.577C144.896 132.945 144.892 141.316 144.92 149.684C144.92 150.513 144.646 150.671 143.887 150.671C134.786 150.647 125.68 150.635 116.578 150.683L116.586 150.675ZM190.767 115.242C192.043 116.537 193.29 117.804 194.561 119.094C194.452 119.098 194.271 119.11 194.089 119.114C190.243 119.204 190.198 119.151 190.767 115.238V115.242ZM169.763 150.667C168.722 150.667 168.811 150.101 168.811 149.417C168.819 143.319 168.815 137.217 168.815 131.12C168.815 125.022 168.839 119.021 168.79 112.972C168.782 111.916 168.948 111.487 170.159 111.508C175.087 111.584 180.015 111.564 184.943 111.52C185.863 111.512 186.162 111.738 186.126 112.685C186.049 114.599 186.09 116.517 186.106 118.431C186.142 121.817 187.978 123.646 191.337 123.658C193.298 123.667 195.26 123.695 197.221 123.642C198.016 123.622 198.242 123.877 198.238 124.666C198.214 132.985 198.214 141.3 198.238 149.619C198.238 150.4 198.025 150.663 197.225 150.659C188.071 150.635 178.921 150.631 169.767 150.663L169.763 150.667ZM139.972 244.99C139.903 244.961 139.831 244.937 139.762 244.909C139.762 226.506 139.754 208.108 139.77 189.705C139.77 186.468 141.772 184.377 145.021 184.348C151.911 184.288 158.801 184.328 165.691 184.328C167.333 184.328 168.702 184.927 169.852 186.121C171.495 187.824 173.186 189.479 174.861 191.154C176.362 192.655 178.134 193.659 180.261 193.893C181.028 193.978 181.242 194.278 181.27 195.03C181.44 199.226 181.46 199.226 177.355 199.226C172.475 199.226 167.6 199.21 162.72 199.23C157.675 199.251 154.51 201.529 152.908 206.323C148.803 218.612 144.719 230.909 140.626 243.201C140.424 243.8 140.194 244.391 139.976 244.985L139.972 244.99ZM244.517 203.774C244.864 203.774 245.208 203.819 245.696 203.855C244.255 208.221 242.842 212.506 241.422 216.783C237.414 228.853 233.398 240.923 229.386 252.989C228.243 256.42 226.807 257.452 223.166 257.452C197.346 257.452 171.531 257.452 145.712 257.452C145.11 257.452 144.493 257.48 143.907 257.375C141.578 256.954 141.102 256.157 141.833 253.96C146.955 238.556 152.077 223.152 157.207 207.752C158.159 204.891 159.665 203.778 162.684 203.778C189.96 203.77 217.237 203.774 244.517 203.778V203.774ZM183.531 170.053C182.082 170.061 180.947 168.928 180.964 167.483C180.98 166.059 182.17 164.89 183.575 164.93C184.927 164.967 186.041 166.092 186.069 167.455C186.098 168.896 184.971 170.045 183.531 170.053ZM244.029 115.234C245.264 116.444 246.564 117.723 247.952 119.082C247.698 119.098 247.508 119.119 247.314 119.123C243.472 119.179 243.424 119.123 244.029 115.234ZM250.442 150.663C241.337 150.643 232.231 150.635 223.126 150.671C222.177 150.671 222.1 150.287 222.104 149.518C222.129 143.368 222.117 137.213 222.117 131.063C222.117 124.913 222.149 118.961 222.088 112.912C222.076 111.766 222.375 111.503 223.497 111.516C228.377 111.584 233.256 111.568 238.136 111.524C239.093 111.516 239.436 111.726 239.395 112.75C239.311 114.813 239.343 116.885 239.379 118.953C239.424 121.643 241.377 123.61 244.049 123.658C246.213 123.695 248.376 123.695 250.539 123.654C251.25 123.642 251.484 123.832 251.48 124.573C251.456 132.945 251.452 141.316 251.48 149.684C251.48 150.517 251.193 150.671 250.442 150.667V150.663Z" fill="#2F9FEE"/>
<path d="M208.166 240.17C213.538 240.187 218.914 240.191 224.286 240.17C225.901 240.166 226.938 239.236 226.946 237.901C226.958 236.561 225.929 235.655 224.31 235.643C221.598 235.627 218.886 235.639 216.173 235.639C213.514 235.639 210.85 235.631 208.19 235.639C206.466 235.647 205.546 236.399 205.502 237.799C205.453 239.256 206.434 240.166 208.166 240.17Z" fill="#404041"/>
<path d="M203.322 249.873C208.694 249.89 214.07 249.89 219.442 249.873C221.057 249.869 222.098 248.943 222.106 247.611C222.118 246.268 221.081 245.358 219.471 245.346C216.758 245.329 214.046 245.342 211.334 245.342C208.621 245.342 206.01 245.333 203.35 245.342C201.643 245.35 200.702 246.118 200.658 247.502C200.61 248.951 201.598 249.865 203.318 249.873H203.322Z" fill="#404041"/>
<path d="M176.592 133.357C178.448 133.378 180.301 133.361 182.157 133.361C184.115 133.361 186.069 133.378 188.026 133.357C189.649 133.341 190.629 132.447 190.605 131.067C190.581 129.768 189.604 128.842 188.091 128.83C184.228 128.801 180.365 128.797 176.507 128.83C175.001 128.842 174.016 129.781 174 131.075C173.98 132.447 174.969 133.337 176.592 133.353V133.357Z" fill="#404041"/>
<path d="M188.179 143.052C189.64 143.028 190.532 142.202 190.593 140.916C190.654 139.601 189.709 138.557 188.236 138.541C184.276 138.492 180.313 138.496 176.349 138.541C174.949 138.557 174.012 139.544 174 140.786C173.984 142.109 174.941 143.028 176.446 143.052C178.4 143.084 180.357 143.06 182.315 143.06C184.272 143.06 186.226 143.084 188.183 143.052H188.179Z" fill="#404041"/>
<path d="M134.875 128.834C131.012 128.797 127.146 128.801 123.283 128.834C121.693 128.846 120.68 129.833 120.724 131.185C120.768 132.475 121.757 133.337 123.283 133.357C125.188 133.382 127.097 133.361 129.002 133.361C130.96 133.361 132.917 133.382 134.871 133.353C136.393 133.333 137.329 132.443 137.329 131.108C137.329 129.781 136.388 128.846 134.871 128.834H134.875Z" fill="#404041"/>
<path d="M134.967 138.541C131.003 138.492 127.039 138.492 123.076 138.541C121.671 138.557 120.735 139.548 120.723 140.79C120.707 142.077 121.712 143.028 123.193 143.048C125.151 143.076 127.108 143.056 129.062 143.056C131.019 143.056 132.977 143.08 134.93 143.048C136.379 143.024 137.279 142.182 137.328 140.9C137.376 139.556 136.464 138.553 134.967 138.537V138.541Z" fill="#404041"/>
<path d="M229.731 133.353C231.689 133.382 233.647 133.361 235.6 133.361C237.505 133.361 239.414 133.378 241.319 133.357C242.841 133.341 243.834 132.475 243.882 131.188C243.931 129.849 242.902 128.846 241.323 128.834C237.461 128.805 233.598 128.801 229.731 128.834C228.214 128.846 227.277 129.776 227.273 131.108C227.273 132.455 228.198 133.333 229.727 133.357L229.731 133.353Z" fill="#404041"/>
<path d="M241.397 138.537C237.535 138.5 233.672 138.5 229.809 138.537C228.195 138.549 227.242 139.5 227.287 140.896C227.327 142.231 228.247 143.04 229.817 143.06C231.722 143.085 233.632 143.064 235.537 143.064C237.494 143.064 239.452 143.085 241.405 143.056C242.899 143.036 243.896 142.101 243.887 140.811C243.883 139.52 242.899 138.553 241.397 138.537Z" fill="#404041"/>
</g>
</g>
<circle cx="184" cy="326.603" r="16" fill="#2F9FEE"/>
<circle cx="184" cy="359.603" r="8" fill="#2F9FEE"/>
<circle cx="184" cy="384.603" r="8" fill="#2F9FEE"/>
<circle cx="184" cy="409.603" r="8" fill="#2F9FEE"/>
<defs>
<clipPath id="clip0_1490_236">
<rect width="272" height="272" fill="white" transform="translate(48 48.6025)"/>
</clipPath>
<clipPath id="clip1_1490_236">
<rect width="145" height="155" fill="white" transform="translate(111 107)"/>
</clipPath>
</defs>
</svg>
