<svg width="137" height="116" viewBox="0 0 137 116" fill="none" xmlns="http://www.w3.org/2000/svg">
<g clip-path="url(#clip0_838_221)">
<path d="M136.884 57.2411C136.779 47.4787 128.79 40.0369 119.078 40.0092C115.991 40 112.896 39.9123 109.814 40.0507C108.306 40.1199 108.095 39.5986 108.081 38.2284C108.026 32.6551 108.471 27.0681 107.797 21.504C106.315 9.34256 95.915 0.023068 83.7672 0.0138408C64.0392 -0.00922722 44.3112 0.0138408 24.5832 0C21.818 0 19.1216 0.373702 16.5077 1.29642C6.52904 4.81661 0.0539307 14.3529 0.0172445 25.7163C-0.0194417 38.5467 0.00807292 51.3725 0.00807292 64.203C0.00807292 75.248 0.00807292 86.293 0.00807292 97.3379C0.00807292 99.9862 -0.0286133 102.63 0.026416 105.278C0.0631022 107.082 1.34253 108.208 3.00717 108.065C4.07107 107.972 4.73142 107.243 5.42387 106.561C13.8021 98.3114 22.1895 90.0761 30.5493 81.8039C31.2968 81.0657 32.0214 80.7243 33.0944 80.7428C37.0978 80.812 41.1012 80.7705 45.1 80.7705C49.9609 80.7705 54.8218 80.7612 59.6827 80.7797C60.2881 80.7797 60.9438 80.4937 61.1685 81.6194C63.2505 91.9492 69.7027 97.1995 80.1812 97.2041C90.9302 97.2041 101.684 97.218 112.433 97.1811C113.547 97.1811 114.336 97.504 115.129 98.293C120.696 103.834 126.314 109.329 131.913 114.842C132.876 115.792 133.931 116.36 135.298 115.742C136.481 115.211 136.967 114.251 136.967 112.987C136.958 94.4037 137.095 75.8201 136.889 57.2411H136.884ZM60.8338 58.4037C60.7467 63.5202 60.7742 68.6459 60.8429 73.7624C60.8613 74.985 60.5219 75.271 59.3297 75.2664C50.0664 75.2157 40.8031 75.2618 31.5399 75.2111C30.0586 75.2018 28.9535 75.6355 27.8942 76.6874C20.5661 83.9585 13.1922 91.1788 5.49266 98.7451V97.0058C5.49266 73.2457 5.47432 49.4856 5.50183 25.7255C5.511 18.0854 8.62933 12.0692 15.1365 7.98616C17.755 6.34371 20.6716 5.53633 23.7624 5.53633C43.8893 5.52249 64.0163 5.48558 84.1479 5.54556C93.2094 5.57324 101.001 12.6597 102.285 21.9562C103.069 27.6171 102.454 33.3333 102.633 39.0173C102.661 39.8616 102.23 39.9308 101.578 39.9308C96.4882 39.917 91.398 39.8893 86.3123 39.9492C85.1888 39.9631 85.3631 39.4879 85.4548 38.7128C86.1014 33.2088 83.2445 28.6644 78.5074 27.6078C74.8525 26.7912 71.7938 27.9308 69.5009 30.8051C67.0429 33.8824 66.5798 37.3887 68.2536 40.9873C68.8451 42.2607 68.8268 42.842 67.6482 43.8062C63.0808 47.5294 60.9301 52.5352 60.8292 58.3991L60.8338 58.4037ZM80.1124 36.9642C80.1078 39.4418 78.998 40.1384 74.8433 40.2768C73.8528 40.3091 72.8072 38.5882 72.8164 36.9458C72.8302 34.7036 74.5819 32.8074 76.5767 32.872C78.5486 32.9366 80.117 34.7497 80.1124 36.9596V36.9642ZM131.459 106.016C131.459 106.113 131.386 106.21 131.345 106.302C131.083 106.528 130.817 106.754 130.556 106.98C126.3 102.394 122.031 97.827 117.803 93.218C116.748 92.0692 115.537 91.6586 114.006 91.6632C102.514 91.7001 91.0219 91.6863 79.5346 91.6817C71.3811 91.6817 66.1991 86.0577 66.4559 77.8501C66.6531 71.5294 66.5247 65.1995 66.4926 58.8697C66.4651 54.0623 68.1848 50.1499 72.1882 47.4095C73.9583 46.1961 75.976 45.5779 78.1267 45.5732C91.7327 45.5456 105.339 45.5271 118.945 45.5317C125.906 45.5317 131.349 50.6574 131.409 57.6978C131.546 73.7993 131.464 89.9054 131.464 106.012L131.459 106.016Z" fill="#404041"/>
<path d="M31.6597 27.3402C26.6521 27.2941 22.4286 31.6724 22.4102 36.9273C22.3919 42.1038 26.4778 46.4682 31.435 46.5697C36.4473 46.6712 40.6708 42.3667 40.7625 37.0657C40.8542 31.8385 36.6857 27.3863 31.6551 27.3402H31.6597ZM31.646 41.038C29.6603 41.0749 27.8902 39.128 27.9086 36.9273C27.9269 34.7912 29.6053 32.9134 31.5359 32.8719C33.5307 32.8304 35.2825 34.7635 35.2641 36.9873C35.2458 39.1464 33.5857 41.0011 31.6506 41.038H31.646Z" fill="#404041"/>
<path d="M54.0248 27.3402C48.9713 27.3541 44.8945 31.6862 44.922 37.015C44.9495 42.3298 49.1042 46.639 54.144 46.5697C59.17 46.5052 63.2468 42.1084 63.1917 36.8073C63.1367 31.6124 58.9866 27.3218 54.0294 27.3356L54.0248 27.3402ZM54.0248 41.0426C52.0621 41.0334 50.4433 39.2341 50.4158 37.0242C50.3883 34.7266 52.03 32.8535 54.0569 32.8673C56.0058 32.8812 57.6613 34.7128 57.6934 36.8858C57.7255 39.1326 56.0333 41.0473 54.0248 41.0426Z" fill="#404041"/>
<path d="M95.7791 53.5871C92.2022 54.9711 89.5653 58.9527 89.813 62.6297C89.9139 64.1338 90.6751 65.1072 92.2113 65.2964C93.7063 65.4809 94.8344 64.6182 95.1829 63.0865C95.27 62.6943 95.3021 62.2929 95.3755 61.8962C95.7653 59.7278 97.3061 58.4221 99.2688 58.5974C101.126 58.7635 102.584 60.4844 102.616 62.5421C102.653 64.6551 101.19 66.4175 99.223 66.6343C94.949 67.0957 93.0184 69.2872 93.0093 73.6932C93.0093 74.0946 92.9955 74.5006 93.0093 74.9019C93.078 76.6643 94.1465 77.8085 95.7103 77.8177C97.2878 77.827 98.3746 76.7059 98.4847 74.9388C98.5122 74.4821 98.5214 74.0161 98.4847 73.5594C98.4113 72.669 98.6589 72.2353 99.677 72.1384C103.364 71.7785 105.941 69.7439 107.335 66.3621C108.784 62.8466 108.252 59.4786 105.941 56.466C103.57 53.3794 99.3239 52.2168 95.7653 53.5917L95.7791 53.5871Z" fill="#619DEA"/>
<path d="M95.8709 80.12C94.408 80.0831 93.1011 81.3749 93.0231 82.9389C92.9452 84.526 94.1421 85.8547 95.6783 85.8916C97.1733 85.9285 98.4206 84.669 98.4985 83.0496C98.5811 81.3841 97.4805 80.1523 95.8709 80.1154V80.12Z" fill="#619DEA"/>
</g>
<defs>
<clipPath id="clip0_838_221">
<rect width="137" height="116" fill="white"/>
</clipPath>
</defs>
</svg>
