<svg width="693" height="384" viewBox="0 0 693 384" fill="none" xmlns="http://www.w3.org/2000/svg">
<path d="M692.468 303.255C692.568 303.528 692.612 303.818 692.599 304.109C692.586 304.399 692.516 304.684 692.392 304.947C692.269 305.21 692.094 305.447 691.879 305.642C691.664 305.838 691.412 305.989 691.138 306.087C690.848 306.216 690.535 306.281 690.217 306.28C689.9 306.279 689.587 306.21 689.299 306.078C689.011 305.946 688.754 305.754 688.545 305.516C688.336 305.277 688.181 304.997 688.089 304.693C687.995 304.418 687.957 304.126 687.976 303.836C687.996 303.546 688.073 303.262 688.202 303.001C688.332 302.741 688.512 302.508 688.732 302.317C688.952 302.127 689.207 301.981 689.484 301.89C689.796 301.776 690.131 301.736 690.461 301.773C690.791 301.811 691.109 301.925 691.387 302.106C691.795 302.418 692.079 302.863 692.19 303.364L692.468 303.255ZM659.096 316.164C659.214 316.436 659.278 316.728 659.282 317.024C659.286 317.321 659.232 317.615 659.122 317.89C659.011 318.165 658.848 318.416 658.64 318.627C658.432 318.838 658.184 319.006 657.911 319.121C657.361 319.352 656.743 319.357 656.19 319.135C655.636 318.914 655.193 318.483 654.955 317.937C654.749 317.452 654.724 316.908 654.884 316.406C655.045 315.904 655.38 315.475 655.829 315.199C656.166 315.045 656.536 314.979 656.906 315.009C657.275 315.038 657.63 315.161 657.938 315.367C658.306 315.586 658.61 315.899 658.818 316.273L659.096 316.164ZM626.595 331.299C626.843 331.829 626.876 332.433 626.688 332.987C626.501 333.541 626.106 334.001 625.587 334.271C625.322 334.407 625.031 334.488 624.733 334.508C624.435 334.529 624.137 334.488 623.855 334.39C623.573 334.291 623.314 334.136 623.094 333.935C622.874 333.733 622.698 333.489 622.575 333.217C622.444 332.957 622.367 332.673 622.348 332.382C622.329 332.092 622.368 331.8 622.464 331.525C622.56 331.25 622.71 330.997 622.906 330.781C623.101 330.566 623.338 330.391 623.602 330.268C623.946 330.096 624.329 330.019 624.712 330.046C625.095 330.073 625.464 330.202 625.78 330.42C626.098 330.719 626.319 331.104 626.418 331.529L626.595 331.299ZM594.497 346.917C594.627 347.181 594.702 347.468 594.72 347.762C594.738 348.055 594.698 348.349 594.602 348.627C594.506 348.905 594.357 349.162 594.162 349.382C593.967 349.602 593.73 349.781 593.466 349.91C592.926 350.158 592.31 350.184 591.752 349.983C591.193 349.782 590.735 349.37 590.477 348.835C590.348 348.571 590.273 348.284 590.255 347.991C590.237 347.697 590.277 347.403 590.373 347.125C590.468 346.847 590.618 346.591 590.813 346.371C591.008 346.151 591.245 345.971 591.509 345.843C591.858 345.687 592.241 345.623 592.622 345.657C593.002 345.692 593.367 345.823 593.683 346.039C593.916 346.358 594.06 346.734 594.098 347.127L594.497 346.917ZM192.175 103.584C192.678 103.888 193.042 104.377 193.187 104.947C193.332 105.517 193.247 106.121 192.95 106.628C192.804 106.886 192.608 107.111 192.373 107.292C192.139 107.472 191.87 107.603 191.584 107.677C191.298 107.752 190.999 107.767 190.707 107.724C190.414 107.681 190.133 107.579 189.881 107.425C189.628 107.275 189.407 107.077 189.232 106.841C189.056 106.605 188.93 106.337 188.86 106.051C188.79 105.766 188.778 105.469 188.824 105.179C188.871 104.888 188.975 104.61 189.13 104.361C189.278 104.108 189.474 103.887 189.707 103.711C189.941 103.535 190.207 103.408 190.49 103.335C190.774 103.263 191.068 103.248 191.358 103.291C191.647 103.333 191.925 103.433 192.175 103.584ZM221.26 125.127C221.48 125.321 221.658 125.557 221.786 125.822C221.913 126.086 221.987 126.373 222.002 126.666C222.017 126.958 221.973 127.251 221.874 127.527C221.774 127.803 221.62 128.057 221.422 128.272C221.226 128.494 220.989 128.674 220.723 128.803C220.458 128.932 220.17 129.007 219.875 129.024C219.58 129.041 219.285 129 219.007 128.902C218.728 128.805 218.472 128.653 218.252 128.456C218.031 128.26 217.852 128.021 217.724 127.755C217.597 127.488 217.525 127.198 217.512 126.903C217.499 126.607 217.546 126.312 217.65 126.036C217.753 125.759 217.911 125.505 218.114 125.29C218.469 124.894 218.954 124.638 219.481 124.567C220.007 124.495 220.543 124.614 220.99 124.902C221.089 124.965 221.18 125.041 221.26 125.127ZM160.37 92.0601C160.214 92.638 159.837 93.1313 159.32 93.4322C158.802 93.7332 158.187 93.8175 157.608 93.6668C157.03 93.5117 156.537 93.1343 156.236 92.6171C155.935 92.0999 155.851 91.4847 156.002 90.9056C156.063 90.6102 156.185 90.3308 156.361 90.0859C156.537 89.8409 156.763 89.6359 157.024 89.4842C157.285 89.3325 157.574 89.2376 157.874 89.2057C158.174 89.1738 158.477 89.2055 158.764 89.2989C158.995 89.3309 159.216 89.4119 159.413 89.5364C159.815 89.8057 160.123 90.1934 160.294 90.6456C160.466 91.0978 160.492 91.5921 160.37 92.0601ZM246.442 150.991C246.637 151.211 246.784 151.468 246.877 151.746C246.969 152.025 247.004 152.319 246.98 152.611C246.955 152.904 246.872 153.188 246.735 153.448C246.597 153.707 246.409 153.936 246.181 154.121C245.962 154.32 245.704 154.473 245.424 154.569C245.144 154.666 244.847 154.704 244.552 154.681C244.256 154.659 243.969 154.576 243.707 154.438C243.444 154.301 243.213 154.111 243.027 153.881C242.837 153.659 242.692 153.402 242.602 153.124C242.512 152.846 242.479 152.553 242.503 152.262C242.527 151.97 242.609 151.687 242.744 151.428C242.879 151.168 243.064 150.939 243.288 150.751C243.655 150.435 244.114 150.247 244.597 150.213C245.08 150.18 245.56 150.305 245.966 150.568L246.442 150.991ZM561.529 361.54C561.632 361.808 561.681 362.093 561.673 362.38C561.666 362.666 561.601 362.949 561.484 363.21C561.367 363.472 561.199 363.708 560.99 363.904C560.781 364.101 560.535 364.254 560.267 364.356C559.719 364.552 559.117 364.53 558.584 364.295C558.052 364.06 557.631 363.629 557.408 363.091C557.295 362.817 557.239 362.524 557.241 362.227C557.243 361.931 557.304 361.639 557.42 361.366C557.537 361.094 557.706 360.847 557.918 360.64C558.13 360.434 558.382 360.272 558.657 360.163C558.983 360.025 559.339 359.971 559.692 360.007C560.044 360.043 560.382 360.167 560.674 360.367C561.051 360.715 561.287 361.19 561.335 361.702L561.529 361.54ZM268.109 179.87C268.437 180.362 268.556 180.965 268.44 181.546C268.325 182.126 267.984 182.637 267.492 182.967C266.993 183.291 266.386 183.406 265.802 183.286C265.219 183.167 264.706 182.823 264.375 182.328C264.211 182.089 264.096 181.819 264.038 181.535C263.98 181.25 263.98 180.957 264.037 180.673C264.094 180.388 264.207 180.118 264.37 179.878C264.534 179.638 264.743 179.433 264.987 179.275C265.343 179.015 265.771 178.87 266.212 178.862C266.653 178.854 267.086 178.982 267.451 179.229C267.715 179.392 267.939 179.611 268.109 179.87ZM124.977 88.0384C125.013 88.3364 124.986 88.6386 124.899 88.9258C124.812 89.2131 124.666 89.4791 124.471 89.7073C124.276 89.9355 124.036 90.1209 123.765 90.2517C123.495 90.3825 123.201 90.4559 122.901 90.4673C122.605 90.4937 122.306 90.4606 122.023 90.3701C121.739 90.2795 121.477 90.1333 121.251 89.9401C121.024 89.7468 120.839 89.5104 120.706 89.2446C120.572 88.9788 120.493 88.689 120.473 88.3921C120.437 88.0941 120.464 87.792 120.551 87.5047C120.638 87.2175 120.784 86.9514 120.979 86.7233C121.174 86.4951 121.414 86.3097 121.685 86.1789C121.955 86.0481 122.249 85.9747 122.549 85.9632C123.037 85.918 123.525 86.0494 123.924 86.3334C124.226 86.5153 124.477 86.7709 124.652 87.0762C124.828 87.3815 124.923 87.7264 124.929 88.0787L124.977 88.0384ZM286.811 210.605C287.091 211.13 287.153 211.744 286.984 212.314C286.815 212.885 286.429 213.366 285.909 213.654C285.652 213.799 285.369 213.892 285.077 213.928C284.784 213.963 284.487 213.94 284.204 213.861C283.92 213.781 283.655 213.646 283.423 213.464C283.192 213.281 282.999 213.055 282.856 212.797C282.709 212.544 282.614 212.264 282.576 211.974C282.538 211.684 282.559 211.389 282.637 211.106C282.714 210.824 282.847 210.56 283.028 210.33C283.209 210.099 283.434 209.907 283.69 209.764C284.043 209.564 284.445 209.467 284.851 209.484C285.256 209.501 285.649 209.631 285.984 209.86C286.3 210.059 286.566 210.328 286.763 210.646L286.811 210.605ZM527.515 373.385C527.681 373.952 527.616 374.561 527.334 375.081C527.053 375.6 526.577 375.987 526.011 376.156C525.433 376.308 524.819 376.231 524.296 375.943C523.773 375.654 523.38 375.175 523.2 374.606C523.111 374.305 523.086 373.989 523.125 373.678C523.164 373.367 523.268 373.067 523.429 372.798C523.59 372.529 523.805 372.296 524.06 372.114C524.316 371.933 524.606 371.806 524.913 371.742C525.216 371.656 525.534 371.634 525.845 371.678C526.157 371.721 526.456 371.829 526.724 371.995C527.151 372.354 527.418 372.869 527.466 373.426L527.515 373.385ZM90.2408 96.2629C90.3676 96.528 90.4393 96.8162 90.4515 97.1099C90.4637 97.4037 90.4162 97.6969 90.3118 97.9718C90.2075 98.2466 90.0484 98.4975 89.8443 98.7092C89.6401 98.9209 89.3952 99.0889 89.1243 99.2032C88.8591 99.3302 88.5708 99.4019 88.2771 99.4143C87.9833 99.4267 87.6902 99.3793 87.4153 99.275C87.1405 99.1708 86.8896 99.0119 86.678 98.8079C86.4663 98.6039 86.2984 98.359 86.1842 98.0882C86.0574 97.823 85.9856 97.5348 85.9734 97.2411C85.9612 96.9473 86.0087 96.6542 86.1131 96.3793C86.2175 96.1044 86.3765 95.8536 86.5807 95.6419C86.7848 95.4302 87.0297 95.2621 87.3006 95.1478C87.6411 94.9951 88.0138 94.9287 88.3859 94.9545C88.7581 94.9803 89.1181 95.0974 89.434 95.2956C89.7939 95.5298 90.075 95.8668 90.2408 96.2629ZM303.816 242.06C304.1 242.578 304.166 243.187 304.002 243.755C303.837 244.322 303.455 244.802 302.938 245.088C302.683 245.238 302.401 245.333 302.108 245.37C301.815 245.406 301.518 245.383 301.235 245.301C300.951 245.219 300.688 245.08 300.46 244.892C300.232 244.705 300.044 244.473 299.909 244.211C299.762 243.959 299.668 243.68 299.632 243.39C299.595 243.101 299.618 242.807 299.697 242.526C299.777 242.245 299.913 241.983 300.096 241.756C300.279 241.528 300.506 241.34 300.763 241.203C301.113 241.007 301.51 240.91 301.911 240.922C302.311 240.935 302.701 241.056 303.038 241.274C303.403 241.461 303.698 241.762 303.877 242.132L303.816 242.06ZM492.411 380.727C492.444 381.023 492.417 381.324 492.333 381.61C492.249 381.896 492.11 382.163 491.922 382.396C491.735 382.628 491.504 382.821 491.242 382.964C490.98 383.107 490.692 383.197 490.395 383.228C490.099 383.261 489.799 383.234 489.512 383.15C489.226 383.067 488.959 382.927 488.727 382.74C488.494 382.553 488.301 382.322 488.158 382.06C488.016 381.798 487.926 381.51 487.895 381.214C487.858 380.916 487.881 380.615 487.964 380.327C488.046 380.038 488.185 379.77 488.373 379.536C488.561 379.303 488.794 379.11 489.058 378.968C489.322 378.827 489.612 378.74 489.91 378.712C490.432 378.67 490.953 378.795 491.399 379.07C491.697 379.258 491.948 379.512 492.134 379.811C492.32 380.111 492.435 380.449 492.472 380.799L492.411 380.727ZM321.527 273.13C321.676 273.381 321.775 273.659 321.816 273.948C321.857 274.237 321.84 274.531 321.767 274.814C321.693 275.096 321.564 275.361 321.388 275.594C321.211 275.826 320.99 276.021 320.737 276.167C320.49 276.324 320.214 276.428 319.926 276.476C319.637 276.523 319.342 276.511 319.058 276.442C318.774 276.372 318.507 276.246 318.273 276.071C318.039 275.896 317.843 275.676 317.696 275.423C317.549 275.169 317.453 274.888 317.414 274.597C317.375 274.306 317.394 274.01 317.47 273.726C317.545 273.442 317.676 273.176 317.855 272.943C318.033 272.709 318.256 272.513 318.51 272.366C318.867 272.146 319.28 272.033 319.699 272.039C320.118 272.045 320.527 272.17 320.877 272.401C321.166 272.617 321.408 272.89 321.587 273.203L321.527 273.13ZM59.7571 114.8C59.9411 115.027 60.0781 115.288 60.1602 115.568C60.2423 115.849 60.2678 116.143 60.2352 116.433C60.2026 116.724 60.1126 117.005 59.9704 117.26C59.8282 117.516 59.6367 117.74 59.4069 117.921C59.1883 118.115 58.9324 118.262 58.6549 118.353C58.3775 118.444 58.0842 118.478 57.7934 118.451C57.5025 118.425 57.2202 118.34 56.9636 118.2C56.7071 118.061 56.4818 117.87 56.3016 117.641C55.9218 117.185 55.7386 116.598 55.7921 116.007C55.8456 115.416 56.1317 114.871 56.5872 114.491C56.9585 114.191 57.416 114.018 57.8927 113.997C58.3694 113.975 58.8403 114.107 59.2367 114.373C59.4455 114.521 59.64 114.688 59.8176 114.872L59.7571 114.8ZM340.947 303.103C341.287 303.586 341.422 304.183 341.323 304.764C341.224 305.346 340.9 305.865 340.42 306.208C340.181 306.381 339.911 306.506 339.624 306.574C339.338 306.642 339.04 306.653 338.75 306.606C338.459 306.559 338.18 306.455 337.93 306.3C337.679 306.145 337.462 305.942 337.29 305.702C336.945 305.214 336.808 304.608 336.907 304.018C337.007 303.428 337.336 302.902 337.822 302.553C338.187 302.296 338.619 302.151 339.065 302.136C339.511 302.121 339.952 302.235 340.334 302.466C340.581 302.633 340.79 302.85 340.947 303.103ZM456.826 381.54C456.771 382.128 456.485 382.669 456.032 383.047C455.579 383.425 454.995 383.609 454.407 383.558C453.829 383.48 453.301 383.189 452.928 382.741C452.555 382.294 452.363 381.722 452.39 381.14C452.453 380.556 452.741 380.019 453.192 379.643C453.644 379.266 454.223 379.08 454.809 379.122C455.165 379.137 455.51 379.245 455.809 379.436C456.157 379.659 456.435 379.973 456.615 380.344C456.794 380.716 456.867 381.13 456.826 381.54ZM363.428 330.646C363.821 331.077 364.031 331.645 364.011 332.228C363.992 332.811 363.745 333.364 363.324 333.768C362.882 334.169 362.3 334.381 361.704 334.357C361.107 334.332 360.545 334.073 360.138 333.637C359.746 333.194 359.543 332.616 359.571 332.025C359.6 331.434 359.858 330.878 360.29 330.475C360.643 330.127 361.106 329.912 361.599 329.867C362.093 329.822 362.586 329.949 362.996 330.227C363.126 330.384 363.231 330.559 363.307 330.747L363.428 330.646ZM421.76 373.925C421.669 374.222 421.516 374.495 421.311 374.727C421.106 374.96 420.854 375.146 420.571 375.272C420.289 375.399 419.982 375.465 419.673 375.463C419.363 375.462 419.057 375.395 418.776 375.266C418.479 375.176 418.206 375.023 417.974 374.818C417.742 374.613 417.556 374.361 417.429 374.079C417.302 373.796 417.237 373.49 417.238 373.18C417.24 372.87 417.307 372.564 417.436 372.283C417.539 371.995 417.699 371.731 417.906 371.507C418.113 371.283 418.364 371.102 418.643 370.977C418.921 370.852 419.222 370.784 419.528 370.778C419.833 370.772 420.137 370.828 420.42 370.942L420.827 371.136C421.284 371.418 421.628 371.852 421.798 372.362C421.968 372.871 421.955 373.425 421.76 373.925ZM389.602 354.207C390.087 354.564 390.413 355.096 390.509 355.69C390.606 356.284 390.466 356.892 390.119 357.385C389.945 357.622 389.726 357.822 389.474 357.974C389.223 358.127 388.944 358.228 388.653 358.272C388.362 358.317 388.066 358.303 387.78 358.233C387.495 358.163 387.226 358.037 386.989 357.862C386.513 357.515 386.193 356.994 386.099 356.411C386.005 355.829 386.145 355.233 386.489 354.754C386.819 354.276 387.324 353.947 387.895 353.84C388.466 353.732 389.056 353.854 389.537 354.179L389.602 354.207ZM33.9447 139.773C34.3839 140.172 34.649 140.728 34.683 141.32C34.7171 141.913 34.5175 142.495 34.1269 142.943C33.9314 143.164 33.6941 143.344 33.4285 143.473C33.163 143.602 32.8746 143.677 32.58 143.694C32.2853 143.711 31.9903 143.67 31.7117 143.573C31.4332 143.475 31.1767 143.323 30.9572 143.126C30.7361 142.931 30.5559 142.693 30.4269 142.428C30.298 142.163 30.223 141.874 30.206 141.58C30.1891 141.285 30.2306 140.99 30.3283 140.711C30.426 140.433 30.5777 140.176 30.775 139.957C31.1376 139.565 31.6268 139.314 32.1565 139.247C32.6861 139.18 33.2222 139.302 33.6704 139.592L33.9447 139.773ZM11.0245 167.378C11.4802 167.747 11.7751 168.278 11.8474 168.86C11.9197 169.442 11.7638 170.029 11.4123 170.499C11.0351 170.959 10.4923 171.252 9.90093 171.316C9.30956 171.38 8.71694 171.209 8.25071 170.84C8.01816 170.662 7.82329 170.44 7.67765 170.186C7.532 169.932 7.4384 169.651 7.4023 169.361C7.36621 169.07 7.38829 168.776 7.46738 168.494C7.54647 168.212 7.68095 167.948 7.86287 167.719C8.21539 167.291 8.71237 167.007 9.25997 166.92C9.80758 166.834 10.3679 166.951 10.8349 167.249L11.0245 167.378ZM-11.2263 195.491C-10.7664 195.868 -10.473 196.41 -10.4096 197.002C-10.3461 197.593 -10.5175 198.186 -10.8868 198.652C-11.0737 198.884 -11.3056 199.076 -11.5687 199.217C-11.8318 199.357 -12.1207 199.442 -12.4178 199.468C-12.7148 199.493 -13.0139 199.458 -13.2969 199.365C-13.58 199.271 -13.8411 199.121 -14.0646 198.924C-14.293 198.743 -14.4825 198.517 -14.6218 198.26C-14.7611 198.004 -14.8472 197.722 -14.8751 197.432C-14.903 197.141 -14.8722 196.848 -14.7843 196.569C-14.6964 196.291 -14.5533 196.033 -14.3637 195.811C-14.0095 195.393 -13.5157 195.117 -12.9738 195.034C-12.4318 194.951 -11.8784 195.068 -11.4158 195.362L-11.2263 195.491ZM-34.8645 222.382C-34.6515 222.59 -34.4821 222.839 -34.3665 223.114C-34.2509 223.388 -34.1913 223.683 -34.1913 223.981C-34.1912 224.279 -34.2506 224.574 -34.3661 224.848C-34.4816 225.123 -34.6508 225.372 -34.8638 225.58C-35.2822 225.997 -35.8487 226.232 -36.4396 226.234C-37.0305 226.235 -37.5977 226.002 -38.0174 225.586C-38.4347 225.168 -38.6694 224.602 -38.6703 224.011C-38.6712 223.42 -38.4382 222.852 -38.0222 222.433C-37.6638 222.064 -37.1894 221.831 -36.6789 221.771C-36.1685 221.711 -35.6531 221.829 -35.2194 222.104C-35.0804 222.194 -34.9279 222.26 -34.7677 222.302L-34.8645 222.382ZM-61.9071 245.881C-61.7378 246.121 -61.618 246.392 -61.5551 246.679C-61.4921 246.966 -61.4871 247.263 -61.5404 247.552C-61.5937 247.84 -61.7042 248.116 -61.8654 248.362C-62.0266 248.607 -62.2353 248.818 -62.4791 248.982C-62.7182 249.151 -62.9888 249.27 -63.2749 249.332C-63.5609 249.394 -63.8564 249.397 -64.1438 249.342C-64.4311 249.287 -64.7044 249.174 -64.9471 249.011C-65.1898 248.847 -65.397 248.637 -65.5563 248.391C-65.73 248.153 -65.8533 247.882 -65.9187 247.594C-65.9841 247.306 -65.9903 247.008 -65.9367 246.718C-65.8832 246.428 -65.7711 246.152 -65.6074 245.906C-65.4437 245.661 -65.2317 245.451 -64.9843 245.29C-64.6187 245.041 -64.1875 244.906 -63.7453 244.903C-63.3032 244.899 -62.8699 245.026 -62.5002 245.268C-62.2248 245.377 -61.9857 245.562 -61.8104 245.8L-61.9071 245.881ZM-93.3511 262.43C-93.1787 262.987 -93.2275 263.589 -93.4872 264.111C-93.7469 264.633 -94.1976 265.035 -94.7458 265.234C-95.027 265.337 -95.3264 265.382 -95.6256 265.366C-95.9247 265.35 -96.2173 265.273 -96.4857 265.14C-96.754 265.007 -96.9925 264.82 -97.1864 264.592C-97.3803 264.364 -97.5256 264.098 -97.6135 263.812C-97.7906 263.249 -97.7415 262.64 -97.4766 262.113C-97.2117 261.586 -96.7518 261.182 -96.1945 260.988C-95.8753 260.888 -95.5383 260.858 -95.2064 260.899C-94.8745 260.941 -94.5554 261.053 -94.2708 261.229C-93.8469 261.524 -93.5255 261.944 -93.3511 262.43ZM-438.246 43.243C-437.774 43.5837 -437.457 44.0969 -437.362 44.6709C-437.268 45.2449 -437.404 45.8331 -437.741 46.3074C-437.912 46.5479 -438.13 46.7515 -438.382 46.9063C-438.633 47.0611 -438.913 47.1638 -439.205 47.2084C-439.497 47.2529 -439.795 47.2385 -440.081 47.1658C-440.367 47.0931 -440.635 46.9637 -440.87 46.7852C-441.105 46.6146 -441.303 46.3993 -441.454 46.1518C-441.605 45.9043 -441.706 45.6295 -441.751 45.3429C-441.795 45.0564 -441.783 44.7638 -441.714 44.482C-441.646 44.2002 -441.522 43.9347 -441.351 43.7007C-441.015 43.2371 -440.516 42.9177 -439.954 42.8066C-439.392 42.6956 -438.809 42.8011 -438.322 43.1019L-438.246 43.243ZM-467.826 26.9105C-467.964 27.1698 -468.154 27.3982 -468.383 27.5822C-468.612 27.7661 -468.876 27.9016 -469.16 27.9806C-469.443 28.0595 -469.739 28.0803 -470.03 28.0415C-470.321 28.0028 -470.602 27.9054 -470.854 27.7553C-471.11 27.6157 -471.335 27.427 -471.517 27.2C-471.699 26.9729 -471.834 26.7121 -471.915 26.4324C-471.995 26.1528 -472.02 25.86 -471.987 25.5708C-471.954 25.2816 -471.864 25.0019 -471.722 24.7476C-471.582 24.4922 -471.393 24.2669 -471.166 24.0848C-470.939 23.9027 -470.678 23.7674 -470.399 23.6866C-470.119 23.6058 -469.826 23.5812 -469.537 23.6142C-469.248 23.6472 -468.968 23.7371 -468.714 23.8787L-468.593 24.0238C-468.12 24.3156 -467.777 24.7774 -467.634 25.3143C-467.492 25.8511 -467.56 26.4224 -467.826 26.9105ZM-410.326 66.0446C-410.107 66.2375 -409.93 66.4724 -409.804 66.7352C-409.678 66.9981 -409.606 67.2836 -409.593 67.5748C-409.58 67.866 -409.625 68.1569 -409.727 68.4302C-409.828 68.7036 -409.984 68.9537 -410.184 69.1657C-410.375 69.3893 -410.609 69.5723 -410.872 69.7041C-411.135 69.8359 -411.422 69.9138 -411.715 69.9332C-412.009 69.9525 -412.303 69.913 -412.581 69.8168C-412.859 69.7207 -413.115 69.5699 -413.334 69.3734C-413.551 69.175 -413.727 68.9356 -413.852 68.669C-413.976 68.4023 -414.047 68.1137 -414.06 67.8196C-414.073 67.5255 -414.027 67.2317 -413.926 66.9552C-413.825 66.6786 -413.671 66.4247 -413.471 66.208C-413.122 65.8099 -412.64 65.5528 -412.115 65.4849C-411.59 65.417 -411.059 65.543 -410.62 65.8392L-410.326 66.0446ZM-500.45 12.0922C-500.544 12.3789 -500.694 12.644 -500.891 12.8721C-501.089 13.1002 -501.33 13.2867 -501.6 13.4205C-501.87 13.5544 -502.165 13.633 -502.466 13.6517C-502.767 13.6704 -503.069 13.6289 -503.353 13.5296C-503.643 13.4398 -503.911 13.2921 -504.141 13.0956C-504.371 12.8991 -504.559 12.6578 -504.694 12.3864C-504.828 12.115 -504.906 11.8191 -504.922 11.5167C-504.939 11.2143 -504.894 10.9117 -504.79 10.6271C-504.702 10.3381 -504.557 10.0698 -504.363 9.83833C-504.169 9.60691 -503.93 9.41717 -503.66 9.28059C-503.391 9.144 -503.096 9.0634 -502.795 9.04363C-502.494 9.02385 -502.191 9.0653 -501.907 9.16552C-501.727 9.22114 -501.553 9.29678 -501.39 9.39101C-500.947 9.6466 -500.603 10.0446 -500.415 10.5204C-500.227 10.9961 -500.205 11.5216 -500.353 12.0115L-500.45 12.0922ZM-384.753 91.2955C-384.347 91.7273 -384.127 92.3007 -384.139 92.893C-384.151 93.4854 -384.394 94.0496 -384.816 94.4651C-385.026 94.6737 -385.276 94.8379 -385.551 94.948C-385.825 95.0581 -386.119 95.1119 -386.415 95.106C-386.711 95.1002 -387.002 95.0349 -387.272 94.9141C-387.542 94.7932 -387.785 94.6193 -387.986 94.4026C-388.19 94.1919 -388.349 93.9428 -388.455 93.6698C-388.561 93.3968 -388.612 93.1054 -388.604 92.8126C-388.596 92.5197 -388.53 92.2313 -388.41 91.9643C-388.289 91.6972 -388.117 91.4569 -387.902 91.2572C-387.54 90.9096 -387.07 90.6959 -386.57 90.6516C-386.07 90.6073 -385.569 90.735 -385.152 91.0135C-384.979 91.0589 -384.812 91.1266 -384.656 91.2148L-384.753 91.2955ZM-535.186 3.54562C-535.25 4.12969 -535.537 4.66646 -535.989 5.04283C-536.44 5.41921 -537.02 5.60583 -537.606 5.56341C-538.193 5.50799 -538.734 5.22276 -539.112 4.76983C-539.49 4.3169 -539.673 3.73296 -539.622 3.14524C-539.567 2.55794 -539.281 2.01635 -538.828 1.63841C-538.375 1.26047 -537.791 1.07682 -537.203 1.12745C-536.865 1.17969 -536.541 1.30022 -536.251 1.48169C-535.892 1.67049 -535.592 1.95642 -535.387 2.30698C-535.181 2.65754 -535.078 3.0587 -535.09 3.46491L-535.186 3.54562ZM-360.619 117.87C-360.229 118.31 -360.029 118.887 -360.061 119.474C-360.093 120.061 -360.356 120.612 -360.791 121.007C-361.246 121.398 -361.835 121.596 -362.433 121.558C-363.031 121.521 -363.591 121.252 -363.993 120.808C-364.372 120.354 -364.558 119.771 -364.513 119.182C-364.468 118.593 -364.195 118.045 -363.752 117.654C-363.388 117.333 -362.928 117.141 -362.444 117.108C-361.96 117.075 -361.479 117.203 -361.074 117.471C-360.875 117.548 -360.688 117.655 -360.522 117.789L-360.619 117.87ZM-128.463 269.615C-128.439 270.209 -128.649 270.789 -129.049 271.23C-129.449 271.671 -130.006 271.937 -130.6 271.971C-131.193 271.988 -131.77 271.773 -132.206 271.369C-132.642 270.966 -132.902 270.408 -132.931 269.815C-132.952 269.519 -132.912 269.221 -132.815 268.941C-132.717 268.66 -132.564 268.402 -132.365 268.182C-132.165 267.962 -131.923 267.784 -131.653 267.66C-131.383 267.536 -131.091 267.467 -130.794 267.459C-130.337 267.432 -129.884 267.56 -129.508 267.821C-129.189 267.987 -128.917 268.232 -128.718 268.531C-128.518 268.83 -128.397 269.175 -128.366 269.534L-128.463 269.615ZM-337.045 144.953C-336.854 145.176 -336.708 145.434 -336.617 145.713C-336.526 145.992 -336.49 146.286 -336.513 146.579C-336.535 146.872 -336.615 147.158 -336.748 147.42C-336.88 147.682 -337.064 147.915 -337.286 148.106C-337.509 148.298 -337.768 148.443 -338.047 148.535C-338.326 148.626 -338.62 148.662 -338.913 148.64C-339.206 148.617 -339.492 148.538 -339.754 148.405C-340.016 148.272 -340.249 148.089 -340.44 147.866C-340.638 147.649 -340.789 147.395 -340.886 147.118C-340.982 146.84 -341.021 146.546 -341.001 146.254C-340.981 145.961 -340.901 145.675 -340.768 145.414C-340.634 145.153 -340.449 144.921 -340.223 144.733C-339.862 144.407 -339.401 144.212 -338.916 144.179C-338.43 144.146 -337.948 144.276 -337.545 144.55C-337.327 144.616 -337.124 144.726 -336.948 144.872L-337.045 144.953ZM-570.824 2.96784C-570.772 3.26662 -570.782 3.57299 -570.854 3.86777C-570.925 4.16255 -571.057 4.43941 -571.24 4.681C-571.424 4.9226 -571.655 5.12376 -571.92 5.27187C-572.185 5.41999 -572.477 5.51188 -572.779 5.54181C-573.078 5.59307 -573.384 5.58314 -573.678 5.51265C-573.973 5.44215 -574.25 5.31255 -574.493 5.1317C-574.736 4.95085 -574.939 4.72253 -575.091 4.4606C-575.243 4.19867 -575.34 3.90857 -575.377 3.60791C-575.462 3.00729 -575.307 2.39715 -574.944 1.91048C-574.582 1.42381 -574.042 1.10005 -573.442 1.00976C-572.905 0.958967 -572.366 1.08614 -571.909 1.37169C-571.614 1.53218 -571.362 1.76073 -571.173 2.03833C-570.985 2.31594 -570.865 2.63459 -570.824 2.96784ZM-164.081 267.585C-164.182 268.169 -164.51 268.689 -164.994 269.031C-165.478 269.373 -166.077 269.509 -166.661 269.409C-167.245 269.303 -167.762 268.97 -168.1 268.482C-168.437 267.995 -168.567 267.393 -168.461 266.81C-168.412 266.519 -168.305 266.241 -168.147 265.992C-167.989 265.743 -167.783 265.528 -167.54 265.36C-167.298 265.192 -167.024 265.075 -166.736 265.015C-166.447 264.954 -166.149 264.953 -165.86 265.009C-165.56 265.043 -165.276 265.161 -165.041 265.352C-164.673 265.583 -164.385 265.92 -164.213 266.319C-164.042 266.718 -163.996 267.159 -164.081 267.585ZM-313.157 171.527C-312.955 171.744 -312.797 171.999 -312.694 172.277C-312.59 172.555 -312.544 172.851 -312.556 173.148C-312.568 173.444 -312.639 173.735 -312.765 174.004C-312.891 174.273 -313.07 174.514 -313.29 174.713C-313.507 174.911 -313.762 175.064 -314.038 175.164C-314.315 175.263 -314.609 175.307 -314.902 175.293C-315.196 175.279 -315.484 175.207 -315.75 175.082C-316.015 174.956 -316.254 174.78 -316.451 174.562C-316.657 174.349 -316.817 174.096 -316.922 173.818C-317.026 173.541 -317.073 173.245 -317.058 172.949C-317.044 172.652 -316.969 172.362 -316.839 172.096C-316.708 171.83 -316.524 171.593 -316.299 171.4C-315.94 171.063 -315.479 170.855 -314.988 170.81C-314.498 170.765 -314.007 170.886 -313.593 171.153C-313.429 171.253 -313.281 171.38 -313.157 171.527ZM-288.209 197.013C-287.782 197.427 -287.535 197.994 -287.522 198.589C-287.509 199.184 -287.731 199.761 -288.14 200.194C-288.546 200.613 -289.102 200.855 -289.685 200.865C-290.269 200.875 -290.833 200.653 -291.253 200.249C-291.469 200.051 -291.644 199.813 -291.767 199.548C-291.89 199.282 -291.959 198.995 -291.97 198.703C-291.981 198.411 -291.934 198.119 -291.831 197.845C-291.728 197.571 -291.571 197.32 -291.371 197.107C-291.008 196.731 -290.528 196.49 -290.01 196.423C-289.491 196.356 -288.966 196.467 -288.52 196.739C-288.406 196.818 -288.302 196.91 -288.209 197.013ZM-198.611 258.252C-198.71 258.539 -198.865 258.804 -199.067 259.03C-199.27 259.256 -199.515 259.439 -199.79 259.569C-200.064 259.698 -200.362 259.772 -200.665 259.784C-200.968 259.796 -201.271 259.748 -201.555 259.641C-201.84 259.535 -202.101 259.373 -202.323 259.165C-202.545 258.957 -202.723 258.707 -202.848 258.43C-202.973 258.152 -203.041 257.853 -203.049 257.549C-203.057 257.244 -203.004 256.942 -202.895 256.658C-202.796 256.368 -202.638 256.101 -202.431 255.874C-202.225 255.647 -201.974 255.465 -201.694 255.339C-201.414 255.213 -201.111 255.147 -200.804 255.143C-200.498 255.139 -200.193 255.198 -199.911 255.317C-199.757 255.365 -199.612 255.438 -199.483 255.535C-199.039 255.811 -198.708 256.235 -198.548 256.733C-198.388 257.231 -198.411 257.769 -198.611 258.252ZM-261.37 220.388C-261.137 220.565 -260.942 220.788 -260.797 221.042C-260.651 221.295 -260.557 221.576 -260.521 221.866C-260.485 222.157 -260.507 222.452 -260.586 222.734C-260.666 223.016 -260.8 223.279 -260.982 223.508C-261.159 223.74 -261.38 223.933 -261.632 224.077C-261.885 224.221 -262.164 224.313 -262.453 224.348C-262.742 224.382 -263.034 224.358 -263.314 224.277C-263.593 224.197 -263.853 224.061 -264.079 223.877C-264.315 223.702 -264.513 223.481 -264.662 223.227C-264.81 222.973 -264.905 222.692 -264.941 222.4C-264.977 222.108 -264.954 221.812 -264.873 221.53C-264.791 221.247 -264.653 220.984 -264.467 220.756C-264.134 220.323 -263.649 220.031 -263.11 219.939C-262.571 219.847 -262.018 219.961 -261.559 220.259L-261.37 220.388ZM-231.163 243.127C-231.462 243.643 -231.952 244.02 -232.528 244.178C-233.103 244.335 -233.716 244.26 -234.236 243.968C-234.747 243.676 -235.122 243.194 -235.28 242.627C-235.438 242.061 -235.366 241.454 -235.08 240.94C-234.935 240.682 -234.74 240.454 -234.506 240.272C-234.272 240.089 -234.005 239.955 -233.719 239.877C-233.433 239.799 -233.134 239.778 -232.84 239.816C-232.547 239.854 -232.263 239.951 -232.007 240.099C-231.502 240.397 -231.132 240.879 -230.975 241.443C-230.818 242.008 -230.885 242.611 -231.163 243.127ZM-605.113 12.9099C-604.979 13.1717 -604.901 13.4581 -604.883 13.7515C-604.865 14.0448 -604.908 14.3387 -605.008 14.6149C-605.109 14.8911 -605.265 15.1436 -605.468 15.3569C-605.67 15.5701 -605.914 15.7394 -606.185 15.8542C-606.441 15.9919 -606.722 16.0752 -607.012 16.099C-607.301 16.1227 -607.593 16.0864 -607.868 15.9923C-608.143 15.8982 -608.395 15.7484 -608.609 15.5522C-608.823 15.356 -608.995 15.1176 -609.113 14.852C-609.242 14.5879 -609.317 14.301 -609.335 14.0075C-609.353 13.7141 -609.313 13.42 -609.217 13.142C-609.121 12.864 -608.972 12.6077 -608.777 12.3876C-608.582 12.1675 -608.345 11.988 -608.081 11.8593C-607.732 11.6949 -607.348 11.6208 -606.963 11.6438C-606.578 11.6668 -606.205 11.7862 -605.879 11.991C-605.554 12.2321 -605.292 12.5471 -605.113 12.9099ZM-635.233 32.1279C-634.85 32.5737 -634.658 33.1524 -634.699 33.7388C-634.74 34.3252 -635.009 34.8721 -635.45 35.2612C-635.669 35.4548 -635.925 35.603 -636.201 35.697C-636.478 35.7911 -636.771 35.8292 -637.062 35.8091C-637.354 35.789 -637.639 35.7112 -637.9 35.5801C-638.161 35.449 -638.393 35.2673 -638.584 35.0455C-638.781 34.8293 -638.932 34.5761 -639.03 34.3006C-639.128 34.0252 -639.17 33.7329 -639.154 33.4409C-639.138 33.149 -639.064 32.8631 -638.937 32.5999C-638.809 32.3368 -638.63 32.1016 -638.411 31.9081C-638.045 31.5833 -637.582 31.3875 -637.094 31.3507C-636.606 31.314 -636.12 31.4384 -635.709 31.7048C-635.531 31.8217 -635.37 31.9642 -635.233 32.1279ZM-658.048 62.0231C-658.201 62.2789 -658.403 62.5015 -658.643 62.6781C-658.883 62.8546 -659.156 62.9814 -659.446 63.0511C-659.735 63.1208 -660.036 63.1319 -660.33 63.0838C-660.624 63.0358 -660.905 62.9295 -661.157 62.7712C-661.657 62.4539 -662.013 61.9536 -662.149 61.3772C-662.285 60.8009 -662.189 60.1941 -661.884 59.6868C-661.734 59.4344 -661.534 59.215 -661.297 59.0418C-661.06 58.8686 -660.79 58.7453 -660.504 58.6791C-660.218 58.613 -659.922 58.6055 -659.633 58.657C-659.344 58.7086 -659.068 58.8182 -658.823 58.9791C-658.32 59.2826 -657.956 59.7722 -657.811 60.3419C-657.666 60.9116 -657.751 61.5156 -658.048 62.0231ZM-670.543 94.5046C-670.643 95.0884 -670.972 95.6083 -671.456 95.9504C-671.939 96.2924 -672.539 96.4286 -673.123 96.329C-673.416 96.2873 -673.697 96.1863 -673.95 96.0321C-674.202 95.8779 -674.42 95.6738 -674.591 95.4323C-674.762 95.1908 -674.881 94.917 -674.942 94.6276C-675.003 94.3382 -675.005 94.0394 -674.946 93.7494C-674.903 93.4583 -674.802 93.1789 -674.649 92.9274C-674.496 92.676 -674.294 92.4578 -674.056 92.2855C-673.817 92.1132 -673.547 91.9904 -673.26 91.9244C-672.973 91.8583 -672.676 91.8503 -672.386 91.9008C-672.084 91.9638 -671.799 92.0886 -671.547 92.2672C-671.196 92.5033 -670.918 92.8343 -670.748 93.2218C-670.577 93.6094 -670.52 94.0374 -670.583 94.4563L-670.543 94.5046Z" fill="#2F9FEE"/>
</svg>
