<svg width="494" height="293" viewBox="0 0 494 293" fill="none" xmlns="http://www.w3.org/2000/svg">
<path d="M0.650424 120.183C0.603813 119.592 0.793408 119.007 1.17765 118.556C1.56189 118.105 2.10935 117.825 2.69984 117.777C3.29042 117.73 3.8753 117.92 4.32614 118.304C4.77697 118.688 5.05702 119.235 5.10463 119.826C5.13661 120.414 4.93821 120.992 4.55151 121.437C4.16481 121.882 3.62015 122.159 3.03294 122.209C2.60908 122.257 2.18078 122.172 1.80806 121.964C1.46931 121.765 1.19103 121.477 1.00286 121.132C0.814685 120.787 0.72375 120.398 0.739546 120.005L0.650424 120.183ZM35.7728 114.185C35.6885 113.892 35.6638 113.586 35.7004 113.283C35.737 112.981 35.8341 112.689 35.9859 112.425C36.1377 112.161 36.341 111.931 36.5838 111.747C36.8266 111.563 37.1039 111.43 37.3992 111.356C37.6917 111.271 37.9983 111.246 38.3005 111.283C38.6027 111.319 38.8945 111.416 39.1584 111.568C39.4223 111.72 39.6529 111.923 39.8365 112.166C40.0202 112.408 40.1531 112.686 40.2273 112.981C40.3117 113.273 40.3363 113.58 40.2997 113.882C40.2631 114.184 40.1661 114.476 40.0143 114.74C39.8625 115.004 39.6591 115.235 39.4163 115.419C39.1735 115.602 38.8961 115.735 38.6008 115.81C38.0576 115.953 37.4812 115.898 36.9751 115.654C36.7203 115.463 36.5064 115.222 36.3458 114.947C36.1852 114.672 36.0814 114.367 36.0401 114.051L35.7728 114.185ZM69.5604 102.218C69.4367 101.955 69.3661 101.67 69.3529 101.379C69.3396 101.089 69.3841 100.799 69.4835 100.525C69.5829 100.252 69.7355 100.001 69.9322 99.7872C70.1289 99.573 70.3661 99.3999 70.63 99.2778C70.9069 99.1232 71.2134 99.0292 71.5293 99.0021C71.8453 98.975 72.1633 99.0155 72.4624 99.1208C72.7614 99.2261 73.0347 99.3937 73.2639 99.6126C73.4932 99.8315 73.6732 100.097 73.7921 100.391C73.9103 100.656 73.9747 100.943 73.9815 101.234C73.9882 101.525 73.9373 101.815 73.8316 102.086C73.7259 102.357 73.5677 102.605 73.3659 102.815C73.164 103.025 72.9227 103.192 72.6557 103.308C72.3549 103.45 72.0253 103.52 71.6928 103.512C71.3604 103.505 71.0342 103.42 70.7404 103.264C70.3064 102.991 69.983 102.573 69.8276 102.084L69.5604 102.218ZM101.634 86.3539C101.491 86.0942 101.402 85.8086 101.371 85.5139C101.34 85.2193 101.367 84.9214 101.452 84.6375C101.537 84.3536 101.678 84.0893 101.866 83.8602C102.054 83.631 102.286 83.4415 102.547 83.3026C103.074 83.0232 103.689 82.9623 104.26 83.1331C104.831 83.3038 105.312 83.6926 105.598 84.2151C105.847 84.68 105.921 85.2188 105.806 85.7337C105.692 86.2485 105.397 86.7054 104.974 87.0213C104.653 87.205 104.29 87.3036 103.919 87.3076C103.549 87.3115 103.184 87.2208 102.858 87.044C102.472 86.8588 102.142 86.5746 101.901 86.2202L101.634 86.3539ZM132.639 68.3523C132.344 67.8471 132.256 67.2478 132.393 66.6792C132.53 66.1105 132.882 65.6168 133.374 65.3011C133.627 65.1418 133.909 65.0353 134.204 64.9883C134.498 64.9412 134.8 64.9546 135.089 65.0274C135.379 65.1002 135.65 65.2309 135.888 65.4119C136.125 65.5929 136.323 65.82 136.47 66.0799C136.624 66.3272 136.726 66.6028 136.771 66.8905C136.816 67.1782 136.803 67.4721 136.732 67.7547C136.662 68.0372 136.535 68.3026 136.36 68.5353C136.184 68.7679 135.964 68.963 135.712 69.1089C135.385 69.3114 135.011 69.4224 134.627 69.4304C134.243 69.4383 133.864 69.3428 133.529 69.1539C133.186 68.8854 132.931 68.5212 132.795 68.1074L132.639 68.3523ZM163.198 49.9054C163.046 49.654 162.945 49.375 162.9 49.0844C162.856 48.7939 162.87 48.4973 162.94 48.2118C163.01 47.9263 163.136 47.6575 163.311 47.4207C163.485 47.184 163.704 46.9839 163.956 46.8319C164.471 46.5364 165.082 46.4547 165.657 46.6045C166.231 46.7544 166.724 47.1236 167.029 47.633C167.182 47.8844 167.283 48.1635 167.327 48.4541C167.372 48.7447 167.358 49.0412 167.288 49.3267C167.217 49.6122 167.091 49.881 166.917 50.1177C166.743 50.3544 166.523 50.5545 166.271 50.7065C165.938 50.893 165.562 50.991 165.18 50.9911C164.798 50.9911 164.422 50.8934 164.089 50.707C163.827 50.4104 163.651 50.0489 163.577 49.6604L163.198 49.9054ZM585.81 255.997C585.281 255.74 584.875 255.286 584.679 254.731C584.483 254.177 584.514 253.568 584.764 253.035C584.886 252.766 585.061 252.524 585.278 252.323C585.495 252.123 585.751 251.968 586.029 251.868C586.308 251.768 586.604 251.725 586.899 251.742C587.194 251.759 587.483 251.835 587.748 251.966C588.014 252.092 588.252 252.27 588.448 252.489C588.643 252.708 588.794 252.964 588.889 253.242C588.984 253.52 589.023 253.814 589.003 254.108C588.983 254.401 588.904 254.687 588.772 254.95C588.648 255.215 588.473 255.452 588.256 255.649C588.039 255.845 587.786 255.996 587.51 256.094C587.234 256.191 586.942 256.233 586.65 256.216C586.358 256.2 586.073 256.125 585.81 255.997ZM554.902 237.163C554.666 236.989 554.466 236.77 554.316 236.519C554.165 236.267 554.066 235.988 554.025 235.698C553.983 235.407 554 235.112 554.074 234.828C554.149 234.544 554.279 234.278 554.457 234.045C554.632 233.807 554.852 233.606 555.105 233.454C555.358 233.301 555.638 233.2 555.93 233.157C556.222 233.113 556.52 233.128 556.806 233.2C557.092 233.272 557.361 233.4 557.598 233.577C557.835 233.752 558.036 233.973 558.186 234.228C558.337 234.482 558.435 234.764 558.474 235.057C558.514 235.35 558.494 235.648 558.416 235.933C558.338 236.218 558.203 236.485 558.02 236.717C557.702 237.143 557.243 237.442 556.725 237.561C556.206 237.679 555.663 237.609 555.191 237.363C555.087 237.309 554.989 237.242 554.902 237.163ZM618.524 264.609C618.627 264.019 618.958 263.494 619.446 263.148C619.934 262.802 620.54 262.662 621.13 262.76C621.72 262.862 622.245 263.194 622.591 263.682C622.937 264.17 623.076 264.775 622.978 265.365C622.944 265.665 622.848 265.954 622.694 266.214C622.541 266.474 622.334 266.698 622.088 266.873C621.842 267.048 621.562 267.168 621.266 267.227C620.971 267.286 620.666 267.281 620.372 267.214C620.139 267.203 619.911 267.143 619.704 267.036C619.28 266.804 618.938 266.446 618.727 266.011C618.515 265.576 618.444 265.086 618.524 264.609ZM527.492 213.673C527.278 213.472 527.108 213.229 526.991 212.96C526.874 212.691 526.812 212.401 526.81 212.108C526.808 211.814 526.866 211.524 526.979 211.253C527.092 210.982 527.259 210.737 527.47 210.533C527.67 210.314 527.913 210.139 528.183 210.018C528.454 209.897 528.746 209.832 529.042 209.828C529.338 209.824 529.632 209.88 529.906 209.993C530.179 210.107 530.426 210.275 530.633 210.488C530.842 210.691 531.009 210.935 531.124 211.203C531.238 211.472 531.298 211.761 531.3 212.053C531.302 212.345 531.246 212.635 531.135 212.905C531.024 213.176 530.861 213.421 530.654 213.628C530.318 213.976 529.877 214.205 529.399 214.281C528.922 214.358 528.432 214.277 528.004 214.052L527.492 213.673ZM194.715 32.3714C194.589 32.1143 194.514 31.8346 194.496 31.5484C194.478 31.2622 194.516 30.9753 194.609 30.7041C194.703 30.4329 194.849 30.1827 195.039 29.9681C195.229 29.7535 195.46 29.5788 195.718 29.4538C196.246 29.2086 196.848 29.1759 197.4 29.3623C197.951 29.5488 198.409 29.9401 198.68 30.4553C198.816 30.7181 198.899 31.0054 198.924 31.3005C198.948 31.5956 198.914 31.8927 198.823 32.1746C198.732 32.4564 198.585 32.7172 198.393 32.942C198.2 33.1669 197.964 33.3512 197.699 33.4843C197.387 33.6511 197.037 33.7365 196.683 33.7327C196.329 33.7289 195.982 33.6359 195.673 33.4625C195.265 33.1503 194.988 32.6981 194.894 32.1932L194.715 32.3714ZM503.311 186.864C502.94 186.403 502.767 185.814 502.83 185.225C502.893 184.637 503.186 184.097 503.646 183.724C504.115 183.356 504.709 183.187 505.3 183.254C505.892 183.32 506.434 183.617 506.808 184.08C506.993 184.303 507.132 184.562 507.215 184.839C507.299 185.117 507.325 185.409 507.294 185.698C507.263 185.986 507.174 186.266 507.033 186.52C506.893 186.773 506.702 186.996 506.474 187.175C506.143 187.467 505.73 187.649 505.291 187.697C504.853 187.745 504.41 187.656 504.024 187.443C503.747 187.305 503.503 187.107 503.311 186.864ZM654.135 265.425C654.073 265.132 654.072 264.828 654.133 264.534C654.194 264.241 654.315 263.962 654.489 263.718C654.662 263.473 654.885 263.266 655.142 263.112C655.4 262.957 655.686 262.858 655.984 262.819C656.277 262.766 656.577 262.772 656.867 262.837C657.158 262.902 657.432 263.024 657.675 263.196C657.918 263.368 658.123 263.586 658.28 263.839C658.437 264.092 658.542 264.373 658.589 264.667C658.651 264.961 658.652 265.264 658.591 265.558C658.53 265.852 658.409 266.13 658.235 266.375C658.061 266.62 657.839 266.826 657.582 266.981C657.324 267.135 657.038 267.235 656.74 267.273C656.258 267.362 655.76 267.275 655.337 267.029C655.02 266.875 654.748 266.643 654.545 266.354C654.343 266.066 654.217 265.731 654.179 265.381L654.135 265.425ZM481.915 157.939C481.59 157.441 481.473 156.836 481.589 156.253C481.706 155.669 482.048 155.155 482.54 154.821C482.782 154.653 483.055 154.535 483.344 154.474C483.632 154.412 483.929 154.408 484.219 154.462C484.509 154.516 484.785 154.626 485.032 154.787C485.279 154.948 485.491 155.156 485.657 155.399C485.827 155.638 485.946 155.908 486.01 156.194C486.074 156.48 486.08 156.776 486.028 157.064C485.976 157.352 485.867 157.627 485.708 157.873C485.549 158.118 485.342 158.33 485.1 158.495C484.766 158.726 484.374 158.859 483.969 158.879C483.563 158.899 483.161 158.804 482.806 158.607C482.474 158.437 482.184 158.193 481.96 157.894L481.915 157.939ZM227.524 17.5097C227.307 16.9603 227.317 16.3474 227.551 15.8049C227.784 15.2625 228.223 14.8344 228.771 14.6142C229.334 14.4115 229.952 14.4324 230.499 14.6727C231.046 14.9129 231.48 15.3541 231.711 15.9052C231.827 16.1967 231.881 16.5089 231.869 16.8223C231.858 17.1358 231.782 17.4434 231.646 17.726C231.51 18.0086 231.317 18.26 231.079 18.4641C230.84 18.6682 230.563 18.8208 230.263 18.9121C229.969 19.0248 229.654 19.0752 229.34 19.06C229.026 19.0447 228.718 18.9642 228.436 18.8235C227.979 18.5035 227.666 18.015 227.568 17.4651L227.524 17.5097ZM687.989 254.104C687.839 253.852 687.741 253.571 687.703 253.28C687.664 252.988 687.685 252.692 687.764 252.409C687.843 252.126 687.979 251.862 688.163 251.632C688.348 251.403 688.576 251.214 688.836 251.075C689.089 250.925 689.369 250.828 689.661 250.789C689.952 250.75 690.248 250.771 690.532 250.85C690.815 250.929 691.079 251.065 691.308 251.249C691.537 251.433 691.726 251.662 691.865 251.921C692.015 252.174 692.112 252.454 692.151 252.746C692.189 253.037 692.169 253.333 692.089 253.617C692.01 253.9 691.874 254.164 691.69 254.393C691.506 254.622 691.277 254.812 691.018 254.95C690.692 255.133 690.327 255.232 689.954 255.24C689.581 255.248 689.212 255.164 688.88 254.995C688.5 254.794 688.19 254.484 687.989 254.104ZM462.145 128.145C461.816 127.654 461.695 127.053 461.808 126.473C461.921 125.893 462.258 125.381 462.747 125.049C462.988 124.878 463.26 124.757 463.548 124.694C463.837 124.631 464.135 124.628 464.424 124.684C464.714 124.74 464.989 124.855 465.233 125.021C465.477 125.187 465.684 125.401 465.843 125.65C466.012 125.888 466.131 126.157 466.193 126.443C466.255 126.728 466.26 127.022 466.205 127.309C466.151 127.596 466.04 127.869 465.878 128.112C465.716 128.355 465.507 128.563 465.263 128.723C464.932 128.95 464.546 129.082 464.146 129.106C463.745 129.13 463.346 129.044 462.991 128.857C462.611 128.704 462.29 128.43 462.079 128.078L462.145 128.145ZM261.823 7.03493C261.764 6.74245 261.763 6.44112 261.821 6.14833C261.879 5.85555 261.994 5.57717 262.159 5.32884C262.325 5.08051 262.538 4.86722 262.786 4.70132C263.034 4.53542 263.313 4.42014 263.605 4.36201C263.898 4.30297 264.199 4.30232 264.492 4.35994C264.784 4.41755 265.063 4.53235 265.311 4.69782C265.559 4.86329 265.773 5.07606 265.938 5.32409C266.104 5.57212 266.219 5.85041 266.277 6.14311C266.341 6.43594 266.344 6.73848 266.289 7.03286C266.233 7.32725 266.118 7.60743 265.952 7.85671C265.786 8.106 265.571 8.31933 265.321 8.48415C265.071 8.64897 264.79 8.76183 264.495 8.81604C263.979 8.90512 263.449 8.82713 262.981 8.5936C262.667 8.43301 262.394 8.20323 262.182 7.92167C261.969 7.6401 261.824 7.31413 261.756 6.96817L261.823 7.03493ZM441.707 98.7964C441.536 98.5602 441.413 98.2922 441.346 98.0082C441.279 97.7242 441.269 97.4295 441.317 97.1415C441.364 96.8535 441.469 96.5779 441.624 96.3306C441.779 96.0832 441.981 95.869 442.22 95.7006C442.452 95.5226 442.717 95.3933 443 95.3203C443.284 95.2473 443.578 95.2322 443.867 95.2758C444.156 95.3194 444.434 95.4208 444.682 95.5741C444.931 95.7273 445.147 95.9292 445.315 96.1676C445.485 96.4074 445.606 96.6783 445.671 96.9648C445.736 97.2513 445.744 97.5477 445.694 97.8373C445.644 98.1268 445.538 98.4038 445.381 98.6523C445.224 98.9008 445.02 99.116 444.78 99.2857C444.444 99.5368 444.044 99.6872 443.626 99.7188C443.208 99.7504 442.789 99.6622 442.42 99.4644C442.112 99.2752 441.847 99.0251 441.64 98.7296L441.707 98.7964ZM716.678 232.896C716.475 232.687 716.315 232.439 716.208 232.167C716.101 231.895 716.049 231.605 716.055 231.312C716.061 231.02 716.126 230.732 716.244 230.465C716.363 230.198 716.533 229.957 716.746 229.756C716.946 229.543 717.188 229.374 717.456 229.258C717.724 229.142 718.013 229.083 718.305 229.083C718.597 229.083 718.886 229.142 719.154 229.258C719.422 229.374 719.664 229.543 719.864 229.755C720.283 230.175 720.519 230.743 720.518 231.337C720.518 231.93 720.283 232.498 719.863 232.918C719.52 233.25 719.08 233.464 718.608 233.528C718.135 233.592 717.654 233.503 717.235 233.275C717.014 233.146 716.805 232.997 716.612 232.83L716.678 232.896ZM419.665 70.6953C419.283 70.2454 419.095 69.663 419.141 69.0749C419.187 68.4867 419.464 67.9404 419.911 67.5551C420.133 67.3613 420.391 67.2133 420.67 67.1195C420.949 67.0258 421.244 66.9882 421.538 67.0088C421.832 67.0294 422.119 67.108 422.382 67.2398C422.646 67.3717 422.88 67.5542 423.073 67.7771C423.46 68.2328 423.652 68.8233 423.606 69.4198C423.56 70.0163 423.28 70.5706 422.827 70.9618C422.487 71.2504 422.069 71.4336 421.626 71.4891C421.184 71.5445 420.734 71.4699 420.333 71.2742C420.072 71.1306 419.844 70.9332 419.665 70.6953ZM297.19 3.01849C297.192 2.42856 297.428 1.86344 297.845 1.44623C298.262 1.02902 298.828 0.793457 299.417 0.790911C300 0.816159 300.552 1.05879 300.964 1.471C301.376 1.88321 301.619 2.43499 301.644 3.01749C301.634 3.60488 301.395 4.16538 300.98 4.58091C300.564 4.99644 300.004 5.23454 299.416 5.24507C299.061 5.26255 298.708 5.18581 298.392 5.02259C298.026 4.832 297.72 4.54401 297.508 4.19028C297.296 3.83655 297.186 3.43104 297.19 3.01849ZM394.794 45.2897C394.363 44.896 394.104 44.3496 394.071 43.7671C394.038 43.1846 394.233 42.6122 394.616 42.1718C395.02 41.7318 395.581 41.4685 396.177 41.4392C396.773 41.4099 397.357 41.6168 397.801 42.0151C398.231 42.4207 398.486 42.9783 398.511 43.5691C398.536 44.1599 398.329 44.7371 397.934 45.1777C397.614 45.5559 397.173 45.8115 396.685 45.9009C396.198 45.9904 395.695 45.908 395.262 45.6681C395.118 45.524 394.998 45.3588 394.905 45.1783L394.794 45.2897ZM332.8 7.4427C332.864 7.13955 332.991 6.85341 333.174 6.60357C333.358 6.35372 333.592 6.14592 333.862 5.994C334.132 5.84208 334.431 5.74964 334.74 5.72283C335.048 5.69603 335.359 5.73548 335.651 5.83854C335.954 5.90198 336.24 6.02952 336.49 6.21255C336.74 6.39559 336.948 6.62989 337.099 6.89981C337.251 7.16972 337.343 7.46894 337.37 7.77752C337.397 8.0861 337.357 8.39684 337.254 8.68889C337.177 8.98466 337.042 9.26191 336.856 9.50407C336.669 9.74623 336.436 9.94825 336.17 10.0981C335.904 10.2479 335.61 10.3423 335.306 10.3758C335.003 10.4093 334.695 10.3812 334.403 10.293L333.98 10.1372C333.499 9.89685 333.118 9.49578 332.903 9.00352C332.687 8.51125 332.651 7.95904 332.8 7.4427ZM366.604 24.1831C366.089 23.8718 365.716 23.3709 365.566 22.788C365.416 22.2051 365.501 21.5866 365.803 21.0652C365.955 20.8135 366.155 20.5942 366.391 20.4198C366.628 20.2455 366.897 20.1194 367.182 20.049C367.468 19.9786 367.764 19.9652 368.055 20.0095C368.346 20.0539 368.625 20.155 368.876 20.3073C369.382 20.6102 369.748 21.1009 369.894 21.6723C370.04 22.2437 369.954 22.8497 369.655 23.3584C369.369 23.8642 368.895 24.2368 368.337 24.3954C367.778 24.554 367.179 24.4856 366.67 24.2053L366.604 24.1831ZM740.136 205.699C739.662 205.341 739.348 204.811 739.261 204.224C739.174 203.637 739.32 203.039 739.669 202.558C739.843 202.321 740.063 202.12 740.316 201.967C740.569 201.815 740.85 201.714 741.141 201.67C741.433 201.627 741.731 201.641 742.017 201.713C742.303 201.785 742.572 201.914 742.809 202.09C743.047 202.265 743.247 202.485 743.4 202.738C743.552 202.99 743.653 203.271 743.696 203.563C743.74 203.854 743.725 204.152 743.653 204.438C743.581 204.725 743.453 204.994 743.276 205.23C742.95 205.653 742.485 205.947 741.964 206.062C741.443 206.176 740.898 206.102 740.425 205.854L740.136 205.699ZM760.475 176.141C759.988 175.814 759.647 175.312 759.522 174.739C759.398 174.166 759.5 173.567 759.808 173.067C760.142 172.575 760.656 172.234 761.239 172.117C761.823 172.001 762.428 172.118 762.926 172.443C763.173 172.599 763.388 172.803 763.555 173.043C763.723 173.283 763.842 173.554 763.904 173.84C763.966 174.126 763.971 174.421 763.917 174.709C763.864 174.997 763.754 175.271 763.593 175.516C763.281 175.974 762.811 176.302 762.274 176.438C761.736 176.573 761.168 176.507 760.676 176.252L760.475 176.141ZM780.102 146.138C779.61 145.804 779.269 145.29 779.153 144.706C779.036 144.123 779.154 143.518 779.48 143.02C779.645 142.772 779.858 142.559 780.108 142.396C780.357 142.233 780.637 142.122 780.931 142.069C781.224 142.017 781.525 142.025 781.816 142.093C782.106 142.16 782.379 142.286 782.62 142.462C782.864 142.623 783.073 142.83 783.235 143.073C783.396 143.316 783.508 143.589 783.562 143.876C783.616 144.163 783.611 144.458 783.549 144.743C783.486 145.028 783.367 145.298 783.198 145.536C782.883 145.984 782.416 146.304 781.884 146.435C781.352 146.566 780.79 146.5 780.303 146.249L780.102 146.138ZM801.221 117.225C800.991 117.037 800.799 116.805 800.66 116.542C800.52 116.279 800.434 115.991 800.407 115.694C800.38 115.397 800.413 115.098 800.503 114.814C800.593 114.53 800.739 114.267 800.933 114.041C801.312 113.587 801.855 113.302 802.443 113.248C803.032 113.194 803.617 113.374 804.073 113.751C804.526 114.129 804.811 114.672 804.865 115.261C804.919 115.849 804.738 116.435 804.362 116.891C804.038 117.29 803.587 117.565 803.084 117.671C802.581 117.777 802.057 117.706 801.6 117.47C801.453 117.394 801.296 117.341 801.132 117.315L801.221 117.225ZM826.037 91.3858C825.846 91.1621 825.703 90.9026 825.614 90.6225C825.526 90.3424 825.494 90.0475 825.521 89.7549C825.548 89.4624 825.633 89.1781 825.772 88.9189C825.91 88.6598 826.099 88.4308 826.327 88.2456C826.55 88.0558 826.809 87.913 827.088 87.8257C827.367 87.7383 827.661 87.7082 827.952 87.7373C828.244 87.7663 828.526 87.8539 828.782 87.9947C829.039 88.1355 829.264 88.3266 829.445 88.5567C829.639 88.7785 829.787 89.0376 829.878 89.3182C829.969 89.5988 830.002 89.8951 829.974 90.1889C829.947 90.4827 829.861 90.7679 829.72 91.0272C829.579 91.2865 829.387 91.5144 829.155 91.697C828.813 91.9777 828.396 92.1508 827.956 92.1945C827.516 92.2382 827.073 92.1506 826.683 91.9425C826.398 91.8589 826.144 91.6968 825.948 91.4749L826.037 91.3858ZM855.862 72.0706C855.64 71.5316 855.634 70.9277 855.846 70.3844C856.057 69.8411 856.47 69.4 856.998 69.1528C857.269 69.0245 857.563 68.9528 857.862 68.942C858.162 68.9311 858.46 68.9813 858.739 69.0896C859.019 69.1979 859.273 69.3621 859.486 69.5719C859.7 69.7818 859.869 70.033 859.982 70.3103C860.209 70.8546 860.215 71.4661 859.999 72.015C859.783 72.5639 859.361 73.007 858.823 73.2502C858.515 73.3789 858.182 73.4395 857.847 73.4281C857.513 73.4166 857.185 73.3333 856.886 73.1839C856.437 72.9281 856.079 72.5391 855.862 72.0706ZM1219.1 259.29C1218.6 258.993 1218.24 258.51 1218.09 257.947C1217.95 257.384 1218.03 256.786 1218.32 256.283C1218.47 256.028 1218.67 255.806 1218.91 255.629C1219.14 255.452 1219.41 255.325 1219.7 255.254C1219.99 255.183 1220.29 255.171 1220.58 255.217C1220.87 255.264 1221.15 255.369 1221.4 255.525C1221.65 255.674 1221.86 255.871 1222.04 256.103C1222.21 256.336 1222.33 256.601 1222.4 256.882C1222.47 257.164 1222.49 257.456 1222.45 257.743C1222.4 258.03 1222.3 258.305 1222.15 258.554C1221.86 259.046 1221.39 259.409 1220.84 259.57C1220.29 259.731 1219.7 259.679 1219.19 259.423L1219.1 259.29ZM1250.03 272.89C1250.15 272.62 1250.32 272.375 1250.53 272.171C1250.74 271.967 1250.99 271.809 1251.27 271.704C1251.54 271.6 1251.83 271.553 1252.13 271.565C1252.42 271.578 1252.71 271.649 1252.97 271.776C1253.24 271.892 1253.48 272.06 1253.68 272.27C1253.89 272.479 1254.04 272.727 1254.15 272.998C1254.26 273.269 1254.31 273.559 1254.3 273.85C1254.29 274.141 1254.23 274.427 1254.11 274.693C1253.99 274.96 1253.83 275.202 1253.62 275.404C1253.41 275.605 1253.16 275.764 1252.89 275.869C1252.62 275.975 1252.33 276.026 1252.04 276.019C1251.74 276.012 1251.46 275.948 1251.19 275.83L1251.06 275.696C1250.56 275.448 1250.18 275.019 1249.99 274.497C1249.8 273.976 1249.81 273.4 1250.03 272.89ZM1189.24 239.096C1189.01 238.924 1188.81 238.706 1188.66 238.456C1188.51 238.205 1188.41 237.927 1188.37 237.639C1188.34 237.35 1188.35 237.056 1188.43 236.774C1188.51 236.493 1188.64 236.23 1188.82 236.001C1188.99 235.761 1189.21 235.558 1189.46 235.403C1189.71 235.248 1189.99 235.144 1190.28 235.099C1190.57 235.053 1190.86 235.066 1191.15 235.136C1191.43 235.207 1191.7 235.334 1191.94 235.51C1192.17 235.688 1192.37 235.911 1192.52 236.165C1192.67 236.419 1192.76 236.7 1192.8 236.992C1192.84 237.284 1192.82 237.581 1192.75 237.865C1192.67 238.15 1192.54 238.417 1192.36 238.65C1192.05 239.078 1191.59 239.378 1191.07 239.493C1190.56 239.608 1190.02 239.53 1189.55 239.275L1189.24 239.096ZM1283.86 284.709C1283.93 284.415 1284.05 284.137 1284.23 283.892C1284.41 283.647 1284.63 283.44 1284.89 283.282C1285.14 283.125 1285.43 283.02 1285.73 282.974C1286.03 282.928 1286.33 282.942 1286.62 283.016C1286.92 283.079 1287.2 283.202 1287.45 283.377C1287.69 283.552 1287.9 283.775 1288.06 284.033C1288.22 284.292 1288.32 284.579 1288.37 284.879C1288.41 285.179 1288.39 285.484 1288.32 285.777C1288.25 286.073 1288.13 286.353 1287.96 286.601C1287.79 286.849 1287.57 287.059 1287.31 287.22C1287.06 287.38 1286.77 287.487 1286.47 287.534C1286.17 287.581 1285.87 287.566 1285.58 287.492C1285.39 287.453 1285.21 287.393 1285.04 287.314C1284.58 287.1 1284.2 286.734 1283.97 286.277C1283.74 285.821 1283.67 285.299 1283.77 284.798L1283.86 284.709ZM1161.5 216.253C1161.06 215.859 1160.78 215.308 1160.74 214.717C1160.7 214.126 1160.89 213.542 1161.28 213.09C1161.47 212.863 1161.7 212.677 1161.96 212.543C1162.23 212.409 1162.51 212.329 1162.81 212.308C1163.11 212.287 1163.4 212.326 1163.68 212.422C1163.96 212.518 1164.22 212.669 1164.44 212.867C1164.66 213.058 1164.84 213.292 1164.97 213.554C1165.1 213.817 1165.18 214.102 1165.2 214.395C1165.22 214.687 1165.18 214.98 1165.08 215.257C1164.98 215.534 1164.83 215.789 1164.64 216.007C1164.31 216.386 1163.86 216.641 1163.37 216.73C1162.87 216.819 1162.36 216.737 1161.92 216.497C1161.74 216.468 1161.57 216.415 1161.41 216.342L1161.5 216.253ZM1319.23 290.091C1319.24 289.503 1319.47 288.943 1319.89 288.527C1320.31 288.112 1320.87 287.874 1321.45 287.863C1322.04 287.865 1322.61 288.101 1323.03 288.518C1323.44 288.935 1323.68 289.5 1323.68 290.09C1323.68 290.68 1323.44 291.245 1323.03 291.662C1322.61 292.079 1322.04 292.315 1321.45 292.317C1321.11 292.296 1320.78 292.205 1320.47 292.05C1320.1 291.895 1319.77 291.637 1319.54 291.306C1319.3 290.976 1319.16 290.585 1319.14 290.18L1319.23 290.091ZM1135.07 191.961C1134.64 191.557 1134.39 191.001 1134.37 190.414C1134.35 189.826 1134.56 189.254 1134.96 188.821C1135.37 188.391 1135.94 188.141 1136.54 188.124C1137.14 188.107 1137.72 188.325 1138.16 188.731C1138.58 189.148 1138.82 189.712 1138.83 190.303C1138.84 190.893 1138.61 191.464 1138.21 191.893C1137.87 192.246 1137.43 192.478 1136.95 192.555C1136.48 192.631 1135.98 192.548 1135.56 192.317C1135.35 192.259 1135.16 192.169 1134.98 192.05L1135.07 191.961ZM890.183 61.7517C890.106 61.1619 890.263 60.5651 890.622 60.0901C890.98 59.6151 891.511 59.2999 892.099 59.2124C892.689 59.1414 893.283 59.3044 893.753 59.6667C894.224 60.0289 894.533 60.5613 894.615 61.1494C894.662 61.4427 894.65 61.7424 894.578 62.0307C894.506 62.319 894.377 62.5899 894.198 62.827C894.019 63.0642 893.794 63.2627 893.537 63.4108C893.279 63.5589 892.994 63.6534 892.699 63.6887C892.246 63.7565 891.784 63.6703 891.385 63.444C891.053 63.3068 890.76 63.0881 890.534 62.8079C890.309 62.5276 890.157 62.195 890.094 61.8408L890.183 61.7517ZM1109.15 167.112C1108.94 166.907 1108.77 166.663 1108.65 166.394C1108.54 166.124 1108.48 165.834 1108.47 165.54C1108.47 165.247 1108.52 164.955 1108.63 164.682C1108.74 164.409 1108.9 164.16 1109.11 163.95C1109.31 163.739 1109.55 163.571 1109.82 163.454C1110.09 163.338 1110.38 163.276 1110.68 163.272C1110.97 163.268 1111.26 163.321 1111.54 163.43C1111.81 163.539 1112.06 163.7 1112.27 163.904C1112.48 164.103 1112.66 164.343 1112.78 164.61C1112.9 164.878 1112.97 165.167 1112.97 165.46C1112.98 165.754 1112.93 166.045 1112.82 166.318C1112.71 166.59 1112.54 166.837 1112.33 167.045C1112 167.402 1111.56 167.638 1111.08 167.714C1110.6 167.791 1110.11 167.705 1109.68 167.468C1109.46 167.422 1109.25 167.331 1109.06 167.201L1109.15 167.112ZM1354.77 287.455C1354.69 287.162 1354.67 286.856 1354.72 286.556C1354.76 286.256 1354.87 285.968 1355.03 285.711C1355.19 285.454 1355.4 285.233 1355.66 285.062C1355.91 284.89 1356.19 284.772 1356.49 284.715C1356.78 284.637 1357.08 284.62 1357.38 284.663C1357.68 284.707 1357.97 284.811 1358.23 284.969C1358.49 285.128 1358.71 285.337 1358.89 285.584C1359.06 285.831 1359.18 286.111 1359.25 286.407C1359.39 286.998 1359.29 287.619 1358.97 288.137C1358.65 288.654 1358.14 289.025 1357.55 289.169C1357.02 289.268 1356.48 289.19 1356 288.947C1355.69 288.814 1355.42 288.609 1355.2 288.349C1354.99 288.09 1354.84 287.783 1354.77 287.455ZM925.839 60.5636C925.887 59.9732 926.167 59.4257 926.618 59.0414C927.069 58.6572 927.654 58.4676 928.245 58.5142C928.835 58.5672 929.381 58.8528 929.761 59.3079C930.141 59.7631 930.324 60.3506 930.271 60.9413C930.249 61.2353 930.168 61.5218 930.033 61.784C929.898 62.0462 929.712 62.2787 929.485 62.4677C929.259 62.6567 928.997 62.7984 928.715 62.8844C928.433 62.9704 928.136 62.999 927.843 62.9684C927.541 62.9624 927.247 62.8697 926.997 62.7014C926.61 62.5045 926.292 62.1946 926.085 61.8128C925.878 61.431 925.793 60.9954 925.839 60.5636ZM1082.96 142.798C1082.74 142.601 1082.56 142.361 1082.44 142.093C1082.31 141.825 1082.23 141.535 1082.22 141.238C1082.21 140.942 1082.25 140.646 1082.35 140.367C1082.45 140.088 1082.61 139.832 1082.81 139.613C1083.01 139.397 1083.25 139.221 1083.51 139.097C1083.78 138.973 1084.07 138.903 1084.36 138.89C1084.66 138.878 1084.95 138.923 1085.23 139.025C1085.5 139.126 1085.76 139.28 1085.97 139.479C1086.2 139.673 1086.38 139.911 1086.51 140.178C1086.64 140.444 1086.71 140.735 1086.72 141.031C1086.73 141.327 1086.69 141.623 1086.58 141.9C1086.47 142.177 1086.31 142.429 1086.1 142.641C1085.78 143.01 1085.34 143.258 1084.85 143.347C1084.37 143.436 1083.87 143.36 1083.43 143.132C1083.26 143.047 1083.1 142.934 1082.96 142.798ZM1055.82 119.665C1055.36 119.29 1055.06 118.748 1055 118.156C1054.93 117.565 1055.1 116.971 1055.47 116.502C1055.83 116.048 1056.36 115.758 1056.94 115.695C1057.52 115.632 1058.11 115.802 1058.56 116.167C1058.79 116.344 1058.99 116.566 1059.14 116.819C1059.28 117.072 1059.38 117.352 1059.41 117.642C1059.45 117.932 1059.43 118.227 1059.35 118.509C1059.28 118.791 1059.14 119.055 1058.96 119.285C1058.63 119.693 1058.18 119.976 1057.67 120.09C1057.16 120.203 1056.62 120.14 1056.16 119.909C1056.04 119.84 1055.92 119.758 1055.82 119.665ZM961.07 66.7473C961.142 66.4524 961.273 66.175 961.454 65.9315C961.635 65.688 961.863 65.4833 962.125 65.3296C962.387 65.1758 962.677 65.0761 962.978 65.0365C963.278 64.9968 963.584 65.018 963.877 65.0986C964.17 65.1789 964.445 65.3165 964.685 65.5037C964.924 65.6908 965.125 65.9237 965.274 66.1888C965.423 66.4539 965.518 66.746 965.553 67.0481C965.588 67.3502 965.564 67.6565 965.48 67.949C965.407 68.2471 965.274 68.5272 965.089 68.7717C964.904 69.0163 964.67 69.2201 964.403 69.3706C964.135 69.521 963.84 69.6149 963.534 69.6463C963.229 69.6777 962.921 69.646 962.629 69.5531C962.471 69.5195 962.32 69.4592 962.183 69.375C961.716 69.1402 961.348 68.747 961.144 68.2657C960.94 67.7844 960.914 67.2462 961.07 66.7473ZM1026.99 98.803C1026.74 98.6469 1026.52 98.443 1026.36 98.2032C1026.19 97.9635 1026.07 97.6927 1026.01 97.4066C1025.94 97.1205 1025.94 96.8249 1025.99 96.537C1026.05 96.2491 1026.16 95.9747 1026.32 95.7298C1026.47 95.4836 1026.68 95.2711 1026.91 95.1047C1027.15 94.9384 1027.42 94.8216 1027.71 94.7613C1027.99 94.701 1028.29 94.6984 1028.57 94.7537C1028.86 94.809 1029.13 94.9211 1029.37 95.0832C1029.62 95.2363 1029.84 95.4387 1030.01 95.6782C1030.18 95.9177 1030.3 96.1894 1030.36 96.4767C1030.42 96.764 1030.43 97.061 1030.37 97.3497C1030.31 97.6385 1030.2 97.9129 1030.04 98.1564C1029.74 98.6181 1029.29 98.9525 1028.76 99.093C1028.23 99.2335 1027.67 99.1696 1027.19 98.9143L1026.99 98.803ZM994.853 78.8775C995.104 78.3369 995.558 77.9169 996.117 77.7084C996.675 77.4998 997.293 77.5196 997.837 77.7633C998.372 78.0082 998.789 78.454 998.997 79.0043C999.206 79.5546 999.189 80.1649 998.95 80.7029C998.829 80.9734 998.655 81.2172 998.439 81.42C998.223 81.6228 997.968 81.7806 997.691 81.8843C997.413 81.988 997.117 82.0354 996.821 82.0239C996.525 82.0123 996.234 81.9421 995.965 81.8171C995.436 81.566 995.024 81.1197 994.817 80.5717C994.609 80.0237 994.622 79.4165 994.853 78.8775ZM1388.02 274.464C1387.87 274.215 1387.76 273.937 1387.72 273.646C1387.68 273.356 1387.69 273.059 1387.77 272.775C1387.84 272.491 1387.98 272.225 1388.16 271.995C1388.34 271.764 1388.57 271.574 1388.83 271.435C1389.07 271.275 1389.34 271.166 1389.63 271.117C1389.91 271.067 1390.21 271.077 1390.49 271.146C1390.77 271.215 1391.04 271.341 1391.27 271.517C1391.5 271.693 1391.69 271.915 1391.83 272.169C1391.99 272.421 1392.09 272.7 1392.13 272.99C1392.18 273.281 1392.16 273.577 1392.09 273.863C1392.02 274.148 1391.9 274.417 1391.72 274.654C1391.55 274.891 1391.33 275.091 1391.08 275.243C1390.74 275.438 1390.37 275.546 1389.98 275.558C1389.6 275.57 1389.21 275.485 1388.87 275.31C1388.53 275.099 1388.24 274.809 1388.02 274.464ZM1416.29 252.61C1415.87 252.201 1415.63 251.642 1415.61 251.054C1415.6 250.466 1415.82 249.897 1416.22 249.47C1416.43 249.257 1416.67 249.087 1416.93 248.968C1417.2 248.85 1417.49 248.785 1417.78 248.779C1418.07 248.773 1418.36 248.825 1418.64 248.932C1418.91 249.039 1419.16 249.199 1419.36 249.402C1419.58 249.6 1419.75 249.838 1419.88 250.104C1420 250.37 1420.07 250.657 1420.08 250.949C1420.09 251.241 1420.04 251.533 1419.94 251.806C1419.83 252.08 1419.68 252.33 1419.48 252.543C1419.14 252.899 1418.7 253.136 1418.21 253.216C1417.73 253.297 1417.24 253.217 1416.8 252.989C1416.61 252.888 1416.44 252.761 1416.29 252.61ZM1436.32 220.781C1436.45 220.512 1436.63 220.272 1436.85 220.075C1437.08 219.877 1437.34 219.726 1437.62 219.631C1437.9 219.536 1438.2 219.497 1438.5 219.519C1438.79 219.54 1439.08 219.621 1439.35 219.756C1439.87 220.026 1440.27 220.493 1440.46 221.054C1440.65 221.616 1440.61 222.229 1440.35 222.762C1440.22 223.027 1440.04 223.263 1439.82 223.457C1439.6 223.651 1439.35 223.798 1439.07 223.89C1438.79 223.981 1438.49 224.016 1438.2 223.99C1437.91 223.965 1437.62 223.881 1437.37 223.742C1436.84 223.486 1436.43 223.031 1436.23 222.476C1436.04 221.922 1436.07 221.313 1436.32 220.781ZM1445.84 187.306C1445.88 186.715 1446.16 186.168 1446.62 185.783C1447.07 185.399 1447.65 185.209 1448.24 185.256C1448.54 185.271 1448.83 185.346 1449.09 185.477C1449.36 185.608 1449.59 185.792 1449.78 186.017C1449.98 186.242 1450.12 186.504 1450.21 186.787C1450.29 187.069 1450.32 187.367 1450.29 187.661C1450.27 187.955 1450.2 188.242 1450.07 188.506C1449.94 188.77 1449.76 189.006 1449.54 189.199C1449.31 189.392 1449.05 189.539 1448.77 189.63C1448.5 189.722 1448.2 189.757 1447.91 189.733C1447.6 189.697 1447.3 189.599 1447.04 189.443C1446.67 189.24 1446.36 188.935 1446.16 188.565C1445.95 188.194 1445.86 187.773 1445.88 187.35L1445.84 187.306Z" fill="#2F9FEE"/>
</svg>
