<svg width="132" height="132" viewBox="0 0 132 132" fill="none" xmlns="http://www.w3.org/2000/svg">
<g clip-path="url(#clip0_403_394)">
<path d="M131.783 37.5974C131.783 37.1711 131.779 36.7447 131.774 36.314C131.687 35.6353 131.613 34.9523 131.509 34.2736C128.934 18.0069 112.825 6.40836 96.5427 9.097C80.1428 11.8074 68.9456 26.1816 70.6334 42.6789C71.7427 53.4856 77.337 61.4733 86.8115 66.7331C87.6772 67.216 88.0078 67.6684 88.0078 68.6734C87.9687 84.4007 87.9817 100.128 87.9817 115.855C87.9817 118.822 87.9817 118.77 84.9758 118.844C83.8752 118.87 83.5446 118.639 83.5489 117.456C83.6011 104.909 83.5881 92.3622 83.5794 79.8152C83.5794 74.0463 79.9253 70.3962 74.1831 70.3875C70.2724 70.3832 66.3573 70.5137 62.4552 70.3571C56.8479 70.1265 52.6936 74.4292 52.7719 79.9805C52.9459 91.9227 52.8241 103.869 52.8241 115.816C52.8241 118.818 52.8241 118.757 49.8529 118.848C48.6523 118.887 48.3956 118.526 48.4 117.373C48.4348 93.1409 48.4304 68.904 48.4217 44.6714C48.4217 38.9157 44.7676 35.2351 39.0342 35.209C34.9973 35.1916 30.956 35.1916 26.9191 35.2177C26.0665 35.222 25.1878 35.2655 24.3656 35.4657C20.159 36.4794 17.5881 39.9598 17.5881 44.5975C17.5837 68.7909 17.5881 92.9799 17.5881 117.173C17.5881 117.474 17.5663 117.778 17.5881 118.074C17.6316 118.605 17.4576 118.796 16.879 118.835C14.0776 119.022 13.1858 118.231 13.1858 115.455C13.1858 98.5269 13.1858 81.5945 13.1858 64.6666C13.1858 45.3719 13.1945 26.0815 13.1771 6.78686C13.1771 2.88876 10.3321 0 6.6084 0C2.9021 0 0.0136217 2.93662 0.0136217 6.78686C0.000571306 43.4402 -0.0168292 80.0892 0.0353723 116.743C0.0440725 122.398 2.71505 126.723 7.48278 129.781C9.23587 130.908 11.2456 131.308 13.1553 132H126.585C129.608 131.565 131.357 129.786 132.001 126.845V124.265C131.244 120.306 129.038 118.492 124.949 118.474C123.661 118.465 122.374 118.474 121.086 118.474C119.281 118.465 119.233 118.426 119.233 116.573C119.233 99.9539 119.242 83.3391 119.211 66.72C119.211 65.4758 119.651 64.6709 120.612 63.9009C124.549 60.7293 127.637 56.8791 129.686 52.2196C130.939 49.37 131.735 46.416 131.996 43.3184V41.5129C131.57 40.9952 131.626 40.4819 131.996 39.9641V38.9331C131.579 38.5459 131.757 38.0586 131.779 37.6018L131.783 37.5974ZM57.222 79.6498C57.222 76.5479 58.9882 74.7946 62.0985 74.7903C66.1789 74.7816 70.255 74.7816 74.3354 74.7903C77.4283 74.799 79.1771 76.561 79.1814 79.6759C79.1901 85.9451 79.1814 92.2142 79.1814 98.4834C79.1814 104.84 79.164 111.196 79.1988 117.547C79.2032 118.492 79.0553 118.857 77.9721 118.848C71.4469 118.792 64.9174 118.796 58.3922 118.844C57.4352 118.853 57.1872 118.626 57.1872 117.652C57.222 104.983 57.209 92.3143 57.2133 79.6498H57.222ZM21.9904 44.4583C21.9904 41.3563 23.7566 39.6335 26.8974 39.6204C30.8908 39.6074 34.8885 39.6117 38.8819 39.6204C42.3577 39.6248 44.0238 41.2824 44.0238 44.741C44.0238 56.8573 44.0238 68.9693 44.0238 81.0855C44.0238 93.2018 44.0064 105.314 44.0499 117.43C44.0499 118.548 43.8193 118.861 42.6535 118.853C36.1675 118.787 29.6814 118.8 23.1954 118.844C22.2688 118.848 21.9556 118.674 21.9556 117.665C21.9861 93.2627 21.9774 68.8605 21.9861 44.4583H21.9904ZM124.179 123.216C124.61 123.216 125.04 123.199 125.467 123.229C126.698 123.312 127.585 124.221 127.603 125.378C127.616 126.518 126.733 127.475 125.519 127.597C125.136 127.636 124.745 127.61 124.357 127.61C88.3515 127.61 52.3455 127.61 16.3396 127.61C8.96616 127.61 4.39419 123.025 4.39419 115.629C4.39419 97.709 4.39419 79.7934 4.39419 61.8735C4.39419 43.9536 4.39419 25.864 4.39419 7.86144C4.39419 7.47424 4.37679 7.08704 4.39854 6.69984C4.47249 5.32072 5.41647 4.35925 6.6606 4.3984C7.86994 4.43321 8.72691 5.35553 8.78346 6.69114C8.80086 7.12185 8.78781 7.5482 8.78781 7.97891C8.78781 43.8579 8.78781 79.7369 8.78781 115.616C8.78781 120.619 11.3935 123.212 16.4136 123.212C52.3325 123.212 88.2514 123.212 124.17 123.212L124.179 123.216ZM114.443 117.678C114.443 118.548 114.265 118.848 113.33 118.844C106.713 118.8 100.097 118.809 93.4846 118.835C92.6885 118.835 92.3666 118.7 92.371 117.8C92.3971 101.777 92.3927 85.7493 92.3927 69.7262C92.3927 69.5609 92.4232 69.3956 92.4449 69.1346C94.7983 69.7828 97.1474 70.244 99.5443 70.3571C104.334 70.5877 108.949 69.8046 113.339 67.8381C114.248 67.4292 114.448 67.564 114.443 68.5733C114.417 84.9401 114.417 101.311 114.443 117.678ZM101.11 65.9978C86.6984 65.9935 74.7747 54.0686 74.7922 39.6683C74.8096 25.1418 86.6419 13.1735 100.971 13.1865C115.853 13.1996 127.629 24.9939 127.598 39.851C127.572 54.2165 115.631 66.0022 101.106 65.9978H101.11Z" fill="#404041"/>
<path d="M132 41.5086V39.9598C131.792 40.4776 131.792 40.9909 132 41.5086Z" fill="#404041"/>
<path d="M131.774 36.3141C131.952 36.71 131.83 37.132 131.865 37.5409C131.865 37.567 131.865 37.5888 131.87 37.6149C131.913 37.6236 131.957 37.6323 131.996 37.641V36.3532C131.922 36.3315 131.848 36.3228 131.77 36.3184L131.774 36.3141Z" fill="#404041"/>
<path d="M132.001 38.9288V37.641C131.953 37.6975 131.914 37.7237 131.879 37.7193C131.883 38.1239 131.761 38.5459 132.001 38.9288Z" fill="#404041"/>
<path d="M131.877 37.7192C131.877 37.6844 131.873 37.6496 131.869 37.6148C131.838 37.6105 131.808 37.6018 131.777 37.5974C131.803 37.6757 131.834 37.7149 131.873 37.7192H131.877Z" fill="#404041"/>
<path d="M101.249 17.5805C96.0293 17.5414 91.9272 22.1051 92.4796 27.3171C92.845 30.7453 93.6498 34.0648 94.8852 37.2798C95.5987 39.1244 96.4469 40.9038 97.8433 42.3525C99.9749 44.5583 102.446 44.5496 104.577 42.3308C105.234 41.6478 105.774 40.8734 106.217 40.0337C108.327 36.0834 109.362 31.8155 109.902 27.4084C110.537 22.2182 106.478 17.6197 101.241 17.5762L101.249 17.5805ZM105.578 26.6427C105.26 30.7409 104.116 34.6347 102.211 38.2804C101.415 39.8031 101.028 39.8118 100.24 38.3544C98.2435 34.6477 97.2082 30.6496 96.8037 26.8341C96.8167 23.941 98.8308 21.9224 101.284 21.9876C103.768 22.0529 105.774 24.1237 105.578 26.6471V26.6427Z" fill="#2F9FEE"/>
<path d="M101.34 48.4347C97.6773 48.3825 94.6931 51.2103 94.6148 54.7995C94.5365 58.4801 97.412 61.5081 101.066 61.5994C104.646 61.6908 107.717 58.7672 107.778 55.2041C107.844 51.467 105.007 48.4869 101.34 48.4347ZM101.275 57.2054C100.092 57.2445 99.0302 56.2309 99.0085 55.0388C98.9824 53.8163 99.9611 52.8244 101.197 52.82C102.432 52.82 103.402 53.7902 103.389 55.0258C103.376 56.1786 102.415 57.1662 101.275 57.2054Z" fill="#2F9FEE"/>
</g>
<defs>
<clipPath id="clip0_403_394">
<rect width="132" height="132" fill="white"/>
</clipPath>
</defs>
</svg>
