<svg width="367" height="414" viewBox="0 0 367 414" fill="none" xmlns="http://www.w3.org/2000/svg">
<g opacity="0.7">
<path d="M183.7 366.602C82.609 366.602 0.398438 284.358 0.398438 183.301C0.398438 82.2439 82.6423 0 183.7 0C284.757 0 367.001 82.2439 367.001 183.301C367.001 284.358 284.823 366.602 183.7 366.602ZM183.7 2.58286C84.0754 2.58286 3.02297 83.6353 3.02297 183.268C3.02297 282.9 84.1087 363.953 183.7 363.953C283.29 363.953 364.384 282.9 364.384 183.268C364.384 83.6353 283.365 2.58286 183.7 2.58286Z" fill="#E0E0E0"/>
<path d="M183.7 330.2C102.681 330.2 36.7676 264.287 36.7676 183.268C36.7676 102.249 102.714 36.3352 183.7 36.3352C264.686 36.3352 330.666 102.257 330.666 183.268C330.666 264.279 264.753 330.2 183.7 330.2ZM183.7 38.9848C104.147 38.9848 39.4171 103.707 39.4171 183.268C39.4171 262.829 104.181 327.542 183.7 327.542C263.219 327.542 327.983 262.82 327.983 183.268C327.983 103.715 263.294 38.9848 183.7 38.9848Z" fill="#E0E0E0"/>
<path d="M183.701 293.798C122.753 293.798 73.1699 244.215 73.1699 183.268C73.1699 122.32 122.786 72.7371 183.701 72.7371C244.615 72.7371 294.231 122.32 294.231 183.268C294.231 244.215 244.682 293.798 183.701 293.798ZM183.701 75.3866C155.105 75.4285 127.692 86.8091 107.475 107.033C87.2579 127.256 75.8858 154.672 75.8528 183.268C75.8528 242.749 124.253 291.149 183.734 291.149C212.35 291.149 239.794 279.781 260.029 259.546C280.264 239.311 291.632 211.867 291.632 183.251C291.632 154.635 280.264 127.191 260.029 106.956C239.794 86.7211 212.35 75.3533 183.734 75.3533L183.701 75.3866Z" fill="#E0E0E0"/>
<path d="M183.699 257.396C169.032 257.396 154.696 253.048 142.501 244.899C130.307 236.751 120.802 225.17 115.19 211.62C109.577 198.07 108.109 183.161 110.97 168.776C113.831 154.392 120.893 141.179 131.264 130.808C141.635 120.438 154.848 113.375 169.232 110.514C183.616 107.653 198.526 109.121 212.076 114.734C225.626 120.346 237.207 129.851 245.355 142.045C253.503 154.24 257.852 168.577 257.852 183.243C257.837 202.905 250.019 221.757 236.116 235.66C222.213 249.564 203.361 257.381 183.699 257.396ZM183.699 111.789C169.561 111.789 155.742 115.981 143.987 123.835C132.232 131.689 123.071 142.853 117.661 155.914C112.25 168.975 110.835 183.347 113.593 197.213C116.351 211.078 123.159 223.815 133.155 233.811C143.152 243.808 155.888 250.616 169.754 253.374C183.619 256.132 197.991 254.716 211.052 249.306C224.114 243.896 235.277 234.734 243.131 222.98C250.986 211.225 255.178 197.405 255.178 183.268C255.156 164.317 247.618 146.149 234.218 132.749C220.817 119.349 202.649 111.811 183.699 111.789Z" fill="#E0E0E0"/>
<path d="M183.699 220.995C176.238 220.995 168.944 218.782 162.74 214.637C156.535 210.491 151.7 204.599 148.844 197.705C145.989 190.812 145.242 183.226 146.698 175.908C148.153 168.59 151.746 161.867 157.023 156.591C162.299 151.315 169.021 147.722 176.339 146.266C183.658 144.81 191.243 145.558 198.137 148.413C205.03 151.268 210.923 156.104 215.068 162.308C219.213 168.512 221.426 175.806 221.426 183.268C221.415 193.27 217.437 202.86 210.364 209.933C203.291 217.005 193.702 220.984 183.699 220.995ZM183.699 148.191C176.762 148.191 169.98 150.248 164.212 154.102C158.443 157.957 153.947 163.435 151.292 169.845C148.637 176.254 147.943 183.307 149.296 190.111C150.65 196.916 153.99 203.166 158.896 208.071C163.802 212.977 170.052 216.318 176.856 217.671C183.66 219.025 190.713 218.33 197.123 215.675C203.532 213.02 209.011 208.524 212.865 202.756C216.719 196.987 218.777 190.206 218.777 183.268C218.766 173.968 215.066 165.053 208.491 158.477C201.915 151.901 192.999 148.202 183.699 148.191Z" fill="#E0E0E0"/>
</g>
<path d="M182.692 315.987C256.529 315.987 316.385 256.131 316.385 182.295C316.385 108.459 256.529 48.6025 182.692 48.6025C108.856 48.6025 49 108.459 49 182.295C49 256.131 108.856 315.987 182.692 315.987Z" fill="white" stroke="#2F9FEE" stroke-width="6" stroke-miterlimit="10"/>
<circle cx="189" cy="322.603" r="16" fill="#2F9FEE"/>
<circle cx="189" cy="355.603" r="8" fill="#2F9FEE"/>
<circle cx="189" cy="380.603" r="8" fill="#2F9FEE"/>
<circle cx="189" cy="405.603" r="8" fill="#2F9FEE"/>
<g clip-path="url(#clip0_1161_201)">
<path d="M186.64 237.997C186.062 237.933 185.475 237.955 184.892 237.955C164.47 237.955 144.052 237.955 123.63 237.955C122.992 237.955 122.354 237.963 121.72 237.916C116.476 237.525 112.836 233.651 112.785 228.393C112.759 225.737 112.781 223.085 112.781 220.428C112.781 199.084 112.793 177.743 112.751 156.398C112.751 155.087 113.04 154.708 114.388 154.738C118.628 154.836 122.873 154.776 127.117 154.772C127.7 154.772 128.287 154.785 128.865 154.738C130.243 154.627 131.03 153.793 131.085 152.477C131.145 151.153 130.396 150.277 129.048 150.047C128.529 149.957 127.993 149.966 127.466 149.962C123.009 149.957 118.556 149.932 114.099 149.979C113.117 149.987 112.687 149.813 112.755 148.701C112.857 146.956 112.764 145.198 112.785 143.448C112.849 138.029 116.838 133.998 122.23 133.934C125.148 133.9 128.065 133.925 130.983 133.925C132.982 133.925 134.012 134.92 134.075 136.909C134.202 140.873 137.426 144.04 141.364 144.057C145.273 144.078 148.56 140.911 148.73 136.965C148.815 134.936 149.876 133.921 151.911 133.921C153.771 133.921 154.72 134.838 154.756 136.671C154.842 140.843 158.091 144.095 162.135 144.053C166.129 144.01 169.318 140.796 169.42 136.714C169.469 134.849 170.45 133.917 172.363 133.917C174.351 133.917 175.379 134.917 175.447 136.918C175.579 140.881 178.815 144.044 182.749 144.053C186.662 144.061 189.932 140.903 190.102 136.943C190.19 134.926 191.255 133.917 193.296 133.917C195.142 133.917 196.085 134.84 196.124 136.688C196.214 140.796 199.356 143.993 203.363 144.048C207.39 144.108 210.686 140.843 210.792 136.688C210.841 134.838 211.775 133.912 213.595 133.912C215.67 133.912 216.744 134.921 216.814 136.939C216.946 140.66 219.723 143.601 223.5 144.019C226.864 144.393 230.237 142.009 231.193 138.634C231.534 137.429 231.491 136.216 231.461 134.998C231.444 134.257 231.529 133.87 232.461 133.887C236.28 133.951 240.099 133.836 243.918 133.951C248.184 134.078 251.76 137.327 252.539 141.537C252.93 143.648 252.594 145.781 252.781 147.888C252.921 149.489 252.488 149.991 250.769 149.987C214.012 149.932 177.254 149.944 140.501 149.949C139.765 149.949 139.004 149.949 138.294 150.119C137.107 150.404 136.546 151.268 136.601 152.477C136.652 153.691 137.303 154.465 138.506 154.666C139.127 154.768 139.774 154.746 140.407 154.746C177.216 154.746 214.029 154.763 250.837 154.708C252.492 154.708 252.811 155.159 252.798 156.722C252.722 166.172 252.76 175.623 252.76 185.074C252.76 187.189 253.632 188.343 255.171 188.309C256.694 188.275 257.54 187.1 257.54 184.984C257.544 182.277 257.54 179.569 257.54 176.862C257.54 165.764 257.574 154.67 257.527 143.572C257.497 136.067 252.398 130.094 245.062 129.264C241.656 128.876 238.177 129.162 234.728 129.106C233.681 129.089 232.316 129.57 231.687 128.889C231.172 128.327 231.504 126.986 231.457 125.994C231.457 125.943 231.457 125.888 231.449 125.837C231.159 121.984 227.842 118.932 224.01 119C220.123 119.072 216.959 122.184 216.814 126.071C216.738 128.112 215.621 129.132 213.463 129.132C211.711 129.132 210.821 128.266 210.792 126.535C210.716 122.248 207.488 118.962 203.38 119C199.318 119.038 196.188 122.274 196.116 126.497C196.087 128.253 195.203 129.132 193.462 129.132C192.407 129.132 191.076 129.472 190.374 128.966C189.6 128.404 190.17 126.995 190.102 125.956C189.847 122.086 186.611 119.004 182.753 119C178.824 119 175.579 122.163 175.442 126.122C175.374 128.126 174.347 129.128 172.359 129.128C170.448 129.128 169.469 128.192 169.42 126.322C169.31 122.244 166.124 119.043 162.122 119.004C158.078 118.966 154.837 122.218 154.752 126.395C154.715 128.222 153.761 129.136 151.89 129.136C149.874 129.136 148.819 128.113 148.726 126.067C148.488 120.741 142.887 117.425 138.136 119.826C134.947 121.439 133.815 124.202 134.087 127.612C134.185 128.876 133.781 129.2 132.535 129.17C128.984 129.085 125.429 129.098 121.873 129.162C115.587 129.272 110.276 133.44 108.515 139.506C108.379 139.983 108.515 140.592 107.996 140.937V231.088C108.094 231.199 108.247 231.288 108.285 231.416C110.624 239.181 115.4 242.765 123.426 242.769C143.95 242.769 164.479 242.769 185.003 242.769C185.586 242.769 186.181 242.799 186.747 242.697C188.065 242.463 188.848 241.658 188.809 240.292C188.771 238.938 187.98 238.155 186.632 238.006L186.64 237.997ZM221.595 126.492C221.633 124.909 222.705 123.806 224.121 123.806C225.516 123.806 226.647 124.93 226.668 126.497C226.715 129.826 226.711 133.159 226.668 136.488C226.647 138.14 225.473 139.306 224.032 139.255C222.615 139.2 221.616 138.106 221.586 136.484C221.556 134.794 221.578 133.099 221.582 131.409C221.582 129.77 221.552 128.131 221.59 126.492H221.595ZM200.909 126.578C200.938 124.96 201.938 123.862 203.358 123.806C204.8 123.755 205.974 124.922 205.995 126.573C206.033 129.902 206.038 133.236 205.995 136.565C205.974 138.131 204.838 139.251 203.448 139.255C202.031 139.255 200.96 138.152 200.921 136.569C200.883 134.879 200.913 133.184 200.913 131.494C200.913 129.855 200.887 128.217 200.917 126.578H200.909ZM180.227 126.561C180.261 124.951 181.277 123.849 182.694 123.806C184.14 123.764 185.292 124.93 185.313 126.59C185.352 129.868 185.347 133.146 185.313 136.424C185.296 138.101 184.195 139.264 182.745 139.255C181.277 139.247 180.252 138.106 180.227 136.394C180.201 134.755 180.223 133.116 180.223 131.477C180.223 129.838 180.197 128.199 180.231 126.561H180.227ZM159.549 126.458C159.592 124.888 160.702 123.785 162.114 123.81C163.454 123.836 164.593 124.909 164.619 126.373C164.67 129.809 164.67 133.248 164.619 136.684C164.598 138.157 163.462 139.225 162.118 139.255C160.706 139.285 159.592 138.178 159.549 136.611C159.507 134.866 159.541 133.121 159.541 131.38C159.541 129.741 159.507 128.102 159.549 126.463V126.458ZM138.859 126.688C138.872 124.973 139.893 123.828 141.356 123.806C142.81 123.785 143.907 124.943 143.946 126.616C143.98 128.255 143.954 129.894 143.954 131.533C143.954 133.121 143.971 134.704 143.95 136.292C143.924 138.089 142.857 139.281 141.351 139.255C139.888 139.225 138.872 138.084 138.863 136.365C138.842 133.138 138.842 129.915 138.863 126.688H138.859Z" fill="#2F9FEE"/>
<path d="M270.136 218.521C266.819 203.37 257.684 192.987 242.854 188.398C228.054 183.822 214.84 187.449 203.481 197.892C200.853 200.31 198.739 203.175 196.927 206.248C196.243 207.41 196.4 208.517 197.442 209.386C198.365 210.156 199.42 210.177 200.355 209.428C200.836 209.045 201.18 208.47 201.52 207.942C208.219 197.598 217.741 191.979 230.006 191.387C251.105 190.374 268.189 208.896 265.913 230.105C263.549 252.135 241.383 266.443 220.361 259.508C203.077 253.804 193.215 236.201 197.238 218.223C197.667 216.299 197.059 215.06 195.528 214.741C194.061 214.439 193.083 215.265 192.602 217.112C191.828 220.113 191.599 223.174 191.492 226.405C191.556 228.589 191.684 230.922 192.105 233.221C196.056 254.71 215.895 268.81 237.547 265.523C259.534 262.186 274.887 240.215 270.141 218.521H270.136Z" fill="#2F9FEE"/>
<path d="M226.877 217.9C225.423 216.218 223.93 214.566 222.42 212.932C221.144 211.548 219.796 211.395 218.69 212.442C217.648 213.43 217.695 214.784 218.856 216.103C220.255 217.695 221.65 219.292 223.113 220.824C223.781 221.523 223.904 222.063 223.496 223.017C221.102 228.623 225.202 234.787 231.236 234.762C236.029 234.741 240.376 230.526 239.534 225.933C239.006 223.051 240.133 221.808 242.077 220.518C242.473 220.254 242.826 219.926 243.179 219.607C244.437 218.466 244.633 217.057 243.68 215.988C242.74 214.933 241.435 214.886 240.146 215.903C238.981 216.823 237.82 217.747 236.714 218.73C236.2 219.185 235.817 219.241 235.204 218.896C233.061 217.683 230.777 217.508 228.476 218.355C227.732 218.628 227.354 218.457 226.881 217.913L226.877 217.9ZM231.139 222.655C233.184 222.608 234.915 224.302 234.89 226.329C234.864 228.317 233.231 229.926 231.232 229.93C229.204 229.934 227.621 228.368 227.604 226.341C227.587 224.311 229.135 222.697 231.143 222.655H231.139Z" fill="#404041"/>
<path d="M140.802 193.004C140.746 189.675 138.543 187.415 135.23 187.347C132.9 187.3 130.565 187.3 128.234 187.347C124.926 187.411 122.68 189.688 122.638 192.987C122.608 195.269 122.608 197.551 122.638 199.833C122.676 203.043 124.887 205.41 128.06 205.524C130.497 205.614 132.938 205.61 135.375 205.524C138.552 205.414 140.746 203.064 140.806 199.85C140.827 198.734 140.806 197.623 140.806 196.508C140.806 195.342 140.823 194.175 140.806 193.004H140.802ZM131.62 200.765C128.813 200.765 127.409 199.338 127.409 196.483C127.409 193.571 128.881 192.115 131.824 192.115C134.619 192.115 136.017 193.534 136.017 196.372C136.017 199.301 134.55 200.765 131.615 200.765H131.62Z" fill="#2F9FEE"/>
<path d="M242.374 168.535C242.251 165.444 240.15 163.26 237.041 163.133C234.553 163.035 232.057 163.03 229.569 163.133C226.443 163.26 224.278 165.546 224.202 168.697C224.146 171.029 224.146 173.367 224.202 175.699C224.278 178.892 226.532 181.195 229.73 181.306C232.112 181.391 234.502 181.391 236.884 181.306C240.099 181.195 242.276 178.926 242.374 175.691C242.408 174.525 242.378 173.358 242.378 172.192H242.374C242.374 170.97 242.412 169.748 242.366 168.531L242.374 168.535ZM236.293 176.538C234.332 176.508 232.371 176.504 230.407 176.538C229.411 176.555 228.944 176.193 228.965 175.146C229.007 173.184 229.012 171.217 228.965 169.259C228.939 168.194 229.416 167.849 230.402 167.892C231.406 167.935 232.418 167.901 233.422 167.901C236.203 167.901 237.594 169.281 237.594 172.043C237.594 173.103 237.556 174.167 237.602 175.227C237.645 176.193 237.224 176.555 236.284 176.542L236.293 176.538Z" fill="#2F9FEE"/>
<path d="M140.802 217.206C140.742 213.949 138.59 211.672 135.371 211.574C132.934 211.501 130.493 211.497 128.056 211.574C124.845 211.676 122.676 213.975 122.638 217.223C122.612 219.505 122.608 221.786 122.638 224.068C122.68 227.269 124.896 229.628 128.077 229.747C130.514 229.836 132.955 229.841 135.392 229.747C138.569 229.628 140.751 227.274 140.806 224.051C140.828 222.936 140.806 221.825 140.806 220.709C140.806 219.543 140.823 218.376 140.806 217.206H140.802ZM131.65 224.975C128.826 224.975 127.414 223.56 127.414 220.731C127.414 217.81 128.876 216.35 131.799 216.35C134.614 216.35 136.022 217.754 136.022 220.56C136.022 223.503 134.564 224.975 131.65 224.975Z" fill="#2F9FEE"/>
<path d="M140.806 172.234C140.806 171.013 140.832 169.791 140.798 168.573C140.717 165.581 138.637 163.299 135.656 163.154C133.066 163.026 130.459 163.031 127.869 163.15C124.811 163.29 122.693 165.589 122.642 168.658C122.604 170.991 122.608 173.328 122.642 175.661C122.685 178.726 124.756 181.085 127.797 181.276C130.383 181.438 132.994 181.425 135.584 181.285C138.642 181.119 140.734 178.79 140.802 175.738C140.828 174.571 140.802 173.405 140.802 172.234H140.806ZM131.62 176.53C128.819 176.53 127.418 175.104 127.418 172.251C127.418 169.351 128.891 167.901 131.837 167.901C134.63 167.901 136.026 169.318 136.026 172.153C136.026 175.071 134.558 176.53 131.62 176.53Z" fill="#2F9FEE"/>
<path d="M166.221 168.646C166.136 165.581 164.022 163.29 160.969 163.15C158.43 163.031 155.878 163.035 153.339 163.141C150.192 163.278 148.104 165.555 148.057 168.748C148.023 171.03 148.027 173.311 148.057 175.593C148.1 178.905 150.307 181.213 153.599 181.315C155.98 181.387 158.37 181.404 160.752 181.306C163.946 181.178 166.153 178.841 166.225 175.649C166.251 174.533 166.225 173.422 166.225 172.307C166.225 171.085 166.251 169.868 166.221 168.646ZM157.222 176.53C154.299 176.53 152.837 175.054 152.837 172.102C152.837 169.301 154.262 167.901 157.112 167.901C160.003 167.901 161.449 169.342 161.449 172.226C161.449 175.109 160.04 176.544 157.222 176.53Z" fill="#2F9FEE"/>
<path d="M211.881 163.146C210.562 163.052 209.231 163.129 207.909 163.129V163.099C206.743 163.099 205.574 163.06 204.413 163.107C201.151 163.239 198.948 165.368 198.82 168.624C198.727 171.008 198.727 173.401 198.82 175.785C198.952 179.016 201.21 181.225 204.425 181.319C206.756 181.387 209.091 181.383 211.421 181.319C214.343 181.238 216.606 179.339 216.899 176.56C217.205 173.66 217.205 170.727 216.899 167.824C216.618 165.18 214.556 163.337 211.885 163.15L211.881 163.146ZM211.026 176.538C208.959 176.517 206.888 176.517 204.821 176.538C203.936 176.547 203.575 176.121 203.588 175.274C203.6 174.214 203.588 173.15 203.588 172.09C203.588 169.3 204.974 167.905 207.747 167.905C208.861 167.905 209.975 167.926 211.085 167.901C211.902 167.879 212.23 168.267 212.23 169.05C212.221 171.119 212.217 173.192 212.23 175.261C212.234 176.1 211.919 176.551 211.017 176.542L211.026 176.538Z" fill="#2F9FEE"/>
<path d="M148.057 199.867C148.121 203.09 150.315 205.418 153.501 205.525C155.938 205.605 158.379 205.61 160.811 205.52C163.848 205.405 166.123 203.119 166.208 200.127C166.281 197.636 166.285 195.137 166.208 192.647C166.115 189.761 163.92 187.487 161.071 187.377C158.426 187.275 155.767 187.27 153.122 187.381C150.324 187.496 148.189 189.748 148.07 192.545C148.014 193.818 148.061 195.091 148.061 196.363H148.049C148.049 197.53 148.027 198.696 148.049 199.863L148.057 199.867ZM157.184 192.111C160.027 192.111 161.449 193.513 161.449 196.317C161.449 199.279 159.991 200.761 157.073 200.761C154.249 200.761 152.837 199.35 152.837 196.529C152.837 193.586 154.286 192.115 157.184 192.115V192.111Z" fill="#2F9FEE"/>
<path d="M148.057 224.068C148.121 227.295 150.294 229.628 153.484 229.743C155.921 229.832 158.362 229.832 160.794 229.743C163.84 229.628 166.119 227.35 166.208 224.366C166.285 221.876 166.285 219.377 166.208 216.887C166.119 213.996 163.946 211.718 161.088 211.604C158.443 211.493 155.785 211.493 153.139 211.604C150.269 211.727 148.159 214.004 148.066 216.912C148.023 218.185 148.057 219.458 148.057 220.731H148.049C148.049 221.846 148.032 222.961 148.049 224.072L148.057 224.068ZM157.226 216.35C160.042 216.35 161.449 217.761 161.449 220.582C161.449 223.51 159.976 224.975 157.031 224.975C154.232 224.975 152.833 223.553 152.833 220.709C152.833 217.803 154.296 216.35 157.222 216.35H157.226Z" fill="#2F9FEE"/>
<path d="M173.456 175.836C173.592 178.973 175.773 181.195 178.925 181.306C181.306 181.391 183.696 181.387 186.078 181.306C189.276 181.2 191.534 178.918 191.628 175.712C191.696 173.328 191.709 170.936 191.62 168.552C191.505 165.478 189.331 163.252 186.274 163.133C183.684 163.031 181.077 163.026 178.487 163.163C175.714 163.307 173.664 165.432 173.481 168.199C173.392 169.518 173.464 170.851 173.464 172.175H173.438C173.438 173.397 173.396 174.618 173.447 175.836H173.456ZM182.45 167.901C185.388 167.901 186.856 169.375 186.856 172.324C186.856 175.128 185.463 176.53 182.676 176.53C179.71 176.53 178.227 175.071 178.227 172.154C178.227 169.318 179.634 167.901 182.446 167.901H182.45Z" fill="#2F9FEE"/>
<path d="M191.62 192.757C191.501 189.62 189.226 187.445 186.1 187.343C184.935 187.304 183.77 187.338 182.604 187.334C181.384 187.334 180.167 187.3 178.947 187.338C175.778 187.436 173.571 189.577 173.465 192.753C173.384 195.193 173.384 197.636 173.465 200.071C173.567 203.2 175.817 205.431 178.947 205.52C181.328 205.588 183.719 205.588 186.1 205.52C189.213 205.426 191.497 203.192 191.62 200.071C191.714 197.636 191.714 195.188 191.62 192.753V192.757ZM182.4 200.761C179.622 200.761 178.232 199.364 178.232 196.572C178.232 195.563 178.288 194.55 178.22 193.549C178.139 192.408 178.636 192.034 179.712 192.102C180.665 192.162 181.622 192.115 182.575 192.115C185.43 192.115 186.857 193.527 186.857 196.35C186.857 199.293 185.372 200.765 182.4 200.765V200.761Z" fill="#2F9FEE"/>
<path d="M207.394 228.155C208.308 227.393 208.542 226.401 208.066 225.315C207.475 223.966 206.263 223.855 205.004 223.898C203.715 223.864 202.388 223.825 201.729 225.226C201.236 226.269 201.385 227.295 202.291 228.095C203.26 228.955 206.386 228.998 207.394 228.151V228.155Z" fill="#404041"/>
<path d="M260.21 228.036C261.162 227.099 261.29 226.018 260.516 224.898C259.818 223.889 258.751 223.868 257.675 223.893C256.565 223.885 255.421 223.796 254.651 224.847C253.847 225.945 253.945 227.027 254.876 227.993C255.872 229.023 259.176 229.053 260.21 228.036Z" fill="#404041"/>
<path d="M233.634 199.058C233.524 197.504 232.528 196.474 231.18 196.499C229.798 196.525 228.909 197.521 228.858 199.139C228.837 199.875 228.816 200.625 228.909 201.353C229.067 202.557 229.866 203.221 231.027 203.336C232.133 203.443 232.945 202.902 233.404 201.876C233.672 201.28 233.651 200.642 233.638 200.007C233.638 199.692 233.655 199.373 233.638 199.058H233.634Z" fill="#404041"/>
<path d="M228.901 254.046C229.054 255.259 229.811 255.936 230.989 256.051C232.163 256.166 233.065 255.647 233.435 254.493C233.813 253.318 233.8 252.088 233.46 250.913C233.103 249.687 232.159 249.112 230.917 249.278C229.76 249.432 229.02 250.147 228.892 251.36C228.85 251.777 228.884 252.203 228.884 252.624H228.892C228.892 253.097 228.841 253.578 228.901 254.046Z" fill="#404041"/>
<path d="M249.123 210.748C250.62 210.748 252.989 208.36 252.963 206.878C252.942 205.533 251.858 204.516 250.492 204.558C248.966 204.609 246.678 207.01 246.746 208.496C246.801 209.769 247.834 210.748 249.123 210.744V210.748Z" fill="#404041"/>
<path d="M246.945 245.132C247.506 246.286 248.45 247.192 249.556 247.801C251.074 248.631 252.907 247.473 252.958 245.754C253.009 244.2 250.56 241.795 248.995 241.858C247.336 241.927 246.218 243.642 246.945 245.132Z" fill="#404041"/>
<path d="M211.901 204.558C210.54 204.537 209.49 205.571 209.494 206.925C209.498 208.441 211.842 210.756 213.352 210.744C214.717 210.731 215.733 209.671 215.686 208.304C215.64 206.891 213.305 204.579 211.897 204.558H211.901Z" fill="#404041"/>
<path d="M213.296 241.858C211.782 241.875 209.469 244.234 209.494 245.732C209.52 247.031 210.502 248.01 211.799 248.035C213.292 248.065 215.674 245.741 215.687 244.238C215.699 242.867 214.67 241.846 213.292 241.858H213.296Z" fill="#404041"/>
</g>
<defs>
<clipPath id="clip0_1161_201">
<rect width="163" height="147" fill="white" transform="translate(108 119)"/>
</clipPath>
</defs>
</svg>
