<svg width="367" height="413" viewBox="0 0 367 413" fill="none" xmlns="http://www.w3.org/2000/svg">
<g opacity="0.7">
<path d="M183.7 367C82.609 367 0.398438 284.756 0.398438 183.699C0.398438 82.6413 82.6423 0.397461 183.7 0.397461C284.757 0.397461 367.001 82.6413 367.001 183.699C367.001 284.756 284.823 367 183.7 367ZM183.7 2.98032C84.0754 2.98032 3.02297 84.0327 3.02297 183.665C3.02297 283.298 84.1087 364.35 183.7 364.35C283.29 364.35 364.384 283.298 364.384 183.665C364.384 84.0327 283.365 2.98032 183.7 2.98032Z" fill="#E0E0E0"/>
<path d="M183.7 330.598C102.681 330.598 36.7676 264.684 36.7676 183.665C36.7676 102.646 102.714 36.7327 183.7 36.7327C264.686 36.7327 330.666 102.654 330.666 183.665C330.666 264.676 264.753 330.598 183.7 330.598ZM183.7 39.3822C104.147 39.3822 39.4171 104.104 39.4171 183.665C39.4171 263.226 104.181 327.94 183.7 327.94C263.219 327.94 327.983 263.218 327.983 183.665C327.983 104.112 263.294 39.3822 183.7 39.3822Z" fill="#E0E0E0"/>
<path d="M183.701 294.196C122.753 294.196 73.1699 244.613 73.1699 183.665C73.1699 122.718 122.786 73.1345 183.701 73.1345C244.615 73.1345 294.231 122.718 294.231 183.665C294.231 244.613 244.682 294.196 183.701 294.196ZM183.701 75.7841C155.105 75.826 127.692 87.2065 107.475 107.43C87.2579 127.654 75.8858 155.069 75.8528 183.665C75.8528 243.146 124.253 291.546 183.734 291.546C212.35 291.546 239.794 280.178 260.029 259.944C280.264 239.709 291.632 212.265 291.632 183.648C291.632 155.032 280.264 127.588 260.029 107.353C239.794 87.1185 212.35 75.7507 183.734 75.7507L183.701 75.7841Z" fill="#E0E0E0"/>
<path d="M183.699 257.794C169.032 257.794 154.696 253.445 142.501 245.297C130.307 237.149 120.802 225.567 115.19 212.018C109.577 198.468 108.109 183.558 110.97 169.174C113.831 154.789 120.893 141.576 131.264 131.206C141.635 120.835 154.848 113.773 169.232 110.912C183.616 108.05 198.526 109.519 212.076 115.131C225.626 120.744 237.207 130.248 245.355 142.443C253.503 154.637 257.852 168.974 257.852 183.64C257.837 203.302 250.019 222.155 236.116 236.058C222.213 249.961 203.361 257.779 183.699 257.794ZM183.699 112.186C169.561 112.186 155.742 116.378 143.987 124.233C132.232 132.087 123.071 143.25 117.661 156.311C112.25 169.373 110.835 183.745 113.593 197.61C116.351 211.476 123.159 224.212 133.155 234.209C143.152 244.205 155.888 251.013 169.754 253.771C183.619 256.529 197.991 255.114 211.052 249.703C224.114 244.293 235.277 235.132 243.131 223.377C250.986 211.622 255.178 197.803 255.178 183.665C255.156 164.715 247.618 146.546 234.218 133.146C220.817 119.746 202.649 112.208 183.699 112.186Z" fill="#E0E0E0"/>
<path d="M183.699 221.392C176.238 221.392 168.944 219.179 162.74 215.034C156.535 210.888 151.7 204.996 148.844 198.103C145.989 191.209 145.242 183.624 146.698 176.305C148.153 168.987 151.746 162.265 157.023 156.988C162.299 151.712 169.021 148.119 176.339 146.664C183.658 145.208 191.243 145.955 198.137 148.81C205.03 151.666 210.923 156.501 215.068 162.705C219.213 168.91 221.426 176.204 221.426 183.665C221.415 193.668 217.437 203.257 210.364 210.33C203.291 217.403 193.702 221.381 183.699 221.392ZM183.699 148.588C176.762 148.588 169.98 150.645 164.212 154.5C158.443 158.354 153.947 163.832 151.292 170.242C148.637 176.651 147.943 183.704 149.296 190.509C150.65 197.313 153.99 203.563 158.896 208.469C163.802 213.374 170.052 216.715 176.856 218.069C183.66 219.422 190.713 218.727 197.123 216.072C203.532 213.418 209.011 208.922 212.865 203.153C216.719 197.385 218.777 190.603 218.777 183.665C218.766 174.366 215.066 165.45 208.491 158.874C201.915 152.298 192.999 148.599 183.699 148.588Z" fill="#E0E0E0"/>
</g>
<path d="M184.692 320.385C258.529 320.385 318.385 260.529 318.385 186.692C318.385 112.856 258.529 53 184.692 53C110.856 53 51 112.856 51 186.692C51 260.529 110.856 320.385 184.692 320.385Z" fill="white" stroke="#2F9FEE" stroke-width="6" stroke-miterlimit="10"/>
<g clip-path="url(#clip0_1161_198)">
<path d="M256.641 184.891C250.514 178.742 244.384 172.601 238.223 166.486C236.108 164.387 233.599 164.417 231.476 166.527C225.357 172.616 219.257 178.723 213.154 184.827C212.128 185.852 211.47 187.005 212.071 188.499C212.673 189.993 213.941 190.383 215.398 190.394C217.38 190.405 219.367 190.492 221.339 190.364C222.678 190.277 222.928 190.742 222.924 191.99C222.886 212.929 222.898 233.865 222.898 254.804C222.898 257.414 223.461 257.996 226.001 257.996C231.9 257.996 237.796 257.996 243.695 257.996C246.291 257.996 246.832 257.448 246.836 254.831C246.836 246.53 246.836 238.233 246.836 229.932C246.836 217.199 246.847 204.466 246.813 191.733C246.813 190.715 247.006 190.318 248.119 190.367C250.189 190.462 252.27 190.379 254.347 190.398C255.994 190.413 257.288 189.864 257.999 188.291V186.593C257.549 186.022 257.152 185.398 256.641 184.888V184.891ZM251.543 186.155C250.367 186.155 249.171 186.155 247.971 186.155C244.043 186.162 242.579 187.607 242.575 191.528C242.571 211.708 242.56 231.891 242.602 252.07C242.602 253.386 242.359 253.833 240.937 253.795C236.789 253.685 232.634 253.712 228.483 253.787C227.348 253.806 227.113 253.469 227.117 252.388C227.151 232.065 227.14 211.746 227.147 191.422C227.147 190.227 227.098 189.055 226.406 188.03C225.675 186.956 224.653 186.298 223.344 186.257C221.622 186.204 219.901 186.245 218.175 186.245C218.16 186.113 218.141 185.984 218.126 185.852C223.461 180.52 228.797 175.191 234.121 169.848C234.564 169.405 234.863 169.088 235.472 169.704C240.815 175.097 246.193 180.459 251.555 185.837C251.574 185.856 251.555 185.924 251.536 186.151L251.543 186.155Z" fill="#404041"/>
<path d="M254.803 118C214.884 118.026 174.969 118.023 135.051 118.023C134.438 118.023 133.824 118.03 133.211 118.061C119.804 118.703 110.249 131.83 113.746 144.797C116.372 154.528 124.712 160.703 135.323 160.715C153.252 160.734 171.181 160.719 189.114 160.719C191.43 160.719 192.422 160.072 192.425 158.578C192.425 157.084 191.434 156.441 189.118 156.441C175.764 156.441 162.414 156.441 149.059 156.441H147.338C157.687 148.277 159.258 132.011 147.481 122.266H148.863C183.4 122.266 217.938 122.27 252.479 122.239C253.539 122.239 253.789 122.489 253.785 123.544C253.74 134.012 253.732 144.484 253.793 154.951C253.8 156.203 253.49 156.472 252.264 156.468C235.277 156.422 218.29 156.438 201.307 156.441C200.697 156.441 200.073 156.441 199.479 156.555C198.404 156.767 197.867 157.531 197.871 158.582C197.871 159.633 198.423 160.378 199.494 160.601C199.997 160.703 200.523 160.715 201.042 160.715C218.971 160.719 236.9 160.711 254.833 160.737C256.127 160.737 257.206 160.48 258.012 159.429V119.248C257.168 118.234 256.093 118 254.803 118ZM151.53 139.193C151.598 148.734 143.955 156.392 134.316 156.438C125.049 156.483 117.322 148.764 117.295 139.435C117.269 129.878 124.932 122.266 134.57 122.266C143.792 122.266 151.466 129.924 151.53 139.189V139.193Z" fill="#2F9FEE"/>
<path d="M204.772 171.829C186.374 171.829 167.979 171.825 149.581 171.844C148.733 171.844 148.086 171.621 147.405 171.107C142.414 167.325 136.798 165.933 130.63 167.03C121.843 168.588 114.994 175.418 113.386 184.12C111.785 192.795 115.698 201.561 123.243 206.209C130.728 210.819 140.385 210.331 147.367 204.942C148.09 204.382 148.79 204.178 149.679 204.178C156.756 204.205 163.832 204.193 170.908 204.193C171.332 204.193 171.763 204.22 172.18 204.163C173.254 204.023 173.879 203.388 173.981 202.314C174.083 201.247 173.614 200.51 172.596 200.117C172.047 199.905 171.483 199.95 170.92 199.95C165.119 199.95 159.314 199.95 153.513 199.943C153.123 199.943 152.695 200.075 152.298 199.784C156.956 191.918 156.952 184.082 152.203 176.08C169.262 176.08 186.101 176.087 202.937 176.061C203.875 176.061 203.864 176.522 203.86 177.196C203.849 184.407 203.83 191.623 203.879 198.835C203.887 199.841 203.516 199.977 202.657 199.969C198.79 199.931 194.922 199.954 191.055 199.954C187.99 199.954 184.921 199.916 181.856 199.969C179.869 200.003 178.825 201.694 179.759 203.225C180.308 204.118 181.159 204.208 182.098 204.208C189.738 204.197 197.382 204.205 205.022 204.201C207.512 204.201 208.099 203.615 208.099 201.119C208.099 192.493 208.099 183.863 208.099 175.237C208.099 172.31 207.641 171.841 204.772 171.841V171.829ZM134.187 205.082C124.821 205.033 117.234 197.284 117.291 187.826C117.348 178.583 125.041 170.918 134.263 170.914C143.867 170.91 151.571 178.591 151.526 188.117C151.481 197.568 143.75 205.131 134.183 205.082H134.187Z" fill="#2F9FEE"/>
<path d="M189.538 226.025C177.747 226.025 165.955 226.018 154.16 226.041C153.335 226.041 152.832 225.851 152.332 225.11C148.223 218.999 142.486 215.679 135.092 215.35C121.511 214.748 110.631 227.557 113.447 240.823C115.267 249.397 121.927 256.075 130.192 257.611C139.035 259.252 147.451 255.705 152.34 248.209C152.824 247.464 153.328 247.252 154.164 247.26C157.748 247.301 161.335 247.279 164.918 247.279C165.202 247.279 165.486 247.279 165.766 247.279C167.507 247.252 168.529 246.451 168.502 245.127C168.476 243.807 167.473 243.043 165.694 243.036C162.485 243.024 159.28 242.998 156.071 243.051C155.012 243.07 154.838 242.839 155.121 241.78C156.026 238.399 156.026 234.962 155.133 231.581C154.838 230.461 155.015 230.235 156.147 230.246C161.335 230.299 166.523 230.269 171.711 230.269C176.899 230.269 182.087 230.295 187.275 230.246C188.297 230.235 188.656 230.443 188.63 231.551C188.55 234.848 188.535 238.153 188.634 241.447C188.671 242.752 188.308 243.096 187.014 243.062C183.48 242.971 179.938 243.013 176.403 243.039C174.795 243.051 173.925 243.811 173.898 245.112C173.868 246.477 174.753 247.23 176.449 247.275C176.589 247.279 176.732 247.275 176.873 247.275C181.213 247.275 185.553 247.279 189.89 247.275C192.172 247.275 192.842 246.602 192.845 244.34C192.849 239.345 192.845 234.345 192.845 229.35C192.845 226.6 192.278 226.029 189.534 226.029L189.538 226.025ZM134.505 253.746C125.083 253.806 117.337 246.178 117.292 236.8C117.246 227.315 124.909 219.581 134.373 219.555C143.758 219.528 151.492 227.217 151.526 236.599C151.557 246.016 143.947 253.685 134.505 253.746Z" fill="#2F9FEE"/>
<path d="M137.029 127.076C135.311 126.8 133.547 126.842 131.818 127.061C130.706 127.205 130.062 128.044 130.108 129.156C130.157 130.313 130.827 131.051 132.053 131.194C132.832 131.285 133.918 130.82 134.316 131.448C134.705 132.06 134.471 133.078 134.49 133.921C134.505 134.674 134.49 135.43 134.49 136.183C134.49 140.566 134.475 144.949 134.497 149.328C134.505 150.943 135.614 151.971 136.961 151.661C138.285 151.359 138.739 150.402 138.736 149.135C138.728 145.883 138.736 142.63 138.736 139.382C138.736 136.133 138.732 132.877 138.736 129.629C138.736 128.381 138.368 127.292 137.021 127.076H137.029Z" fill="#404041"/>
<path d="M140.504 196.377C139.967 196.248 139.384 196.282 138.82 196.278C137.144 196.267 135.471 196.274 133.621 196.274C135.562 193.536 137.408 190.942 139.236 188.337C140.22 186.934 140.913 185.41 141.189 183.7C141.806 179.918 139.104 176.193 135.255 175.573C131.237 174.923 127.271 177.596 126.696 181.367C126.518 182.543 127.01 183.428 128.164 183.772C129.303 184.112 130.203 183.7 130.714 182.588C130.888 182.206 130.972 181.779 131.161 181.405C131.891 179.949 133.602 179.325 135.142 179.934C136.602 180.512 137.28 181.896 136.92 183.488C136.674 184.574 136.099 185.489 135.467 186.366C133.155 189.577 130.813 192.765 128.493 195.968C128.137 196.46 127.748 196.963 127.536 197.522C126.942 199.103 127.664 200.363 129.341 200.412C132.97 200.518 136.602 200.499 140.235 200.461C141.389 200.45 142.052 199.636 142.135 198.544C142.222 197.432 141.613 196.641 140.508 196.377H140.504Z" fill="#404041"/>
<path d="M140.269 235.813C141.283 234.644 141.726 233.196 141.737 232.076C141.866 227.939 139.198 224.721 135.573 224.184C131.804 223.628 128.277 225.882 127.312 229.463C126.942 230.836 127.441 232.012 128.55 232.394C129.787 232.817 130.851 232.209 131.377 230.772C131.441 230.594 131.456 230.401 131.528 230.227C132.141 228.801 133.598 228.071 135.119 228.419C136.583 228.756 137.53 229.985 137.495 231.501C137.461 233.01 136.478 234.16 134.96 234.451C134.544 234.531 134.112 234.561 133.711 234.686C132.92 234.935 132.466 235.529 132.326 236.323C132.183 237.132 132.5 237.794 133.121 238.324C133.624 238.751 134.264 238.728 134.858 238.838C136.254 239.099 137.159 239.882 137.427 241.292C137.768 243.081 136.674 244.658 134.949 244.934C133.057 245.237 131.687 244.166 131.312 242.09C131.006 240.407 130.154 239.609 128.864 239.799C127.573 239.988 126.934 241.058 127.119 242.699C127.471 245.796 129.753 248.391 132.716 249.071C135.69 249.756 138.824 248.519 140.515 245.997C142.237 243.425 142.195 240.022 140.303 237.537C139.8 236.875 139.668 236.497 140.269 235.801V235.813Z" fill="#404041"/>
</g>
<circle cx="185" cy="322" r="16" fill="#2F9FEE"/>
<circle cx="185" cy="355" r="8" fill="#2F9FEE"/>
<circle cx="185" cy="380" r="8" fill="#2F9FEE"/>
<circle cx="185" cy="405" r="8" fill="#2F9FEE"/>
<defs>
<clipPath id="clip0_1161_198">
<rect width="145" height="140" fill="white" transform="translate(113 118)"/>
</clipPath>
</defs>
</svg>
