<svg width="367" height="418" viewBox="0 0 367 418" fill="none" xmlns="http://www.w3.org/2000/svg">
<g opacity="0.7">
<path d="M183.301 366.602C82.2106 366.602 0 284.358 0 183.301C0 82.2439 82.2439 0 183.301 0C284.358 0 366.602 82.2439 366.602 183.301C366.602 284.358 284.425 366.602 183.301 366.602ZM183.301 2.58286C83.677 2.58286 2.62453 83.6353 2.62453 183.268C2.62453 282.9 83.7103 363.953 183.301 363.953C282.892 363.953 363.986 282.9 363.986 183.268C363.986 83.6353 282.967 2.58286 183.301 2.58286Z" fill="#E0E0E0"/>
<path d="M183.302 330.2C102.283 330.2 36.3691 264.287 36.3691 183.268C36.3691 102.249 102.316 36.3352 183.302 36.3352C264.287 36.3352 330.268 102.257 330.268 183.268C330.268 264.279 264.354 330.2 183.302 330.2ZM183.302 38.9848C103.749 38.9848 39.0187 103.707 39.0187 183.268C39.0187 262.829 103.782 327.542 183.302 327.542C262.821 327.542 327.585 262.82 327.585 183.268C327.585 103.715 262.896 38.9848 183.302 38.9848Z" fill="#E0E0E0"/>
<path d="M183.302 293.798C122.354 293.798 72.7715 244.215 72.7715 183.268C72.7715 122.32 122.388 72.7371 183.302 72.7371C244.216 72.7371 293.833 122.32 293.833 183.268C293.833 244.215 244.283 293.798 183.302 293.798ZM183.302 75.3866C154.706 75.4285 127.294 86.8091 107.077 107.033C86.8595 127.256 75.4874 154.672 75.4543 183.268C75.4543 242.749 123.854 291.149 183.335 291.149C211.952 291.149 239.396 279.781 259.631 259.546C279.865 239.311 291.233 211.867 291.233 183.251C291.233 154.635 279.865 127.191 259.631 106.956C239.396 86.7211 211.952 75.3533 183.335 75.3533L183.302 75.3866Z" fill="#E0E0E0"/>
<path d="M183.3 257.396C168.634 257.396 154.297 253.048 142.103 244.899C129.908 236.751 120.404 225.17 114.791 211.62C109.179 198.07 107.71 183.161 110.571 168.776C113.433 154.392 120.495 141.179 130.866 130.808C141.236 120.438 154.449 113.375 168.834 110.514C183.218 107.653 198.128 109.121 211.678 114.734C225.227 120.346 236.809 129.851 244.957 142.045C253.105 154.24 257.454 168.577 257.454 183.243C257.438 202.905 249.621 221.757 235.718 235.66C221.815 249.564 202.962 257.381 183.3 257.396ZM183.3 111.789C169.163 111.789 155.343 115.981 143.588 123.835C131.834 131.689 122.672 142.853 117.262 155.914C111.852 168.975 110.436 183.347 113.194 197.213C115.953 211.078 122.76 223.815 132.757 233.811C142.753 243.808 155.49 250.616 169.355 253.374C183.221 256.132 197.593 254.716 210.654 249.306C223.715 243.896 234.879 234.734 242.733 222.98C250.587 211.225 254.779 197.405 254.779 183.268C254.757 164.317 247.219 146.149 233.819 132.749C220.419 119.349 202.251 111.811 183.3 111.789Z" fill="#E0E0E0"/>
<path d="M183.301 220.995C175.839 220.995 168.545 218.782 162.341 214.637C156.137 210.491 151.301 204.599 148.446 197.705C145.591 190.812 144.843 183.226 146.299 175.908C147.755 168.59 151.348 161.867 156.624 156.591C161.9 151.315 168.623 147.722 175.941 146.266C183.259 144.81 190.845 145.558 197.738 148.413C204.632 151.268 210.524 156.104 214.67 162.308C218.815 168.512 221.028 175.806 221.028 183.268C221.017 193.27 217.038 202.86 209.966 209.933C202.893 217.005 193.303 220.984 183.301 220.995ZM183.301 148.191C176.363 148.191 169.582 150.248 163.813 154.102C158.045 157.957 153.549 163.435 150.894 169.845C148.239 176.254 147.544 183.307 148.898 190.111C150.251 196.916 153.592 203.166 158.498 208.071C163.403 212.977 169.653 216.318 176.458 217.671C183.262 219.025 190.315 218.33 196.724 215.675C203.134 213.02 208.612 208.524 212.467 202.756C216.321 196.987 218.378 190.206 218.378 183.268C218.367 173.968 214.668 165.053 208.092 158.477C201.516 151.901 192.601 148.202 183.301 148.191Z" fill="#E0E0E0"/>
</g>
<g clip-path="url(#clip0_1161_202)">
<path d="M183.999 318.295C257.835 318.295 317.692 258.439 317.692 184.603C317.692 110.766 257.835 50.9102 183.999 50.9102C110.163 50.9102 50.3066 110.766 50.3066 184.603C50.3066 258.439 110.163 318.295 183.999 318.295Z" fill="white" stroke="#2F9FEE" stroke-width="6" stroke-miterlimit="10"/>
<g clip-path="url(#clip1_1161_202)">
<path d="M302.664 146.577C303.074 147.04 303.029 147.584 302.936 148.132L302.802 148.087L302.664 148.096V146.577Z" fill="#555555"/>
<path d="M200.549 240.665C205.054 240.713 209.584 240.994 214.057 240.6C218.469 240.21 221.566 241.611 224.549 244.897C229.883 250.777 235.683 256.236 241.337 261.82C243.756 264.208 247.166 264.622 249.999 263.046C252.787 261.495 254.179 258.408 253.587 255.184C253.197 253.056 251.776 251.63 250.323 250.205C247.202 247.134 244.093 244.044 240.7 240.681C242.928 240.681 244.73 240.681 246.532 240.681C251.898 240.681 254.784 237.801 254.784 232.445C254.784 199.024 254.784 165.6 254.784 132.179C254.784 126.904 251.89 123.992 246.638 123.992C203.467 124 160.293 124 117.122 124C111.955 124 109 126.928 109 132.062C109 165.584 109 199.105 109 232.627C109 237.753 111.955 240.685 117.122 240.685C132.306 240.685 147.491 240.685 162.675 240.685H164.323L200.549 240.665ZM249.909 233.237C249.901 234.845 248.956 235.791 247.352 235.807C243.813 235.848 240.269 235.811 236.73 235.832C236.19 235.832 235.784 235.698 235.391 235.304C229.172 229.086 222.942 222.88 216.415 216.378C227.581 216.378 238.301 216.386 249.02 216.362C249.759 216.362 249.946 216.581 249.942 217.296C249.913 222.608 249.942 227.924 249.913 233.241L249.909 233.237ZM113.83 141.752C113.928 138.466 113.854 135.173 113.863 131.883C113.871 129.71 114.715 128.869 116.903 128.865C160.215 128.865 203.524 128.865 246.837 128.865C249.098 128.865 249.922 129.702 249.926 131.989C249.934 135.331 249.869 138.673 249.958 142.012C249.991 143.218 249.641 143.478 248.477 143.478C226.266 143.441 204.052 143.449 181.841 143.449C159.631 143.449 137.619 143.433 115.511 143.486C114.086 143.486 113.794 143.08 113.83 141.752ZM113.83 149.83C113.83 148.563 114.126 148.278 115.385 148.278C159.724 148.315 204.06 148.315 248.399 148.278C249.641 148.278 249.966 148.542 249.962 149.822C249.913 169.876 249.917 189.927 249.962 209.982C249.962 211.22 249.71 211.557 248.424 211.549C236.633 211.492 224.837 211.505 213.046 211.533C212.064 211.533 211.402 211.204 210.652 210.579C208.208 208.556 206.767 206.067 206.317 202.911C205.265 195.536 200.943 191.539 193.616 190.341C189.139 189.61 184.756 188.339 180.323 187.336C178.18 186.853 176.674 188.306 177.157 190.422C178.375 195.791 179.654 201.148 180.879 206.513C181.277 208.256 182.016 209.831 183.173 211.513H177.486C156.786 211.513 136.085 211.501 115.381 211.545C114.11 211.545 113.83 211.237 113.834 209.986C113.879 189.931 113.879 169.88 113.834 149.826L113.83 149.83ZM202.047 208.292C201.929 208.386 201.836 208.511 201.726 208.613C200.281 209.941 199.067 211.517 197.468 212.682C194.761 211.903 191.907 211.602 189.338 210.392C187.406 209.482 186.209 207.858 185.705 205.79C184.743 201.818 183.846 197.83 182.909 193.854C182.767 193.249 182.73 192.81 183.347 193.001C187.739 194.041 191.932 194.947 196.072 196.051C198.471 196.693 200.05 198.403 200.74 200.807C201.336 202.891 201.795 205.015 202.375 207.102C202.522 207.634 202.436 207.971 202.043 208.292H202.047ZM170.598 240.661C178.131 240.713 185.665 240.693 193.202 240.681L170.598 240.661ZM213.517 235.824C181.484 235.824 149.451 235.824 117.422 235.824C114.528 235.824 113.863 235.153 113.863 232.258C113.863 227.348 113.887 222.434 113.838 217.523C113.83 216.597 114.045 216.35 114.995 216.354C140.497 216.382 166.003 216.333 191.506 216.439C194.27 216.451 196.936 217.215 199.108 219.505C204.295 224.976 209.73 230.211 215.344 235.824H213.517ZM214.11 223.762C212.776 225.077 211.458 225.084 210.156 223.782C207.62 221.244 205.107 218.689 202.538 216.187C201.917 215.582 201.888 215.225 202.546 214.656C203.459 213.864 204.218 212.406 205.176 212.288C206.191 212.163 206.95 213.726 207.802 214.563C210.152 216.857 212.454 219.197 214.771 221.524C215.015 221.767 215.238 222.036 215.656 222.499C215.124 222.933 214.576 223.307 214.11 223.766V223.762ZM247.689 258.75C246.821 259.233 245.94 259.229 245.124 258.656C244.714 258.368 244.357 257.998 244.004 257.645C234.851 248.491 225.714 239.32 216.529 230.203C215.668 229.346 215.725 228.923 216.553 228.127C219.017 225.76 218.984 225.723 221.395 228.14C230.118 236.867 238.837 245.595 247.563 254.315C248.217 254.969 248.854 255.61 248.891 256.756C248.838 257.515 248.521 258.287 247.693 258.75H247.689Z" fill="#2F9FEE"/>
<path d="M180.056 172.618C200.744 172.622 221.436 172.622 242.125 172.618C244.191 172.618 245.059 171.732 245.067 169.653C245.08 165.251 245.076 160.848 245.067 156.442C245.067 153.956 244.292 153.176 241.816 153.176C231.547 153.176 221.278 153.176 211.009 153.176C200.74 153.176 190.471 153.176 180.202 153.176C177.831 153.176 177.036 153.98 177.036 156.368C177.032 160.771 177.028 165.173 177.036 169.58C177.04 171.761 177.888 172.622 180.052 172.622L180.056 172.618ZM181.866 159.492C181.817 158.322 182.122 158.001 183.327 158.005C200.131 158.05 216.935 158.034 233.739 158.034C235.561 158.034 237.384 158.07 239.206 158.017C239.982 157.997 240.245 158.188 240.229 159.012C240.172 161.494 240.152 163.975 240.237 166.457C240.274 167.509 240.01 167.793 238.926 167.789C229.615 167.74 220.3 167.76 210.989 167.76C201.678 167.76 192.464 167.74 183.201 167.785C182.158 167.789 181.825 167.569 181.866 166.477C181.959 164.15 181.959 161.815 181.866 159.492Z" fill="#2F9FEE"/>
<path d="M131.494 196.929C136.146 196.937 140.801 196.929 145.453 196.929C150.157 196.929 154.861 196.941 159.562 196.924C161.538 196.916 162.443 196.027 162.447 194.057C162.46 184.647 162.46 175.233 162.447 165.823C162.447 163.768 161.554 162.899 159.468 162.899C150.112 162.891 140.757 162.891 131.397 162.899C129.31 162.899 128.438 163.768 128.438 165.839C128.43 175.201 128.43 184.562 128.438 193.923C128.438 196.084 129.298 196.924 131.49 196.929H131.494ZM133.28 168.824C133.28 167.967 133.507 167.736 134.364 167.74C141.751 167.772 149.142 167.772 156.529 167.74C157.386 167.74 157.617 167.967 157.613 168.824C157.581 176.216 157.581 183.612 157.613 191.003C157.613 191.86 157.386 192.1 156.529 192.087C152.783 192.043 149.041 192.067 145.294 192.067C141.548 192.067 138.005 192.039 134.364 192.087C133.503 192.1 133.276 191.86 133.28 191.003C133.312 183.612 133.312 176.216 133.28 168.824Z" fill="#404041"/>
<path d="M230.787 182.344C234.68 182.344 238.572 182.365 242.465 182.332C244.019 182.32 245.038 181.325 245.058 179.944C245.079 178.563 244.064 177.568 242.53 177.487C242.225 177.471 241.925 177.483 241.621 177.483C229.334 177.483 217.052 177.483 204.766 177.483C204.311 177.483 203.844 177.438 203.406 177.524C202.172 177.767 201.425 178.535 201.356 179.802C201.291 181.004 201.928 181.833 203.053 182.206C203.515 182.361 204.047 182.336 204.55 182.336C210.769 182.344 216.987 182.34 223.205 182.34C225.734 182.34 228.263 182.34 230.787 182.34V182.344Z" fill="#2F9FEE"/>
<path d="M241.983 187.21C236.523 187.206 231.064 187.21 225.605 187.21C220.097 187.21 214.585 187.202 209.077 187.214C207.283 187.218 206.211 188.144 206.203 189.626C206.195 191.153 207.291 192.067 209.203 192.067C220.121 192.071 231.04 192.071 241.958 192.067C243.963 192.067 245.104 191.137 245.059 189.574C245.019 188.059 243.927 187.21 241.983 187.21Z" fill="#2F9FEE"/>
<path d="M193.567 177.487C191.294 177.471 189.025 177.487 186.752 177.487C184.479 177.487 182.206 177.475 179.937 177.487C178.143 177.499 177.068 178.401 177.043 179.875C177.019 181.358 178.099 182.336 179.86 182.34C184.455 182.357 189.05 182.357 193.644 182.34C195.406 182.332 196.49 181.358 196.465 179.875C196.441 178.401 195.365 177.499 193.571 177.487H193.567Z" fill="#2F9FEE"/>
<path d="M121.202 162.887C122.46 162.858 123.442 161.92 123.56 160.58C123.629 159.784 123.333 158.736 123.739 158.249C124.242 157.644 125.346 158.127 126.182 158.021C127.497 157.855 128.431 156.856 128.431 155.601C128.431 154.342 127.501 153.306 126.182 153.197C125.33 153.128 124.469 153.184 123.609 153.184V153.176C122.801 153.176 121.993 153.144 121.186 153.184C119.737 153.262 118.795 154.127 118.742 155.544C118.677 157.209 118.677 158.878 118.742 160.539C118.799 161.953 119.883 162.919 121.202 162.887Z" fill="#404041"/>
<path d="M165.192 158.034C166.57 158.077 167.279 158.782 167.319 160.149C167.319 160.198 167.319 160.251 167.319 160.3C167.396 161.851 168.334 162.866 169.714 162.887C171.09 162.907 172.097 161.892 172.17 160.365C172.206 159.561 172.178 158.748 172.178 157.94C172.178 153.387 171.959 153.168 167.417 153.168C166.662 153.168 165.903 153.152 165.148 153.168C163.504 153.217 162.457 154.183 162.469 155.617C162.485 157.047 163.532 157.973 165.192 158.025V158.034Z" fill="#404041"/>
<path d="M126.051 201.794C125.259 201.717 124.192 202.164 123.753 201.595C123.356 201.079 123.632 200.06 123.563 199.264C123.441 197.859 122.39 196.896 121.074 196.937C119.812 196.977 118.83 197.916 118.741 199.26C118.68 200.166 118.72 201.075 118.72 201.985C118.72 206.4 118.976 206.655 123.433 206.651C124.289 206.651 125.15 206.688 126.006 206.639C127.439 206.558 128.417 205.563 128.429 204.243C128.441 202.919 127.471 201.928 126.051 201.794Z" fill="#404041"/>
<path d="M164.705 206.627C165.558 206.7 166.418 206.639 167.279 206.639V206.647C168.086 206.647 168.894 206.68 169.702 206.639C171.147 206.562 172.097 205.693 172.153 204.284C172.218 202.618 172.222 200.949 172.153 199.288C172.097 197.871 171.017 196.908 169.698 196.937C168.435 196.965 167.453 197.899 167.335 199.235C167.266 200.031 167.567 201.079 167.165 201.571C166.662 202.18 165.562 201.696 164.726 201.798C163.398 201.96 162.477 202.943 162.469 204.21C162.465 205.469 163.386 206.513 164.709 206.623L164.705 206.627Z" fill="#404041"/>
<path d="M135.712 158.013C137.372 158.07 139.04 158.078 140.7 158.005C142.04 157.948 142.973 156.921 143.006 155.662C143.042 154.346 142.076 153.29 140.672 153.189C139.868 153.132 139.06 153.176 138.253 153.176C137.396 153.176 136.536 153.132 135.683 153.184C134.259 153.27 133.297 154.285 133.305 155.613C133.313 156.933 134.283 157.965 135.712 158.013Z" fill="#2F9FEE"/>
<path d="M150.138 158.009C150.937 158.078 151.749 158.022 152.557 158.022C153.515 158.017 154.485 158.111 155.426 157.993C156.733 157.831 157.496 156.998 157.578 155.666C157.659 154.415 156.709 153.278 155.406 153.209C153.648 153.115 151.879 153.124 150.117 153.205C148.798 153.266 147.877 154.35 147.885 155.609C147.889 156.864 148.818 157.896 150.138 158.009Z" fill="#2F9FEE"/>
<path d="M118.757 175.302C118.915 176.614 119.747 177.374 121.075 177.467C122.317 177.552 123.47 176.606 123.539 175.306C123.632 173.548 123.624 171.777 123.547 170.014C123.486 168.695 122.402 167.769 121.148 167.769C119.89 167.769 118.855 168.695 118.745 170.014C118.676 170.867 118.733 171.728 118.733 172.585C118.733 173.491 118.648 174.409 118.757 175.306V175.302Z" fill="#2F9FEE"/>
<path d="M121.21 192.059C122.468 192.027 123.458 191.092 123.556 189.748C123.617 188.895 123.568 188.034 123.568 187.177H123.572C123.572 186.369 123.613 185.561 123.564 184.757C123.479 183.327 122.48 182.357 121.161 182.348C119.838 182.34 118.791 183.307 118.742 184.732C118.681 186.393 118.677 188.063 118.746 189.724C118.803 191.129 119.899 192.096 121.214 192.059H121.21Z" fill="#2F9FEE"/>
<path d="M172.164 184.863C172.091 183.344 171.085 182.328 169.709 182.353C168.385 182.373 167.379 183.348 167.33 184.781C167.273 186.394 167.277 188.01 167.33 189.618C167.379 191.056 168.381 192.035 169.701 192.055C171.072 192.08 172.087 191.064 172.164 189.545C172.201 188.79 172.172 188.034 172.172 187.275C172.172 186.467 172.205 185.659 172.164 184.854V184.863Z" fill="#2F9FEE"/>
<path d="M172.17 172.626H172.162C172.162 171.769 172.214 170.908 172.15 170.055C172.048 168.719 171.046 167.789 169.787 167.764C168.464 167.74 167.392 168.703 167.34 170.116C167.275 171.777 167.275 173.446 167.34 175.107C167.392 176.525 168.46 177.491 169.779 177.475C171.098 177.459 172.085 176.48 172.166 175.046C172.21 174.242 172.174 173.434 172.174 172.626H172.17Z" fill="#2F9FEE"/>
<path d="M140.746 201.814C139.893 201.745 139.033 201.802 138.176 201.802C137.32 201.802 136.459 201.749 135.607 201.814C134.267 201.912 133.338 202.903 133.306 204.162C133.273 205.421 134.178 206.546 135.489 206.615C137.247 206.708 139.016 206.704 140.778 206.619C142.093 206.558 143.014 205.461 143.006 204.206C142.998 202.947 142.073 201.924 140.746 201.818V201.814Z" fill="#2F9FEE"/>
<path d="M155.332 201.822C153.623 201.745 151.906 201.749 150.193 201.818C148.854 201.871 147.92 202.891 147.884 204.154C147.847 205.47 148.809 206.534 150.21 206.635C151.062 206.696 151.922 206.647 152.779 206.647V206.655C153.534 206.655 154.289 206.655 155.048 206.655C155.149 206.655 155.251 206.655 155.348 206.643C156.659 206.481 157.589 205.47 157.585 204.219C157.581 202.964 156.651 201.887 155.332 201.827V201.822Z" fill="#2F9FEE"/>
<path d="M121.006 138.576C122.366 138.657 123.551 137.548 123.567 136.18C123.583 134.872 122.52 133.767 121.209 133.731C119.898 133.694 118.782 134.738 118.725 136.05C118.668 137.353 119.699 138.499 121.006 138.576Z" fill="#2F9FEE"/>
<path d="M130.846 138.58C132.153 138.592 133.257 137.524 133.289 136.216C133.322 134.909 132.275 133.788 130.964 133.735C129.657 133.682 128.52 134.71 128.447 136.021C128.37 137.386 129.474 138.568 130.846 138.58Z" fill="#2F9FEE"/>
<path d="M140.563 138.58C141.87 138.592 142.974 137.524 143.01 136.216C143.043 134.909 141.996 133.788 140.689 133.731C139.321 133.674 138.16 134.795 138.168 136.168C138.176 137.479 139.256 138.564 140.563 138.58Z" fill="#2F9FEE"/>
<path d="M186.573 221.248C185.059 221.211 183.545 221.24 182.031 221.24C180.469 221.24 178.902 221.219 177.339 221.244C175.675 221.272 174.628 222.21 174.612 223.64C174.595 225.069 175.647 226.072 177.286 226.089C180.363 226.117 183.44 226.117 186.52 226.089C188.148 226.072 189.203 225.045 189.175 223.615C189.146 222.243 188.124 221.28 186.573 221.244V221.248Z" fill="#2F9FEE"/>
</g>
</g>
<circle cx="184" cy="326.603" r="16" fill="#2F9FEE"/>
<circle cx="184" cy="359.603" r="8" fill="#2F9FEE"/>
<circle cx="184" cy="384.603" r="8" fill="#2F9FEE"/>
<circle cx="184" cy="409.603" r="8" fill="#2F9FEE"/>
<defs>
<clipPath id="clip0_1161_202">
<rect width="272" height="272" fill="white" transform="translate(48 48.6025)"/>
</clipPath>
<clipPath id="clip1_1161_202">
<rect width="194" height="141" fill="white" transform="translate(109 124)"/>
</clipPath>
</defs>
</svg>
