<svg width="367" height="418" viewBox="0 0 367 418" fill="none" xmlns="http://www.w3.org/2000/svg">
<g opacity="0.7">
<path d="M183.301 366.602C82.2106 366.602 0 284.358 0 183.301C0 82.2439 82.2439 0 183.301 0C284.358 0 366.602 82.2439 366.602 183.301C366.602 284.358 284.425 366.602 183.301 366.602ZM183.301 2.58286C83.677 2.58286 2.62453 83.6353 2.62453 183.268C2.62453 282.9 83.7103 363.953 183.301 363.953C282.892 363.953 363.986 282.9 363.986 183.268C363.986 83.6353 282.967 2.58286 183.301 2.58286Z" fill="#E0E0E0"/>
<path d="M183.302 330.2C102.283 330.2 36.3691 264.287 36.3691 183.268C36.3691 102.249 102.316 36.3352 183.302 36.3352C264.287 36.3352 330.268 102.257 330.268 183.268C330.268 264.279 264.354 330.2 183.302 330.2ZM183.302 38.9848C103.749 38.9848 39.0187 103.707 39.0187 183.268C39.0187 262.829 103.782 327.542 183.302 327.542C262.821 327.542 327.585 262.82 327.585 183.268C327.585 103.715 262.896 38.9848 183.302 38.9848Z" fill="#E0E0E0"/>
<path d="M183.302 293.798C122.354 293.798 72.7715 244.215 72.7715 183.268C72.7715 122.32 122.388 72.7371 183.302 72.7371C244.216 72.7371 293.833 122.32 293.833 183.268C293.833 244.215 244.283 293.798 183.302 293.798ZM183.302 75.3866C154.706 75.4285 127.294 86.8091 107.077 107.033C86.8595 127.256 75.4874 154.672 75.4543 183.268C75.4543 242.749 123.854 291.149 183.335 291.149C211.952 291.149 239.396 279.781 259.631 259.546C279.865 239.311 291.233 211.867 291.233 183.251C291.233 154.635 279.865 127.191 259.631 106.956C239.396 86.7211 211.952 75.3533 183.335 75.3533L183.302 75.3866Z" fill="#E0E0E0"/>
<path d="M183.3 257.396C168.634 257.396 154.297 253.047 142.103 244.899C129.908 236.751 120.404 225.17 114.791 211.62C109.179 198.07 107.71 183.16 110.571 168.776C113.433 154.392 120.495 141.179 130.866 130.808C141.236 120.438 154.449 113.375 168.834 110.514C183.218 107.653 198.128 109.121 211.678 114.734C225.227 120.346 236.809 129.851 244.957 142.045C253.105 154.24 257.454 168.577 257.454 183.243C257.438 202.905 249.621 221.757 235.718 235.66C221.815 249.563 202.962 257.381 183.3 257.396ZM183.3 111.789C169.163 111.789 155.343 115.981 143.588 123.835C131.834 131.689 122.672 142.853 117.262 155.914C111.852 168.975 110.436 183.347 113.194 197.213C115.953 211.078 122.76 223.815 132.757 233.811C142.753 243.808 155.49 250.615 169.355 253.373C183.221 256.131 197.593 254.716 210.654 249.306C223.715 243.896 234.879 234.734 242.733 222.979C250.587 211.225 254.779 197.405 254.779 183.268C254.757 164.317 247.219 146.149 233.819 132.749C220.419 119.349 202.251 111.811 183.3 111.789Z" fill="#E0E0E0"/>
<path d="M183.301 220.995C175.839 220.995 168.545 218.782 162.341 214.637C156.137 210.491 151.301 204.599 148.446 197.705C145.591 190.812 144.843 183.226 146.299 175.908C147.755 168.59 151.348 161.867 156.624 156.591C161.9 151.315 168.623 147.722 175.941 146.266C183.259 144.81 190.845 145.558 197.738 148.413C204.632 151.268 210.524 156.104 214.67 162.308C218.815 168.512 221.028 175.806 221.028 183.268C221.017 193.27 217.038 202.86 209.966 209.933C202.893 217.005 193.303 220.984 183.301 220.995ZM183.301 148.191C176.363 148.191 169.582 150.248 163.813 154.102C158.045 157.957 153.549 163.435 150.894 169.845C148.239 176.254 147.544 183.307 148.898 190.111C150.251 196.916 153.592 203.166 158.498 208.071C163.403 212.977 169.653 216.318 176.458 217.671C183.262 219.025 190.315 218.33 196.724 215.675C203.134 213.02 208.612 208.524 212.467 202.756C216.321 196.987 218.378 190.206 218.378 183.268C218.367 173.968 214.668 165.053 208.092 158.477C201.516 151.901 192.601 148.202 183.301 148.191Z" fill="#E0E0E0"/>
</g>
<g clip-path="url(#clip0_1189_999)">
<path d="M183.999 318.295C257.835 318.295 317.692 258.439 317.692 184.603C317.692 110.766 257.835 50.9102 183.999 50.9102C110.163 50.9102 50.3066 110.766 50.3066 184.603C50.3066 258.439 110.163 318.295 183.999 318.295Z" fill="white" stroke="#2F9FEE" stroke-width="6" stroke-miterlimit="10"/>
<g clip-path="url(#clip1_1189_999)">
<path d="M264.724 220.126C263.916 212.38 261.068 205.47 256.265 199.371C255.74 198.703 255.558 198.027 255.563 197.193C255.592 191.879 255.587 186.562 255.574 181.248C255.568 179.532 254.955 178.681 253.693 178.514C252.144 178.308 251.134 179.302 251.115 181.188C251.082 184.914 251.113 188.639 251.095 192.364C251.095 192.768 251.289 193.235 250.866 193.647C245.982 189.523 240.484 186.62 234.288 185.135C233.36 184.914 233.457 184.34 233.457 183.693C233.459 179.918 233.477 176.143 233.451 172.368C233.438 170.279 232.646 169.457 230.588 169.441C226.185 169.41 221.781 169.408 217.38 169.441C215.312 169.457 214.551 170.281 214.546 172.379C214.533 176.253 214.514 180.127 214.561 184.001C214.572 184.89 214.343 185.274 213.434 185.524C209.651 186.562 206.123 188.2 202.826 190.34C200.49 191.853 198.334 193.59 196.352 195.539C195.203 196.668 195.076 197.993 195.97 198.959C196.895 199.955 198.092 199.916 199.391 198.836C199.659 198.614 199.908 198.374 200.163 198.14C208.248 190.734 217.733 187.564 228.622 188.673C249.302 190.778 264.009 210.953 259.84 231.478C255.906 250.84 237.25 263.484 217.959 259.866C200.854 256.657 188.293 241.065 188.752 223.572C188.908 217.673 190.405 212.125 193.265 206.957C193.434 206.654 193.613 206.357 193.772 206.049C194.517 204.586 194.281 203.344 193.135 202.679C191.906 201.964 190.724 202.386 189.846 203.936C183.92 214.407 182.673 225.4 186.258 236.915C186.765 238.538 186.788 238.532 185.05 238.532C163.084 238.532 141.118 238.514 119.154 238.574C117.655 238.579 117.434 238.138 117.442 236.772C117.502 225.695 117.476 214.619 117.476 203.542C117.476 203.096 117.499 202.645 117.457 202.201C117.335 200.92 116.41 200.023 115.249 200.026C114.093 200.026 113.165 200.923 113.036 202.206C112.991 202.65 113.017 203.099 113.017 203.547C113.017 215.469 113.017 227.388 113.017 239.31C113.017 242.55 113.488 243.03 116.681 243.03C140.18 243.03 163.679 243.04 187.178 243.001C188.37 243.001 189.004 243.366 189.584 244.407C198.347 260.169 216.959 268.347 234.278 263.724C249.744 259.597 259.551 249.533 263.843 234.038C264.311 232.347 264.147 230.521 265.01 228.932V227.143C264.604 226.945 264.667 226.746 265.01 226.545V220.585C264.778 220.519 264.755 220.334 264.734 220.131L264.724 220.126ZM227.814 183.933C226.53 183.865 225.242 183.914 223.956 183.914C222.768 183.914 221.576 183.847 220.396 183.935C219.354 184.011 218.923 183.802 218.975 182.602C219.084 180.074 219.043 177.536 218.991 175.006C218.973 174.158 219.227 173.905 220.072 173.921C222.644 173.97 225.216 173.968 227.788 173.921C228.645 173.905 229.027 174.085 229.001 175.058C228.936 177.638 228.933 180.223 229.001 182.806C229.027 183.774 228.687 183.98 227.811 183.933H227.814Z" fill="#2F9FEE"/>
<path d="M265 227.135V226.538C264.813 226.736 264.813 226.934 265 227.135Z" fill="#404041"/>
<path d="M113.055 193.525C113.276 194.769 114.068 195.51 115.3 195.476C116.526 195.442 117.292 194.678 117.443 193.413C117.495 192.972 117.469 192.52 117.469 192.072C117.469 181.491 117.495 170.91 117.435 160.329C117.427 159.059 117.77 158.816 118.978 158.816C140.747 158.855 162.516 158.845 184.288 158.845H248.706C250.306 158.845 251.106 159.636 251.106 161.219C251.106 164.548 251.075 167.876 251.119 171.202C251.145 173.216 252.558 174.364 254.164 173.741C255.372 173.271 255.58 172.235 255.588 171.064C255.632 165.901 255.582 160.739 255.676 155.574C255.811 148.126 255.715 140.673 255.707 133.22C255.705 130.757 254.954 130.003 252.525 130.001C248.568 129.993 244.608 129.962 240.652 130.024C239.659 130.04 239.428 129.74 239.449 128.79C239.506 126.309 239.56 123.818 239.412 121.343C239.132 116.689 235.349 113.117 230.748 113.003C226.324 112.893 222.478 116.237 221.86 120.753C221.515 123.276 221.689 125.814 221.738 128.342C221.764 129.664 221.452 130.04 220.075 130.037C196.327 129.99 172.578 129.983 148.83 130.045C147.266 130.05 147.006 129.596 147.032 128.172C147.081 125.352 147.401 122.488 146.723 119.712C145.689 115.481 141.537 112.58 137.409 113.055C132.797 113.584 129.493 117.072 129.342 121.663C129.264 124.045 129.264 126.432 129.339 128.814C129.37 129.826 129.038 130.035 128.095 130.024C124.187 129.975 120.277 130.001 116.37 130.003C113.689 130.003 113.008 130.676 113.008 133.322C113.008 152.944 113.008 172.564 113.008 192.187C113.008 192.633 112.977 193.089 113.055 193.525ZM226.181 122.381C226.196 119.483 228.088 117.456 230.639 117.484C233.208 117.513 234.991 119.527 235.006 122.456C235.022 125.185 235.009 127.914 235.009 130.643C235.009 133.371 235.022 136.199 235.004 138.977C234.985 141.847 233.185 143.811 230.548 143.882C228.127 143.947 226.196 141.87 226.181 139.05C226.147 133.494 226.149 127.937 226.181 122.381ZM133.785 122.159C133.808 119.522 135.543 117.615 137.986 117.49C140.365 117.367 142.478 119.185 142.529 121.796C142.644 127.7 142.641 133.609 142.542 139.512C142.498 142.134 140.435 143.973 138.053 143.889C135.575 143.803 133.803 141.849 133.785 139.131C133.766 136.303 133.779 133.473 133.779 130.645C133.779 127.817 133.761 124.987 133.785 122.159ZM117.503 135.782C117.492 134.725 117.794 134.443 118.828 134.467C121.943 134.535 125.06 134.527 128.175 134.467C129.092 134.449 129.378 134.702 129.334 135.628C129.267 137.115 129.274 138.609 129.36 140.094C129.625 144.649 133.473 148.282 138.076 148.382C142.48 148.478 146.351 145.027 146.92 140.569C147.105 139.129 147.146 137.686 147.04 136.259C146.936 134.869 147.284 134.443 148.773 134.449C170.586 134.506 192.399 134.488 214.212 134.488C216.29 134.488 218.368 134.553 220.442 134.462C221.525 134.415 221.754 134.796 221.725 135.8C221.665 137.78 221.535 139.783 222.045 141.729C223.094 145.744 227.074 148.674 230.977 148.355C235.64 147.975 239.075 144.656 239.418 140.107C239.532 138.576 239.498 137.029 239.459 135.492C239.441 134.741 239.623 134.456 240.436 134.469C243.65 134.516 246.866 134.522 250.08 134.469C250.976 134.454 251.129 134.793 251.124 135.589C251.096 141.448 251.083 147.309 251.135 153.168C251.145 154.207 250.781 154.423 249.862 154.368C248.729 154.301 247.588 154.353 246.45 154.353C225.726 154.353 205.002 154.353 184.277 154.353C163.553 154.353 140.849 154.34 119.134 154.384C117.848 154.384 117.474 154.113 117.495 152.767C117.581 147.106 117.56 141.445 117.505 135.784L117.503 135.782Z" fill="#2F9FEE"/>
<path d="M214.433 239.054C215.817 240.434 217.472 241.237 219.447 241.183C221.65 241.211 223.32 240.173 224.804 238.678C231.369 232.068 237.947 225.473 244.515 218.865C244.967 218.409 245.406 217.929 245.783 217.412C247.552 214.989 247.472 211.603 245.614 209.252C242.962 205.892 238.425 205.684 235.212 208.866C230.177 213.852 225.186 218.884 220.216 223.934C219.579 224.581 219.252 224.607 218.628 223.937C217.142 222.343 215.589 220.809 214.025 219.293C211.06 216.421 206.927 216.345 204.202 219.074C201.489 221.79 201.515 225.998 204.368 228.938C207.68 232.352 211.066 235.697 214.435 239.054H214.433ZM207.33 222.301C208.364 221.234 209.751 221.359 211.094 222.69C213.17 224.745 215.215 226.832 217.283 228.896C218.919 230.526 219.922 230.537 221.546 228.909C227.038 223.407 232.52 217.895 238.005 212.385C238.75 211.637 239.522 210.912 240.701 211.18C241.922 211.459 242.52 212.284 242.574 213.356C242.548 214.313 242.138 214.913 241.6 215.453C234.889 222.189 228.189 228.932 221.465 235.655C219.995 237.126 218.857 237.118 217.381 235.655C214.149 232.446 210.936 229.214 207.738 225.971C206.485 224.704 206.363 223.303 207.335 222.301H207.33Z" fill="#404041"/>
<path d="M154.223 171.99C154.207 170.344 153.389 169.475 151.747 169.454C147.099 169.397 142.449 169.397 137.801 169.454C136.159 169.475 135.346 170.341 135.33 171.995C135.286 176.613 135.286 181.23 135.33 185.847C135.348 187.564 136.226 188.36 137.954 188.383C140.227 188.412 142.503 188.391 144.779 188.391C147.055 188.391 149.328 188.414 151.604 188.383C153.329 188.36 154.205 187.556 154.22 185.842C154.264 181.225 154.264 176.607 154.22 171.99H154.223ZM148.809 183.93C147.481 183.867 146.148 183.912 144.818 183.912C143.438 183.912 142.056 183.878 140.677 183.925C139.952 183.951 139.762 183.685 139.77 182.988C139.804 180.317 139.804 177.643 139.77 174.972C139.76 174.234 139.936 173.907 140.747 173.918C143.457 173.957 146.169 173.954 148.879 173.918C149.619 173.91 149.788 174.21 149.78 174.888C149.752 177.56 149.744 180.233 149.785 182.905C149.798 183.664 149.614 183.961 148.809 183.925V183.93Z" fill="#2F9FEE"/>
<path d="M164.591 188.391C166.768 188.406 168.943 188.393 171.12 188.393C173.297 188.393 175.57 188.406 177.797 188.391C179.784 188.375 180.631 187.582 180.642 185.615C180.67 181.146 180.67 176.678 180.642 172.209C180.629 170.318 179.81 169.462 177.922 169.444C173.422 169.402 168.919 169.4 164.42 169.444C162.534 169.462 161.736 170.32 161.726 172.23C161.702 176.699 161.7 181.167 161.726 185.636C161.739 187.59 162.586 188.378 164.589 188.391H164.591ZM166.176 174.763C166.168 174.09 166.446 173.923 167.054 173.928C169.813 173.946 172.575 173.949 175.334 173.928C175.978 173.923 176.186 174.176 176.181 174.807C176.158 177.578 176.152 180.351 176.184 183.121C176.191 183.82 175.88 183.933 175.295 183.922C173.915 183.896 172.536 183.914 171.154 183.914C169.772 183.914 168.392 183.888 167.013 183.927C166.368 183.946 166.166 183.729 166.173 183.079C166.205 180.309 166.205 177.536 166.173 174.766L166.176 174.763Z" fill="#2F9FEE"/>
<path d="M204.438 169.447C199.889 169.395 195.337 169.397 190.788 169.444C188.964 169.462 188.148 170.315 188.138 172.115C188.109 176.634 188.112 181.152 188.138 185.67C188.148 187.561 188.985 188.367 190.884 188.388C193.11 188.409 195.334 188.394 197.561 188.394C199.787 188.394 202.011 188.407 204.238 188.388C206.204 188.373 207.036 187.569 207.049 185.576C207.077 181.107 207.08 176.639 207.049 172.17C207.036 170.341 206.225 169.468 204.443 169.447H204.438ZM201.658 183.925C200.278 183.881 198.896 183.912 197.228 183.912C195.911 183.779 193.76 184.608 192.848 183.601C192.053 182.725 192.614 180.599 192.596 179.023C192.58 177.638 192.627 176.25 192.58 174.865C192.557 174.158 192.775 173.913 193.495 173.921C196.207 173.954 198.919 173.949 201.632 173.923C202.307 173.918 202.603 174.108 202.593 174.844C202.559 177.568 202.557 180.291 202.593 183.014C202.603 183.75 202.346 183.946 201.655 183.925H201.658Z" fill="#2F9FEE"/>
<path d="M164.512 219.429C168.962 219.447 173.412 219.447 177.863 219.429C179.78 219.421 180.625 218.633 180.64 216.753C180.674 212.234 180.674 207.716 180.64 203.198C180.627 201.367 179.806 200.56 178.003 200.529C175.73 200.49 173.454 200.519 171.178 200.519C168.952 200.519 166.728 200.498 164.501 200.524C162.522 200.55 161.734 201.343 161.727 203.354C161.706 207.773 161.706 212.193 161.727 216.612C161.737 218.623 162.529 219.421 164.512 219.429ZM166.177 206.067C166.169 205.358 166.263 204.987 167.117 205.003C169.832 205.055 172.55 205.042 175.267 205.008C175.987 205 176.198 205.243 176.187 205.95C176.153 208.626 176.143 211.306 176.192 213.985C176.208 214.806 175.901 214.989 175.161 214.963C173.828 214.916 172.493 214.95 171.16 214.95C169.827 214.95 168.492 214.908 167.159 214.966C166.367 215.002 166.159 214.726 166.172 213.953C166.216 211.326 166.208 208.697 166.177 206.067Z" fill="#2F9FEE"/>
<path d="M151.43 200.526C146.98 200.503 142.529 200.503 138.079 200.526C136.156 200.537 135.338 201.325 135.322 203.224C135.288 207.742 135.288 212.26 135.322 216.778C135.338 218.61 136.167 219.405 137.97 219.429C140.194 219.458 142.42 219.437 144.644 219.437C146.87 219.437 149.094 219.45 151.321 219.434C153.425 219.421 154.218 218.662 154.228 216.588C154.249 212.169 154.251 207.75 154.228 203.333C154.218 201.33 153.428 200.539 151.43 200.529V200.526ZM148.767 214.963C147.434 214.913 146.099 214.95 144.766 214.95C143.384 214.95 141.999 214.926 140.617 214.96C139.98 214.976 139.762 214.759 139.77 214.11C139.799 211.384 139.806 208.655 139.767 205.926C139.757 205.186 140.025 205.003 140.711 205.011C143.428 205.039 146.143 205.042 148.861 205.011C149.575 205.003 149.791 205.232 149.783 205.947C149.746 208.624 149.739 211.303 149.785 213.982C149.801 214.791 149.518 214.997 148.767 214.968V214.963Z" fill="#2F9FEE"/>
</g>
</g>
<circle cx="184" cy="326.603" r="16" fill="#2F9FEE"/>
<circle cx="184" cy="359.603" r="8" fill="#2F9FEE"/>
<circle cx="184" cy="384.603" r="8" fill="#2F9FEE"/>
<circle cx="184" cy="409.603" r="8" fill="#2F9FEE"/>
<defs>
<clipPath id="clip0_1189_999">
<rect width="272" height="272" fill="white" transform="translate(48 48.6025)"/>
</clipPath>
<clipPath id="clip1_1189_999">
<rect width="152" height="152" fill="white" transform="translate(113 113)"/>
</clipPath>
</defs>
</svg>
