<svg width="94" height="161" viewBox="0 0 94 161" fill="none" xmlns="http://www.w3.org/2000/svg">
<g clip-path="url(#clip0_836_186)">
<path d="M34.4919 52.7535L34.5631 52.825C35.6565 53.9215 36.7456 55.0139 37.8389 56.1105C39.3134 57.5894 40.7879 59.0683 42.2666 60.5472C44.1642 62.4505 45.3874 62.4547 47.2892 60.5683L47.507 60.354C49.4088 58.4717 51.3734 56.5264 53.2584 54.5602C53.2919 54.5266 53.3171 54.4971 53.3422 54.4761C53.3673 54.4971 53.3925 54.5266 53.4218 54.556C55.1434 56.3542 56.9363 58.1314 58.6705 59.854L59.5879 60.7657C60.4048 61.5766 61.1169 61.9841 61.829 61.9841C62.5411 61.9841 63.2532 61.5766 64.0701 60.7657C66.6337 58.207 69.2937 55.5433 71.9663 52.846C73.4994 51.2998 73.5036 49.9806 71.9788 48.4386L71.363 47.8168C69.5199 45.9514 67.6139 44.0187 65.6996 42.1574C65.6577 42.1196 65.6284 42.0818 65.5991 42.0566C65.62 42.0398 65.6409 42.0188 65.6661 41.9978C67.0484 40.8508 68.2674 39.5399 69.4445 38.2711C70.253 37.4014 71.0908 36.4981 71.9579 35.683C72.4438 35.225 73.0931 34.5024 73.1098 33.5361C73.1266 32.5697 72.5066 31.8219 72.0375 31.3471C69.3901 28.654 66.7007 25.9566 64.0366 23.3223C62.5621 21.8644 61.0666 21.8728 59.5879 23.3433L58.6454 24.2802C56.9196 25.9944 55.1393 27.7632 53.4218 29.5531C53.3589 29.6161 53.3087 29.6665 53.271 29.7043C53.2375 29.6749 53.1956 29.6329 53.1453 29.5825C51.4949 27.8515 49.769 26.1415 48.1018 24.4861L46.9792 23.3727C45.4879 21.8896 43.9883 21.8644 42.5305 23.3055C40.0423 25.7633 37.4242 28.3893 34.5296 31.3261C33.0761 32.8008 33.0761 34.1747 34.5296 35.6452C34.9737 36.0947 35.4135 36.5443 35.8575 36.9981C37.3697 38.54 38.9322 40.1365 40.5491 41.6407C40.7921 41.8675 40.8843 42.002 40.9178 42.0608C40.8801 42.1238 40.7795 42.2709 40.4989 42.5356C39.0453 43.8969 37.6294 45.3338 36.2639 46.7244C35.7067 47.2916 35.1454 47.863 34.5841 48.426L34.4877 48.5227C34.0563 48.947 33.4154 49.5814 33.4782 50.6276C33.4028 51.6864 34.0563 52.3334 34.4919 52.7703V52.7535ZM45.0816 45.3632L45.978 44.4599C47.6787 42.7457 47.6871 41.4138 46.0115 39.7164L45.1025 38.7963C43.4186 37.0863 41.676 35.3175 39.904 33.6285C39.858 33.5823 39.8203 33.5445 39.7909 33.515C39.8245 33.4772 39.8705 33.431 39.9292 33.3806C41.6676 31.742 43.2259 30.1791 44.692 28.5993C44.7088 28.5825 44.7255 28.5657 44.7381 28.5489C44.7632 28.5741 44.7967 28.6077 44.8302 28.6413C46.3383 30.2085 47.9008 31.7672 49.413 33.2756C49.8737 33.7377 50.3387 34.1957 50.7995 34.6578C52.6468 36.5065 53.8826 36.5149 55.7048 34.6957C56.1697 34.2293 56.6389 33.7671 57.1039 33.3008C58.6454 31.7672 60.2372 30.1833 61.7745 28.5867C61.7871 28.5741 61.7997 28.5615 61.8081 28.5489L61.8164 28.5615C63.2072 30.0404 64.7738 31.616 66.7385 33.515C65.2053 35.0066 63.6763 36.5485 62.1976 38.0442C61.7201 38.5274 61.2426 39.0106 60.7608 39.4895C58.792 41.4684 58.7836 42.6658 60.7231 44.6153C61.2426 45.1363 61.7578 45.6573 62.273 46.1782C63.7182 47.6404 65.2137 49.1529 66.7259 50.6066L66.7468 50.6276C66.7468 50.6276 66.7217 50.6528 66.7049 50.6696C64.9958 52.3082 63.3454 53.9594 61.8081 55.5853C60.2623 53.9888 58.6663 52.4006 57.1206 50.8629C56.6934 50.4385 56.2703 50.0142 55.843 49.5898C54.8628 48.6109 54.0585 48.1193 53.2584 48.1193C52.4583 48.1193 51.6834 48.5983 50.7283 49.552C49.6643 50.615 48.6045 51.678 47.5447 52.7409C46.6147 53.6737 45.6848 54.6064 44.7548 55.5391L44.7381 55.5559C44.2606 55.0811 43.7872 54.6022 43.3139 54.1232C42.1703 52.972 40.989 51.7788 39.7993 50.6276C41.5838 48.8924 43.3599 47.0984 45.0774 45.3632H45.0816Z" fill="#619DEA"/>
<path d="M64.8575 80.0336C80.7001 75.3069 92.0563 61.5556 93.778 45.1152C95.8515 25.3137 83.3978 6.94076 64.2878 1.51668C61.9001 0.840241 59.4286 0.655377 57.0451 0.00415039H49.2076C49.0987 0.331864 48.8138 0.273044 48.5667 0.298253C44.8134 0.705794 41.1983 1.65953 37.7173 3.12163C35.6019 4.01234 34.7473 5.6131 35.4553 7.41133C36.1464 9.16754 37.9225 9.76835 40.0463 8.92805C43.0666 7.73064 46.1664 6.90715 49.4003 6.52482C72.23 3.84849 91.2562 24.1878 87.193 46.9555C84.6126 61.4295 73.6291 72.2693 58.7709 75.017C45.3077 77.5085 30.6882 70.6811 23.6005 58.3919C17.9119 48.531 17.2962 38.2164 21.4265 27.6119C22.2643 25.465 21.6904 23.7004 19.9478 22.9945C18.1675 22.2719 16.5296 23.1206 15.6541 25.2339C12.7805 32.1621 11.7123 39.3886 12.9983 46.7622C15.9389 63.6605 25.7369 74.7439 41.9565 80.1008C42.8446 80.3949 43.0791 80.7478 43.0708 81.6175C43.0289 85.5459 43.0079 89.4785 43.0833 93.4026C43.1043 94.4908 42.7105 94.6379 41.7638 94.6673C33.0466 94.9614 25.5358 98.1419 19.3194 104.297C18.6199 104.99 17.9371 105.234 16.9904 105.226C12.6548 105.184 8.31925 105.2 3.98369 105.209C1.03048 105.217 0 106.242 0 109.162C0 121.578 0.00418895 133.997 0.0125668 146.412C0.0125668 149.32 1.07237 150.4 3.96275 150.408C8.29831 150.421 12.6339 150.437 16.9694 150.391C17.979 150.379 18.6911 150.673 19.4325 151.395C25.762 157.597 33.3859 160.849 42.2288 160.933C53.0405 161.034 63.8521 161.004 74.668 160.945C81.9484 160.903 86.7824 153.757 84.1434 146.984C83.7622 146.009 83.9884 145.715 84.7843 145.232C88.9356 142.703 90.8709 137.707 89.1199 133.279C88.3868 131.426 88.4245 130.468 89.8655 128.892C94.2597 124.103 92.869 116.733 87.2558 113.397C86.8201 113.137 85.9907 113.166 86.4515 112.12C89.3503 105.532 84.6461 97.5285 76.1467 97.7932C72.3389 97.9108 68.5186 97.7764 64.7067 97.8394C63.7265 97.8562 63.4961 97.5747 63.5045 96.6168C63.5547 91.6926 63.5631 86.7685 63.5045 81.8444C63.4919 80.7604 63.8019 80.3571 64.8659 80.0378L64.8575 80.0336ZM50.4978 81.6175C52.4163 81.7436 54.3558 81.6932 56.2785 81.6091C57.0577 81.5755 57.2713 81.7772 57.2671 82.5377C57.242 87.2979 57.242 92.0582 57.2671 96.8184C57.2671 97.5411 57.0912 97.8436 56.312 97.8268C54.3307 97.7806 52.3493 97.7764 50.3679 97.8268C49.5553 97.8478 49.283 97.5999 49.2997 96.768C49.35 94.4152 49.3165 92.0582 49.3165 89.7053C49.3165 87.4029 49.3542 85.1005 49.2955 82.8023C49.2704 81.8696 49.4505 81.5503 50.4978 81.6175ZM75.82 104.104C76.4441 104.104 77.0808 104.091 77.6924 104.2C79.7031 104.566 81.052 106.2 81.0143 108.158C80.9766 110.154 79.6193 111.658 77.5584 111.973C76.6284 112.116 75.6859 112.183 74.9654 112.914C74.0397 113.855 73.7045 114.952 74.157 116.212C74.601 117.46 75.4974 118.221 76.8337 118.271C78.6056 118.338 80.3901 118.229 82.1578 118.347C85.1697 118.548 86.9584 121.284 85.8106 123.863C85.1027 125.451 83.7832 126.199 82.0783 126.266C81.1399 126.304 80.1932 126.245 79.2591 126.325C77.6505 126.46 76.5321 127.611 76.4316 129.144C76.3185 130.808 77.2526 132.06 78.903 132.451C79.2088 132.522 79.5188 132.56 79.8288 132.606C82.1578 132.947 83.5234 134.531 83.4103 136.758C83.3056 138.82 81.718 140.367 79.4937 140.467C77.9815 140.539 76.4651 140.467 74.9529 140.493C73.0008 140.526 71.6562 141.711 71.5472 143.446C71.4425 145.144 72.7076 146.509 74.6261 146.77C77.2149 147.122 78.7522 148.698 78.6349 150.883C78.5135 153.177 76.7625 154.66 74.1276 154.668C68.6443 154.681 63.161 154.668 57.6818 154.668C52.7724 154.668 47.8671 154.677 42.9577 154.668C34.9652 154.656 28.2209 151.723 22.8004 145.841C21.6778 144.623 20.463 144.072 18.8251 144.097C15.0676 144.156 11.306 144.076 7.54848 144.144C6.50125 144.16 6.26667 143.841 6.26667 142.833C6.30018 132.779 6.29599 122.725 6.2541 112.666C6.24991 111.679 6.52219 111.456 7.46889 111.469C11.1217 111.524 14.7786 111.435 18.4314 111.515C20.2871 111.557 21.6652 110.977 22.9554 109.574C28.0073 104.087 34.3368 101.272 41.7722 100.919C42.5932 100.881 43.0414 100.982 43.3012 101.948C43.7452 103.583 45.0521 104.108 46.6942 104.1C56.4042 104.074 66.1184 104.087 75.8283 104.091L75.82 104.104Z" fill="#404041"/>
<path d="M26.5617 17.3057C28.3462 17.3646 29.7704 16.0117 29.7914 14.2345C29.8123 12.4783 28.3797 11.0204 26.6497 11.0414C25.0076 11.0624 23.5708 12.4951 23.5415 14.1462C23.5122 15.81 24.8861 17.2511 26.5575 17.3057H26.5617Z" fill="#404041"/>
</g>
<defs>
<clipPath id="clip0_836_186">
<rect width="94" height="161" fill="white"/>
</clipPath>
</defs>
</svg>
