<svg width="158" height="156" viewBox="0 0 158 156" fill="none" xmlns="http://www.w3.org/2000/svg">
<g clip-path="url(#clip0_812_1137)">
<path d="M52.1707 17.452C51.3442 15.2891 49.7159 15.2382 48.8191 15.4007L48.5425 15.4499L48.3068 15.6025C47.4215 16.1802 46.5197 17.2829 47.2513 19.2669C48.495 22.6425 48.9189 25.9278 48.5458 29.31C47.9762 34.4627 45.9126 38.8393 42.4137 42.3167C37.6743 47.0264 31.9727 49.1843 25.4642 48.7314C19.4418 48.3113 14.4291 45.8202 10.5669 41.3271C5.74406 35.7181 4.12718 29.2345 5.75879 22.0567C7.83882 12.9063 15.5534 6.16177 24.9552 5.27562C29.7699 4.82106 34.2933 5.90413 38.3993 8.49037C39.9835 9.48811 41.3287 9.39457 42.3973 8.2114L42.5839 8.00463L42.6772 7.74207C42.9799 6.8871 43.1992 5.27398 41.2567 4.08588C35.3488 0.474005 28.8845 -0.753476 22.0455 0.442825C15.105 1.65718 9.00075 5.62352 4.85707 11.6116C0.715022 17.598 -0.85277 24.7167 0.443358 31.655C2.91778 44.9078 14.0789 53.9564 26.9469 53.9547C28.5883 53.9547 30.2576 53.8071 31.9383 53.5035C39.7183 52.0955 46.4494 47.2512 50.4032 40.2112C54.3636 33.1631 55.0068 24.8661 52.1707 17.4503V17.452Z" fill="#2F9FEE"/>
<path d="M46.5768 14.5246C47.1742 14.5246 47.6979 14.331 48.071 14.1374L48.2919 14.0225L48.4588 13.8387C49.1282 13.1035 50.0103 11.5757 48.4114 9.6065C46.8551 7.68979 45.2283 8.21492 44.3986 8.69902L44.217 8.80569L44.0746 8.96158C42.9634 10.1743 42.9225 11.6529 43.9633 13.0182C44.847 14.1784 45.7799 14.5246 46.5785 14.5246H46.5768Z" fill="#2F9FEE"/>
<path d="M13.042 34.9011L13.096 34.9536C13.9028 35.7626 14.7096 36.5716 15.518 37.3823C16.608 38.4769 17.6995 39.5698 18.7911 40.6627C20.1952 42.069 21.097 42.0723 22.5044 40.6791L22.6664 40.5199C24.0722 39.1283 25.5254 37.6908 26.9197 36.2369C26.9426 36.2122 26.9639 36.1909 26.9819 36.1745C26.9999 36.1909 27.0179 36.2106 27.0408 36.2336C28.314 37.5628 29.638 38.8773 30.9194 40.149L31.5969 40.8219C32.2008 41.4225 32.7277 41.7228 33.2531 41.7228C33.7784 41.7228 34.3053 41.4225 34.9092 40.8202C36.806 38.9298 38.7698 36.9606 40.7467 34.9651C41.8792 33.8229 41.8825 32.8482 40.7565 31.7093L40.3032 31.2498C38.9416 29.8697 37.5326 28.442 36.1153 27.0669C36.0859 27.0373 36.0613 27.0127 36.0417 26.9914C36.0564 26.9782 36.0728 26.9635 36.0924 26.9471C37.1153 26.0987 38.0154 25.1305 38.886 24.1934C39.4833 23.5502 40.1019 22.8839 40.7434 22.2784C41.1018 21.9387 41.5813 21.4053 41.5944 20.6915C41.6075 19.9777 41.1477 19.4263 40.8007 19.0735C38.8451 17.0829 36.8551 15.0874 34.8863 13.1428C33.7964 12.0663 32.6901 12.0729 31.5969 13.1592L30.9014 13.8501C29.6265 15.1153 28.3075 16.4249 27.0408 17.7459C26.995 17.7935 26.9573 17.8296 26.9279 17.8558C26.9033 17.8329 26.8722 17.8033 26.8346 17.7639C25.6138 16.4839 24.3389 15.2204 23.1066 13.9978L22.2769 13.174C21.1739 12.0762 20.0676 12.0598 18.9891 13.1248C17.1497 14.9414 15.2136 16.8811 13.0747 19.0538C12.0011 20.1434 12.0011 21.1576 13.0747 22.2456C13.402 22.577 13.7293 22.9118 14.055 23.2449C15.1727 24.3854 16.3281 25.567 17.5228 26.6763C17.7028 26.8437 17.7699 26.9421 17.7961 26.9864C17.7699 27.034 17.6946 27.1407 17.4851 27.336C16.4099 28.3436 15.3658 29.4053 14.3545 30.4342C13.9421 30.8543 13.528 31.2744 13.1123 31.6912L13.042 31.7618C12.7245 32.0769 12.2499 32.5462 12.2957 33.3175C12.2384 34.0986 12.7228 34.5794 13.0452 34.9011H13.042ZM20.8695 29.4365L21.5323 28.767C22.7891 27.5001 22.7973 26.5171 21.5568 25.2617L20.8858 24.5824C19.6388 23.3188 18.3509 22.0109 17.0416 20.7621C17.0073 20.7293 16.9795 20.7014 16.9565 20.6767C16.9827 20.6488 17.0155 20.616 17.058 20.5766C18.3427 19.3656 19.4948 18.2103 20.5798 17.0435C20.5913 17.0304 20.6044 17.0189 20.6142 17.0074C20.6338 17.0271 20.6567 17.0501 20.6829 17.0763C21.799 18.2349 22.9544 19.3869 24.0722 20.5012C24.4142 20.8425 24.7562 21.1822 25.0983 21.5235C26.4631 22.8888 27.3779 22.8954 28.7232 21.5514C29.0668 21.2068 29.4121 20.8638 29.7574 20.5208C30.8965 19.3869 32.0748 18.2152 33.2121 17.0353C33.222 17.0255 33.2302 17.0173 33.2383 17.0091L33.2449 17.0173C34.2743 18.1118 35.4296 19.2737 36.8829 20.6767C35.7488 21.7795 34.6179 22.92 33.5247 24.0228C33.1712 24.3789 32.8177 24.7366 32.4643 25.0911C31.0077 26.5549 31.0012 27.4394 32.4348 28.8802C32.8177 29.2642 33.1991 29.6498 33.5804 30.0355C34.649 31.1152 35.7537 32.2328 36.8714 33.3076C36.8763 33.3126 36.8829 33.3175 36.8878 33.3224C36.878 33.3323 36.8681 33.3421 36.8567 33.3536C35.5917 34.5647 34.3741 35.7856 33.2367 36.9852C32.0944 35.8069 30.9145 34.6303 29.7722 33.4931C29.458 33.1797 29.1437 32.8662 28.8295 32.5528C28.1046 31.8274 27.5105 31.4664 26.9197 31.4664C26.3289 31.4664 25.7545 31.8192 25.0492 32.5249C24.2636 33.3093 23.4797 34.097 22.6958 34.883C22.0085 35.5723 21.3212 36.2631 20.6322 36.9507L20.6191 36.9638C20.2672 36.611 19.917 36.2582 19.5668 35.9054C18.7224 35.0537 17.8484 34.1725 16.968 33.3224C18.2854 32.0408 19.5995 30.7148 20.8711 29.4332L20.8695 29.4365Z" fill="#2F9FEE"/>
<path d="M157.922 152.373C157.552 150.773 156.379 150.051 154.142 150.043C154.003 150.043 153.857 150.018 153.723 150.046C152.244 150.353 152.013 149.654 152.016 148.305C152.055 120.421 152.046 92.5369 152.044 64.6544C152.044 64.1408 152.068 63.6222 152.005 63.1151C151.795 61.4315 150.725 60.3796 149.033 60.3697C143.069 60.3353 137.106 60.3353 131.142 60.3697C129.457 60.3796 128.376 61.4446 128.175 63.1217C128.115 63.6288 128.139 64.1473 128.139 64.661C128.139 92.6387 128.131 120.616 128.162 148.592C128.162 149.72 127.928 150.109 126.732 150.073C123.753 149.981 120.765 149.961 117.788 150.079C116.432 150.133 116.227 149.651 116.229 148.44C116.266 132.279 116.256 116.118 116.251 99.9576C116.251 97.268 115.212 96.2309 112.532 96.2259C107.174 96.2177 101.816 96.2227 96.4577 96.2243C93.2141 96.2243 92.3484 97.1072 92.3484 100.409C92.3484 116.476 92.3353 132.543 92.3746 148.61C92.3778 149.762 92.098 150.105 90.9246 150.071C87.8987 149.982 84.8678 149.995 81.8403 150.066C80.7716 150.091 80.4296 149.84 80.4378 148.701C80.4934 141.134 80.4656 133.567 80.4656 126.002C80.4656 113.439 80.4656 100.873 80.4656 88.3097C80.4656 85.2065 79.4902 84.2432 76.3628 84.2432C70.8657 84.2432 65.367 84.2318 59.8699 84.2498C57.8341 84.2564 56.677 85.3985 56.5674 87.4252C56.5445 87.8436 56.5608 88.2654 56.5608 88.6855C56.5608 108.676 56.5527 128.667 56.5821 148.656C56.5821 149.707 56.3874 150.105 55.2303 150.073C52.1586 149.982 49.0787 149.982 46.0069 150.073C44.8482 150.107 44.6518 149.705 44.6551 148.656C44.6911 138.38 44.6813 128.106 44.6731 117.83C44.6715 115.229 43.6127 114.172 41.0253 114.167C35.574 114.157 30.1228 114.161 24.6715 114.166C21.729 114.167 20.7717 115.144 20.77 118.137C20.7684 128.319 20.752 138.5 20.7946 148.683C20.7995 149.785 20.5213 150.184 19.4117 150.055C17.5101 149.83 15.8097 150.158 14.8262 152.075V153.757C14.9996 155.078 15.7459 155.824 17.0633 155.998H155.751C157.518 155.01 158.251 153.788 157.924 152.372L157.922 152.373ZM37.3791 149.969C34.2632 149.9 31.1456 149.912 28.028 149.964C27.1165 149.979 26.7515 149.828 26.7564 148.784C26.8006 139.596 26.7908 130.41 26.7663 121.222C26.7646 120.439 26.8497 120.078 27.7891 120.096C31.0916 120.162 34.3957 120.149 37.6983 120.103C38.51 120.091 38.69 120.346 38.6834 121.122C38.6474 125.738 38.6654 130.356 38.6654 134.974C38.6654 139.544 38.6262 144.116 38.6933 148.684C38.7096 149.761 38.397 149.992 37.3775 149.969H37.3791ZM72.9474 149.973C70.0164 149.886 67.0788 149.886 64.1478 149.973C62.9237 150.009 62.5309 149.738 62.5358 148.412C62.5898 133.892 62.5702 119.372 62.5702 104.853C62.5702 100.371 62.5996 95.8879 62.5473 91.4079C62.5358 90.4118 62.8353 90.1607 63.7976 90.1788C66.9168 90.2379 70.0393 90.2461 73.1568 90.1755C74.1928 90.1525 74.4857 90.4085 74.4792 91.4785C74.435 101.049 74.453 110.619 74.453 120.191C74.453 129.763 74.4235 139.053 74.489 148.482C74.4972 149.766 74.1273 150.009 72.9474 149.974V149.973ZM108.807 149.973C105.691 149.892 102.57 149.918 99.4526 149.963C98.6408 149.974 98.3364 149.82 98.3381 148.909C98.3692 133.651 98.3675 118.393 98.3397 103.135C98.3397 102.289 98.6425 102.161 99.3773 102.17C102.636 102.204 105.894 102.227 109.151 102.158C110.123 102.139 110.263 102.481 110.26 103.34C110.231 110.946 110.242 118.552 110.242 126.156C110.242 133.623 110.211 141.088 110.275 148.553C110.285 149.762 109.931 150 108.805 149.973H108.807ZM144.629 149.976C141.511 149.884 138.389 149.907 135.27 149.968C134.333 149.986 134.129 149.689 134.131 148.796C134.153 121.673 134.153 94.5521 134.129 67.4294C134.129 66.512 134.365 66.2675 135.274 66.2839C138.439 66.3414 141.608 66.3561 144.773 66.2774C145.825 66.2511 146.062 66.5301 146.059 67.5738C146.02 81.0646 146.033 94.5554 146.033 108.048C146.033 121.54 146.017 135.029 146.061 148.52C146.064 149.671 145.81 150.012 144.629 149.976Z" fill="#404041"/>
<path d="M35.1522 89.9539C42.6393 88.2785 46.6292 80.5329 43.6327 73.4683C43.3905 72.8956 43.1057 72.4656 43.7964 71.9208C49.4636 67.4441 55.1064 62.9346 60.7377 58.4119C61.2188 58.0263 61.5052 58.0558 62.0272 58.3676C67.8958 61.8745 74.1621 60.6273 78.3139 55.125C78.7264 54.5769 79.0635 54.4571 79.6919 54.6425C83.6588 55.8109 87.6274 56.9678 91.6124 58.069C92.3422 58.2708 92.5255 58.5153 92.4568 59.2899C91.8431 66.2708 97.2534 72.2047 104.222 72.2523C112.971 72.313 118.815 63.2382 115.08 55.2989C114.642 54.3668 114.856 53.9451 115.483 53.3215C121.333 47.4975 127.172 41.6604 132.967 35.7807C133.738 34.9979 134.255 34.8978 135.312 35.3442C139.757 37.2182 144.019 36.7144 147.729 33.5719C151.421 30.4441 152.787 26.353 151.634 21.6253C150.481 16.9057 147.403 13.8829 142.692 12.813C137.964 11.7398 133.882 13.2003 130.846 16.9648C127.77 20.7801 127.348 25.0812 129.351 29.5678C129.65 30.2373 129.745 30.6328 129.143 31.2285C123.084 37.2412 117.062 43.29 111.051 49.3503C110.552 49.854 110.226 49.923 109.545 49.603C104.639 47.3006 99.4529 48.2327 95.7151 52.0907C95.1276 52.6963 94.6481 52.7537 93.9149 52.5355C90.4864 51.5131 87.0694 50.435 83.5999 49.58C81.5723 49.0811 79.8654 48.5708 80.2041 45.9632C80.2205 45.8368 80.1272 45.6973 80.0929 45.5628C78.386 38.8248 71.668 34.952 65.0761 36.9048C58.6102 38.8198 55.0917 45.7597 57.2797 52.2959C57.4761 52.8834 57.6184 53.2985 56.9638 53.8155C51.218 58.343 45.5098 62.9198 39.8131 67.5098C39.2615 67.9545 38.8721 68.0283 38.224 67.6837C35.7103 66.3496 33.0427 66.0066 30.241 66.5711C23.9273 67.8429 19.7034 74.3183 21.0405 80.7249C22.3759 87.1215 28.8598 91.3619 35.1555 89.9523L35.1522 89.9539ZM140.183 18.4532C143.471 18.527 146.05 21.1953 146.025 24.4987C146.001 27.7873 143.345 30.431 140.073 30.4228C136.754 30.4146 134.106 27.679 134.162 24.3182C134.216 21.0394 136.946 18.381 140.184 18.4532H140.183ZM104.328 54.3307C107.644 54.3521 110.292 57.0975 110.234 60.4534C110.179 63.7354 107.488 66.3446 104.207 66.3003C100.945 66.256 98.3434 63.5647 98.3696 60.263C98.3958 56.981 101.078 54.311 104.328 54.3307ZM68.521 42.417C71.83 42.4202 74.437 45.0262 74.4452 48.3377C74.4534 51.6575 71.8742 54.2848 68.5766 54.3127C65.2037 54.3406 62.5608 51.7002 62.5788 48.3213C62.5984 45.0032 65.2037 42.4153 68.5193 42.4186L68.521 42.417ZM32.7547 72.2687C36.0163 72.295 38.6593 74.9747 38.6577 78.2584C38.6577 81.5536 36.0261 84.2202 32.7596 84.2383C29.4277 84.2563 26.7601 81.5552 26.7896 78.1928C26.819 74.9058 29.4997 72.2424 32.7531 72.2687H32.7547Z" fill="#404041"/>
</g>
<defs>
<clipPath id="clip0_812_1137">
<rect width="158" height="156" fill="white"/>
</clipPath>
</defs>
</svg>
