<svg width="116" height="138" viewBox="0 0 116 138" fill="none" xmlns="http://www.w3.org/2000/svg">
<path d="M4.77689 125.914L4.77689 125.913C4.90441 120.622 4.90115 115.324 4.79323 110.028C4.59864 100.527 10.7564 92.6942 18.5161 89.8846L18.6863 90.3548L18.5161 89.8846C24.2708 87.8014 29.9596 85.5532 35.6563 83.3019C38.4333 82.2045 41.2122 81.1063 44.0015 80.0261C44.3025 79.9092 44.4369 79.8024 44.514 79.6953C44.594 79.5843 44.66 79.4075 44.6895 79.0539C44.8042 77.6697 44.7283 76.4818 44.3488 75.4082C43.9717 74.3414 43.2814 73.3497 42.1057 72.3793L42.1056 72.3793C38.6802 69.5509 36.911 65.4993 36.1647 61.1693C36.0813 60.6861 35.9497 60.397 35.7691 60.2025C35.5904 60.01 35.3102 59.853 34.812 59.7443C30.9376 58.9 28.2325 56.4107 27.1271 53.3275C26.0217 50.2443 26.5329 46.6139 28.9895 43.5247C29.2481 43.199 29.3418 42.9645 29.3528 42.7774C29.3631 42.6021 29.3056 42.3829 29.067 42.0734L29.0663 42.0724C28.0636 40.7648 27.4865 39.2373 27.4829 37.5759M4.77689 125.914L27.9829 37.5746M4.77689 125.914C4.74292 127.351 4.9565 128.632 5.56304 129.701C6.12807 130.698 7.00928 131.467 8.24784 132.01M4.77689 125.914L8.24784 132.01M27.4829 37.5759C27.4829 37.5758 27.4829 37.5757 27.4829 37.5756L27.9829 37.5746M27.4829 37.5759C27.4829 37.576 27.4829 37.5762 27.4829 37.5763L27.9829 37.5746M27.4829 37.5759C27.4776 36.0296 27.453 34.4769 27.4284 32.9204C27.3626 28.7618 27.2964 24.5763 27.5956 20.4142M27.9829 37.5746C27.9776 36.0144 27.9529 34.4533 27.9282 32.892C27.8625 28.7409 27.7968 24.5886 28.0943 20.45M27.5956 20.4142C27.5956 20.4142 27.5956 20.4142 27.5956 20.4142L28.0943 20.45M27.5956 20.4142C28.1611 12.5363 35.0813 6.01567 42.9697 5.89392L42.9774 6.39386M27.5956 20.4142L28.0943 20.45M28.0943 20.45L42.9774 6.39386M42.9774 6.39386C50.4075 6.27937 57.8409 6.31535 65.2743 6.39059M42.9774 6.39386L8.74784 131.679H9.24784H107.248C109.881 130.649 110.906 128.696 110.703 125.929C110.621 124.836 110.642 123.734 110.662 122.632C110.671 122.141 110.68 121.65 110.68 121.159C110.68 119.478 110.087 118.657 108.876 118.64M42.9774 6.39386L42.9697 5.89392C50.4061 5.77933 57.8444 5.81536 65.2791 5.89061M42.9774 6.39386L65.2791 5.89061M65.2743 6.39059C70.3008 6.43966 73.1726 8.8276 74.4072 13.7442C74.6953 14.8989 75.3175 15.4484 76.5619 15.4386C81.5098 15.4026 84.9482 18.8275 84.9645 23.7801C84.9686 25.035 84.9795 26.2904 84.9904 27.5458C85.0235 31.3496 85.0566 35.1544 84.899 38.9517M65.2743 6.39059L65.2791 5.89061M65.2743 6.39059L65.2791 5.89061M84.899 38.9517C84.8204 40.885 85.2527 42.1411 86.5593 43.6099C91.4384 49.1054 88.5208 57.6072 81.3133 59.2068M84.899 38.9517L85.3986 38.9725M84.899 38.9517L85.3986 38.972C85.3986 38.9722 85.3986 38.9723 85.3986 38.9725M81.3133 59.2068C80.0952 59.4783 79.5418 59.9853 79.3125 61.2251C78.3957 66.1711 75.9561 70.2796 72.0822 73.4886M81.3133 59.2068L81.4217 59.6949M81.3133 59.2068L81.4221 59.6948C81.422 59.6948 81.4218 59.6948 81.4217 59.6949M72.0822 73.4886C71.1817 74.2345 70.6774 74.9836 70.8116 76.1743C70.8662 76.6543 70.8129 77.1756 70.7602 77.6903C70.6675 78.5961 70.5769 79.4817 71.0802 80.0866C71.5951 80.707 72.5316 80.9811 73.464 81.2539C73.8539 81.368 74.2431 81.4819 74.6004 81.6208C80.0237 83.7224 85.4487 85.8207 90.8741 87.9192C93.1503 88.7996 95.4265 89.6801 97.7028 90.5608M72.0822 73.4886L72.4011 73.8737C71.9748 74.2268 71.6809 74.5499 71.5031 74.8942C71.3309 75.2274 71.2514 75.6115 71.3085 76.1182C71.3516 76.4983 71.3347 76.8875 71.3045 77.2524C71.2889 77.4404 71.2721 77.6017 71.2561 77.757C71.2373 77.9378 71.2194 78.1105 71.2051 78.3077C71.155 78.9982 71.2081 79.4585 71.4645 79.7668L71.4649 79.7673C71.7348 80.0924 72.194 80.3225 72.8194 80.5332C73.0704 80.6177 73.3303 80.6938 73.6012 80.7731C73.6613 80.7906 73.722 80.8084 73.7832 80.8264C74.1137 80.9238 74.4571 81.0286 74.7813 81.1546C80.2045 83.2562 85.6293 85.3545 91.0547 87.453C93.3307 88.3334 95.6069 89.2138 97.8831 90.0945M72.0822 73.4886L72.4012 73.8737C76.3639 70.591 78.8656 66.379 79.8042 61.3162L79.8042 61.316C79.9084 60.7522 80.0735 60.426 80.2936 60.2084C80.5173 59.9872 80.8552 59.8212 81.4217 59.6949M97.7028 90.5608C105.552 93.5965 110.572 100.819 110.68 109.233C110.69 110.047 110.7 110.865 110.68 111.679C110.647 112.903 109.911 113.708 108.856 113.711C107.802 113.714 107.016 112.906 107.019 111.693C107.019 111.627 107.019 111.561 107.02 111.495C107.027 109.153 107.034 106.811 106.269 104.555C104.583 99.5794 101.465 95.9321 96.4748 94.0086C90.6295 91.7563 84.7871 89.4981 78.9446 87.2399C76.022 86.1103 73.0994 84.9806 70.1764 83.8517C67.9431 82.9881 67.1735 81.889 67.1506 79.5174C67.1375 78.0912 67.131 76.6617 67.1506 75.2355C67.1703 73.5933 67.7924 72.2423 69.1088 71.2119C72.8354 68.294 75.0621 64.4864 75.884 59.8316C76.277 57.5908 77.6458 56.2529 79.9118 55.7982M97.7028 90.5608L97.8832 90.0945C97.8832 90.0945 97.8832 90.0945 97.8831 90.0945M97.7028 90.5608L97.8831 90.0945M79.9118 55.7982C82.4725 55.2814 84.4013 53.9402 85.0791 51.3592M79.9118 55.7982L79.8134 55.308C79.8132 55.308 79.8131 55.3081 79.8129 55.3081M79.9118 55.7982L79.8129 55.3081M85.0791 51.3592C85.7373 48.8503 84.8597 46.7175 82.8982 45.0197C81.3559 43.6818 81.0186 42.0561 81.1431 39.992M85.0791 51.3592L84.5956 51.2322C84.5955 51.2323 84.5955 51.2323 84.5955 51.2324M85.0791 51.3592L84.5955 51.2324M81.1431 39.992C81.4902 34.2151 81.4148 28.4153 81.1824 22.6319C81.0972 20.5089 78.9851 19.0762 76.7354 19.0925C73.5885 19.1121 71.6237 17.6336 70.8608 14.6634M81.1431 39.992L80.644 39.9619C80.644 39.9619 80.644 39.9619 80.644 39.962M81.1431 39.992L80.644 39.962M70.8608 14.6634C69.9799 11.245 68.5456 10.0674 64.9795 10.0477M70.8608 14.6634L70.3765 14.7878C70.3765 14.7879 70.3765 14.788 70.3766 14.7881M70.8608 14.6634L70.3766 14.7881M64.9795 10.0477C60.102 10.0233 55.2244 10.0275 50.3479 10.0317C48.0381 10.0337 45.7286 10.0357 43.4195 10.0347M64.9795 10.0477L64.9768 10.5477M64.9795 10.0477L64.977 10.5477C64.977 10.5477 64.9769 10.5477 64.9768 10.5477M43.4195 10.0347C42.5157 10.0347 41.6315 10.1786 40.7605 10.401C35.2919 11.8044 31.7291 16.3676 31.644 22.2426C31.5951 25.5337 31.6065 28.8248 31.6178 32.1159C31.6232 33.6792 31.6286 35.2425 31.6276 36.8058M43.4195 10.0347V10.5347M43.4195 10.0347V10.5347M31.6276 36.8058C31.6276 37.9409 31.955 38.9386 32.6165 39.884M31.6276 36.8058H32.1276C32.1276 36.806 32.1276 36.8061 32.1276 36.8062M31.6276 36.8058L32.1276 36.8062M32.6165 39.884C34.0475 41.9121 34.0213 44.1038 32.3676 45.9389C29.0898 49.5765 30.9792 54.8169 35.9665 55.7818C38.4814 56.2693 39.6799 57.4959 40.158 60.054M32.6165 39.884L33.0262 39.5974C33.026 39.5971 33.0258 39.5967 33.0256 39.5964M32.6165 39.884L33.0251 39.5957C33.0252 39.596 33.0254 39.5962 33.0256 39.5964M40.158 60.054C40.993 64.5126 43.1018 68.2221 46.6974 71.0287C48.1578 72.1704 48.8652 73.6228 48.8357 75.4677C48.8235 76.2045 48.827 76.9414 48.8306 77.6782C48.8337 78.3284 48.8368 78.9785 48.8291 79.6286C48.7997 81.8726 48.1087 82.8736 46.0097 83.6947C43.2458 84.7758 40.4774 85.847 37.709 86.9182C31.5231 89.3116 25.3367 91.7053 19.1971 94.2114C12.8673 96.7924 9.42569 101.784 9.07858 108.533C8.86912 112.614 8.91054 116.708 8.95197 120.803C8.97207 122.79 8.99217 124.777 8.98361 126.763C8.98034 127.639 9.3078 128.022 10.205 128.016C13.555 127.993 16.9016 127.973 20.2516 128.029C21.103 128.042 21.1423 127.679 21.139 127.018C21.1243 122.766 21.1261 118.512 21.1279 114.26C21.1286 112.842 21.1292 111.425 21.1292 110.008C21.1292 107.97 21.6695 107.162 23.0022 107.188C24.2826 107.214 24.8033 108.012 24.8033 109.962C24.8033 111.379 24.8047 112.796 24.8062 114.214C24.8104 118.467 24.8147 122.72 24.7804 126.972C24.7738 127.846 25.0227 128.025 25.861 128.025C47.2999 128.003 68.7388 128.003 90.1777 128.025C91.0553 128.025 91.2256 127.764 91.219 126.936C91.1857 122.118 91.1925 117.299 91.1993 112.479C91.2005 111.628 91.2017 110.777 91.2027 109.926M40.158 60.054L40.6494 59.9619M40.158 60.054L40.6494 59.9619M91.2027 109.926C91.2027 109.898 91.2027 109.87 91.2026 109.842C91.2022 109.421 91.2019 108.993 91.2878 108.588C91.4843 107.676 92.1032 107.195 93.0332 107.195C93.9665 107.195 94.5821 107.672 94.7818 108.585M91.2027 109.926L90.7027 109.926M91.2027 109.926H90.7027C90.7027 109.926 90.7027 109.926 90.7027 109.926M94.7818 108.585C94.871 108.991 94.8707 109.419 94.8703 109.841C94.8703 109.869 94.8702 109.896 94.8702 109.923M94.7818 108.585L95.2703 108.478C95.2702 108.478 95.2702 108.478 95.2702 108.478L94.7818 108.585ZM94.8702 109.923C94.871 110.59 94.8719 111.258 94.8727 111.926C94.8792 116.928 94.8857 121.931 94.8539 126.933C94.8473 127.757 95.0143 128.045 95.9083 128.029C99.1338 127.97 102.359 127.976 105.585 128.022M94.8702 109.923L95.3702 109.922C95.3702 109.922 95.3702 109.923 95.3702 109.923H94.8702ZM105.585 128.022C106.639 128.035 107.058 127.675 107.022 126.602C106.981 125.34 106.99 124.075 106.999 122.81C107.002 122.28 107.006 121.749 107.006 121.218C107.006 119.471 107.625 118.621 108.876 118.64M105.585 128.022L105.592 127.522C105.592 127.522 105.591 127.522 105.591 127.522L105.585 128.022ZM108.876 118.64L108.883 118.141C108.883 118.141 108.883 118.141 108.884 118.141C109.613 118.151 110.228 118.412 110.639 118.984C111.027 119.525 111.18 120.275 111.18 121.159C111.18 121.67 111.171 122.172 111.162 122.669C111.142 123.759 111.122 124.823 111.202 125.891L111.202 125.892C111.308 127.343 111.096 128.632 110.471 129.707C109.843 130.786 108.829 131.597 107.431 132.145L107.343 132.179H107.248H8.74784H8.24784V132.01M108.876 118.64L8.24784 132.01M90.7027 109.926C90.7017 110.776 90.7005 111.626 90.6993 112.477C90.6925 117.298 90.6856 122.119 90.7191 126.94V126.94C90.7206 127.135 90.7109 127.266 90.6926 127.356C90.6839 127.398 90.6747 127.424 90.6679 127.439C90.6667 127.442 90.6656 127.444 90.6646 127.446C90.6628 127.45 90.6614 127.452 90.6604 127.454C90.6589 127.456 90.658 127.457 90.6577 127.457L90.6561 127.459C90.6557 127.459 90.6549 127.46 90.6538 127.46C90.6524 127.461 90.6505 127.463 90.648 127.464C90.6385 127.469 90.6185 127.479 90.5817 127.489C90.5035 127.51 90.3782 127.525 90.1783 127.525C68.739 127.503 47.2997 127.503 25.8605 127.525C25.6633 127.525 25.5324 127.514 25.4432 127.495C25.4008 127.486 25.3752 127.476 25.3607 127.469C25.3587 127.469 25.357 127.468 25.3555 127.467C25.3514 127.465 25.3487 127.463 25.3471 127.462C25.3449 127.461 25.344 127.46 25.3439 127.46L25.3426 127.458C25.3418 127.457 25.34 127.455 25.3374 127.45C25.332 127.44 25.3227 127.419 25.3131 127.382C25.2929 127.302 25.2788 127.176 25.2803 126.976C25.3148 122.722 25.3104 118.465 25.3062 114.212C25.3047 112.795 25.3033 111.378 25.3033 109.962C25.3033 108.966 25.1749 108.155 24.8021 107.581C24.3973 106.958 23.7679 106.704 23.0125 106.688L23.0121 106.688C22.2319 106.673 21.5737 106.91 21.1496 107.547C20.7616 108.13 20.6292 108.97 20.6292 110.008C20.6292 111.424 20.6286 112.841 20.6279 114.259C20.6261 118.512 20.6243 122.767 20.639 127.02L20.639 127.02C20.6398 127.187 20.6373 127.302 20.6256 127.392C20.6183 127.448 20.6092 127.477 20.6044 127.489C20.5756 127.503 20.486 127.532 20.2599 127.529C16.9033 127.473 13.5511 127.493 10.2016 127.516H10.2014C9.80884 127.519 9.67315 127.433 9.61968 127.377C9.55972 127.313 9.48213 127.16 9.48361 126.765C9.49223 124.763 9.47202 122.768 9.45185 120.778C9.41045 116.692 9.36924 112.624 9.57792 108.558C9.91529 101.999 13.2396 97.1806 19.3859 94.6744L19.3861 94.6744C25.5213 92.17 31.7006 89.7791 37.8842 87.3865C40.6538 86.3149 43.4241 85.2429 46.1918 84.1603C47.2809 83.7343 48.0856 83.2319 48.6065 82.48C49.1275 81.728 49.3138 80.7997 49.3291 79.6352L49.3291 79.6345C49.3368 78.9801 49.3337 78.3262 49.3306 77.677L49.33 77.5458C49.3267 76.852 49.3243 76.1635 49.3356 75.476L49.3356 75.4757C49.3677 73.4709 48.5867 71.871 47.0053 70.6348L47.005 70.6346C43.5135 67.9091 41.464 64.3111 40.6494 59.9621L90.7027 109.926ZM40.6494 59.9619C40.3997 58.6258 39.9502 57.5741 39.1831 56.7914C38.4149 56.0077 37.3797 55.5464 36.0616 55.291L36.0614 55.291C33.7283 54.8395 32.1594 53.4008 31.5375 51.6916C30.9166 49.9853 31.2201 47.9593 32.7391 46.2736C33.634 45.2806 34.1097 44.1644 34.1486 43.0005C34.1873 41.8404 33.7904 40.6807 33.0256 39.5964M40.6494 59.9619L43.4192 10.5347C42.5685 10.5347 41.7273 10.6702 40.8842 10.8855C35.6417 12.231 32.2259 16.593 32.1439 22.2499L32.1439 22.2501C32.0951 25.5366 32.1065 28.8198 32.1178 32.1083C32.1232 33.6728 32.1286 35.2384 32.1276 36.8062M33.0256 39.5964C32.4205 38.7313 32.1277 37.8333 32.1276 36.8062M43.4195 10.5347C45.73 10.5357 48.0402 10.5337 50.3503 10.5317C55.2259 10.5275 60.1008 10.5233 64.9768 10.5477M43.4195 10.5347L70.3766 14.7881M64.9768 10.5477C66.7168 10.5573 67.8317 10.8514 68.6167 11.473C69.4033 12.0959 69.9458 13.1165 70.3766 14.7881M80.644 39.962C80.5147 42.1055 80.8635 43.9166 82.5706 45.3974L82.571 45.3978C84.4167 46.9953 85.1965 48.9414 84.5955 51.2324M80.644 39.962L79.8129 55.3081M84.5955 51.2324C83.9798 53.5765 82.246 54.817 79.8129 55.3081M79.8129 55.3081C78.6059 55.5504 77.6012 56.0358 76.8428 56.7907C76.083 57.547 75.6028 58.5413 75.3916 59.7446C74.5904 64.282 72.4269 67.9788 68.8006 70.8182C67.3583 71.9472 66.6722 73.444 66.6507 75.2286C66.6309 76.6606 66.6375 78.0946 66.6506 79.522V79.5222C66.6626 80.7549 66.868 81.7393 67.4247 82.5364C67.9808 83.3325 68.8375 83.87 69.996 84.318L69.9962 84.3181C72.9181 85.4466 75.8397 86.5758 78.7614 87.7051C84.6049 89.9637 90.4486 92.2224 96.295 94.4752C101.129 96.3384 104.15 99.8613 105.796 104.715C106.533 106.891 106.526 109.16 106.52 111.526L106.519 111.691C106.517 112.407 106.749 113.04 107.174 113.498C107.601 113.958 108.197 114.213 108.858 114.211C109.52 114.209 110.104 113.951 110.522 113.488C110.937 113.029 111.161 112.4 111.18 111.693L111.18 111.692C111.2 110.866 111.19 110.04 111.18 109.227V109.226C111.069 100.609 105.923 93.2038 97.8831 90.0945M79.8129 55.3081L65.2793 5.89061C67.8709 5.91594 69.9659 6.5458 71.5778 7.85381C73.1876 9.16014 74.2577 11.096 74.8921 13.6224L74.8923 13.6231C75.0217 14.1415 75.2086 14.452 75.4402 14.6392C75.6686 14.8237 76.0082 14.943 76.5579 14.9386L76.5582 14.9386C79.1516 14.9198 81.3808 15.8098 82.965 17.384C84.5489 18.9579 85.4559 21.184 85.4645 23.7785C85.4686 25.0273 85.4795 26.2789 85.4904 27.5321C85.5235 31.339 85.5567 35.1615 85.3986 38.9725M81.4217 59.6949C88.9841 58.0165 92.0772 49.0718 86.9332 43.2779L86.9328 43.2775C86.309 42.5763 85.9152 41.9498 85.6811 41.2882C85.4469 40.6264 85.3611 39.8967 85.3986 38.9725M20.6158 127.482C20.6162 127.482 20.6143 127.484 20.6089 127.487C20.6127 127.483 20.6154 127.481 20.6158 127.482ZM29.3812 43.8356C29.9575 43.1094 30.0328 42.5075 29.4631 41.7682L29.3812 43.8356Z" fill="#404041" stroke="#404041"/>
<path d="M52.6032 51.6027C52.5413 50.1424 52.3752 48.6592 52.7497 47.2315C53.6321 43.8545 55.8398 41.827 59.2196 41.0153C62.3618 40.2591 64.1559 37.7491 63.8857 34.5579C63.635 31.621 61.0561 29.2936 58.0377 29.2838C54.9867 29.274 52.4338 31.5264 52.1278 34.4829C52.0496 35.249 52.0138 36.0378 51.8021 36.768C51.0597 39.3235 48.419 41.0349 45.9183 40.66C43.0985 40.2362 41.1676 38.049 41.1285 35.2392C41.0276 28.0842 45.8401 21.3921 52.6911 19.156C54.1173 18.6899 55.1299 19.0713 55.4848 20.2089C55.8105 21.2422 55.2048 22.1484 53.8633 22.6341C48.533 24.5638 45.0359 29.1208 44.808 34.434C44.7396 36.0737 45.3192 36.9766 46.4881 37.0418C47.605 37.1037 48.3474 36.1845 48.4613 34.6035C48.7935 29.9716 52.1082 26.3762 56.6766 25.6916C60.9584 25.0495 65.2663 27.5692 66.9139 31.6764C69.0532 37.0059 66.0478 42.9874 60.4895 44.4673C57.1911 45.3474 56.1817 46.6643 56.1784 50.0967C56.1784 51.4788 56.1523 52.8609 56.1882 54.243C56.2207 55.6023 56.9143 56.3813 58.0051 56.3846C59.1317 56.3846 59.7895 55.6447 59.822 54.2658C59.8513 53.1282 59.809 51.9906 59.835 50.853C59.8676 49.1873 60.4407 48.4115 61.9841 47.8541C67.7442 45.7744 71.1762 41.1164 71.2218 35.3207C71.2674 29.4859 67.8712 24.7757 62.059 22.608C60.7337 22.1158 60.1672 21.1835 60.5579 20.1339C60.9617 19.0484 61.9125 18.7127 63.2963 19.1593C69.8477 21.2846 74.5365 27.403 74.8524 34.2352C75.191 41.5466 71.2153 47.991 64.5467 50.7747C63.6545 51.1463 63.407 51.5929 63.4722 52.4795C63.5373 53.3662 63.508 54.2691 63.4201 55.1557C63.1465 57.9395 60.8835 60.0061 58.1223 60.0452C55.2797 60.0843 52.906 58.0666 52.6227 55.2535C52.5022 54.0474 52.6032 52.8185 52.6032 51.6027Z" fill="#2F9FEE"/>
<path d="M58.0746 63.2093C54.9907 63.1772 52.7647 65.5403 52.7271 68.8909C52.6864 72.3249 54.878 74.7874 57.9807 74.7938C61.0552 74.8002 63.2562 72.4115 63.2719 69.048C63.2907 65.6685 61.1273 63.2381 58.0778 63.2061L58.0746 63.2093ZM57.9557 71.1899C56.8411 71.1674 56.2306 70.3723 56.2431 68.9583C56.2556 67.5603 56.9006 66.7908 58.0402 66.8132C59.1611 66.8357 59.7685 67.6276 59.7559 69.0416C59.7434 70.4332 59.0891 71.2123 57.9588 71.1899H57.9557Z" fill="#2F9FEE"/>
</svg>
