<svg width="109" height="129" viewBox="0 0 109 129" fill="none" xmlns="http://www.w3.org/2000/svg">
<g clip-path="url(#clip0_1868_258)">
<path d="M108.974 122.427C108.897 121.357 108.917 120.248 108.937 119.175C108.947 118.666 108.957 118.139 108.953 117.616C108.95 114.978 107.589 114.405 106.453 114.388H106.403C105.456 114.388 103.868 114.814 103.865 117.679C103.865 118.196 103.862 118.716 103.858 119.232C103.848 120.525 103.838 121.864 103.882 123.186C103.895 123.643 103.812 123.78 103.775 123.819C103.738 123.856 103.601 123.946 103.143 123.946H103.093C101.341 123.923 99.7227 123.909 98.138 123.909C96.433 123.909 94.768 123.923 93.19 123.953H93.1332C92.9593 123.953 92.8691 123.936 92.8256 123.926C92.8122 123.876 92.7955 123.76 92.7955 123.506C92.8256 118.669 92.8189 113.748 92.8156 108.994V106.086C92.8156 105.629 92.8156 105.156 92.7086 104.677C92.4378 103.444 91.5518 102.738 90.2747 102.738C88.9876 102.738 88.0983 103.451 87.8341 104.683C87.7305 105.16 87.7305 105.633 87.7305 106.086V109.181C87.7205 113.878 87.7138 118.736 87.7472 123.513C87.7472 123.756 87.7305 123.869 87.7205 123.923C87.6703 123.936 87.5667 123.953 87.3594 123.953C76.4938 123.939 65.3742 123.933 54.308 123.933C43.2419 123.933 32.627 123.939 21.6879 123.949C21.4506 123.949 21.3369 123.933 21.2834 123.919C21.27 123.869 21.2533 123.763 21.2566 123.546C21.2901 119.099 21.2867 114.581 21.2834 110.207C21.2834 108.878 21.2834 107.545 21.2834 106.216C21.2834 105.273 21.2834 102.774 18.786 102.724H18.7091C16.1916 102.724 16.1916 105.296 16.1916 106.262V109.654C16.1916 114.221 16.1883 118.942 16.2016 123.586C16.2016 123.66 16.2016 123.829 16.1916 123.936C16.1515 123.943 16.0947 123.946 16.0111 123.946H15.9743C14.4698 123.919 12.8484 123.909 11.0096 123.909C9.17079 123.909 7.48913 123.919 5.7005 123.933H5.68378C5.40963 123.933 5.26587 123.886 5.22241 123.843C5.17561 123.796 5.12546 123.633 5.12546 123.326C5.13214 121.311 5.11208 119.259 5.09202 117.276C5.04856 113.175 5.0051 108.938 5.21907 104.79C5.56342 98.1268 8.9936 93.286 15.1351 90.7874C21.3803 88.2455 27.7827 85.7768 33.971 83.3848C36.7693 82.3053 39.6612 81.1893 42.4997 80.0799C44.9035 79.1404 45.7694 77.8977 45.8028 75.3258C45.8128 74.6395 45.8095 73.9465 45.8028 73.2736C45.8028 72.5573 45.7961 71.8144 45.8061 71.0914C45.8396 69.0225 45.0171 67.3201 43.3656 66.0342C39.9421 63.3689 37.7756 59.7409 36.9331 55.26C36.3915 52.3849 34.9539 50.9257 32.1222 50.3793C29.909 49.9529 28.2106 48.5736 27.5787 46.6947C26.9769 44.9023 27.4283 42.9933 28.8157 41.4542C30.688 39.382 30.7983 36.8333 29.12 34.458C28.5115 33.5984 28.2307 32.7256 28.2307 31.7095C28.2307 30.097 28.2273 28.4845 28.2206 26.8721C28.2106 23.5972 28.1972 20.2124 28.2474 16.8875C28.331 11.2073 31.7076 6.82963 37.0535 5.46037C37.9796 5.22383 38.812 5.10723 39.5977 5.10723H40.6007C42.5732 5.10723 44.5491 5.10723 46.5216 5.1039C48.4941 5.1039 50.47 5.10057 52.4425 5.10057C56.0231 5.10057 58.9384 5.10723 61.6097 5.12055C64.9295 5.13721 66.1331 6.08003 66.9689 9.32161C67.8148 12.5998 70.0915 14.3322 73.5484 14.3322H73.6487C75.4775 14.3322 77.4099 15.4416 77.4868 17.2973C77.7676 24.2135 77.7542 29.8105 77.4467 34.9111C77.3363 36.7534 77.4901 38.8656 79.4693 40.5746C81.3817 42.2271 82.0603 44.1727 81.4853 46.3582C80.9103 48.547 79.3523 49.8663 76.7245 50.396C74.1368 50.9157 72.5321 52.5215 72.0874 55.0435C71.275 59.641 69.0317 63.4023 65.4176 66.2241C63.9433 67.3768 63.1843 68.9293 63.1609 70.8382C63.1476 72.1109 63.1476 73.5001 63.1609 75.2159C63.1877 77.9044 64.1405 79.267 66.678 80.2465L70.3356 81.659C78.0652 84.6407 85.7948 87.6191 93.5277 90.5942C98.245 92.4099 101.388 95.788 103.133 100.925C103.878 103.117 103.872 105.383 103.865 107.778V107.981C103.865 108.778 104.136 109.494 104.637 109.994C105.095 110.453 105.721 110.703 106.399 110.703C107.854 110.697 108.893 109.581 108.937 107.985C108.96 107.139 108.95 106.289 108.937 105.466C108.88 101.128 107.573 97.0007 105.156 93.5326C102.738 90.0645 99.3149 87.4026 95.2595 85.8368L89.9905 83.8045C83.8858 81.4491 77.7776 79.0938 71.6729 76.735C71.2817 76.5851 70.8671 76.4618 70.4626 76.3452C69.6201 76.0987 68.7475 75.8455 68.3497 75.3691C68.0154 74.9693 68.0922 74.2164 68.1725 73.4235C68.2293 72.8705 68.2895 72.2974 68.2226 71.7377C68.1257 70.8815 68.4032 70.3185 69.2824 69.5922C73.3746 66.2074 75.9355 61.8731 76.895 56.7126C77.0722 55.7531 77.4166 55.4099 78.4262 55.1867C82.174 54.3572 85.1027 51.7319 86.2628 48.1672C87.3928 44.6957 86.5971 40.9744 84.1365 38.2093C82.9363 36.86 82.5351 35.7406 82.612 33.9349C82.7758 30.0304 82.739 26.0592 82.7056 22.2179C82.6956 20.962 82.6855 19.7093 82.6788 18.4533C82.6588 13.0596 78.8909 9.29496 73.5117 9.29496H73.398C72.492 9.29496 72.1108 8.98846 71.8801 8.07229C70.5596 2.73851 67.2999 0.123266 61.934 0.069962C57.0963 0.0233207 53.1747 0 49.594 0C46.0134 0 42.4228 0.0233207 39.1564 0.0732936C30.9989 0.19656 23.8878 6.89626 23.3027 15.0085C22.9985 19.2462 23.0653 23.5506 23.1322 27.715C23.1556 29.2841 23.1824 30.9066 23.189 32.4957C23.1957 34.1548 23.7641 35.7739 24.8406 37.1698C25.1682 37.5963 25.2318 37.8695 24.7637 38.4558C22.3298 41.5075 21.6244 45.1955 22.8313 48.5736C24.0416 51.9651 26.9469 54.3905 30.7983 55.2267C31.6274 55.4066 31.9116 55.7031 32.0553 56.5493C32.9212 61.5566 34.9807 65.4312 38.1768 68.0597C40.6107 70.062 40.9684 72.1742 40.7578 74.7228C40.711 75.3025 40.594 75.4091 40.156 75.579C37.3009 76.6817 34.4023 77.8244 31.604 78.9272C25.9004 81.176 19.9996 83.5014 14.1422 85.6169C10.1504 87.0594 6.55303 89.8146 4.01884 93.376C1.30746 97.1806 -0.0732981 101.645 0.020313 106.289C0.133983 111.839 0.127297 117.283 0.0035967 122.46C-0.0766413 125.808 1.18376 127.871 3.97204 128.953C4.04893 128.983 4.13251 129 4.21609 129H104.781C104.865 129 104.948 128.983 105.025 128.953C107.88 127.841 109.211 125.645 108.974 122.427Z" fill="#404041"/>
<path d="M48.9512 46.688C48.8877 45.1955 48.7172 43.6797 49.1016 42.2204C50.0076 38.769 52.2744 36.6968 55.7447 35.8672C58.9709 35.0943 60.813 32.529 60.5355 29.2675C60.2781 26.2658 57.6303 23.8871 54.5311 23.8771C51.3984 23.8671 48.7773 26.1692 48.4631 29.1909C48.3828 29.9738 48.3461 30.78 48.1287 31.5262C47.3665 34.1382 44.6551 35.8872 42.0875 35.5041C39.1922 35.071 37.2097 32.8355 37.1696 29.9638C37.0659 22.6511 42.0073 15.8114 49.0415 13.526C50.5058 13.0496 51.5455 13.4394 51.91 14.6021C52.2443 15.6582 51.6224 16.5844 50.245 17.0808C44.7721 19.053 41.1815 23.7105 40.9474 29.1409C40.8772 30.8166 41.4723 31.7395 42.6726 31.8061C43.8193 31.8694 44.5816 30.9299 44.6986 29.3141C45.0396 24.58 48.443 20.9053 53.1336 20.2057C57.53 19.5494 61.9531 22.1247 63.6448 26.3224C65.8413 31.7695 62.7555 37.8828 57.0485 39.3953C53.6618 40.2948 52.6254 41.6408 52.6221 45.1489C52.6221 46.5614 52.5953 47.974 52.6321 49.3866C52.6655 50.7758 53.3776 51.572 54.4976 51.5754C55.6544 51.5754 56.3297 50.8191 56.3632 49.4099C56.3933 48.2472 56.3498 47.0845 56.3765 45.9218C56.41 44.2194 56.9984 43.4265 58.5831 42.8568C64.4973 40.7313 68.0211 35.9705 68.0679 30.0471C68.1147 24.0836 64.6277 19.2696 58.66 17.0541C57.2993 16.551 56.7176 15.5982 57.1187 14.5255C57.5333 13.4161 58.5095 13.0729 59.9304 13.5293C66.657 15.7015 71.4713 21.9548 71.7956 28.9377C72.1433 36.4103 68.0612 42.9967 61.2142 45.8418C60.2982 46.2216 60.0441 46.678 60.111 47.5842C60.1778 48.4904 60.1477 49.4132 60.0575 50.3194C59.7766 53.1645 57.4531 55.2767 54.618 55.3167C51.6993 55.3567 49.2621 53.2944 48.9712 50.4193C48.8475 49.1867 48.9512 47.9307 48.9512 46.688Z" fill="#619DEA"/>
<path d="M54.582 58.4916C51.2889 58.4583 48.9118 60.9136 48.8717 64.3951C48.8282 67.9631 51.1685 70.5218 54.4817 70.5284C57.7647 70.5351 60.115 68.0531 60.1318 64.5583C60.1518 61.0469 57.8416 58.5216 54.5853 58.4883L54.582 58.4916ZM54.4549 66.7838C53.2647 66.7605 52.6128 65.9342 52.6262 64.465C52.6395 63.0125 53.3282 62.2129 54.5452 62.2362C55.7421 62.2596 56.3907 63.0825 56.3773 64.5517C56.3639 65.9975 55.6652 66.8071 54.4583 66.7838H54.4549Z" fill="#619DEA"/>
</g>
<defs>
<clipPath id="clip0_1868_258">
<rect width="109" height="129" fill="white"/>
</clipPath>
</defs>
</svg>
