<svg width="848" height="713" viewBox="0 0 848 713" fill="none" xmlns="http://www.w3.org/2000/svg">
<path d="M119 526L598 526C601.314 526 604 523.314 604 520V176C604 172.686 601.314 170 598 170L119 170C115.686 170 113 172.686 113 176L113 520C113 523.314 115.686 526 119 526Z" fill="#E3E3E3"/>
<circle cx="130.5" cy="186.5" r="6.5" fill="white"/>
<circle cx="160.5" cy="186.5" r="6.5" fill="white"/>
<circle cx="190.5" cy="186.5" r="6.5" fill="white"/>
<g clip-path="url(#clip0_678_187)">
<mask id="path-5-inside-1_678_187" fill="white">
<path d="M544.105 297.056C543.399 296.61 542.683 296.172 541.938 295.798C541.473 295.564 541.378 295.269 541.476 294.798C541.72 293.638 541.844 292.46 541.95 291.278C542.226 288.212 542.047 285.172 541.481 282.153C541.398 281.715 541.467 281.429 541.912 281.209C542.612 280.864 543.278 280.444 543.948 280.038C546.017 278.785 546.569 276.749 545.366 274.625C542.947 270.356 540.513 266.097 538.059 261.849C536.871 259.794 534.811 259.248 532.758 260.392C532.029 260.799 531.302 261.212 530.598 261.661C530.279 261.864 530.072 261.85 529.785 261.6C526.493 258.733 522.797 256.568 518.696 255.111C518.355 254.989 518.208 254.817 518.223 254.43C518.254 253.614 518.241 252.796 518.23 251.978C518.214 250.738 517.831 249.666 516.856 248.841C516.389 248.446 515.8 248.317 515.303 247.999H498.698C498.618 248.052 498.543 248.124 498.455 248.154C496.855 248.695 495.94 249.806 495.815 251.507C495.743 252.477 495.759 253.456 495.779 254.43C495.787 254.815 495.647 254.99 495.306 255.111C491.202 256.565 487.519 258.755 484.223 261.61C483.926 261.868 483.719 261.848 483.414 261.659C482.682 261.206 481.938 260.769 481.183 260.355C479.195 259.267 477.131 259.8 475.987 261.772C473.487 266.085 471.012 270.412 468.568 274.756C467.444 276.753 468.029 278.781 469.981 279.987C470.626 280.386 471.262 280.81 471.948 281.12C472.565 281.397 472.605 281.792 472.499 282.371C472.322 283.328 472.179 284.294 472.084 285.262C471.769 288.481 471.909 291.684 472.525 294.859C472.614 295.318 472.493 295.574 472.071 295.79C471.352 296.157 470.661 296.584 469.972 297.009C468.028 298.212 467.451 300.247 468.575 302.247C471.02 306.591 473.493 310.919 475.994 315.23C477.132 317.191 479.215 317.718 481.197 316.628C481.928 316.225 482.654 315.808 483.357 315.357C483.694 315.141 483.917 315.131 484.236 315.409C487.508 318.256 491.184 320.408 495.256 321.861C495.688 322.015 495.797 322.239 495.779 322.665C495.747 323.428 495.759 324.193 495.772 324.958C495.815 327.471 497.32 328.979 499.796 328.991C500.866 328.996 501.937 328.992 503.007 328.991C506.792 328.991 510.578 329.003 514.363 328.986C516.506 328.977 517.97 327.655 518.181 325.507C518.273 324.566 518.243 323.611 518.223 322.663C518.214 322.237 518.315 322.013 518.747 321.859C522.821 320.408 526.484 318.232 529.762 315.397C530.042 315.155 530.246 315.113 530.57 315.314C531.322 315.785 532.089 316.234 532.87 316.654C534.8 317.691 536.864 317.189 537.963 315.304C540.499 310.952 542.997 306.578 545.461 302.185C546.54 300.262 545.959 298.223 544.106 297.052L544.105 297.056ZM543.3 301.237C540.899 305.454 538.49 309.666 536.074 313.875C535.502 314.869 534.845 315.043 533.856 314.485C532.832 313.909 531.815 313.322 530.809 312.715C530.158 312.323 529.587 312.38 529.03 312.891C525.49 316.14 521.45 318.522 516.891 319.998C516.171 320.23 515.856 320.715 515.875 321.481C515.902 322.588 515.888 323.696 515.881 324.803C515.872 326.137 515.399 326.617 514.095 326.62C511.719 326.623 509.344 326.621 506.969 326.621C504.593 326.621 502.27 326.623 499.922 326.62C498.604 326.618 498.131 326.146 498.121 324.818C498.112 323.685 498.104 322.551 498.125 321.418C498.138 320.678 497.805 320.223 497.126 320.004C492.565 318.534 488.521 316.16 484.974 312.918C484.391 312.385 483.804 312.335 483.128 312.75C482.149 313.35 481.152 313.921 480.151 314.485C479.159 315.045 478.502 314.874 477.931 313.879C475.514 309.672 473.105 305.459 470.704 301.242C470.116 300.208 470.305 299.566 471.337 298.952C472.234 298.418 473.139 297.898 474.041 297.37C475.102 296.748 475.239 296.449 474.99 295.259C474.447 292.671 474.199 290.055 474.3 287.409C474.37 285.565 474.584 283.735 474.956 281.926C475.256 280.468 475.173 280.275 473.879 279.522C473.021 279.024 472.157 278.537 471.305 278.029C470.315 277.438 470.119 276.781 470.681 275.794C473.095 271.554 475.518 267.319 477.951 263.09C478.513 262.112 479.178 261.958 480.182 262.529C481.18 263.096 482.176 263.67 483.157 264.267C483.833 264.677 484.419 264.617 485.002 264.081C488.522 260.849 492.544 258.485 497.074 257.011C497.785 256.779 498.141 256.331 498.124 255.555C498.1 254.422 498.111 253.288 498.12 252.155C498.132 250.867 498.61 250.38 499.868 250.379C504.618 250.376 509.368 250.376 514.12 250.379C515.384 250.38 515.866 250.863 515.88 252.142C515.89 253.223 515.877 254.303 515.883 255.385C515.89 256.475 516.035 256.693 517.068 257.042C520.936 258.347 524.469 260.269 527.633 262.872C528.119 263.271 528.594 263.684 529.057 264.109C529.62 264.625 530.2 264.652 530.842 264.268C531.828 263.677 532.82 263.099 533.818 262.531C534.841 261.949 535.509 262.124 536.1 263.152C538.501 267.338 540.896 271.528 543.285 275.722C543.893 276.79 543.707 277.427 542.631 278.066C541.733 278.598 540.828 279.12 539.926 279.647C538.915 280.238 538.76 280.563 539.003 281.702C539.559 284.317 539.802 286.959 539.704 289.63C539.636 291.475 539.413 293.304 539.035 295.111C538.747 296.493 538.845 296.723 540.024 297.413C540.903 297.927 541.786 298.432 542.661 298.952C543.697 299.567 543.888 300.208 543.3 301.24V301.237Z"/>
</mask>
<path d="M544.105 297.056C543.399 296.61 542.683 296.172 541.938 295.798C541.473 295.564 541.378 295.269 541.476 294.798C541.72 293.638 541.844 292.46 541.95 291.278C542.226 288.212 542.047 285.172 541.481 282.153C541.398 281.715 541.467 281.429 541.912 281.209C542.612 280.864 543.278 280.444 543.948 280.038C546.017 278.785 546.569 276.749 545.366 274.625C542.947 270.356 540.513 266.097 538.059 261.849C536.871 259.794 534.811 259.248 532.758 260.392C532.029 260.799 531.302 261.212 530.598 261.661C530.279 261.864 530.072 261.85 529.785 261.6C526.493 258.733 522.797 256.568 518.696 255.111C518.355 254.989 518.208 254.817 518.223 254.43C518.254 253.614 518.241 252.796 518.23 251.978C518.214 250.738 517.831 249.666 516.856 248.841C516.389 248.446 515.8 248.317 515.303 247.999H498.698C498.618 248.052 498.543 248.124 498.455 248.154C496.855 248.695 495.94 249.806 495.815 251.507C495.743 252.477 495.759 253.456 495.779 254.43C495.787 254.815 495.647 254.99 495.306 255.111C491.202 256.565 487.519 258.755 484.223 261.61C483.926 261.868 483.719 261.848 483.414 261.659C482.682 261.206 481.938 260.769 481.183 260.355C479.195 259.267 477.131 259.8 475.987 261.772C473.487 266.085 471.012 270.412 468.568 274.756C467.444 276.753 468.029 278.781 469.981 279.987C470.626 280.386 471.262 280.81 471.948 281.12C472.565 281.397 472.605 281.792 472.499 282.371C472.322 283.328 472.179 284.294 472.084 285.262C471.769 288.481 471.909 291.684 472.525 294.859C472.614 295.318 472.493 295.574 472.071 295.79C471.352 296.157 470.661 296.584 469.972 297.009C468.028 298.212 467.451 300.247 468.575 302.247C471.02 306.591 473.493 310.919 475.994 315.23C477.132 317.191 479.215 317.718 481.197 316.628C481.928 316.225 482.654 315.808 483.357 315.357C483.694 315.141 483.917 315.131 484.236 315.409C487.508 318.256 491.184 320.408 495.256 321.861C495.688 322.015 495.797 322.239 495.779 322.665C495.747 323.428 495.759 324.193 495.772 324.958C495.815 327.471 497.32 328.979 499.796 328.991C500.866 328.996 501.937 328.992 503.007 328.991C506.792 328.991 510.578 329.003 514.363 328.986C516.506 328.977 517.97 327.655 518.181 325.507C518.273 324.566 518.243 323.611 518.223 322.663C518.214 322.237 518.315 322.013 518.747 321.859C522.821 320.408 526.484 318.232 529.762 315.397C530.042 315.155 530.246 315.113 530.57 315.314C531.322 315.785 532.089 316.234 532.87 316.654C534.8 317.691 536.864 317.189 537.963 315.304C540.499 310.952 542.997 306.578 545.461 302.185C546.54 300.262 545.959 298.223 544.106 297.052L544.105 297.056ZM543.3 301.237C540.899 305.454 538.49 309.666 536.074 313.875C535.502 314.869 534.845 315.043 533.856 314.485C532.832 313.909 531.815 313.322 530.809 312.715C530.158 312.323 529.587 312.38 529.03 312.891C525.49 316.14 521.45 318.522 516.891 319.998C516.171 320.23 515.856 320.715 515.875 321.481C515.902 322.588 515.888 323.696 515.881 324.803C515.872 326.137 515.399 326.617 514.095 326.62C511.719 326.623 509.344 326.621 506.969 326.621C504.593 326.621 502.27 326.623 499.922 326.62C498.604 326.618 498.131 326.146 498.121 324.818C498.112 323.685 498.104 322.551 498.125 321.418C498.138 320.678 497.805 320.223 497.126 320.004C492.565 318.534 488.521 316.16 484.974 312.918C484.391 312.385 483.804 312.335 483.128 312.75C482.149 313.35 481.152 313.921 480.151 314.485C479.159 315.045 478.502 314.874 477.931 313.879C475.514 309.672 473.105 305.459 470.704 301.242C470.116 300.208 470.305 299.566 471.337 298.952C472.234 298.418 473.139 297.898 474.041 297.37C475.102 296.748 475.239 296.449 474.99 295.259C474.447 292.671 474.199 290.055 474.3 287.409C474.37 285.565 474.584 283.735 474.956 281.926C475.256 280.468 475.173 280.275 473.879 279.522C473.021 279.024 472.157 278.537 471.305 278.029C470.315 277.438 470.119 276.781 470.681 275.794C473.095 271.554 475.518 267.319 477.951 263.09C478.513 262.112 479.178 261.958 480.182 262.529C481.18 263.096 482.176 263.67 483.157 264.267C483.833 264.677 484.419 264.617 485.002 264.081C488.522 260.849 492.544 258.485 497.074 257.011C497.785 256.779 498.141 256.331 498.124 255.555C498.1 254.422 498.111 253.288 498.12 252.155C498.132 250.867 498.61 250.38 499.868 250.379C504.618 250.376 509.368 250.376 514.12 250.379C515.384 250.38 515.866 250.863 515.88 252.142C515.89 253.223 515.877 254.303 515.883 255.385C515.89 256.475 516.035 256.693 517.068 257.042C520.936 258.347 524.469 260.269 527.633 262.872C528.119 263.271 528.594 263.684 529.057 264.109C529.62 264.625 530.2 264.652 530.842 264.268C531.828 263.677 532.82 263.099 533.818 262.531C534.841 261.949 535.509 262.124 536.1 263.152C538.501 267.338 540.896 271.528 543.285 275.722C543.893 276.79 543.707 277.427 542.631 278.066C541.733 278.598 540.828 279.12 539.926 279.647C538.915 280.238 538.76 280.563 539.003 281.702C539.559 284.317 539.802 286.959 539.704 289.63C539.636 291.475 539.413 293.304 539.035 295.111C538.747 296.493 538.845 296.723 540.024 297.413C540.903 297.927 541.786 298.432 542.661 298.952C543.697 299.567 543.888 300.208 543.3 301.24V301.237Z" fill="#2F9FEE" stroke="#2F9FEE" stroke-width="6" mask="url(#path-5-inside-1_678_187)"/>
<mask id="path-6-inside-2_678_187" fill="white">
<path d="M507.019 264.496C493.804 264.531 483.266 275.177 483.234 288.518C483.202 301.723 493.909 312.534 506.982 312.5C520.198 312.465 530.674 301.818 530.785 288.477C530.738 275.271 520.094 264.461 507.02 264.496H507.019ZM506.976 310.144C495.195 310.092 485.502 300.343 485.581 288.493C485.664 276.35 495.218 266.833 507.064 266.882C519.111 266.933 528.409 276.657 528.413 288.542C528.418 300.471 518.682 310.196 506.976 310.143V310.144Z"/>
</mask>
<path d="M507.019 264.496C493.804 264.531 483.266 275.177 483.234 288.518C483.202 301.723 493.909 312.534 506.982 312.5C520.198 312.465 530.674 301.818 530.785 288.477C530.738 275.271 520.094 264.461 507.02 264.496H507.019ZM506.976 310.144C495.195 310.092 485.502 300.343 485.581 288.493C485.664 276.35 495.218 266.833 507.064 266.882C519.111 266.933 528.409 276.657 528.413 288.542C528.418 300.471 518.682 310.196 506.976 310.143V310.144Z" fill="#2F9FEE"/>
<path d="M507.019 264.496V261.496L507.011 261.496L507.019 264.496ZM483.234 288.518L486.234 288.525L486.234 288.525L483.234 288.518ZM506.982 312.5L506.99 315.5H506.991L506.982 312.5ZM530.785 288.477L533.785 288.502L533.785 288.484L533.785 288.467L530.785 288.477ZM507.02 264.496V267.496L507.028 267.496L507.02 264.496ZM506.976 310.144L506.963 313.144L509.976 313.158V310.144H506.976ZM485.581 288.493L482.581 288.472L482.581 288.473L485.581 288.493ZM507.064 266.882L507.077 263.882L507.076 263.882L507.064 266.882ZM528.413 288.542L531.413 288.54V288.54L528.413 288.542ZM506.976 310.143L506.99 307.143L503.976 307.13V310.143H506.976ZM507.011 261.496C492.118 261.535 480.27 273.547 480.234 288.511L486.234 288.525C486.262 276.808 495.49 267.526 507.027 267.496L507.011 261.496ZM480.234 288.511C480.198 303.35 492.226 315.539 506.99 315.5L506.975 309.5C495.592 309.53 486.206 300.096 486.234 288.525L480.234 288.511ZM506.991 315.5C521.897 315.46 533.661 303.439 533.785 288.502L527.785 288.452C527.687 300.197 518.498 309.469 506.974 309.5L506.991 315.5ZM533.785 288.467C533.732 273.654 521.79 261.457 507.012 261.496L507.028 267.496C518.397 267.466 527.743 276.889 527.785 288.488L533.785 288.467ZM507.02 261.496H507.019V267.496H507.02V261.496ZM506.99 307.144C496.864 307.099 488.513 298.7 488.581 288.513L482.581 288.473C482.491 301.986 493.525 313.084 506.963 313.144L506.99 307.144ZM488.581 288.513C488.653 277.985 496.899 269.84 507.052 269.882L507.076 263.882C493.538 263.826 482.675 274.715 482.581 288.472L488.581 288.513ZM507.051 269.882C517.391 269.926 525.409 278.253 525.413 288.543L531.413 288.54C531.408 275.061 520.831 263.94 507.077 263.882L507.051 269.882ZM525.413 288.543C525.417 298.836 517.008 307.188 506.99 307.143L506.963 313.143C520.357 313.203 531.418 302.107 531.413 288.54L525.413 288.543ZM503.976 310.143V310.144H509.976V310.143H503.976Z" fill="#2F9FEE" mask="url(#path-6-inside-2_678_187)"/>
<path d="M528.237 267.035C526.953 265.723 525.541 264.554 524.037 263.505C523.385 263.05 522.721 263.164 522.323 263.744C521.957 264.277 522.081 264.925 522.66 265.411C522.96 265.662 523.281 265.889 523.593 266.126C527.615 269.184 530.6 273.053 532.557 277.743C533.032 278.883 533.362 280.07 533.775 281.229C534.003 281.867 534.472 282.147 535.12 282.019C535.74 281.897 536.034 281.464 536.031 280.738C535.993 280.592 535.94 280.363 535.876 280.137C534.444 275.107 531.873 270.75 528.236 267.034L528.237 267.035Z" fill="#2F9FEE"/>
<path d="M504.515 316.355C504.413 316.336 504.307 316.339 504.204 316.327C499.789 315.833 495.699 314.409 491.961 311.97C490.535 311.038 489.216 309.972 487.967 308.813C487.618 308.489 487.245 308.182 486.721 308.294C486.253 308.394 485.932 308.668 485.801 309.153C485.638 309.752 485.94 310.151 486.337 310.528C488.733 312.79 491.405 314.64 494.383 316.031C497.526 317.499 500.828 318.387 504.388 318.724C505.042 318.746 505.547 318.37 505.624 317.715C505.706 317.009 505.295 316.502 504.516 316.357L504.515 316.355Z" fill="#2F9FEE"/>
<path d="M482.686 301.913C482.437 301.512 482.088 301.261 481.716 301.284C480.672 301.312 480.191 302.247 480.681 303.132C481.124 303.933 481.605 304.714 482.104 305.482C482.546 306.165 483.201 306.345 483.771 305.994C484.347 305.639 484.499 304.959 484.106 304.265C483.656 303.468 483.169 302.691 482.686 301.913Z" fill="#2F9FEE"/>
<path d="M515.095 261.628C516.089 262.196 517.193 262.507 518.27 262.861C518.804 262.771 519.233 262.573 519.392 262.014C519.554 261.444 519.428 260.912 518.895 260.67C517.953 260.245 516.98 259.879 515.994 259.571C515.434 259.395 514.952 259.695 514.728 260.233C514.509 260.758 514.576 261.331 515.095 261.628Z" fill="#2F9FEE"/>
</g>
<circle cx="600" cy="341" r="9" fill="#2F9FEE"/>
<g opacity="0.15">
<path d="M356.5 713C159.89 713 0 553.045 0 356.5C0 159.955 159.955 0 356.5 0C553.045 0 713 159.955 713 356.5C713 553.045 553.175 713 356.5 713ZM356.5 5.02337C162.742 5.02337 5.10442 162.661 5.10442 356.435C5.10442 550.209 162.807 707.847 356.5 707.847C550.193 707.847 707.912 550.209 707.912 356.435C707.912 162.661 550.339 5.02337 356.5 5.02337Z" fill="#E0E0E0"/>
<path d="M356.501 642.202C198.928 642.202 70.7334 514.008 70.7334 356.435C70.7334 198.862 198.992 70.668 356.501 70.668C514.009 70.668 642.333 198.878 642.333 356.435C642.333 513.992 514.138 642.202 356.501 642.202ZM356.501 75.8212C201.78 75.8212 75.8864 201.698 75.8864 356.435C75.8864 511.172 201.844 637.033 356.501 637.033C511.157 637.033 637.115 511.156 637.115 356.435C637.115 201.714 511.303 75.8212 356.501 75.8212Z" fill="#E0E0E0"/>
<path d="M356.501 571.405C237.965 571.405 141.531 474.971 141.531 356.435C141.531 237.899 238.029 141.466 356.501 141.466C474.972 141.466 571.47 237.899 571.47 356.435C571.47 474.971 475.102 571.405 356.501 571.405ZM356.501 146.619C300.885 146.7 247.571 168.834 208.251 208.167C168.931 247.499 146.813 300.819 146.749 356.435C146.749 472.119 240.881 566.252 356.566 566.252C412.221 566.252 465.597 544.143 504.951 504.788C544.305 465.434 566.414 412.058 566.414 356.403C566.414 300.747 544.305 247.371 504.951 208.017C465.597 168.663 412.221 146.554 356.566 146.554L356.501 146.619Z" fill="#E0E0E0"/>
<path d="M356.501 500.607C327.977 500.607 300.093 492.149 276.376 476.302C252.659 460.454 234.174 437.93 223.258 411.577C212.343 385.224 209.487 356.227 215.051 328.251C220.616 300.274 234.352 274.577 254.522 254.407C274.691 234.238 300.389 220.502 328.365 214.937C356.341 209.373 385.339 212.229 411.692 223.144C438.044 234.06 460.569 252.545 476.416 276.262C492.263 299.979 500.721 327.862 500.721 356.387C500.691 394.627 485.487 431.293 458.447 458.333C431.407 485.373 394.741 500.577 356.501 500.607V500.607ZM356.501 217.416C329.005 217.416 302.128 225.57 279.266 240.845C256.405 256.121 238.586 277.833 228.064 303.235C217.542 328.637 214.789 356.589 220.153 383.556C225.517 410.523 238.758 435.294 258.2 454.736C277.642 474.178 302.413 487.419 329.38 492.783C356.347 498.147 384.299 495.394 409.701 484.872C435.103 474.35 456.815 456.531 472.091 433.67C487.366 410.808 495.52 383.93 495.52 356.435C495.477 319.578 480.816 284.243 454.755 258.181C428.693 232.12 393.358 217.459 356.501 217.416V217.416Z" fill="#E0E0E0"/>
<path d="M356.501 429.809C341.989 429.809 327.803 425.506 315.737 417.444C303.67 409.381 294.266 397.922 288.712 384.514C283.159 371.107 281.706 356.354 284.537 342.121C287.368 327.888 294.356 314.813 304.618 304.552C314.879 294.29 327.953 287.302 342.187 284.471C356.42 281.64 371.173 283.093 384.58 288.646C397.988 294.2 409.447 303.604 417.51 315.671C425.572 327.737 429.875 341.923 429.875 356.435C429.854 375.889 422.117 394.539 408.361 408.295C394.605 422.051 375.955 429.788 356.501 429.809V429.809ZM356.501 288.214C343.008 288.214 329.818 292.215 318.6 299.711C307.381 307.208 298.637 317.862 293.473 330.328C288.31 342.794 286.959 356.511 289.591 369.745C292.223 382.978 298.721 395.134 308.262 404.675C317.802 414.216 329.958 420.713 343.192 423.346C356.425 425.978 370.142 424.627 382.608 419.463C395.074 414.3 405.729 405.556 413.225 394.337C420.721 383.118 424.722 369.928 424.722 356.435C424.701 338.348 417.506 321.009 404.717 308.219C391.928 295.43 374.588 288.236 356.501 288.214V288.214Z" fill="#E0E0E0"/>
</g>
<g clip-path="url(#clip1_678_187)">
<path d="M111 520L590 520C593.314 520 596 517.314 596 514V170C596 166.686 593.314 164 590 164L111 164C107.686 164 105 166.686 105 170L105 514C105 517.314 107.686 520 111 520Z" fill="white"/>
<path d="M130 349L420 349C423.314 349 426 346.314 426 343V231C426 227.686 423.314 225 420 225L130 225C126.686 225 124 227.686 124 231V343C124 346.314 126.686 349 130 349Z" fill="#F6F7FB"/>
<path d="M442 349H571C574.314 349 577 346.314 577 343V231C577 227.686 574.314 225 571 225H442C438.686 225 436 227.686 436 231V343C436 346.314 438.686 349 442 349Z" fill="#F6F7FB"/>
<path d="M133 489H262C265.314 489 268 486.314 268 483V371C268 367.686 265.314 365 262 365H133C129.686 365 127 367.686 127 371L127 483C127 486.314 129.686 489 133 489Z" fill="#F6F7FB"/>
<path d="M287 489L571 489C574.314 489 577 486.314 577 483V371C577 367.686 574.314 365 571 365H287C283.686 365 281 367.686 281 371V483C281 486.314 283.686 489 287 489Z" fill="#F6F7FB"/>
<path d="M111 206.999L590 206.999C593.314 206.999 596 204.313 596 200.999V170C596 166.686 593.314 164 590 164L111 164C107.686 164 105 166.686 105 170V200.999C105 204.313 107.686 206.999 111 206.999Z" fill="#2F9FEE"/>
<path d="M184.905 444.224L160 431.265V427.157L184.905 414.116V420.825L167.896 429.157L184.905 437.543V444.224V444.224Z" fill="#2F9FEE"/>
<path d="M209.274 410.349L196.501 449.999L189.865 449.94L202.829 410L209.275 410.349H209.274Z" fill="#2F9FEE"/>
<path d="M213.879 438.194L229.238 431.071L213.879 422.016V415.523L236 429.674V433.445L213.879 444.661V438.195V438.194Z" fill="#2F9FEE"/>
<g clip-path="url(#clip2_678_187)">
<path d="M363.463 446.485L334 431.213V426.371L363.463 411V418.907L343.341 428.726L363.463 438.611V446.485V446.485Z" fill="#2F9FEE"/>
<path d="M491.83 439.379L510 430.983L491.83 420.311V412.657L518 429.336V433.781L491.83 447V439.379V439.379Z" fill="#2F9FEE"/>
<path d="M371.258 414.053H376.812V439.858H371.258V414.053Z" fill="#2F9FEE"/>
<path d="M388.296 420.438H392.5V424.871H388.296V439.858H383.042V424.871H380.377V420.438H383.042V418.748C383.042 415.255 385.443 412.813 388.86 412.813C390.435 412.813 392.2 413.489 393.326 414.503L392.012 417.846C391.637 417.471 390.886 417.208 390.136 417.208C389.122 417.208 388.296 418.11 388.296 419.388V420.439V420.438Z" fill="#2F9FEE"/>
<path d="M408.148 419.987V424.607C404.095 424.607 401.505 426.936 401.505 430.579V439.856H396.025V420.438H401.505V424.044C402.781 421.528 405.183 419.987 408.148 419.987V419.987Z" fill="#2F9FEE"/>
<path d="M428.491 428.251V439.858H423.199V437.904C421.811 439.481 419.596 440.307 417.495 440.307C413.367 440.307 410.177 437.829 410.177 434.11C410.177 430.391 413.742 427.649 418.246 427.649C419.822 427.649 421.548 427.987 423.199 428.625V428.25C423.199 426.184 421.923 424.381 418.734 424.381C416.933 424.381 415.243 424.982 413.704 425.771L411.865 422.128C414.604 420.738 417.269 419.987 419.971 419.987C425.038 419.987 428.491 423.179 428.491 428.25V428.251ZM423.199 433.736V431.933C421.96 431.482 420.535 431.22 419.033 431.22C417.044 431.22 415.468 432.384 415.468 433.961C415.468 435.538 416.857 436.516 418.734 436.516C420.835 436.516 422.824 435.539 423.199 433.736Z" fill="#2F9FEE"/>
<path d="M463.355 427.499V439.895H458.1V428.438C458.1 426.185 456.674 424.607 454.648 424.607C452.471 424.607 450.895 426.071 450.895 428.137V439.894H445.641V428.437C445.641 426.184 444.215 424.605 442.226 424.605C440.011 424.605 438.473 426.07 438.473 428.136V439.855H432.993V420.438H438.473V422.992C439.411 421.152 441.325 419.987 443.727 419.987C446.392 419.987 448.681 421.34 449.883 423.518C450.897 421.377 453.298 419.987 456.188 419.987C460.242 419.987 463.356 423.105 463.356 427.499H463.355Z" fill="#2F9FEE"/>
<path d="M481.592 433.736L485.083 437.303C483.356 439.106 480.017 440.309 477.163 440.309C471.384 440.309 466.88 436.065 466.88 430.092C466.88 424.12 471.196 419.988 476.863 419.988C482.943 419.988 486.507 424.608 486.507 431.933H472.509C473.147 434.037 474.836 435.464 477.125 435.464C478.664 435.464 480.54 434.75 481.591 433.736H481.592ZM472.585 427.989H481.254C480.73 426.074 479.302 424.833 477.088 424.833C475.023 424.833 473.298 426.035 472.585 427.989Z" fill="#2F9FEE"/>
</g>
</g>
<path d="M249.145 302.082H229.451L226.62 309H216L234.021 265H244.641L262.662 309H251.979L249.147 302.082H249.145ZM245.863 294.076L239.298 278.001L232.733 294.076H245.861H245.863Z" fill="#2F9FEE"/>
<path d="M267.87 265H287.757C297.347 265 304.426 271.149 304.426 279.858C304.426 288.567 297.347 294.716 287.757 294.716H277.331V308.998H267.87V265ZM286.728 286.071C291.425 286.071 294.643 283.637 294.643 279.858C294.643 276.079 291.425 273.646 286.728 273.646H277.331V286.071H286.728Z" fill="#2F9FEE"/>
<path d="M310.476 265H320V309H310.476V265Z" fill="#2F9FEE"/>
<rect x="609" y="340" width="239" height="2" fill="#2F9FEE"/>
<defs>
<clipPath id="clip0_678_187">
<rect width="78" height="81" fill="white" transform="translate(468 248)"/>
</clipPath>
<clipPath id="clip1_678_187">
<rect width="491" height="356" fill="white" transform="translate(105 164)"/>
</clipPath>
<clipPath id="clip2_678_187">
<rect width="184" height="36" fill="white" transform="translate(334 411)"/>
</clipPath>
</defs>
</svg>
