<svg width="713" height="713" viewBox="0 0 713 713" fill="none" xmlns="http://www.w3.org/2000/svg">
<path d="M119 526L598 526C601.314 526 604 523.314 604 520V176C604 172.686 601.314 170 598 170L119 170C115.686 170 113 172.686 113 176L113 520C113 523.314 115.686 526 119 526Z" fill="#E3E3E3"/>
<circle cx="130.5" cy="186.5" r="6.5" fill="white"/>
<g opacity="0.15">
<path d="M356.5 713C159.89 713 0 553.045 0 356.5C0 159.955 159.955 0 356.5 0C553.045 0 713 159.955 713 356.5C713 553.045 553.175 713 356.5 713ZM356.5 5.02337C162.742 5.02337 5.10442 162.661 5.10442 356.435C5.10442 550.209 162.807 707.847 356.5 707.847C550.193 707.847 707.912 550.209 707.912 356.435C707.912 162.661 550.339 5.02337 356.5 5.02337Z" fill="#E0E0E0"/>
<path d="M356.501 642.202C198.928 642.202 70.7334 514.008 70.7334 356.435C70.7334 198.862 198.992 70.668 356.501 70.668C514.009 70.668 642.333 198.878 642.333 356.435C642.333 513.992 514.138 642.202 356.501 642.202ZM356.501 75.8212C201.78 75.8212 75.8864 201.698 75.8864 356.435C75.8864 511.172 201.844 637.033 356.501 637.033C511.157 637.033 637.115 511.156 637.115 356.435C637.115 201.714 511.303 75.8212 356.501 75.8212Z" fill="#E0E0E0"/>
<path d="M356.501 571.405C237.965 571.405 141.531 474.971 141.531 356.435C141.531 237.899 238.029 141.466 356.501 141.466C474.972 141.466 571.47 237.899 571.47 356.435C571.47 474.971 475.102 571.405 356.501 571.405ZM356.501 146.619C300.885 146.7 247.571 168.834 208.251 208.167C168.931 247.499 146.813 300.819 146.749 356.435C146.749 472.119 240.881 566.252 356.566 566.252C412.221 566.252 465.597 544.143 504.951 504.788C544.305 465.434 566.414 412.058 566.414 356.403C566.414 300.747 544.305 247.371 504.951 208.017C465.597 168.663 412.221 146.554 356.566 146.554L356.501 146.619Z" fill="#E0E0E0"/>
<path d="M356.501 500.607C327.977 500.607 300.093 492.149 276.376 476.302C252.659 460.454 234.174 437.93 223.258 411.577C212.343 385.224 209.487 356.227 215.051 328.251C220.616 300.274 234.352 274.577 254.522 254.407C274.691 234.238 300.389 220.502 328.365 214.937C356.341 209.373 385.339 212.229 411.692 223.144C438.044 234.06 460.569 252.545 476.416 276.262C492.263 299.979 500.721 327.862 500.721 356.387C500.691 394.627 485.487 431.293 458.447 458.333C431.407 485.373 394.741 500.577 356.501 500.607ZM356.501 217.416C329.005 217.416 302.128 225.57 279.266 240.845C256.405 256.121 238.586 277.833 228.064 303.235C217.542 328.637 214.789 356.589 220.153 383.556C225.517 410.523 238.758 435.294 258.2 454.736C277.642 474.178 302.413 487.419 329.38 492.783C356.347 498.147 384.299 495.394 409.701 484.872C435.103 474.35 456.815 456.531 472.091 433.67C487.366 410.808 495.52 383.93 495.52 356.435C495.477 319.578 480.816 284.243 454.755 258.181C428.693 232.12 393.358 217.459 356.501 217.416Z" fill="#E0E0E0"/>
<path d="M356.501 429.809C341.989 429.809 327.803 425.506 315.737 417.444C303.67 409.381 294.266 397.922 288.712 384.514C283.159 371.107 281.706 356.354 284.537 342.121C287.368 327.888 294.356 314.813 304.618 304.552C314.879 294.29 327.953 287.302 342.187 284.471C356.42 281.64 371.173 283.093 384.58 288.646C397.988 294.2 409.447 303.604 417.51 315.671C425.572 327.737 429.875 341.923 429.875 356.435C429.854 375.889 422.117 394.539 408.361 408.295C394.605 422.051 375.955 429.788 356.501 429.809ZM356.501 288.214C343.008 288.214 329.818 292.215 318.6 299.711C307.381 307.208 298.637 317.862 293.473 330.328C288.31 342.794 286.959 356.511 289.591 369.745C292.223 382.978 298.721 395.134 308.262 404.675C317.802 414.216 329.958 420.713 343.192 423.346C356.425 425.978 370.142 424.627 382.608 419.463C395.074 414.3 405.729 405.556 413.225 394.337C420.721 383.118 424.722 369.928 424.722 356.435C424.701 338.348 417.506 321.009 404.717 308.219C391.928 295.43 374.588 288.236 356.501 288.214Z" fill="#E0E0E0"/>
</g>
<g clip-path="url(#clip0_678_187)">
<path d="M110 519L589 519C592.314 519 595 516.314 595 513V169C595 165.686 592.314 163 589 163L110 163C106.686 163 104 165.686 104 169L104 513C104 516.314 106.686 519 110 519Z" fill="white"/>
<path d="M129 348L419 348C422.314 348 425 345.314 425 342V230C425 226.686 422.314 224 419 224L129 224C125.686 224 123 226.686 123 230V342C123 345.314 125.686 348 129 348Z" fill="#F6F7FB"/>
<path d="M441 348H570C573.314 348 576 345.314 576 342V230C576 226.686 573.314 224 570 224H441C437.686 224 435 226.686 435 230V342C435 345.314 437.686 348 441 348Z" fill="#F6F7FB"/>
<path d="M132 488H261C264.314 488 267 485.314 267 482V370C267 366.686 264.314 364 261 364H132C128.686 364 126 366.686 126 370L126 482C126 485.314 128.686 488 132 488Z" fill="#F6F7FB"/>
<path d="M286 488L570 488C573.314 488 576 485.314 576 482V370C576 366.686 573.314 364 570 364H286C282.686 364 280 366.686 280 370V482C280 485.314 282.686 488 286 488Z" fill="#F6F7FB"/>
<path d="M110 205.999L589 205.999C592.314 205.999 595 203.313 595 199.999V169C595 165.686 592.314 163 589 163L110 163C106.686 163 104 165.686 104 169V199.999C104 203.313 106.686 205.999 110 205.999Z" fill="#2F9FEE"/>
<path d="M183.905 443.224L159 430.265V426.157L183.905 413.116V419.825L166.896 428.157L183.905 436.543V443.224Z" fill="#2F9FEE"/>
<path d="M208.274 409.349L195.501 448.999L188.865 448.94L201.829 409L208.275 409.349H208.274Z" fill="#2F9FEE"/>
<path d="M212.879 437.194L228.238 430.071L212.879 421.016V414.523L235 428.674V432.445L212.879 443.661V437.195V437.194Z" fill="#2F9FEE"/>
<g clip-path="url(#clip1_678_187)">
<path d="M362.463 445.485L333 430.213V425.371L362.463 410V417.907L342.341 427.726L362.463 437.611V445.485Z" fill="#2F9FEE"/>
<path d="M490.83 438.379L509 429.983L490.83 419.311V411.657L517 428.336V432.781L490.83 446V438.379Z" fill="#2F9FEE"/>
<path d="M370.258 413.053H375.812V438.858H370.258V413.053Z" fill="#2F9FEE"/>
<path d="M387.296 419.438H391.5V423.871H387.296V438.858H382.042V423.871H379.377V419.438H382.042V417.748C382.042 414.255 384.443 411.813 387.86 411.813C389.435 411.813 391.2 412.489 392.326 413.503L391.012 416.846C390.637 416.471 389.886 416.208 389.136 416.208C388.122 416.208 387.296 417.11 387.296 418.388V419.439V419.438Z" fill="#2F9FEE"/>
<path d="M407.148 418.987V423.607C403.095 423.607 400.505 425.936 400.505 429.579V438.856H395.025V419.438H400.505V423.044C401.781 420.528 404.183 418.987 407.148 418.987Z" fill="#2F9FEE"/>
<path d="M427.491 427.251V438.858H422.199V436.904C420.811 438.481 418.596 439.307 416.495 439.307C412.367 439.307 409.177 436.829 409.177 433.11C409.177 429.391 412.742 426.649 417.246 426.649C418.822 426.649 420.548 426.987 422.199 427.625V427.25C422.199 425.184 420.923 423.381 417.734 423.381C415.933 423.381 414.243 423.982 412.704 424.771L410.865 421.128C413.604 419.738 416.269 418.987 418.971 418.987C424.038 418.987 427.491 422.179 427.491 427.25V427.251ZM422.199 432.736V430.933C420.96 430.482 419.535 430.22 418.033 430.22C416.044 430.22 414.468 431.384 414.468 432.961C414.468 434.538 415.857 435.516 417.734 435.516C419.835 435.516 421.824 434.539 422.199 432.736Z" fill="#2F9FEE"/>
<path d="M462.355 426.499V438.895H457.1V427.438C457.1 425.185 455.674 423.607 453.648 423.607C451.471 423.607 449.895 425.071 449.895 427.137V438.894H444.641V427.437C444.641 425.184 443.215 423.605 441.226 423.605C439.011 423.605 437.473 425.07 437.473 427.136V438.855H431.993V419.438H437.473V421.992C438.411 420.152 440.325 418.987 442.727 418.987C445.392 418.987 447.681 420.34 448.883 422.518C449.897 420.377 452.298 418.987 455.188 418.987C459.242 418.987 462.356 422.105 462.356 426.499H462.355Z" fill="#2F9FEE"/>
<path d="M480.592 432.736L484.083 436.303C482.356 438.106 479.017 439.309 476.163 439.309C470.384 439.309 465.88 435.065 465.88 429.092C465.88 423.12 470.196 418.988 475.863 418.988C481.943 418.988 485.507 423.608 485.507 430.933H471.509C472.147 433.037 473.836 434.464 476.125 434.464C477.664 434.464 479.54 433.75 480.591 432.736H480.592ZM471.585 426.989H480.254C479.73 425.074 478.302 423.833 476.088 423.833C474.023 423.833 472.298 425.035 471.585 426.989Z" fill="#2F9FEE"/>
</g>
</g>
<path d="M249.145 302.082H229.451L226.62 309H216L234.021 265H244.641L262.662 309H251.979L249.147 302.082H249.145ZM245.863 294.076L239.298 278.001L232.733 294.076H245.861H245.863Z" fill="#2F9FEE"/>
<path d="M267.87 265H287.757C297.347 265 304.426 271.149 304.426 279.858C304.426 288.567 297.347 294.716 287.757 294.716H277.331V308.998H267.87V265ZM286.728 286.071C291.425 286.071 294.643 283.637 294.643 279.858C294.643 276.079 291.425 273.646 286.728 273.646H277.331V286.071H286.728Z" fill="#2F9FEE"/>
<path d="M310.476 265H320V309H310.476V265Z" fill="#2F9FEE"/>
<circle cx="160.5" cy="186.5" r="6.5" fill="white"/>
<circle cx="130.5" cy="186.5" r="6.5" fill="white"/>
<circle cx="190.5" cy="186.5" r="6.5" fill="white"/>
<g clip-path="url(#clip2_678_187)">
<mask id="path-31-inside-1_678_187" fill="white">
<path d="M544.105 297.056C543.399 296.61 542.683 296.172 541.938 295.798C541.473 295.564 541.378 295.269 541.476 294.798C541.72 293.638 541.844 292.46 541.95 291.278C542.226 288.212 542.047 285.172 541.481 282.153C541.398 281.715 541.467 281.429 541.912 281.209C542.612 280.864 543.278 280.444 543.948 280.038C546.017 278.785 546.569 276.749 545.366 274.625C542.947 270.356 540.513 266.097 538.059 261.849C536.871 259.794 534.811 259.248 532.758 260.392C532.029 260.799 531.302 261.212 530.598 261.661C530.279 261.864 530.072 261.85 529.785 261.6C526.493 258.733 522.797 256.568 518.696 255.111C518.355 254.989 518.208 254.817 518.223 254.43C518.254 253.614 518.241 252.796 518.23 251.978C518.214 250.738 517.831 249.666 516.856 248.841C516.389 248.446 515.8 248.317 515.303 247.999H498.698C498.618 248.052 498.543 248.124 498.455 248.154C496.855 248.695 495.94 249.806 495.815 251.507C495.743 252.477 495.759 253.456 495.779 254.43C495.787 254.815 495.647 254.99 495.306 255.111C491.202 256.565 487.519 258.755 484.223 261.61C483.926 261.868 483.719 261.848 483.414 261.659C482.682 261.206 481.938 260.769 481.183 260.355C479.195 259.267 477.131 259.8 475.987 261.772C473.487 266.085 471.012 270.412 468.568 274.756C467.444 276.753 468.029 278.781 469.981 279.987C470.626 280.386 471.262 280.81 471.948 281.12C472.565 281.397 472.605 281.792 472.499 282.371C472.322 283.328 472.179 284.294 472.084 285.262C471.769 288.481 471.909 291.684 472.525 294.859C472.614 295.318 472.493 295.574 472.071 295.79C471.352 296.157 470.661 296.584 469.972 297.009C468.028 298.212 467.451 300.247 468.575 302.247C471.02 306.591 473.493 310.919 475.994 315.23C477.132 317.191 479.215 317.718 481.197 316.628C481.928 316.225 482.654 315.808 483.357 315.357C483.694 315.141 483.917 315.131 484.236 315.409C487.508 318.256 491.184 320.408 495.256 321.861C495.688 322.015 495.797 322.239 495.779 322.665C495.747 323.428 495.759 324.193 495.772 324.958C495.815 327.471 497.32 328.979 499.796 328.991C500.866 328.996 501.937 328.992 503.007 328.991C506.792 328.991 510.578 329.003 514.363 328.986C516.506 328.977 517.97 327.655 518.181 325.507C518.273 324.566 518.243 323.611 518.223 322.663C518.214 322.237 518.315 322.013 518.747 321.859C522.821 320.408 526.484 318.232 529.762 315.397C530.042 315.155 530.246 315.113 530.57 315.314C531.322 315.785 532.089 316.234 532.87 316.654C534.8 317.691 536.864 317.189 537.963 315.304C540.499 310.952 542.997 306.578 545.461 302.185C546.54 300.262 545.959 298.223 544.106 297.052L544.105 297.056ZM543.3 301.237C540.899 305.454 538.49 309.666 536.074 313.875C535.502 314.869 534.845 315.043 533.856 314.485C532.832 313.909 531.815 313.322 530.809 312.715C530.158 312.323 529.587 312.38 529.03 312.891C525.49 316.14 521.45 318.522 516.891 319.998C516.171 320.23 515.856 320.715 515.875 321.481C515.902 322.588 515.888 323.696 515.881 324.803C515.872 326.137 515.399 326.617 514.095 326.62C511.719 326.623 509.344 326.621 506.969 326.621C504.593 326.621 502.27 326.623 499.922 326.62C498.604 326.618 498.131 326.146 498.121 324.818C498.112 323.685 498.104 322.551 498.125 321.418C498.138 320.678 497.805 320.223 497.126 320.004C492.565 318.534 488.521 316.16 484.974 312.918C484.391 312.385 483.804 312.335 483.128 312.75C482.149 313.35 481.152 313.921 480.151 314.485C479.159 315.045 478.502 314.874 477.931 313.879C475.514 309.672 473.105 305.459 470.704 301.242C470.116 300.208 470.305 299.566 471.337 298.952C472.234 298.418 473.139 297.898 474.041 297.37C475.102 296.748 475.239 296.449 474.99 295.259C474.447 292.671 474.199 290.055 474.3 287.409C474.37 285.565 474.584 283.735 474.956 281.926C475.256 280.468 475.173 280.275 473.879 279.522C473.021 279.024 472.157 278.537 471.305 278.029C470.315 277.438 470.119 276.781 470.681 275.794C473.095 271.554 475.518 267.319 477.951 263.09C478.513 262.112 479.178 261.958 480.182 262.529C481.18 263.096 482.176 263.67 483.157 264.267C483.833 264.677 484.419 264.617 485.002 264.081C488.522 260.849 492.544 258.485 497.074 257.011C497.785 256.779 498.141 256.331 498.124 255.555C498.1 254.422 498.111 253.288 498.12 252.155C498.132 250.867 498.61 250.38 499.868 250.379C504.618 250.376 509.368 250.376 514.12 250.379C515.384 250.38 515.866 250.863 515.88 252.142C515.89 253.223 515.877 254.303 515.883 255.385C515.89 256.475 516.035 256.693 517.068 257.042C520.936 258.347 524.469 260.269 527.633 262.872C528.119 263.271 528.594 263.684 529.057 264.109C529.62 264.625 530.2 264.652 530.842 264.268C531.828 263.677 532.82 263.099 533.818 262.531C534.841 261.949 535.509 262.124 536.1 263.152C538.501 267.338 540.896 271.528 543.285 275.722C543.893 276.79 543.707 277.427 542.631 278.066C541.733 278.598 540.828 279.12 539.926 279.647C538.915 280.238 538.76 280.563 539.003 281.702C539.559 284.317 539.802 286.959 539.704 289.63C539.636 291.475 539.413 293.304 539.035 295.111C538.747 296.493 538.845 296.723 540.024 297.413C540.903 297.927 541.786 298.432 542.661 298.952C543.697 299.567 543.888 300.208 543.3 301.24V301.237Z"/>
</mask>
<path d="M544.105 297.056C543.399 296.61 542.683 296.172 541.938 295.798C541.473 295.564 541.378 295.269 541.476 294.798C541.72 293.638 541.844 292.46 541.95 291.278C542.226 288.212 542.047 285.172 541.481 282.153C541.398 281.715 541.467 281.429 541.912 281.209C542.612 280.864 543.278 280.444 543.948 280.038C546.017 278.785 546.569 276.749 545.366 274.625C542.947 270.356 540.513 266.097 538.059 261.849C536.871 259.794 534.811 259.248 532.758 260.392C532.029 260.799 531.302 261.212 530.598 261.661C530.279 261.864 530.072 261.85 529.785 261.6C526.493 258.733 522.797 256.568 518.696 255.111C518.355 254.989 518.208 254.817 518.223 254.43C518.254 253.614 518.241 252.796 518.23 251.978C518.214 250.738 517.831 249.666 516.856 248.841C516.389 248.446 515.8 248.317 515.303 247.999H498.698C498.618 248.052 498.543 248.124 498.455 248.154C496.855 248.695 495.94 249.806 495.815 251.507C495.743 252.477 495.759 253.456 495.779 254.43C495.787 254.815 495.647 254.99 495.306 255.111C491.202 256.565 487.519 258.755 484.223 261.61C483.926 261.868 483.719 261.848 483.414 261.659C482.682 261.206 481.938 260.769 481.183 260.355C479.195 259.267 477.131 259.8 475.987 261.772C473.487 266.085 471.012 270.412 468.568 274.756C467.444 276.753 468.029 278.781 469.981 279.987C470.626 280.386 471.262 280.81 471.948 281.12C472.565 281.397 472.605 281.792 472.499 282.371C472.322 283.328 472.179 284.294 472.084 285.262C471.769 288.481 471.909 291.684 472.525 294.859C472.614 295.318 472.493 295.574 472.071 295.79C471.352 296.157 470.661 296.584 469.972 297.009C468.028 298.212 467.451 300.247 468.575 302.247C471.02 306.591 473.493 310.919 475.994 315.23C477.132 317.191 479.215 317.718 481.197 316.628C481.928 316.225 482.654 315.808 483.357 315.357C483.694 315.141 483.917 315.131 484.236 315.409C487.508 318.256 491.184 320.408 495.256 321.861C495.688 322.015 495.797 322.239 495.779 322.665C495.747 323.428 495.759 324.193 495.772 324.958C495.815 327.471 497.32 328.979 499.796 328.991C500.866 328.996 501.937 328.992 503.007 328.991C506.792 328.991 510.578 329.003 514.363 328.986C516.506 328.977 517.97 327.655 518.181 325.507C518.273 324.566 518.243 323.611 518.223 322.663C518.214 322.237 518.315 322.013 518.747 321.859C522.821 320.408 526.484 318.232 529.762 315.397C530.042 315.155 530.246 315.113 530.57 315.314C531.322 315.785 532.089 316.234 532.87 316.654C534.8 317.691 536.864 317.189 537.963 315.304C540.499 310.952 542.997 306.578 545.461 302.185C546.54 300.262 545.959 298.223 544.106 297.052L544.105 297.056ZM543.3 301.237C540.899 305.454 538.49 309.666 536.074 313.875C535.502 314.869 534.845 315.043 533.856 314.485C532.832 313.909 531.815 313.322 530.809 312.715C530.158 312.323 529.587 312.38 529.03 312.891C525.49 316.14 521.45 318.522 516.891 319.998C516.171 320.23 515.856 320.715 515.875 321.481C515.902 322.588 515.888 323.696 515.881 324.803C515.872 326.137 515.399 326.617 514.095 326.62C511.719 326.623 509.344 326.621 506.969 326.621C504.593 326.621 502.27 326.623 499.922 326.62C498.604 326.618 498.131 326.146 498.121 324.818C498.112 323.685 498.104 322.551 498.125 321.418C498.138 320.678 497.805 320.223 497.126 320.004C492.565 318.534 488.521 316.16 484.974 312.918C484.391 312.385 483.804 312.335 483.128 312.75C482.149 313.35 481.152 313.921 480.151 314.485C479.159 315.045 478.502 314.874 477.931 313.879C475.514 309.672 473.105 305.459 470.704 301.242C470.116 300.208 470.305 299.566 471.337 298.952C472.234 298.418 473.139 297.898 474.041 297.37C475.102 296.748 475.239 296.449 474.99 295.259C474.447 292.671 474.199 290.055 474.3 287.409C474.37 285.565 474.584 283.735 474.956 281.926C475.256 280.468 475.173 280.275 473.879 279.522C473.021 279.024 472.157 278.537 471.305 278.029C470.315 277.438 470.119 276.781 470.681 275.794C473.095 271.554 475.518 267.319 477.951 263.09C478.513 262.112 479.178 261.958 480.182 262.529C481.18 263.096 482.176 263.67 483.157 264.267C483.833 264.677 484.419 264.617 485.002 264.081C488.522 260.849 492.544 258.485 497.074 257.011C497.785 256.779 498.141 256.331 498.124 255.555C498.1 254.422 498.111 253.288 498.12 252.155C498.132 250.867 498.61 250.38 499.868 250.379C504.618 250.376 509.368 250.376 514.12 250.379C515.384 250.38 515.866 250.863 515.88 252.142C515.89 253.223 515.877 254.303 515.883 255.385C515.89 256.475 516.035 256.693 517.068 257.042C520.936 258.347 524.469 260.269 527.633 262.872C528.119 263.271 528.594 263.684 529.057 264.109C529.62 264.625 530.2 264.652 530.842 264.268C531.828 263.677 532.82 263.099 533.818 262.531C534.841 261.949 535.509 262.124 536.1 263.152C538.501 267.338 540.896 271.528 543.285 275.722C543.893 276.79 543.707 277.427 542.631 278.066C541.733 278.598 540.828 279.12 539.926 279.647C538.915 280.238 538.76 280.563 539.003 281.702C539.559 284.317 539.802 286.959 539.704 289.63C539.636 291.475 539.413 293.304 539.035 295.111C538.747 296.493 538.845 296.723 540.024 297.413C540.903 297.927 541.786 298.432 542.661 298.952C543.697 299.567 543.888 300.208 543.3 301.24V301.237Z" fill="#2F9FEE" stroke="#2F9FEE" stroke-width="6" mask="url(#path-31-inside-1_678_187)"/>
<mask id="path-32-inside-2_678_187" fill="white">
<path d="M507.019 264.496C493.804 264.531 483.266 275.177 483.234 288.518C483.202 301.723 493.909 312.534 506.982 312.5C520.198 312.465 530.674 301.818 530.785 288.477C530.738 275.271 520.094 264.461 507.02 264.496H507.019ZM506.976 310.144C495.195 310.092 485.502 300.343 485.581 288.493C485.664 276.35 495.218 266.833 507.064 266.882C519.111 266.933 528.409 276.657 528.413 288.542C528.418 300.471 518.682 310.196 506.976 310.143V310.144Z"/>
</mask>
<path d="M507.019 264.496C493.804 264.531 483.266 275.177 483.234 288.518C483.202 301.723 493.909 312.534 506.982 312.5C520.198 312.465 530.674 301.818 530.785 288.477C530.738 275.271 520.094 264.461 507.02 264.496H507.019ZM506.976 310.144C495.195 310.092 485.502 300.343 485.581 288.493C485.664 276.35 495.218 266.833 507.064 266.882C519.111 266.933 528.409 276.657 528.413 288.542C528.418 300.471 518.682 310.196 506.976 310.143V310.144Z" fill="#2F9FEE"/>
<path d="M507.019 264.496V261.496L507.011 261.496L507.019 264.496ZM483.234 288.518L486.234 288.525L486.234 288.525L483.234 288.518ZM506.982 312.5L506.99 315.5H506.991L506.982 312.5ZM530.785 288.477L533.785 288.502L533.785 288.484L533.785 288.467L530.785 288.477ZM507.02 264.496V267.496L507.028 267.496L507.02 264.496ZM506.976 310.144L506.963 313.144L509.976 313.158V310.144H506.976ZM485.581 288.493L482.581 288.472L482.581 288.473L485.581 288.493ZM507.064 266.882L507.077 263.882L507.076 263.882L507.064 266.882ZM528.413 288.542L531.413 288.54V288.54L528.413 288.542ZM506.976 310.143L506.99 307.143L503.976 307.13V310.143H506.976ZM507.011 261.496C492.118 261.535 480.27 273.547 480.234 288.511L486.234 288.525C486.262 276.808 495.49 267.526 507.027 267.496L507.011 261.496ZM480.234 288.511C480.198 303.35 492.226 315.539 506.99 315.5L506.975 309.5C495.592 309.53 486.206 300.096 486.234 288.525L480.234 288.511ZM506.991 315.5C521.897 315.46 533.661 303.439 533.785 288.502L527.785 288.452C527.687 300.197 518.498 309.469 506.974 309.5L506.991 315.5ZM533.785 288.467C533.732 273.654 521.79 261.457 507.012 261.496L507.028 267.496C518.397 267.466 527.743 276.889 527.785 288.488L533.785 288.467ZM507.02 261.496H507.019V267.496H507.02V261.496ZM506.99 307.144C496.864 307.099 488.513 298.7 488.581 288.513L482.581 288.473C482.491 301.986 493.525 313.084 506.963 313.144L506.99 307.144ZM488.581 288.513C488.653 277.985 496.899 269.84 507.052 269.882L507.076 263.882C493.538 263.826 482.675 274.715 482.581 288.472L488.581 288.513ZM507.051 269.882C517.391 269.926 525.409 278.253 525.413 288.543L531.413 288.54C531.408 275.061 520.831 263.94 507.077 263.882L507.051 269.882ZM525.413 288.543C525.417 298.836 517.008 307.188 506.99 307.143L506.963 313.143C520.357 313.203 531.418 302.107 531.413 288.54L525.413 288.543ZM503.976 310.143V310.144H509.976V310.143H503.976Z" fill="#2F9FEE" mask="url(#path-32-inside-2_678_187)"/>
<path d="M528.237 267.035C526.953 265.723 525.541 264.554 524.037 263.505C523.385 263.05 522.721 263.164 522.323 263.744C521.957 264.277 522.081 264.925 522.66 265.411C522.96 265.662 523.281 265.889 523.593 266.126C527.615 269.184 530.6 273.053 532.557 277.743C533.032 278.883 533.362 280.07 533.775 281.229C534.003 281.867 534.472 282.147 535.12 282.019C535.74 281.897 536.034 281.464 536.031 280.738C535.993 280.592 535.94 280.363 535.876 280.137C534.444 275.107 531.873 270.75 528.236 267.034L528.237 267.035Z" fill="#2F9FEE"/>
<path d="M504.515 316.355C504.413 316.336 504.307 316.339 504.204 316.327C499.789 315.833 495.699 314.409 491.961 311.97C490.535 311.038 489.216 309.972 487.967 308.813C487.618 308.489 487.245 308.182 486.721 308.294C486.253 308.394 485.932 308.668 485.801 309.153C485.638 309.752 485.94 310.151 486.337 310.528C488.733 312.79 491.405 314.64 494.383 316.031C497.526 317.499 500.828 318.387 504.388 318.724C505.042 318.746 505.547 318.37 505.624 317.715C505.706 317.009 505.295 316.502 504.516 316.357L504.515 316.355Z" fill="#2F9FEE"/>
<path d="M482.686 301.913C482.437 301.512 482.088 301.261 481.716 301.284C480.672 301.312 480.191 302.247 480.681 303.132C481.124 303.933 481.605 304.714 482.104 305.482C482.546 306.165 483.201 306.345 483.771 305.994C484.347 305.639 484.499 304.959 484.106 304.265C483.656 303.468 483.169 302.691 482.686 301.913Z" fill="#2F9FEE"/>
<path d="M515.095 261.628C516.089 262.196 517.193 262.507 518.27 262.861C518.804 262.771 519.233 262.573 519.392 262.014C519.554 261.444 519.428 260.912 518.895 260.67C517.953 260.245 516.98 259.879 515.994 259.571C515.434 259.395 514.952 259.695 514.728 260.233C514.509 260.758 514.576 261.331 515.095 261.628Z" fill="#2F9FEE"/>
</g>
<defs>
<clipPath id="clip0_678_187">
<rect width="491" height="356" fill="white" transform="translate(104 163)"/>
</clipPath>
<clipPath id="clip1_678_187">
<rect width="184" height="36" fill="white" transform="translate(333 410)"/>
</clipPath>
<clipPath id="clip2_678_187">
<rect width="78" height="81" fill="white" transform="translate(468 248)"/>
</clipPath>
</defs>
</svg>
