<svg width="872" height="713" viewBox="0 0 872 713" fill="none" xmlns="http://www.w3.org/2000/svg">
<g opacity="0.15">
<path d="M356.5 713C159.89 713 0 553.045 0 356.5C0 159.955 159.955 0 356.5 0C553.045 0 713 159.955 713 356.5C713 553.045 553.175 713 356.5 713ZM356.5 5.02337C162.742 5.02337 5.10442 162.661 5.10442 356.435C5.10442 550.209 162.807 707.847 356.5 707.847C550.193 707.847 707.912 550.209 707.912 356.435C707.912 162.661 550.339 5.02337 356.5 5.02337Z" fill="#E0E0E0"/>
<path d="M356.501 642.202C198.928 642.202 70.7334 514.008 70.7334 356.435C70.7334 198.862 198.992 70.668 356.501 70.668C514.009 70.668 642.333 198.878 642.333 356.435C642.333 513.992 514.138 642.202 356.501 642.202ZM356.501 75.8211C201.78 75.8211 75.8864 201.698 75.8864 356.435C75.8864 511.172 201.844 637.033 356.501 637.033C511.157 637.033 637.115 511.156 637.115 356.435C637.115 201.714 511.303 75.8211 356.501 75.8211Z" fill="#E0E0E0"/>
<path d="M356.501 571.405C237.965 571.405 141.531 474.971 141.531 356.435C141.531 237.899 238.029 141.466 356.501 141.466C474.972 141.466 571.47 237.899 571.47 356.435C571.47 474.971 475.102 571.405 356.501 571.405ZM356.501 146.619C300.885 146.7 247.571 168.834 208.251 208.167C168.931 247.499 146.813 300.819 146.749 356.435C146.749 472.119 240.881 566.252 356.566 566.252C412.221 566.252 465.597 544.143 504.951 504.788C544.305 465.434 566.414 412.058 566.414 356.403C566.414 300.747 544.305 247.371 504.951 208.017C465.597 168.663 412.221 146.554 356.566 146.554L356.501 146.619Z" fill="#E0E0E0"/>
<path d="M356.501 500.607C327.977 500.607 300.093 492.149 276.376 476.302C252.659 460.454 234.174 437.93 223.258 411.577C212.343 385.224 209.487 356.227 215.051 328.251C220.616 300.274 234.352 274.577 254.522 254.407C274.691 234.238 300.389 220.502 328.365 214.937C356.341 209.373 385.339 212.229 411.692 223.144C438.044 234.06 460.569 252.545 476.416 276.262C492.263 299.979 500.721 327.862 500.721 356.387C500.691 394.627 485.487 431.293 458.447 458.333C431.407 485.373 394.741 500.577 356.501 500.607ZM356.501 217.416C329.005 217.416 302.128 225.57 279.266 240.845C256.405 256.121 238.586 277.833 228.064 303.235C217.542 328.637 214.789 356.589 220.153 383.556C225.517 410.523 238.758 435.294 258.2 454.736C277.642 474.178 302.413 487.419 329.38 492.783C356.347 498.147 384.299 495.394 409.701 484.872C435.103 474.35 456.815 456.531 472.091 433.67C487.366 410.808 495.52 383.93 495.52 356.435C495.477 319.578 480.816 284.243 454.755 258.181C428.693 232.12 393.358 217.459 356.501 217.416Z" fill="#E0E0E0"/>
<path d="M356.501 429.809C341.989 429.809 327.803 425.506 315.737 417.444C303.67 409.381 294.266 397.922 288.712 384.514C283.159 371.107 281.706 356.354 284.537 342.121C287.368 327.888 294.356 314.813 304.618 304.552C314.879 294.29 327.953 287.302 342.187 284.471C356.42 281.64 371.173 283.093 384.58 288.646C397.988 294.2 409.447 303.604 417.51 315.671C425.572 327.737 429.875 341.923 429.875 356.435C429.854 375.889 422.117 394.539 408.361 408.295C394.605 422.051 375.955 429.788 356.501 429.809ZM356.501 288.214C343.008 288.214 329.818 292.215 318.6 299.711C307.381 307.208 298.637 317.862 293.473 330.328C288.31 342.794 286.959 356.511 289.591 369.745C292.223 382.978 298.721 395.134 308.262 404.675C317.802 414.216 329.958 420.713 343.192 423.346C356.425 425.978 370.142 424.627 382.608 419.463C395.074 414.3 405.729 405.556 413.225 394.337C420.721 383.118 424.722 369.928 424.722 356.435C424.701 338.348 417.506 321.009 404.717 308.219C391.928 295.43 374.588 288.236 356.501 288.214Z" fill="#E0E0E0"/>
</g>
<g clip-path="url(#clip0_678_186)">
<path opacity="0.1" d="M241.893 240.917H92.6812C87.096 240.917 82.5684 245.438 82.5684 251.015V451.896C82.5684 457.473 87.096 461.994 92.6812 461.994H241.893C247.478 461.994 252.005 457.473 252.005 451.896V251.015C252.005 245.438 247.478 240.917 241.893 240.917Z" fill="#231F20"/>
<path d="M235.324 236H86.1129C80.5277 236 76 240.521 76 246.099V446.979C76 452.557 80.5277 457.078 86.1129 457.078H235.324C240.909 457.078 245.437 452.557 245.437 446.979V246.099C245.437 240.521 240.909 236 235.324 236Z" fill="white"/>
<path d="M217.676 319.716C217.676 318.66 217.619 317.605 217.286 316.577C215.607 311.384 210.915 307.958 205.415 307.958C176.031 307.958 146.648 307.958 117.27 307.946C114.489 307.946 111.963 308.703 109.781 310.379C107.146 312.406 105.179 314.889 105.117 318.434C105.06 318.852 105.236 319.292 105.004 319.699V378.986C105.236 379.392 105.066 379.833 105.117 380.256C105.151 381.667 105.479 382.994 106.202 384.23C108.746 388.554 112.556 390.699 117.542 390.721C126.445 390.755 135.348 390.75 144.251 390.71C145.484 390.704 146.292 391.116 147.01 392.099C150.051 396.27 153.115 400.419 156.19 404.562C159.056 408.418 163.431 408.429 166.309 404.613C169.418 400.492 172.527 396.372 175.596 392.223C176.387 391.15 177.298 390.699 178.649 390.704C187.365 390.755 196.088 390.727 204.804 390.733C205.912 390.733 206.997 390.625 208.077 390.405C213.566 389.288 217.676 384.427 217.681 378.98C217.693 359.223 217.687 339.467 217.681 319.71L217.676 319.716ZM116.564 314.884C116.999 314.833 117.44 314.856 117.881 314.856C146.823 314.856 175.766 314.856 204.708 314.856C205.884 314.856 207.048 314.884 208.201 315.629C203.549 319.49 198.987 323.272 194.426 327.048C184.731 335.081 175.036 343.113 165.342 351.146C162.572 353.443 160.011 353.432 157.253 351.146C143.251 339.534 129.243 327.929 115.241 316.323C114.987 316.114 114.738 315.905 114.433 315.646C115.083 315.11 115.818 314.968 116.564 314.889V314.884ZM111.731 321.968C123.059 331.355 134.348 340.714 145.704 350.124C134.444 359.986 123.212 369.813 111.974 379.652C111.533 378.811 111.312 324.638 111.725 321.968H111.731ZM203.945 383.801C195.223 383.801 186.5 383.829 177.784 383.784C174.759 383.767 172.436 384.913 170.644 387.34C167.756 391.252 164.788 395.107 161.888 399.019C161.408 399.663 161.198 399.73 160.69 399.036C157.852 395.13 154.941 391.28 152.109 387.368C150.339 384.924 148.016 383.773 144.986 383.784C136.19 383.829 127.4 383.801 118.605 383.801H117.248C122.737 378.991 127.994 374.385 133.257 369.785C138.875 364.863 144.506 359.957 150.108 355.012C150.684 354.504 151.006 354.454 151.6 354.979C153.431 356.604 155.303 358.185 157.745 358.885C161.628 360.002 165.201 359.398 168.474 357.056C169.367 356.418 170.22 355.718 171.029 354.979C171.543 354.504 171.854 354.442 172.436 354.95C179.276 360.979 186.139 366.974 193.001 372.98C196.828 376.333 200.655 379.686 204.488 383.039C204.702 383.225 204.906 383.423 205.313 383.795H203.962L203.945 383.801ZM210.864 379.872C199.411 369.847 188.174 360.008 176.891 350.135C188.224 340.742 199.513 331.389 210.864 321.979V379.872Z" fill="#2F9FEE"/>
</g>
<g clip-path="url(#clip1_678_186)">
<path opacity="0.1" d="M429.136 312.747H289.612C283.06 312.747 277.748 318.057 277.748 324.608V514.146C277.748 520.696 283.06 526.007 289.612 526.007H429.136C435.688 526.007 441 520.696 441 514.146V324.608C441 318.057 435.688 312.747 429.136 312.747Z" fill="#231F20"/>
<path d="M424.388 308H284.864C278.312 308 273 313.31 273 319.861V509.399C273 515.95 278.312 521.26 284.864 521.26H424.388C430.94 521.26 436.252 515.95 436.252 509.399V319.861C436.252 313.31 430.94 308 424.388 308Z" fill="white"/>
<path d="M335.118 362.528C334.8 362.8 334.429 362.766 334.051 362.7C334.051 362.641 334.071 362.587 334.091 362.528H335.118Z" fill="#2F9FEE"/>
<path d="M347.201 370.742C347.201 371.591 346.412 372.366 345.563 372.36C344.715 372.36 343.939 371.571 343.945 370.722C343.945 369.874 344.735 369.098 345.583 369.105C346.432 369.105 347.208 369.893 347.201 370.742Z" fill="#2F9FEE"/>
<path d="M386.554 422.958C386.388 422.076 385.845 421.533 384.943 421.533C384.041 421.533 383.497 422.076 383.338 422.958C383.278 423.29 383.305 423.641 383.305 423.979C383.305 433.201 383.298 442.423 383.318 451.652C383.318 452.381 383.232 452.686 382.363 452.686C364.391 452.653 346.413 452.66 328.441 452.686C327.645 452.686 327.512 452.461 327.512 451.725C327.532 428.289 327.532 404.859 327.512 381.423C327.512 380.64 327.718 380.488 328.467 380.488C333.866 380.521 339.264 380.508 344.662 380.508C346.419 380.508 347.222 379.977 347.202 378.844C347.182 377.737 346.399 377.233 344.708 377.233C339.277 377.233 333.839 377.219 328.408 377.253C327.698 377.253 327.466 377.107 327.506 376.371C327.565 375.416 327.559 374.455 327.824 373.533C328.932 369.662 332.015 367.407 336.226 367.401C348.906 367.394 361.579 367.401 374.259 367.401C374.637 367.401 375.015 367.421 375.38 367.348C376.036 367.228 376.474 366.811 376.66 366.168C376.845 365.544 376.6 365.034 376.202 364.57C376.056 364.397 375.751 364.404 375.705 364.119H335.106C334.781 364.358 334.376 364.119 334.038 364.291C333.733 364.338 333.428 364.358 333.129 364.431C327.678 365.783 324.236 370.271 324.236 376.053C324.236 403.076 324.236 430.092 324.236 457.115C324.236 464.142 329.19 469.075 336.24 469.075C349.019 469.075 361.798 469.075 374.577 469.075C381.62 469.075 386.561 464.129 386.567 457.095C386.567 446.03 386.567 434.958 386.567 423.893C386.567 423.588 386.594 423.27 386.534 422.971L386.554 422.958ZM374.478 465.78C361.738 465.78 349.006 465.78 336.266 465.78C332.035 465.78 328.978 463.559 327.844 459.687C327.532 458.626 327.539 457.532 327.519 456.439C327.506 455.902 327.804 455.935 328.162 455.941C329.184 455.948 330.211 455.941 331.233 455.941H355.412C364.358 455.941 373.304 455.955 382.25 455.921C383.059 455.921 383.331 456.047 383.324 456.942C383.278 462.306 379.836 465.773 374.471 465.78H374.478Z" fill="#2F9FEE"/>
<path d="M402.41 369.091C395.506 369.091 388.603 369.091 381.706 369.091C374.597 369.091 367.494 369.058 360.385 369.098C353.926 369.138 348.899 374.15 348.873 380.607C348.833 388.702 348.853 396.797 348.873 404.892C348.873 406.609 349.164 408.286 349.914 409.858C351.539 413.265 354.158 415.48 357.865 416.302C358.595 416.461 358.747 416.773 358.727 417.462C358.674 418.96 358.727 420.465 358.701 421.97C358.668 423.581 359.218 424.848 360.75 425.537C362.07 426.134 363.389 425.763 364.702 424.45C367.07 422.083 369.451 419.729 371.798 417.336C372.289 416.839 372.766 416.62 373.483 416.627C383.152 416.653 392.821 416.647 402.49 416.64C409.532 416.64 414.473 411.694 414.48 404.667C414.48 396.81 414.48 388.954 414.48 381.098C414.48 374.004 409.539 369.091 402.417 369.091H402.41ZM411.184 404.706C411.177 409.871 407.669 413.358 402.483 413.365C392.509 413.372 382.535 413.378 372.554 413.352C371.553 413.352 370.81 413.657 370.114 414.366C367.488 417.051 364.815 419.696 361.977 422.541C361.977 420.054 361.977 417.813 361.977 415.573C361.977 414.001 361.513 413.497 359.961 413.345C355.193 412.874 352.149 409.553 352.135 404.753C352.122 396.83 352.122 388.908 352.135 380.985C352.149 375.88 355.657 372.38 360.776 372.373C374.683 372.36 388.583 372.366 402.49 372.373C407.669 372.373 411.17 375.874 411.177 381.038C411.19 388.928 411.19 396.817 411.177 404.706H411.184Z" fill="#2F9FEE"/>
<path d="M355.431 457.645C356.453 457.645 357.474 457.625 358.495 457.645C359.609 457.672 360.332 458.348 360.325 459.289C360.319 460.237 359.589 460.9 358.469 460.907C356.426 460.927 354.377 460.927 352.334 460.907C351.22 460.894 350.497 460.204 350.504 459.263C350.511 458.315 351.24 457.665 352.361 457.638C353.382 457.619 354.403 457.638 355.425 457.638L355.431 457.645Z" fill="#2F9FEE"/>
<path d="M381.574 382.205C374.776 382.205 367.986 382.205 361.188 382.205C360.85 382.205 360.498 382.231 360.167 382.172C359.285 382.019 358.741 381.469 358.734 380.574C358.734 379.672 359.272 379.129 360.154 378.963C360.452 378.903 360.764 378.93 361.075 378.93C374.803 378.93 388.53 378.93 402.258 378.93C402.563 378.93 402.881 378.903 403.18 378.956C404.062 379.115 404.606 379.659 404.612 380.554C404.612 381.456 404.075 382.006 403.193 382.165C402.861 382.225 402.51 382.198 402.172 382.198C395.308 382.198 388.444 382.198 381.58 382.198L381.574 382.205Z" fill="#2F9FEE"/>
<path d="M381.547 406.808C374.75 406.808 367.959 406.808 361.161 406.808C360.823 406.808 360.472 406.835 360.14 406.775C359.258 406.609 358.721 406.059 358.728 405.157C358.734 404.256 359.285 403.719 360.167 403.559C360.465 403.506 360.777 403.533 361.088 403.533C374.816 403.533 388.544 403.533 402.271 403.533C402.576 403.533 402.894 403.513 403.193 403.566C404.075 403.732 404.612 404.282 404.605 405.184C404.599 406.079 404.055 406.629 403.166 406.781C402.835 406.841 402.483 406.815 402.145 406.815C395.281 406.815 388.418 406.815 381.554 406.815L381.547 406.808Z" fill="#2F9FEE"/>
<path d="M389.976 387.131C394.075 387.131 398.166 387.131 402.265 387.131C402.636 387.131 403.027 387.111 403.379 387.21C404.155 387.416 404.606 387.973 404.606 388.775C404.606 389.577 404.148 390.128 403.372 390.333C403.014 390.426 402.629 390.406 402.251 390.406C393.988 390.406 385.732 390.406 377.469 390.406C377.164 390.406 376.846 390.433 376.547 390.373C375.665 390.207 375.128 389.663 375.128 388.762C375.128 387.867 375.672 387.317 376.554 387.157C376.852 387.104 377.164 387.124 377.476 387.124C381.64 387.124 385.805 387.124 389.97 387.124L389.976 387.131Z" fill="#2F9FEE"/>
<path d="M373.45 395.325C377.582 395.325 381.713 395.325 385.838 395.325C386.176 395.325 386.528 395.305 386.859 395.372C387.688 395.551 388.186 396.101 388.192 396.95C388.192 397.798 387.702 398.355 386.879 398.547C386.554 398.62 386.203 398.6 385.858 398.6C377.595 398.6 369.339 398.6 361.076 398.6C360.804 398.6 360.525 398.614 360.26 398.581C359.351 398.474 358.715 397.805 358.708 396.97C358.708 396.141 359.338 395.445 360.24 395.339C360.545 395.299 360.857 395.319 361.162 395.319C365.26 395.319 369.352 395.319 373.45 395.319V395.325Z" fill="#2F9FEE"/>
<path d="M365.24 390.406C363.741 390.406 362.242 390.413 360.737 390.406C359.45 390.399 358.694 389.763 358.714 388.749C358.728 387.767 359.47 387.138 360.684 387.138C363.754 387.124 366.818 387.124 369.889 387.138C371.089 387.138 371.825 387.807 371.812 388.795C371.799 389.776 371.056 390.399 369.842 390.406C368.31 390.419 366.772 390.406 365.24 390.406Z" fill="#2F9FEE"/>
</g>
<path opacity="0.1" d="M622.176 249.048H479.441C473.464 249.048 468.618 253.92 468.618 259.93V454.118C468.618 460.128 473.464 465 479.441 465H622.176C628.154 465 633 460.128 633 454.118V259.93C633 253.92 628.154 249.048 622.176 249.048Z" fill="#231F20"/>
<path d="M615.558 244H472.823C466.846 244 462 248.872 462 254.882V449.07C462 455.08 466.846 459.952 472.823 459.952H615.558C621.536 459.952 626.381 455.08 626.381 449.07V254.882C626.381 248.872 621.536 244 615.558 244Z" fill="white"/>
<path d="M547.733 335.019C563.305 335.019 578.877 335.007 594.45 335.043C595.49 335.043 595.866 334.855 595.829 333.711C595.738 330.871 595.732 328.024 595.829 325.184C595.872 324.022 595.466 323.87 594.45 323.876C574.165 323.906 553.879 323.9 533.588 323.9C525.106 323.9 516.624 323.882 508.136 323.925C507.132 323.925 506.69 323.797 506.745 322.617C506.848 320.202 506.769 320.196 509.219 320.196C538.809 320.196 568.399 320.202 597.989 320.166C599.241 320.166 599.526 320.47 599.52 321.711C599.465 333.164 599.477 344.617 599.514 356.076C599.514 357.153 599.32 357.573 598.134 357.524C595.799 357.421 595.799 357.494 595.799 355.091C595.799 350.103 595.763 345.122 595.823 340.134C595.835 339.021 595.569 338.717 594.432 338.717C563.323 338.754 532.221 338.748 501.112 338.741C499.152 338.741 499.424 339.033 499.406 337.063C499.388 335.031 499.406 335.031 501.372 335.031C516.824 335.031 532.275 335.031 547.721 335.031L547.733 335.019Z" fill="#2F9FEE"/>
<path d="M492.038 352.835C492.038 342.373 492.05 331.911 492.014 321.449C492.014 320.427 492.268 320.129 493.29 320.16C495.728 320.226 495.728 320.178 495.728 322.605C495.728 341.837 495.728 361.07 495.728 380.309C495.728 381.375 496.277 381.909 497.374 381.909C514.991 381.909 532.602 381.921 550.22 381.884C551.297 381.884 551.611 382.134 551.575 383.235C551.49 385.619 551.551 385.619 549.197 385.619C530.6 385.619 512.003 385.607 493.405 385.649C492.256 385.649 492.008 385.327 492.014 384.22C492.056 373.758 492.038 363.296 492.038 352.835Z" fill="#2F9FEE"/>
<path d="M545.748 393.003C541.701 393.003 537.647 392.985 533.6 393.021C532.862 393.027 532.632 392.869 532.632 392.079C532.632 389.293 532.596 389.293 535.336 389.293C542.784 389.293 550.225 389.311 557.672 389.268C558.646 389.268 558.9 389.524 558.882 390.491C558.822 393.003 558.87 393.003 556.432 393.003C552.875 393.003 549.311 393.003 545.754 393.003H545.748Z" fill="#2F9FEE"/>
<path d="M538.392 327.604C541.181 327.604 543.964 327.623 546.753 327.592C547.485 327.586 547.824 327.671 547.818 328.559C547.794 331.315 547.842 331.315 545.077 331.315C540.116 331.315 535.161 331.297 530.2 331.333C529.293 331.339 528.912 331.193 528.942 330.147C529.009 327.604 528.954 327.604 531.513 327.604C533.806 327.604 536.105 327.604 538.398 327.604H538.392Z" fill="#2F9FEE"/>
<path d="M551.828 344.745C551.828 343.674 551.864 342.604 551.816 341.539C551.786 340.876 552.022 340.736 552.645 340.718C555.519 340.645 555.519 340.627 555.519 343.565C555.519 345.128 555.488 346.685 555.531 348.248C555.549 348.905 555.313 349.069 554.684 349.088C551.822 349.197 551.822 349.215 551.822 346.344C551.822 345.809 551.822 345.274 551.822 344.745H551.828Z" fill="#2F9FEE"/>
<path d="M543.189 344.356C543.347 344.483 543.516 344.599 543.655 344.733C545.301 346.381 546.94 348.048 548.598 349.684C548.955 350.037 549.1 350.316 548.628 350.657C548.562 350.706 548.507 350.766 548.453 350.827C547.166 352.174 545.863 352.184 544.545 350.858C543.389 349.696 542.246 348.528 541.072 347.385C540.721 347.038 540.624 346.801 541.054 346.424C541.671 345.888 542.215 345.274 542.796 344.696C542.911 344.581 543.038 344.477 543.183 344.349L543.189 344.356Z" fill="#2F9FEE"/>
<path d="M560.892 352.695C560.456 352.591 560.268 352.251 560.008 351.995C558.794 350.795 558.776 349.603 559.954 348.419C561.14 347.226 562.344 346.053 563.499 344.836C563.91 344.404 564.152 344.337 564.63 344.793C566.742 346.831 566.76 346.813 564.691 348.893C563.59 350 562.495 351.101 561.394 352.202C561.224 352.372 561.043 352.536 560.886 352.688L560.892 352.695Z" fill="#2F9FEE"/>
<path d="M543.358 370.449C542.403 369.531 541.543 368.71 540.69 367.895C541.477 367.074 542.251 366.24 543.044 365.425C544.018 364.428 545.022 363.461 545.984 362.445C546.341 362.074 546.547 362.043 546.958 362.414C549.221 364.44 549.233 364.422 547.14 366.538C545.845 367.852 544.574 369.19 543.352 370.449H543.358Z" fill="#2F9FEE"/>
<path d="M541.223 359.276C540.08 359.276 538.936 359.258 537.787 359.282C537.26 359.294 537.024 359.112 537.079 358.576C537.085 358.497 537.079 358.412 537.079 358.327C537.027 356.482 537.914 355.559 539.741 355.559C541.338 355.559 542.929 355.584 544.52 355.547C545.125 355.535 545.355 355.663 545.373 356.344C545.452 359.27 545.482 359.27 542.566 359.27C542.119 359.27 541.665 359.27 541.217 359.27L541.223 359.276Z" fill="#2F9FEE"/>
<path d="M499.406 322.057C499.406 320.808 500.11 320.184 501.518 320.184C502.578 320.184 503.109 320.9 503.109 322.331C503.109 323.906 503.109 323.912 500.816 323.9C499.17 323.888 499.436 324.15 499.406 322.057Z" fill="#2F9FEE"/>
<path d="M555.193 329.52C555.193 330.717 554.463 331.315 553.003 331.315C551.998 331.315 551.496 330.567 551.496 329.07C551.496 328.089 552.252 327.598 553.765 327.598C554.717 327.598 555.193 328.239 555.193 329.52Z" fill="#2F9FEE"/>
<path d="M560.898 327.598C562.011 327.598 562.567 328.32 562.567 329.764C562.567 330.798 561.837 331.315 560.377 331.315C558.871 331.315 558.853 331.315 558.877 329.07C558.895 327.325 558.575 327.635 560.898 327.598Z" fill="#2F9FEE"/>
<path d="M604.983 365.845C603.781 365.845 603.18 365.162 603.18 363.795C603.18 362.737 603.934 362.208 605.442 362.208C606.882 362.208 606.894 362.208 606.876 364.379C606.858 366.112 607.154 365.808 604.983 365.845Z" fill="#2F9FEE"/>
<path d="M527.085 389.293C528.339 389.293 528.966 390.039 528.966 391.531C528.966 392.516 528.214 393.009 526.709 393.009C525.27 393.009 525.257 393.009 525.276 390.734C525.294 389.037 525.022 389.323 527.085 389.299V389.293Z" fill="#2F9FEE"/>
<path d="M606.87 318.408C606.87 316.413 606.622 314.454 605.727 312.648C603.265 307.703 599.254 305.337 593.766 305.343C577.783 305.361 561.799 305.349 545.821 305.349C529.759 305.349 513.69 305.337 497.628 305.355C489.993 305.367 484.687 310.622 484.675 318.292C484.639 341.363 484.663 364.44 484.657 387.511C484.657 389.901 485.116 392.182 486.375 394.232C489.049 398.575 492.987 400.448 498.027 400.442C529.625 400.405 561.218 400.424 592.817 400.424C594.916 400.424 594.837 400.424 594.946 398.295C595.013 397.017 594.662 396.683 593.361 396.683C561.641 396.726 529.922 396.713 498.202 396.713C497.222 396.713 496.236 396.75 495.268 396.525C491.003 395.527 488.359 392.091 488.353 387.413C488.341 364.379 488.347 341.351 488.353 318.317C488.353 317.453 488.389 316.589 488.613 315.744C489.69 311.571 493.036 309.059 497.622 309.053C508.275 309.041 518.929 309.089 529.583 309.023C533.364 308.998 536.371 310.312 538.839 313.213C542.56 317.587 549.046 317.562 552.736 313.171C555.132 310.318 558.072 309.01 561.756 309.029C572.41 309.077 583.064 309.041 593.718 309.047C594.619 309.047 595.515 309.047 596.404 309.266C600.645 310.33 603.168 313.736 603.168 318.493C603.18 330.974 603.168 343.461 603.168 355.943C603.168 358.503 603.168 358.455 605.739 358.509C606.701 358.528 606.876 358.217 606.876 357.323C606.846 344.343 606.858 331.369 606.858 318.39L606.87 318.408ZM540.158 309.181H551.345C548.199 313.791 543.583 314.059 540.158 309.181Z" fill="#2F9FEE"/>
<path d="M605.321 381.665C603.809 376.848 602.351 372.019 600.899 367.183C600.736 366.648 600.5 366.216 600.106 365.827C595.75 361.466 591.413 357.086 587.051 352.737C584.395 350.097 580.801 350.365 578.563 353.376C578.2 353.869 578.03 353.881 577.54 353.571C575.677 352.391 573.759 352.409 571.847 353.491C570.964 353.99 570.51 355.292 569.772 355.45C568.986 355.62 568.072 354.519 567.032 354.41C566.826 354.386 566.626 354.373 566.421 354.367C564.128 354.276 562.488 355.389 561.224 357.402C559.899 356.034 558.695 354.744 557.443 353.504C555.918 351.983 554.079 351.478 552.028 352.086C547.981 353.285 546.813 358.193 549.856 361.289C554.787 366.295 559.76 371.258 564.708 376.246C564.987 376.526 565.368 376.733 565.501 377.329C564.436 376.994 563.486 376.678 562.518 376.398C559.324 375.473 556.372 376.982 555.476 379.987C554.593 382.931 556.19 385.808 559.318 386.811C564.218 388.393 569.131 389.925 574.025 391.513C575.126 391.872 576.227 392.097 577.383 392.17C582.9 392.523 588.418 392.875 593.935 393.271C594.607 393.319 595.073 393.198 595.557 392.699C598.66 389.53 601.794 386.385 604.946 383.265C605.461 382.76 605.533 382.341 605.315 381.653L605.321 381.665ZM600.772 382.17C598.582 384.336 596.398 386.513 594.256 388.727C593.693 389.311 593.137 389.664 592.266 389.39C587.547 389.086 582.767 388.764 577.982 388.466C575.078 388.283 572.47 387.006 569.73 386.215C566.669 385.333 563.656 384.287 560.625 383.314C559.258 382.876 558.719 382.091 559.046 380.996C559.354 379.944 560.268 379.591 561.665 380.005C564.757 380.929 567.854 381.842 570.934 382.815C571.654 383.04 571.987 382.906 572.362 382.237C573.65 379.932 573.68 379.956 571.811 378.083C565.519 371.763 559.233 365.443 552.954 359.124C552.663 358.832 552.355 358.546 552.149 358.199C551.689 357.445 551.756 356.685 552.397 356.064C553.032 355.462 553.788 355.371 554.527 355.858C554.896 356.101 555.204 356.448 555.525 356.77C561.266 362.53 567.013 368.284 572.725 374.081C573.396 374.762 573.759 374.92 574.515 374.16C576.288 372.377 576.33 372.426 574.534 370.62C571.43 367.505 568.338 364.385 565.229 361.277C564.63 360.681 564.249 360.03 564.557 359.191C564.781 358.582 565.235 358.181 565.906 358.072C566.741 357.938 567.292 358.394 567.83 358.941C571.242 362.384 574.691 365.79 578.067 369.269C578.762 369.981 579.125 369.902 579.773 369.269C581.563 367.518 581.594 367.542 579.863 365.808C577.837 363.771 575.798 361.739 573.777 359.689C572.761 358.662 572.658 357.676 573.451 356.892C574.249 356.101 575.217 356.204 576.234 357.22C578.641 359.629 581.067 362.031 583.433 364.482C583.996 365.066 584.304 365.048 584.885 364.507C586.851 362.652 586.869 362.682 584.945 360.742C583.959 359.75 582.961 358.777 581.993 357.767C581.158 356.892 581.116 355.845 581.83 355.134C582.562 354.404 583.578 354.44 584.431 355.292C588.612 359.477 592.774 363.68 596.954 367.864C597.293 368.199 597.487 368.582 597.614 369.014C598.794 372.901 599.949 376.799 601.177 380.668C601.395 381.349 601.238 381.714 600.778 382.158L600.772 382.17Z" fill="#2F9FEE"/>
<circle cx="624" cy="387" r="9" fill="#2F9FEE"/>
<rect x="633" y="386" width="239" height="2" fill="#2F9FEE"/>
<defs>
<clipPath id="clip0_678_186">
<rect width="176" height="226" fill="white" transform="translate(76 236)"/>
</clipPath>
<clipPath id="clip1_678_186">
<rect width="168" height="218" fill="white" transform="translate(273 308)"/>
</clipPath>
</defs>
</svg>
