<svg width="127" height="129" viewBox="0 0 127 129" fill="none" xmlns="http://www.w3.org/2000/svg">
<ellipse cx="63.5" cy="64.5" rx="63.5" ry="64.5" fill="#2F9FEE"/>
<path fill-rule="evenodd" clip-rule="evenodd" d="M93.4064 37.264C93.9462 36.6356 93.8744 35.6886 93.2459 35.1488C92.6175 34.609 91.6705 34.6808 91.1307 35.3092L42.1736 92.3028L29.6275 75.793C29.1262 75.1334 28.1852 75.005 27.5256 75.5062C26.866 76.0075 26.7377 76.9485 27.2389 77.6081L40.705 95.3286C40.8975 95.582 41.1549 95.7569 41.4362 95.848C42.0519 96.2195 42.8636 96.1036 43.3477 95.54L93.4064 37.264Z" fill="white"/>
<path d="M93.2459 35.1488L95.5266 32.4938L95.5265 32.4938L93.2459 35.1488ZM93.4064 37.264L96.0614 39.5447V39.5446L93.4064 37.264ZM91.1307 35.3092L93.7857 37.5898V37.5898L91.1307 35.3092ZM42.1736 92.3028L39.3869 94.4205C40.0265 95.2621 41.0122 95.7696 42.0688 95.8012C43.1254 95.8329 44.1397 95.3853 44.8285 94.5834L42.1736 92.3028ZM29.6275 75.793L32.4142 73.6753L32.4142 73.6753L29.6275 75.793ZM27.5256 75.5062L29.6433 78.2929H29.6433L27.5256 75.5062ZM27.2389 77.6081L24.4522 79.7257L24.4522 79.7257L27.2389 77.6081ZM40.705 95.3286L37.9183 97.4463L37.9183 97.4463L40.705 95.3286ZM41.4362 95.848L43.2447 92.8514C43.0146 92.7125 42.7694 92.6007 42.5137 92.5179L41.4362 95.848ZM43.3477 95.54L40.6927 93.2594H40.6927L43.3477 95.54ZM90.9653 37.8038C90.1275 37.084 90.0317 35.8213 90.7514 34.9834L96.0614 39.5446C97.8607 37.4499 97.6213 34.2932 95.5266 32.4938L90.9653 37.8038ZM93.7857 37.5898C93.0659 38.4277 91.8032 38.5235 90.9654 37.8038L95.5265 32.4938C93.4318 30.6945 90.2751 30.9339 88.4757 33.0286L93.7857 37.5898ZM44.8285 94.5834L93.7857 37.5898L88.4757 33.0286L39.5186 90.0222L44.8285 94.5834ZM26.8408 77.9106L39.3869 94.4205L44.9602 90.1852L32.4142 73.6753L26.8408 77.9106ZM29.6433 78.2929C28.7638 78.9612 27.5091 78.7901 26.8408 77.9106L32.4142 73.6753C30.7434 71.4767 27.6066 71.0488 25.408 72.7196L29.6433 78.2929ZM30.0256 75.4905C30.6939 76.3699 30.5227 77.6246 29.6433 78.2929L25.408 72.7196C23.2094 74.3903 22.7814 77.5271 24.4522 79.7257L30.0256 75.4905ZM43.4917 93.211L30.0256 75.4905L24.4522 79.7257L37.9183 97.4463L43.4917 93.211ZM42.5137 92.5179C42.8905 92.6399 43.2379 92.877 43.4917 93.211L37.9183 97.4463C38.5572 98.2869 39.4192 98.874 40.3588 99.178L42.5137 92.5179ZM40.6927 93.2594C41.3405 92.5052 42.4216 92.3546 43.2447 92.8514L39.6278 98.8445C41.6821 100.084 44.3866 99.7019 46.0027 97.8206L40.6927 93.2594ZM90.7514 34.9834L40.6927 93.2594L46.0027 97.8206L96.0614 39.5447L90.7514 34.9834Z" fill="white"/>
</svg>
