<svg width="103" height="130" viewBox="0 0 103 130" fill="none" xmlns="http://www.w3.org/2000/svg">
<g clip-path="url(#clip0_159_1459)">
<path d="M69.2165 67.5512C71.294 67.5512 73.1665 67.5512 75.0253 67.5512C76.4297 67.5512 77.2702 68.2704 77.2975 69.4103C77.3249 70.6044 76.4672 71.3474 74.9911 71.3508C69.3258 71.3508 63.6594 71.3508 57.9919 71.3508C56.5636 71.3508 55.764 70.6723 55.7503 69.4883C55.7367 68.3043 56.5704 67.5614 58.0602 67.5512C60.1104 67.5512 62.1605 67.5512 64.2107 67.5512C64.7232 67.5512 65.0751 67.4901 65.2938 66.9372C66.9852 62.6728 69.1618 58.6188 70.0229 54.0186C71.2256 47.6102 67.2586 41.938 60.7494 41.2154C58.4566 40.9609 56.9907 41.9278 56.3688 44.1499C55.887 45.8461 55.3437 47.5423 54.985 49.2827C54.0316 53.944 51.9097 58.0726 49.5179 62.1368C46.5212 67.2255 43.6647 72.4228 40.8081 77.6031C40.1726 78.7532 39.3627 79.2349 38.0575 79.2112C35.0745 79.1535 32.0915 79.2112 29.1085 79.1739C28.3295 79.1739 28.0835 79.3469 28.1177 80.1441C28.1792 82.0473 28.1518 83.9505 28.1177 85.8537C28.1177 87.3362 27.3762 88.2284 26.211 88.2284C25.0458 88.2284 24.2975 87.3871 24.2906 85.8978C24.2906 82.5053 24.2531 79.1128 24.3077 75.7474C24.3282 74.5194 23.8602 74.1292 22.6506 74.136C16.0901 74.1767 9.52951 74.1564 2.96558 74.1564C2.62389 74.1564 2.28219 74.1564 1.9405 74.1564C0.765074 74.0953 0.0577954 73.444 0.00312443 72.3923C-0.0174751 72.1383 0.0146203 71.8828 0.0974738 71.6416C0.180327 71.4004 0.312162 71.1787 0.484798 70.9901C0.657435 70.8015 0.867179 70.6501 1.10111 70.5453C1.33505 70.4404 1.58818 70.3844 1.84481 70.3806C2.73663 70.3127 3.63532 70.3568 4.53056 70.3568H22.6813C25.9034 70.3568 27.4957 71.6256 28.0732 74.7195C28.1723 75.2555 28.3295 75.398 28.8625 75.398C31.5448 75.3709 34.2305 75.3675 36.9163 75.398C37.1431 75.4177 37.3702 75.3647 37.5645 75.2469C37.7588 75.1291 37.91 74.9526 37.996 74.7433C41.799 67.9583 45.6294 61.1733 49.4222 54.3884C49.7639 53.7811 49.8972 53.0619 50.1637 52.2816C49.3061 52.2579 48.6739 52.6209 48.0213 52.8617C45.134 53.8523 42.2637 54.8973 39.3764 55.8946C36.5506 56.8717 34.5346 55.4231 34.5927 52.4479C34.6679 48.5578 34.7692 44.6678 34.8968 40.7777C34.9458 40.0653 34.7185 39.3613 34.2613 38.8101C31.8694 35.7874 29.5152 32.7307 27.1609 29.6775C25.2953 27.2519 26.0504 24.8805 28.9821 24.0053C32.6451 22.9129 36.3046 21.8239 39.9847 20.7994C40.8394 20.5771 41.5742 20.0349 42.0348 19.2863C44.1396 16.1619 46.2957 13.0679 48.445 9.97398C50.2184 7.42622 52.7298 7.44996 54.5271 10.0113C54.7697 10.3505 55.0225 10.6898 55.2446 11.0596C55.9075 12.135 55.7333 13.2511 54.8209 13.8618C53.9086 14.4724 52.9178 14.2485 52.1353 13.2817C51.9303 13.0238 51.7389 12.7524 51.4519 12.3657C49.6956 14.9066 47.8162 17.2644 46.3504 19.8529C44.7068 22.7501 42.438 24.3649 39.1748 25.0332C36.2465 25.6303 33.4139 26.6752 30.3762 27.5674C32.1359 29.8404 33.6394 32.171 35.5255 34.1386C38.1873 36.9137 39.168 39.9839 38.734 43.7767C38.4231 46.4907 38.6725 49.2623 38.6725 52.1052C40.4801 51.4776 42.4312 50.8059 44.3618 50.1274C46.4461 49.398 48.5098 48.6177 50.6113 47.946C50.8902 47.875 51.1418 47.7238 51.3344 47.5113C51.5271 47.2989 51.6524 47.0347 51.6945 46.7519C51.9439 45.7681 52.289 44.808 52.4803 43.8174C53.3414 39.4072 56.9223 36.303 62.6491 37.6838C64.1833 38.0569 64.8906 37.6838 65.7243 36.5134C67.6583 33.8367 69.7427 31.2652 71.7519 28.6428C72.0013 28.3205 72.3601 28.0491 72.4352 27.5063C68.5331 26.3664 64.6481 25.1757 60.7323 24.1138C58.6821 23.5541 57.9816 21.8375 57.1854 20.2566C56.7993 19.4899 57.2914 18.6757 58.0841 18.2211C58.9315 17.7529 59.9429 17.7868 60.37 18.5943C61.3951 20.5517 63.2574 20.8503 65.0854 21.3659C68.106 22.2242 71.1129 23.13 74.1198 24.046C76.8157 24.8636 77.6256 27.2383 75.9445 29.474C73.5594 32.6629 71.146 35.8292 68.704 38.9729C68.2085 39.6107 68.106 39.9092 68.8372 40.5267C73.5013 44.462 74.8681 49.4421 73.6721 55.3519C72.9067 59.1277 71.3145 62.5541 69.8418 66.0483L69.2165 67.5512Z" fill="white"/>
<path d="M99.0776 85.952C104.179 89.704 104.61 97.5984 98.2234 101.696C100.229 104.024 101.053 106.67 100.332 109.699C100.085 110.795 99.6175 111.83 98.9568 112.742C98.2961 113.653 97.4561 114.422 96.4876 115.002C95.9545 115.341 95.9033 115.511 96.2792 116.02C98.4045 118.961 98.7188 122.126 97.0104 125.318C95.2677 128.579 92.3872 129.983 88.7038 129.976C79.1193 129.952 69.5314 129.915 59.9435 129.976C55.5903 130.01 51.8317 128.728 48.7223 125.695C48.4007 125.368 48.0122 125.114 47.583 124.95C47.1538 124.785 46.694 124.714 46.2348 124.742C40.5661 124.789 34.9008 124.776 29.2321 124.742C28.4941 124.742 28.1456 124.833 28.0396 125.719C27.7253 128.382 25.8869 129.932 23.1944 129.939C16.2512 129.953 9.30339 129.953 2.35107 129.939C0.840788 129.939 -0.00317469 129.26 -0.0202594 128.063C-0.037344 126.865 0.827113 126.139 2.42965 126.136H22.4973C24.1853 126.136 24.2707 126.048 24.2707 124.321C24.2707 115.048 24.2707 105.784 24.2707 96.5297C24.2501 96.0652 24.2706 95.5998 24.3322 95.1388C24.3813 94.7343 24.5755 94.3608 24.8791 94.0867C25.1828 93.8126 25.5758 93.6562 25.986 93.6461C26.4132 93.5718 26.8527 93.6616 27.2157 93.8972C27.5786 94.1328 27.8378 94.4966 27.9405 94.9149C28.0671 95.4055 28.12 95.9119 28.0977 96.4178C28.0977 104.156 28.1216 111.898 28.0806 119.639C28.0806 120.674 28.3266 120.996 29.3996 120.973C35.451 120.922 41.4989 120.973 47.5503 120.932C48.0546 120.906 48.5587 120.986 49.0297 121.166C49.5008 121.347 49.9281 121.624 50.2838 121.98C52.2691 123.931 54.4183 125.651 57.3364 126.007C57.8848 126.08 58.437 126.121 58.9902 126.129C69.0018 126.129 79.0146 126.129 89.0285 126.129C91.1367 126.129 92.7392 125.251 93.6823 123.371C94.1069 122.581 94.2926 121.686 94.2168 120.793C94.1411 119.9 93.8071 119.049 93.2552 118.34C92.2301 116.885 90.7062 116.305 88.9396 116.305C86.0865 116.305 83.2333 116.305 80.3768 116.305C78.7913 116.305 78.0122 115.694 77.9849 114.476C77.9576 113.258 78.8016 112.512 80.3973 112.505C84.2755 112.488 88.1537 112.542 92.0149 112.471C92.6448 112.462 93.2666 112.329 93.8444 112.079C94.4221 111.83 94.9442 111.469 95.3806 111.018C95.8169 110.567 96.1587 110.034 96.3863 109.451C96.6139 108.867 96.7226 108.245 96.7063 107.62C96.7049 106.359 96.2076 105.149 95.3203 104.247C94.4331 103.345 93.2261 102.823 91.9567 102.792C91.1469 102.765 90.3371 102.792 89.5273 102.792C87.4396 102.792 85.3518 102.792 83.2641 102.792C81.8734 102.792 81.0499 102.056 81.0465 100.892C81.0431 99.7289 81.8597 98.9995 83.2572 98.9927C86.5785 98.9757 89.9031 98.9927 93.2278 98.9927C96.5525 98.9927 99.0366 96.7299 99.081 93.5986C99.1255 90.4029 96.6892 88.0858 93.2723 88.0587C90.5045 88.0383 87.7334 88.0587 84.9657 88.0587C83.452 88.0587 82.6114 87.3802 82.6012 86.1691C82.5909 84.958 83.3973 84.2659 84.9179 84.2591C87.3917 84.2591 89.8622 84.2591 92.3326 84.2591C96.2211 84.2354 99.0913 81.4976 99.0981 77.8134C99.105 74.1291 96.2313 71.3677 92.3565 71.3677C89.9271 71.3677 87.4976 71.3677 85.0682 71.3677C83.5887 71.3677 82.7173 70.6179 82.7447 69.4373C82.772 68.311 83.64 67.5477 85.0238 67.5749C88.0991 67.6325 91.1743 67.2797 94.2119 67.7445C98.4352 68.3925 101.278 70.8825 102.488 74.8925C103.697 78.9024 102.645 82.4034 99.6345 85.3277C99.45 85.5042 99.2724 85.667 99.0947 85.8637C99.0835 85.8918 99.0777 85.9217 99.0776 85.952Z" fill="white"/>
<path d="M10.9824 118.758C11.4916 118.758 12.0075 118.734 12.5098 118.758C12.9641 118.751 13.4027 118.922 13.7312 119.234C14.0598 119.545 14.2519 119.972 14.2661 120.423C14.3721 121.417 13.8971 122.187 12.8994 122.404C11.6107 122.676 10.2791 122.676 8.99042 122.404C8.76785 122.368 8.5548 122.287 8.36368 122.168C8.17255 122.049 8.00709 121.893 7.87683 121.711C7.74658 121.528 7.65412 121.321 7.60479 121.102C7.55546 120.884 7.55025 120.657 7.58944 120.437C7.60015 119.983 7.78923 119.552 8.11617 119.235C8.4431 118.918 8.88198 118.74 9.33895 118.741C9.89591 118.73 10.4323 118.758 10.9824 118.758Z" fill="#2F9FEE"/>
<path d="M86.3733 5.18033C84.3983 3.23983 82.4507 1.20433 79.8606 0H77.8105C76.9597 0.51905 75.9824 0.854904 75.3913 1.73695C73.717 4.23043 71.9744 6.68319 70.3821 9.20042C69.8515 10.007 69.6263 10.9743 69.7464 11.9303C69.8665 12.8863 70.3242 13.769 71.0381 14.4215C72.0045 15.3675 73.0318 16.2502 74.1133 17.0642C74.8712 17.6653 75.8182 17.9821 76.7879 17.9592C77.7576 17.9362 78.6882 17.5749 79.4164 16.9387C81.7058 14.9846 83.9507 12.9729 86.1273 10.8933C87.7606 9.36664 87.9383 6.72391 86.3733 5.18033ZM83.1238 8.57281C81.1898 10.2928 79.2729 12.0298 77.3423 13.7531C77.153 13.9034 76.9519 14.0384 76.7409 14.1568C76.1327 13.9906 75.7808 13.5462 75.3742 13.19C73.4163 11.4937 73.4197 11.4937 74.8549 9.36664C75.9654 7.7179 77.1032 6.08613 78.1864 4.42042C78.6237 3.74192 79.0166 3.71477 79.6009 4.23721C80.7388 5.25495 81.9073 6.23879 83.0759 7.22261C83.5987 7.65685 83.6808 8.06393 83.1238 8.55923V8.57281Z" fill="#2F9FEE"/>
<path d="M81.7397 27.3436C82.4949 29.0398 83.9197 29.8642 86.0006 29.9795C89.1476 29.2603 92.5817 28.8227 95.8449 27.7405C96.8015 27.3958 97.5894 26.7012 98.0473 25.7988C98.5053 24.8964 98.5987 23.8543 98.3084 22.8858C97.7313 20.8591 97.0411 18.8658 96.2412 16.9151C96.0318 16.3908 95.7164 15.9149 95.3143 15.5165C94.9122 15.1182 94.432 14.806 93.9036 14.5993C93.3751 14.3927 92.8096 14.2958 92.2419 14.3148C91.6742 14.3339 91.1165 14.4684 90.6032 14.71C87.8936 15.9245 85.2284 17.234 82.5906 18.591C81.6793 19.0366 80.9597 19.7927 80.5632 20.7213C80.1668 21.6499 80.1199 22.6891 80.431 23.6491C80.7805 24.9092 81.2179 26.1437 81.7397 27.3436ZM84.569 21.8444C86.9973 20.657 89.4278 19.4742 91.8607 18.2958C92.3937 18.0414 92.7252 18.2517 92.9131 18.8115C93.4188 20.3279 93.9382 21.8376 94.4849 23.3371C94.6831 23.8765 94.6421 24.2428 94.0202 24.3751L85.7512 26.163C84.7056 25.5659 84.8389 24.2361 84.3571 23.2523C84.1111 22.7705 83.8446 22.2006 84.569 21.8444Z" fill="#2F9FEE"/>
<path d="M93.3502 33.5957C90.7192 33.3752 88.0847 33.2564 84.514 33.0155C83.0994 32.9579 81.2952 34.2335 80.7554 36.4793C80.4558 37.7092 80.2277 38.9552 80.072 40.211C79.8225 42.1821 80.8203 44.0038 82.6962 44.6688C85.6075 45.6865 88.5562 46.6635 91.5358 47.4879C93.9277 48.1664 96.1931 46.7043 96.7603 44.2854C97.1567 42.5892 97.4813 40.8929 97.7854 39.1967C98.2945 35.9467 96.6851 33.8739 93.3502 33.5957ZM94.0781 37.9516C93.7022 39.9294 93.3947 41.5918 93.053 43.2439C92.9539 43.7188 92.6669 43.9224 92.1099 43.7494C89.5677 42.9216 87.0152 42.1311 84.4696 41.3237C83.4445 40.9845 83.8101 40.1499 84.0288 39.6275C84.432 38.6912 83.6871 36.9373 85.3273 36.9135C87.9549 36.866 90.5894 37.2087 93.2238 37.3919C93.7671 37.436 94.1464 37.6327 94.0781 37.9516Z" fill="#2F9FEE"/>
<path d="M32.3241 8.77636C31.0666 6.87317 29.7272 5.02087 28.5074 3.09055C27.6566 1.73355 26.6589 0.607255 25.1418 0H23.0916C20.4982 1.20094 18.5573 3.24662 16.5789 5.18373C14.9764 6.75105 15.2121 9.41416 16.8932 11.0018C19.0231 13.0102 21.1975 14.9699 23.4162 16.881C25.0392 18.2889 27.1748 18.3194 28.9277 17.0133C29.8434 16.3348 30.7079 15.5715 31.5553 14.8048C33.4517 13.0916 33.7319 10.8967 32.3241 8.77636ZM28.8696 12.0976C28.8343 12.1219 28.8011 12.1491 28.7705 12.179C26.3787 14.374 26.3787 14.3774 23.9322 12.2163C22.5961 11.0358 21.2908 9.82125 19.9411 8.65763C19.2919 8.10126 19.309 7.68735 19.9753 7.14795C21.1302 6.21501 22.2305 5.21426 23.3615 4.25419C23.5693 4.09355 23.7874 3.94622 24.0142 3.81315C24.1759 3.84412 24.3276 3.91334 24.4567 4.01491C24.5858 4.11648 24.6883 4.2474 24.7556 4.39665C26.1771 6.49999 27.5848 8.61014 29.0268 10.6999C29.4061 11.2529 29.4402 11.6871 28.8696 12.0976Z" fill="#2F9FEE"/>
<path d="M8.10518 28.1032C10.8387 28.7297 13.5826 29.3121 16.3366 29.8503C18.1783 30.2133 19.7775 29.6332 20.7786 28.0625C21.8276 26.4137 22.3094 24.514 22.7023 22.7838C22.6818 20.7483 21.9096 19.3438 20.2148 18.5059C17.7067 17.2642 15.2022 16.0124 12.6702 14.8216C10.0836 13.6105 7.47305 14.7165 6.47872 17.4135C5.89784 18.9944 5.34434 20.5923 4.8113 22.1901C3.88873 24.9754 5.24521 27.4485 8.10518 28.1032ZM8.52546 23.1332C9.04483 21.7559 9.55055 20.3718 9.98792 18.9707C10.2271 18.2141 10.5927 18.0309 11.2932 18.377C13.6031 19.5078 15.9174 20.6386 18.2364 21.7695C18.3411 21.7986 18.4389 21.8483 18.524 21.9156C18.609 21.9829 18.6796 22.0665 18.7315 22.1614C18.7835 22.2563 18.8157 22.3606 18.8263 22.4681C18.8369 22.5756 18.8257 22.6841 18.7934 22.7872C18.4824 23.6625 18.1305 24.6937 17.7443 25.7183C17.5462 26.2509 17.1088 26.1491 16.6749 26.0575C14.1942 25.5079 11.7203 24.9278 9.22937 24.4461C8.31021 24.2595 8.24527 23.8762 8.52888 23.1332H8.52546Z" fill="#2F9FEE"/>
<path d="M22.1962 36.4252C21.6734 34.3049 19.9069 33.0327 17.6107 33.0327C14.7268 33.243 11.7472 33.372 8.78819 33.7112C6.30066 33.9894 4.73571 36.1538 5.12182 38.5998C5.4191 40.4758 5.78125 42.3315 6.1947 44.194C6.76875 46.735 9.0718 48.1632 11.614 47.4474C14.4671 46.64 17.2895 45.7138 20.088 44.7334C22.1074 44.0278 23.1632 42.2331 22.8899 40.1434C22.7318 38.8916 22.5002 37.6501 22.1962 36.4252ZM18.3111 41.3714C15.8851 42.1381 13.4557 42.8879 11.0434 43.6953C10.2575 43.9565 9.94311 43.6953 9.81326 42.9693C9.55358 41.5139 9.30759 40.0551 8.98639 38.6167C8.8053 37.8059 9.00343 37.426 9.87475 37.3751C12.4238 37.2258 14.9694 37.0359 17.5185 36.8662C17.9729 36.8357 18.3795 36.8662 18.4922 37.426C18.687 38.42 18.8852 39.4106 19.0834 40.4046C19.203 41.0254 18.8066 41.2188 18.3214 41.3714H18.3111Z" fill="#2F9FEE"/>
</g>
<defs>
<clipPath id="clip0_159_1459">
<rect width="103" height="130" fill="white"/>
</clipPath>
</defs>
</svg>
