<svg width="127" height="136" viewBox="0 0 127 136" fill="none" xmlns="http://www.w3.org/2000/svg">
<g clip-path="url(#clip0_159_1446)">
<path d="M23.4522 56.1559C23.7106 56.1712 23.9565 56.2716 24.1508 56.4413C24.3451 56.611 24.4768 56.8403 24.5249 57.0927C25.2655 59.5909 26.2836 61.9996 27.5607 64.2745C27.8896 64.8528 27.8503 65.2148 27.4498 65.7719C26.5545 66.9509 26.1237 68.4138 26.2383 69.8857C26.3528 71.3577 27.0048 72.7375 28.0719 73.7662C30.2817 76.0135 32.526 78.2276 34.8049 80.4087C37.1756 82.6796 40.265 82.928 42.9646 81.0722C43.1747 80.887 43.4411 80.7766 43.7215 80.7586C44.002 80.7406 44.2804 80.816 44.5128 80.9728C46.773 82.2054 49.166 83.1814 51.6463 83.8825C51.9414 83.9376 52.2097 84.0885 52.409 84.3113C52.6083 84.5342 52.7274 84.8164 52.7475 85.1137C53.3518 88.3072 55.7619 90.2482 59.0586 90.2659C62.0872 90.2659 65.1193 90.2659 68.1515 90.2482C71.5877 90.2269 73.9548 88.3179 74.6234 84.9257C74.6471 84.6504 74.762 84.3906 74.9503 84.1871C75.1386 83.9836 75.3895 83.8477 75.6639 83.8009C78.1351 83.0701 80.5205 82.0792 82.7794 80.8451C83.3337 80.5435 83.6948 80.4654 84.2919 80.8877C86.9451 82.7683 90.1167 82.5057 92.448 80.2419C94.6792 78.0822 96.8782 75.8869 99.0451 73.6562C101.416 71.2185 101.655 68.2379 99.7138 65.4667C99.5377 65.2761 99.4323 65.0318 99.4148 64.7738C99.3972 64.5159 99.4686 64.2597 99.6172 64.0474C100.881 61.7651 101.878 59.3473 102.589 56.8407C102.767 56.1878 103.103 55.9608 103.751 55.833C107.08 55.1766 108.993 52.8453 109.007 49.4851C109.007 46.5648 109.007 43.6481 109.007 40.7278C108.989 37.0872 107.158 34.8092 103.597 34.0853C103.34 34.0651 103.098 33.9613 102.907 33.7899C102.716 33.6185 102.588 33.3893 102.542 33.138C101.802 30.6409 100.783 28.2334 99.5063 25.9597C99.1738 25.3742 99.2346 25.0087 99.6244 24.4588C100.511 23.2739 100.934 21.8101 100.815 20.3392C100.696 18.8682 100.043 17.4901 98.9772 16.4608C96.7436 14.1781 94.4671 11.9308 92.1477 9.71904C89.8092 7.49424 86.7199 7.28489 84.1061 9.14421C83.5518 9.53808 83.1621 9.59129 82.5685 9.26839C80.2655 8.02372 77.8329 7.03146 75.3135 6.30911C74.9095 6.19201 74.4911 6.14588 74.416 5.52492C74.0585 2.54078 72.1598 0.873083 69.4101 -0.0317383H65.6628C63.9894 0.54309 62.266 0.0888907 60.5711 0.220179C59.6843 0.117277 58.7475 0.514703 57.9037 -0.0317383H57.3673C54.6391 0.951146 52.6832 2.61176 52.3614 5.66686C52.2971 6.29137 51.8179 6.27008 51.4102 6.40137C48.9451 7.15162 46.5633 8.1491 44.3019 9.37839C43.6726 9.73322 43.2792 9.69774 42.6749 9.27195C41.5148 8.41748 40.0858 8.00105 38.6443 8.09728C37.2028 8.19351 35.8429 8.79614 34.8085 9.79711C32.3985 12.0941 30.0434 14.4466 27.743 16.8547C26.7329 17.8768 26.1272 19.2255 26.0366 20.6543C25.946 22.0831 26.3766 23.4965 27.2496 24.6362C27.6823 25.2323 27.7359 25.651 27.3855 26.2826C26.1354 28.5271 25.1538 30.9087 24.4606 33.3792C24.4088 33.6506 24.2676 33.8973 24.0592 34.0803C23.8508 34.2634 23.587 34.3725 23.3092 34.3905C19.9839 35.0399 18.0495 37.3853 18.0352 40.7314C18.0352 43.693 18.0352 46.65 18.0352 49.6022C18.0781 53.1611 19.9481 55.4427 23.4522 56.1559ZM22.0506 40.7775C22.0506 39.2162 22.7943 38.4179 24.3819 38.2937C26.3021 38.1269 27.4999 37.1298 28.0327 35.3273C28.816 32.6167 29.895 29.9991 31.2508 27.521C32.1912 25.8178 32.041 24.2459 30.7931 22.7343C29.7204 21.4569 29.774 20.5166 30.9182 19.3527C33.0017 17.2237 35.1041 15.1196 37.2257 13.0403C38.4092 11.8764 39.4139 11.8409 40.7584 12.8983C42.2136 14.0409 43.7476 14.1935 45.3603 13.3312C47.9446 11.9543 50.6582 10.8312 53.4627 9.97806C55.2076 9.44581 56.1659 8.24294 56.3232 6.39071C56.4591 4.75139 57.2636 4.04173 58.9406 4.02754C61.9251 4.00625 64.9048 4.00034 67.8797 4.0098C69.4566 4.0098 70.2826 4.7514 70.4041 6.31266C70.5543 8.2323 71.5448 9.41033 73.3755 9.93548C76.1094 10.7059 78.7479 11.777 81.242 13.129C82.9619 14.0693 84.5351 13.9132 86.0691 12.6996C87.4994 11.5642 88.2753 11.6138 89.5589 12.8664C91.6567 14.9102 93.7436 16.9671 95.8198 19.0369C96.9962 20.2114 97.0642 21.2653 96.0201 22.5391C94.8115 24.0188 94.6792 25.5658 95.5839 27.2123C96.9556 29.6902 98.0548 32.3074 98.8627 35.0186C99.4026 36.8566 100.604 37.914 102.614 38.0346C104.165 38.1304 104.902 38.9785 104.931 40.5504C104.956 42.0549 104.931 43.5594 104.931 45.0638C104.931 46.5222 104.931 47.9806 104.931 49.4425C104.931 51.0286 104.355 51.8447 102.821 51.9724C100.515 52.164 99.3383 53.4237 98.7627 55.5208C98.076 57.9894 97.0877 60.3655 95.8198 62.5961C94.8151 64.3703 94.8759 66.006 96.2024 67.617C97.2751 68.905 97.1929 69.8134 96.0237 71.0021C93.9355 73.1311 91.8307 75.2328 89.7091 77.3074C88.5828 78.4181 87.51 78.4713 86.2836 77.4671C84.7532 76.211 83.1549 76.1187 81.4565 77.0413C78.9603 78.4035 76.3228 79.4933 73.59 80.2916C71.8022 80.8167 70.776 82.0303 70.6365 83.9499C70.515 85.5573 69.6783 86.274 67.9977 86.2847C65.0538 86.306 62.1122 86.3131 59.173 86.306C57.5317 86.306 56.7308 85.6957 56.5842 84.0847C56.3911 81.977 55.2433 80.8025 53.2875 80.2596C50.6742 79.5352 48.1544 78.5123 45.7786 77.2116C44.0086 76.243 42.414 76.3742 40.8407 77.6374C39.5606 78.6594 38.588 78.5955 37.4152 77.46C35.2698 75.3949 33.1494 73.3085 31.0541 71.2008C29.9242 70.0724 29.8705 69.0292 30.886 67.8086C32.1447 66.2899 32.2519 64.7038 31.3222 63.0184C29.9545 60.5394 28.8578 57.9224 28.0506 55.2121C27.5214 53.4379 26.3378 52.3734 24.3819 52.2705C22.7443 52.1676 22.0184 51.3479 22.0005 49.6767C22.022 46.7103 22.0387 43.7439 22.0506 40.7775Z" fill="#FEFEFE"/>
<path d="M60.6538 0.134838C62.3201 0.0461299 63.9935 0.312252 65.6598 0H60.5752C60.5752 0.0425798 60.5752 0.0887063 60.5752 0.131286L60.6538 0.134838Z" fill="#FEFEFE"/>
<path d="M60.4648 0.127756C60.4611 0.112593 60.4611 0.0967892 60.4648 0.0816261C60.4934 0.024853 60.522 0 60.5506 0H57.876C58.7413 0.280317 59.6102 0.0922728 60.4648 0.127756Z" fill="#FEFEFE"/>
<path d="M60.4639 0.12793C60.4639 0.166961 60.4925 0.209532 60.5533 0.252112C60.5533 0.213081 60.5533 0.170491 60.5533 0.13146L60.4639 0.12793Z" fill="#FEFEFE"/>
<path d="M126.76 103.895C125.809 100.211 122.638 97.7205 119.001 97.8021C117.441 97.8693 115.91 98.2432 114.496 98.9021C106.451 102.434 98.4008 105.954 90.346 109.462C87.7537 110.59 85.1649 111.722 82.4474 112.911V111.3C82.482 108.464 81.48 105.711 79.6268 103.552C77.7736 101.393 75.1947 99.9726 72.3676 99.555C66.5036 98.7247 60.618 98.0044 54.7182 97.5005C49.7337 97.0712 45.1641 95.7476 40.9126 93.0758C34.9473 89.3011 28.0484 87.2322 20.9748 87.0968C20.0952 87.0756 20.1345 86.6675 20.0988 86.0323C19.92 82.5798 17.6423 80.4189 14.1524 80.3905C11.3455 80.3657 8.53506 80.3586 5.72817 80.3905C2.40639 80.4366 0.0429078 82.6792 0.0321809 85.9685C-0.010727 99.9063 -0.010727 113.844 0.0321809 127.782C0.0321809 131.061 2.36708 133.374 5.66383 133.459C8.6054 133.533 11.5481 133.533 14.4921 133.459C17.417 133.378 19.498 131.49 20.0415 128.648C20.1095 128.293 19.9736 127.853 20.3312 127.519C25.8663 129.563 31.4335 131.536 36.9293 133.679C40.9497 135.259 45.2459 136.032 49.5693 135.954C57.593 135.837 65.624 135.769 73.6406 135.971C79.1328 136.11 84.0815 134.744 88.7942 132.068C100.201 125.639 111.432 118.9 123.038 112.829C126.389 111.108 127.551 106.967 126.76 103.895ZM120.893 109.423C109.533 115.572 98.3662 122.062 87.1423 128.445C82.9136 130.93 78.0591 132.168 73.1471 132.015C65.2807 131.788 57.3678 131.884 49.4763 131.987C45.6859 132.052 41.9197 131.376 38.3918 130C32.7673 127.817 27.0927 125.742 21.4039 123.74C20.2883 123.343 20.063 122.793 20.0737 121.739C20.1238 117.006 20.0952 112.272 20.0952 107.546C20.1427 107.016 20.0794 106.482 19.9093 105.977C19.7672 105.575 19.4907 105.234 19.1258 105.009C18.7609 104.784 18.3295 104.69 17.9033 104.743C17.4494 104.749 17.0143 104.924 16.6836 105.233C16.3528 105.541 16.1502 105.961 16.1155 106.41C16.0749 106.851 16.063 107.295 16.0798 107.737C16.0798 114.15 16.0798 120.565 16.0798 126.98C16.0798 129.063 15.6042 129.521 13.4659 129.524C11.0595 129.524 8.65312 129.524 6.24313 129.524C4.53397 129.524 4.00834 129.002 4.00477 127.313C4.00477 120.501 4.00477 113.688 4.00477 106.875C4.00477 100.197 4.00477 93.5169 4.00477 86.8343C4.00477 84.7337 4.36233 84.3966 6.50773 84.393C8.96062 84.393 11.4135 84.393 13.8628 84.393C15.5648 84.393 16.069 84.9075 16.0762 86.6249C16.0762 90.0774 16.0762 93.5264 16.0762 96.9789C16.0762 98.5544 16.7913 99.4414 18.0356 99.4627C19.28 99.484 20.063 98.5437 20.0809 97.025C20.1023 95.3431 20.1274 93.6612 20.0809 91.9829C20.0523 91.2022 20.3204 91.0355 21.057 91.0674C26.5913 91.2786 32.0025 92.75 36.8721 95.368C39.7327 96.8938 42.4109 98.7353 45.4895 99.8353C49.0115 101.095 52.7266 101.23 56.3881 101.673C61.2939 102.266 66.2175 102.738 71.1233 103.359C75.9505 103.969 79.0434 107.705 78.4176 113.418C78.3497 114.036 77.9779 113.975 77.5774 113.975H72.6287C66.9672 113.975 61.3058 113.975 55.6443 113.975C55.1124 113.961 54.5806 114.01 54.0603 114.121C53.6137 114.207 53.2171 114.46 52.9513 114.826C52.6856 115.193 52.5707 115.646 52.6301 116.094C52.6278 116.568 52.8111 117.024 53.1414 117.366C53.4716 117.708 53.9229 117.91 54.4 117.928C54.7569 117.954 55.1149 117.963 55.4727 117.953C63.5012 117.953 71.5262 117.953 79.5476 117.953C80.3912 117.967 81.2278 117.8 82.0004 117.463C93.2971 112.51 104.597 107.568 115.901 102.638C116.662 102.272 117.471 102.013 118.304 101.872C120.449 101.592 122.105 102.582 122.784 104.565C123.12 105.465 123.112 106.454 122.764 107.349C122.416 108.243 121.75 108.981 120.893 109.423Z" fill="#FEFEFE"/>
<path d="M67.4513 72.7794C79.2724 71.3387 89.5523 61.446 91.2865 49.843C91.476 48.5692 90.836 47.5614 89.6918 47.3273C88.5476 47.0931 87.6215 47.8453 87.3212 49.1227C87.0602 50.2404 86.8528 51.3759 86.4952 52.4617C81.761 66.733 66.0389 72.5381 53.9317 67.0417C56.1701 64.1463 60.3679 62.1309 64.7767 61.847C75.5644 61.1373 83.134 51.2233 80.7276 40.9722C80.3701 39.4819 79.7622 38.3358 78.1854 37.8923C76.6085 37.4487 75.5322 38.1655 74.5096 39.1945C72.0925 41.6145 69.6538 44.0131 67.2331 46.426C66.3785 47.2776 65.5526 47.306 64.698 46.426C63.9543 45.6667 63.1855 44.9286 62.4346 44.1728C61.2368 42.9699 61.2404 42.4235 62.4704 41.1993C64.9269 38.7545 67.4191 36.3488 69.8362 33.8685C71.9029 31.7395 71.0305 28.8654 68.1485 28.1486C65.5937 27.4857 62.9163 27.4383 60.3393 28.0102C52.4728 29.7844 47.2274 35.9939 46.6517 44.0912C46.3964 48.1915 44.5264 52.0277 41.4456 54.7716C39.6174 50.6919 38.9973 46.18 39.6577 41.7635C40.415 36.4698 42.9327 31.579 46.8112 27.8677C50.6898 24.1564 55.7066 21.8374 61.0651 21.2791C71.8672 20.1152 82.326 26.5625 86.1484 36.7746C86.6132 38.0094 86.8885 39.3152 87.2782 40.5784C87.33 40.819 87.4305 41.0467 87.5737 41.2477C87.7168 41.4486 87.8995 41.6186 88.1108 41.7474C88.3221 41.8761 88.5576 41.9609 88.803 41.9966C89.0483 42.0323 89.2984 42.0182 89.5381 41.9551C90.6751 41.7635 91.1864 40.99 91.1292 39.8652C91.0961 39.4691 91.0254 39.0771 90.9182 38.6942C87.4641 24.5932 74.2736 15.6301 59.6957 17.4752C43.4694 19.5333 32.274 35.6214 36.0964 51.3901C39.5576 65.665 52.6373 74.5819 67.4513 72.7794ZM44.0379 57.8764C48.2429 53.9733 50.2631 49.144 50.7851 43.4702C51.4395 36.3984 57.4144 31.406 64.4691 31.6295C64.9876 31.6472 65.5418 31.5834 66.0853 31.9843C63.94 34.1133 61.7946 36.2423 59.6492 38.3713C56.7887 41.2312 56.7887 44.1906 59.6492 47.0469C60.4358 47.8311 61.2118 48.6224 62.0163 49.3924C64.3727 51.6491 67.5335 51.6775 69.8827 49.3924C72.1568 47.2066 74.3737 44.9641 76.6192 42.7499C76.6442 42.7251 76.7014 42.7499 76.8766 42.7003C77.3772 44.3822 77.1556 46.0641 76.773 47.7069C76.1458 50.4462 74.6436 52.9112 72.4904 54.7347C70.3371 56.5582 67.6478 57.6427 64.8231 57.8267C59.3595 58.1603 54.7362 60.2148 50.9997 64.1605C50.2309 64.973 49.7554 64.8985 48.9652 64.2634C47.0773 62.7793 45.3878 61.0622 43.9378 59.1538C43.5731 58.6464 43.5337 58.3341 44.0379 57.8658V57.8764Z" fill="#2F9FEE"/>
</g>
<defs>
<clipPath id="clip0_159_1446">
<rect width="127" height="136" fill="white"/>
</clipPath>
</defs>
</svg>
