<svg width="186" height="185" viewBox="0 0 186 185" fill="none" xmlns="http://www.w3.org/2000/svg">
<g clip-path="url(#clip0_191_26)">
<path d="M99.583 62.7857C100.271 62.0974 100.938 61.3827 101.652 60.7162C102.551 59.8951 103.707 59.8974 104.506 60.6724C105.306 61.4474 105.373 62.7029 104.489 63.6254C103.11 65.0622 101.695 66.4725 100.261 67.8538C99.3312 68.7449 98.1143 68.7305 97.3079 67.9096C96.5015 67.0887 96.5379 65.9177 97.412 64.9518C97.441 64.9228 97.4724 64.8914 97.5014 64.8624C98.1969 64.1669 98.8907 63.4747 99.583 62.7857Z" fill="#2F9FEE"/>
<path d="M77.8035 65.7432C77.113 65.0527 76.4032 64.3815 75.7344 63.6741C74.8483 62.7252 74.8292 61.5421 75.6454 60.7162C76.4616 59.8904 77.6689 59.8854 78.6008 60.7739C80.0349 62.1597 81.4473 63.5672 82.8307 65.0038C83.0349 65.1909 83.198 65.4185 83.3098 65.6719C83.4217 65.9253 83.4797 66.1992 83.4804 66.4762C83.481 66.7532 83.4242 67.0274 83.3136 67.2814C83.203 67.5354 83.0409 67.7637 82.8377 67.952C82.0359 68.7151 80.8697 68.7128 79.974 67.8895C79.2207 67.2086 78.523 66.4626 77.8035 65.7432Z" fill="#2F9FEE"/>
<path d="M99.4362 122.068C98.7457 121.378 98.031 120.711 97.3671 119.999C96.5004 119.06 96.515 117.848 97.3529 117.044C97.5417 116.857 97.7659 116.709 98.0125 116.61C98.259 116.511 98.5228 116.462 98.7885 116.466C99.0541 116.471 99.3162 116.528 99.5594 116.635C99.8026 116.742 100.022 116.896 100.205 117.089C101.672 118.499 103.112 119.939 104.524 121.409C104.908 121.785 105.126 122.299 105.131 122.837C105.136 123.375 104.927 123.893 104.55 124.277C104.173 124.661 103.659 124.88 103.121 124.885C102.583 124.89 102.065 124.681 101.682 124.304C100.914 123.604 100.189 122.817 99.4362 122.068Z" fill="#2F9FEE"/>
<path d="M80.6943 122.128C80.0037 122.819 79.3323 123.529 78.6248 124.198C77.6758 125.089 76.4975 125.118 75.667 124.312C74.8364 123.505 74.81 122.271 75.718 121.363C77.1009 119.926 78.5111 118.515 79.9488 117.133C80.8712 116.249 82.093 116.273 82.8993 117.108C83.0849 117.298 83.2312 117.523 83.3297 117.77C83.4282 118.016 83.4771 118.28 83.4735 118.545C83.4698 118.811 83.4138 119.073 83.3086 119.317C83.2034 119.561 83.0511 119.782 82.8604 119.967C82.1601 120.711 81.4139 121.409 80.6943 122.128Z" fill="#2F9FEE"/>
<path d="M91.5811 62.1055C91.329 62.3691 91.01 62.5592 90.6584 62.6558C90.3067 62.7524 89.9354 62.7517 89.5842 62.6538C88.7656 62.4438 88.15 61.9006 88.1235 61.0724C88.0465 58.909 88.0177 56.7359 88.1194 54.5724C88.1702 53.5172 88.9743 52.9111 90.0391 52.8892C91.1039 52.8674 92.0118 53.4709 92.0696 54.5865C92.1853 56.7064 92.1198 58.8385 92.0979 60.9609C92.0914 61.1763 92.0424 61.3883 91.9537 61.5848C91.865 61.7812 91.7384 61.9582 91.5811 62.1055Z" fill="#2F9FEE"/>
<path d="M91.5667 131.503C91.2956 131.774 90.9539 131.964 90.5804 132.051C90.2069 132.137 89.8166 132.117 89.4539 131.993C89.0761 131.9 88.7394 131.685 88.4956 131.382C88.2518 131.079 88.1143 130.704 88.1043 130.315C88.0466 128.234 88.0202 126.145 88.1243 124.057C88.1727 122.931 88.9575 122.287 90.0827 122.267C91.2079 122.248 92.0408 122.868 92.0963 123.986C92.2023 126.106 92.1417 128.233 92.1149 130.361C92.1052 130.578 92.0516 130.791 91.9574 130.988C91.8632 131.184 91.7303 131.359 91.5667 131.503Z" fill="#2F9FEE"/>
<path d="M182.842 91.4112C182.636 90.6042 182.374 89.8127 182.057 89.0426L180.254 87.2391C178.537 86.3773 176.702 86.334 174.826 86.3367C160.688 86.3655 146.551 86.3782 132.416 86.3749C131.484 86.375 131.103 86.2398 131.151 85.1726C131.248 83.3037 131.229 81.4251 131.154 79.5538C130.981 75.1931 127.68 71.772 123.308 71.7073C116.626 71.5897 109.938 71.6531 103.255 71.6732C101.806 71.6733 101.122 72.4388 101.067 73.9334C101.047 74.9186 101.023 75.9086 101.074 76.872C101.119 77.5553 100.888 77.7195 100.233 77.7123C97.797 77.6909 95.38 77.6597 92.9533 77.7155C89.4812 77.8076 86.8683 80.4205 86.868 83.8009C86.8676 87.1813 89.4244 89.8249 92.9013 89.9405C94.2632 89.9838 95.6274 89.9426 96.9868 89.9546C98.3462 89.9665 100.097 89.4858 100.811 90.1522C101.618 90.9054 100.932 92.7164 101.072 94.0541C101.166 94.9692 100.76 95.0658 99.9997 95.0538C97.66 95.013 95.3154 95.0012 92.9757 95.0522C89.4866 95.1274 86.8931 97.7547 86.8686 101.116C86.8489 104.564 89.4491 107.198 92.9961 107.287C94.4449 107.325 95.8936 107.287 97.3424 107.286C98.5666 107.318 100.151 106.772 100.901 107.513C101.478 108.09 101.032 109.696 101.053 110.843C101.084 112.598 101.782 113.31 103.562 113.312C109.992 113.324 116.422 113.355 122.859 113.291C127.686 113.25 131.093 109.78 131.168 104.953C131.195 103.207 131.251 101.456 131.145 99.718C131.085 98.6918 131.449 98.5734 132.345 98.5757C143.075 98.6068 153.806 98.6137 164.536 98.5965C168.667 98.5985 172.804 98.6536 176.925 98.559C180.808 98.491 183.522 95.1489 182.842 91.4112ZM93.3147 85.8671C91.8418 85.8431 90.9243 85.0029 90.9559 83.7594C90.9874 82.5159 91.8808 81.7866 93.3006 81.7816C95.6403 81.7645 97.9825 81.7884 100.322 81.7664C100.805 81.7663 101.083 81.7881 101.083 82.411C101.073 83.5555 101.179 84.7 101.239 85.9C98.4215 85.8883 95.8669 85.8982 93.3147 85.8671ZM93.308 103.209C91.8376 103.187 90.9201 102.342 90.954 101.101C90.988 99.8598 91.8815 99.1305 93.2988 99.1279C95.5975 99.1084 97.8962 99.1564 100.192 99.0958C100.948 99.0788 101.088 99.3203 101.074 100.016C101.052 101.071 101.165 102.131 101.228 103.242C98.4149 103.23 95.8602 103.24 93.3056 103.206L93.308 103.209ZM127.064 105.238C127.044 106.291 126.617 107.295 125.873 108.039C125.128 108.783 124.124 109.21 123.072 109.23C117.369 109.245 111.665 109.226 105.965 109.263C105.233 109.265 105.149 108.997 105.151 108.372C105.173 97.7689 105.172 87.1729 105.147 76.5842C105.147 75.884 105.367 75.7463 106.021 75.7487C111.681 75.777 117.341 75.7378 123.001 75.7759C123.536 75.7708 124.066 75.8724 124.562 76.0748C125.057 76.2771 125.507 76.5762 125.885 76.9546C126.263 77.3329 126.563 77.7828 126.765 78.2781C126.967 78.7734 127.069 79.3041 127.064 79.8392C127.094 88.3015 127.093 96.7678 127.064 105.238ZM177.508 94.389C177.017 94.5311 176.505 94.582 175.996 94.5389C161.446 94.5452 146.896 94.558 132.345 94.5772C131.285 94.5797 131.08 94.2393 131.177 93.3314C131.274 92.4235 130.88 91.1318 131.365 90.6222C131.851 90.1127 133.123 90.4482 134.034 90.4602C148.03 90.4507 162.029 90.4436 176.03 90.4389C176.844 90.4412 177.66 90.4073 178.3 91.0664C178.535 91.3117 178.704 91.612 178.793 91.9398C178.881 92.2677 178.886 92.6125 178.807 92.9427C178.727 93.2728 178.567 93.5779 178.339 93.8297C178.111 94.0816 177.823 94.2722 177.503 94.3841L177.508 94.389Z" fill="#404041"/>
<path d="M79.1312 110.973C79.1438 98.6699 79.1459 86.3676 79.1375 74.0662C79.1352 72.3784 78.3989 71.671 76.7014 71.6736C70.2328 71.6622 63.7593 71.6363 57.2906 71.6828C52.5605 71.7195 49.1242 75.2041 49.0343 79.9391C49.0052 81.6824 48.9591 83.433 49.0531 85.1739C49.1134 86.2001 48.785 86.4078 47.8191 86.4079C35.6094 86.385 23.3901 86.3718 11.161 86.3683C9.28251 86.3636 7.44743 86.4121 5.73057 87.2743L3.92429 89.0806C3.92669 89.1603 3.96049 89.2665 3.92426 89.322C1.53103 92.9707 3.96913 98.8524 9.83174 98.6682C14.4702 98.5205 19.111 98.6359 23.7518 98.6354C31.8406 98.6362 39.9286 98.6281 48.0158 98.6111C48.8537 98.6086 49.0831 98.8283 49.0564 99.6517C48.991 101.48 49.0029 103.312 49.0438 105.14C49.1447 109.757 52.5199 113.253 57.1124 113.31C63.6704 113.392 70.226 113.345 76.7816 113.327C78.3921 113.325 79.1262 112.586 79.1312 110.973ZM46.0387 94.5524L10.0302 94.5586C9.21404 94.5587 8.40275 94.5829 7.68328 93.8973C7.44238 93.6447 7.27124 93.3339 7.18662 92.9953C7.102 92.6567 7.1068 92.3019 7.20057 91.9657C7.27935 91.6099 7.46098 91.2852 7.7229 91.0319C7.98481 90.7785 8.31543 90.6078 8.6736 90.5409C9.1313 90.4714 9.59496 90.4495 10.0572 90.4756C22.6564 90.4694 35.2549 90.4592 47.8525 90.4451C48.7531 90.4425 49.166 90.5801 49.0331 91.5822C48.9002 92.5843 49.3299 93.8929 48.83 94.4025C48.3301 94.912 47.0118 94.5499 46.0387 94.5524ZM74.1381 109.245C68.5628 109.219 62.9899 109.253 57.4123 109.225C54.8987 109.213 53.1459 107.46 53.1462 104.959C53.1229 96.6121 53.1214 88.2714 53.1415 79.9363C53.0994 78.9367 53.4377 77.9582 54.0884 77.1981C55.1678 76.1186 56.1723 75.7467 57.3337 75.749C62.9524 75.7508 68.5687 75.7647 74.185 75.7303C74.9577 75.7254 75.0736 75.991 75.0735 76.6767C75.0515 87.2284 75.0503 97.7817 75.0702 108.337C75.058 109.092 74.8334 109.259 74.1381 109.245Z" fill="#404041"/>
<path d="M62.6437 93.9301C62.4616 94.1529 62.2347 94.3348 61.9777 94.4641C61.7207 94.5934 61.4394 94.6671 61.152 94.6804C60.8647 94.6938 60.5778 94.6465 60.3099 94.5416C60.0421 94.4368 59.7994 94.2767 59.5975 94.0718C59.3957 93.8668 59.2393 93.6217 59.1385 93.3523C59.0376 93.0829 58.9947 92.7953 59.0124 92.5082C59.03 92.2211 59.108 91.9409 59.2411 91.6859C59.3743 91.4309 59.5596 91.2068 59.7851 91.0281C60.1811 90.7143 60.6791 90.5579 61.1834 90.5888C61.6876 90.6198 62.1626 90.836 62.5171 91.1959C62.8716 91.5558 63.0806 92.034 63.104 92.5387C63.1273 93.0433 62.9634 93.5389 62.6437 93.9301Z" fill="#2F9FEE"/>
<path d="M119.003 93.9267C118.633 93.5428 118.427 93.0295 118.429 92.4961C118.431 91.9627 118.642 91.4512 119.015 91.0703C119.198 90.8486 119.426 90.6679 119.684 90.5401C119.942 90.4122 120.223 90.34 120.51 90.3282C120.798 90.3163 121.084 90.3651 121.352 90.4713C121.619 90.5775 121.861 90.7389 122.061 90.9447C122.262 91.1506 122.417 91.3964 122.517 91.6662C122.616 91.936 122.658 92.2237 122.639 92.5107C122.62 92.7976 122.54 93.0774 122.406 93.3317C122.272 93.586 122.086 93.8092 121.859 93.9868C121.469 94.3507 120.952 94.548 120.419 94.5368C119.885 94.5256 119.377 94.3067 119.003 93.9267Z" fill="#2F9FEE"/>
</g>
<defs>
<clipPath id="clip0_191_26">
<rect width="130.815" height="130.815" fill="white" transform="translate(93) rotate(45)"/>
</clipPath>
</defs>
</svg>
