<svg width="157" height="136" viewBox="0 0 157 136" fill="none" xmlns="http://www.w3.org/2000/svg">
<g clip-path="url(#clip0_487_304)">
<path d="M21.0597 117.763C21.0597 119.426 21.093 121.09 21.0472 122.749C21.0054 124.321 20.0296 125.378 18.6784 125.437C17.2605 125.5 16.122 124.434 16.0928 122.783C16.0303 119.347 16.0303 115.911 16.0928 112.475C16.122 110.815 17.2355 109.741 18.6492 109.783C20.0546 109.825 21.0221 110.924 21.0555 112.609C21.0889 114.327 21.0638 116.045 21.0638 117.763H21.0597Z" fill="white"/>
<path d="M74.82 117.579C74.82 115.915 74.7742 114.251 74.8284 112.592C74.8868 110.887 75.8584 109.816 77.2513 109.787C78.6359 109.758 79.7452 110.828 79.7744 112.496C79.8411 115.932 79.8411 119.368 79.766 122.804C79.7327 124.413 78.6901 125.412 77.3473 125.441C75.9419 125.471 74.8993 124.409 74.8325 122.737C74.7658 121.023 74.8159 119.301 74.8159 117.583L74.82 117.579Z" fill="white"/>
<path d="M95.8296 104.266C95.767 97.866 92.5058 93.2931 86.5298 91.0819C82.7431 89.6816 78.944 88.3231 75.1573 86.9228C73.5184 86.3167 71.5458 86.1328 71.1288 83.8714C71.0954 83.6833 70.8786 83.4952 70.7034 83.3698C66.7208 80.6194 65.8742 76.7111 66.383 72.1842C66.5039 71.1015 66.7833 70.3617 67.5757 69.6385C70.0987 67.3437 72.1463 64.6769 73.7394 61.6422C76.1457 57.0652 77.1716 52.1787 77.1257 47.0457C77.0965 43.9358 77.0631 40.8761 78.4143 37.925C79.2192 36.1694 79.5195 34.1881 79.6029 32.2486C80.0241 22.5217 79.728 12.7907 79.778 3.06391C79.7905 0.948841 78.8105 0.0501442 76.6628 0.0501442C64.3478 0.0376043 52.0329 -0.0794353 39.7179 0.0919441C29.1337 0.238244 20.2592 6.81336 17.2524 16.7534C15.234 23.4288 15.4092 30.3258 17.2358 36.997C18.1866 40.4622 18.7496 43.8313 18.7788 47.4094C18.833 54.4485 20.7472 61.103 25.5806 66.236C28.6791 69.5299 30.0345 72.8237 29.3964 77.1333C29.3881 77.1876 29.3881 77.2461 29.3964 77.3005C29.5882 78.4416 29.0961 79.2483 28.3246 80.0843C26.9067 81.6226 25.0843 82.864 24.2669 84.8662C23.9708 85.5852 23.5997 85.8736 22.9366 86.1119C18.3576 87.7546 13.7786 89.4057 9.22457 91.107C3.99082 93.0632 0.558649 96.7834 0.225024 102.389C-0.183668 109.202 0.0623812 116.061 0.0874031 122.896C0.0915734 124.434 1.25509 125.471 2.62296 125.433C3.93244 125.395 4.90412 124.396 5.03757 122.929C5.07928 122.486 5.05425 122.039 5.05425 121.596C5.05425 115.815 5.04174 110.03 5.05842 104.249C5.07093 100.09 6.98928 97.2724 10.8468 95.8345C15.7178 94.0204 20.6179 92.2899 25.4846 90.4674C26.3729 90.1372 26.815 90.2668 27.3321 91.0861C29.1128 93.895 30.9853 96.6496 32.8327 99.4168C35.385 103.233 38.7379 103.593 41.9449 100.37C43.0125 99.2997 44.0009 98.1502 45.0268 97.0384C45.4021 102.786 45.4021 108.232 45.4021 113.675C45.4021 116.622 45.3646 119.568 45.4188 122.515C45.4521 124.329 46.478 125.441 47.9418 125.437C49.4014 125.437 50.3481 124.309 50.394 122.494C50.4148 121.663 50.394 120.827 50.394 119.991C50.394 112.442 50.394 104.893 50.394 97.3435C50.5316 97.2474 50.6734 97.1554 50.8152 97.0592C51.8703 98.192 52.8878 99.3624 53.9846 100.453C57.0665 103.522 60.4986 103.191 62.9091 99.6007C64.8274 96.7458 66.7291 93.8783 68.6057 90.9983C69.0144 90.3713 69.3481 90.087 70.1821 90.4005C75.2532 92.3108 80.3535 94.1374 85.433 96.0226C87.9268 96.9464 89.5783 98.7312 90.4123 101.252C90.8002 102.422 90.8461 103.647 90.8419 104.876C90.8377 110.824 90.821 116.776 90.8586 122.724C90.8669 124.329 91.8511 125.37 93.2065 125.429C94.5535 125.487 95.596 124.497 95.8046 122.938C95.8421 122.666 95.8338 122.382 95.8338 122.106C95.8338 116.158 95.8796 110.205 95.8212 104.257L95.8296 104.266ZM26.1227 58.0015C24.4254 54.3064 23.658 50.4106 23.7331 46.3602C23.7957 43.0204 23.5079 39.8269 22.3361 36.5916C20.3843 31.2036 20.4761 25.4854 21.5854 19.9636C23.3703 11.0644 30.9311 5.17481 40.1183 5.06195C45.498 4.99507 50.8777 5.04941 56.2574 5.04941C61.9708 5.04941 67.6841 5.05777 73.3974 5.04105C74.2357 5.04105 74.8529 4.98253 74.8362 6.20308C74.7111 14.4836 74.9738 22.7684 74.6777 31.0489C74.5902 33.5151 74.048 35.8935 73.0555 38.1424C72.3632 39.7057 72.113 41.2899 72.1255 42.987C72.1505 46.6486 72.3048 50.3186 71.379 53.926C68.8768 63.6821 60.3193 71.1141 50.9528 72.1424C39.7305 73.3755 30.268 67.0344 26.1185 58.0056L26.1227 58.0015ZM38.4001 96.9088C37.8079 97.5107 37.5118 97.4773 37.0531 96.775C34.847 93.3934 32.6534 90.0076 30.3389 86.7054C29.5173 85.535 30.514 85.209 30.9478 84.5486C31.7943 83.2486 32.5992 83.2653 33.8545 84.1849C37.149 86.6009 40.5687 88.8414 44.1009 91.27C42.0909 93.2513 40.2184 95.0529 38.4001 96.913V96.9088ZM48.7383 87.3073C48.1462 87.717 47.7458 87.7379 47.1411 87.3157C43.196 84.5611 39.2258 81.8399 35.239 79.1397C34.6218 78.7217 34.3341 78.2828 34.3799 77.522C34.4467 76.4185 34.3966 75.3066 34.3966 73.9189C43.4796 78.4332 52.3707 78.3287 61.437 74.0401C61.437 75.4153 61.4078 76.6191 61.4495 77.8188C61.4703 78.475 61.1284 78.7969 60.6404 79.1313C56.6619 81.8399 52.6876 84.5569 48.7383 87.3073ZM65.1777 87.1569C63.1301 90.3086 61.0074 93.4101 58.9681 96.566C58.4051 97.4396 58.0715 97.5609 57.2958 96.7458C55.5443 94.9066 53.676 93.176 51.741 91.2909C55.5985 88.6408 59.2767 86.1161 62.955 83.5955C63.1718 83.4492 63.4387 83.1441 63.6723 83.3614C64.4396 84.072 65.257 84.7659 65.845 85.6103C66.262 86.208 65.478 86.6845 65.1736 87.1527L65.1777 87.1569Z" fill="white"/>
<path d="M26.74 31.5717C26.74 30.6813 26.7025 29.791 26.7484 28.9048C26.8818 26.284 28.5833 24.1731 31.1481 23.8011C39.5805 22.5805 48.0295 22.2586 56.416 24.1229C60.6114 25.0551 64.5231 26.7103 67.7593 29.6739C69.1897 30.9823 69.465 32.4327 68.4975 33.5864C67.5258 34.7484 65.9869 34.7568 64.5523 33.4777C61.141 30.4472 57.0166 29.1347 52.6419 28.4868C46.0778 27.5087 39.5096 27.7177 32.9413 28.5913C31.9154 28.7293 31.661 29.0804 31.7069 30.0376C31.7778 31.534 31.7486 33.0346 31.7111 34.5353C31.6735 36.0066 30.9521 36.9513 29.4341 37.0934C28.012 37.2272 26.9861 36.2909 26.7609 34.7317C26.7442 34.623 26.74 34.5102 26.74 34.4015C26.74 33.4568 26.74 32.5121 26.74 31.5675V31.5717Z" fill="white"/>
<path d="M155.119 113.946C152.325 108.546 146.453 105.44 140.51 106.042C134.313 106.669 129.18 110.974 127.553 117.031C127.253 118.151 126.89 118.653 125.631 118.536C124.033 118.39 122.403 118.423 120.797 118.528C119.684 118.603 119.442 118.248 119.446 117.161C119.492 107.463 119.471 97.7698 119.471 88.0723C119.471 83.5872 119.504 79.1062 119.446 74.6253C119.434 73.6346 119.709 73.388 120.655 73.4381C122.211 73.5218 123.783 73.5719 125.33 73.4256C126.702 73.3002 127.228 73.7224 127.603 75.0976C129.801 83.0897 138.046 87.6208 146.074 85.3595C153.918 83.1524 158.534 74.8719 156.341 66.9508C154.531 60.4259 148.659 55.9366 141.937 55.9449C135.193 55.9533 129.305 60.3924 127.57 66.955C127.228 68.2508 126.715 68.5559 125.501 68.4807C123.846 68.3762 122.173 68.4222 120.509 68.4681C119.738 68.489 119.446 68.3302 119.446 67.4608C119.475 53.1234 119.471 38.7903 119.45 24.4529C119.45 23.6754 119.596 23.3536 120.459 23.3912C122.119 23.4622 123.796 23.5124 125.447 23.3828C126.773 23.2783 127.236 23.7507 127.587 25.0214C129.788 33.0261 138 37.5655 146.04 35.3209C153.893 33.1264 158.526 24.8625 156.345 16.9373C154.543 10.3998 148.684 5.89795 141.97 5.89795C135.222 5.89795 129.326 10.3287 127.57 16.8746C127.24 18.1119 126.802 18.5006 125.531 18.4421C123.041 18.325 120.539 18.4086 118.045 18.4086C115.088 18.4086 114.475 19.0147 114.471 21.924C114.471 36.9887 114.458 52.0533 114.496 67.118C114.496 68.2132 114.241 68.5141 113.141 68.4765C110.438 68.3887 107.732 68.4389 105.029 68.4514C103.094 68.4598 101.952 69.4421 101.997 71.0179C102.039 72.5311 103.144 73.4381 105.013 73.4507C107.715 73.4632 110.421 73.5092 113.124 73.4256C114.196 73.3922 114.508 73.643 114.5 74.7674C114.446 82.4293 114.471 90.0912 114.471 97.7573C114.471 105.369 114.471 112.981 114.471 120.588C114.471 122.657 115.317 123.489 117.403 123.493C120.055 123.502 122.716 123.611 125.355 123.452C126.79 123.364 127.203 123.878 127.603 125.165C129.438 131.126 133.487 134.788 139.635 135.766C145.598 136.715 150.544 134.6 154.047 129.701C157.588 124.747 157.909 119.368 155.102 113.938L155.119 113.946ZM142.062 60.9567C147.575 61.0152 151.983 65.5547 151.929 71.1183C151.874 76.5481 147.354 80.9914 141.903 80.9663C136.382 80.9454 131.932 76.4268 131.961 70.88C131.99 65.3582 136.532 60.8982 142.062 60.9567ZM141.866 10.9098C147.408 10.8889 151.899 15.3405 151.929 20.879C151.954 26.4008 147.454 30.9319 141.945 30.9235C136.478 30.9193 132.011 26.4886 131.965 21.0337C131.919 15.4827 136.369 10.9348 141.866 10.9098ZM141.799 131.009C136.357 130.942 131.953 126.449 131.965 120.973C131.978 115.443 136.494 110.962 142.016 110.999C147.533 111.037 151.966 115.556 151.933 121.115C151.899 126.616 147.329 131.08 141.803 131.013L141.799 131.009Z" fill="#619DEA"/>
</g>
<defs>
<clipPath id="clip0_487_304">
<rect width="157" height="136" fill="white"/>
</clipPath>
</defs>
</svg>
