<svg width="126" height="126" viewBox="0 0 126 126" fill="none" xmlns="http://www.w3.org/2000/svg">
<path d="M27.7613 15.8273L27.7617 15.8273C28.7193 15.841 29.437 16.0203 29.9088 16.5046C30.379 16.9871 30.5496 17.716 30.5632 18.682C30.5768 19.6094 30.5921 20.5373 30.6073 21.4654C30.6409 23.5084 30.6745 25.5527 30.6907 27.5962L30.6907 27.5966C30.696 28.4329 30.4506 29.1345 29.995 29.6035C29.5348 30.0774 28.886 30.2863 28.1511 30.1786L28.151 30.1786C27.5078 30.084 27.0151 29.8213 26.6837 29.4034C26.3552 28.9892 26.2078 28.4508 26.1971 27.8443M27.7613 15.8273L26.447 27.8399M27.7613 15.8273C24.8332 15.7904 21.9087 15.7669 18.981 15.7501L27.7613 15.8273ZM26.1971 27.8443L26.447 27.8399M26.1971 27.8443C26.1971 27.8443 26.1971 27.8443 26.1971 27.8444L26.447 27.8399M26.1971 27.8443C26.1785 26.8117 26.1823 25.7776 26.1865 24.6551C26.1878 24.3029 26.1891 23.9421 26.1898 23.5698M26.447 27.8399C26.4285 26.8101 26.4323 25.7802 26.4365 24.6591C26.438 24.2485 26.4396 23.8255 26.4401 23.3858C26.3548 23.4469 26.2714 23.5083 26.1898 23.5698M26.1898 23.5698C26.19 23.4668 26.1902 23.3629 26.1902 23.2581C26.2718 23.1984 26.3551 23.139 26.4403 23.0798L78.4616 114.77L78.4152 114.524C78.1981 114.565 77.9873 114.624 77.7852 114.683C77.7318 114.698 77.6794 114.714 77.6276 114.729C77.4798 114.773 77.337 114.816 77.1919 114.854L77.1916 114.854C62.7305 118.612 48.802 117.116 36.0939 109.333C26.1956 103.271 19.0505 95.7449 14.6588 86.8499C10.267 77.9548 8.62088 67.6754 9.74551 56.0955C10.8563 44.6618 15.7254 34.7543 23.44 26.2454L23.4401 26.2453C23.5056 26.1729 23.5709 26.1006 23.6361 26.0283C24.3869 25.1959 25.137 24.3643 26.1898 23.5698ZM23.0244 20.2656C23.1451 20.2654 23.267 20.2652 23.3901 20.2651C23.4758 20.1843 23.5636 20.1011 23.6538 20.015C23.5315 20.015 23.4105 20.015 23.2906 20.0152C23.1998 20.1011 23.1111 20.1844 23.0244 20.2656ZM18.9325 20.0116L18.9292 20.2616C18.9292 20.2616 18.9293 20.2616 18.9294 20.2616L18.9325 20.0116Z" fill="#404041" stroke="#404041" stroke-width="0.5"/>
<path d="M102.706 105.983C102.8 105.897 102.89 105.814 102.979 105.733C102.856 105.733 102.733 105.733 102.608 105.734C102.522 105.813 102.434 105.895 102.342 105.98L102.706 105.983ZM102.706 105.983C102.587 105.984 102.467 105.984 102.345 105.984C102.345 105.984 102.344 105.984 102.344 105.984C102.341 105.984 102.338 105.984 102.335 105.984L102.706 105.983ZM98.1714 95.8765C97.3884 95.6626 96.664 95.8145 96.1372 96.2769C95.6145 96.7356 95.3194 97.4702 95.3229 98.3619L95.3229 98.3623C95.3353 100.584 95.3731 102.805 95.411 105.025C95.4245 105.82 95.438 106.614 95.4504 107.408C95.4504 107.408 95.4504 107.408 95.4504 107.408L95.7004 107.404C95.7272 109.201 96.4082 109.899 98.2195 109.923M98.1714 95.8765L98.2161 110.173M98.1714 95.8765L98.1055 96.1177L98.1712 95.8765C98.1713 95.8765 98.1713 95.8765 98.1714 95.8765ZM98.2195 109.923L98.2161 110.173M98.2195 109.923L98.2163 110.173C98.2162 110.173 98.2162 110.173 98.2161 110.173M98.2195 109.923C101.191 109.963 104.16 109.987 107.129 110C108.652 110.007 109.514 109.301 109.541 108.072M98.2161 110.173C101.189 110.213 104.158 110.237 107.128 110.25C107.924 110.253 108.584 110.071 109.052 109.694C109.528 109.312 109.776 108.754 109.79 108.078M109.541 108.072L109.79 108.078M109.541 108.072L109.79 108.078C109.79 108.078 109.79 108.078 109.79 108.078M109.541 108.072C109.571 106.783 108.692 106.011 107.115 105.987L109.79 108.078M99.8251 102.475C99.7456 102.545 99.6623 102.619 99.5748 102.696C99.5747 102.807 99.5747 102.919 99.5747 103.032C99.6616 102.954 99.7449 102.88 99.8247 102.809C99.8248 102.696 99.8249 102.585 99.8251 102.475ZM47.6861 11.4234C47.6863 11.4233 47.6865 11.4233 47.6867 11.4233C47.6869 11.4232 47.6871 11.4232 47.6873 11.4231L47.6356 11.1785L47.6861 11.4234ZM53.328 5.74512L53.2918 5.4978C53.2918 5.4978 53.2917 5.4978 53.2917 5.4978L53.328 5.74512Z" fill="#404041" stroke="#404041" stroke-width="0.5"/>
<path d="M102.25 63.0774C102.297 41.6502 85.0356 24.1291 63.6707 23.7593L63.6785 23.7515L63.0774 23.7501C41.4579 23.6997 23.7938 41.2966 23.7501 62.9226C23.7064 84.5455 41.2899 102.196 62.9225 102.25C84.5388 102.304 102.203 84.7067 102.25 63.0774ZM62.9437 97.7503C43.7724 97.7138 28.1899 82.0518 28.2496 62.8805C28.3094 43.7624 43.9315 28.2198 63.053 28.253C82.2277 28.2862 97.8167 43.9449 97.7503 63.1161C97.684 82.2376 82.0583 97.7868 62.9437 97.7503Z" fill="#404041" stroke="#404041" stroke-width="0.5"/>
<path d="M55.6878 72.9396L55.6879 72.9398C56.5333 74.7807 57.8698 76.1173 59.7177 76.6958C60.505 76.9411 61.1944 77.318 61.6026 77.9869C62.0059 78.6477 62.0075 79.3882 61.9163 80.0508C61.9161 80.0534 61.9157 80.0591 61.9155 80.0689C61.9151 80.0844 61.9152 80.1053 61.9162 80.1369C61.9169 80.1594 61.9177 80.1782 61.9187 80.2015C61.9193 80.2161 61.9199 80.2324 61.9207 80.2524C61.9225 80.2976 61.9243 80.354 61.9243 80.4147V80.418C61.9243 80.6116 61.9219 80.7901 61.9195 80.9599C61.9146 81.3118 61.9103 81.6267 61.9295 81.962L61.9295 81.9622C61.9516 82.348 62.0826 82.5933 62.2289 82.7388C62.3729 82.8818 62.5966 82.9938 62.9334 82.9996L62.9352 82.9997C63.3095 83.0069 63.5468 82.8926 63.6913 82.7538C63.8368 82.614 63.9742 82.3662 63.99 81.9493C64.0265 80.9485 64.0233 79.9449 63.99 78.941C63.9764 78.5746 64.0189 78.0982 64.3476 77.6821C64.6593 77.2874 65.0979 77.118 65.4347 77.0198L65.435 77.0197C67.0016 76.5637 68.298 75.7376 69.2481 74.4983L69.2485 74.4978C71.1903 71.9683 71.5362 69.3044 70.192 66.5014C68.8418 63.686 66.5042 62.1798 63.2299 62.0369C61.0259 61.9412 59.0939 61.1575 57.8477 59.1461L57.8476 59.146C56.1044 56.3315 57.2353 52.7051 60.1529 51.1594L55.6878 72.9396ZM55.6878 72.9396C55.4271 72.3723 55.4246 72.0023 55.4843 71.7941C55.5346 71.6185 55.6662 71.4219 56.0397 71.2593M55.6878 72.9396L63.453 75.5323M63.453 75.5323L63.4528 75.5323C60.9834 75.766 58.7575 74.4247 57.5668 72.1474M63.453 75.5323C65.9242 75.2978 67.9282 73.7118 68.6395 71.3601L68.6398 71.3593L63.453 75.5323ZM57.5668 72.1474C57.5667 72.1472 57.5666 72.1469 57.5664 72.1467L58.4526 71.6834L57.5669 72.1476C57.5669 72.1476 57.5669 72.1475 57.5668 72.1474ZM57.5668 72.1474C57.2664 71.5744 56.9772 71.3203 56.7693 71.2211C56.5981 71.1395 56.38 71.1118 56.0397 71.2593M56.0397 71.2593L55.6406 70.3425L56.0387 71.2597C56.039 71.2596 56.0393 71.2594 56.0397 71.2593ZM55.0425 55.375L55.0425 55.3754C54.5832 60.0904 57.9223 63.7346 63.0071 63.9563C63.0071 63.9563 63.0072 63.9563 63.0072 63.9563L62.9637 64.9554L55.0425 55.375ZM55.0425 55.375C55.3406 52.3027 57.1315 50.2209 60.1967 49.1303C60.7452 48.9358 61.2758 48.6486 61.6101 48.1225C61.9418 47.6004 61.962 47.0253 61.9326 46.5542L61.9326 46.5531M55.0425 55.375L61.9326 46.5531M61.9326 46.5531C61.8814 45.7455 61.8967 44.92 61.9303 44.0703L61.9326 46.5531ZM62.9797 43.0002L62.9771 43.0002C62.6082 42.9951 62.3752 43.1097 62.2317 43.2501C62.0855 43.3934 61.9475 43.6473 61.9303 44.0702L62.9797 43.0002ZM62.9797 43.0002C63.341 43.0042 63.5642 43.1214 63.702 43.2638C63.8442 43.4109 63.9803 43.674 63.9932 44.1152L63.9932 44.117M62.9797 43.0002L63.9932 44.117M63.9932 44.117C64.0235 45.0899 64.033 46.0487 63.9871 46.9929L63.987 46.9955M63.9932 44.117L63.987 46.9955M63.987 46.9955C63.9685 47.3985 64.0171 47.8939 64.3619 48.3228C64.6801 48.7186 65.127 48.8951 65.4667 49.0028L65.468 49.0032M63.987 46.9955L65.468 49.0032M65.468 49.0032C67.5831 49.6707 69.1445 50.963 70.1557 52.8704M65.468 49.0032L70.1557 52.8704M70.1557 52.8704C70.4698 53.4637 70.5072 53.8784 70.4571 54.1258M70.1557 52.8704L70.4571 54.1258M70.4571 54.1258C70.4145 54.3359 70.288 54.5409 69.95 54.7129M70.4571 54.1258L69.95 54.7129M69.95 54.7129C69.615 54.8826 69.387 54.8634 69.1921 54.7728C68.9516 54.661 68.6202 54.3698 68.2765 53.733L69.95 54.7129ZM68.2764 53.7327C66.6502 50.7176 63.1555 49.5678 60.1532 51.1592L68.2764 53.7327Z" fill="#2F9FEE" stroke="#2F9FEE" stroke-width="2"/>
</svg>
