<?xml version="1.0" encoding="utf-8"?>
<!-- Generator: Adobe Illustrator 26.3.1, SVG Export Plug-In . SVG Version: 6.00 Build 0)  -->
<svg version="1.1" id="Capa_1" xmlns="http://www.w3.org/2000/svg" xmlns:xlink="http://www.w3.org/1999/xlink" x="0px" y="0px"
	 viewBox="0 0 1953.76 1578.12" style="enable-background:new 0 0 1953.76 1578.12;" xml:space="preserve">
<style type="text/css">
	.st0{opacity:0.15;}
	.st1{fill:#E0E0E0;}
	.st2{fill:#404041;}
	.st3{fill:#FFFFFF;}
	.st4{fill:#3097E6;}
	.st5{fill:#E7E7E7;}
	.st6{fill:#F0F1F5;}
	.st7{fill:#ED6568;}
	.st8{fill:#53B0E5;}
	.st9{fill:#E7C365;}
	.st10{fill:#7C61AA;}
</style>
<g class="st0">
	<path class="st1" d="M965.9,1560.74c-423.19,0-767.34-344.29-767.34-767.34S542.84,26.05,965.9,26.05s767.34,344.29,767.34,767.34
		S1389.22,1560.74,965.9,1560.74z M965.9,36.87c-417.05,0-756.36,339.31-756.36,756.39s339.44,756.39,756.36,756.39
		s756.39-339.3,756.39-756.39S1383.12,36.87,965.9,36.87z"/>
	<path class="st1" d="M965.9,1408.35c-339.17,0-615.09-275.93-615.09-615.09s276.07-615.1,615.09-615.1s615.24,275.96,615.24,615.1
		C1581.13,1132.39,1305.2,1408.35,965.9,1408.35z M965.9,189.25c-333.03,0-604,270.94-604,604c0,333.06,271.12,603.97,604,603.97
		s604-270.94,604-603.97S1299.1,189.25,965.9,189.25z"/>
	<path class="st1" d="M965.9,1255.96c-255.14,0-462.71-207.57-462.71-462.71c0-255.14,207.71-462.71,462.71-462.71
		s462.71,207.57,462.71,462.71C1428.6,1048.4,1221.18,1255.96,965.9,1255.96z M965.9,341.64c-119.71,0.18-234.46,47.82-319.1,132.48
		S514.56,673.55,514.42,793.26c0,249,202.61,451.61,451.62,451.61c119.8,0,234.68-47.59,319.39-132.3s132.3-199.59,132.3-319.39
		s-47.59-234.68-132.3-319.39s-199.59-132.3-319.39-132.3L965.9,341.64z"/>
	<path class="st1" d="M965.89,1103.58c-61.4,0-121.41-18.2-172.46-52.31c-51.05-34.11-90.84-82.59-114.33-139.32
		c-23.5-56.72-29.64-119.14-17.67-179.35c11.98-60.22,41.54-115.53,84.96-158.94c43.41-43.41,98.73-72.98,158.94-84.96
		c60.22-11.98,122.63-5.83,179.36,17.66c56.72,23.5,105.2,63.28,139.31,114.33c34.11,51.05,52.32,111.07,52.32,172.46
		c-0.06,82.31-32.79,161.23-90.99,219.43C1127.12,1070.79,1048.2,1103.51,965.89,1103.58z M965.89,494.03
		c-59.18,0-117.03,17.55-166.24,50.43c-49.21,32.88-87.56,79.61-110.21,134.29c-22.65,54.68-28.57,114.84-17.03,172.89
		s40.05,111.36,81.89,153.21c41.85,41.85,95.17,70.35,153.21,81.89c58.04,11.55,118.21,5.62,172.89-17.03
		c54.68-22.65,101.41-61,134.29-110.21c32.88-49.21,50.43-107.06,50.43-166.24c-0.09-79.33-31.65-155.39-87.74-211.48
		C1121.28,525.68,1045.23,494.12,965.89,494.03z"/>
	<path class="st1" d="M965.9,951.19c-31.24,0-61.77-9.26-87.74-26.62c-25.97-17.35-46.21-42.02-58.17-70.88
		c-11.95-28.86-15.08-60.61-8.99-91.25c6.09-30.64,21.13-58.78,43.22-80.87c22.09-22.09,50.23-37.13,80.87-43.22
		c30.64-6.09,62.39-2.97,91.25,8.99c28.86,11.95,53.53,32.19,70.88,58.17c17.35,25.97,26.62,56.51,26.62,87.74
		c-0.04,41.87-16.7,82.01-46.31,111.62C1047.91,934.49,1007.77,951.14,965.9,951.19z M965.9,646.42c-29.04,0-57.43,8.61-81.58,24.75
		c-24.15,16.13-42.97,39.07-54.08,65.9c-11.11,26.83-14.02,56.36-8.36,84.84c5.67,28.48,19.65,54.65,40.19,75.18
		c20.54,20.54,46.7,34.52,75.19,40.19c28.48,5.67,58.01,2.76,84.84-8.36c26.83-11.12,49.76-29.94,65.9-54.08
		c16.13-24.15,24.75-52.54,24.75-81.58c-0.05-38.93-15.53-76.25-43.06-103.78C1042.15,661.95,1004.83,646.46,965.9,646.42z"/>
</g>
<g class="st0">
	<path class="st2" d="M1442.17,1475.36H502.28c-11.06,0-20.02-8.96-20.02-20.02V729.77c0-11.06,8.96-20.02,20.02-20.02h939.89
		c11.06,0,20.02,8.96,20.02,20.02v725.57C1462.19,1466.4,1453.23,1475.36,1442.17,1475.36z"/>
</g>
<g>
	<path class="st3" d="M1453.91,1463.99H514.02c-11.06,0-20.02-8.96-20.02-20.02V718.4c0-11.06,8.96-20.02,20.02-20.02h939.89
		c11.06,0,20.02,8.96,20.02,20.02v725.57C1473.93,1455.03,1464.97,1463.99,1453.91,1463.99z"/>
</g>
<g>
	<rect x="928.48" y="880.55" class="st4" width="87.47" height="472.13"/>
</g>
<g>
	<rect x="558.7" y="748.85" class="st4" width="87.47" height="34.8"/>
</g>
<g>
	<rect x="1015.96" y="880.55" class="st5" width="87.47" height="472.13"/>
</g>
<g>
	<rect x="1136.29" y="1078.83" class="st4" width="87.47" height="273.84"/>
</g>
<g>
	<rect x="1223.76" y="1114.42" class="st5" width="87.47" height="238.27"/>
</g>
<g>
	<rect x="730.26" y="1000.31" class="st4" width="87.47" height="352.37"/>
</g>
<g>
	<rect x="817.74" y="1043.89" class="st5" width="87.47" height="308.79"/>
</g>
<g>
	<path class="st4" d="M978.5,1392.93h7.48v20.59h-3.3v-17.5h-4.18L978.5,1392.93L978.5,1392.93z"/>
	<path class="st4" d="M1003.18,1392.91v3.15h-8.69v5.07c0.87-0.47,1.84-0.71,2.95-0.71c1.93,0,3.58,0.58,4.98,1.74
		c1.4,1.16,2.09,2.73,2.09,4.71c0,1.99-0.73,3.63-2.18,4.93s-3.24,1.96-5.36,1.96c-2.77,0-4.98-0.92-6.63-2.77l1.85-2.53
		c0.15,0.16,0.37,0.34,0.64,0.56c0.27,0.21,0.81,0.5,1.64,0.87c0.82,0.37,1.73,0.55,2.71,0.55c0.98,0,1.87-0.3,2.68-0.89
		c0.81-0.59,1.21-1.45,1.21-2.58c0-1.13-0.43-2.01-1.28-2.62c-0.85-0.62-1.93-0.93-3.24-0.93s-2.55,0.32-3.72,0.98l-1.48-1.59v-9.89
		L1003.18,1392.91L1003.18,1392.91z"/>
	<path class="st4" d="M1019.09,1389.64h2.95l-12.75,27.34h-2.95L1019.09,1389.64z"/>
	<path class="st4" d="M1023.66,1392.93h7.48v20.59h-3.3v-17.5h-4.18L1023.66,1392.93L1023.66,1392.93z"/>
	<path class="st4" d="M1037.85,1410.86c-1.4-1.93-2.1-4.52-2.1-7.76s0.7-5.83,2.1-7.76c1.4-1.93,3.49-2.9,6.3-2.9
		c2.8,0,4.91,0.97,6.3,2.9s2.1,4.52,2.1,7.76s-0.7,5.83-2.1,7.76c-1.4,1.93-3.49,2.9-6.3,2.9S1039.24,1412.79,1037.85,1410.86z
		 M1040.34,1397.53c-0.81,1.41-1.23,3.27-1.23,5.57s0.4,4.15,1.23,5.57c0.82,1.41,2.09,2.12,3.81,2.12s2.99-0.7,3.79-2.1
		c0.8-1.41,1.19-3.27,1.19-5.58c0-2.32-0.39-4.18-1.19-5.58c-0.8-1.41-2.06-2.1-3.79-2.1
		C1042.42,1395.4,1041.15,1396.11,1040.34,1397.53z"/>
</g>
<g>
	<path class="st4" d="M1355.92,1380.93c1.99,1.8,2.97,4.3,2.97,7.49s-0.96,5.73-2.88,7.6c-1.93,1.86-4.87,2.8-8.84,2.8h-6.83v-20.59
		h7.06C1351.11,1378.24,1353.94,1379.13,1355.92,1380.93z M1355.39,1388.52c0-4.71-2.7-7.06-8.1-7.06h-3.47v14.11h3.86
		c2.5,0,4.41-0.59,5.73-1.78C1354.73,1392.59,1355.39,1390.84,1355.39,1388.52z"/>
	<path class="st4" d="M1362.91,1383.15h3.3v15.67h-3.3V1383.15z M1366.11,1381.16h-2.77l3.12-4.13l3.24,1.44L1366.11,1381.16z"/>
	<path class="st4" d="M1383.67,1398.82h-3v-2.1c-1.3,1.55-3.04,2.33-5.21,2.33c-1.63,0-2.98-0.47-4.05-1.39
		c-1.07-0.92-1.6-2.16-1.6-3.7c0-1.54,0.57-2.7,1.71-3.47s2.68-1.15,4.63-1.15h4.27v-0.59c0-2.08-1.16-3.12-3.47-3.12
		c-1.45,0-2.96,0.53-4.54,1.59l-1.47-2.06c1.9-1.51,4.07-2.27,6.47-2.27c1.84,0,3.35,0.47,4.52,1.4c1.17,0.93,1.76,2.4,1.76,4.41
		v10.11H1383.67z M1380.37,1392.99v-1.33h-3.71c-2.37,0-3.56,0.74-3.56,2.24c0,0.77,0.3,1.35,0.89,1.76c0.59,0.4,1.41,0.6,2.46,0.6
		c1.05,0,1.97-0.3,2.75-0.89C1379.97,1394.79,1380.37,1394,1380.37,1392.99z"/>
	<path class="st4" d="M1399.43,1394.14c0,1.5-0.54,2.69-1.62,3.58c-1.08,0.9-2.46,1.34-4.15,1.34c-1.14,0-2.33-0.21-3.55-0.62
		s-2.31-0.99-3.25-1.74l1.59-2.56c1.83,1.38,3.59,2.06,5.3,2.06c0.74,0,1.33-0.17,1.76-0.52c0.43-0.34,0.64-0.78,0.64-1.31
		c0-0.79-1.04-1.5-3.12-2.12c-0.16-0.06-0.28-0.1-0.35-0.12c-3.26-0.89-4.89-2.35-4.89-4.41c0-1.45,0.56-2.61,1.69-3.49
		s2.6-1.31,4.41-1.31s3.52,0.53,5.12,1.59l-1.24,2.44c-1.28-0.84-2.66-1.26-4.15-1.26c-0.79,0-1.42,0.14-1.92,0.43
		c-0.49,0.29-0.73,0.72-0.73,1.28c0,0.51,0.25,0.89,0.77,1.12c0.35,0.18,0.85,0.34,1.49,0.5s1.2,0.31,1.69,0.47s0.97,0.33,1.42,0.53
		c0.47,0.2,0.96,0.47,1.49,0.82C1398.89,1391.55,1399.43,1392.65,1399.43,1394.14z"/>
</g>
<g>
	<path class="st4" d="M562.05,908.35h7.48v20.59h-3.3v-17.5h-4.18L562.05,908.35L562.05,908.35z"/>
	<path class="st4" d="M576.24,926.27c-1.4-1.93-2.1-4.52-2.1-7.76c0-3.24,0.7-5.83,2.1-7.76c1.4-1.93,3.49-2.9,6.3-2.9
		c2.8,0,4.91,0.97,6.3,2.9c1.4,1.93,2.1,4.52,2.1,7.76c0,3.24-0.7,5.83-2.1,7.76c-1.4,1.93-3.49,2.9-6.3,2.9
		C579.74,929.17,577.64,928.21,576.24,926.27z M578.73,912.95c-0.81,1.41-1.23,3.27-1.23,5.57s0.4,4.15,1.23,5.57
		c0.81,1.41,2.09,2.12,3.81,2.12c1.73,0,2.99-0.7,3.79-2.1c0.8-1.41,1.19-3.27,1.19-5.58c0-2.32-0.39-4.18-1.19-5.58
		c-0.8-1.41-2.06-2.1-3.79-2.1C580.82,910.83,579.54,911.54,578.73,912.95z"/>
	<path class="st4" d="M596.51,926.27c-1.4-1.93-2.1-4.52-2.1-7.76c0-3.24,0.7-5.83,2.1-7.76c1.4-1.93,3.49-2.9,6.3-2.9
		c2.8,0,4.91,0.97,6.3,2.9c1.4,1.93,2.1,4.52,2.1,7.76c0,3.24-0.7,5.83-2.1,7.76c-1.4,1.93-3.49,2.9-6.3,2.9
		S597.9,928.21,596.51,926.27z M598.99,912.95c-0.81,1.41-1.23,3.27-1.23,5.57s0.4,4.15,1.23,5.57c0.82,1.41,2.09,2.12,3.81,2.12
		c1.73,0,2.99-0.7,3.79-2.1c0.8-1.41,1.19-3.27,1.19-5.58c0-2.32-0.39-4.18-1.19-5.58c-0.8-1.41-2.06-2.1-3.79-2.1
		C601.08,910.83,599.82,911.54,598.99,912.95z"/>
</g>
<g>
	<path class="st2" d="M670,757.57h3.47v20.59H670V757.57z"/>
	<path class="st2" d="M681.86,769.69v8.48h-3.3v-15.67h3.3v2.86c0.53-0.96,1.26-1.72,2.19-2.27c0.93-0.55,1.94-0.82,3.02-0.82
		c1.76,0,3.2,0.54,4.29,1.62c1.09,1.08,1.64,2.64,1.64,4.68v9.6h-3.3v-8.6c0-2.88-1.2-4.33-3.59-4.33c-1.14,0-2.13,0.38-2.97,1.14
		C682.28,767.12,681.86,768.23,681.86,769.69z"/>
	<path class="st2" d="M712.08,762.49v13.66c0,2.77-0.75,4.84-2.26,6.23c-1.5,1.39-3.43,2.08-5.78,2.08c-2.35,0-4.49-0.73-6.39-2.21
		l1.56-2.51c1.53,1.16,3.08,1.74,4.64,1.74c1.56,0,2.8-0.4,3.71-1.21c0.91-0.81,1.37-2.1,1.37-3.86v-2.01
		c-0.49,0.92-1.19,1.66-2.1,2.21c-0.91,0.55-1.94,0.82-3.08,0.82c-2.08,0-3.79-0.73-5.12-2.18c-1.33-1.45-2.01-3.26-2.01-5.42
		c0-2.16,0.67-3.97,2.01-5.42c1.33-1.45,3.04-2.18,5.11-2.18s3.75,0.85,5.05,2.56v-2.33L712.08,762.49L712.08,762.49z
		 M699.86,769.72c0,1.29,0.4,2.4,1.19,3.33c0.8,0.93,1.86,1.4,3.21,1.4c1.34,0,2.44-0.45,3.27-1.35c0.83-0.9,1.25-2.02,1.25-3.38
		c0-1.34-0.42-2.48-1.27-3.42c-0.84-0.93-1.93-1.4-3.27-1.4c-1.33,0-2.4,0.48-3.2,1.44C700.26,767.31,699.86,768.44,699.86,769.72z"
		/>
	<path class="st2" d="M725.07,765.58c-1.63,0-2.86,0.53-3.68,1.59c-0.82,1.06-1.24,2.48-1.24,4.27v6.72h-3.3V762.5h3.3v3.15
		c0.53-0.98,1.25-1.79,2.17-2.42c0.91-0.63,1.88-0.95,2.9-0.98l0.03,3.33C725.19,765.58,725.14,765.58,725.07,765.58z"/>
	<path class="st2" d="M743.13,771.77h-12.28c0.08,1.14,0.6,2.06,1.56,2.76c0.96,0.7,2.06,1.05,3.3,1.05c1.96,0,3.46-0.62,4.48-1.85
		l1.88,2.06c-1.69,1.75-3.89,2.62-6.6,2.62c-2.2,0-4.07-0.73-5.61-2.19c-1.54-1.46-2.31-3.43-2.31-5.89c0-2.46,0.79-4.42,2.35-5.87
		s3.42-2.18,5.55-2.18c2.13,0,3.94,0.64,5.44,1.93c1.5,1.29,2.24,3.06,2.24,5.32L743.13,771.77L743.13,771.77z M730.85,769.18h8.98
		c0-1.32-0.41-2.33-1.24-3.04c-0.82-0.71-1.84-1.06-3.05-1.06c-1.21,0-2.29,0.37-3.25,1.1
		C731.33,766.93,730.85,767.92,730.85,769.18z"/>
	<path class="st2" d="M757.92,773.48c0,1.5-0.54,2.69-1.62,3.58c-1.08,0.9-2.46,1.34-4.15,1.34c-1.14,0-2.33-0.21-3.55-0.62
		c-1.23-0.41-2.31-0.99-3.25-1.74l1.59-2.56c1.83,1.38,3.59,2.06,5.3,2.06c0.74,0,1.33-0.17,1.76-0.52
		c0.43-0.34,0.64-0.78,0.64-1.31c0-0.79-1.04-1.5-3.12-2.12c-0.16-0.06-0.28-0.1-0.35-0.12c-3.26-0.89-4.89-2.35-4.89-4.41
		c0-1.45,0.56-2.61,1.69-3.49c1.13-0.88,2.6-1.31,4.41-1.31c1.81,0,3.52,0.53,5.13,1.59l-1.24,2.44c-1.28-0.84-2.66-1.26-4.15-1.26
		c-0.79,0-1.42,0.14-1.92,0.43c-0.49,0.29-0.73,0.72-0.73,1.28c0,0.51,0.25,0.89,0.77,1.12c0.35,0.18,0.85,0.34,1.49,0.5
		c0.64,0.16,1.2,0.31,1.69,0.47c0.49,0.16,0.97,0.33,1.42,0.53c0.47,0.2,0.96,0.47,1.49,0.82
		C757.39,770.88,757.92,771.99,757.92,773.48z"/>
	<path class="st2" d="M774.77,776.06c-1.58,1.56-3.54,2.35-5.89,2.35s-4.32-0.78-5.89-2.35c-1.57-1.56-2.35-3.47-2.35-5.73
		c0-2.26,0.79-4.16,2.35-5.73c1.58-1.56,3.54-2.35,5.89-2.35s4.32,0.78,5.89,2.35c1.57,1.56,2.35,3.47,2.35,5.73
		C777.12,772.59,776.34,774.49,774.77,776.06z M765.32,774.03c0.93,0.95,2.11,1.43,3.55,1.43c1.43,0,2.61-0.47,3.55-1.43
		c0.93-0.95,1.4-2.18,1.4-3.7c0-1.51-0.47-2.74-1.4-3.7c-0.93-0.95-2.11-1.43-3.55-1.43c-1.43,0-2.61,0.47-3.55,1.43
		c-0.93,0.95-1.4,2.18-1.4,3.7C763.93,771.84,764.39,773.07,765.32,774.03z"/>
	<path class="st2" d="M792.02,773.48c0,1.5-0.54,2.69-1.62,3.58c-1.08,0.9-2.46,1.34-4.15,1.34c-1.14,0-2.33-0.21-3.55-0.62
		c-1.23-0.41-2.31-0.99-3.25-1.74l1.59-2.56c1.83,1.38,3.59,2.06,5.3,2.06c0.74,0,1.33-0.17,1.76-0.52
		c0.43-0.34,0.64-0.78,0.64-1.31c0-0.79-1.04-1.5-3.12-2.12c-0.16-0.06-0.28-0.1-0.35-0.12c-3.26-0.89-4.89-2.35-4.89-4.41
		c0-1.45,0.56-2.61,1.69-3.49s2.6-1.31,4.41-1.31s3.52,0.53,5.13,1.59l-1.24,2.44c-1.28-0.84-2.66-1.26-4.15-1.26
		c-0.79,0-1.42,0.14-1.92,0.43c-0.49,0.29-0.73,0.72-0.73,1.28c0,0.51,0.25,0.89,0.77,1.12c0.35,0.18,0.85,0.34,1.49,0.5
		c0.64,0.16,1.2,0.31,1.69,0.47c0.49,0.16,0.97,0.33,1.42,0.53c0.47,0.2,0.96,0.47,1.49,0.82
		C791.5,770.88,792.02,771.99,792.02,773.48z"/>
</g>
<g>
	<rect x="842.7" y="748.85" class="st5" width="87.47" height="34.8"/>
</g>
<g>
	<path class="st2" d="M944.62,773.71l-2.06,4.68h-3.71l9.07-20.59h3.72l9.07,20.59H957l-2.06-4.68H944.62z M953.51,770.51
		l-3.74-8.48l-3.74,8.48H953.51z"/>
	<path class="st2" d="M966.44,765.38v7.95c0,0.74,0.2,1.34,0.59,1.78c0.39,0.44,0.94,0.66,1.65,0.66s1.39-0.34,2.03-1.03l1.35,2.33
		c-1.16,1.04-2.44,1.56-3.84,1.56c-1.41,0-2.61-0.48-3.59-1.46c-0.99-0.98-1.49-2.28-1.49-3.93v-7.86h-1.98v-2.65h1.98v-4.92h3.3
		v4.92h4.13v2.65L966.44,765.38L966.44,765.38z"/>
	<path class="st2" d="M989.27,772h-12.28c0.08,1.14,0.6,2.06,1.56,2.76c0.96,0.7,2.06,1.05,3.3,1.05c1.96,0,3.46-0.62,4.48-1.85
		l1.88,2.06c-1.69,1.75-3.89,2.62-6.6,2.62c-2.2,0-4.07-0.73-5.61-2.19s-2.31-3.43-2.31-5.89c0-2.46,0.79-4.42,2.35-5.87
		s3.42-2.18,5.55-2.18c2.13,0,3.94,0.64,5.44,1.93c1.5,1.29,2.24,3.06,2.24,5.32L989.27,772L989.27,772z M976.99,769.42h8.98
		c0-1.32-0.41-2.33-1.24-3.04c-0.82-0.71-1.84-1.06-3.05-1.06c-1.21,0-2.29,0.37-3.25,1.1
		C977.47,767.16,976.99,768.16,976.99,769.42z"/>
	<path class="st2" d="M996.19,769.92v8.48h-3.3v-15.67h3.3v2.86c0.53-0.96,1.26-1.72,2.19-2.27c0.93-0.55,1.94-0.82,3.02-0.82
		c1.76,0,3.2,0.54,4.29,1.62c1.09,1.08,1.64,2.64,1.64,4.68v9.6h-3.3v-8.6c0-2.88-1.2-4.33-3.59-4.33c-1.14,0-2.13,0.38-2.97,1.14
		C996.61,767.36,996.19,768.47,996.19,769.92z"/>
	<path class="st2" d="M1018.87,778.64c-2.18,0-4.06-0.74-5.62-2.22c-1.57-1.49-2.35-3.42-2.35-5.82c0-2.4,0.82-4.34,2.46-5.85
		c1.64-1.5,3.64-2.26,5.99-2.26c2.35,0,4.35,0.81,5.98,2.44l-1.94,2.38c-1.35-1.18-2.72-1.76-4.09-1.76c-1.38,0-2.57,0.46-3.58,1.37
		c-1.01,0.91-1.51,2.1-1.51,3.54s0.5,2.67,1.5,3.67c1,1,2.23,1.5,3.7,1.5c1.46,0,2.85-0.67,4.14-2.01l1.94,2.12
		C1023.57,777.67,1021.36,778.64,1018.87,778.64z"/>
	<path class="st2" d="M1029.09,759.6c-0.41-0.41-0.62-0.9-0.62-1.47c0-0.57,0.21-1.06,0.62-1.47s0.9-0.62,1.47-0.62
		s1.06,0.21,1.48,0.62c0.41,0.41,0.62,0.9,0.62,1.47c0,0.57-0.21,1.06-0.62,1.47c-0.41,0.41-0.9,0.62-1.48,0.62
		C1029.99,760.22,1029.5,760.02,1029.09,759.6z M1032.18,778.4h-3.3v-15.67h3.3V778.4z"/>
	<path class="st2" d="M1050.06,776.29c-1.58,1.56-3.54,2.35-5.89,2.35c-2.35,0-4.32-0.78-5.89-2.35c-1.57-1.56-2.35-3.47-2.35-5.73
		c0-2.26,0.79-4.16,2.35-5.73c1.58-1.56,3.54-2.35,5.89-2.35c2.35,0,4.32,0.78,5.89,2.35c1.57,1.56,2.35,3.47,2.35,5.73
		C1052.42,772.82,1051.64,774.74,1050.06,776.29z M1040.62,774.26c0.93,0.95,2.11,1.43,3.55,1.43c1.43,0,2.61-0.47,3.55-1.43
		c0.93-0.95,1.4-2.18,1.4-3.7s-0.47-2.74-1.4-3.7c-0.93-0.95-2.11-1.43-3.55-1.43s-2.61,0.47-3.55,1.43c-0.93,0.95-1.4,2.18-1.4,3.7
		S1039.69,773.31,1040.62,774.26z"/>
	<path class="st2" d="M1059.46,769.92v8.48h-3.3v-15.67h3.3v2.86c0.53-0.96,1.26-1.72,2.19-2.27c0.93-0.55,1.94-0.82,3.02-0.82
		c1.76,0,3.2,0.54,4.29,1.62c1.09,1.08,1.64,2.64,1.64,4.68v9.6h-3.3v-8.6c0-2.88-1.2-4.33-3.59-4.33c-1.14,0-2.13,0.38-2.97,1.14
		C1059.88,767.36,1059.46,768.47,1059.46,769.92z"/>
	<path class="st2" d="M1089.77,772h-12.28c0.08,1.14,0.6,2.06,1.56,2.76c0.96,0.7,2.06,1.05,3.3,1.05c1.96,0,3.46-0.62,4.48-1.85
		l1.88,2.06c-1.69,1.75-3.89,2.62-6.6,2.62c-2.2,0-4.07-0.73-5.61-2.19s-2.31-3.43-2.31-5.89c0-2.46,0.79-4.42,2.35-5.87
		c1.57-1.45,3.42-2.18,5.55-2.18s3.94,0.64,5.44,1.93c1.5,1.29,2.24,3.06,2.24,5.32L1089.77,772L1089.77,772z M1077.49,769.42h8.98
		c0-1.32-0.41-2.33-1.24-3.04c-0.82-0.71-1.84-1.06-3.05-1.06s-2.29,0.37-3.25,1.1C1077.97,767.16,1077.49,768.16,1077.49,769.42z"
		/>
	<path class="st2" d="M1104.56,773.71c0,1.5-0.54,2.69-1.62,3.58c-1.08,0.9-2.46,1.34-4.15,1.34c-1.14,0-2.33-0.21-3.55-0.62
		s-2.31-0.99-3.25-1.74l1.59-2.56c1.83,1.38,3.59,2.06,5.3,2.06c0.74,0,1.33-0.17,1.76-0.52c0.43-0.34,0.64-0.78,0.64-1.31
		c0-0.79-1.04-1.5-3.12-2.12c-0.16-0.06-0.28-0.1-0.35-0.12c-3.26-0.89-4.89-2.35-4.89-4.41c0-1.45,0.56-2.61,1.69-3.49
		c1.13-0.88,2.6-1.31,4.41-1.31c1.81,0,3.52,0.53,5.13,1.59l-1.24,2.44c-1.28-0.84-2.66-1.26-4.15-1.26c-0.79,0-1.42,0.14-1.92,0.43
		c-0.49,0.29-0.73,0.72-0.73,1.28c0,0.51,0.25,0.89,0.77,1.12c0.35,0.18,0.85,0.34,1.49,0.5c0.64,0.16,1.2,0.31,1.69,0.47
		c0.49,0.16,0.97,0.33,1.42,0.53c0.47,0.2,0.96,0.47,1.49,0.82C1104.03,771.13,1104.56,772.23,1104.56,773.71z"/>
</g>
<g>
	<path class="st4" d="M591.26,1093.03v3.15h-8.69v5.07c0.87-0.47,1.84-0.71,2.95-0.71c1.93,0,3.58,0.58,4.98,1.74
		s2.09,2.73,2.09,4.71c0,1.99-0.73,3.63-2.18,4.93c-1.45,1.31-3.24,1.96-5.36,1.96c-2.77,0-4.98-0.92-6.63-2.77l1.85-2.53
		c0.15,0.16,0.37,0.34,0.64,0.56c0.27,0.21,0.81,0.5,1.64,0.87c0.82,0.37,1.73,0.55,2.71,0.55c0.98,0,1.87-0.3,2.68-0.89
		c0.81-0.59,1.21-1.45,1.21-2.58c0-1.13-0.43-2.01-1.28-2.62c-0.85-0.62-1.93-0.93-3.24-0.93s-2.55,0.32-3.72,0.98l-1.48-1.59v-9.89
		L591.26,1093.03L591.26,1093.03z"/>
	<path class="st4" d="M597.84,1110.98c-1.4-1.93-2.1-4.52-2.1-7.76s0.7-5.83,2.1-7.76c1.4-1.93,3.49-2.9,6.3-2.9
		c2.8,0,4.91,0.97,6.3,2.9c1.4,1.93,2.1,4.52,2.1,7.76s-0.7,5.83-2.1,7.76c-1.4,1.93-3.49,2.9-6.3,2.9
		S599.23,1112.91,597.84,1110.98z M600.33,1097.65c-0.81,1.41-1.23,3.27-1.23,5.57s0.4,4.15,1.23,5.57
		c0.82,1.41,2.09,2.12,3.81,2.12c1.73,0,2.99-0.7,3.79-2.1c0.8-1.41,1.19-3.27,1.19-5.58c0-2.32-0.39-4.18-1.19-5.58
		c-0.8-1.41-2.06-2.1-3.79-2.1C602.41,1095.53,601.14,1096.23,600.33,1097.65z"/>
</g>
<g>
	<path class="st4" d="M604.53,1348.98c-1.4-1.93-2.1-4.52-2.1-7.76s0.7-5.83,2.1-7.76s3.49-2.9,6.3-2.9c2.8,0,4.91,0.97,6.3,2.9
		c1.4,1.93,2.1,4.52,2.1,7.76s-0.7,5.83-2.1,7.76c-1.4,1.93-3.49,2.9-6.3,2.9C608.02,1351.88,605.92,1350.91,604.53,1348.98z
		 M607.01,1335.65c-0.81,1.41-1.23,3.27-1.23,5.57c0,2.3,0.4,4.15,1.23,5.57s2.09,2.12,3.81,2.12c1.73,0,2.99-0.7,3.79-2.1
		c0.8-1.41,1.19-3.27,1.19-5.58c0-2.32-0.39-4.18-1.19-5.58c-0.8-1.41-2.06-2.1-3.79-2.1
		C609.1,1333.53,607.83,1334.24,607.01,1335.65z"/>
</g>
<g>
	<rect x="703.45" y="839.03" class="st6" width="2.1" height="513.66"/>
</g>
<g>
	<rect x="704.5" y="1350.97" class="st6" width="704.74" height="2.1"/>
</g>
<g class="st0">
	<path class="st2" d="M1775.7,658.38H860.41c-17.17,0-31.1-13.92-31.1-31.1V205.45c0-17.17,13.92-31.1,31.1-31.1h915.29
		c17.17,0,31.1,13.92,31.1,31.1v421.83C1806.8,644.45,1792.87,658.38,1775.7,658.38z"/>
</g>
<g>
	<path class="st3" d="M1787.12,648.45H871.84c-17.17,0-31.1-13.92-31.1-31.1V195.52c0-17.17,13.92-31.1,31.1-31.1h915.29
		c17.17,0,31.1,13.92,31.1,31.1v421.83C1818.23,634.52,1804.31,648.45,1787.12,648.45z"/>
</g>
<g>
	<path class="st6" d="M1768.58,557.29H975.22V270.41h793.35L1768.58,557.29L1768.58,557.29z M978.81,553.71h786.18V273.99H978.81
		V553.71z"/>
</g>
<g>
	<rect x="1192.22" y="271.69" class="st6" width="6.26" height="281.18"/>
</g>
<g>
	<rect x="1305.34" y="271.69" class="st6" width="6.26" height="281.18"/>
</g>
<g>
	<rect x="1421.06" y="271.69" class="st6" width="6.26" height="281.18"/>
</g>
<g>
	<rect x="1534.78" y="273.26" class="st6" width="6.26" height="281.18"/>
</g>
<g>
	<rect x="1648.01" y="273.26" class="st6" width="6.26" height="281.18"/>
</g>
<g>
	<rect x="1074.43" y="271.69" class="st6" width="6.26" height="281.18"/>
</g>
<g>
	<g>
		<path class="st4" d="M1722.48,581.95c2.09,1.88,3.12,4.5,3.12,7.86s-1.01,6.02-3.03,7.97c-2.01,1.96-5.1,2.94-9.27,2.94h-7.17
			v-21.6h7.41C1717.42,579.13,1720.39,580.07,1722.48,581.95z M1721.92,589.91c0-4.94-2.83-7.41-8.5-7.41h-3.64v14.8h4.05
			c2.61,0,4.62-0.63,6.01-1.87C1721.22,594.19,1721.92,592.34,1721.92,589.91z"/>
	</g>
	<g>
		<path class="st4" d="M1729.8,584.29h3.47v16.44h-3.47V584.29z M1733.17,582.19h-2.9l3.28-4.32l3.4,1.51L1733.17,582.19z"/>
	</g>
	<g>
		<path class="st4" d="M1751.58,600.73h-3.15v-2.19c-1.36,1.63-3.19,2.44-5.47,2.44c-1.71,0-3.12-0.48-4.24-1.45
			c-1.12-0.97-1.68-2.26-1.68-3.88c0-1.62,0.6-2.83,1.79-3.63c1.19-0.81,2.81-1.21,4.85-1.21h4.48v-0.62c0-2.18-1.22-3.28-3.64-3.28
			c-1.52,0-3.11,0.56-4.75,1.67l-1.54-2.17c2-1.58,4.26-2.38,6.8-2.38c1.93,0,3.52,0.49,4.75,1.47c1.23,0.98,1.84,2.52,1.84,4.62
			L1751.58,600.73L1751.58,600.73z M1748.12,594.62v-1.39h-3.89c-2.49,0-3.74,0.78-3.74,2.35c0,0.81,0.31,1.41,0.93,1.84
			c0.62,0.42,1.48,0.64,2.58,0.64s2.07-0.3,2.89-0.93C1747.71,596.49,1748.12,595.66,1748.12,594.62z"/>
	</g>
	<g>
		<path class="st4" d="M1768.11,595.82c0,1.57-0.56,2.82-1.7,3.75c-1.14,0.94-2.59,1.41-4.35,1.41c-1.2,0-2.44-0.21-3.72-0.64
			c-1.29-0.43-2.43-1.04-3.41-1.83l1.67-2.69c1.92,1.44,3.77,2.17,5.56,2.17c0.78,0,1.4-0.18,1.85-0.54
			c0.46-0.36,0.68-0.81,0.68-1.38c0-0.82-1.09-1.57-3.28-2.22c-0.17-0.06-0.29-0.1-0.37-0.13c-3.42-0.93-5.13-2.47-5.13-4.64
			c0-1.52,0.59-2.75,1.77-3.66s2.72-1.38,4.62-1.38c1.9,0,3.69,0.56,5.38,1.67l-1.3,2.56c-1.34-0.89-2.79-1.33-4.36-1.33
			c-0.82,0-1.5,0.15-2.01,0.45c-0.52,0.3-0.77,0.74-0.77,1.34c0,0.54,0.27,0.93,0.81,1.17c0.37,0.19,0.89,0.36,1.56,0.53
			c0.67,0.16,1.26,0.33,1.77,0.49c0.52,0.16,1.01,0.35,1.5,0.56s1,0.49,1.56,0.87C1767.55,593.09,1768.11,594.25,1768.11,595.82z"/>
	</g>
</g>
<g>
	<path class="st2" d="M1650.57,488.33c-0.02,0-0.03,0-0.04,0c-0.3-0.02-0.57-0.18-0.73-0.43l-112.68-186.29l-112.38,25.47
		c-0.06,0.02-0.13,0.02-0.2,0.02h-228.83l-117.35,55.67c-0.26,0.13-0.56,0.12-0.81-0.03L976.58,327c-0.43-0.24-0.59-0.79-0.35-1.22
		c0.24-0.43,0.78-0.59,1.22-0.35l100.55,55.53l117.12-55.56c0.12-0.05,0.25-0.09,0.39-0.09h228.94l112.91-25.59
		c0.38-0.09,0.76,0.08,0.97,0.41l112.32,185.7l118.25-160.15c0.3-0.39,0.85-0.48,1.25-0.19c0.39,0.3,0.48,0.85,0.19,1.25
		L1651.3,487.97C1651.12,488.2,1650.85,488.33,1650.57,488.33z"/>
</g>
<g>
	<circle class="st4" cx="977.02" cy="326.54" r="8.43"/>
</g>
<g>
	<circle class="st4" cx="1456.85" cy="215.65" r="8.43"/>
</g>
<g>
	<circle class="st4" cx="1077.57" cy="381.49" r="8.43"/>
</g>
<g>
	<circle class="st4" cx="1308.47" cy="325.77" r="8.43"/>
</g>
<g>
	<circle class="st4" cx="1424.2" cy="325.77" r="8.43"/>
</g>
<g>
	<circle class="st4" cx="1537.91" cy="300.58" r="8.43"/>
</g>
<g>
	<circle class="st4" cx="1651.15" cy="487.44" r="8.43"/>
</g>
<g>
	<circle class="st4" cx="1772.64" cy="320.6" r="8.43"/>
</g>
<g>
	<circle class="st4" cx="1195.35" cy="325.77" r="8.43"/>
</g>
<g>
	<g>
		<path class="st4" d="M879.33,271.77h4.92v13.52h-2.17V273.8h-2.75V271.77z"/>
	</g>
	<g>
		<path class="st4" d="M888.65,283.54c-0.91-1.27-1.37-2.97-1.37-5.09s0.46-3.82,1.37-5.09c0.91-1.27,2.29-1.91,4.14-1.91
			c1.84,0,3.22,0.64,4.14,1.91c0.91,1.27,1.37,2.97,1.37,5.09s-0.46,3.82-1.37,5.09c-0.91,1.27-2.29,1.91-4.14,1.91
			C890.94,285.44,889.56,284.81,888.65,283.54z M890.29,274.79c-0.54,0.93-0.81,2.15-0.81,3.65c0,1.5,0.27,2.73,0.81,3.65
			c0.54,0.92,1.37,1.4,2.51,1.4c1.14,0,1.96-0.46,2.48-1.38s0.78-2.14,0.78-3.66s-0.26-2.74-0.78-3.66
			c-0.52-0.92-1.35-1.38-2.48-1.38C891.66,273.4,890.81,273.86,890.29,274.79z"/>
	</g>
	<g>
		<path class="st4" d="M901.95,283.54c-0.91-1.27-1.37-2.97-1.37-5.09s0.46-3.82,1.37-5.09c0.91-1.27,2.29-1.91,4.14-1.91
			s3.22,0.64,4.14,1.91c0.91,1.27,1.37,2.97,1.37,5.09s-0.46,3.82-1.37,5.09c-0.91,1.27-2.29,1.91-4.14,1.91
			C904.24,285.44,902.87,284.81,901.95,283.54z M903.58,274.79c-0.54,0.93-0.81,2.15-0.81,3.65c0,1.5,0.27,2.73,0.81,3.65
			c0.54,0.92,1.37,1.4,2.51,1.4c1.14,0,1.96-0.46,2.49-1.38c0.52-0.92,0.78-2.14,0.78-3.66s-0.26-2.74-0.78-3.66
			c-0.52-0.92-1.35-1.38-2.49-1.38C904.95,273.4,904.12,273.86,903.58,274.79z"/>
	</g>
</g>
<g>
	<g>
		<path class="st4" d="M897.92,386.17v2.07h-5.7v3.32c0.56-0.31,1.21-0.47,1.93-0.47c1.26,0,2.35,0.38,3.27,1.14s1.37,1.79,1.37,3.1
			c0,1.3-0.47,2.38-1.43,3.24s-2.13,1.29-3.52,1.29c-1.82,0-3.27-0.61-4.35-1.82l1.22-1.67c0.1,0.11,0.24,0.22,0.41,0.37
			c0.17,0.14,0.53,0.33,1.07,0.57c0.54,0.24,1.14,0.36,1.78,0.36s1.23-0.2,1.76-0.58s0.8-0.95,0.8-1.69s-0.28-1.32-0.84-1.72
			c-0.56-0.4-1.27-0.61-2.12-0.61c-0.86,0-1.67,0.21-2.44,0.64l-0.97-1.05v-6.5L897.92,386.17L897.92,386.17z"/>
	</g>
	<g>
		<path class="st4" d="M902.24,397.96c-0.91-1.27-1.37-2.97-1.37-5.09c0-2.12,0.46-3.82,1.37-5.09s2.29-1.91,4.14-1.91
			s3.22,0.64,4.14,1.91s1.37,2.97,1.37,5.09c0,2.12-0.46,3.82-1.37,5.09s-2.29,1.91-4.14,1.91
			C904.53,399.86,903.15,399.23,902.24,397.96z M903.87,389.21c-0.54,0.93-0.81,2.15-0.81,3.65c0,1.5,0.27,2.73,0.81,3.65
			c0.54,0.93,1.37,1.4,2.51,1.4s1.96-0.46,2.48-1.38c0.52-0.92,0.78-2.14,0.78-3.66s-0.26-2.74-0.78-3.66s-1.35-1.38-2.48-1.38
			C905.24,387.81,904.41,388.28,903.87,389.21z"/>
	</g>
</g>
<g>
	<g>
		<path class="st4" d="M906.63,554.21c-0.91-1.27-1.37-2.97-1.37-5.09c0-2.12,0.46-3.82,1.37-5.09s2.29-1.91,4.14-1.91
			s3.22,0.64,4.14,1.91s1.37,2.97,1.37,5.09c0,2.12-0.46,3.82-1.37,5.09c-0.91,1.27-2.29,1.91-4.14,1.91
			S907.54,555.49,906.63,554.21z M908.26,545.47c-0.54,0.93-0.81,2.15-0.81,3.65s0.27,2.73,0.81,3.65c0.54,0.93,1.37,1.4,2.51,1.4
			s1.96-0.46,2.48-1.38c0.52-0.92,0.78-2.14,0.78-3.66s-0.26-2.74-0.78-3.66s-1.35-1.38-2.48-1.38
			C909.63,544.07,908.79,544.54,908.26,545.47z"/>
	</g>
</g>
<g>
	<g>
		<path class="st4" d="M978.1,575.83h7.84v21.6h-3.47v-18.36h-4.39L978.1,575.83L978.1,575.83z"/>
	</g>
	<g>
		<path class="st4" d="M1006.58,572.15h3.09l-13.38,28.67h-3.09L1006.58,572.15z"/>
	</g>
	<g>
		<path class="st4" d="M1011.37,575.61h7.84v21.6h-3.47v-18.36h-4.39L1011.37,575.61L1011.37,575.61z"/>
	</g>
	<g>
		<path class="st4" d="M1026.26,594.41c-1.46-2.03-2.19-4.75-2.19-8.14c0-3.4,0.73-6.12,2.19-8.14c1.46-2.03,3.66-3.04,6.61-3.04
			s5.15,1.01,6.61,3.04c1.46,2.03,2.19,4.75,2.19,8.14c0,3.4-0.73,6.12-2.19,8.14c-1.46,2.03-3.66,3.04-6.61,3.04
			C1029.93,597.45,1027.72,596.44,1026.26,594.41z M1028.88,580.43c-0.86,1.49-1.28,3.43-1.28,5.84s0.43,4.36,1.28,5.84
			c0.86,1.49,2.18,2.22,4,2.22c1.81,0,3.13-0.73,3.97-2.21c0.83-1.47,1.25-3.42,1.25-5.86c0-2.43-0.41-4.38-1.25-5.86
			c-0.83-1.47-2.16-2.21-3.97-2.21C1031.06,578.2,1029.73,578.95,1028.88,580.43z"/>
	</g>
</g>
<g>
	<g>
		<path class="st4" d="M1493.86,575.75h7.84v21.6h-3.47v-18.36h-4.39L1493.86,575.75L1493.86,575.75z"/>
	</g>
	<g>
		<path class="st4" d="M1519.76,575.71v3.3h-9.12v5.31c0.9-0.49,1.93-0.74,3.09-0.74c2.01,0,3.76,0.61,5.22,1.83
			c1.46,1.22,2.19,2.87,2.19,4.94c0,2.08-0.76,3.81-2.28,5.18s-3.4,2.05-5.62,2.05c-2.9,0-5.22-0.97-6.95-2.9l1.94-2.66
			c0.16,0.16,0.39,0.36,0.66,0.59c0.28,0.22,0.85,0.53,1.72,0.91c0.87,0.39,1.81,0.57,2.84,0.57s1.97-0.31,2.81-0.93
			c0.84-0.62,1.27-1.52,1.27-2.7s-0.45-2.1-1.34-2.75c-0.9-0.64-2.02-0.98-3.39-0.98s-2.68,0.34-3.91,1.02l-1.55-1.67v-10.38
			H1519.76z"/>
	</g>
	<g>
		<path class="st4" d="M1536.44,572.28h3.09l-13.38,28.67h-3.09L1536.44,572.28z"/>
	</g>
	<g>
		<path class="st4" d="M1541.23,575.75h7.84v21.6h-3.47v-18.36h-4.39L1541.23,575.75L1541.23,575.75z"/>
	</g>
	<g>
		<path class="st4" d="M1556.12,594.55c-1.46-2.03-2.19-4.75-2.19-8.14c0-3.4,0.73-6.12,2.19-8.14c1.46-2.03,3.66-3.04,6.61-3.04
			s5.15,1.01,6.61,3.04c1.46,2.03,2.19,4.75,2.19,8.14c0,3.4-0.73,6.12-2.19,8.14c-1.46,2.03-3.66,3.04-6.61,3.04
			C1559.79,597.59,1557.58,596.58,1556.12,594.55z M1558.73,580.57c-0.86,1.49-1.28,3.43-1.28,5.84s0.43,4.36,1.28,5.84
			c0.86,1.49,2.18,2.22,4,2.22c1.81,0,3.13-0.73,3.97-2.21c0.83-1.47,1.25-3.42,1.25-5.86c0-2.43-0.41-4.38-1.25-5.86
			c-0.83-1.47-2.16-2.21-3.97-2.21C1560.92,578.35,1559.58,579.09,1558.73,580.57z"/>
	</g>
</g>
<g>
	<path class="st2" d="M980.87,202.31h-7.44v-2.69h18.11v2.69h-7.48v21.78h-3.2L980.87,202.31L980.87,202.31z"/>
	<path class="st2" d="M997.27,201.59c0.04,1.09-0.76,1.96-2.03,1.96c-1.13,0-1.93-0.87-1.93-1.96c0-1.13,0.83-2,2-2
		C996.51,199.59,997.27,200.46,997.27,201.59z M993.71,224.08v-17.57h3.2v17.57H993.71z"/>
	<path class="st2" d="M1003.98,215.89c0.07,4.32,2.83,6.1,6.03,6.1c2.28,0,3.66-0.4,4.86-0.9l0.55,2.28
		c-1.13,0.51-3.04,1.09-5.85,1.09c-5.41,0-8.64-3.55-8.64-8.86s3.12-9.47,8.24-9.47c5.73,0,7.26,5.04,7.26,8.27
		c0,0.65-0.07,1.16-0.11,1.49H1003.98L1003.98,215.89z M1013.35,213.59c0.04-2.03-0.83-5.19-4.42-5.19c-3.23,0-4.65,2.97-4.9,5.19
		H1013.35z"/>
	<path class="st2" d="M1020.38,211.27c0-1.82-0.04-3.3-0.14-4.75h2.79l0.14,2.83h0.11c0.98-1.67,2.61-3.23,5.52-3.23
		c2.4,0,4.21,1.45,4.97,3.52h0.07c0.55-0.98,1.24-1.75,1.96-2.28c1.06-0.8,2.21-1.24,3.89-1.24c2.32,0,5.77,1.52,5.77,7.62v10.34
		h-3.12v-9.94c0-3.38-1.24-5.41-3.81-5.41c-1.82,0-3.23,1.34-3.77,2.9c-0.14,0.44-0.25,1.01-0.25,1.59v10.85h-3.12v-10.52
		c0-2.79-1.24-4.83-3.66-4.83c-2,0-3.45,1.59-3.96,3.2c-0.18,0.47-0.25,1.01-0.25,1.56v10.59h-3.12L1020.38,211.27L1020.38,211.27z"
		/>
	<path class="st2" d="M1050.64,212.25c0-2.25-0.07-4.07-0.14-5.73h2.87l0.14,3.01h0.07c1.31-2.14,3.38-3.41,6.24-3.41
		c4.24,0,7.44,3.59,7.44,8.93c0,6.31-3.84,9.44-7.99,9.44c-2.32,0-4.35-1.01-5.41-2.76h-0.07v9.55h-3.16L1050.64,212.25
		L1050.64,212.25z M1053.8,216.93c0,0.47,0.07,0.9,0.14,1.31c0.58,2.21,2.51,3.73,4.79,3.73c3.38,0,5.34-2.76,5.34-6.79
		c0-3.52-1.85-6.53-5.23-6.53c-2.18,0-4.21,1.56-4.83,3.96c-0.11,0.4-0.21,0.87-0.21,1.31V216.93z"/>
	<path class="st2" d="M1087.18,215.16c0,6.49-4.5,9.33-8.75,9.33c-4.75,0-8.42-3.48-8.42-9.03c0-5.88,3.85-9.33,8.71-9.33
		C1083.77,206.12,1087.18,209.79,1087.18,215.16z M1073.25,215.34c0,3.85,2.21,6.75,5.34,6.75c3.04,0,5.34-2.87,5.34-6.82
		c0-2.97-1.49-6.75-5.26-6.75C1074.88,208.52,1073.25,212,1073.25,215.34z"/>
	<path class="st2" d="M1098.9,212.25c0-2.25-0.07-4.07-0.14-5.73h2.87l0.14,3.01h0.07c1.31-2.14,3.38-3.41,6.24-3.41
		c4.24,0,7.44,3.59,7.44,8.93c0,6.31-3.85,9.44-7.99,9.44c-2.32,0-4.35-1.01-5.41-2.76h-0.07v9.55h-3.16L1098.9,212.25
		L1098.9,212.25z M1102.06,216.93c0,0.47,0.07,0.9,0.14,1.31c0.58,2.21,2.51,3.73,4.79,3.73c3.38,0,5.34-2.76,5.34-6.79
		c0-3.52-1.85-6.53-5.23-6.53c-2.18,0-4.21,1.56-4.83,3.96c-0.11,0.4-0.21,0.87-0.21,1.31V216.93z"/>
	<path class="st2" d="M1119.54,212c0-2.07-0.04-3.85-0.14-5.48h2.79l0.11,3.45h0.14c0.8-2.35,2.72-3.85,4.86-3.85
		c0.36,0,0.62,0.04,0.9,0.11v3.01c-0.32-0.07-0.65-0.11-1.09-0.11c-2.25,0-3.85,1.7-4.28,4.1c-0.07,0.44-0.14,0.94-0.14,1.49v9.37
		h-3.16L1119.54,212L1119.54,212z"/>
	<path class="st2" d="M1146.94,215.16c0,6.49-4.5,9.33-8.75,9.33c-4.75,0-8.42-3.48-8.42-9.03c0-5.88,3.85-9.33,8.71-9.33
		C1143.53,206.12,1146.94,209.79,1146.94,215.16z M1133.01,215.34c0,3.85,2.21,6.75,5.34,6.75c3.04,0,5.34-2.87,5.34-6.82
		c0-2.97-1.49-6.75-5.27-6.75C1134.64,208.52,1133.01,212,1133.01,215.34z"/>
	<path class="st2" d="M1150.96,211.27c0-1.82-0.04-3.3-0.14-4.75h2.79l0.14,2.83h0.11c0.98-1.67,2.61-3.23,5.52-3.23
		c2.39,0,4.21,1.45,4.97,3.52h0.07c0.55-0.98,1.24-1.75,1.96-2.28c1.05-0.8,2.21-1.24,3.89-1.24c2.32,0,5.77,1.52,5.77,7.62v10.34
		h-3.12v-9.94c0-3.38-1.24-5.41-3.81-5.41c-1.82,0-3.23,1.34-3.77,2.9c-0.14,0.44-0.25,1.01-0.25,1.59v10.85h-3.12v-10.52
		c0-2.79-1.24-4.83-3.66-4.83c-2,0-3.45,1.59-3.96,3.2c-0.18,0.47-0.25,1.01-0.25,1.56v10.59h-3.12L1150.96,211.27L1150.96,211.27z"
		/>
	<path class="st2" d="M1183.01,215.89c0.07,4.32,2.83,6.1,6.03,6.1c2.28,0,3.66-0.4,4.86-0.9l0.55,2.28
		c-1.13,0.51-3.04,1.09-5.84,1.09c-5.41,0-8.64-3.55-8.64-8.86s3.12-9.47,8.24-9.47c5.73,0,7.26,5.04,7.26,8.27
		c0,0.65-0.07,1.16-0.11,1.49H1183.01L1183.01,215.89z M1192.37,213.59c0.04-2.03-0.83-5.19-4.42-5.19c-3.23,0-4.65,2.97-4.9,5.19
		H1192.37z"/>
	<path class="st2" d="M1214.57,198.32v21.23c0,1.56,0.04,3.34,0.14,4.54h-2.87l-0.14-3.04h-0.07c-0.98,1.96-3.12,3.45-5.99,3.45
		c-4.24,0-7.51-3.59-7.51-8.93c-0.04-5.84,3.59-9.44,7.87-9.44c2.69,0,4.5,1.27,5.3,2.69h0.07v-10.49L1214.57,198.32L1214.57,198.32
		z M1211.39,213.67c0-0.4-0.04-0.94-0.14-1.34c-0.47-2.03-2.21-3.7-4.61-3.7c-3.3,0-5.27,2.9-5.27,6.79c0,3.55,1.75,6.49,5.19,6.49
		c2.14,0,4.1-1.41,4.68-3.81c0.11-0.44,0.14-0.87,0.14-1.38V213.67z"/>
	<path class="st2" d="M1223.43,201.59c0.04,1.09-0.76,1.96-2.03,1.96c-1.13,0-1.93-0.87-1.93-1.96c0-1.13,0.83-2,2-2
		C1222.67,199.59,1223.43,200.46,1223.43,201.59z M1219.88,224.08v-17.57h3.2v17.57H1219.88z"/>
	<path class="st2" d="M1244.26,215.16c0,6.49-4.5,9.33-8.75,9.33c-4.75,0-8.42-3.48-8.42-9.03c0-5.88,3.85-9.33,8.71-9.33
		C1240.85,206.12,1244.26,209.79,1244.26,215.16z M1230.32,215.34c0,3.85,2.21,6.75,5.34,6.75c3.04,0,5.34-2.87,5.34-6.82
		c0-2.97-1.49-6.75-5.27-6.75C1231.95,208.52,1230.32,212,1230.32,215.34z"/>
	<path class="st2" d="M1271.15,198.32v21.23c0,1.56,0.04,3.34,0.14,4.54h-2.87l-0.14-3.04h-0.07c-0.98,1.96-3.12,3.45-5.99,3.45
		c-4.24,0-7.51-3.59-7.51-8.93c-0.04-5.84,3.59-9.44,7.87-9.44c2.69,0,4.5,1.27,5.3,2.69h0.07v-10.49L1271.15,198.32L1271.15,198.32
		z M1267.95,213.67c0-0.4-0.04-0.94-0.14-1.34c-0.47-2.03-2.21-3.7-4.61-3.7c-3.3,0-5.27,2.9-5.27,6.79c0,3.55,1.75,6.49,5.19,6.49
		c2.14,0,4.1-1.41,4.68-3.81c0.11-0.44,0.14-0.87,0.14-1.38V213.67z"/>
	<path class="st2" d="M1278.22,215.89c0.07,4.32,2.83,6.1,6.03,6.1c2.28,0,3.66-0.4,4.86-0.9l0.55,2.28
		c-1.13,0.51-3.04,1.09-5.84,1.09c-5.41,0-8.64-3.55-8.64-8.86s3.12-9.47,8.24-9.47c5.73,0,7.26,5.04,7.26,8.27
		c0,0.65-0.07,1.16-0.11,1.49H1278.22L1278.22,215.89z M1287.58,213.59c0.04-2.03-0.83-5.19-4.42-5.19c-3.23,0-4.65,2.97-4.9,5.19
		H1287.58z"/>
	<path class="st2" d="M1312.03,224.08l-0.25-2.21h-0.11c-0.98,1.38-2.87,2.61-5.37,2.61c-3.55,0-5.37-2.51-5.37-5.04
		c0-4.24,3.77-6.57,10.56-6.53v-0.37c0-1.45-0.4-4.07-3.99-4.07c-1.63,0-3.34,0.51-4.58,1.31l-0.73-2.1
		c1.45-0.94,3.55-1.56,5.77-1.56c5.37,0,6.68,3.66,6.68,7.18v6.57c0,1.52,0.07,3.01,0.29,4.21L1312.03,224.08L1312.03,224.08z
		 M1311.56,215.12c-3.48-0.07-7.44,0.55-7.44,3.96c0,2.07,1.38,3.04,3.01,3.04c2.28,0,3.73-1.45,4.24-2.94
		c0.11-0.32,0.18-0.69,0.18-1.01L1311.56,215.12L1311.56,215.12z"/>
	<path class="st2" d="M1323.5,201.48v5.04h4.58v2.44h-4.58v9.47c0,2.18,0.62,3.41,2.39,3.41c0.83,0,1.45-0.11,1.85-0.21l0.14,2.39
		c-0.62,0.25-1.59,0.44-2.83,0.44c-1.49,0-2.69-0.47-3.45-1.34c-0.9-0.94-1.24-2.51-1.24-4.58v-9.58h-2.72v-2.44h2.72v-4.21
		L1323.5,201.48z"/>
	<path class="st2" d="M1333.22,215.89c0.07,4.32,2.83,6.1,6.03,6.1c2.28,0,3.66-0.4,4.86-0.9l0.55,2.28
		c-1.13,0.51-3.04,1.09-5.84,1.09c-5.41,0-8.64-3.55-8.64-8.86s3.12-9.47,8.24-9.47c5.73,0,7.26,5.04,7.26,8.27
		c0,0.65-0.07,1.16-0.11,1.49H1333.22L1333.22,215.89z M1342.58,213.59c0.04-2.03-0.83-5.19-4.42-5.19c-3.23,0-4.65,2.97-4.9,5.19
		H1342.58z"/>
	<path class="st2" d="M1349.62,211.27c0-1.82-0.04-3.3-0.14-4.75h2.83l0.18,2.9h0.07c0.87-1.67,2.9-3.3,5.8-3.3
		c2.43,0,6.21,1.45,6.21,7.48v10.49h-3.2v-10.13c0-2.83-1.05-5.19-4.07-5.19c-2.1,0-3.73,1.49-4.28,3.27
		c-0.14,0.4-0.21,0.94-0.21,1.49v10.56h-3.2L1349.62,211.27L1349.62,211.27z"/>
	<path class="st2" d="M1382.27,223.43c-0.83,0.44-2.69,1.01-5.04,1.01c-5.3,0-8.75-3.59-8.75-8.96c0-5.41,3.7-9.33,9.44-9.33
		c1.89,0,3.55,0.47,4.42,0.9l-0.73,2.47c-0.76-0.44-1.96-0.83-3.7-0.83c-4.03,0-6.21,2.97-6.21,6.64c0,4.07,2.61,6.57,6.1,6.57
		c1.82,0,3.01-0.47,3.92-0.87L1382.27,223.43z"/>
	<path class="st2" d="M1389.57,201.59c0.04,1.09-0.76,1.96-2.03,1.96c-1.13,0-1.93-0.87-1.93-1.96c0-1.13,0.83-2,2-2
		C1388.81,199.59,1389.57,200.46,1389.57,201.59z M1386.02,224.08v-17.57h3.2v17.57H1386.02z"/>
	<path class="st2" d="M1410.4,215.16c0,6.49-4.5,9.33-8.75,9.33c-4.75,0-8.42-3.48-8.42-9.03c0-5.88,3.85-9.33,8.71-9.33
		C1406.99,206.12,1410.4,209.79,1410.4,215.16z M1396.47,215.34c0,3.85,2.21,6.75,5.34,6.75c3.04,0,5.34-2.87,5.34-6.82
		c0-2.97-1.49-6.75-5.27-6.75C1398.1,208.52,1396.47,212,1396.47,215.34z M1406.59,198.94l-4.42,5.19h-2.28l3.2-5.19
		C1403.08,198.94,1406.59,198.94,1406.59,198.94z"/>
	<path class="st2" d="M1414.42,211.27c0-1.82-0.04-3.3-0.14-4.75h2.83l0.18,2.9h0.07c0.87-1.67,2.9-3.3,5.8-3.3
		c2.43,0,6.21,1.45,6.21,7.48v10.49h-3.2v-10.13c0-2.83-1.05-5.19-4.07-5.19c-2.1,0-3.73,1.49-4.28,3.27
		c-0.14,0.4-0.21,0.94-0.21,1.49v10.56h-3.2L1414.42,211.27L1414.42,211.27z"/>
</g>
<g class="st0">
	<path class="st2" d="M730.23,650.63H158.41c-17.17,0-31.1-13.92-31.1-31.1V257.24c0-17.17,13.92-31.1,31.1-31.1h571.82
		c17.17,0,31.1,13.92,31.1,31.1v362.29C761.34,636.71,747.41,650.63,730.23,650.63z"/>
</g>
<g>
	<path class="st3" d="M731.74,645.33h-566.3c-17.17,0-31.1-13.92-31.1-31.1V257.24c0-17.17,13.92-31.1,31.1-31.1h566.3
		c17.17,0,31.1,13.92,31.1,31.1v356.99C762.83,631.41,748.91,645.33,731.74,645.33z"/>
</g>
<g>
	<circle class="st7" cx="501.75" cy="412.53" r="6.85"/>
</g>
<g>
	<circle class="st8" cx="501.75" cy="455.97" r="6.85"/>
</g>
<g>
	<circle class="st9" cx="501.75" cy="496.63" r="6.85"/>
</g>
<g>
	<circle class="st10" cx="501.75" cy="540.22" r="6.85"/>
</g>
<g>
	<path class="st2" d="M530.41,418.33c1.14,0,2.12-0.19,2.95-0.57c0.82-0.39,1.68-0.99,2.58-1.84l2.13,2.18
		c-2.08,2.3-4.59,3.45-7.57,3.45c-2.96,0-5.43-0.96-7.38-2.87c-1.95-1.91-2.93-4.32-2.93-7.24s0.99-5.35,2.99-7.3
		c2-1.94,4.5-2.92,7.55-2.92s5.58,1.12,7.62,3.37l-2.1,2.3c-0.93-0.9-1.82-1.52-2.65-1.88c-0.83-0.36-1.81-0.54-2.93-0.54
		c-1.98,0-3.64,0.64-5,1.93c-1.34,1.28-2.02,2.92-2.02,4.91s0.67,3.65,2.01,5C526.99,417.67,528.58,418.33,530.41,418.33z"/>
	<path class="st2" d="M553.73,419.33c-1.5,1.49-3.37,2.23-5.61,2.23c-2.25,0-4.12-0.74-5.61-2.23c-1.5-1.49-2.25-3.3-2.25-5.46
		c0-2.15,0.75-3.97,2.25-5.46c1.5-1.49,3.37-2.23,5.61-2.23c2.25,0,4.12,0.74,5.61,2.23c1.5,1.49,2.25,3.3,2.25,5.46
		C555.98,416.02,555.23,417.84,553.73,419.33z M544.74,417.39c0.89,0.9,2.01,1.36,3.38,1.36c1.36,0,2.49-0.46,3.38-1.36
		c0.89-0.9,1.33-2.08,1.33-3.52s-0.45-2.61-1.33-3.52c-0.89-0.9-2.01-1.36-3.38-1.36c-1.37,0-2.49,0.46-3.38,1.36
		c-0.89,0.9-1.33,2.08-1.33,3.52S543.85,416.48,544.74,417.39z"/>
	<path class="st2" d="M562.68,413.25v8.09h-3.14V406.4h3.14v2.72c0.5-0.91,1.2-1.64,2.09-2.16c0.89-0.52,1.84-0.79,2.87-0.79
		c1.68,0,3.04,0.51,4.08,1.54c1.04,1.03,1.56,2.52,1.56,4.46v9.15h-3.14v-8.19c0-2.75-1.14-4.13-3.42-4.13
		c-1.08,0-2.03,0.36-2.84,1.08C563.09,410.82,562.68,411.87,562.68,413.25z"/>
	<path class="st2" d="M588.3,416.87c0,1.42-0.51,2.56-1.54,3.41s-2.35,1.28-3.96,1.28c-1.08,0-2.21-0.2-3.38-0.59
		s-2.2-0.94-3.1-1.66l1.51-2.44c1.74,1.31,3.42,1.96,5.05,1.96c0.71,0,1.27-0.16,1.68-0.49c0.41-0.33,0.62-0.74,0.62-1.24
		c0-0.75-0.99-1.42-2.97-2.02c-0.15-0.05-0.26-0.09-0.34-0.12c-3.11-0.84-4.66-2.25-4.66-4.21c0-1.39,0.54-2.49,1.61-3.32
		c1.07-0.83,2.47-1.24,4.2-1.24c1.72,0,3.35,0.5,4.88,1.51l-1.18,2.33c-1.22-0.81-2.53-1.21-3.96-1.21c-0.75,0-1.36,0.13-1.83,0.4
		c-0.47,0.27-0.7,0.68-0.7,1.22c0,0.48,0.24,0.84,0.73,1.07c0.34,0.17,0.81,0.33,1.41,0.47c0.61,0.15,1.15,0.3,1.61,0.45
		c0.47,0.15,0.92,0.32,1.36,0.5c0.44,0.19,0.91,0.45,1.41,0.79C587.8,414.41,588.3,415.45,588.3,416.87z"/>
	<path class="st2" d="M602.3,414.49v-8.09h3.14v14.93h-3.14v-2.72c-0.5,0.91-1.2,1.64-2.09,2.16c-0.89,0.53-1.84,0.79-2.87,0.79
		c-1.68,0-3.04-0.51-4.08-1.54c-1.04-1.03-1.56-2.52-1.56-4.46v-9.15h3.14v8.19c0,2.75,1.14,4.13,3.42,4.13
		c1.08,0,2.03-0.36,2.84-1.08C601.9,416.92,602.3,415.87,602.3,414.49z"/>
	<path class="st2" d="M613.14,421.34H610v-20.82h3.14V421.34z"/>
	<path class="st2" d="M621.56,408.94v7.58c0,0.71,0.19,1.28,0.56,1.7c0.38,0.42,0.9,0.64,1.57,0.64c0.67,0,1.32-0.33,1.93-0.98
		l1.29,2.22c-1.1,0.99-2.33,1.49-3.66,1.49c-1.33,0-2.48-0.47-3.42-1.39c-0.95-0.92-1.41-2.18-1.41-3.74v-7.49h-1.88v-2.53h1.88
		v-4.68h3.14v4.68h3.93v2.53L621.56,408.94L621.56,408.94z"/>
	<path class="st2" d="M641.51,421.34h-2.87v-2c-1.24,1.48-2.89,2.22-4.97,2.22c-1.55,0-2.84-0.44-3.86-1.32s-1.53-2.05-1.53-3.52
		c0-1.47,0.55-2.57,1.63-3.3c1.08-0.73,2.55-1.09,4.41-1.09h4.07v-0.56c0-1.98-1.1-2.97-3.31-2.97c-1.39,0-2.83,0.5-4.32,1.51
		l-1.41-1.96c1.82-1.44,3.88-2.16,6.18-2.16c1.76,0,3.2,0.45,4.31,1.33s1.67,2.28,1.67,4.2v9.61H641.51z M638.36,415.78v-1.26h-3.54
		c-2.27,0-3.39,0.71-3.39,2.13c0,0.73,0.28,1.29,0.84,1.67c0.56,0.39,1.34,0.57,2.35,0.57c1,0,1.87-0.28,2.62-0.84
		C637.99,417.49,638.36,416.73,638.36,415.78z"/>
	<path class="st2" d="M656.52,416.87c0,1.42-0.51,2.56-1.54,3.41s-2.35,1.28-3.96,1.28c-1.08,0-2.21-0.2-3.38-0.59
		s-2.2-0.94-3.1-1.66l1.51-2.44c1.74,1.31,3.42,1.96,5.05,1.96c0.71,0,1.27-0.16,1.68-0.49c0.41-0.33,0.62-0.74,0.62-1.24
		c0-0.75-0.99-1.42-2.97-2.02c-0.15-0.05-0.26-0.09-0.34-0.12c-3.11-0.84-4.66-2.25-4.66-4.21c0-1.39,0.54-2.49,1.61-3.32
		c1.07-0.83,2.47-1.24,4.2-1.24c1.72,0,3.35,0.5,4.88,1.51l-1.18,2.33c-1.22-0.81-2.53-1.21-3.96-1.21c-0.75,0-1.36,0.13-1.83,0.4
		c-0.47,0.27-0.7,0.68-0.7,1.22c0,0.48,0.24,0.84,0.73,1.07c0.34,0.17,0.81,0.33,1.41,0.47c0.61,0.15,1.15,0.3,1.61,0.45
		c0.47,0.15,0.92,0.32,1.36,0.5c0.44,0.19,0.91,0.45,1.41,0.79C656.02,414.41,656.52,415.45,656.52,416.87z"/>
</g>
<g>
	<path class="st2" d="M362.28,297.53l-2.42-5.76h-13.31l-2.42,5.76h-5.41l11.95-27.25h5.41l11.79,27.25H362.28L362.28,297.53z
		 M348.42,287.29h9.57l-4.75-11.44L348.42,287.29z"/>
	<path class="st2" d="M382.21,296.25c-1.66,1.01-3.4,1.52-5.22,1.52c-1.79,0-3.26-0.53-4.4-1.58c-1.15-1.05-1.71-2.61-1.71-4.65
		v-10.28h-2.92l-0.04-3.7h2.95v-5.72h5.02v5.72h5.95v3.7h-5.95v9.38c0,0.96,0.18,1.64,0.55,2.04s0.9,0.6,1.64,0.6
		c0.78,0,1.76-0.29,2.95-0.86L382.21,296.25z"/>
	<path class="st2" d="M402.15,279.4c1.67,1.9,2.51,4.56,2.51,7.98c0,0.67-0.02,1.18-0.04,1.52h-15.37c0.34,1.48,1.03,2.64,2.09,3.48
		c1.05,0.84,2.35,1.26,3.88,1.26c1.07,0,2.09-0.2,3.05-0.6c0.98-0.4,1.83-0.98,2.55-1.73l2.72,2.84c-1.04,1.15-2.3,2.02-3.8,2.65
		c-1.5,0.63-3.14,0.93-4.96,0.93c-2.13,0-4-0.44-5.62-1.33c-1.62-0.88-2.87-2.12-3.75-3.72c-0.89-1.59-1.33-3.43-1.33-5.51
		c0-2.08,0.45-3.92,1.34-5.52c0.9-1.61,2.15-2.87,3.75-3.76c1.61-0.9,3.44-1.34,5.49-1.34C397.98,276.55,400.48,277.5,402.15,279.4z
		 M400.03,285.5c-0.05-1.53-0.56-2.75-1.52-3.66c-0.96-0.9-2.23-1.36-3.81-1.36c-1.48,0-2.72,0.45-3.72,1.34
		c-1,0.9-1.61,2.12-1.84,3.68H400.03z"/>
	<path class="st2" d="M427.21,278.67c1.38,1.44,2.06,3.39,2.06,5.86v13h-5.09V286c0-1.45-0.41-2.61-1.24-3.45
		c-0.83-0.84-1.96-1.26-3.38-1.26c-1.68,0.03-3.02,0.6-3.99,1.71c-0.98,1.12-1.46,2.54-1.46,4.28v10.23h-5.06v-20.83h5.06v3.9
		c1.42-2.67,3.92-4.04,7.48-4.08C423.95,276.51,425.83,277.23,427.21,278.67z"/>
	<path class="st2" d="M443.83,280.99c-1.68,0-3.05,0.57-4.11,1.71c-1.05,1.15-1.58,2.62-1.58,4.44c0,1.87,0.53,3.38,1.58,4.51
		c1.05,1.15,2.42,1.71,4.11,1.71c2.49,0,4.36-0.81,5.61-2.45l3.15,2.61c-0.93,1.35-2.17,2.39-3.7,3.12s-3.3,1.09-5.34,1.09
		c-2.05,0-3.88-0.44-5.47-1.33c-1.59-0.88-2.84-2.12-3.72-3.72c-0.89-1.59-1.33-3.43-1.33-5.51c0-2.1,0.45-3.96,1.34-5.57
		s2.14-2.86,3.73-3.73c1.59-0.88,3.43-1.33,5.51-1.33c1.9,0,3.59,0.33,5.08,0.99c1.5,0.66,2.7,1.6,3.64,2.82l-3.07,2.92
		C447.87,281.75,446.06,280.99,443.83,280.99z"/>
	<path class="st2" d="M461.46,268.61c0.55,0.57,0.81,1.3,0.81,2.18c0,0.86-0.27,1.57-0.81,2.14c-0.55,0.57-1.24,0.86-2.06,0.86
		c-0.83,0-1.52-0.29-2.06-0.86c-0.55-0.57-0.81-1.28-0.81-2.14c0-0.88,0.27-1.61,0.81-2.18c0.55-0.57,1.24-0.86,2.06-0.86
		C460.23,267.76,460.91,268.04,461.46,268.61z M456.91,276.71h5.06v20.83h-5.06V276.71z"/>
	<path class="st2" d="M483.05,277.87c1.65,0.89,2.93,2.12,3.85,3.72c0.92,1.59,1.38,3.43,1.38,5.51c0,2.1-0.46,3.96-1.38,5.57
		c-0.92,1.61-2.2,2.86-3.85,3.73c-1.65,0.89-3.55,1.33-5.7,1.33c-2.18,0-4.1-0.44-5.76-1.33c-1.66-0.88-2.95-2.13-3.88-3.73
		c-0.92-1.61-1.38-3.47-1.38-5.57c0-2.08,0.46-3.91,1.38-5.51c0.92-1.59,2.21-2.84,3.88-3.72c1.66-0.88,3.58-1.33,5.76-1.33
		C479.49,276.55,481.4,277,483.05,277.87z M473.06,282.62c-1.09,1.16-1.64,2.69-1.64,4.56c0,1.87,0.55,3.38,1.64,4.56
		c1.09,1.17,2.52,1.76,4.28,1.76c1.71,0,3.12-0.58,4.2-1.76c1.08-1.17,1.64-2.69,1.64-4.56c0-1.87-0.55-3.38-1.64-4.56
		c-1.09-1.16-2.49-1.76-4.2-1.76C475.58,280.87,474.15,281.46,473.06,282.62z"/>
	<path class="st2" d="M510.86,278.67c1.38,1.44,2.06,3.39,2.06,5.86v13h-5.09V286c0-1.45-0.41-2.61-1.24-3.45
		c-0.83-0.84-1.96-1.26-3.38-1.26c-1.68,0.03-3.02,0.6-3.99,1.71c-0.98,1.12-1.46,2.54-1.46,4.28v10.23h-5.06v-20.83h5.06v3.9
		c1.42-2.67,3.92-4.04,7.48-4.08C507.6,276.51,509.48,277.23,510.86,278.67z"/>
	<path class="st2" d="M534.77,279.4c1.67,1.9,2.51,4.56,2.51,7.98c0,0.67-0.02,1.18-0.04,1.52h-15.37c0.34,1.48,1.03,2.64,2.09,3.48
		c1.05,0.84,2.35,1.26,3.88,1.26c1.07,0,2.09-0.2,3.05-0.6c0.98-0.4,1.83-0.98,2.55-1.73l2.72,2.84c-1.04,1.15-2.3,2.02-3.8,2.65
		c-1.5,0.63-3.14,0.93-4.96,0.93c-2.13,0-4-0.44-5.62-1.33c-1.62-0.88-2.87-2.12-3.75-3.72c-0.89-1.59-1.33-3.43-1.33-5.51
		c0-2.08,0.45-3.92,1.34-5.52c0.9-1.61,2.15-2.87,3.75-3.76c1.61-0.9,3.44-1.34,5.49-1.34C530.6,276.55,533.1,277.5,534.77,279.4z
		 M532.65,285.5c-0.05-1.53-0.56-2.75-1.52-3.66c-0.96-0.9-2.23-1.36-3.81-1.36c-1.48,0-2.72,0.45-3.72,1.34
		c-1,0.9-1.61,2.12-1.84,3.68H532.65z"/>
	<path class="st2" d="M550.85,280.95c-1.07-0.34-2.07-0.51-2.98-0.51c-0.86,0-1.54,0.15-2.04,0.45c-0.5,0.3-0.76,0.76-0.76,1.38
		c0,0.64,0.31,1.15,0.95,1.5s1.64,0.72,3.02,1.11c1.45,0.44,2.65,0.88,3.58,1.31c0.93,0.43,1.75,1.07,2.44,1.91s1.03,1.95,1.03,3.33
		c0,2.02-0.78,3.58-2.34,4.67c-1.56,1.09-3.52,1.64-5.87,1.64c-1.61,0-3.18-0.25-4.71-0.76c-1.53-0.51-2.83-1.23-3.9-2.16l1.75-3.55
		c0.93,0.81,2.05,1.43,3.35,1.89c1.3,0.46,2.53,0.68,3.7,0.68c0.93,0,1.68-0.16,2.24-0.48c0.56-0.32,0.83-0.81,0.83-1.46
		c0-0.73-0.32-1.27-0.98-1.64c-0.64-0.37-1.7-0.76-3.15-1.21c-1.4-0.41-2.54-0.82-3.43-1.23c-0.89-0.4-1.65-1.01-2.29-1.83
		c-0.64-0.81-0.98-1.89-0.98-3.21c0-2.05,0.74-3.62,2.24-4.69c1.5-1.07,3.37-1.61,5.62-1.61c1.38,0,2.73,0.2,4.07,0.58
		c1.33,0.39,2.53,0.93,3.56,1.64l-1.83,3.66C552.97,281.75,551.92,281.29,550.85,280.95z"/>
</g>
<g>
	<path class="st2" d="M534.12,444.92c1.36,1.14,2.05,2.9,2.05,5.27c0,2.37-0.7,4.12-2.09,5.22c-1.4,1.1-3.53,1.66-6.41,1.66h-3.48
		v5.75h-3.31V443.2h6.73C530.58,443.21,532.75,443.78,534.12,444.92z M531.77,453.02c0.66-0.7,0.99-1.73,0.99-3.09
		c0-1.35-0.42-2.32-1.26-2.87c-0.84-0.56-2.16-0.84-3.96-0.84h-3.37v7.86h3.84C529.87,454.07,531.11,453.71,531.77,453.02z"/>
	<path class="st2" d="M547.45,450.84c-1.55,0-2.72,0.5-3.51,1.51s-1.18,2.36-1.18,4.07v6.4h-3.14v-14.93h3.14v3
		c0.5-0.93,1.19-1.7,2.06-2.3c0.87-0.6,1.79-0.9,2.77-0.92l0.03,3.17C547.56,450.84,547.51,450.84,547.45,450.84z"/>
	<path class="st2" d="M564.65,456.73h-11.7c0.07,1.08,0.57,1.96,1.49,2.62c0.91,0.66,1.96,0.99,3.14,0.99c1.87,0,3.3-0.59,4.26-1.76
		l1.8,1.96c-1.61,1.67-3.71,2.5-6.29,2.5c-2.1,0-3.88-0.7-5.35-2.09c-1.47-1.4-2.2-3.27-2.2-5.61c0-2.35,0.74-4.22,2.25-5.6
		c1.5-1.39,3.26-2.08,5.29-2.08c2.03,0,3.75,0.61,5.18,1.84c1.42,1.23,2.13,2.91,2.13,5.07L564.65,456.73L564.65,456.73z
		 M552.95,454.26h8.56c0-1.25-0.39-2.22-1.18-2.89c-0.79-0.67-1.76-1.01-2.9-1.01s-2.18,0.35-3.1,1.06
		C553.41,452.12,552.95,453.07,552.95,454.26z"/>
	<path class="st2" d="M578.74,458.36c0,1.42-0.51,2.56-1.54,3.41s-2.35,1.28-3.96,1.28c-1.08,0-2.21-0.2-3.38-0.59
		s-2.2-0.94-3.1-1.66l1.51-2.44c1.74,1.31,3.42,1.96,5.05,1.96c0.71,0,1.27-0.16,1.68-0.49c0.41-0.33,0.62-0.74,0.62-1.24
		c0-0.75-0.99-1.42-2.97-2.02c-0.15-0.05-0.26-0.09-0.34-0.12c-3.11-0.84-4.66-2.25-4.66-4.21c0-1.39,0.54-2.49,1.61-3.32
		c1.07-0.83,2.47-1.24,4.2-1.24c1.72,0,3.35,0.5,4.88,1.51l-1.18,2.33c-1.22-0.81-2.53-1.21-3.96-1.21c-0.75,0-1.36,0.13-1.83,0.4
		c-0.47,0.27-0.7,0.68-0.7,1.22c0,0.48,0.24,0.84,0.73,1.07c0.34,0.17,0.81,0.33,1.41,0.47c0.61,0.15,1.15,0.3,1.61,0.45
		c0.47,0.15,0.92,0.32,1.36,0.5c0.44,0.19,0.91,0.45,1.41,0.79C578.23,455.89,578.74,456.94,578.74,458.36z"/>
	<path class="st2" d="M586.17,450.42v7.58c0,0.71,0.19,1.28,0.56,1.7c0.38,0.42,0.9,0.64,1.57,0.64c0.67,0,1.32-0.33,1.93-0.98
		l1.29,2.22c-1.1,0.99-2.33,1.49-3.66,1.49s-2.48-0.47-3.42-1.39c-0.95-0.92-1.41-2.18-1.41-3.74v-7.49h-1.88v-2.53h1.88v-4.68h3.14
		v4.68h3.93v2.53L586.17,450.42L586.17,450.42z"/>
	<path class="st2" d="M606.13,462.82h-2.87v-2c-1.24,1.48-2.89,2.22-4.97,2.22c-1.55,0-2.84-0.44-3.86-1.32
		c-1.02-0.88-1.53-2.05-1.53-3.52c0-1.47,0.55-2.57,1.63-3.3c1.08-0.73,2.55-1.09,4.41-1.09H603v-0.56c0-1.98-1.1-2.97-3.31-2.97
		c-1.39,0-2.83,0.5-4.32,1.51l-1.41-1.96c1.82-1.44,3.88-2.16,6.18-2.16c1.76,0,3.2,0.45,4.31,1.33s1.67,2.28,1.67,4.2v9.61H606.13z
		 M602.98,457.27v-1.26h-3.54c-2.27,0-3.39,0.71-3.39,2.13c0,0.73,0.28,1.29,0.84,1.67c0.56,0.39,1.34,0.57,2.35,0.57
		c1,0,1.87-0.28,2.62-0.84C602.61,458.98,602.98,458.22,602.98,457.27z"/>
	<path class="st2" d="M613.64,454.74v8.09h-3.14V447.9h3.14v2.72c0.45-0.91,1.13-1.64,2.03-2.16c0.9-0.52,1.88-0.79,2.93-0.79
		c2.35,0,3.96,0.98,4.8,2.92c1.48-1.94,3.32-2.92,5.52-2.92c1.68,0,3.04,0.51,4.08,1.54c1.04,1.03,1.56,2.52,1.56,4.46v9.15h-3.14
		v-8.19c0-2.75-1.14-4.13-3.42-4.13c-1.07,0-2,0.34-2.79,1.02s-1.21,1.68-1.24,2.99v8.31h-3.14v-8.19c0-1.42-0.25-2.46-0.76-3.12
		c-0.5-0.66-1.3-0.99-2.38-0.99s-2.03,0.36-2.84,1.08C614.04,452.31,613.64,453.36,613.64,454.74z"/>
	<path class="st2" d="M651.44,460.81c-1.5,1.49-3.37,2.23-5.61,2.23c-2.25,0-4.12-0.74-5.61-2.23c-1.5-1.49-2.25-3.3-2.25-5.46
		c0-2.15,0.75-3.97,2.25-5.46c1.5-1.49,3.37-2.23,5.61-2.23c2.25,0,4.12,0.74,5.61,2.23c1.5,1.49,2.25,3.3,2.25,5.46
		C653.68,457.51,652.94,459.33,651.44,460.81z M642.45,458.88c0.89,0.9,2.01,1.36,3.38,1.36c1.36,0,2.49-0.46,3.38-1.36
		c0.89-0.9,1.33-2.08,1.33-3.52s-0.45-2.61-1.33-3.52c-0.89-0.9-2.01-1.36-3.38-1.36s-2.49,0.46-3.38,1.36
		c-0.89,0.9-1.33,2.08-1.33,3.52C641.11,456.8,641.56,457.98,642.45,458.88z"/>
	<path class="st2" d="M667.88,458.36c0,1.42-0.51,2.56-1.54,3.41c-1.03,0.85-2.35,1.28-3.96,1.28c-1.08,0-2.21-0.2-3.38-0.59
		s-2.2-0.94-3.1-1.66l1.51-2.44c1.74,1.31,3.42,1.96,5.05,1.96c0.71,0,1.27-0.16,1.68-0.49c0.41-0.33,0.62-0.74,0.62-1.24
		c0-0.75-0.99-1.42-2.97-2.02c-0.15-0.05-0.26-0.09-0.34-0.12c-3.11-0.84-4.66-2.25-4.66-4.21c0-1.39,0.54-2.49,1.61-3.32
		c1.07-0.83,2.47-1.24,4.2-1.24c1.72,0,3.35,0.5,4.88,1.51l-1.18,2.33c-1.22-0.81-2.53-1.21-3.96-1.21c-0.75,0-1.36,0.13-1.83,0.4
		c-0.47,0.27-0.7,0.68-0.7,1.22c0,0.48,0.24,0.84,0.73,1.07c0.34,0.17,0.81,0.33,1.41,0.47c0.61,0.15,1.15,0.3,1.61,0.45
		c0.47,0.15,0.92,0.32,1.36,0.5c0.44,0.19,0.91,0.45,1.41,0.79C667.38,455.89,667.88,456.94,667.88,458.36z"/>
</g>
<g>
	<path class="st2" d="M520.54,485.29h3.31v19.62h-3.31V485.29z"/>
	<path class="st2" d="M531.85,496.82v8.09h-3.14v-14.93h3.14v2.72c0.5-0.91,1.2-1.64,2.09-2.16c0.89-0.52,1.84-0.79,2.87-0.79
		c1.68,0,3.04,0.51,4.08,1.54c1.04,1.03,1.56,2.52,1.56,4.46v9.15h-3.14v-8.19c0-2.75-1.14-4.13-3.42-4.13
		c-1.08,0-2.03,0.36-2.84,1.08C532.25,494.37,531.85,495.43,531.85,496.82z"/>
	<path class="st2" d="M550.62,504.9l-6.01-14.93h3.26l4.55,11.28l4.55-11.28h3.26l-6.01,14.93H550.62z"/>
	<path class="st2" d="M576.61,498.81h-11.7c0.07,1.08,0.57,1.96,1.49,2.62c0.91,0.66,1.96,0.99,3.14,0.99c1.87,0,3.3-0.59,4.26-1.76
		l1.8,1.96c-1.61,1.67-3.71,2.5-6.29,2.5c-2.1,0-3.88-0.7-5.35-2.09c-1.47-1.4-2.2-3.27-2.2-5.61c0-2.35,0.74-4.22,2.25-5.6
		c1.5-1.39,3.26-2.08,5.29-2.08c2.03,0,3.75,0.61,5.18,1.84c1.42,1.23,2.13,2.91,2.13,5.07V498.81z M564.9,496.34h8.56
		c0-1.25-0.39-2.22-1.18-2.89c-0.79-0.67-1.76-1.01-2.9-1.01c-1.15,0-2.18,0.35-3.1,1.06C565.36,494.2,564.9,495.14,564.9,496.34z"
		/>
	<path class="st2" d="M587.89,492.92c-1.55,0-2.72,0.5-3.51,1.51s-1.18,2.36-1.18,4.07v6.4h-3.14v-14.93h3.14v3
		c0.5-0.93,1.19-1.7,2.06-2.3c0.87-0.6,1.79-0.9,2.77-0.92l0.03,3.17C588,492.92,587.94,492.92,587.89,492.92z"/>
	<path class="st2" d="M601.83,500.44c0,1.42-0.51,2.56-1.54,3.41c-1.03,0.85-2.35,1.28-3.96,1.28c-1.08,0-2.21-0.2-3.38-0.59
		s-2.2-0.94-3.1-1.66l1.51-2.44c1.74,1.31,3.42,1.96,5.05,1.96c0.71,0,1.27-0.16,1.68-0.49c0.41-0.33,0.62-0.74,0.62-1.24
		c0-0.75-0.99-1.42-2.97-2.02c-0.15-0.05-0.26-0.09-0.34-0.12c-3.11-0.84-4.66-2.25-4.66-4.21c0-1.39,0.54-2.49,1.61-3.32
		c1.07-0.83,2.47-1.24,4.2-1.24c1.72,0,3.35,0.5,4.88,1.51l-1.18,2.33c-1.22-0.81-2.53-1.21-3.96-1.21c-0.75,0-1.36,0.13-1.83,0.4
		c-0.47,0.27-0.7,0.68-0.7,1.22c0,0.48,0.24,0.84,0.73,1.07c0.34,0.17,0.81,0.33,1.41,0.47c0.61,0.15,1.15,0.3,1.61,0.45
		c0.47,0.15,0.92,0.32,1.36,0.5c0.44,0.19,0.91,0.45,1.41,0.79C601.33,497.97,601.83,499.01,601.83,500.44z"/>
	<path class="st2" d="M605.59,487c-0.39-0.39-0.59-0.86-0.59-1.41s0.2-1.01,0.59-1.41s0.86-0.59,1.41-0.59
		c0.55,0,1.01,0.2,1.41,0.59s0.59,0.86,0.59,1.41c0,0.55-0.2,1.01-0.59,1.41s-0.86,0.59-1.41,0.59
		C606.45,487.59,605.98,487.39,605.59,487z M608.54,504.9h-3.14v-14.93h3.14V504.9z"/>
	<path class="st2" d="M625.58,502.89c-1.5,1.49-3.37,2.23-5.61,2.23c-2.25,0-4.12-0.74-5.61-2.23c-1.5-1.49-2.25-3.3-2.25-5.46
		c0-2.15,0.75-3.97,2.25-5.46c1.5-1.49,3.37-2.23,5.61-2.23c2.25,0,4.12,0.74,5.61,2.23c1.5,1.49,2.25,3.3,2.25,5.46
		C627.81,499.59,627.07,501.4,625.58,502.89z M616.58,500.96c0.89,0.9,2.01,1.36,3.38,1.36c1.36,0,2.49-0.46,3.38-1.36
		c0.89-0.9,1.33-2.08,1.33-3.52s-0.45-2.61-1.33-3.52c-0.89-0.9-2.01-1.36-3.38-1.36s-2.49,0.46-3.38,1.36
		c-0.89,0.9-1.33,2.08-1.33,3.52C615.24,498.87,615.69,500.04,616.58,500.96z"/>
	<path class="st2" d="M634.52,496.82v8.09h-3.14v-14.93h3.14v2.72c0.5-0.91,1.2-1.64,2.09-2.16c0.89-0.52,1.84-0.79,2.87-0.79
		c1.68,0,3.04,0.51,4.08,1.54c1.04,1.03,1.56,2.52,1.56,4.46v9.15h-3.14v-8.19c0-2.75-1.14-4.13-3.42-4.13
		c-1.08,0-2.03,0.36-2.84,1.08C634.92,494.37,634.52,495.43,634.52,496.82z"/>
	<path class="st2" d="M663.4,498.81h-11.7c0.07,1.08,0.57,1.96,1.49,2.62c0.91,0.66,1.96,0.99,3.14,0.99c1.87,0,3.3-0.59,4.26-1.76
		l1.8,1.96c-1.61,1.67-3.71,2.5-6.29,2.5c-2.1,0-3.88-0.7-5.35-2.09c-1.47-1.4-2.2-3.27-2.2-5.61c0-2.35,0.74-4.22,2.25-5.6
		c1.5-1.39,3.26-2.08,5.29-2.08c2.03,0,3.75,0.61,5.18,1.84c1.42,1.23,2.13,2.91,2.13,5.07V498.81z M651.7,496.34h8.56
		c0-1.25-0.39-2.22-1.18-2.89c-0.79-0.67-1.76-1.01-2.9-1.01s-2.18,0.35-3.1,1.06C652.15,494.2,651.7,495.14,651.7,496.34z"/>
	<path class="st2" d="M677.48,500.44c0,1.42-0.51,2.56-1.54,3.41s-2.35,1.28-3.96,1.28c-1.08,0-2.21-0.2-3.38-0.59
		s-2.2-0.94-3.1-1.66l1.51-2.44c1.74,1.31,3.42,1.96,5.05,1.96c0.71,0,1.27-0.16,1.68-0.49c0.41-0.33,0.62-0.74,0.62-1.24
		c0-0.75-0.99-1.42-2.97-2.02c-0.15-0.05-0.26-0.09-0.34-0.12c-3.11-0.84-4.66-2.25-4.66-4.21c0-1.39,0.54-2.49,1.61-3.32
		c1.07-0.83,2.47-1.24,4.2-1.24c1.72,0,3.35,0.5,4.88,1.51l-1.18,2.33c-1.22-0.81-2.53-1.21-3.96-1.21c-0.75,0-1.36,0.13-1.83,0.4
		c-0.47,0.27-0.7,0.68-0.7,1.22c0,0.48,0.24,0.84,0.73,1.07c0.34,0.17,0.81,0.33,1.41,0.47c0.61,0.15,1.15,0.3,1.61,0.45
		c0.47,0.15,0.92,0.32,1.36,0.5c0.44,0.19,0.91,0.45,1.41,0.79C676.98,497.97,677.48,499.01,677.48,500.44z"/>
</g>
<g>
	<path class="st2" d="M536.7,536c0,3.23-1.41,5.27-4.24,6.12l5.14,7.13h-4.21l-4.68-6.59h-4.35v6.59h-3.31v-19.62h7.3
		c2.99,0,5.14,0.5,6.43,1.51C536.04,532.15,536.7,533.77,536.7,536z M532.28,538.78c0.67-0.58,1.01-1.51,1.01-2.79
		c0-1.28-0.35-2.16-1.04-2.64c-0.69-0.47-1.93-0.72-3.71-0.72h-4.21v7.01h4.13C530.34,539.65,531.61,539.36,532.28,538.78z"/>
	<path class="st2" d="M554.9,543.16h-11.7c0.07,1.08,0.57,1.96,1.49,2.62c0.91,0.66,1.96,0.99,3.14,0.99c1.87,0,3.3-0.59,4.26-1.76
		l1.8,1.96c-1.61,1.67-3.71,2.5-6.29,2.5c-2.1,0-3.88-0.7-5.35-2.09c-1.47-1.4-2.2-3.27-2.2-5.61s0.74-4.22,2.25-5.6
		c1.5-1.39,3.26-2.08,5.29-2.08c2.03,0,3.75,0.61,5.18,1.84c1.42,1.23,2.13,2.91,2.13,5.07L554.9,543.16L554.9,543.16z
		 M543.21,540.69h8.56c0-1.25-0.39-2.22-1.18-2.89c-0.79-0.67-1.76-1.01-2.9-1.01s-2.18,0.35-3.1,1.06
		C543.66,538.54,543.21,539.49,543.21,540.69z"/>
	<path class="st2" d="M564.98,549.47c-2.08,0-3.86-0.71-5.36-2.12c-1.5-1.41-2.25-3.26-2.25-5.54s0.78-4.14,2.35-5.57
		c1.56-1.43,3.47-2.15,5.71-2.15s4.15,0.78,5.69,2.33l-1.85,2.27c-1.29-1.12-2.59-1.68-3.9-1.68s-2.44,0.44-3.41,1.31
		s-1.44,2-1.44,3.37c0,1.37,0.47,2.54,1.43,3.49c0.96,0.96,2.13,1.43,3.52,1.43c1.4,0,2.7-0.64,3.94-1.91l1.85,2.02
		C569.45,548.55,567.36,549.47,564.98,549.47z"/>
	<path class="st2" d="M577.66,549.25h-3.14v-20.82h3.14V549.25z"/>
	<path class="st2" d="M594.3,549.25h-2.87v-2c-1.24,1.48-2.89,2.22-4.97,2.22c-1.55,0-2.84-0.44-3.86-1.32
		c-1.02-0.88-1.53-2.05-1.53-3.52c0-1.47,0.55-2.57,1.63-3.3c1.08-0.73,2.55-1.09,4.41-1.09h4.07v-0.56c0-1.98-1.1-2.97-3.31-2.97
		c-1.39,0-2.83,0.5-4.32,1.51l-1.41-1.96c1.82-1.44,3.88-2.16,6.18-2.16c1.76,0,3.2,0.45,4.31,1.33c1.11,0.89,1.67,2.28,1.67,4.2
		v9.61H594.3z M591.16,543.68v-1.26h-3.54c-2.27,0-3.39,0.71-3.39,2.13c0,0.73,0.28,1.29,0.84,1.67c0.56,0.39,1.34,0.57,2.35,0.57
		c1,0,1.87-0.28,2.62-0.84C590.79,545.39,591.16,544.64,591.16,543.68z"/>
	<path class="st2" d="M601.82,541.16v8.09h-3.14v-14.93h3.14v2.72c0.45-0.91,1.13-1.64,2.03-2.16c0.9-0.52,1.88-0.79,2.93-0.79
		c2.35,0,3.96,0.98,4.8,2.92c1.48-1.94,3.32-2.92,5.52-2.92c1.68,0,3.04,0.51,4.08,1.54c1.04,1.03,1.56,2.52,1.56,4.46v9.15h-3.14
		v-8.19c0-2.75-1.14-4.13-3.42-4.13c-1.07,0-2,0.34-2.79,1.02c-0.8,0.68-1.21,1.68-1.24,2.99v8.31H609v-8.19
		c0-1.42-0.25-2.46-0.76-3.12c-0.5-0.66-1.3-0.99-2.38-0.99c-1.08,0-2.03,0.36-2.84,1.08C602.22,538.72,601.82,539.78,601.82,541.16
		z"/>
	<path class="st2" d="M639.63,547.24c-1.5,1.49-3.37,2.23-5.61,2.23c-2.25,0-4.12-0.74-5.61-2.23s-2.25-3.3-2.25-5.46
		c0-2.15,0.75-3.97,2.25-5.46c1.5-1.49,3.37-2.23,5.61-2.23c2.25,0,4.12,0.74,5.61,2.23c1.5,1.49,2.25,3.3,2.25,5.46
		C641.86,543.93,641.12,545.75,639.63,547.24z M630.63,545.3c0.89,0.9,2.01,1.36,3.38,1.36c1.36,0,2.49-0.46,3.38-1.36
		c0.89-0.9,1.33-2.08,1.33-3.52s-0.45-2.61-1.33-3.52c-0.89-0.9-2.01-1.36-3.38-1.36s-2.49,0.46-3.38,1.36
		c-0.89,0.9-1.33,2.08-1.33,3.52C629.29,543.22,629.74,544.39,630.63,545.3z"/>
	<path class="st2" d="M656.07,544.78c0,1.42-0.51,2.56-1.54,3.41s-2.35,1.28-3.96,1.28c-1.08,0-2.21-0.2-3.38-0.59
		s-2.2-0.94-3.1-1.66l1.51-2.44c1.74,1.31,3.42,1.96,5.05,1.96c0.71,0,1.27-0.16,1.68-0.49s0.62-0.74,0.62-1.24
		c0-0.75-0.99-1.42-2.97-2.02c-0.15-0.05-0.26-0.09-0.34-0.12c-3.11-0.84-4.66-2.25-4.66-4.21c0-1.39,0.54-2.49,1.61-3.32
		c1.07-0.83,2.47-1.24,4.2-1.24c1.72,0,3.35,0.5,4.88,1.51l-1.18,2.33c-1.22-0.81-2.53-1.21-3.96-1.21c-0.75,0-1.36,0.13-1.83,0.4
		c-0.47,0.27-0.7,0.68-0.7,1.22c0,0.48,0.24,0.84,0.73,1.07c0.34,0.17,0.81,0.33,1.41,0.47c0.61,0.15,1.15,0.3,1.61,0.45
		c0.47,0.15,0.92,0.32,1.36,0.5c0.44,0.19,0.91,0.45,1.41,0.79C655.56,542.31,656.07,543.36,656.07,544.78z"/>
</g>
<g>
	<g>
		<path class="st8" d="M446.49,509.14l-53.71-18.58c2.66-7.69,4.01-15.77,4.01-24.01c0-40.46-32.92-73.38-73.38-73.38v-56.83
			c71.8,0,130.21,58.41,130.21,130.21C453.61,481.13,451.21,495.46,446.49,509.14z"/>
	</g>
</g>
<g>
	<g>
		<path class="st9" d="M323.4,596.76c-19.88,0-38.97-4.37-56.75-12.99l24.79-51.14c9.99,4.84,20.75,7.3,31.96,7.3
			c31.28,0,59.15-19.84,69.37-49.36l53.71,18.58C428.35,561.55,378.89,596.76,323.4,596.76z"/>
	</g>
</g>
<g>
	<g>
		<path class="st10" d="M266.65,583.76c-27.18-13.18-49.08-35.56-61.66-63.01l51.66-23.68c7.1,15.49,19.46,28.12,34.8,35.55
			L266.65,583.76z"/>
	</g>
</g>
<g>
	<g>
		<path class="st7" d="M204.99,520.75c-7.83-17.08-11.79-35.31-11.79-54.21c0-71.79,58.41-130.21,130.21-130.21v56.83
			c-40.45,0-73.38,32.92-73.38,73.38c0,10.66,2.23,20.93,6.63,30.52L204.99,520.75z"/>
	</g>
</g>
</svg>
