<?xml version="1.0" encoding="utf-8"?>
<!-- Generator: Adobe Illustrator 26.3.1, SVG Export Plug-In . SVG Version: 6.00 Build 0)  -->
<svg version="1.1" id="Capa_1" xmlns="http://www.w3.org/2000/svg" xmlns:xlink="http://www.w3.org/1999/xlink" x="0px" y="0px"
	 viewBox="0 0 1953.76 1578.12" style="enable-background:new 0 0 1953.76 1578.12;" xml:space="preserve">
<style type="text/css">
	.st0{opacity:0.15;}
	.st1{fill:#404041;}
	.st2{fill:#FFFFFF;}
	.st3{fill:#3097E6;}
	.st4{fill:#E7E7E7;}
	.st5{fill:#F0F1F5;}
	.st6{fill:#ED6568;}
	.st7{fill:#53B0E5;}
	.st8{fill:#E7C365;}
	.st9{fill:#7C61AA;}
</style>
<g class="st0">
	<path class="st1" d="M1497,1551.93H447.32c-12.35,0-22.36-10.01-22.36-22.36V719.24c0-12.35,10.01-22.36,22.36-22.36H1497
		c12.35,0,22.36,10.01,22.36,22.36v810.33C1519.36,1541.92,1509.35,1551.93,1497,1551.93z"/>
</g>
<g>
	<path class="st2" d="M1510.11,1539.23H460.43c-12.35,0-22.36-10.01-22.36-22.36V706.54c0-12.35,10.01-22.36,22.36-22.36h1049.68
		c12.35,0,22.36,10.01,22.36,22.36v810.33C1532.47,1529.22,1522.46,1539.23,1510.11,1539.23z"/>
</g>
<g>
	<rect x="923.31" y="887.64" class="st3" width="97.69" height="527.28"/>
</g>
<g>
	<rect x="510.33" y="740.55" class="st3" width="97.69" height="38.87"/>
</g>
<g>
	<rect x="1021.01" y="887.64" class="st4" width="97.69" height="527.28"/>
</g>
<g>
	<rect x="1155.39" y="1109.08" class="st3" width="97.69" height="305.83"/>
</g>
<g>
	<rect x="1253.08" y="1148.82" class="st4" width="97.69" height="266.1"/>
</g>
<g>
	<rect x="701.93" y="1021.39" class="st3" width="97.69" height="393.53"/>
</g>
<g>
	<rect x="799.63" y="1070.06" class="st4" width="97.69" height="344.86"/>
</g>
<g>
	<path class="st3" d="M979.17,1459.87h8.35v22.99h-3.69v-19.54h-4.67V1459.87z"/>
	<path class="st3" d="M1006.73,1459.84v3.52h-9.7v5.66c0.97-0.53,2.06-0.79,3.29-0.79c2.15,0,4,0.65,5.56,1.94
		c1.56,1.29,2.33,3.05,2.33,5.26c0,2.22-0.81,4.05-2.43,5.51c-1.62,1.46-3.62,2.19-5.99,2.19c-3.09,0-5.56-1.03-7.4-3.09l2.07-2.83
		c0.17,0.18,0.41,0.38,0.71,0.62c0.3,0.24,0.9,0.56,1.83,0.97c0.92,0.41,1.93,0.61,3.03,0.61c1.1,0,2.09-0.33,2.99-0.99
		c0.9-0.66,1.35-1.62,1.35-2.88c0-1.26-0.48-2.24-1.43-2.93c-0.95-0.69-2.16-1.04-3.62-1.04c-1.46,0-2.85,0.36-4.16,1.09l-1.65-1.78
		v-11.05H1006.73z"/>
	<path class="st3" d="M1024.5,1456.19h3.29l-14.24,30.53h-3.29L1024.5,1456.19z"/>
	<path class="st3" d="M1029.6,1459.87h8.35v22.99h-3.69v-19.54h-4.67V1459.87z"/>
	<path class="st3" d="M1045.45,1479.89c-1.56-2.16-2.34-5.05-2.34-8.67c0-3.62,0.78-6.51,2.34-8.67c1.56-2.16,3.9-3.24,7.04-3.24
		c3.13,0,5.48,1.08,7.04,3.24c1.56,2.16,2.34,5.05,2.34,8.67c0,3.62-0.78,6.51-2.34,8.67c-1.56,2.16-3.9,3.24-7.04,3.24
		C1049.35,1483.13,1047.01,1482.05,1045.45,1479.89z M1048.23,1465c-0.91,1.58-1.37,3.65-1.37,6.22s0.45,4.64,1.37,6.22
		s2.33,2.37,4.26,2.37c1.93,0,3.34-0.78,4.23-2.35c0.89-1.57,1.33-3.65,1.33-6.23c0-2.59-0.44-4.67-1.33-6.23
		c-0.89-1.57-2.3-2.35-4.23-2.35C1050.56,1462.63,1049.14,1463.42,1048.23,1465z"/>
</g>
<g>
	<path class="st3" d="M1400.68,1446.47c2.22,2.01,3.32,4.8,3.32,8.37c0,3.57-1.07,6.4-3.22,8.49c-2.15,2.08-5.44,3.13-9.87,3.13
		h-7.63v-22.99h7.89C1395.3,1443.46,1398.46,1444.46,1400.68,1446.47z M1400.09,1454.94c0-5.26-3.02-7.89-9.05-7.89h-3.88v15.76
		h4.31c2.79,0,4.92-0.66,6.4-1.99C1399.35,1459.49,1400.09,1457.53,1400.09,1454.94z"/>
	<path class="st3" d="M1408.48,1448.95h3.69v17.5h-3.69V1448.95z M1412.06,1446.72h-3.09l3.49-4.61l3.62,1.61L1412.06,1446.72z"/>
	<path class="st3" d="M1431.67,1466.45h-3.35v-2.34c-1.45,1.73-3.39,2.6-5.82,2.6c-1.82,0-3.33-0.52-4.52-1.55
		c-1.2-1.03-1.79-2.41-1.79-4.13c0-1.72,0.64-3.01,1.91-3.87c1.27-0.86,2.99-1.28,5.17-1.28h4.77v-0.66c0-2.32-1.29-3.49-3.88-3.49
		c-1.62,0-3.31,0.59-5.07,1.78l-1.64-2.3c2.12-1.69,4.54-2.53,7.23-2.53c2.06,0,3.74,0.52,5.05,1.56c1.31,1.04,1.96,2.68,1.96,4.92
		V1466.45z M1427.98,1459.94v-1.48h-4.14c-2.65,0-3.98,0.83-3.98,2.5c0,0.86,0.33,1.51,0.99,1.96c0.66,0.45,1.57,0.67,2.75,0.67
		c1.17,0,2.2-0.33,3.07-0.99S1427.98,1461.06,1427.98,1459.94z"/>
	<path class="st3" d="M1449.27,1461.22c0,1.67-0.6,3-1.81,4c-1.21,1-2.75,1.5-4.64,1.5c-1.27,0-2.6-0.23-3.97-0.69
		s-2.58-1.11-3.63-1.94l1.78-2.86c2.04,1.54,4.01,2.3,5.92,2.3c0.83,0,1.49-0.19,1.97-0.58c0.48-0.38,0.72-0.87,0.72-1.46
		c0-0.88-1.16-1.67-3.49-2.37c-0.18-0.07-0.31-0.11-0.39-0.13c-3.64-0.99-5.46-2.63-5.46-4.93c0-1.62,0.63-2.92,1.89-3.9
		c1.26-0.98,2.9-1.46,4.92-1.46c2.02,0,3.93,0.59,5.72,1.78l-1.38,2.73c-1.43-0.94-2.97-1.41-4.64-1.41c-0.88,0-1.59,0.16-2.14,0.48
		c-0.55,0.32-0.82,0.8-0.82,1.43c0,0.57,0.28,0.99,0.86,1.25c0.39,0.2,0.95,0.38,1.66,0.56c0.71,0.18,1.34,0.35,1.89,0.53
		c0.55,0.18,1.08,0.37,1.59,0.59c0.52,0.22,1.07,0.53,1.66,0.92C1448.67,1458.33,1449.27,1459.56,1449.27,1461.22z"/>
</g>
<g>
	<path class="st3" d="M514.07,918.68h8.35v22.99h-3.69v-19.54h-4.67V918.68z"/>
	<path class="st3" d="M529.92,938.7c-1.56-2.16-2.34-5.05-2.34-8.67s0.78-6.51,2.34-8.67c1.56-2.16,3.9-3.24,7.04-3.24
		c3.13,0,5.48,1.08,7.04,3.24c1.56,2.16,2.34,5.05,2.34,8.67s-0.78,6.51-2.34,8.67c-1.56,2.16-3.9,3.24-7.04,3.24
		C533.83,941.94,531.48,940.86,529.92,938.7z M532.7,923.82c-0.91,1.58-1.37,3.65-1.37,6.22c0,2.57,0.45,4.64,1.37,6.22
		c0.91,1.58,2.33,2.37,4.26,2.37c1.93,0,3.34-0.78,4.23-2.35c0.89-1.57,1.33-3.65,1.33-6.23c0-2.59-0.44-4.67-1.33-6.23
		c-0.89-1.57-2.3-2.35-4.23-2.35C535.03,921.45,533.61,922.24,532.7,923.82z"/>
	<path class="st3" d="M552.56,938.7c-1.56-2.16-2.34-5.05-2.34-8.67s0.78-6.51,2.34-8.67c1.56-2.16,3.9-3.24,7.04-3.24
		c3.13,0,5.48,1.08,7.04,3.24c1.56,2.16,2.34,5.05,2.34,8.67s-0.78,6.51-2.34,8.67c-1.56,2.16-3.9,3.24-7.04,3.24
		C556.46,941.94,554.11,940.86,552.56,938.7z M555.33,923.82c-0.91,1.58-1.37,3.65-1.37,6.22c0,2.57,0.45,4.64,1.37,6.22
		s2.33,2.37,4.26,2.37c1.93,0,3.34-0.78,4.23-2.35c0.89-1.57,1.33-3.65,1.33-6.23c0-2.59-0.44-4.67-1.33-6.23
		c-0.89-1.57-2.3-2.35-4.23-2.35C557.66,921.45,556.25,922.24,555.33,923.82z"/>
</g>
<g>
	<path class="st1" d="M634.63,750.29h3.88v22.99h-3.88V750.29z"/>
	<path class="st1" d="M647.88,763.82v9.47h-3.69v-17.5h3.69v3.19c0.59-1.07,1.41-1.92,2.45-2.53c1.04-0.61,2.17-0.92,3.37-0.92
		c1.97,0,3.57,0.6,4.79,1.81c1.22,1.21,1.83,2.95,1.83,5.23v10.72h-3.69v-9.61c0-3.22-1.34-4.84-4.01-4.84
		c-1.27,0-2.38,0.42-3.32,1.27C648.35,760.96,647.88,762.19,647.88,763.82z"/>
	<path class="st1" d="M681.63,755.79v15.26c0,3.09-0.84,5.41-2.52,6.96c-1.68,1.55-3.83,2.32-6.46,2.32s-5.01-0.82-7.14-2.47
		l1.74-2.8c1.71,1.29,3.44,1.94,5.18,1.94c1.74,0,3.13-0.45,4.14-1.35c1.02-0.9,1.53-2.34,1.53-4.31v-2.24
		c-0.55,1.03-1.33,1.85-2.35,2.47c-1.02,0.61-2.17,0.92-3.44,0.92c-2.32,0-4.23-0.81-5.72-2.43c-1.49-1.62-2.24-3.64-2.24-6.05
		c0-2.41,0.75-4.43,2.24-6.05c1.49-1.62,3.39-2.43,5.71-2.43s4.19,0.95,5.64,2.86v-2.6H681.63z M667.98,763.86
		c0,1.44,0.45,2.68,1.33,3.72c0.89,1.04,2.08,1.56,3.58,1.56c1.5,0,2.72-0.5,3.65-1.51c0.93-1.01,1.4-2.26,1.4-3.77
		c0-1.5-0.47-2.77-1.42-3.82c-0.94-1.04-2.16-1.56-3.65-1.56c-1.49,0-2.68,0.54-3.57,1.61
		C668.43,761.17,667.98,762.43,667.98,763.86z"/>
	<path class="st1" d="M696.14,759.24c-1.82,0-3.19,0.59-4.11,1.78c-0.92,1.18-1.38,2.77-1.38,4.77v7.5h-3.69v-17.5h3.69v3.52
		c0.59-1.1,1.4-2,2.42-2.7c1.02-0.7,2.1-1.06,3.24-1.09l0.03,3.72C696.27,759.24,696.21,759.24,696.14,759.24z"/>
	<path class="st1" d="M716.31,766.15h-13.72c0.09,1.27,0.67,2.3,1.74,3.08c1.07,0.78,2.3,1.17,3.69,1.17c2.19,0,3.86-0.69,5-2.07
		l2.1,2.3c-1.89,1.95-4.34,2.93-7.37,2.93c-2.46,0-4.55-0.82-6.27-2.45c-1.72-1.63-2.58-3.83-2.58-6.58c0-2.75,0.88-4.94,2.63-6.56
		c1.75-1.62,3.82-2.43,6.2-2.43s4.4,0.72,6.07,2.15c1.67,1.44,2.5,3.42,2.5,5.94V766.15z M702.59,763.26h10.03
		c0-1.47-0.46-2.6-1.38-3.39c-0.92-0.79-2.06-1.18-3.41-1.18s-2.56,0.41-3.63,1.23C703.13,760.74,702.59,761.85,702.59,763.26z"/>
	<path class="st1" d="M732.82,768.06c0,1.67-0.6,3-1.81,4c-1.21,1-2.75,1.5-4.64,1.5c-1.27,0-2.6-0.23-3.97-0.69
		c-1.37-0.46-2.58-1.11-3.63-1.94l1.78-2.86c2.04,1.54,4.01,2.3,5.92,2.3c0.83,0,1.49-0.19,1.97-0.58c0.48-0.38,0.72-0.87,0.72-1.46
		c0-0.88-1.16-1.67-3.49-2.37c-0.18-0.07-0.31-0.11-0.39-0.13c-3.64-0.99-5.46-2.63-5.46-4.93c0-1.62,0.63-2.92,1.89-3.9
		c1.26-0.98,2.9-1.46,4.92-1.46c2.02,0,3.93,0.59,5.73,1.78l-1.38,2.73c-1.43-0.94-2.97-1.41-4.64-1.41c-0.88,0-1.59,0.16-2.14,0.48
		c-0.55,0.32-0.82,0.8-0.82,1.43c0,0.57,0.28,0.99,0.86,1.25c0.39,0.2,0.95,0.38,1.66,0.56c0.71,0.18,1.34,0.35,1.89,0.53
		c0.55,0.18,1.08,0.37,1.59,0.59c0.52,0.22,1.07,0.53,1.66,0.92C732.23,765.16,732.82,766.39,732.82,768.06z"/>
	<path class="st1" d="M751.64,770.94c-1.76,1.74-3.95,2.62-6.58,2.62c-2.63,0-4.83-0.87-6.58-2.62c-1.75-1.74-2.63-3.88-2.63-6.4
		c0-2.52,0.88-4.65,2.63-6.4c1.76-1.74,3.95-2.62,6.58-2.62c2.63,0,4.82,0.87,6.58,2.62c1.75,1.74,2.63,3.88,2.63,6.4
		C754.27,767.06,753.39,769.19,751.64,770.94z M741.09,768.67c1.04,1.06,2.36,1.6,3.97,1.6c1.6,0,2.92-0.53,3.96-1.6
		c1.04-1.06,1.56-2.44,1.56-4.13c0-1.69-0.52-3.06-1.56-4.13c-1.04-1.06-2.36-1.6-3.96-1.6c-1.6,0-2.92,0.53-3.97,1.6
		c-1.04,1.06-1.56,2.44-1.56,4.13C739.53,766.23,740.05,767.6,741.09,768.67z"/>
	<path class="st1" d="M770.91,768.06c0,1.67-0.6,3-1.81,4c-1.21,1-2.75,1.5-4.64,1.5c-1.27,0-2.6-0.23-3.97-0.69
		c-1.37-0.46-2.58-1.11-3.63-1.94l1.78-2.86c2.04,1.54,4.01,2.3,5.92,2.3c0.83,0,1.49-0.19,1.97-0.58c0.48-0.38,0.72-0.87,0.72-1.46
		c0-0.88-1.16-1.67-3.49-2.37c-0.18-0.07-0.31-0.11-0.39-0.13c-3.64-0.99-5.46-2.63-5.46-4.93c0-1.62,0.63-2.92,1.89-3.9
		c1.26-0.98,2.9-1.46,4.92-1.46c2.02,0,3.93,0.59,5.73,1.78l-1.38,2.73c-1.43-0.94-2.97-1.41-4.64-1.41c-0.88,0-1.59,0.16-2.14,0.48
		c-0.55,0.32-0.82,0.8-0.82,1.43c0,0.57,0.28,0.99,0.86,1.25c0.39,0.2,0.95,0.38,1.66,0.56c0.71,0.18,1.34,0.35,1.89,0.53
		c0.55,0.18,1.08,0.37,1.59,0.59c0.52,0.22,1.07,0.53,1.66,0.92C770.32,765.16,770.91,766.39,770.91,768.06z"/>
</g>
<g>
	<rect x="827.51" y="740.55" class="st4" width="97.69" height="38.87"/>
</g>
<g>
	<path class="st1" d="M941.33,768.32l-2.3,5.23h-4.14l10.13-22.99h4.15l10.13,22.99h-4.14l-2.3-5.23H941.33z M951.26,764.74
		l-4.18-9.47l-4.18,9.47H951.26z"/>
	<path class="st1" d="M965.7,759.01v8.88c0,0.83,0.22,1.5,0.66,1.99c0.44,0.49,1.05,0.74,1.84,0.74c0.79,0,1.55-0.38,2.27-1.15
		l1.51,2.6c-1.29,1.16-2.73,1.74-4.29,1.74c-1.57,0-2.91-0.54-4.01-1.63c-1.11-1.09-1.66-2.55-1.66-4.39v-8.78h-2.21v-2.96h2.21
		v-5.49h3.69v5.49h4.61v2.96H965.7z"/>
	<path class="st1" d="M991.2,766.41h-13.72c0.09,1.27,0.67,2.3,1.74,3.08c1.07,0.78,2.3,1.17,3.69,1.17c2.19,0,3.86-0.69,5-2.07
		l2.1,2.3c-1.89,1.95-4.34,2.93-7.37,2.93c-2.46,0-4.55-0.82-6.27-2.45c-1.72-1.63-2.58-3.83-2.58-6.58c0-2.75,0.88-4.94,2.63-6.56
		c1.75-1.62,3.82-2.43,6.2-2.43s4.4,0.72,6.07,2.15c1.67,1.44,2.5,3.42,2.5,5.94V766.41z M977.48,763.52h10.03
		c0-1.47-0.46-2.6-1.38-3.39c-0.92-0.79-2.06-1.18-3.41-1.18s-2.56,0.41-3.63,1.23C978.02,761,977.48,762.12,977.48,763.52z"/>
	<path class="st1" d="M998.93,764.08v9.47h-3.69v-17.5h3.69v3.19c0.59-1.07,1.41-1.92,2.45-2.53c1.04-0.61,2.17-0.92,3.37-0.92
		c1.97,0,3.57,0.6,4.79,1.81c1.22,1.21,1.83,2.95,1.83,5.23v10.72h-3.69v-9.61c0-3.22-1.34-4.84-4.01-4.84
		c-1.27,0-2.38,0.42-3.32,1.27C999.4,761.22,998.93,762.46,998.93,764.08z"/>
	<path class="st1" d="M1024.26,773.82c-2.43,0-4.53-0.83-6.28-2.48c-1.75-1.66-2.63-3.82-2.63-6.5c0-2.68,0.92-4.85,2.75-6.53
		c1.83-1.68,4.06-2.52,6.69-2.52c2.63,0,4.86,0.91,6.68,2.73l-2.17,2.66c-1.51-1.32-3.04-1.97-4.57-1.97c-1.54,0-2.87,0.51-4,1.53
		c-1.13,1.02-1.69,2.34-1.69,3.95c0,1.61,0.56,2.98,1.68,4.1c1.12,1.12,2.49,1.68,4.13,1.68c1.63,0,3.18-0.75,4.62-2.24l2.17,2.37
		C1029.5,772.74,1027.04,773.82,1024.26,773.82z"/>
	<path class="st1" d="M1035.67,752.56c-0.46-0.46-0.69-1.01-0.69-1.64c0-0.64,0.23-1.18,0.69-1.64c0.46-0.46,1.01-0.69,1.64-0.69
		s1.18,0.23,1.65,0.69c0.46,0.46,0.69,1.01,0.69,1.64c0,0.64-0.23,1.18-0.69,1.64s-1.01,0.69-1.65,0.69
		S1036.13,753.03,1035.67,752.56z M1039.12,773.55h-3.69v-17.5h3.69V773.55z"/>
	<path class="st1" d="M1059.09,771.2c-1.76,1.74-3.95,2.62-6.58,2.62c-2.63,0-4.83-0.87-6.58-2.62c-1.75-1.74-2.63-3.88-2.63-6.4
		c0-2.52,0.88-4.65,2.63-6.4c1.76-1.74,3.95-2.62,6.58-2.62c2.63,0,4.82,0.87,6.58,2.62c1.75,1.74,2.63,3.88,2.63,6.4
		C1061.72,767.32,1060.85,769.46,1059.09,771.2z M1048.55,768.93c1.04,1.06,2.36,1.6,3.97,1.6c1.6,0,2.92-0.53,3.96-1.6
		c1.04-1.06,1.56-2.44,1.56-4.13c0-1.69-0.52-3.06-1.56-4.13c-1.04-1.06-2.36-1.6-3.96-1.6c-1.6,0-2.92,0.53-3.97,1.6
		c-1.04,1.06-1.56,2.44-1.56,4.13C1046.99,766.49,1047.51,767.87,1048.55,768.93z"/>
	<path class="st1" d="M1069.59,764.08v9.47h-3.69v-17.5h3.69v3.19c0.59-1.07,1.41-1.92,2.45-2.53c1.04-0.61,2.17-0.92,3.37-0.92
		c1.97,0,3.57,0.6,4.79,1.81c1.22,1.21,1.83,2.95,1.83,5.23v10.72h-3.69v-9.61c0-3.22-1.34-4.84-4.01-4.84
		c-1.27,0-2.38,0.42-3.32,1.27C1070.06,761.22,1069.59,762.46,1069.59,764.08z"/>
	<path class="st1" d="M1103.44,766.41h-13.72c0.09,1.27,0.67,2.3,1.74,3.08c1.07,0.78,2.3,1.17,3.69,1.17c2.19,0,3.86-0.69,5-2.07
		l2.1,2.3c-1.89,1.95-4.34,2.93-7.37,2.93c-2.46,0-4.55-0.82-6.27-2.45c-1.72-1.63-2.58-3.83-2.58-6.58c0-2.75,0.88-4.94,2.63-6.56
		c1.75-1.62,3.82-2.43,6.2-2.43s4.4,0.72,6.07,2.15c1.67,1.44,2.5,3.42,2.5,5.94V766.41z M1089.72,763.52h10.03
		c0-1.47-0.46-2.6-1.38-3.39c-0.92-0.79-2.06-1.18-3.41-1.18s-2.56,0.41-3.63,1.23C1090.26,761,1089.72,762.12,1089.72,763.52z"/>
	<path class="st1" d="M1119.95,768.32c0,1.67-0.6,3-1.81,4c-1.21,1-2.75,1.5-4.64,1.5c-1.27,0-2.6-0.23-3.97-0.69
		c-1.37-0.46-2.58-1.11-3.63-1.94l1.78-2.86c2.04,1.54,4.01,2.3,5.92,2.3c0.83,0,1.49-0.19,1.97-0.58c0.48-0.38,0.72-0.87,0.72-1.46
		c0-0.88-1.16-1.67-3.49-2.37c-0.18-0.07-0.31-0.11-0.39-0.13c-3.64-0.99-5.46-2.63-5.46-4.93c0-1.62,0.63-2.92,1.89-3.9
		c1.26-0.98,2.9-1.46,4.92-1.46c2.02,0,3.93,0.59,5.73,1.78l-1.38,2.73c-1.43-0.94-2.97-1.41-4.64-1.41c-0.88,0-1.59,0.16-2.14,0.48
		c-0.55,0.32-0.82,0.8-0.82,1.43c0,0.57,0.28,0.99,0.86,1.25c0.39,0.2,0.95,0.38,1.66,0.56c0.71,0.18,1.34,0.35,1.89,0.53
		c0.55,0.18,1.08,0.37,1.59,0.59c0.52,0.22,1.07,0.53,1.66,0.92C1119.36,765.43,1119.95,766.66,1119.95,768.32z"/>
</g>
<g>
	<path class="st3" d="M546.7,1124.93v3.52H537v5.66c0.97-0.53,2.06-0.79,3.29-0.79c2.15,0,4,0.65,5.56,1.94
		c1.56,1.29,2.33,3.05,2.33,5.26c0,2.22-0.81,4.05-2.43,5.51c-1.62,1.46-3.62,2.19-5.99,2.19c-3.09,0-5.56-1.03-7.4-3.09l2.07-2.83
		c0.17,0.18,0.41,0.38,0.71,0.62c0.3,0.24,0.9,0.56,1.83,0.97c0.92,0.41,1.93,0.61,3.03,0.61c1.1,0,2.09-0.33,2.99-0.99
		c0.9-0.66,1.35-1.62,1.35-2.88c0-1.26-0.48-2.24-1.43-2.93c-0.95-0.69-2.16-1.04-3.62-1.04c-1.46,0-2.85,0.36-4.16,1.09l-1.65-1.78
		v-11.05H546.7z"/>
	<path class="st3" d="M554.04,1144.98c-1.56-2.16-2.34-5.05-2.34-8.67c0-3.62,0.78-6.51,2.34-8.67c1.56-2.16,3.9-3.24,7.04-3.24
		c3.13,0,5.48,1.08,7.04,3.24c1.56,2.16,2.34,5.05,2.34,8.67c0,3.62-0.78,6.51-2.34,8.67c-1.56,2.16-3.9,3.24-7.04,3.24
		C557.94,1148.22,555.6,1147.14,554.04,1144.98z M556.82,1130.09c-0.91,1.58-1.37,3.65-1.37,6.22s0.45,4.64,1.37,6.22
		s2.33,2.37,4.26,2.37c1.93,0,3.34-0.78,4.23-2.35c0.89-1.57,1.33-3.65,1.33-6.23c0-2.59-0.44-4.67-1.33-6.23
		c-0.89-1.57-2.3-2.35-4.23-2.35C559.15,1127.73,557.73,1128.51,556.82,1130.09z"/>
</g>
<g>
	<path class="st3" d="M561.51,1410.78c-1.56-2.16-2.34-5.05-2.34-8.67c0-3.62,0.78-6.51,2.34-8.67c1.56-2.16,3.9-3.24,7.04-3.24
		c3.13,0,5.48,1.08,7.04,3.24c1.56,2.16,2.34,5.05,2.34,8.67c0,3.62-0.78,6.51-2.34,8.67c-1.56,2.16-3.9,3.24-7.04,3.24
		C565.41,1414.02,563.07,1412.94,561.51,1410.78z M564.29,1395.9c-0.91,1.58-1.37,3.65-1.37,6.22s0.45,4.64,1.37,6.22
		s2.33,2.37,4.26,2.37c1.93,0,3.34-0.78,4.23-2.35c0.89-1.57,1.33-3.65,1.33-6.23c0-2.59-0.44-4.67-1.33-6.23
		c-0.89-1.57-2.3-2.35-4.23-2.35C566.62,1393.53,565.2,1394.32,564.29,1395.9z"/>
</g>
<g>
	<rect x="671.99" y="841.26" class="st5" width="2.35" height="573.66"/>
</g>
<g>
	<rect x="673.16" y="1413.01" class="st5" width="787.06" height="2.35"/>
</g>
<g class="st0">
	<path class="st1" d="M1869.49,639.51H847.28c-19.18,0-34.73-15.55-34.73-34.73v-471.1c0-19.18,15.55-34.73,34.73-34.73h1022.21
		c19.18,0,34.73,15.55,34.73,34.73v471.1C1904.22,623.96,1888.67,639.51,1869.49,639.51z"/>
</g>
<g>
	<path class="st2" d="M1882.25,628.42H860.05c-19.18,0-34.73-15.55-34.73-34.73v-471.1c0-19.18,15.55-34.73,34.73-34.73h1022.21
		c19.18,0,34.73,15.55,34.73,34.73v471.1C1916.99,612.87,1901.44,628.42,1882.25,628.42z"/>
</g>
<g>
	<path class="st5" d="M1861.54,526.62H975.51v-320.4h886.02V526.62z M979.51,522.62h878.02v-312.4H979.51V522.62z"/>
</g>
<g>
	<rect x="1217.85" y="207.65" class="st5" width="6.99" height="314.02"/>
</g>
<g>
	<rect x="1344.19" y="207.65" class="st5" width="6.99" height="314.02"/>
</g>
<g>
	<rect x="1473.43" y="207.65" class="st5" width="6.99" height="314.02"/>
</g>
<g>
	<rect x="1600.43" y="209.41" class="st5" width="6.99" height="314.02"/>
</g>
<g>
	<rect x="1726.89" y="209.41" class="st5" width="6.99" height="314.02"/>
</g>
<g>
	<rect x="1086.31" y="207.65" class="st5" width="6.99" height="314.02"/>
</g>
<g>
	<g>
		<path class="st3" d="M1810.05,554.16c2.33,2.1,3.49,5.03,3.49,8.78c0,3.75-1.13,6.72-3.38,8.9c-2.25,2.19-5.7,3.28-10.35,3.28
			h-8.01v-24.12h8.28C1804.4,551.01,1807.72,552.06,1810.05,554.16z M1809.43,563.05c0-5.52-3.16-8.28-9.49-8.28h-4.07v16.53h4.52
			c2.92,0,5.16-0.7,6.71-2.09C1808.65,567.82,1809.43,565.76,1809.43,563.05z"/>
	</g>
	<g>
		<path class="st3" d="M1818.23,556.77h3.87v18.36h-3.87V556.77z M1821.99,554.42h-3.24l3.66-4.83l3.8,1.69L1821.99,554.42z"/>
	</g>
	<g>
		<path class="st3" d="M1842.55,575.13h-3.52v-2.45c-1.52,1.82-3.56,2.73-6.11,2.73c-1.91,0-3.49-0.54-4.74-1.62
			c-1.25-1.08-1.88-2.52-1.88-4.33c0-1.81,0.67-3.16,2-4.05c1.33-0.9,3.14-1.35,5.42-1.35h5v-0.69c0-2.44-1.36-3.66-4.07-3.66
			c-1.7,0-3.47,0.62-5.31,1.86l-1.72-2.42c2.23-1.77,4.76-2.66,7.59-2.66c2.16,0,3.93,0.55,5.3,1.64c1.37,1.09,2.05,2.81,2.05,5.16
			V575.13z M1838.69,568.3v-1.55h-4.35c-2.78,0-4.18,0.87-4.18,2.62c0,0.9,0.35,1.58,1.04,2.05c0.69,0.47,1.65,0.71,2.88,0.71
			c1.23,0,2.31-0.34,3.23-1.04S1838.69,569.47,1838.69,568.3z"/>
	</g>
	<g>
		<path class="st3" d="M1861.01,569.64c0,1.75-0.63,3.15-1.9,4.19c-1.27,1.05-2.89,1.57-4.86,1.57c-1.34,0-2.72-0.24-4.16-0.72
			c-1.44-0.48-2.71-1.16-3.81-2.04l1.86-3c2.14,1.61,4.21,2.42,6.21,2.42c0.87,0,1.56-0.2,2.07-0.6c0.51-0.4,0.76-0.91,0.76-1.54
			c0-0.92-1.22-1.75-3.66-2.48c-0.19-0.07-0.32-0.11-0.41-0.14c-3.82-1.04-5.73-2.76-5.73-5.18c0-1.7,0.66-3.07,1.98-4.09
			c1.32-1.02,3.04-1.54,5.16-1.54c2.12,0,4.12,0.62,6.01,1.86l-1.45,2.86c-1.5-0.99-3.12-1.48-4.87-1.48c-0.92,0-1.67,0.17-2.24,0.5
			c-0.58,0.33-0.86,0.83-0.86,1.5c0,0.6,0.3,1.04,0.9,1.31c0.41,0.21,0.99,0.4,1.74,0.59c0.75,0.18,1.41,0.37,1.98,0.55
			c0.58,0.18,1.13,0.39,1.67,0.62c0.54,0.23,1.12,0.55,1.74,0.97C1860.39,566.6,1861.01,567.89,1861.01,569.64z"/>
	</g>
</g>
<g>
	<path class="st1" d="M1729.74,449.6c-0.02,0-0.03,0-0.05,0c-0.33-0.02-0.64-0.2-0.81-0.48l-125.84-208.05l-125.51,28.45
		c-0.07,0.02-0.15,0.02-0.22,0.02h-255.56l-131.06,62.17c-0.29,0.14-0.63,0.13-0.91-0.03l-112.75-62.26
		c-0.48-0.27-0.66-0.88-0.39-1.36c0.27-0.48,0.87-0.66,1.36-0.39l112.3,62.02l130.8-62.05c0.13-0.06,0.28-0.1,0.43-0.1h255.68
		l126.1-28.58c0.42-0.1,0.85,0.09,1.08,0.46l125.44,207.39l132.06-178.86c0.33-0.44,0.95-0.54,1.4-0.21
		c0.44,0.33,0.54,0.95,0.21,1.4l-132.94,180.06C1730.36,449.45,1730.06,449.6,1729.74,449.6z"/>
</g>
<g>
	<circle class="st3" cx="977.52" cy="268.91" r="9.41"/>
</g>
<g>
	<circle class="st3" cx="1513.4" cy="145.07" r="9.41"/>
</g>
<g>
	<circle class="st3" cx="1089.81" cy="330.28" r="9.41"/>
</g>
<g>
	<circle class="st3" cx="1347.68" cy="268.05" r="9.41"/>
</g>
<g>
	<circle class="st3" cx="1476.93" cy="268.05" r="9.41"/>
</g>
<g>
	<circle class="st3" cx="1603.93" cy="239.92" r="9.41"/>
</g>
<g>
	<circle class="st3" cx="1730.39" cy="448.6" r="9.41"/>
</g>
<g>
	<circle class="st3" cx="1866.08" cy="262.28" r="9.41"/>
</g>
<g>
	<circle class="st3" cx="1221.35" cy="268.05" r="9.41"/>
</g>
<g>
	<g>
		<path class="st3" d="M868.41,207.74h5.49v15.1h-2.42v-12.83h-3.07V207.74z"/>
	</g>
	<g>
		<path class="st3" d="M878.82,220.89c-1.02-1.42-1.53-3.32-1.53-5.69s0.51-4.27,1.53-5.69c1.02-1.42,2.56-2.13,4.62-2.13
			c2.06,0,3.6,0.71,4.62,2.13c1.02,1.42,1.53,3.32,1.53,5.69s-0.51,4.27-1.53,5.69c-1.02,1.42-2.56,2.13-4.62,2.13
			C881.38,223.01,879.84,222.3,878.82,220.89z M880.65,211.11c-0.6,1.04-0.9,2.4-0.9,4.08c0,1.68,0.3,3.05,0.9,4.08
			s1.53,1.56,2.8,1.56c1.27,0,2.19-0.51,2.77-1.54c0.58-1.03,0.87-2.39,0.87-4.09c0-1.7-0.29-3.06-0.87-4.09
			c-0.58-1.03-1.51-1.54-2.77-1.54C882.18,209.56,881.24,210.08,880.65,211.11z"/>
	</g>
	<g>
		<path class="st3" d="M893.68,220.89c-1.02-1.42-1.53-3.32-1.53-5.69s0.51-4.27,1.53-5.69c1.02-1.42,2.56-2.13,4.62-2.13
			c2.06,0,3.6,0.71,4.62,2.13c1.02,1.42,1.53,3.32,1.53,5.69s-0.51,4.27-1.53,5.69c-1.02,1.42-2.56,2.13-4.62,2.13
			C896.24,223.01,894.7,222.3,893.68,220.89z M895.5,211.11c-0.6,1.04-0.9,2.4-0.9,4.08c0,1.68,0.3,3.05,0.9,4.08
			s1.53,1.56,2.8,1.56c1.27,0,2.19-0.51,2.78-1.54c0.58-1.03,0.87-2.39,0.87-4.09c0-1.7-0.29-3.06-0.87-4.09
			c-0.58-1.03-1.51-1.54-2.78-1.54C897.03,209.56,896.1,210.08,895.5,211.11z"/>
	</g>
</g>
<g>
	<g>
		<path class="st3" d="M889.18,335.51v2.31h-6.37v3.71c0.63-0.35,1.35-0.52,2.16-0.52c1.41,0,2.63,0.42,3.65,1.27
			c1.02,0.85,1.53,2,1.53,3.46c0,1.45-0.53,2.66-1.6,3.62c-1.07,0.96-2.38,1.44-3.93,1.44c-2.03,0-3.65-0.68-4.86-2.03l1.36-1.86
			c0.11,0.12,0.27,0.25,0.46,0.41c0.19,0.16,0.59,0.37,1.2,0.64c0.6,0.27,1.27,0.4,1.99,0.4c0.72,0,1.37-0.22,1.96-0.65
			c0.59-0.43,0.89-1.06,0.89-1.89c0-0.83-0.31-1.47-0.94-1.92c-0.63-0.45-1.42-0.68-2.37-0.68c-0.96,0-1.87,0.24-2.73,0.71
			l-1.08-1.17v-7.26H889.18z"/>
	</g>
	<g>
		<path class="st3" d="M894,348.67c-1.02-1.42-1.53-3.32-1.53-5.69s0.51-4.27,1.53-5.69c1.02-1.42,2.56-2.13,4.62-2.13
			c2.06,0,3.6,0.71,4.62,2.13c1.02,1.42,1.53,3.32,1.53,5.69s-0.51,4.27-1.53,5.69c-1.02,1.42-2.56,2.13-4.62,2.13
			C896.56,350.8,895.02,350.09,894,348.67z M895.82,338.9c-0.6,1.04-0.9,2.4-0.9,4.08s0.3,3.05,0.9,4.08
			c0.6,1.04,1.53,1.56,2.8,1.56c1.27,0,2.19-0.51,2.77-1.54c0.58-1.03,0.87-2.39,0.87-4.09c0-1.7-0.29-3.06-0.87-4.09
			c-0.58-1.03-1.51-1.54-2.77-1.54C897.35,337.34,896.42,337.86,895.82,338.9z"/>
	</g>
</g>
<g>
	<g>
		<path class="st3" d="M898.9,523.18c-1.02-1.42-1.53-3.32-1.53-5.69s0.51-4.27,1.53-5.69c1.02-1.42,2.56-2.13,4.62-2.13
			c2.06,0,3.6,0.71,4.62,2.13c1.02,1.42,1.53,3.32,1.53,5.69s-0.51,4.27-1.53,5.69c-1.02,1.42-2.56,2.13-4.62,2.13
			C901.46,525.31,899.92,524.6,898.9,523.18z M900.72,513.41c-0.6,1.04-0.9,2.4-0.9,4.08c0,1.68,0.3,3.05,0.9,4.08
			c0.6,1.04,1.53,1.56,2.8,1.56c1.27,0,2.19-0.51,2.77-1.54c0.58-1.03,0.87-2.39,0.87-4.09c0-1.7-0.29-3.06-0.87-4.09
			c-0.58-1.03-1.51-1.54-2.77-1.54C902.25,511.85,901.32,512.37,900.72,513.41z"/>
	</g>
</g>
<g>
	<g>
		<path class="st3" d="M978.72,547.32h8.76v24.12h-3.87v-20.5h-4.9V547.32z"/>
	</g>
	<g>
		<path class="st3" d="M1010.53,543.21h3.45l-14.94,32.02h-3.45L1010.53,543.21z"/>
	</g>
	<g>
		<path class="st3" d="M1015.88,547.07h8.76v24.12h-3.87v-20.5h-4.9V547.07z"/>
	</g>
	<g>
		<path class="st3" d="M1032.51,568.07c-1.63-2.27-2.45-5.3-2.45-9.09c0-3.8,0.82-6.83,2.45-9.09c1.63-2.27,4.09-3.4,7.38-3.4
			c3.29,0,5.75,1.13,7.38,3.4c1.63,2.27,2.45,5.3,2.45,9.09c0,3.8-0.82,6.83-2.45,9.09c-1.63,2.27-4.09,3.4-7.38,3.4
			C1036.61,571.47,1034.14,570.34,1032.51,568.07z M1035.43,552.46c-0.96,1.66-1.43,3.83-1.43,6.52c0,2.69,0.48,4.87,1.43,6.52
			c0.96,1.66,2.44,2.48,4.47,2.48c2.02,0,3.5-0.82,4.43-2.47c0.93-1.64,1.4-3.82,1.4-6.54c0-2.71-0.46-4.89-1.4-6.54
			c-0.93-1.64-2.41-2.47-4.43-2.47C1037.87,549.97,1036.38,550.8,1035.43,552.46z"/>
	</g>
</g>
<g>
	<g>
		<path class="st3" d="M1554.73,547.23h8.76v24.12h-3.87v-20.5h-4.9V547.23z"/>
	</g>
	<g>
		<path class="st3" d="M1583.65,547.19v3.69h-10.18v5.93c1.01-0.55,2.16-0.83,3.45-0.83c2.25,0,4.2,0.68,5.83,2.04
			c1.63,1.36,2.45,3.2,2.45,5.52c0,2.32-0.85,4.25-2.55,5.78c-1.7,1.53-3.8,2.29-6.28,2.29c-3.24,0-5.83-1.08-7.76-3.24l2.17-2.97
			c0.18,0.18,0.43,0.4,0.74,0.66c0.31,0.25,0.95,0.59,1.92,1.02c0.97,0.43,2.02,0.64,3.17,0.64s2.2-0.35,3.14-1.04
			c0.94-0.69,1.42-1.7,1.42-3.02c0-1.32-0.5-2.35-1.5-3.07c-1-0.72-2.26-1.09-3.79-1.09c-1.53,0-2.99,0.38-4.37,1.14l-1.73-1.86
			v-11.59H1583.65z"/>
	</g>
	<g>
		<path class="st3" d="M1602.28,543.36h3.45l-14.94,32.02h-3.45L1602.28,543.36z"/>
	</g>
	<g>
		<path class="st3" d="M1607.63,547.23h8.76v24.12h-3.87v-20.5h-4.9V547.23z"/>
	</g>
	<g>
		<path class="st3" d="M1624.26,568.23c-1.63-2.27-2.45-5.3-2.45-9.09c0-3.8,0.82-6.83,2.45-9.09c1.63-2.27,4.09-3.4,7.38-3.4
			c3.29,0,5.75,1.13,7.38,3.4c1.63,2.27,2.45,5.3,2.45,9.09c0,3.8-0.82,6.83-2.45,9.09c-1.63,2.27-4.09,3.4-7.38,3.4
			C1628.36,571.62,1625.89,570.49,1624.26,568.23z M1627.18,552.61c-0.96,1.66-1.43,3.83-1.43,6.52c0,2.69,0.48,4.87,1.43,6.52
			c0.96,1.66,2.44,2.48,4.47,2.48c2.02,0,3.5-0.82,4.43-2.47c0.93-1.64,1.4-3.82,1.4-6.54c0-2.71-0.46-4.89-1.4-6.54
			c-0.93-1.64-2.41-2.47-4.43-2.47C1629.62,550.13,1628.13,550.96,1627.18,552.61z"/>
	</g>
</g>
<g>
	<path class="st1" d="M981.82,130.17h-8.31v-3h20.22v3h-8.35v24.32h-3.57V130.17z"/>
	<path class="st1" d="M1000.13,129.36c0.04,1.22-0.85,2.19-2.27,2.19c-1.26,0-2.15-0.97-2.15-2.19c0-1.26,0.93-2.23,2.23-2.23
		C999.28,127.13,1000.13,128.1,1000.13,129.36z M996.16,154.48v-19.62h3.57v19.62H996.16z"/>
	<path class="st1" d="M1007.63,145.33c0.08,4.82,3.16,6.81,6.73,6.81c2.55,0,4.09-0.45,5.43-1.01l0.61,2.55
		c-1.26,0.57-3.4,1.22-6.53,1.22c-6.04,0-9.65-3.97-9.65-9.89s3.49-10.58,9.2-10.58c6.4,0,8.11,5.63,8.11,9.24
		c0,0.73-0.08,1.3-0.12,1.66H1007.63z M1018.09,142.77c0.04-2.27-0.93-5.8-4.94-5.8c-3.61,0-5.19,3.32-5.47,5.8H1018.09z"/>
	<path class="st1" d="M1025.94,140.18c0-2.03-0.04-3.69-0.16-5.31h3.12l0.16,3.16h0.12c1.09-1.86,2.92-3.61,6.16-3.61
		c2.68,0,4.7,1.62,5.55,3.93h0.08c0.61-1.09,1.38-1.95,2.19-2.55c1.18-0.89,2.47-1.38,4.34-1.38c2.59,0,6.44,1.7,6.44,8.51v11.55
		h-3.49v-11.1c0-3.77-1.38-6.04-4.26-6.04c-2.03,0-3.61,1.5-4.21,3.24c-0.16,0.49-0.28,1.13-0.28,1.78v12.12h-3.49v-11.75
		c0-3.12-1.38-5.39-4.09-5.39c-2.23,0-3.85,1.78-4.42,3.57c-0.2,0.53-0.28,1.13-0.28,1.74v11.83h-3.49V140.18z"/>
	<path class="st1" d="M1059.74,141.27c0-2.51-0.08-4.54-0.16-6.4h3.2l0.16,3.36h0.08c1.46-2.39,3.77-3.81,6.97-3.81
		c4.74,0,8.31,4.01,8.31,9.97c0,7.05-4.29,10.54-8.92,10.54c-2.59,0-4.86-1.13-6.04-3.08h-0.08v10.66h-3.53V141.27z M1063.27,146.5
		c0,0.53,0.08,1.01,0.16,1.46c0.65,2.47,2.8,4.17,5.35,4.17c3.77,0,5.96-3.08,5.96-7.58c0-3.93-2.07-7.29-5.84-7.29
		c-2.43,0-4.7,1.74-5.39,4.42c-0.12,0.45-0.24,0.97-0.24,1.46V146.5z"/>
	<path class="st1" d="M1100.55,144.52c0,7.25-5.03,10.42-9.77,10.42c-5.31,0-9.4-3.89-9.4-10.09c0-6.57,4.3-10.42,9.73-10.42
		C1096.74,134.42,1100.55,138.52,1100.55,144.52z M1084.99,144.72c0,4.3,2.47,7.54,5.96,7.54c3.4,0,5.96-3.2,5.96-7.62
		c0-3.32-1.66-7.54-5.88-7.54S1084.99,140.99,1084.99,144.72z"/>
	<path class="st1" d="M1113.63,141.27c0-2.51-0.08-4.54-0.16-6.4h3.2l0.16,3.36h0.08c1.46-2.39,3.77-3.81,6.97-3.81
		c4.74,0,8.31,4.01,8.31,9.97c0,7.05-4.3,10.54-8.92,10.54c-2.59,0-4.86-1.13-6.04-3.08h-0.08v10.66h-3.53V141.27z M1117.16,146.5
		c0,0.53,0.08,1.01,0.16,1.46c0.65,2.47,2.8,4.17,5.35,4.17c3.77,0,5.96-3.08,5.96-7.58c0-3.93-2.07-7.29-5.84-7.29
		c-2.43,0-4.7,1.74-5.39,4.42c-0.12,0.45-0.24,0.97-0.24,1.46V146.5z"/>
	<path class="st1" d="M1136.69,140.99c0-2.31-0.04-4.3-0.16-6.12h3.12l0.12,3.85h0.16c0.89-2.63,3.04-4.3,5.43-4.3
		c0.4,0,0.69,0.04,1.01,0.12v3.36c-0.36-0.08-0.73-0.12-1.22-0.12c-2.51,0-4.3,1.9-4.78,4.58c-0.08,0.49-0.16,1.05-0.16,1.66v10.46
		h-3.53V140.99z"/>
	<path class="st1" d="M1167.29,144.52c0,7.25-5.03,10.42-9.77,10.42c-5.31,0-9.4-3.89-9.4-10.09c0-6.57,4.3-10.42,9.73-10.42
		C1163.48,134.42,1167.29,138.52,1167.29,144.52z M1151.73,144.72c0,4.3,2.47,7.54,5.96,7.54c3.4,0,5.96-3.2,5.96-7.62
		c0-3.32-1.66-7.54-5.88-7.54S1151.73,140.99,1151.73,144.72z"/>
	<path class="st1" d="M1171.78,140.18c0-2.03-0.04-3.69-0.16-5.31h3.12l0.16,3.16h0.12c1.09-1.86,2.92-3.61,6.16-3.61
		c2.67,0,4.7,1.62,5.55,3.93h0.08c0.61-1.09,1.38-1.95,2.19-2.55c1.17-0.89,2.47-1.38,4.34-1.38c2.59,0,6.44,1.7,6.44,8.51v11.55
		h-3.49v-11.1c0-3.77-1.38-6.04-4.25-6.04c-2.03,0-3.61,1.5-4.21,3.24c-0.16,0.49-0.28,1.13-0.28,1.78v12.12h-3.49v-11.75
		c0-3.12-1.38-5.39-4.09-5.39c-2.23,0-3.85,1.78-4.42,3.57c-0.2,0.53-0.28,1.13-0.28,1.74v11.83h-3.48V140.18z"/>
	<path class="st1" d="M1207.57,145.33c0.08,4.82,3.16,6.81,6.73,6.81c2.55,0,4.09-0.45,5.43-1.01l0.61,2.55
		c-1.26,0.57-3.4,1.22-6.52,1.22c-6.04,0-9.65-3.97-9.65-9.89s3.49-10.58,9.2-10.58c6.4,0,8.11,5.63,8.11,9.24
		c0,0.73-0.08,1.3-0.12,1.66H1207.57z M1218.02,142.77c0.04-2.27-0.93-5.8-4.94-5.8c-3.61,0-5.19,3.32-5.47,5.8H1218.02z"/>
	<path class="st1" d="M1242.82,125.71v23.71c0,1.74,0.04,3.73,0.16,5.07h-3.2l-0.16-3.4h-0.08c-1.09,2.19-3.49,3.85-6.69,3.85
		c-4.74,0-8.39-4.01-8.39-9.97c-0.04-6.52,4.01-10.54,8.79-10.54c3,0,5.03,1.42,5.92,3h0.08v-11.71H1242.82z M1239.26,142.85
		c0-0.45-0.04-1.05-0.16-1.5c-0.53-2.27-2.47-4.13-5.15-4.13c-3.69,0-5.88,3.24-5.88,7.58c0,3.97,1.95,7.25,5.8,7.25
		c2.39,0,4.58-1.58,5.23-4.26c0.12-0.49,0.16-0.97,0.16-1.54V142.85z"/>
	<path class="st1" d="M1252.71,129.36c0.04,1.22-0.85,2.19-2.27,2.19c-1.26,0-2.15-0.97-2.15-2.19c0-1.26,0.93-2.23,2.23-2.23
		C1251.86,127.13,1252.71,128.1,1252.71,129.36z M1248.74,154.48v-19.62h3.57v19.62H1248.74z"/>
	<path class="st1" d="M1275.97,144.52c0,7.25-5.03,10.42-9.77,10.42c-5.31,0-9.4-3.89-9.4-10.09c0-6.57,4.3-10.42,9.73-10.42
		C1272.16,134.42,1275.97,138.52,1275.97,144.52z M1260.41,144.72c0,4.3,2.47,7.54,5.96,7.54c3.4,0,5.96-3.2,5.96-7.62
		c0-3.32-1.66-7.54-5.88-7.54S1260.41,140.99,1260.41,144.72z"/>
	<path class="st1" d="M1306,125.71v23.71c0,1.74,0.04,3.73,0.16,5.07h-3.2l-0.16-3.4h-0.08c-1.09,2.19-3.49,3.85-6.69,3.85
		c-4.74,0-8.39-4.01-8.39-9.97c-0.04-6.52,4.01-10.54,8.79-10.54c3,0,5.03,1.42,5.92,3h0.08v-11.71H1306z M1302.43,142.85
		c0-0.45-0.04-1.05-0.16-1.5c-0.53-2.27-2.47-4.13-5.15-4.13c-3.69,0-5.88,3.24-5.88,7.58c0,3.97,1.95,7.25,5.8,7.25
		c2.39,0,4.58-1.58,5.23-4.26c0.12-0.49,0.16-0.97,0.16-1.54V142.85z"/>
	<path class="st1" d="M1313.9,145.33c0.08,4.82,3.16,6.81,6.73,6.81c2.55,0,4.09-0.45,5.43-1.01l0.61,2.55
		c-1.26,0.57-3.4,1.22-6.52,1.22c-6.04,0-9.65-3.97-9.65-9.89s3.49-10.58,9.2-10.58c6.4,0,8.11,5.63,8.11,9.24
		c0,0.73-0.08,1.3-0.12,1.66H1313.9z M1324.35,142.77c0.04-2.27-0.93-5.8-4.94-5.8c-3.61,0-5.19,3.32-5.47,5.8H1324.35z"/>
	<path class="st1" d="M1351.66,154.48l-0.28-2.47h-0.12c-1.09,1.54-3.2,2.92-6,2.92c-3.97,0-6-2.8-6-5.63
		c0-4.74,4.21-7.34,11.79-7.29v-0.41c0-1.62-0.45-4.54-4.46-4.54c-1.82,0-3.73,0.57-5.11,1.46l-0.81-2.35
		c1.62-1.05,3.97-1.74,6.44-1.74c6,0,7.46,4.09,7.46,8.02v7.34c0,1.7,0.08,3.36,0.32,4.7H1351.66z M1351.14,144.47
		c-3.89-0.08-8.31,0.61-8.31,4.42c0,2.31,1.54,3.4,3.36,3.4c2.55,0,4.17-1.62,4.74-3.28c0.12-0.36,0.2-0.77,0.2-1.13V144.47z"/>
	<path class="st1" d="M1364.47,129.24v5.63h5.11v2.72h-5.11v10.58c0,2.43,0.69,3.81,2.67,3.81c0.93,0,1.62-0.12,2.07-0.24l0.16,2.67
		c-0.69,0.28-1.78,0.49-3.16,0.49c-1.66,0-3-0.53-3.85-1.5c-1.01-1.05-1.38-2.8-1.38-5.11v-10.7h-3.04v-2.72h3.04v-4.7
		L1364.47,129.24z"/>
	<path class="st1" d="M1375.33,145.33c0.08,4.82,3.16,6.81,6.73,6.81c2.55,0,4.09-0.45,5.43-1.01l0.61,2.55
		c-1.26,0.57-3.4,1.22-6.52,1.22c-6.04,0-9.65-3.97-9.65-9.89s3.49-10.58,9.2-10.58c6.4,0,8.11,5.63,8.11,9.24
		c0,0.73-0.08,1.3-0.12,1.66H1375.33z M1385.78,142.77c0.04-2.27-0.93-5.8-4.94-5.8c-3.61,0-5.19,3.32-5.47,5.8H1385.78z"/>
	<path class="st1" d="M1393.64,140.18c0-2.03-0.04-3.69-0.16-5.31h3.16l0.2,3.24h0.08c0.97-1.86,3.24-3.69,6.48-3.69
		c2.71,0,6.93,1.62,6.93,8.35v11.71h-3.57v-11.31c0-3.16-1.17-5.8-4.54-5.8c-2.35,0-4.17,1.66-4.78,3.65
		c-0.16,0.45-0.24,1.05-0.24,1.66v11.79h-3.57V140.18z"/>
	<path class="st1" d="M1430.11,153.76c-0.93,0.49-3,1.13-5.63,1.13c-5.92,0-9.77-4.01-9.77-10.01c0-6.04,4.13-10.42,10.54-10.42
		c2.11,0,3.97,0.53,4.94,1.01l-0.81,2.76c-0.85-0.49-2.19-0.93-4.13-0.93c-4.5,0-6.93,3.32-6.93,7.42c0,4.54,2.92,7.34,6.81,7.34
		c2.03,0,3.36-0.53,4.38-0.97L1430.11,153.76z"/>
	<path class="st1" d="M1438.26,129.36c0.04,1.22-0.85,2.19-2.27,2.19c-1.26,0-2.15-0.97-2.15-2.19c0-1.26,0.93-2.23,2.23-2.23
		C1437.41,127.13,1438.26,128.1,1438.26,129.36z M1434.29,154.48v-19.62h3.57v19.62H1434.29z"/>
	<path class="st1" d="M1461.52,144.52c0,7.25-5.03,10.42-9.77,10.42c-5.31,0-9.4-3.89-9.4-10.09c0-6.57,4.3-10.42,9.73-10.42
		C1457.71,134.42,1461.52,138.52,1461.52,144.52z M1445.96,144.72c0,4.3,2.47,7.54,5.96,7.54c3.4,0,5.96-3.2,5.96-7.62
		c0-3.32-1.66-7.54-5.88-7.54S1445.96,140.99,1445.96,144.72z M1457.26,126.4l-4.94,5.8h-2.55l3.57-5.8H1457.26z"/>
	<path class="st1" d="M1466.01,140.18c0-2.03-0.04-3.69-0.16-5.31h3.16l0.2,3.24h0.08c0.97-1.86,3.24-3.69,6.48-3.69
		c2.71,0,6.93,1.62,6.93,8.35v11.71h-3.57v-11.31c0-3.16-1.17-5.8-4.54-5.8c-2.35,0-4.17,1.66-4.78,3.65
		c-0.16,0.45-0.24,1.05-0.24,1.66v11.79h-3.57V140.18z"/>
</g>
<g class="st0">
	<path class="st1" d="M701.9,630.86H63.28c-19.18,0-34.73-15.55-34.73-34.73V191.52c0-19.18,15.55-34.73,34.73-34.73H701.9
		c19.18,0,34.73,15.55,34.73,34.73v404.61C736.64,615.31,721.08,630.86,701.9,630.86z"/>
</g>
<g>
	<path class="st2" d="M703.58,624.94H71.13c-19.18,0-34.73-15.55-34.73-34.73V191.52c0-19.18,15.55-34.73,34.73-34.73h632.45
		c19.18,0,34.73,15.55,34.73,34.73v398.69C738.31,609.39,722.76,624.94,703.58,624.94z"/>
</g>
<g>
	<circle class="st6" cx="446.73" cy="364.95" r="7.65"/>
</g>
<g>
	<circle class="st7" cx="446.73" cy="413.46" r="7.65"/>
</g>
<g>
	<circle class="st8" cx="446.73" cy="458.87" r="7.65"/>
</g>
<g>
	<circle class="st9" cx="446.73" cy="507.55" r="7.65"/>
</g>
<g>
	<path class="st1" d="M478.74,371.42c1.27,0,2.37-0.21,3.29-0.64c0.92-0.43,1.88-1.11,2.88-2.05l2.38,2.44
		c-2.32,2.57-5.13,3.85-8.45,3.85c-3.31,0-6.06-1.07-8.24-3.2c-2.18-2.13-3.27-4.83-3.27-8.09s1.11-5.97,3.34-8.15
		c2.23-2.17,5.03-3.26,8.43-3.26c3.4,0,6.23,1.25,8.51,3.76l-2.35,2.57c-1.04-1-2.03-1.7-2.96-2.1c-0.93-0.4-2.02-0.6-3.27-0.6
		c-2.21,0-4.07,0.72-5.58,2.15c-1.5,1.43-2.26,3.26-2.26,5.48s0.75,4.08,2.24,5.58C474.92,370.68,476.69,371.42,478.74,371.42z"/>
	<path class="st1" d="M504.78,372.54c-1.67,1.66-3.76,2.49-6.27,2.49c-2.51,0-4.6-0.83-6.27-2.49c-1.67-1.66-2.51-3.69-2.51-6.1
		c0-2.4,0.84-4.43,2.51-6.1c1.67-1.66,3.76-2.49,6.27-2.49c2.51,0,4.6,0.83,6.27,2.49c1.67,1.66,2.51,3.69,2.51,6.1
		C507.29,368.84,506.46,370.88,504.78,372.54z M494.74,370.37c0.99,1.01,2.25,1.52,3.78,1.52c1.52,0,2.78-0.51,3.78-1.52
		c0.99-1.01,1.49-2.32,1.49-3.93c0-1.61-0.5-2.92-1.49-3.93c-0.99-1.01-2.25-1.52-3.78-1.52c-1.53,0-2.78,0.51-3.78,1.52
		c-0.99,1.01-1.49,2.32-1.49,3.93C493.25,368.05,493.75,369.36,494.74,370.37z"/>
	<path class="st1" d="M514.78,365.75v9.03h-3.51V358.1h3.51v3.04c0.56-1.02,1.34-1.83,2.33-2.41c0.99-0.58,2.06-0.88,3.21-0.88
		c1.88,0,3.4,0.57,4.56,1.72c1.16,1.15,1.74,2.81,1.74,4.98v10.22h-3.51v-9.15c0-3.07-1.27-4.61-3.82-4.61
		c-1.21,0-2.27,0.4-3.17,1.21C515.23,363.03,514.78,364.21,514.78,365.75z"/>
	<path class="st1" d="M543.39,369.79c0,1.59-0.57,2.86-1.72,3.81c-1.15,0.95-2.62,1.43-4.42,1.43c-1.21,0-2.47-0.22-3.78-0.66
		s-2.46-1.05-3.46-1.85l1.69-2.73c1.94,1.46,3.82,2.19,5.64,2.19c0.79,0,1.42-0.18,1.88-0.55c0.46-0.37,0.69-0.83,0.69-1.39
		c0-0.84-1.11-1.59-3.32-2.26c-0.17-0.06-0.29-0.1-0.38-0.13c-3.47-0.94-5.2-2.51-5.2-4.7c0-1.55,0.6-2.78,1.8-3.71
		c1.2-0.93,2.76-1.39,4.69-1.39c1.92,0,3.74,0.56,5.45,1.69l-1.32,2.6c-1.36-0.9-2.83-1.35-4.42-1.35c-0.84,0-1.52,0.15-2.04,0.45
		c-0.52,0.3-0.78,0.76-0.78,1.36c0,0.54,0.27,0.94,0.81,1.19c0.38,0.19,0.9,0.37,1.58,0.53c0.68,0.17,1.28,0.33,1.8,0.5
		c0.52,0.17,1.03,0.36,1.52,0.56c0.49,0.21,1.02,0.5,1.58,0.88C542.83,367.04,543.39,368.21,543.39,369.79z"/>
	<path class="st1" d="M559.03,367.13v-9.03h3.51v16.67h-3.51v-3.04c-0.56,1.02-1.34,1.83-2.33,2.41c-0.99,0.59-2.06,0.88-3.21,0.88
		c-1.88,0-3.4-0.57-4.56-1.72c-1.16-1.15-1.74-2.81-1.74-4.98V358.1h3.51v9.15c0,3.07,1.27,4.61,3.82,4.61
		c1.21,0,2.27-0.4,3.17-1.21C558.58,369.85,559.03,368.68,559.03,367.13z"/>
	<path class="st1" d="M571.13,374.78h-3.51v-23.25h3.51V374.78z"/>
	<path class="st1" d="M580.53,360.93v8.46c0,0.79,0.21,1.43,0.63,1.9c0.42,0.47,1,0.71,1.75,0.71s1.47-0.37,2.16-1.1l1.44,2.48
		c-1.23,1.11-2.6,1.66-4.09,1.66c-1.49,0-2.77-0.52-3.82-1.55c-1.06-1.03-1.58-2.43-1.58-4.18v-8.37h-2.1v-2.82h2.1v-5.23h3.51v5.23
		h4.39v2.82H580.53z"/>
	<path class="st1" d="M602.81,374.78h-3.2v-2.23c-1.38,1.65-3.23,2.48-5.55,2.48c-1.73,0-3.17-0.49-4.31-1.47
		c-1.14-0.98-1.71-2.29-1.71-3.93c0-1.64,0.61-2.87,1.82-3.68c1.21-0.81,2.85-1.22,4.92-1.22h4.54v-0.63c0-2.21-1.23-3.32-3.7-3.32
		c-1.55,0-3.16,0.56-4.83,1.69l-1.57-2.19c2.03-1.61,4.33-2.41,6.9-2.41c1.96,0,3.57,0.5,4.81,1.49c1.24,0.99,1.86,2.55,1.86,4.69
		V374.78z M599.3,368.57v-1.41h-3.95c-2.53,0-3.79,0.79-3.79,2.38c0,0.81,0.31,1.44,0.94,1.86c0.63,0.43,1.5,0.64,2.62,0.64
		c1.12,0,2.09-0.31,2.93-0.94C598.88,370.48,599.3,369.64,599.3,368.57z"/>
	<path class="st1" d="M619.58,369.79c0,1.59-0.57,2.86-1.72,3.81c-1.15,0.95-2.62,1.43-4.42,1.43c-1.21,0-2.47-0.22-3.78-0.66
		s-2.46-1.05-3.46-1.85l1.69-2.73c1.94,1.46,3.82,2.19,5.64,2.19c0.79,0,1.42-0.18,1.88-0.55c0.46-0.37,0.69-0.83,0.69-1.39
		c0-0.84-1.11-1.59-3.32-2.26c-0.17-0.06-0.29-0.1-0.38-0.13c-3.47-0.94-5.2-2.51-5.2-4.7c0-1.55,0.6-2.78,1.8-3.71
		c1.2-0.93,2.76-1.39,4.69-1.39c1.92,0,3.74,0.56,5.45,1.69l-1.32,2.6c-1.36-0.9-2.83-1.35-4.42-1.35c-0.84,0-1.52,0.15-2.04,0.45
		c-0.52,0.3-0.78,0.76-0.78,1.36c0,0.54,0.27,0.94,0.81,1.19c0.38,0.19,0.9,0.37,1.58,0.53c0.68,0.17,1.28,0.33,1.8,0.5
		c0.52,0.17,1.03,0.36,1.52,0.56c0.49,0.21,1.02,0.5,1.58,0.88C619.02,367.04,619.58,368.21,619.58,369.79z"/>
</g>
<g>
	<path class="st1" d="M290.97,236.51l-2.7-6.43H273.4l-2.7,6.43h-6.04l13.35-30.43h6.04l13.17,30.43H290.97z M275.49,225.08h10.69
		l-5.3-12.78L275.49,225.08z"/>
	<path class="st1" d="M313.22,235.08c-1.85,1.13-3.8,1.7-5.83,1.7c-2,0-3.64-0.59-4.91-1.76c-1.28-1.17-1.91-2.91-1.91-5.19v-11.48
		h-3.26l-0.04-4.13h3.3v-6.39h5.61v6.39h6.65v4.13h-6.65v10.48c0,1.07,0.2,1.83,0.61,2.28c0.41,0.45,1.01,0.67,1.83,0.67
		c0.87,0,1.97-0.32,3.3-0.96L313.22,235.08z"/>
	<path class="st1" d="M335.5,216.26c1.87,2.12,2.8,5.09,2.8,8.91c0,0.75-0.02,1.32-0.04,1.7h-17.17c0.38,1.65,1.15,2.95,2.33,3.89
		c1.17,0.94,2.62,1.41,4.33,1.41c1.19,0,2.33-0.22,3.41-0.67c1.09-0.45,2.04-1.09,2.85-1.93l3.04,3.17
		c-1.16,1.28-2.57,2.26-4.24,2.96c-1.67,0.7-3.51,1.04-5.54,1.04c-2.38,0-4.47-0.49-6.28-1.48c-1.81-0.98-3.21-2.37-4.19-4.15
		c-0.99-1.78-1.48-3.83-1.48-6.15c0-2.32,0.5-4.38,1.5-6.17c1-1.8,2.4-3.2,4.19-4.2c1.8-1,3.84-1.5,6.13-1.5
		C330.84,213.08,333.63,214.14,335.5,216.26z M333.13,223.08c-0.06-1.71-0.62-3.07-1.7-4.09c-1.07-1.01-2.49-1.52-4.26-1.52
		c-1.65,0-3.04,0.5-4.15,1.5c-1.12,1-1.8,2.37-2.06,4.11H333.13z"/>
	<path class="st1" d="M363.48,215.45c1.54,1.61,2.3,3.79,2.3,6.54v14.52h-5.69v-12.87c0-1.62-0.46-2.91-1.39-3.85
		c-0.93-0.94-2.19-1.41-3.78-1.41c-1.88,0.03-3.37,0.67-4.46,1.91c-1.09,1.25-1.63,2.84-1.63,4.78v11.43h-5.65v-23.26h5.65v4.35
		c1.59-2.98,4.38-4.51,8.35-4.56C359.84,213.04,361.94,213.84,363.48,215.45z"/>
	<path class="st1" d="M382.04,218.04c-1.88,0-3.41,0.64-4.59,1.91c-1.17,1.28-1.76,2.93-1.76,4.96c0,2.09,0.59,3.77,1.76,5.04
		c1.17,1.28,2.7,1.91,4.59,1.91c2.78,0,4.87-0.91,6.26-2.74l3.52,2.91c-1.04,1.51-2.42,2.67-4.13,3.48
		c-1.71,0.81-3.69,1.22-5.96,1.22c-2.29,0-4.33-0.49-6.11-1.48c-1.78-0.98-3.17-2.37-4.15-4.15c-0.99-1.78-1.48-3.83-1.48-6.15
		c0-2.35,0.5-4.42,1.5-6.22c1-1.8,2.39-3.19,4.17-4.17c1.78-0.98,3.83-1.48,6.15-1.48c2.12,0,4.01,0.37,5.67,1.11
		c1.67,0.74,3.02,1.79,4.06,3.15l-3.43,3.26C386.56,218.89,384.53,218.04,382.04,218.04z"/>
	<path class="st1" d="M401.73,204.21c0.61,0.64,0.91,1.45,0.91,2.43c0,0.96-0.3,1.75-0.91,2.39c-0.61,0.64-1.38,0.96-2.3,0.96
		c-0.93,0-1.7-0.32-2.3-0.96c-0.61-0.64-0.91-1.43-0.91-2.39c0-0.98,0.3-1.8,0.91-2.43c0.61-0.64,1.38-0.96,2.3-0.96
		C400.36,203.26,401.12,203.58,401.73,204.21z M396.65,213.26h5.65v23.26h-5.65V213.26z"/>
	<path class="st1" d="M425.84,214.56c1.84,0.99,3.27,2.37,4.3,4.15s1.54,3.83,1.54,6.15c0,2.35-0.51,4.42-1.54,6.22
		c-1.03,1.8-2.46,3.19-4.3,4.17c-1.84,0.99-3.96,1.48-6.37,1.48c-2.43,0-4.58-0.49-6.43-1.48c-1.85-0.98-3.3-2.38-4.33-4.17
		c-1.03-1.8-1.54-3.87-1.54-6.22c0-2.32,0.51-4.37,1.54-6.15c1.03-1.78,2.47-3.17,4.33-4.15c1.85-0.98,4-1.48,6.43-1.48
		C421.87,213.08,424,213.58,425.84,214.56z M414.69,219.86c-1.22,1.3-1.83,3-1.83,5.09c0,2.09,0.61,3.78,1.83,5.09
		s2.81,1.96,4.78,1.96c1.91,0,3.48-0.65,4.69-1.96s1.83-3,1.83-5.09c0-2.09-0.61-3.78-1.83-5.09c-1.22-1.3-2.78-1.96-4.69-1.96
		C417.5,217.91,415.9,218.56,414.69,219.86z"/>
	<path class="st1" d="M456.9,215.45c1.54,1.61,2.3,3.79,2.3,6.54v14.52h-5.69v-12.87c0-1.62-0.46-2.91-1.39-3.85
		c-0.93-0.94-2.19-1.41-3.78-1.41c-1.88,0.03-3.37,0.67-4.46,1.91c-1.09,1.25-1.63,2.84-1.63,4.78v11.43h-5.65v-23.26h5.65v4.35
		c1.59-2.98,4.38-4.51,8.35-4.56C453.26,213.04,455.36,213.84,456.9,215.45z"/>
	<path class="st1" d="M483.61,216.26c1.87,2.12,2.8,5.09,2.8,8.91c0,0.75-0.02,1.32-0.04,1.7H469.2c0.38,1.65,1.15,2.95,2.33,3.89
		c1.17,0.94,2.62,1.41,4.33,1.41c1.19,0,2.33-0.22,3.41-0.67c1.09-0.45,2.04-1.09,2.85-1.93l3.04,3.17
		c-1.16,1.28-2.57,2.26-4.24,2.96c-1.67,0.7-3.51,1.04-5.54,1.04c-2.38,0-4.47-0.49-6.28-1.48c-1.81-0.98-3.21-2.37-4.19-4.15
		c-0.99-1.78-1.48-3.83-1.48-6.15c0-2.32,0.5-4.38,1.5-6.17c1-1.8,2.4-3.2,4.19-4.2c1.8-1,3.84-1.5,6.13-1.5
		C478.95,213.08,481.74,214.14,483.61,216.26z M481.24,223.08c-0.06-1.71-0.62-3.07-1.7-4.09c-1.07-1.01-2.49-1.52-4.26-1.52
		c-1.65,0-3.04,0.5-4.15,1.5c-1.12,1-1.8,2.37-2.06,4.11H481.24z"/>
	<path class="st1" d="M501.56,217.99c-1.2-0.38-2.31-0.57-3.33-0.57c-0.96,0-1.72,0.17-2.28,0.5c-0.56,0.33-0.85,0.85-0.85,1.54
		c0,0.72,0.35,1.28,1.06,1.67c0.71,0.39,1.83,0.8,3.37,1.24c1.62,0.49,2.96,0.98,4,1.46c1.04,0.48,1.95,1.19,2.72,2.13
		c0.77,0.94,1.15,2.18,1.15,3.72c0,2.26-0.87,4-2.61,5.22s-3.93,1.83-6.56,1.83c-1.8,0-3.55-0.28-5.26-0.85
		c-1.71-0.57-3.16-1.37-4.35-2.41l1.96-3.96c1.04,0.9,2.29,1.6,3.74,2.11c1.45,0.51,2.83,0.76,4.13,0.76c1.04,0,1.88-0.18,2.5-0.54
		c0.62-0.36,0.93-0.91,0.93-1.63c0-0.81-0.36-1.42-1.09-1.83c-0.72-0.41-1.9-0.85-3.52-1.35c-1.56-0.46-2.84-0.92-3.83-1.37
		c-0.99-0.45-1.84-1.13-2.56-2.04c-0.72-0.91-1.09-2.11-1.09-3.59c0-2.29,0.83-4.04,2.5-5.24c1.67-1.2,3.76-1.8,6.28-1.8
		c1.54,0,3.05,0.22,4.54,0.65c1.49,0.43,2.82,1.04,3.98,1.83l-2.04,4.09C503.93,218.89,502.76,218.37,501.56,217.99z"/>
</g>
<g>
	<path class="st1" d="M482.88,401.12c1.52,1.27,2.29,3.24,2.29,5.89c0,2.65-0.78,4.6-2.33,5.83c-1.56,1.23-3.94,1.85-7.16,1.85
		h-3.89v6.42h-3.7v-21.91h7.52C478.93,399.21,481.35,399.84,482.88,401.12z M480.26,410.16c0.74-0.78,1.11-1.93,1.11-3.45
		c0-1.51-0.47-2.59-1.41-3.21c-0.94-0.63-2.41-0.94-4.42-0.94h-3.76v8.78h4.29C478.13,411.34,479.52,410.94,480.26,410.16z"/>
	<path class="st1" d="M497.77,407.73c-1.73,0-3.04,0.56-3.92,1.69c-0.88,1.13-1.32,2.64-1.32,4.54v7.15h-3.51v-16.67h3.51v3.35
		c0.56-1.04,1.33-1.9,2.3-2.57c0.97-0.67,2-1.01,3.09-1.03l0.03,3.54C497.89,407.73,497.83,407.73,497.77,407.73z"/>
	<path class="st1" d="M516.98,414.31h-13.07c0.08,1.21,0.64,2.19,1.66,2.93c1.02,0.74,2.19,1.11,3.51,1.11
		c2.09,0,3.68-0.66,4.76-1.97l2.01,2.19c-1.8,1.86-4.14,2.79-7.02,2.79c-2.34,0-4.33-0.78-5.97-2.33c-1.64-1.56-2.46-3.65-2.46-6.27
		c0-2.62,0.83-4.71,2.51-6.25c1.67-1.55,3.64-2.32,5.91-2.32c2.27,0,4.19,0.68,5.78,2.05c1.59,1.37,2.38,3.25,2.38,5.66V414.31z
		 M503.91,411.55h9.56c0-1.4-0.44-2.48-1.32-3.23c-0.88-0.75-1.96-1.13-3.24-1.13c-1.28,0-2.44,0.39-3.46,1.18
		C504.42,409.16,503.91,410.22,503.91,411.55z"/>
	<path class="st1" d="M532.71,416.13c0,1.59-0.57,2.86-1.72,3.81c-1.15,0.95-2.62,1.43-4.42,1.43c-1.21,0-2.47-0.22-3.78-0.66
		s-2.46-1.05-3.46-1.85l1.69-2.73c1.94,1.46,3.82,2.19,5.64,2.19c0.79,0,1.42-0.18,1.88-0.55c0.46-0.37,0.69-0.83,0.69-1.39
		c0-0.84-1.11-1.59-3.32-2.26c-0.17-0.06-0.29-0.1-0.38-0.13c-3.47-0.94-5.2-2.51-5.2-4.7c0-1.55,0.6-2.78,1.8-3.71
		c1.2-0.93,2.76-1.39,4.69-1.39c1.92,0,3.74,0.56,5.45,1.69l-1.32,2.6c-1.36-0.9-2.83-1.35-4.42-1.35c-0.84,0-1.52,0.15-2.04,0.45
		c-0.52,0.3-0.78,0.76-0.78,1.36c0,0.54,0.27,0.94,0.81,1.19c0.38,0.19,0.9,0.37,1.58,0.53c0.68,0.17,1.28,0.33,1.8,0.5
		c0.52,0.17,1.03,0.36,1.52,0.56c0.49,0.21,1.02,0.5,1.58,0.88C532.14,413.37,532.71,414.54,532.71,416.13z"/>
	<path class="st1" d="M541.01,407.26v8.46c0,0.79,0.21,1.43,0.63,1.9c0.42,0.47,1,0.71,1.75,0.71s1.47-0.37,2.16-1.1l1.44,2.48
		c-1.23,1.11-2.6,1.66-4.09,1.66c-1.49,0-2.77-0.52-3.82-1.55c-1.06-1.03-1.58-2.43-1.58-4.18v-8.37h-2.1v-2.82h2.1v-5.23h3.51v5.23
		h4.39v2.82H541.01z"/>
	<path class="st1" d="M563.3,421.11h-3.2v-2.23c-1.38,1.65-3.23,2.48-5.55,2.48c-1.73,0-3.17-0.49-4.31-1.47
		c-1.14-0.98-1.71-2.29-1.71-3.93c0-1.64,0.61-2.87,1.82-3.68c1.21-0.81,2.85-1.22,4.92-1.22h4.54v-0.63c0-2.21-1.23-3.32-3.7-3.32
		c-1.55,0-3.16,0.56-4.83,1.69l-1.57-2.19c2.03-1.61,4.33-2.41,6.9-2.41c1.96,0,3.57,0.5,4.81,1.49c1.24,0.99,1.86,2.55,1.86,4.69
		V421.11z M559.78,414.91v-1.41h-3.95c-2.53,0-3.79,0.79-3.79,2.38c0,0.81,0.31,1.44,0.94,1.86c0.63,0.43,1.5,0.64,2.62,0.64
		c1.12,0,2.09-0.31,2.93-0.94C559.37,416.82,559.78,415.97,559.78,414.91z"/>
	<path class="st1" d="M571.69,412.09v9.03h-3.51v-16.67h3.51v3.04c0.5-1.02,1.26-1.83,2.27-2.41c1.01-0.58,2.1-0.88,3.27-0.88
		c2.63,0,4.42,1.09,5.36,3.26c1.65-2.17,3.71-3.26,6.17-3.26c1.88,0,3.4,0.57,4.56,1.72c1.16,1.15,1.74,2.81,1.74,4.98v10.22h-3.51
		v-9.15c0-3.07-1.27-4.61-3.82-4.61c-1.19,0-2.23,0.38-3.12,1.14c-0.89,0.76-1.35,1.88-1.39,3.34v9.28h-3.51v-9.15
		c0-1.59-0.28-2.75-0.85-3.49c-0.56-0.74-1.45-1.11-2.66-1.11c-1.21,0-2.27,0.4-3.17,1.21
		C572.14,409.37,571.69,410.54,571.69,412.09z"/>
	<path class="st1" d="M613.91,418.87c-1.67,1.66-3.76,2.49-6.27,2.49c-2.51,0-4.6-0.83-6.27-2.49c-1.67-1.66-2.51-3.69-2.51-6.1
		c0-2.4,0.84-4.43,2.51-6.1c1.67-1.66,3.76-2.49,6.27-2.49c2.51,0,4.6,0.83,6.27,2.49c1.67,1.66,2.51,3.69,2.51,6.1
		C616.41,415.18,615.58,417.21,613.91,418.87z M603.86,416.71c0.99,1.01,2.25,1.52,3.78,1.52c1.52,0,2.78-0.51,3.78-1.52
		c0.99-1.01,1.49-2.32,1.49-3.93c0-1.61-0.5-2.92-1.49-3.93c-0.99-1.01-2.25-1.52-3.78-1.52c-1.53,0-2.78,0.51-3.78,1.52
		c-0.99,1.01-1.49,2.32-1.49,3.93C602.37,414.39,602.87,415.7,603.86,416.71z"/>
	<path class="st1" d="M632.27,416.13c0,1.59-0.57,2.86-1.72,3.81c-1.15,0.95-2.62,1.43-4.42,1.43c-1.21,0-2.47-0.22-3.78-0.66
		s-2.46-1.05-3.46-1.85l1.69-2.73c1.94,1.46,3.82,2.19,5.64,2.19c0.79,0,1.42-0.18,1.88-0.55c0.46-0.37,0.69-0.83,0.69-1.39
		c0-0.84-1.11-1.59-3.32-2.26c-0.17-0.06-0.29-0.1-0.38-0.13c-3.47-0.94-5.2-2.51-5.2-4.7c0-1.55,0.6-2.78,1.8-3.71
		c1.2-0.93,2.76-1.39,4.69-1.39c1.92,0,3.74,0.56,5.45,1.69l-1.32,2.6c-1.36-0.9-2.83-1.35-4.42-1.35c-0.84,0-1.52,0.15-2.04,0.45
		c-0.52,0.3-0.78,0.76-0.78,1.36c0,0.54,0.27,0.94,0.81,1.19c0.38,0.19,0.9,0.37,1.58,0.53c0.68,0.17,1.28,0.33,1.8,0.5
		c0.52,0.17,1.03,0.36,1.52,0.56c0.49,0.21,1.02,0.5,1.58,0.88C631.71,413.37,632.27,414.54,632.27,416.13z"/>
</g>
<g>
	<path class="st1" d="M467.71,446.2h3.7v21.91h-3.7V446.2z"/>
	<path class="st1" d="M480.34,459.08v9.03h-3.51v-16.67h3.51v3.04c0.56-1.02,1.34-1.83,2.33-2.41c0.99-0.58,2.06-0.88,3.21-0.88
		c1.88,0,3.4,0.57,4.56,1.72c1.16,1.15,1.74,2.81,1.74,4.98v10.22h-3.51v-9.15c0-3.07-1.27-4.61-3.82-4.61
		c-1.21,0-2.27,0.4-3.17,1.21C480.79,456.35,480.34,457.53,480.34,459.08z"/>
	<path class="st1" d="M501.31,468.1l-6.71-16.67h3.64l5.08,12.6l5.08-12.6h3.64l-6.71,16.67H501.31z"/>
	<path class="st1" d="M530.33,461.3h-13.07c0.08,1.21,0.64,2.19,1.66,2.93c1.02,0.74,2.19,1.11,3.51,1.11
		c2.09,0,3.68-0.66,4.76-1.97l2.01,2.19c-1.8,1.86-4.14,2.79-7.02,2.79c-2.34,0-4.33-0.78-5.97-2.33c-1.64-1.56-2.46-3.65-2.46-6.27
		c0-2.62,0.83-4.71,2.51-6.25c1.67-1.55,3.64-2.32,5.91-2.32c2.27,0,4.19,0.68,5.78,2.05c1.59,1.37,2.38,3.25,2.38,5.66V461.3z
		 M517.26,458.54h9.56c0-1.4-0.44-2.48-1.32-3.23s-1.96-1.13-3.24-1.13c-1.28,0-2.44,0.39-3.46,1.18
		C517.77,456.15,517.26,457.21,517.26,458.54z"/>
	<path class="st1" d="M542.93,454.72c-1.73,0-3.04,0.56-3.92,1.69s-1.32,2.64-1.32,4.54v7.15h-3.51v-16.67h3.51v3.35
		c0.56-1.04,1.33-1.9,2.3-2.57c0.97-0.67,2-1.01,3.09-1.03l0.03,3.54C543.05,454.72,542.99,454.72,542.93,454.72z"/>
	<path class="st1" d="M558.5,463.12c0,1.59-0.57,2.86-1.72,3.81c-1.15,0.95-2.62,1.43-4.42,1.43c-1.21,0-2.47-0.22-3.78-0.66
		s-2.46-1.05-3.46-1.85l1.69-2.73c1.94,1.46,3.82,2.19,5.64,2.19c0.79,0,1.42-0.18,1.88-0.55c0.46-0.37,0.69-0.83,0.69-1.39
		c0-0.84-1.11-1.59-3.32-2.26c-0.17-0.06-0.29-0.1-0.38-0.13c-3.47-0.94-5.2-2.51-5.2-4.7c0-1.55,0.6-2.78,1.8-3.71
		c1.2-0.93,2.76-1.39,4.69-1.39c1.92,0,3.74,0.56,5.45,1.69l-1.32,2.6c-1.36-0.9-2.83-1.35-4.42-1.35c-0.84,0-1.52,0.15-2.04,0.45
		c-0.52,0.3-0.78,0.76-0.78,1.36c0,0.54,0.27,0.94,0.81,1.19c0.38,0.19,0.9,0.37,1.58,0.53c0.68,0.17,1.28,0.33,1.8,0.5
		c0.52,0.17,1.03,0.36,1.52,0.56c0.49,0.21,1.02,0.5,1.58,0.88C557.94,460.36,558.5,461.53,558.5,463.12z"/>
	<path class="st1" d="M562.7,448.11c-0.44-0.44-0.66-0.96-0.66-1.57c0-0.61,0.22-1.13,0.66-1.57c0.44-0.44,0.96-0.66,1.57-0.66
		s1.13,0.22,1.57,0.66c0.44,0.44,0.66,0.96,0.66,1.57c0,0.61-0.22,1.13-0.66,1.57c-0.44,0.44-0.96,0.66-1.57,0.66
		S563.14,448.55,562.7,448.11z M565.99,468.1h-3.51v-16.67h3.51V468.1z"/>
	<path class="st1" d="M585.02,465.86c-1.67,1.66-3.76,2.49-6.27,2.49c-2.51,0-4.6-0.83-6.27-2.49c-1.67-1.66-2.51-3.69-2.51-6.1
		c0-2.4,0.84-4.43,2.51-6.1c1.67-1.66,3.76-2.49,6.27-2.49c2.51,0,4.6,0.83,6.27,2.49c1.67,1.66,2.51,3.69,2.51,6.1
		C587.52,462.17,586.69,464.2,585.02,465.86z M574.97,463.7c0.99,1.01,2.25,1.52,3.78,1.52c1.52,0,2.78-0.51,3.78-1.52
		c0.99-1.01,1.49-2.32,1.49-3.93c0-1.61-0.5-2.92-1.49-3.93c-0.99-1.01-2.25-1.52-3.78-1.52c-1.53,0-2.78,0.51-3.78,1.52
		c-0.99,1.01-1.49,2.32-1.49,3.93C573.48,461.37,573.98,462.68,574.97,463.7z"/>
	<path class="st1" d="M595.01,459.08v9.03h-3.51v-16.67h3.51v3.04c0.56-1.02,1.34-1.83,2.33-2.41c0.99-0.58,2.06-0.88,3.21-0.88
		c1.88,0,3.4,0.57,4.56,1.72c1.16,1.15,1.74,2.81,1.74,4.98v10.22h-3.51v-9.15c0-3.07-1.27-4.61-3.82-4.61
		c-1.21,0-2.27,0.4-3.17,1.21C595.46,456.35,595.01,457.53,595.01,459.08z"/>
	<path class="st1" d="M627.26,461.3h-13.07c0.08,1.21,0.64,2.19,1.66,2.93c1.02,0.74,2.19,1.11,3.51,1.11
		c2.09,0,3.68-0.66,4.76-1.97l2.01,2.19c-1.8,1.86-4.14,2.79-7.02,2.79c-2.34,0-4.33-0.78-5.97-2.33c-1.64-1.56-2.46-3.65-2.46-6.27
		c0-2.62,0.83-4.71,2.51-6.25c1.67-1.55,3.64-2.32,5.91-2.32c2.27,0,4.19,0.68,5.78,2.05c1.59,1.37,2.38,3.25,2.38,5.66V461.3z
		 M614.19,458.54h9.56c0-1.4-0.44-2.48-1.32-3.23s-1.96-1.13-3.24-1.13c-1.28,0-2.44,0.39-3.46,1.18
		C614.7,456.15,614.19,457.21,614.19,458.54z"/>
	<path class="st1" d="M642.99,463.12c0,1.59-0.57,2.86-1.72,3.81c-1.15,0.95-2.62,1.43-4.42,1.43c-1.21,0-2.47-0.22-3.78-0.66
		s-2.46-1.05-3.46-1.85l1.69-2.73c1.94,1.46,3.82,2.19,5.64,2.19c0.79,0,1.42-0.18,1.88-0.55c0.46-0.37,0.69-0.83,0.69-1.39
		c0-0.84-1.11-1.59-3.32-2.26c-0.17-0.06-0.29-0.1-0.38-0.13c-3.47-0.94-5.2-2.51-5.2-4.7c0-1.55,0.6-2.78,1.8-3.71
		c1.2-0.93,2.76-1.39,4.69-1.39c1.92,0,3.74,0.56,5.45,1.69l-1.32,2.6c-1.36-0.9-2.83-1.35-4.42-1.35c-0.84,0-1.52,0.15-2.04,0.45
		c-0.52,0.3-0.78,0.76-0.78,1.36c0,0.54,0.27,0.94,0.81,1.19c0.38,0.19,0.9,0.37,1.58,0.53c0.68,0.17,1.28,0.33,1.8,0.5
		c0.52,0.17,1.03,0.36,1.52,0.56c0.49,0.21,1.02,0.5,1.58,0.88C642.43,460.36,642.99,461.53,642.99,463.12z"/>
</g>
<g>
	<path class="st1" d="M485.76,502.84c0,3.61-1.58,5.89-4.73,6.83l5.74,7.96h-4.7l-5.23-7.36h-4.86v7.36h-3.7v-21.91h8.15
		c3.34,0,5.74,0.56,7.18,1.69C485.03,498.54,485.76,500.35,485.76,502.84z M480.83,505.94c0.75-0.65,1.13-1.69,1.13-3.12
		c0-1.43-0.39-2.41-1.16-2.95c-0.77-0.53-2.15-0.8-4.14-0.8h-4.7v7.83h4.61C478.66,506.91,480.08,506.59,480.83,505.94z"/>
	<path class="st1" d="M506.09,510.83h-13.07c0.08,1.21,0.64,2.19,1.66,2.93c1.02,0.74,2.19,1.11,3.51,1.11
		c2.09,0,3.68-0.66,4.76-1.97l2.01,2.19c-1.8,1.86-4.14,2.79-7.02,2.79c-2.34,0-4.33-0.78-5.97-2.33c-1.64-1.56-2.46-3.65-2.46-6.27
		c0-2.62,0.83-4.71,2.51-6.25c1.67-1.55,3.64-2.32,5.91-2.32c2.27,0,4.19,0.68,5.78,2.05c1.59,1.37,2.38,3.25,2.38,5.66V510.83z
		 M493.03,508.07h9.56c0-1.4-0.44-2.48-1.32-3.23s-1.96-1.13-3.24-1.13c-1.28,0-2.44,0.39-3.46,1.18
		C493.54,505.67,493.03,506.73,493.03,508.07z"/>
	<path class="st1" d="M517.34,517.88c-2.32,0-4.31-0.79-5.99-2.37c-1.67-1.58-2.51-3.64-2.51-6.19c0-2.55,0.87-4.62,2.62-6.22
		c1.74-1.6,3.87-2.4,6.38-2.4c2.51,0,4.63,0.87,6.36,2.6l-2.07,2.54c-1.44-1.25-2.89-1.88-4.36-1.88s-2.73,0.49-3.81,1.46
		c-1.08,0.97-1.61,2.23-1.61,3.76s0.53,2.84,1.6,3.9c1.07,1.07,2.38,1.6,3.93,1.6c1.56,0,3.02-0.71,4.4-2.13l2.07,2.26
		C522.34,516.85,520,517.88,517.34,517.88z"/>
	<path class="st1" d="M531.51,517.63H528v-23.25h3.51V517.63z"/>
	<path class="st1" d="M550.09,517.63h-3.2v-2.23c-1.38,1.65-3.23,2.48-5.55,2.48c-1.73,0-3.17-0.49-4.31-1.47
		c-1.14-0.98-1.71-2.29-1.71-3.93c0-1.64,0.61-2.87,1.82-3.68c1.21-0.81,2.85-1.22,4.92-1.22h4.54v-0.63c0-2.21-1.23-3.32-3.7-3.32
		c-1.55,0-3.16,0.56-4.83,1.69l-1.57-2.19c2.03-1.61,4.33-2.41,6.9-2.41c1.96,0,3.57,0.5,4.81,1.49c1.24,0.99,1.86,2.55,1.86,4.69
		V517.63z M546.58,511.42v-1.41h-3.95c-2.53,0-3.79,0.79-3.79,2.38c0,0.81,0.31,1.44,0.94,1.86c0.63,0.43,1.5,0.64,2.62,0.64
		c1.12,0,2.09-0.31,2.93-0.94C546.17,513.33,546.58,512.49,546.58,511.42z"/>
	<path class="st1" d="M558.49,508.6v9.03h-3.51v-16.67h3.51v3.04c0.5-1.02,1.26-1.83,2.27-2.41c1.01-0.58,2.1-0.88,3.27-0.88
		c2.63,0,4.42,1.09,5.36,3.26c1.65-2.17,3.71-3.26,6.17-3.26c1.88,0,3.4,0.57,4.56,1.72c1.16,1.15,1.74,2.81,1.74,4.98v10.22h-3.51
		v-9.15c0-3.07-1.27-4.61-3.82-4.61c-1.19,0-2.23,0.38-3.12,1.14c-0.89,0.76-1.35,1.88-1.39,3.34v9.28h-3.51v-9.15
		c0-1.59-0.28-2.75-0.85-3.49c-0.56-0.74-1.45-1.11-2.66-1.11c-1.21,0-2.27,0.4-3.17,1.21C558.94,505.88,558.49,507.06,558.49,508.6
		z"/>
	<path class="st1" d="M600.71,515.39c-1.67,1.66-3.76,2.49-6.27,2.49c-2.51,0-4.6-0.83-6.27-2.49c-1.67-1.66-2.51-3.69-2.51-6.1
		c0-2.4,0.84-4.43,2.51-6.1c1.67-1.66,3.76-2.49,6.27-2.49c2.51,0,4.6,0.83,6.27,2.49c1.67,1.66,2.51,3.69,2.51,6.1
		C603.21,511.69,602.38,513.73,600.71,515.39z M590.66,513.22c0.99,1.01,2.25,1.52,3.78,1.52c1.52,0,2.78-0.51,3.78-1.52
		c0.99-1.01,1.49-2.32,1.49-3.93c0-1.61-0.5-2.92-1.49-3.93c-0.99-1.01-2.25-1.52-3.78-1.52c-1.53,0-2.78,0.51-3.78,1.52
		c-0.99,1.01-1.49,2.32-1.49,3.93C589.17,510.9,589.67,512.21,590.66,513.22z"/>
	<path class="st1" d="M619.07,512.64c0,1.59-0.57,2.86-1.72,3.81c-1.15,0.95-2.62,1.43-4.42,1.43c-1.21,0-2.47-0.22-3.78-0.66
		s-2.46-1.05-3.46-1.85l1.69-2.73c1.94,1.46,3.82,2.19,5.64,2.19c0.79,0,1.42-0.18,1.88-0.55c0.46-0.37,0.69-0.83,0.69-1.39
		c0-0.84-1.11-1.59-3.32-2.26c-0.17-0.06-0.29-0.1-0.38-0.13c-3.47-0.94-5.2-2.51-5.2-4.7c0-1.55,0.6-2.78,1.8-3.71
		c1.2-0.93,2.76-1.39,4.69-1.39c1.92,0,3.74,0.56,5.45,1.69l-1.32,2.6c-1.36-0.9-2.83-1.35-4.42-1.35c-0.84,0-1.52,0.15-2.04,0.45
		c-0.52,0.3-0.78,0.76-0.78,1.36c0,0.54,0.27,0.94,0.81,1.19c0.38,0.19,0.9,0.37,1.58,0.53c0.68,0.17,1.28,0.33,1.8,0.5
		c0.52,0.17,1.03,0.36,1.52,0.56c0.49,0.21,1.02,0.5,1.58,0.88C618.51,509.89,619.07,511.06,619.07,512.64z"/>
</g>
<g>
	<g>
		<path class="st7" d="M385.01,472.84l-59.98-20.75c2.97-8.59,4.48-17.61,4.48-26.81c0-45.19-36.76-81.95-81.95-81.95v-63.47
			c80.19,0,145.42,65.23,145.42,145.42C392.97,441.56,390.29,457.56,385.01,472.84z"/>
	</g>
</g>
<g>
	<g>
		<path class="st8" d="M247.55,570.69c-22.2,0-43.52-4.88-63.38-14.51l27.69-57.11c11.16,5.41,23.17,8.15,35.69,8.15
			c34.93,0,66.06-22.16,77.47-55.13l59.98,20.75C364.75,531.37,309.52,570.69,247.55,570.69z"/>
	</g>
</g>
<g>
	<g>
		<path class="st9" d="M184.17,556.18c-30.35-14.72-54.81-39.71-68.86-70.37l57.7-26.45c7.93,17.3,21.73,31.4,38.86,39.7
			L184.17,556.18z"/>
	</g>
</g>
<g>
	<g>
		<path class="st6" d="M115.3,485.81c-8.74-19.07-13.17-39.44-13.17-60.54c0-80.18,65.23-145.42,145.42-145.42v63.47
			c-45.18,0-81.95,36.76-81.95,81.95c0,11.91,2.49,23.38,7.4,34.09L115.3,485.81z"/>
	</g>
</g>
</svg>
