<svg width="434" height="1309" viewBox="0 0 434 1309" fill="none" xmlns="http://www.w3.org/2000/svg">
<path d="M427.672 931.115C427.755 931.347 427.792 931.593 427.78 931.839C427.768 932.085 427.708 932.327 427.602 932.549C427.497 932.772 427.349 932.972 427.166 933.137C426.983 933.302 426.769 933.43 426.537 933.512C426.071 933.673 425.562 933.644 425.118 933.431C424.674 933.218 424.332 932.839 424.165 932.376C424.003 931.911 424.027 931.401 424.234 930.954C424.441 930.506 424.814 930.157 425.274 929.98C425.506 929.896 425.752 929.86 425.998 929.871C426.245 929.883 426.486 929.944 426.709 930.049C426.932 930.155 427.131 930.303 427.297 930.486C427.462 930.669 427.589 930.883 427.672 931.115ZM413.411 906.705C413.208 906.854 412.977 906.96 412.731 907.018C412.486 907.075 412.231 907.083 411.983 907.039C411.735 906.996 411.498 906.903 411.286 906.766C411.075 906.628 410.893 906.45 410.752 906.241C410.6 906.039 410.49 905.808 410.431 905.562C410.371 905.316 410.363 905.06 410.406 904.811C410.45 904.562 410.544 904.324 410.684 904.113C410.823 903.901 411.004 903.721 411.217 903.583C411.417 903.429 411.646 903.318 411.891 903.257C412.136 903.195 412.391 903.185 412.64 903.226C412.889 903.267 413.127 903.358 413.34 903.495C413.552 903.632 413.734 903.811 413.874 904.02C413.972 904.154 414.05 904.302 414.104 904.459C414.242 904.866 414.241 905.308 414.101 905.715C413.961 906.122 413.691 906.471 413.332 906.709L413.411 906.705ZM433.596 960.981C433.611 961.482 433.43 961.969 433.092 962.338C432.753 962.708 432.284 962.931 431.783 962.959C431.289 962.967 430.811 962.782 430.451 962.443C430.091 962.104 429.878 961.638 429.857 961.144C429.835 960.653 430.008 960.173 430.338 959.808C430.667 959.443 431.127 959.223 431.618 959.194C432.018 959.176 432.414 959.286 432.747 959.509C433.079 959.732 433.332 960.055 433.467 960.432C433.496 960.615 433.513 960.799 433.517 960.984L433.596 960.981ZM393.317 884.661C393.012 885.052 392.565 885.305 392.073 885.366C391.581 885.427 391.085 885.291 390.693 884.987C390.302 884.682 390.049 884.234 389.988 883.742C389.926 883.25 390.063 882.754 390.367 882.363C390.68 881.982 391.129 881.737 391.619 881.681C392.109 881.625 392.602 881.762 392.993 882.063C393.281 882.273 393.497 882.568 393.61 882.907C393.706 883.222 393.716 883.556 393.637 883.876C393.558 884.195 393.394 884.487 393.162 884.72L393.317 884.661ZM429.037 991.253C428.947 991.482 428.813 991.692 428.642 991.869C428.47 992.047 428.266 992.188 428.04 992.286C427.814 992.385 427.57 992.437 427.324 992.441C427.077 992.445 426.832 992.4 426.603 992.309C426.375 992.221 426.166 992.09 425.989 991.921C425.812 991.752 425.67 991.55 425.572 991.326C425.474 991.102 425.421 990.861 425.417 990.616C425.413 990.372 425.457 990.129 425.548 989.902C425.725 989.447 426.074 989.079 426.518 988.877C426.963 988.676 427.469 988.656 427.928 988.822C428.192 988.91 428.432 989.059 428.628 989.257C428.825 989.454 428.973 989.695 429.06 989.959C429.176 990.416 429.112 990.901 428.882 991.312L429.037 991.253ZM368.257 868.505C368.144 868.734 367.986 868.937 367.793 869.103C367.599 869.268 367.374 869.394 367.132 869.471C366.889 869.548 366.633 869.575 366.379 869.551C366.126 869.527 365.879 869.453 365.655 869.332C365.427 869.218 365.224 869.06 365.058 868.867C364.892 868.674 364.767 868.449 364.69 868.206C364.613 867.963 364.585 867.707 364.609 867.454C364.633 867.2 364.708 866.954 364.829 866.73C364.942 866.502 365.1 866.299 365.294 866.133C365.487 865.967 365.712 865.842 365.955 865.765C366.198 865.687 366.453 865.66 366.707 865.684C366.961 865.708 367.207 865.783 367.431 865.904C367.847 866.123 368.172 866.482 368.346 866.919C368.395 867.181 368.391 867.45 368.335 867.711C368.278 867.972 368.17 868.219 368.017 868.437L368.257 868.505ZM340.647 856.788C340.575 857.02 340.458 857.236 340.302 857.423C340.146 857.609 339.954 857.763 339.738 857.876C339.523 857.988 339.287 858.057 339.044 858.078C338.802 858.098 338.558 858.071 338.326 857.997C338.068 857.936 337.825 857.821 337.615 857.659C337.405 857.497 337.232 857.292 337.107 857.058C336.981 856.824 336.908 856.566 336.89 856.302C336.872 856.037 336.911 855.771 337.004 855.523C337.081 855.292 337.204 855.079 337.364 854.895C337.524 854.712 337.719 854.562 337.938 854.454C338.156 854.347 338.394 854.283 338.637 854.268C338.88 854.253 339.124 854.286 339.354 854.365C339.62 854.447 339.863 854.591 340.064 854.783C340.264 854.976 340.417 855.213 340.511 855.475C340.624 855.889 340.587 856.33 340.407 856.719L340.647 856.788ZM311.892 848.444C311.833 848.685 311.727 848.912 311.58 849.111C311.433 849.311 311.247 849.479 311.034 849.606C310.821 849.733 310.585 849.817 310.34 849.852C310.094 849.887 309.844 849.873 309.604 849.811C309.121 849.685 308.707 849.375 308.451 848.947C308.196 848.519 308.119 848.007 308.237 847.523C308.347 847.095 308.606 846.721 308.967 846.468C309.329 846.215 309.769 846.1 310.209 846.144C310.511 846.212 310.791 846.357 311.021 846.564C311.252 846.771 311.426 847.033 311.527 847.326C311.661 847.659 311.704 848.021 311.652 848.376L311.892 848.444ZM282.588 842.024C282.484 842.502 282.2 842.922 281.794 843.195C281.388 843.469 280.892 843.575 280.41 843.491C280.164 843.447 279.93 843.353 279.721 843.215C279.513 843.078 279.334 842.899 279.197 842.69C279.06 842.482 278.966 842.248 278.922 842.002C278.878 841.756 278.884 841.504 278.94 841.26C278.985 841.021 279.078 840.793 279.212 840.59C279.347 840.387 279.521 840.213 279.725 840.078C279.928 839.944 280.156 839.852 280.396 839.807C280.636 839.763 280.882 839.767 281.12 839.82C281.436 839.879 281.73 840.023 281.971 840.235C282.212 840.447 282.392 840.72 282.492 841.026C282.552 841.385 282.504 841.755 282.354 842.087L282.588 842.024ZM253.307 836.13C253.259 836.372 253.164 836.601 253.027 836.805C252.89 837.01 252.714 837.185 252.509 837.321C252.304 837.458 252.075 837.553 251.833 837.6C251.592 837.648 251.344 837.647 251.102 837.599C250.617 837.49 250.194 837.195 249.925 836.777C249.655 836.36 249.559 835.854 249.659 835.367C249.707 835.125 249.802 834.896 249.939 834.692C250.076 834.487 250.252 834.312 250.457 834.175C250.662 834.039 250.891 833.944 251.133 833.897C251.374 833.849 251.623 833.85 251.864 833.898C252.175 833.972 252.462 834.124 252.698 834.34C252.934 834.556 253.11 834.829 253.211 835.132C253.204 835.463 253.109 835.786 252.935 836.067L253.307 836.13ZM109.055 470.02C109.236 470.478 109.23 470.988 109.037 471.441C108.845 471.894 108.482 472.253 108.026 472.44C107.799 472.537 107.554 472.588 107.306 472.589C107.059 472.589 106.814 472.54 106.586 472.445C106.357 472.349 106.151 472.208 105.978 472.031C105.805 471.853 105.67 471.643 105.58 471.412C105.488 471.184 105.442 470.94 105.445 470.694C105.448 470.448 105.5 470.206 105.598 469.98C105.696 469.755 105.839 469.551 106.017 469.381C106.195 469.212 106.405 469.079 106.635 468.992C106.862 468.899 107.104 468.851 107.349 468.853C107.593 468.854 107.835 468.904 108.061 469C108.286 469.096 108.49 469.235 108.66 469.41C108.831 469.585 108.965 469.793 109.055 470.02ZM117.479 499.117C117.526 499.358 117.526 499.606 117.476 499.847C117.427 500.087 117.33 500.315 117.192 500.518C117.053 500.72 116.876 500.893 116.669 501.026C116.463 501.159 116.233 501.25 115.991 501.293C115.749 501.341 115.499 501.34 115.257 501.292C115.015 501.243 114.785 501.146 114.58 501.008C114.375 500.87 114.2 500.693 114.064 500.487C113.928 500.28 113.835 500.049 113.789 499.807C113.741 499.564 113.743 499.314 113.793 499.072C113.844 498.83 113.943 498.6 114.084 498.397C114.226 498.194 114.406 498.022 114.616 497.89C114.825 497.758 115.059 497.67 115.303 497.63C115.74 497.546 116.192 497.621 116.579 497.841C116.966 498.061 117.262 498.412 117.413 498.83C117.448 498.923 117.47 499.019 117.479 499.117ZM93.7389 446.211C93.3423 446.517 92.8409 446.653 92.3439 446.591C91.8469 446.529 91.3948 446.273 91.0859 445.878C90.78 445.482 90.6434 444.981 90.7057 444.484C90.7679 443.987 91.0241 443.535 91.4184 443.226C91.6086 443.06 91.8317 442.936 92.0732 442.863C92.3146 442.789 92.5688 442.767 92.8193 442.798C93.0697 442.83 93.3108 442.914 93.5265 443.045C93.7423 443.176 93.9279 443.351 94.0714 443.558C94.2087 443.697 94.315 443.863 94.383 444.046C94.5135 444.429 94.5217 444.843 94.4063 445.231C94.2909 445.619 94.0576 445.961 93.7389 446.211ZM121.113 529.11C121.131 529.355 121.099 529.601 121.019 529.833C120.94 530.065 120.814 530.279 120.649 530.461C120.484 530.643 120.284 530.79 120.062 530.893C119.839 530.996 119.597 531.053 119.352 531.06C119.105 531.082 118.856 531.053 118.621 530.975C118.385 530.897 118.168 530.771 117.983 530.606C117.798 530.442 117.649 530.241 117.544 530.016C117.439 529.791 117.382 529.548 117.375 529.3C117.361 529.056 117.395 528.811 117.476 528.581C117.557 528.35 117.684 528.138 117.848 527.956C118.011 527.775 118.21 527.628 118.431 527.524C118.652 527.42 118.892 527.361 119.136 527.35C119.541 527.326 119.942 527.433 120.28 527.656C120.618 527.879 120.875 528.206 121.011 528.587L121.113 529.11ZM223.951 829.132C223.884 829.362 223.772 829.577 223.622 829.764C223.471 829.951 223.285 830.106 223.074 830.221C222.863 830.335 222.632 830.407 222.393 830.432C222.155 830.457 221.913 830.434 221.683 830.365C221.219 830.218 220.829 829.898 220.594 829.471C220.36 829.045 220.298 828.544 220.422 828.073C220.486 827.834 220.598 827.609 220.749 827.413C220.901 827.217 221.09 827.053 221.306 826.931C221.521 826.809 221.759 826.731 222.005 826.701C222.251 826.671 222.501 826.691 222.739 826.758C223.026 826.832 223.29 826.977 223.507 827.179C223.723 827.382 223.885 827.636 223.977 827.917C224.052 828.34 223.968 828.776 223.741 829.141L223.951 829.132ZM120.879 559.324C120.847 559.819 120.621 560.28 120.249 560.608C119.878 560.936 119.392 561.103 118.897 561.073C118.4 561.035 117.938 560.803 117.611 560.428C117.283 560.052 117.117 559.563 117.147 559.066C117.159 558.823 117.22 558.586 117.326 558.367C117.431 558.148 117.58 557.953 117.762 557.793C117.944 557.632 118.157 557.51 118.388 557.433C118.618 557.356 118.861 557.326 119.103 557.345C119.473 557.352 119.83 557.473 120.128 557.691C120.426 557.91 120.649 558.215 120.766 558.564C120.859 558.806 120.898 559.066 120.879 559.324ZM72.2293 425.574C72.1017 425.79 71.9306 425.978 71.7269 426.125C71.5232 426.272 71.2912 426.375 71.0457 426.428C70.8001 426.48 70.5462 426.482 70.3001 426.432C70.0539 426.382 69.8209 426.281 69.6155 426.137C69.4049 426.004 69.223 425.83 69.0803 425.626C68.9377 425.422 68.8372 425.192 68.7848 424.948C68.7324 424.705 68.7291 424.454 68.775 424.209C68.821 423.964 68.9154 423.731 69.0526 423.523C69.1802 423.307 69.3513 423.12 69.555 422.973C69.7587 422.826 69.9907 422.723 70.2362 422.67C70.4818 422.617 70.7357 422.615 70.9818 422.665C71.228 422.715 71.461 422.816 71.6664 422.961C72.0141 423.178 72.2721 423.513 72.3937 423.905C72.5022 424.179 72.5392 424.476 72.5012 424.768C72.4632 425.061 72.3515 425.339 72.1766 425.576L72.2293 425.574ZM117.73 589.271C117.65 589.762 117.38 590.202 116.978 590.496C116.576 590.79 116.075 590.914 115.583 590.842C115.338 590.808 115.103 590.727 114.891 590.602C114.678 590.477 114.492 590.311 114.344 590.114C114.195 589.917 114.087 589.693 114.026 589.454C113.964 589.215 113.951 588.967 113.986 588.722C114.017 588.479 114.096 588.245 114.218 588.033C114.34 587.82 114.503 587.634 114.698 587.486C114.893 587.337 115.116 587.229 115.353 587.168C115.59 587.106 115.837 587.092 116.08 587.127C116.416 587.173 116.733 587.313 116.994 587.53C117.256 587.747 117.451 588.033 117.558 588.355C117.667 588.648 117.708 588.962 117.678 589.273L117.73 589.271ZM195.309 819.755C195.132 820.216 194.78 820.589 194.329 820.791C193.878 820.994 193.365 821.01 192.903 820.836C192.441 820.643 192.071 820.28 191.87 819.823C191.668 819.365 191.65 818.848 191.819 818.377C191.912 818.132 192.055 817.909 192.24 817.722C192.424 817.535 192.644 817.388 192.888 817.29C193.132 817.193 193.393 817.147 193.655 817.156C193.918 817.164 194.175 817.227 194.412 817.341C194.657 817.437 194.879 817.584 195.065 817.771C195.25 817.958 195.394 818.182 195.489 818.428C195.59 818.884 195.507 819.362 195.257 819.757L195.309 819.755ZM44.9433 413.42C44.8932 413.661 44.7947 413.889 44.6538 414.091C44.5129 414.292 44.3325 414.463 44.1236 414.593C43.9147 414.723 43.6816 414.81 43.4384 414.847C43.1952 414.884 42.947 414.872 42.7087 414.81C42.4678 414.76 42.2396 414.662 42.0379 414.521C41.8361 414.38 41.6651 414.2 41.5351 413.991C41.4051 413.782 41.3188 413.549 41.2815 413.306C41.2442 413.063 41.2566 412.814 41.3181 412.576C41.3682 412.335 41.4667 412.107 41.6076 411.906C41.7484 411.704 41.9288 411.533 42.1377 411.403C42.3466 411.273 42.5798 411.187 42.823 411.149C43.0662 411.112 43.3144 411.125 43.5527 411.186C43.8567 411.257 44.1384 411.402 44.3729 411.608C44.6074 411.814 44.7876 412.075 44.8972 412.367C45.0179 412.705 45.0339 413.072 44.9433 413.42ZM113.088 618.834C113.013 619.323 112.748 619.762 112.351 620.057C111.953 620.351 111.456 620.476 110.966 620.404C110.721 620.374 110.485 620.295 110.271 620.17C110.058 620.046 109.872 619.88 109.725 619.681C109.578 619.483 109.473 619.257 109.417 619.016C109.36 618.776 109.353 618.527 109.396 618.284C109.426 618.041 109.505 617.807 109.628 617.596C109.751 617.385 109.915 617.201 110.11 617.054C110.306 616.908 110.529 616.802 110.766 616.744C111.003 616.686 111.25 616.676 111.491 616.715C111.823 616.762 112.136 616.898 112.397 617.11C112.657 617.322 112.854 617.6 112.968 617.916C113.116 618.226 113.16 618.576 113.091 618.913L113.088 618.834ZM168.227 806.827C168.098 807.041 167.928 807.227 167.727 807.375C167.526 807.523 167.297 807.63 167.055 807.689C166.812 807.749 166.56 807.76 166.314 807.722C166.067 807.685 165.83 807.598 165.616 807.469C165.403 807.34 165.216 807.17 165.068 806.969C164.92 806.768 164.813 806.539 164.754 806.297C164.694 806.055 164.683 805.803 164.721 805.556C164.759 805.309 164.845 805.072 164.975 804.859C165.101 804.642 165.27 804.453 165.47 804.303C165.671 804.153 165.9 804.045 166.144 803.985C166.387 803.925 166.64 803.915 166.888 803.955C167.135 803.995 167.372 804.084 167.585 804.217C167.953 804.454 168.237 804.802 168.393 805.21C168.496 805.487 168.535 805.783 168.507 806.077C168.479 806.371 168.384 806.654 168.23 806.906L168.227 806.827ZM109.109 648.5C109.081 648.743 109.005 648.978 108.886 649.191C108.767 649.404 108.607 649.592 108.414 649.742C108.222 649.893 108.002 650.004 107.767 650.069C107.531 650.134 107.285 650.152 107.043 650.121C106.799 650.099 106.562 650.029 106.346 649.914C106.13 649.799 105.94 649.642 105.786 649.452C105.632 649.261 105.519 649.042 105.452 648.807C105.385 648.571 105.366 648.325 105.397 648.082C105.428 647.839 105.506 647.603 105.628 647.39C105.75 647.176 105.913 646.989 106.107 646.838C106.301 646.688 106.523 646.577 106.761 646.512C106.998 646.447 107.245 646.43 107.489 646.461C107.838 646.496 108.171 646.629 108.446 646.846C108.722 647.063 108.931 647.354 109.047 647.685C109.129 647.976 109.152 648.28 109.112 648.579L109.109 648.5ZM15.2553 410.288C15.2626 410.532 15.2212 410.775 15.1336 411.004C15.0459 411.232 14.9137 411.441 14.7447 411.617C14.5756 411.794 14.3732 411.936 14.149 412.034C13.9248 412.131 13.6834 412.184 13.4388 412.187C13.1951 412.205 12.9502 412.173 12.7193 412.093C12.4884 412.013 12.2763 411.886 12.0961 411.721C11.9159 411.556 11.7714 411.356 11.6714 411.133C11.5714 410.91 11.5181 410.669 11.5147 410.425C11.493 409.929 11.6692 409.445 12.0045 409.079C12.3398 408.713 12.8067 408.495 13.3026 408.474C13.7018 408.463 14.0941 408.579 14.4221 408.807C14.7501 409.035 14.9967 409.361 15.1258 409.739C15.1896 409.944 15.2342 410.154 15.2588 410.367L15.2553 410.288ZM106.825 678.303C106.806 678.797 106.593 679.263 106.232 679.6C105.871 679.936 105.392 680.117 104.898 680.102C104.652 680.096 104.409 680.042 104.184 679.942C103.958 679.842 103.755 679.698 103.585 679.519C103.416 679.34 103.283 679.13 103.195 678.899C103.107 678.669 103.066 678.424 103.073 678.178C103.091 677.677 103.307 677.204 103.672 676.862C104.038 676.52 104.524 676.337 105.024 676.351C105.398 676.366 105.759 676.488 106.063 676.705C106.368 676.921 106.603 677.221 106.74 677.569C106.82 677.805 106.849 678.055 106.825 678.303ZM144.136 789.31C143.801 789.673 143.336 789.888 142.843 789.91C142.35 789.931 141.868 789.757 141.503 789.425C141.158 789.08 140.954 788.619 140.933 788.131C140.912 787.644 141.074 787.166 141.387 786.793C141.726 786.436 142.19 786.225 142.681 786.203C143.172 786.182 143.653 786.352 144.021 786.677C144.25 786.867 144.425 787.114 144.527 787.394C144.645 787.718 144.671 788.069 144.602 788.407C144.533 788.745 144.372 789.058 144.136 789.31ZM107.81 708.043C107.853 708.529 107.704 709.013 107.395 709.391C107.087 709.769 106.642 710.012 106.157 710.067C105.659 710.11 105.165 709.956 104.78 709.637C104.396 709.318 104.153 708.86 104.104 708.363C104.067 707.87 104.225 707.382 104.544 707.003C104.863 706.624 105.317 706.385 105.809 706.336C106.22 706.284 106.637 706.376 106.988 706.596C107.339 706.816 107.603 707.152 107.735 707.545C107.742 707.714 107.723 707.884 107.678 708.048L107.81 708.043ZM124.666 766.447C124.456 766.598 124.215 766.703 123.961 766.753C123.707 766.804 123.445 766.8 123.192 766.741C122.94 766.682 122.703 766.57 122.497 766.412C122.292 766.254 122.122 766.054 122.001 765.825C121.849 765.615 121.745 765.374 121.694 765.12C121.644 764.866 121.648 764.604 121.707 764.352C121.766 764.099 121.878 763.862 122.036 763.657C122.194 763.451 122.394 763.282 122.623 763.16C122.837 763.021 123.077 762.926 123.329 762.882C123.581 762.838 123.839 762.845 124.088 762.903C124.337 762.961 124.572 763.069 124.778 763.22C124.984 763.371 125.158 763.562 125.288 763.782L125.461 764.117C125.622 764.537 125.631 765 125.485 765.426C125.34 765.852 125.05 766.213 124.666 766.447ZM113.272 737.005C113.414 737.489 113.361 738.008 113.124 738.453C112.887 738.897 112.485 739.231 112.004 739.382C111.768 739.452 111.521 739.474 111.276 739.448C111.032 739.421 110.795 739.347 110.579 739.229C110.363 739.111 110.172 738.952 110.018 738.76C109.864 738.569 109.749 738.348 109.68 738.112C109.539 737.639 109.59 737.13 109.823 736.695C110.056 736.26 110.452 735.934 110.924 735.789C111.386 735.639 111.889 735.676 112.323 735.895C112.758 736.113 113.088 736.493 113.244 736.954L113.272 737.005ZM-14.5899 413.81C-14.5002 414.298 -14.6057 414.802 -14.8836 415.214C-15.1616 415.626 -15.59 415.912 -16.0767 416.011C-16.319 416.059 -16.5684 416.059 -16.8105 416.01C-17.0526 415.961 -17.2827 415.865 -17.4874 415.727C-17.6921 415.589 -17.8674 415.411 -18.0033 415.205C-18.1391 414.999 -18.2328 414.768 -18.2789 414.525C-18.3269 414.283 -18.3264 414.033 -18.2775 413.791C-18.2287 413.549 -18.1324 413.319 -17.9941 413.115C-17.8559 412.91 -17.6786 412.735 -17.4723 412.599C-17.266 412.463 -17.0349 412.369 -16.7922 412.323C-16.3521 412.246 -15.899 412.327 -15.5128 412.552C-15.1265 412.776 -14.8318 413.13 -14.6805 413.55L-14.5899 413.81ZM-43.8458 420.55C-43.7298 421.027 -43.803 421.53 -44.0501 421.954C-44.2972 422.378 -44.699 422.69 -45.1711 422.824C-45.6555 422.939 -46.1655 422.859 -46.5914 422.601C-47.0172 422.344 -47.3247 421.929 -47.4477 421.447C-47.5122 421.21 -47.5291 420.964 -47.4972 420.721C-47.4653 420.478 -47.3853 420.244 -47.2619 420.032C-47.1386 419.82 -46.9743 419.635 -46.7786 419.488C-46.583 419.34 -46.3599 419.233 -46.1224 419.173C-45.6708 419.067 -45.1959 419.13 -44.7876 419.35C-44.3793 419.571 -44.0659 419.933 -43.9065 420.368L-43.8458 420.55ZM-72.9137 427.969C-72.799 428.453 -72.8791 428.963 -73.1369 429.389C-73.3946 429.815 -73.8093 430.122 -74.2917 430.245C-74.5339 430.305 -74.7857 430.315 -75.0319 430.275C-75.2782 430.235 -75.5137 430.145 -75.7242 430.011C-75.9348 429.877 -76.116 429.702 -76.257 429.496C-76.3979 429.291 -76.4957 429.058 -76.5443 428.814C-76.6042 428.577 -76.6157 428.33 -76.5783 428.089C-76.5408 427.848 -76.4552 427.616 -76.3263 427.409C-76.1975 427.201 -76.0282 427.022 -75.8285 426.881C-75.6288 426.741 -75.4028 426.642 -75.164 426.59C-74.716 426.491 -74.2474 426.558 -73.8449 426.778C-73.4423 426.998 -73.1331 427.357 -72.9745 427.787L-72.9137 427.969ZM-102.286 433.871C-102.249 434.117 -102.263 434.369 -102.325 434.61C-102.387 434.851 -102.497 435.078 -102.648 435.276C-102.8 435.474 -102.989 435.641 -103.205 435.765C-103.421 435.889 -103.66 435.969 -103.907 435.999C-104.398 436.065 -104.894 435.934 -105.287 435.635C-105.681 435.335 -105.941 434.893 -106.009 434.403C-106.074 433.913 -105.943 433.417 -105.644 433.023C-105.345 432.629 -104.902 432.37 -104.412 432.302C-103.987 432.239 -103.553 432.324 -103.183 432.543C-102.813 432.762 -102.529 433.102 -102.381 433.506C-102.334 433.636 -102.266 433.757 -102.18 433.866L-102.286 433.871ZM-132.201 435.787C-132.21 436.032 -132.268 436.274 -132.372 436.497C-132.475 436.72 -132.623 436.919 -132.805 437.085C-132.987 437.25 -133.2 437.377 -133.432 437.459C-133.664 437.541 -133.91 437.575 -134.155 437.56C-134.4 437.552 -134.64 437.493 -134.862 437.389C-135.084 437.285 -135.282 437.138 -135.445 436.955C-135.608 436.773 -135.733 436.559 -135.812 436.327C-135.89 436.095 -135.921 435.85 -135.903 435.606C-135.897 435.359 -135.842 435.116 -135.739 434.891C-135.637 434.666 -135.49 434.465 -135.307 434.299C-135.124 434.133 -134.91 434.006 -134.676 433.926C-134.443 433.845 -134.195 433.813 -133.949 433.832C-133.579 433.852 -133.224 433.981 -132.928 434.203C-132.632 434.425 -132.408 434.729 -132.285 435.078C-132.157 435.29 -132.091 435.534 -132.096 435.782L-132.201 435.787ZM-161.52 430.844C-161.688 431.302 -162.025 431.678 -162.463 431.894C-162.901 432.109 -163.405 432.148 -163.87 432.002C-164.11 431.928 -164.332 431.806 -164.522 431.644C-164.713 431.481 -164.869 431.282 -164.98 431.057C-165.091 430.832 -165.155 430.587 -165.168 430.337C-165.182 430.086 -165.144 429.836 -165.057 429.601C-164.889 429.137 -164.547 428.756 -164.104 428.539C-163.66 428.323 -163.149 428.288 -162.68 428.442C-162.417 428.537 -162.177 428.688 -161.978 428.884C-161.778 429.08 -161.622 429.317 -161.522 429.578C-161.39 429.99 -161.389 430.432 -161.52 430.844ZM-279.809 109.947C-279.669 110.413 -279.718 110.915 -279.946 111.345C-280.174 111.775 -280.563 112.098 -281.028 112.242C-281.264 112.315 -281.512 112.34 -281.758 112.316C-282.004 112.291 -282.243 112.218 -282.459 112.099C-282.676 111.981 -282.867 111.82 -283.02 111.626C-283.174 111.433 -283.287 111.21 -283.353 110.972C-283.422 110.74 -283.445 110.496 -283.42 110.254C-283.395 110.013 -283.323 109.779 -283.207 109.566C-283.091 109.352 -282.935 109.164 -282.746 109.011C-282.557 108.858 -282.341 108.744 -282.108 108.676C-281.649 108.538 -281.155 108.578 -280.725 108.789C-280.295 109.001 -279.96 109.367 -279.789 109.814L-279.809 109.947ZM-291.206 84.0661C-291.429 84.1684 -291.671 84.2242 -291.917 84.2303C-292.163 84.2364 -292.408 84.1926 -292.636 84.1015C-292.864 84.0103 -293.072 83.8739 -293.246 83.7003C-293.42 83.5267 -293.558 83.3196 -293.649 83.0915C-293.749 82.8691 -293.803 82.6292 -293.809 82.3857C-293.814 82.1422 -293.772 81.9 -293.684 81.673C-293.596 81.4459 -293.463 81.2386 -293.295 81.0629C-293.126 80.8873 -292.924 80.7468 -292.701 80.6495C-292.478 80.5504 -292.238 80.4963 -291.995 80.4904C-291.751 80.4844 -291.509 80.5268 -291.282 80.6149C-291.055 80.7031 -290.848 80.8353 -290.672 81.004C-290.496 81.1727 -290.356 81.3745 -290.258 81.5978L-290.251 81.7558C-290.085 82.1898 -290.091 82.6711 -290.269 83.1008C-290.446 83.5305 -290.781 83.876 -291.206 84.0661ZM-272.8 139.29C-272.752 139.529 -272.753 139.776 -272.803 140.015C-272.852 140.254 -272.95 140.48 -273.088 140.68C-273.227 140.881 -273.405 141.051 -273.612 141.182C-273.818 141.312 -274.048 141.4 -274.289 141.439C-274.529 141.491 -274.778 141.494 -275.02 141.448C-275.262 141.403 -275.492 141.309 -275.697 141.173C-275.902 141.037 -276.078 140.861 -276.214 140.656C-276.35 140.451 -276.444 140.221 -276.49 139.979C-276.534 139.737 -276.53 139.488 -276.477 139.248C-276.425 139.007 -276.326 138.779 -276.185 138.577C-276.044 138.374 -275.865 138.202 -275.657 138.069C-275.45 137.936 -275.218 137.846 -274.976 137.803C-274.541 137.715 -274.09 137.788 -273.706 138.01C-273.323 138.231 -273.033 138.584 -272.891 139.004L-272.8 139.29ZM-305.396 57.6484C-305.604 57.7916 -305.838 57.892 -306.085 57.9436C-306.332 57.9952 -306.587 57.997 -306.835 57.9489C-307.083 57.9008 -307.319 57.8037 -307.528 57.6634C-307.738 57.5231 -307.918 57.3423 -308.057 57.1317C-308.204 56.9252 -308.307 56.6909 -308.361 56.4432C-308.415 56.1955 -308.417 55.9395 -308.369 55.6907C-308.321 55.4419 -308.222 55.2056 -308.08 54.9959C-307.937 54.7863 -307.754 54.6077 -307.54 54.4712C-307.335 54.3233 -307.102 54.2184 -306.856 54.1629C-306.609 54.1074 -306.354 54.1024 -306.105 54.1482C-305.857 54.194 -305.62 54.2897 -305.41 54.4295C-305.199 54.5693 -305.019 54.7502 -304.88 54.9615C-304.789 55.0898 -304.712 55.2281 -304.651 55.3735C-304.486 55.7686 -304.459 56.2079 -304.575 56.62C-304.691 57.0322 -304.943 57.393 -305.291 57.6438L-305.396 57.6484ZM-268.594 169.073C-268.543 169.566 -268.687 170.06 -268.996 170.448C-269.304 170.836 -269.753 171.088 -270.245 171.15C-270.49 171.182 -270.739 171.165 -270.978 171.099C-271.217 171.033 -271.439 170.92 -271.633 170.766C-271.827 170.612 -271.988 170.42 -272.106 170.203C-272.225 169.985 -272.298 169.746 -272.322 169.5C-272.351 169.257 -272.33 169.01 -272.262 168.774C-272.194 168.539 -272.08 168.319 -271.927 168.128C-271.773 167.937 -271.582 167.779 -271.367 167.662C-271.151 167.546 -270.914 167.473 -270.67 167.449C-270.253 167.402 -269.832 167.498 -269.476 167.722C-269.121 167.947 -268.853 168.285 -268.717 168.683C-268.624 168.801 -268.548 168.931 -268.489 169.068L-268.594 169.073ZM-324.173 34.3331C-324.512 34.6896 -324.975 34.9009 -325.467 34.9224C-325.958 34.9439 -326.438 34.7739 -326.807 34.4483C-327.169 34.1134 -327.385 33.6488 -327.406 33.1556C-327.428 32.6625 -327.254 32.1808 -326.922 31.8154C-326.587 31.4528 -326.122 31.2372 -325.629 31.2157C-325.136 31.1941 -324.654 31.3682 -324.288 31.7002C-324.09 31.9065 -323.936 32.1511 -323.835 32.419C-323.691 32.7272 -323.637 33.0695 -323.678 33.407C-323.719 33.7446 -323.854 34.0638 -324.068 34.3285L-324.173 34.3331ZM-266.018 199.006C-265.982 199.497 -266.141 199.982 -266.46 200.357C-266.78 200.731 -267.234 200.965 -267.724 201.007C-268.225 201.036 -268.717 200.868 -269.096 200.54C-269.475 200.212 -269.711 199.749 -269.754 199.249C-269.775 198.755 -269.604 198.272 -269.275 197.903C-268.946 197.534 -268.486 197.308 -267.993 197.273C-267.588 197.244 -267.185 197.349 -266.846 197.573C-266.507 197.797 -266.251 198.126 -266.118 198.509C-266.024 198.662 -265.955 198.828 -265.912 199.002L-266.018 199.006ZM-188.528 417.808C-188.813 418.216 -189.248 418.495 -189.737 418.585C-190.227 418.676 -190.733 418.57 -191.145 418.292C-191.549 418.002 -191.823 417.566 -191.909 417.076C-191.994 416.587 -191.884 416.083 -191.603 415.674C-191.466 415.466 -191.289 415.288 -191.081 415.151C-190.874 415.014 -190.642 414.919 -190.397 414.874C-190.153 414.829 -189.902 414.834 -189.659 414.888C-189.416 414.942 -189.187 415.045 -188.985 415.19C-188.667 415.404 -188.431 415.719 -188.313 416.084C-188.185 416.356 -188.128 416.657 -188.147 416.957C-188.167 417.258 -188.261 417.549 -188.422 417.803L-188.528 417.808ZM-264.072 228.994C-264.058 229.239 -264.092 229.485 -264.173 229.717C-264.254 229.949 -264.379 230.163 -264.543 230.346C-264.706 230.53 -264.904 230.679 -265.126 230.786C-265.347 230.893 -265.587 230.956 -265.832 230.97C-266.078 230.984 -266.324 230.95 -266.556 230.869C-266.788 230.788 -267.002 230.663 -267.185 230.499C-267.369 230.336 -267.519 230.138 -267.626 229.917C-267.733 229.695 -267.795 229.455 -267.809 229.21C-267.831 228.965 -267.802 228.719 -267.726 228.485C-267.649 228.252 -267.526 228.036 -267.364 227.852C-267.202 227.667 -267.004 227.517 -266.783 227.411C-266.561 227.305 -266.32 227.245 -266.075 227.235C-265.669 227.201 -265.264 227.305 -264.924 227.529C-264.584 227.753 -264.329 228.085 -264.2 228.472C-264.089 228.627 -264.009 228.803 -263.967 228.989L-264.072 228.994ZM-347.593 15.8637C-347.71 16.0891 -347.872 16.2879 -348.069 16.4477C-348.267 16.6075 -348.495 16.7249 -348.739 16.7926C-348.984 16.8602 -349.24 16.8767 -349.491 16.8409C-349.743 16.8051 -349.984 16.7178 -350.2 16.5845C-350.425 16.4672 -350.623 16.3054 -350.783 16.109C-350.944 15.9126 -351.062 15.6857 -351.132 15.4421C-351.202 15.1984 -351.222 14.9432 -351.19 14.6917C-351.158 14.4403 -351.076 14.1979 -350.947 13.9793C-350.699 13.5362 -350.286 13.2091 -349.798 13.0691C-349.31 12.9292 -348.787 12.9878 -348.342 13.2322C-347.959 13.4708 -347.665 13.8287 -347.505 14.2508C-347.391 14.5072 -347.339 14.7873 -347.354 15.0679C-347.369 15.3484 -347.451 15.6212 -347.593 15.8637ZM-211.198 398.382C-211.561 398.72 -212.044 398.899 -212.539 398.881C-213.035 398.863 -213.503 398.65 -213.841 398.287C-214.175 397.92 -214.35 397.436 -214.327 396.94C-214.304 396.444 -214.086 395.978 -213.719 395.644C-213.539 395.475 -213.327 395.344 -213.096 395.258C-212.864 395.173 -212.618 395.135 -212.371 395.146C-212.125 395.157 -211.883 395.218 -211.66 395.324C-211.438 395.431 -211.239 395.581 -211.075 395.765C-210.892 395.94 -210.763 396.163 -210.704 396.409C-210.576 396.749 -210.555 397.12 -210.644 397.472C-210.732 397.825 -210.925 398.142 -211.198 398.382ZM-261.659 258.802C-261.634 259.049 -261.659 259.299 -261.731 259.536C-261.804 259.774 -261.923 259.995 -262.081 260.186C-262.24 260.377 -262.435 260.534 -262.655 260.649C-262.875 260.764 -263.116 260.834 -263.364 260.855C-263.609 260.876 -263.856 260.849 -264.09 260.775C-264.325 260.701 -264.543 260.581 -264.731 260.423C-264.919 260.264 -265.074 260.071 -265.188 259.852C-265.301 259.634 -265.37 259.395 -265.391 259.15C-265.42 258.904 -265.398 258.654 -265.326 258.416C-265.255 258.179 -265.136 257.958 -264.976 257.768C-264.816 257.578 -264.619 257.423 -264.397 257.312C-264.175 257.201 -263.933 257.137 -263.685 257.123C-263.275 257.081 -262.863 257.177 -262.514 257.396C-262.165 257.615 -261.899 257.944 -261.759 258.332C-261.701 258.482 -261.667 258.641 -261.659 258.802ZM-257.988 288.424C-257.915 288.916 -258.038 289.418 -258.331 289.821C-258.625 290.224 -259.065 290.495 -259.556 290.576C-260.039 290.649 -260.532 290.528 -260.925 290.238C-261.319 289.949 -261.581 289.515 -261.656 289.033C-261.699 288.792 -261.695 288.544 -261.642 288.305C-261.589 288.066 -261.49 287.84 -261.348 287.64C-261.207 287.44 -261.028 287.27 -260.821 287.14C-260.613 287.01 -260.382 286.922 -260.14 286.882C-259.708 286.816 -259.266 286.899 -258.887 287.117C-258.508 287.336 -258.215 287.676 -258.056 288.084C-258.021 288.194 -257.998 288.308 -257.988 288.424ZM-229.44 374.648C-229.651 374.789 -229.888 374.887 -230.137 374.934C-230.387 374.982 -230.643 374.98 -230.892 374.926C-231.14 374.873 -231.375 374.771 -231.583 374.625C-231.791 374.48 -231.968 374.294 -232.103 374.079C-232.239 373.863 -232.33 373.623 -232.372 373.372C-232.415 373.121 -232.406 372.864 -232.349 372.616C-232.291 372.368 -232.184 372.134 -232.035 371.928C-231.886 371.721 -231.698 371.547 -231.481 371.413C-231.268 371.27 -231.027 371.173 -230.775 371.127C-230.522 371.08 -230.263 371.087 -230.013 371.145C-229.763 371.203 -229.527 371.313 -229.321 371.466C-229.115 371.619 -228.943 371.813 -228.815 372.035C-228.737 372.145 -228.678 372.268 -228.641 372.397C-228.486 372.806 -228.481 373.257 -228.627 373.669C-228.773 374.081 -229.061 374.428 -229.44 374.648ZM-251.989 317.6C-251.924 317.837 -251.907 318.083 -251.939 318.326C-251.971 318.569 -252.051 318.803 -252.174 319.015C-252.298 319.227 -252.462 319.412 -252.658 319.559C-252.853 319.707 -253.076 319.814 -253.314 319.874C-253.549 319.938 -253.794 319.955 -254.035 319.923C-254.276 319.89 -254.509 319.81 -254.718 319.686C-254.928 319.563 -255.111 319.398 -255.256 319.203C-255.4 319.007 -255.505 318.785 -255.562 318.548C-255.63 318.312 -255.65 318.064 -255.62 317.82C-255.589 317.576 -255.51 317.34 -255.386 317.128C-255.262 316.915 -255.096 316.73 -254.899 316.583C-254.701 316.436 -254.476 316.331 -254.237 316.274C-253.795 316.155 -253.324 316.206 -252.919 316.418C-252.514 316.631 -252.203 316.988 -252.049 317.418L-251.989 317.6ZM-243.426 348.063C-243.887 348.255 -244.404 348.257 -244.867 348.07C-245.329 347.883 -245.699 347.521 -245.897 347.063C-246.089 346.61 -246.094 346.099 -245.912 345.641C-245.729 345.184 -245.374 344.817 -244.922 344.62C-244.695 344.522 -244.45 344.469 -244.202 344.466C-243.954 344.464 -243.707 344.51 -243.477 344.603C-243.248 344.696 -243.038 344.834 -242.862 345.008C-242.686 345.183 -242.546 345.391 -242.451 345.62C-242.266 346.074 -242.265 346.582 -242.446 347.038C-242.628 347.493 -242.979 347.861 -243.426 348.063ZM-375.452 5.08038C-375.496 5.32233 -375.59 5.55263 -375.727 5.75694C-375.864 5.96126 -376.041 6.13523 -376.248 6.26801C-376.455 6.40079 -376.687 6.48955 -376.93 6.52876C-377.173 6.56798 -377.421 6.5568 -377.66 6.49594C-377.9 6.45765 -378.129 6.37019 -378.334 6.23903C-378.539 6.10788 -378.714 5.93586 -378.85 5.73375C-378.985 5.53164 -379.077 5.30379 -379.12 5.06449C-379.163 4.82519 -379.156 4.5796 -379.099 4.34308C-379.051 4.10184 -378.956 3.87246 -378.819 3.66805C-378.682 3.46365 -378.506 3.28825 -378.302 3.15188C-378.097 3.01551 -377.867 2.92085 -377.626 2.87332C-377.384 2.82579 -377.136 2.82631 -376.895 2.87488C-376.579 2.94244 -376.286 3.0882 -376.041 3.29876C-375.797 3.50933 -375.61 3.77795 -375.496 4.07989C-375.402 4.4052 -375.387 4.74813 -375.452 5.08038ZM-405.244 2.58557C-405.216 3.07659 -405.382 3.55913 -405.706 3.92879C-406.031 4.29844 -406.488 4.52548 -406.979 4.56077C-407.222 4.57847 -407.468 4.54749 -407.699 4.46963C-407.931 4.39178 -408.145 4.26861 -408.329 4.10728C-408.513 3.94595 -408.663 3.74969 -408.77 3.52991C-408.878 3.31013 -408.94 3.0712 -408.954 2.82705C-408.975 2.58329 -408.948 2.33775 -408.873 2.1047C-408.799 1.87165 -408.679 1.65576 -408.52 1.4696C-408.361 1.28343 -408.167 1.13071 -407.948 1.02033C-407.73 0.909958 -407.492 0.844139 -407.247 0.826687C-406.839 0.796304 -406.432 0.900736 -406.088 1.12396C-405.745 1.34718 -405.484 1.67687 -405.346 2.06246C-405.287 2.23087 -405.253 2.40713 -405.244 2.58557ZM-435.592 10.9042C-435.824 10.9969 -436.071 11.0424 -436.32 11.0381C-436.57 11.0338 -436.815 10.9798 -437.044 10.8792C-437.272 10.7786 -437.477 10.6335 -437.648 10.4523C-437.82 10.2712 -437.953 10.0576 -438.04 9.8243C-438.212 9.35944 -438.195 8.84587 -437.993 8.39337C-437.791 7.94088 -437.42 7.58536 -436.959 7.40284C-436.731 7.31098 -436.487 7.26622 -436.242 7.27127C-435.996 7.27632 -435.754 7.33107 -435.53 7.43221C-435.306 7.53334 -435.105 7.67876 -434.939 7.85972C-434.773 8.04067 -434.645 8.2534 -434.564 8.48506C-434.382 8.94252 -434.389 9.45289 -434.581 9.90565C-434.774 10.3584 -435.137 10.7172 -435.592 10.9042ZM-460.385 26.1813C-460.748 26.5186 -461.23 26.698 -461.726 26.6801C-462.221 26.6622 -462.689 26.4485 -463.028 26.0859C-463.201 25.9096 -463.337 25.6996 -463.427 25.4689C-463.517 25.2382 -463.558 24.9917 -463.549 24.7443C-463.54 24.4969 -463.481 24.254 -463.375 24.0304C-463.269 23.8068 -463.118 23.6072 -462.932 23.4438C-462.756 23.2721 -462.547 23.1374 -462.317 23.0477C-462.088 22.958 -461.843 22.9151 -461.597 22.9215C-461.351 22.9279 -461.108 22.9836 -460.884 23.0852C-460.66 23.1867 -460.458 23.3321 -460.291 23.5129C-460.122 23.708 -459.995 23.9359 -459.918 24.1824C-459.804 24.5179 -459.787 24.8789 -459.87 25.2235C-459.954 25.568 -460.133 25.8819 -460.387 26.1286L-460.385 26.1813Z" fill="#101950"/>
<path d="M-50.9576 1308.51C-50.939 1308.51 -50.9203 1308.52 -50.9015 1308.52L-50.9798 1308.51C-50.9724 1308.51 -50.965 1308.51 -50.9576 1308.51C-51.1792 1308.47 -51.3916 1308.39 -51.5844 1308.27C-51.7933 1308.14 -51.9749 1307.98 -52.1186 1307.78C-52.2623 1307.58 -52.3652 1307.36 -52.4213 1307.12C-52.4775 1306.88 -52.4857 1306.63 -52.4455 1306.39C-52.4196 1306.15 -52.3443 1305.91 -52.2242 1305.7C-52.1041 1305.49 -51.9416 1305.3 -51.747 1305.15C-51.5523 1305.01 -51.3296 1304.9 -51.0924 1304.84C-50.8551 1304.78 -50.6084 1304.77 -50.3674 1304.81C-49.8757 1304.88 -49.431 1305.14 -49.1309 1305.54C-48.8309 1305.93 -48.7002 1306.43 -48.7676 1306.92C-48.8281 1307.32 -49.0132 1307.68 -49.2959 1307.96C-49.5786 1308.25 -49.9441 1308.43 -50.3389 1308.49C-50.5441 1308.52 -50.7512 1308.52 -50.9576 1308.51Z" fill="#101950"/>
<path d="M-50.3566 1277.99C-50.0013 1278.33 -49.524 1278.53 -49.0273 1278.53L-48.7555 1278.48C-48.3149 1278.41 -47.9145 1278.18 -47.6247 1277.84C-47.3348 1277.5 -47.1741 1277.07 -47.1709 1276.62C-47.1728 1276.38 -47.2236 1276.13 -47.3203 1275.91C-47.417 1275.68 -47.5578 1275.47 -47.7344 1275.3C-47.9111 1275.13 -48.1201 1274.99 -48.3496 1274.9C-48.579 1274.81 -48.8243 1274.76 -49.0712 1274.77C-49.3182 1274.77 -49.5623 1274.82 -49.7895 1274.92C-50.0168 1275.01 -50.2225 1275.16 -50.3951 1275.33C-50.5677 1275.51 -50.7037 1275.72 -50.795 1275.95C-50.8864 1276.18 -50.9314 1276.42 -50.9276 1276.67C-50.9168 1277.17 -50.7119 1277.64 -50.3566 1277.99Z" fill="#101950"/>
<path d="M-51.7702 1248.08C-51.3973 1248.4 -50.9153 1248.56 -50.4255 1248.54L-50.2356 1248.51C-49.7785 1248.43 -49.366 1248.19 -49.0762 1247.82C-48.7864 1247.46 -48.6394 1247.01 -48.6628 1246.54C-48.6797 1246.3 -48.7451 1246.06 -48.8552 1245.84C-48.9653 1245.62 -49.118 1245.43 -49.3042 1245.27C-49.4904 1245.11 -49.7064 1244.99 -49.9397 1244.91C-50.173 1244.84 -50.4188 1244.81 -50.6629 1244.83C-51.1593 1244.87 -51.6223 1245.09 -51.952 1245.47C-52.2817 1245.84 -52.4518 1246.33 -52.4255 1246.83C-52.378 1247.31 -52.1431 1247.76 -51.7702 1248.08Z" fill="#101950"/>
<path d="M-53.8811 1218.14C-53.5084 1218.47 -53.0209 1218.64 -52.5239 1218.61L-52.334 1218.58C-51.8822 1218.5 -51.4743 1218.26 -51.1858 1217.91C-50.8974 1217.55 -50.7478 1217.1 -50.7649 1216.64C-50.7728 1216.4 -50.8297 1216.16 -50.9324 1215.94C-51.0351 1215.71 -51.1814 1215.52 -51.3625 1215.35C-51.5436 1215.19 -51.7559 1215.06 -51.9866 1214.98C-52.2174 1214.9 -52.4619 1214.87 -52.7056 1214.89C-52.955 1214.89 -53.201 1214.95 -53.4287 1215.05C-53.6564 1215.15 -53.861 1215.3 -54.0304 1215.48C-54.1997 1215.66 -54.3302 1215.88 -54.4138 1216.11C-54.4974 1216.35 -54.5324 1216.6 -54.5169 1216.85C-54.4822 1217.34 -54.2539 1217.81 -53.8811 1218.14Z" fill="#101950"/>
<path d="M-53.7962 1188.48C-53.5699 1188.59 -53.325 1188.65 -53.0759 1188.66L-53.0902 1188.76C-52.9679 1188.7 -52.8361 1188.65 -52.6996 1188.63C-52.276 1188.55 -51.8909 1188.34 -51.609 1188.01C-51.3271 1187.69 -51.1657 1187.27 -51.1519 1186.84C-51.1314 1186.35 -51.3073 1185.87 -51.6411 1185.5C-51.9749 1185.14 -52.4395 1184.92 -52.9334 1184.9C-53.4274 1184.88 -53.9094 1185.05 -54.2741 1185.39C-54.6389 1185.72 -54.8566 1186.19 -54.8799 1186.68C-54.894 1186.93 -54.8583 1187.18 -54.7749 1187.41C-54.6914 1187.65 -54.5618 1187.86 -54.3937 1188.05C-54.2256 1188.23 -54.0225 1188.38 -53.7962 1188.48Z" fill="#101950"/>
<path d="M-50.2769 1158.59C-50.0761 1158.73 -49.849 1158.83 -49.609 1158.88L-49.6233 1158.98C-49.3803 1159.03 -49.1284 1159.01 -48.8967 1158.92C-48.5314 1158.87 -48.1918 1158.7 -47.9206 1158.45C-47.6494 1158.2 -47.4588 1157.87 -47.373 1157.51C-47.3109 1157.27 -47.2981 1157.02 -47.3353 1156.78C-47.3725 1156.53 -47.459 1156.3 -47.5896 1156.09C-47.7202 1155.88 -47.8921 1155.7 -48.0948 1155.56C-48.2975 1155.42 -48.5268 1155.32 -48.7687 1155.27C-49.0055 1155.21 -49.2524 1155.2 -49.4946 1155.23C-49.7369 1155.27 -49.9694 1155.35 -50.1782 1155.48C-50.387 1155.61 -50.5677 1155.78 -50.7097 1155.98C-50.8517 1156.18 -50.952 1156.4 -51.0045 1156.64C-51.0628 1156.88 -51.0729 1157.13 -51.034 1157.37C-50.9951 1157.61 -50.9081 1157.85 -50.7781 1158.05C-50.6481 1158.26 -50.4777 1158.44 -50.2769 1158.59Z" fill="#101950"/>
<path d="M-40.365 1129.8C-40.2311 1130.27 -39.9217 1130.67 -39.501 1130.92C-39.1189 1131.12 -38.6835 1131.2 -38.255 1131.14C-37.9799 1131.09 -37.719 1130.98 -37.4904 1130.82C-37.2617 1130.66 -37.0705 1130.45 -36.9297 1130.21C-36.6945 1129.77 -36.6376 1129.26 -36.7711 1128.79C-36.9046 1128.31 -37.2181 1127.91 -37.645 1127.66C-37.8608 1127.53 -38.1004 1127.45 -38.349 1127.42C-38.5976 1127.39 -38.8502 1127.41 -39.0911 1127.48C-39.3321 1127.55 -39.5564 1127.66 -39.7505 1127.82C-39.9446 1127.98 -40.1044 1128.18 -40.22 1128.4C-40.4469 1128.83 -40.4988 1129.33 -40.365 1129.8Z" fill="#101950"/>
<path d="M296.03 1071.56C296.412 1071.86 296.898 1072 297.382 1071.95L297.509 1071.99C297.98 1071.9 298.399 1071.64 298.684 1071.25C298.969 1070.87 299.097 1070.39 299.044 1069.91C299.017 1069.67 298.944 1069.44 298.828 1069.22C298.711 1069.01 298.554 1068.82 298.364 1068.67C298.175 1068.52 297.958 1068.41 297.725 1068.34C297.492 1068.27 297.248 1068.25 297.007 1068.28C296.761 1068.3 296.522 1068.37 296.304 1068.49C296.086 1068.6 295.893 1068.76 295.738 1068.95C295.583 1069.15 295.468 1069.37 295.399 1069.61C295.331 1069.84 295.311 1070.09 295.341 1070.34C295.4 1070.82 295.648 1071.26 296.03 1071.56Z" fill="#101950"/>
<path d="M324.849 1064.64C324.811 1064.88 324.823 1065.13 324.884 1065.36C324.995 1065.82 325.275 1066.21 325.666 1066.46C326.057 1066.71 326.529 1066.8 326.986 1066.72L327.143 1066.74C327.38 1066.68 327.603 1066.58 327.801 1066.44C327.998 1066.29 328.165 1066.11 328.293 1065.91C328.42 1065.7 328.505 1065.47 328.543 1065.23C328.58 1064.99 328.57 1064.74 328.513 1064.5C328.457 1064.27 328.355 1064.04 328.212 1063.85C328.069 1063.65 327.889 1063.48 327.681 1063.35C327.474 1063.23 327.243 1063.14 327.003 1063.1C326.762 1063.07 326.516 1063.08 326.28 1063.13C326.039 1063.18 325.811 1063.28 325.609 1063.42C325.407 1063.56 325.235 1063.74 325.105 1063.95C324.974 1064.16 324.887 1064.39 324.849 1064.64Z" fill="#101950"/>
<path d="M266.545 1073.46C266.771 1073.55 267.014 1073.6 267.258 1073.59L267.555 1073.55C267.994 1073.49 268.393 1073.27 268.68 1072.93C268.966 1072.59 269.119 1072.16 269.11 1071.72C269.111 1071.47 269.064 1071.23 268.97 1071C268.877 1070.77 268.739 1070.57 268.565 1070.39C268.391 1070.22 268.185 1070.08 267.957 1069.98C267.73 1069.89 267.486 1069.84 267.24 1069.84C266.994 1069.84 266.75 1069.89 266.524 1069.99C266.298 1070.09 266.094 1070.23 265.923 1070.41C265.753 1070.58 265.62 1070.79 265.531 1071.02C265.443 1071.25 265.402 1071.5 265.409 1071.74C265.405 1071.99 265.45 1072.23 265.542 1072.46C265.633 1072.68 265.769 1072.89 265.941 1073.06C266.114 1073.23 266.319 1073.37 266.545 1073.46Z" fill="#101950"/>
<path d="M353.247 1055.4C353.253 1055.65 353.31 1055.9 353.414 1056.13L353.399 1056.23C353.584 1056.62 353.894 1056.93 354.279 1057.12C354.663 1057.31 355.1 1057.36 355.519 1057.27C355.673 1057.24 355.822 1057.18 355.965 1057.12C356.198 1057.02 356.408 1056.87 356.583 1056.69C356.758 1056.51 356.895 1056.29 356.984 1056.06C357.074 1055.82 357.115 1055.57 357.104 1055.32C357.094 1055.06 357.032 1054.82 356.923 1054.59C356.827 1054.35 356.684 1054.14 356.504 1053.96C356.323 1053.79 356.108 1053.65 355.872 1053.55C355.636 1053.46 355.383 1053.42 355.13 1053.43C354.877 1053.44 354.628 1053.5 354.398 1053.6C354.166 1053.7 353.956 1053.85 353.781 1054.03C353.605 1054.21 353.467 1054.42 353.376 1054.66C353.284 1054.89 353.24 1055.15 353.247 1055.4Z" fill="#101950"/>
<path d="M235.922 1071.76C236.249 1072.14 236.709 1072.37 237.203 1072.4L237.189 1072.51C237.335 1072.47 237.476 1072.42 237.609 1072.35C238.024 1072.29 238.405 1072.09 238.69 1071.78C238.974 1071.47 239.144 1071.07 239.172 1070.65C239.192 1070.41 239.163 1070.16 239.087 1069.93C239.011 1069.69 238.889 1069.48 238.729 1069.29C238.568 1069.11 238.373 1068.96 238.153 1068.85C237.933 1068.74 237.694 1068.67 237.45 1068.66C237.203 1068.64 236.955 1068.67 236.72 1068.75C236.485 1068.82 236.267 1068.95 236.081 1069.11C235.895 1069.27 235.744 1069.47 235.636 1069.7C235.528 1069.92 235.467 1070.16 235.455 1070.41C235.428 1070.9 235.595 1071.39 235.922 1071.76Z" fill="#101950"/>
<path d="M379.364 1040.45C379.297 1040.94 379.422 1041.43 379.712 1041.83L379.698 1041.93C379.92 1042.19 380.21 1042.38 380.535 1042.48C380.859 1042.58 381.206 1042.59 381.535 1042.5C381.816 1042.45 382.085 1042.34 382.323 1042.18C382.715 1041.88 382.973 1041.44 383.04 1040.95C383.107 1040.46 382.978 1039.97 382.681 1039.57C382.381 1039.18 381.938 1038.92 381.449 1038.86C380.96 1038.79 380.464 1038.92 380.07 1039.21C379.684 1039.52 379.431 1039.96 379.364 1040.45Z" fill="#101950"/>
<path d="M206.042 1068.91C206.353 1069.29 206.802 1069.53 207.292 1069.58L207.277 1069.69C207.456 1069.68 207.632 1069.64 207.798 1069.57C208.2 1069.51 208.569 1069.32 208.85 1069.02C209.131 1068.73 209.307 1068.35 209.351 1067.95C209.404 1067.46 209.264 1066.97 208.959 1066.58C208.655 1066.19 208.211 1065.93 207.721 1065.86C207.222 1065.82 206.724 1065.97 206.333 1066.28C205.942 1066.59 205.69 1067.05 205.629 1067.55C205.582 1068.04 205.731 1068.52 206.042 1068.91Z" fill="#101950"/>
<path d="M-22.3918 1105.35C-22.3903 1105.85 -22.1932 1106.32 -21.8431 1106.68L-21.8574 1106.78C-21.6361 1106.99 -21.3668 1107.13 -21.0745 1107.2C-20.7823 1107.28 -20.4765 1107.28 -20.1853 1107.2C-19.8054 1107.15 -19.4533 1106.97 -19.1856 1106.7C-19.0068 1106.52 -18.8649 1106.32 -18.7681 1106.09C-18.6714 1105.86 -18.6218 1105.61 -18.6226 1105.36C-18.6233 1105.12 -18.6742 1104.87 -18.7723 1104.64C-18.8704 1104.41 -19.0136 1104.21 -19.1934 1104.04C-19.5457 1103.68 -20.0215 1103.49 -20.5185 1103.48C-21.0154 1103.48 -21.4937 1103.67 -21.8509 1104.02C-22.1989 1104.37 -22.3932 1104.85 -22.3918 1105.35Z" fill="#101950"/>
<path d="M176.747 1065.9C176.96 1066.03 177.196 1066.1 177.44 1066.13L177.426 1066.24C177.617 1066.23 177.804 1066.18 177.977 1066.1C178.38 1066.04 178.752 1065.85 179.033 1065.56C179.315 1065.26 179.489 1064.88 179.529 1064.48C179.562 1064.23 179.546 1063.99 179.482 1063.75C179.417 1063.51 179.305 1063.29 179.152 1063.1C179 1062.91 178.81 1062.75 178.594 1062.63C178.378 1062.51 178.14 1062.44 177.896 1062.42C177.652 1062.39 177.404 1062.41 177.168 1062.47C176.931 1062.54 176.709 1062.65 176.516 1062.8C176.322 1062.95 176.16 1063.14 176.039 1063.35C175.918 1063.57 175.84 1063.8 175.81 1064.05C175.781 1064.29 175.799 1064.54 175.865 1064.78C175.93 1065.01 176.042 1065.23 176.193 1065.43C176.345 1065.62 176.533 1065.78 176.747 1065.9Z" fill="#101950"/>
<path d="M1.07378 1086.44C0.967558 1086.93 1.05788 1087.43 1.32476 1087.85C1.51221 1088.16 1.78975 1088.41 2.12076 1088.56C2.45178 1088.71 2.82057 1088.75 3.17816 1088.69C3.4304 1088.67 3.67314 1088.59 3.87743 1088.44C4.08837 1088.31 4.27146 1088.14 4.41597 1087.94C4.56048 1087.74 4.66347 1087.51 4.71875 1087.27C4.77402 1087.03 4.78045 1086.78 4.73775 1086.54C4.69506 1086.3 4.60403 1086.07 4.47012 1085.86C4.20674 1085.44 3.7871 1085.14 3.30348 1085.03C2.81986 1084.92 2.31192 1085 1.89132 1085.27C1.47409 1085.53 1.18001 1085.96 1.07378 1086.44Z" fill="#101950"/>
<path d="M146.971 1062.97C147.192 1063.09 147.433 1063.15 147.681 1063.17C147.841 1063.19 148.003 1063.19 148.162 1063.16C148.568 1063.09 148.94 1062.89 149.217 1062.58C149.495 1062.28 149.663 1061.89 149.695 1061.48C149.726 1061.23 149.706 1060.98 149.636 1060.75C149.567 1060.51 149.449 1060.29 149.291 1060.1C149.133 1059.9 148.937 1059.75 148.716 1059.63C148.495 1059.52 148.254 1059.46 148.006 1059.44C147.761 1059.42 147.514 1059.44 147.279 1059.51C147.044 1059.59 146.825 1059.7 146.636 1059.86C146.446 1060.02 146.289 1060.21 146.174 1060.43C146.059 1060.65 145.989 1060.88 145.966 1061.13C145.942 1061.38 145.968 1061.63 146.042 1061.86C146.115 1062.1 146.235 1062.32 146.395 1062.51C146.555 1062.7 146.75 1062.86 146.971 1062.97Z" fill="#101950"/>
<path d="M116.567 1060.9C116.91 1061.26 117.382 1061.47 117.88 1061.49C117.996 1061.5 118.112 1061.49 118.227 1061.48C118.656 1061.4 119.044 1061.17 119.327 1060.84C119.609 1060.5 119.77 1060.08 119.782 1059.64C119.786 1059.4 119.741 1059.16 119.65 1058.93C119.559 1058.7 119.424 1058.49 119.252 1058.32C119.081 1058.15 118.876 1058.01 118.65 1057.91C118.425 1057.82 118.182 1057.77 117.937 1057.77C117.449 1057.76 116.976 1057.94 116.62 1058.27C116.265 1058.61 116.058 1059.07 116.043 1059.56C116.035 1060.06 116.223 1060.54 116.567 1060.9Z" fill="#101950"/>
<path d="M27.7827 1073.41C27.7851 1073.66 27.8385 1073.92 27.9397 1074.15C28.088 1074.56 28.3778 1074.91 28.7572 1075.12C29.1367 1075.34 29.5812 1075.42 30.0113 1075.34C30.1454 1075.32 30.2763 1075.29 30.3983 1075.23C30.6402 1075.14 30.8617 1075.01 31.0493 1074.83C31.2369 1074.66 31.3864 1074.45 31.4885 1074.21C31.5906 1073.98 31.6432 1073.72 31.643 1073.46C31.6427 1073.21 31.5897 1072.95 31.4872 1072.72C31.395 1072.48 31.2566 1072.26 31.0802 1072.08C30.9037 1071.9 30.6926 1071.75 30.4591 1071.65C30.2256 1071.55 29.9742 1071.49 29.7197 1071.49C29.4652 1071.49 29.2125 1071.53 28.9763 1071.63C28.7405 1071.72 28.5259 1071.86 28.3454 1072.04C28.1649 1072.22 28.0221 1072.43 27.9255 1072.67C27.8288 1072.9 27.7802 1073.16 27.7827 1073.41Z" fill="#101950"/>
<path d="M87.3778 1062.09C87.611 1062.16 87.8569 1062.19 88.1009 1062.17L88.2909 1062.14C88.7423 1062.07 89.1491 1061.83 89.4302 1061.46C89.7114 1061.1 89.8462 1060.65 89.8079 1060.19C89.7945 1059.95 89.7314 1059.71 89.6225 1059.49C89.5135 1059.27 89.361 1059.07 89.174 1058.91C88.987 1058.75 88.7694 1058.63 88.5346 1058.56C88.2998 1058.48 88.0525 1058.46 87.8078 1058.48C87.5648 1058.5 87.3271 1058.56 87.1088 1058.67C86.8905 1058.78 86.696 1058.93 86.5369 1059.11C86.3777 1059.29 86.2571 1059.51 86.1822 1059.74C86.1073 1059.97 86.0797 1060.22 86.1009 1060.46C86.1178 1060.7 86.1833 1060.94 86.2934 1061.16C86.4035 1061.38 86.5561 1061.57 86.7423 1061.73C86.9285 1061.89 87.1445 1062.01 87.3778 1062.09Z" fill="#101950"/>
<path d="M56.8488 1063.72C56.582 1064.15 56.4918 1064.66 56.5979 1065.14C56.7171 1065.62 57.0158 1066.03 57.4314 1066.29C57.847 1066.55 58.3473 1066.64 58.8273 1066.54C59.0696 1066.49 59.2991 1066.39 59.5024 1066.24C59.7057 1066.1 59.8786 1065.92 60.0113 1065.71C60.1439 1065.5 60.2336 1065.27 60.2751 1065.02C60.3166 1064.78 60.3091 1064.53 60.253 1064.29C60.1399 1063.81 59.8424 1063.39 59.425 1063.13C59.0077 1062.87 58.5042 1062.78 58.0237 1062.89C57.5377 1063 57.1157 1063.3 56.8488 1063.72Z" fill="#101950"/>
<path d="M407.364 1020.45C407.297 1020.94 407.422 1021.43 407.712 1021.83L407.698 1021.93C407.92 1022.19 408.21 1022.38 408.535 1022.48C408.86 1022.58 409.206 1022.59 409.535 1022.5C409.817 1022.45 410.085 1022.34 410.323 1022.18C410.715 1021.88 410.973 1021.44 411.04 1020.95C411.107 1020.46 410.978 1019.97 410.681 1019.57C410.381 1019.18 409.938 1018.92 409.449 1018.86C408.96 1018.79 408.465 1018.92 408.07 1019.21C407.684 1019.52 407.431 1019.96 407.364 1020.45Z" fill="#101950"/>
</svg>
