<svg width="154" height="135" viewBox="0 0 154 135" fill="none" xmlns="http://www.w3.org/2000/svg">
<g clip-path="url(#clip0_159_1211)">
<g opacity="0.5">
<path opacity="0.5" d="M5.98456 2.99531C5.98046 3.58276 5.80155 4.15578 5.47027 4.64225C5.13898 5.12872 4.67019 5.50687 4.12307 5.72886C3.57595 5.95085 2.97497 6.00685 2.39589 5.88975C1.81682 5.77264 1.28551 5.48753 0.869106 5.07069C0.4527 4.65385 0.169779 4.12379 0.0559948 3.54731C-0.0577899 2.97084 0.00267409 2.37389 0.229753 1.83153C0.456831 1.28917 0.840415 0.825772 1.33204 0.499806C1.82366 0.173841 2.40131 1.41664e-05 2.99225 8.67551e-10C3.38696 -9.46091e-06 3.77782 0.077431 4.14222 0.228216C4.50663 0.379002 4.83739 0.600147 5.11552 0.87857C5.39365 1.15699 5.61359 1.48714 5.76274 1.85044C5.91189 2.21375 5.9873 2.60292 5.98456 2.99531Z" fill="#9B9B9B"/>
<path opacity="0.5" d="M42.994 2.99538C42.994 3.58869 42.8168 4.16871 42.4847 4.66174C42.1527 5.15477 41.6808 5.53864 41.1291 5.76474C40.5773 5.99084 39.9704 6.04894 39.3854 5.93168C38.8003 5.81442 38.2635 5.52705 37.843 5.10607C37.4224 4.68508 37.1371 4.14946 37.0232 3.56705C36.9093 2.98465 36.9719 2.38159 37.2031 1.83463C37.4344 1.28766 37.8238 0.821225 38.322 0.494582C38.8203 0.16794 39.4049 -0.00402045 40.0017 7.13602e-05C40.7972 0.00552561 41.5583 0.323283 42.1188 0.884441C42.6794 1.4456 42.994 2.20451 42.994 2.99538Z" fill="#9B9B9B"/>
<path opacity="0.5" d="M79.9815 2.99531C79.9774 3.58276 79.7985 4.15578 79.4672 4.64225C79.136 5.12872 78.6672 5.50687 78.1201 5.72886C77.5729 5.95085 76.9719 6.00685 76.3929 5.88975C75.8138 5.77264 75.2826 5.48753 74.8662 5.07069C74.4498 4.65385 74.1669 4.12379 74.0531 3.54731C73.9393 2.97084 73.9996 2.37389 74.2267 1.83153C74.4538 1.28917 74.8374 0.825772 75.329 0.499806C75.8206 0.173841 76.3983 1.41664e-05 76.9892 8.67551e-10C77.3839 -9.46091e-06 77.7748 0.077431 78.1392 0.228216C78.5036 0.379002 78.8344 0.600147 79.1125 0.87857C79.3906 1.15699 79.6107 1.48714 79.7598 1.85044C79.909 2.21374 79.9843 2.60292 79.9815 2.99531Z" fill="#9B9B9B"/>
<path opacity="0.5" d="M116.991 2.99531C116.991 3.58774 116.814 4.1668 116.483 4.6594C116.152 5.15199 115.682 5.53594 115.131 5.76265C114.58 5.98937 113.975 6.0487 113.39 5.93312C112.806 5.81754 112.269 5.53222 111.847 5.11331C111.426 4.69439 111.139 4.16065 111.023 3.57959C110.906 2.99854 110.966 2.39627 111.194 1.84893C111.422 1.30159 111.808 0.833738 112.304 0.504598C112.799 0.175458 113.382 0 113.978 0C114.777 0 115.543 0.315561 116.109 0.877309C116.674 1.43906 116.991 2.20088 116.991 2.99531Z" fill="#9B9B9B"/>
<path opacity="0.5" d="M150.986 5.9495C152.639 5.9495 153.979 4.61766 153.979 2.97475C153.979 1.33184 152.639 0 150.986 0C149.334 0 147.994 1.33184 147.994 2.97475C147.994 4.61766 149.334 5.9495 150.986 5.9495Z" fill="#9B9B9B"/>
<path opacity="0.5" d="M5.98456 35.2425C5.98456 35.8308 5.80908 36.406 5.48029 36.8952C5.15149 37.3844 4.68418 37.7657 4.1374 37.9909C3.59063 38.216 2.9889 38.2749 2.40845 38.1601C1.828 38.0453 1.29482 37.7619 0.876335 37.3458C0.457853 36.9298 0.172975 36.3997 0.0575166 35.8227C-0.0579423 35.2457 0.00124245 34.6477 0.227723 34.1041C0.454204 33.5606 0.837798 33.096 1.32988 32.7691C1.82196 32.4423 2.40043 32.2678 2.99225 32.2678C3.78586 32.2678 4.547 32.5812 5.10816 33.1391C5.66933 33.697 5.98456 34.4535 5.98456 35.2425Z" fill="#9B9B9B"/>
<path opacity="0.5" d="M42.9938 35.2425C42.9979 35.8367 42.8242 36.4187 42.4948 36.9144C42.1653 37.4102 41.6949 37.7972 41.1435 38.0265C40.5921 38.2558 39.9845 38.3169 39.3981 38.202C38.8116 38.0871 38.2728 37.8014 37.8502 37.3812C37.4276 36.961 37.1403 36.4254 37.0247 35.8424C36.9091 35.2595 36.9705 34.6554 37.2011 34.1072C37.4317 33.5591 37.8211 33.0915 38.3197 32.7639C38.8184 32.4364 39.4038 32.2638 40.0015 32.2679C40.7934 32.2733 41.5515 32.5882 42.1115 33.1449C42.6715 33.7017 42.9884 34.4552 42.9938 35.2425Z" fill="#9B9B9B"/>
<path opacity="0.5" d="M79.9816 35.2425C79.9816 35.8308 79.8062 36.406 79.4774 36.8952C79.1486 37.3844 78.6812 37.7657 78.1345 37.9909C77.5877 38.216 76.9861 38.2749 76.4056 38.1601C75.8252 38.0453 75.292 37.7619 74.8735 37.3458C74.4551 36.9298 74.17 36.3997 74.0546 35.8227C73.9391 35.2457 73.9983 34.6477 74.2248 34.1041C74.4513 33.5606 74.8349 33.096 75.327 32.7691C75.819 32.4423 76.3975 32.2678 76.9893 32.2678C77.7829 32.2678 78.5441 32.5812 79.1052 33.1391C79.6664 33.697 79.9816 34.4535 79.9816 35.2425Z" fill="#9B9B9B"/>
<path opacity="0.5" d="M116.991 35.2425C116.995 35.8357 116.822 36.417 116.493 36.9123C116.165 37.4076 115.696 37.7948 115.145 38.0247C114.595 38.2546 113.989 38.3167 113.403 38.2035C112.817 38.0902 112.278 37.8065 111.855 37.3884C111.431 36.9704 111.142 36.4368 111.024 35.8552C110.906 35.2736 110.965 34.6701 111.192 34.1215C111.42 33.573 111.806 33.104 112.302 32.7739C112.798 32.4439 113.381 32.2678 113.978 32.2678C114.773 32.2678 115.537 32.5805 116.101 33.1378C116.666 33.6951 116.985 34.4516 116.991 35.2425Z" fill="#9B9B9B"/>
<path opacity="0.5" d="M150.986 38.2173C152.639 38.2173 153.979 36.8855 153.979 35.2426C153.979 33.5997 152.639 32.2678 150.986 32.2678C149.334 32.2678 147.994 33.5997 147.994 35.2426C147.994 36.8855 149.334 38.2173 150.986 38.2173Z" fill="#9B9B9B"/>
<path opacity="0.5" d="M5.98456 67.5103C5.98046 68.0977 5.80155 68.6708 5.47026 69.1572C5.13898 69.6437 4.67019 70.0218 4.12307 70.2438C3.57595 70.4658 2.97497 70.5218 2.39589 70.4047C1.81682 70.2876 1.28551 70.0028 0.869106 69.5859C0.4527 69.1691 0.169779 68.639 0.0559948 68.0625C-0.0577899 67.4861 0.00267409 66.8889 0.229753 66.3465C0.456831 65.8041 0.840415 65.3407 1.33204 65.0148C1.82366 64.6888 2.40131 64.515 2.99225 64.515C3.38774 64.5122 3.77985 64.5878 4.14552 64.7376C4.51119 64.8874 4.84304 65.1083 5.12173 65.3872C5.40043 65.6662 5.62029 65.9978 5.76844 66.3624C5.9166 66.7269 5.9901 67.1171 5.98456 67.5103Z" fill="#9B9B9B"/>
<path opacity="0.5" d="M42.994 67.5103C42.994 68.1036 42.8168 68.6836 42.4847 69.1766C42.1527 69.6697 41.6808 70.0535 41.129 70.2796C40.5773 70.5057 39.9704 70.5638 39.3854 70.4466C38.8003 70.3293 38.2635 70.0419 37.843 69.621C37.4224 69.2 37.1371 68.6644 37.0232 68.0819C36.9093 67.4995 36.9719 66.8965 37.2031 66.3495C37.4344 65.8026 37.8238 65.3364 38.322 65.0097C38.8203 64.6831 39.4049 64.5109 40.0017 64.515C40.3964 64.515 40.7872 64.5924 41.1516 64.7432C41.516 64.894 41.8468 65.1151 42.1249 65.3935C42.4031 65.672 42.623 66.0024 42.7721 66.3657C42.9213 66.729 42.9967 67.1179 42.994 67.5103Z" fill="#9B9B9B"/>
<path opacity="0.5" d="M79.9815 67.5103C79.9774 68.0977 79.7985 68.6708 79.4672 69.1572C79.136 69.6437 78.6672 70.0218 78.12 70.2438C77.5729 70.4658 76.9719 70.5218 76.3929 70.4047C75.8138 70.2876 75.2826 70.0028 74.8662 69.5859C74.4498 69.1691 74.1669 68.639 74.0531 68.0625C73.9393 67.4861 73.9996 66.8889 74.2267 66.3465C74.4538 65.8041 74.8374 65.3407 75.329 65.0148C75.8206 64.6888 76.3983 64.515 76.9892 64.515C77.3847 64.5122 77.7768 64.5878 78.1425 64.7376C78.5082 64.8874 78.8401 65.1083 79.1188 65.3872C79.3975 65.6662 79.6174 65.9978 79.7655 66.3624C79.9137 66.7269 79.9871 67.1171 79.9815 67.5103Z" fill="#9B9B9B"/>
<path opacity="0.5" d="M116.991 67.5103C116.991 68.1027 116.814 68.6818 116.483 69.1744C116.152 69.667 115.682 70.0509 115.131 70.2776C114.58 70.5043 113.975 70.5637 113.39 70.4481C112.806 70.3325 112.269 70.0472 111.847 69.6283C111.426 69.2094 111.139 68.6756 111.023 68.0946C110.906 67.5135 110.966 66.9112 111.194 66.3639C111.422 65.8166 111.808 65.349 112.304 65.0198C112.799 64.6907 113.382 64.515 113.978 64.515C114.374 64.5122 114.768 64.5878 115.134 64.7374C115.501 64.8869 115.834 65.1075 116.115 65.3862C116.395 65.6649 116.617 65.9962 116.767 66.3609C116.918 66.7255 116.994 67.1161 116.991 67.5103Z" fill="#9B9B9B"/>
<path opacity="0.5" d="M153.979 67.5103C153.916 68.2591 153.572 68.9571 153.016 69.4659C152.46 69.9747 151.732 70.2572 150.976 70.2572C150.22 70.2572 149.492 69.9747 148.936 69.4659C148.379 68.9571 148.036 68.2591 147.973 67.5103C147.939 67.0974 147.991 66.6819 148.126 66.29C148.261 65.8981 148.477 65.5383 148.759 65.2334C149.041 64.9286 149.384 64.6852 149.765 64.5188C150.147 64.3523 150.559 64.2664 150.976 64.2664C151.393 64.2664 151.805 64.3523 152.187 64.5188C152.568 64.6852 152.911 64.9286 153.193 65.2334C153.475 65.5383 153.691 65.8981 153.826 66.29C153.961 66.6819 154.013 67.0974 153.979 67.5103Z" fill="#9B9B9B"/>
<path opacity="0.5" d="M5.98456 99.7574C5.98456 100.346 5.80908 100.921 5.48029 101.41C5.15149 101.899 4.68418 102.281 4.1374 102.506C3.59063 102.731 2.9889 102.79 2.40845 102.675C1.828 102.56 1.29482 102.277 0.876335 101.861C0.457853 101.445 0.172975 100.915 0.0575166 100.338C-0.0579423 99.7608 0.00124245 99.1626 0.227723 98.619C0.454204 98.0755 0.837798 97.6109 1.32988 97.284C1.82196 96.9572 2.40043 96.7827 2.99225 96.7827C3.78586 96.7827 4.547 97.0961 5.10816 97.654C5.66933 98.2119 5.98456 98.9684 5.98456 99.7574Z" fill="#9B9B9B"/>
<path opacity="0.5" d="M42.9938 99.7574C42.9979 100.352 42.8242 100.934 42.4948 101.429C42.1653 101.925 41.6949 102.312 41.1435 102.541C40.5921 102.771 39.9845 102.832 39.3981 102.717C38.8116 102.602 38.2728 102.316 37.8502 101.896C37.4276 101.476 37.1403 100.94 37.0247 100.357C36.9091 99.7744 36.9705 99.1706 37.2011 98.6224C37.4317 98.0742 37.8211 97.6064 38.3197 97.2788C38.8184 96.9512 39.4038 96.7787 40.0015 96.7828C40.7934 96.7882 41.5515 97.1034 42.1115 97.6601C42.6715 98.2168 42.9884 98.9701 42.9938 99.7574Z" fill="#9B9B9B"/>
<path opacity="0.5" d="M79.9816 99.7574C79.9816 100.346 79.8062 100.921 79.4774 101.41C79.1486 101.899 78.6812 102.281 78.1345 102.506C77.5877 102.731 76.9861 102.79 76.4056 102.675C75.8252 102.56 75.292 102.277 74.8735 101.861C74.4551 101.445 74.17 100.915 74.0546 100.338C73.9391 99.7608 73.9983 99.1626 74.2248 98.619C74.4513 98.0755 74.8349 97.6109 75.327 97.284C75.819 96.9572 76.3975 96.7827 76.9893 96.7827C77.7829 96.7827 78.5441 97.0961 79.1052 97.654C79.6664 98.2119 79.9816 98.9684 79.9816 99.7574Z" fill="#9B9B9B"/>
<path opacity="0.5" d="M116.991 99.7573C116.995 100.351 116.822 100.932 116.493 101.427C116.165 101.923 115.696 102.31 115.145 102.54C114.595 102.769 113.989 102.832 113.403 102.718C112.817 102.605 112.278 102.321 111.855 101.903C111.431 101.485 111.142 100.952 111.024 100.37C110.906 99.7885 110.965 99.1852 111.192 98.6367C111.42 98.0881 111.806 97.6189 112.302 97.2888C112.798 96.9588 113.381 96.7827 113.978 96.7827C114.773 96.7827 115.537 97.0954 116.101 97.6527C116.666 98.21 116.985 98.9665 116.991 99.7573Z" fill="#9B9B9B"/>
<path opacity="0.5" d="M153.979 99.7574C153.983 100.352 153.81 100.934 153.48 101.429C153.151 101.925 152.68 102.312 152.129 102.541C151.577 102.771 150.97 102.832 150.384 102.717C149.797 102.602 149.258 102.316 148.836 101.896C148.413 101.476 148.126 100.94 148.01 100.357C147.894 99.7744 147.956 99.1706 148.186 98.6224C148.417 98.0742 148.807 97.6064 149.305 97.2788C149.804 96.9512 150.389 96.7787 150.987 96.7828C151.38 96.7828 151.769 96.8597 152.132 97.0092C152.495 97.1587 152.825 97.3778 153.103 97.654C153.381 97.9303 153.601 98.2582 153.752 98.6191C153.902 98.98 153.979 99.3668 153.979 99.7574Z" fill="#9B9B9B"/>
<path opacity="0.5" d="M5.98456 132.025C5.98046 132.613 5.80155 133.186 5.47026 133.672C5.13898 134.159 4.67019 134.537 4.12307 134.759C3.57595 134.981 2.97497 135.037 2.39589 134.92C1.81682 134.802 1.28551 134.518 0.869106 134.101C0.4527 133.684 0.169779 133.154 0.0559948 132.577C-0.0577899 132.001 0.00267409 131.404 0.229753 130.861C0.456831 130.319 0.840415 129.856 1.33204 129.53C1.82366 129.204 2.40131 129.03 2.99225 129.03C3.38774 129.027 3.77985 129.103 4.14552 129.253C4.51119 129.402 4.84304 129.623 5.12173 129.902C5.40043 130.181 5.62029 130.513 5.76844 130.877C5.9166 131.242 5.9901 131.632 5.98456 132.025Z" fill="#9B9B9B"/>
<path opacity="0.5" d="M42.994 132.025C42.994 132.618 42.8168 133.198 42.4847 133.692C42.1527 134.185 41.6808 134.568 41.129 134.795C40.5773 135.021 39.9704 135.079 39.3854 134.961C38.8003 134.844 38.2635 134.557 37.843 134.136C37.4224 133.715 37.1371 133.179 37.0232 132.597C36.9093 132.014 36.9719 131.412 37.2031 130.865C37.4344 130.318 37.8238 129.851 38.322 129.525C38.8203 129.198 39.4049 129.026 40.0017 129.03C40.3964 129.03 40.7872 129.108 41.1516 129.258C41.516 129.409 41.8468 129.63 42.1249 129.908C42.4031 130.187 42.623 130.517 42.7721 130.881C42.9213 131.244 42.9967 131.633 42.994 132.025Z" fill="#9B9B9B"/>
<path opacity="0.5" d="M79.9815 132.025C79.9774 132.613 79.7985 133.186 79.4672 133.672C79.136 134.159 78.6672 134.537 78.12 134.759C77.5729 134.981 76.9719 135.037 76.3929 134.92C75.8138 134.802 75.2826 134.518 74.8662 134.101C74.4498 133.684 74.1669 133.154 74.0531 132.577C73.9393 132.001 73.9996 131.404 74.2267 130.861C74.4538 130.319 74.8374 129.856 75.329 129.53C75.8206 129.204 76.3983 129.03 76.9892 129.03C77.3847 129.027 77.7768 129.103 78.1425 129.253C78.5082 129.402 78.8401 129.623 79.1188 129.902C79.3975 130.181 79.6174 130.513 79.7655 130.877C79.9137 131.242 79.9871 131.632 79.9815 132.025Z" fill="#9B9B9B"/>
<path opacity="0.5" d="M116.991 132.025C116.991 132.618 116.814 133.197 116.483 133.689C116.152 134.182 115.682 134.566 115.131 134.793C114.58 135.019 113.975 135.079 113.39 134.963C112.806 134.847 112.269 134.562 111.847 134.143C111.426 133.724 111.139 133.191 111.023 132.61C110.906 132.029 110.966 131.426 111.194 130.879C111.422 130.332 111.808 129.864 112.304 129.535C112.799 129.206 113.382 129.03 113.978 129.03C114.374 129.027 114.768 129.103 115.134 129.252C115.501 129.402 115.834 129.622 116.115 129.901C116.395 130.18 116.617 130.511 116.767 130.876C116.918 131.24 116.994 131.631 116.991 132.025Z" fill="#9B9B9B"/>
<path opacity="0.5" d="M150.986 135C152.639 135 153.979 133.668 153.979 132.025C153.979 130.382 152.639 129.051 150.986 129.051C149.334 129.051 147.994 130.382 147.994 132.025C147.994 133.668 149.334 135 150.986 135Z" fill="#9B9B9B"/>
</g>
</g>
<defs>
<clipPath id="clip0_159_1211">
<rect width="154" height="135" fill="white"/>
</clipPath>
</defs>
</svg>
