<svg width="161" height="134" viewBox="0 0 161 134" fill="none" xmlns="http://www.w3.org/2000/svg">
<g clip-path="url(#clip0_159_1438)">
<path d="M161 112.318C160.483 112.64 160.58 113.233 160.433 113.701C158.84 118.553 154.55 121.945 149.432 122.029C142.465 122.146 135.494 122.087 128.523 122.075C126.918 122.075 125.917 121.135 125.905 119.781C125.892 118.427 126.96 117.416 128.64 117.408C135.036 117.383 141.431 117.236 147.818 117.449C153.344 117.629 156.369 113.651 156.344 108.93C156.214 83.6549 156.269 58.3716 156.315 33.1093C156.315 31.6886 155.97 31.3418 154.542 31.3418C105.176 31.3836 55.8098 31.3836 6.44179 31.3418C4.95848 31.3418 4.67268 31.7597 4.69369 33.1385C4.77353 38.1902 4.73153 43.246 4.72313 48.3018C4.72313 50.2071 3.79029 51.3436 2.30698 51.3018C0.823667 51.2601 0.0126953 50.1737 0.0126953 48.3394C0.0126953 36.3029 0.0126953 24.2651 0.0126953 12.2258C0.0337054 5.26468 5.20218 0.0375493 12.1985 0.0333709C51.1876 -5.5938e-05 90.1766 -5.5938e-05 129.166 0.0333709C131.048 0.0333709 132.065 0.869042 132.065 2.344C132.065 3.81896 131.006 4.71314 129.027 4.71732H12.6859C8.45449 4.71732 5.43326 7.04048 4.81977 10.847C4.6856 12.0958 4.64907 13.3531 4.71051 14.6075C4.71051 18.1507 4.76931 21.7107 4.67686 25.2372C4.64325 26.4907 5.0215 26.7414 6.21907 26.7414C32.4732 26.708 58.7274 26.6997 84.9815 26.7164C108.199 26.7164 131.415 26.7289 154.63 26.754C156.05 26.754 156.311 26.3779 156.311 25.0492C156.218 20.8291 156.311 16.6089 156.273 12.3888C156.273 7.82184 153.184 4.77581 148.583 4.7382C146.117 4.71313 143.654 4.7382 141.192 4.7382C139.347 4.7382 138.322 3.83986 138.33 2.35236C138.339 0.864866 139.322 0.0667968 141.234 0.0584401C143.856 0.0584401 146.478 0.0166565 149.096 0.0584401C154.878 0.179613 159.449 3.96103 160.706 9.61435C160.752 9.81491 160.752 10.0322 160.996 10.099L161 112.318Z" fill="white"/>
<path d="M46.8102 11.3483C47.9703 11.3392 49.0873 11.7849 49.9194 12.5889C50.7515 13.3928 51.2317 14.4903 51.2559 15.6436C51.2505 16.7987 50.7889 17.9054 49.9707 18.7252C49.1525 19.5451 48.0432 20.0125 46.8817 20.0267C45.7474 20.0043 44.6643 19.5528 43.8531 18.764C43.0419 17.9753 42.5636 16.9087 42.5157 15.7815C42.5075 14.6313 42.9523 13.5235 43.7548 12.695C44.5573 11.8665 45.6539 11.3832 46.8102 11.3483Z" fill="#2F9FEE"/>
<path d="M37.7715 15.8275C37.7335 16.9531 37.2593 18.0205 36.4479 18.8063C35.6365 19.5922 34.5509 20.0354 33.4182 20.0434C32.2612 20.0183 31.1599 19.5439 30.3502 18.7215C29.5406 17.8992 29.0868 16.7945 29.0859 15.6436C29.108 14.4892 29.5891 13.3905 30.4238 12.5878C31.2585 11.7852 32.3791 11.344 33.5401 11.3608C34.113 11.3776 34.6768 11.5064 35.1996 11.74C35.7223 11.9736 36.1937 12.3074 36.5867 12.7222C36.9796 13.137 37.2866 13.6248 37.4899 14.1576C37.6932 14.6904 37.7888 15.2579 37.7715 15.8275Z" fill="#2F9FEE"/>
<path d="M15.6779 15.7106C15.6724 15.1396 15.7807 14.573 15.9965 14.0438C16.2123 13.5146 16.5313 13.0331 16.9353 12.6271C17.3392 12.2211 17.82 11.8988 18.3499 11.6786C18.8799 11.4584 19.4484 11.3448 20.0228 11.3442C21.156 11.356 22.2401 11.8063 23.045 12.5996C23.8499 13.393 24.3122 14.4669 24.334 15.5936C24.3474 16.1649 24.2475 16.7331 24.04 17.266C23.8325 17.7988 23.5214 18.2858 23.1245 18.699C22.7276 19.1123 22.2528 19.4437 21.727 19.6744C21.2013 19.9051 20.6351 20.0306 20.0606 20.0436C18.9023 20.0447 17.7906 19.5893 16.9692 18.7772C16.1478 17.9651 15.6835 16.8624 15.6779 15.7106Z" fill="#2F9FEE"/>
<path d="M117.862 117.625C117.215 117.404 116.528 117.327 115.849 117.399C107.151 117.399 98.4526 117.303 89.7586 117.458C87.3845 117.504 85.6827 116.869 84.233 115.064C83.6952 114.395 83.5775 114.098 84.233 113.472C86.4979 111.303 88.6997 109.072 90.9142 106.853C93.4732 104.292 92.8724 101.421 89.4981 100.168C76.0909 95.2122 62.6823 90.2567 49.2723 85.3011C47.4949 84.6409 45.9106 84.5657 44.482 85.9446C42.9987 87.3861 43.129 89.0742 43.8055 90.8542C45.6334 95.6593 47.4318 100.464 49.2345 105.295C50.722 109.272 52.2011 113.233 53.7432 117.412H52.3188C39.1525 117.412 26.0001 117.412 12.8618 117.412C7.64294 117.412 4.73101 114.487 4.73101 109.251C4.73101 92.8946 4.73101 76.5349 4.73101 60.1725C4.73101 58.2295 3.8612 57.1724 2.31906 57.2058C0.844156 57.2351 0.0205739 58.2546 0.0205739 60.1307C0.0205739 76.7522 0.0205739 93.3723 0.0205739 109.991C0.0165962 111.189 0.192206 112.38 0.541619 113.526C2.172 118.891 6.71433 122.1 12.7946 122.108C26.5716 122.125 40.3515 122.118 54.1341 122.087C55.2014 122.087 55.6846 122.372 56.0292 123.399C56.8696 125.957 57.8738 128.476 58.8445 130.996C60.0295 134.075 62.9204 134.685 65.2903 132.362C67.5678 130.131 69.8453 127.904 72.0556 125.61C72.7279 124.912 73.0767 124.904 73.7364 125.61C76.0643 128.014 78.4328 130.381 80.842 132.713C82.6068 134.418 84.7499 134.518 86.4601 132.939C88.2628 131.267 89.9982 129.529 91.679 127.741C92.9396 126.42 93.0194 124.866 92.2168 123.257C92.0445 122.915 91.5655 122.672 91.7966 122.146H115.685C116.26 122.172 116.837 122.15 117.408 122.079C117.909 122.02 118.372 121.784 118.712 121.413C119.053 121.042 119.247 120.563 119.261 120.061C119.353 119.556 119.263 119.035 119.007 118.59C118.751 118.144 118.346 117.802 117.862 117.625ZM86.7206 126.061C85.6953 126.938 84.7498 128.656 83.7792 128.647C82.8085 128.639 81.8126 126.976 80.8378 126.036C78.9763 124.202 77.1316 122.351 75.2785 120.512C73.4254 118.674 72.4253 118.607 70.5512 120.475C68.03 122.982 65.5383 125.489 62.8196 128.209C58.0461 115.448 53.3483 102.905 48.5328 90.0394L86.8971 104.246C84.2625 106.857 81.7455 109.339 79.2369 111.83C77.2409 113.81 77.2535 114.721 79.283 116.743C81.7664 119.213 84.212 121.72 86.75 124.126C87.5946 124.916 87.5232 125.372 86.7206 126.061Z" fill="#2F9FEE"/>
</g>
<defs>
<clipPath id="clip0_159_1438">
<rect width="161" height="134" fill="white"/>
</clipPath>
</defs>
</svg>
