<svg width="145" height="135" viewBox="0 0 145 135" fill="none" xmlns="http://www.w3.org/2000/svg">
<g clip-path="url(#clip0_191_18)">
<path d="M145 59.9174C144.174 62.6305 142.847 64.9595 140.191 66.3372C138.587 67.1652 136.881 67.352 135.126 67.352C128.567 67.352 122.002 67.352 115.451 67.352C114.558 67.3215 113.682 67.5964 112.968 68.1307C106.239 73.0284 99.4996 77.9084 92.7511 82.7709C91.8111 83.4474 90.8464 84.0041 89.6227 83.7398C87.7535 83.3311 86.6752 81.6257 87.1399 79.6737C88.0301 75.9458 88.9488 72.2215 89.9384 68.5183C90.2115 67.507 89.9384 67.3273 88.9913 67.352C87.2995 67.3907 85.5864 67.5176 83.93 67.063C79.7163 65.9144 77.2299 62.7608 77.1909 58.138C77.12 46.3765 77.12 34.6126 77.1909 22.8464C77.2299 17.1137 81.0215 13.562 86.8029 13.5408C90.2008 13.5408 93.5988 13.5408 96.9931 13.5408C98.0572 13.5408 98.9687 13.8509 99.3979 14.9044C99.9902 16.3667 98.9262 17.7233 97.1421 17.7515C93.7442 17.7832 90.3498 17.7515 86.9519 17.7515C83.2064 17.7515 81.4187 19.5132 81.4152 23.2763C81.4152 34.7113 81.4152 46.1475 81.4152 57.5848C81.4152 61.4254 83.1603 63.1308 87.0441 63.1414C88.8849 63.1414 90.7258 63.092 92.5631 63.1414C94.4004 63.1907 95.2871 64.1984 94.8756 65.999C93.9641 69.9488 92.9284 73.867 91.9211 77.8838C92.4531 77.9683 92.7723 77.4927 93.1448 77.2249C99.1745 72.8839 105.194 68.5288 111.202 64.1597C112.138 63.4488 113.29 63.076 114.469 63.1026C121.357 63.1343 128.245 63.1238 135.133 63.1026C139.009 63.1026 140.737 61.3761 140.737 57.5319C140.737 46.0946 140.737 34.6584 140.737 23.2235C140.737 19.4956 138.946 17.7197 135.197 17.7127C131.891 17.7127 128.589 17.7127 125.287 17.7127C123.591 17.7127 122.648 16.9692 122.612 15.669C122.573 14.316 123.559 13.5091 125.315 13.5021C128.713 13.5021 132.111 13.4809 135.505 13.5021C140.364 13.5303 143.553 16.0214 144.791 20.7218C144.842 20.8454 144.907 20.9635 144.982 21.0741L145 59.9174Z" fill="#2F9FEE"/>
<path d="M17.9117 128.524C17.9117 129.933 17.9401 131.343 17.9117 132.731C17.8762 134.056 17.0498 134.947 15.8971 134.997C14.7443 135.046 13.7228 134.151 13.698 132.759C13.6436 129.863 13.6436 126.966 13.698 124.07C13.7228 122.661 14.6699 121.766 15.8723 121.797C17.0746 121.829 17.894 122.759 17.9188 124.179C17.9436 125.599 17.9117 127.076 17.9117 128.524Z" fill="#404041"/>
<path d="M63.6345 128.369C63.6345 126.959 63.5955 125.55 63.6345 124.165C63.6735 122.78 64.5106 121.825 65.6988 121.801C66.887 121.776 67.827 122.675 67.827 124.084C67.8837 126.98 67.8837 129.877 67.827 132.773C67.795 134.13 66.9118 134.972 65.7698 134.996C64.6277 135.021 63.6842 134.126 63.6416 132.713C63.5991 131.3 63.6345 129.817 63.6345 128.369Z" fill="#404041"/>
<path d="M81.5037 117.146C81.4541 111.752 78.6662 107.897 73.5942 106.033C70.3736 104.853 67.1424 103.708 63.9218 102.51C62.5315 101.999 60.8502 101.844 60.4955 99.9375C60.4304 99.7608 60.3049 99.6124 60.1409 99.5182C56.7571 97.1997 56.0336 93.9052 56.4698 90.0858C56.4847 89.6792 56.5823 89.2798 56.7566 88.9116C56.9309 88.5434 57.1785 88.2141 57.4842 87.9435C59.6168 86.02 61.3913 83.7383 62.7266 81.203C64.7133 77.4075 65.705 73.1758 65.6102 68.8989C65.5853 66.2774 65.557 63.6981 66.7061 61.2105C67.3502 59.6951 67.6934 58.0704 67.717 56.4256C68.0717 48.2299 67.8234 40.0272 67.866 31.8244C67.866 30.0415 67.0431 29.2875 65.22 29.284C54.7461 29.284 44.2686 29.1747 33.7982 29.3192C24.7962 29.4425 17.2484 34.9815 14.6911 43.3639C12.9744 49.0015 13.1234 54.8048 14.6911 60.4283C15.5171 63.2836 15.9584 66.235 16.0035 69.2054C16.0496 75.139 17.6776 80.7484 21.7849 85.0612C24.4202 87.8377 25.573 90.6143 25.0303 94.247C25.0232 94.2937 25.0232 94.3413 25.0303 94.388C25.1934 95.3499 24.7749 96.0299 24.1223 96.7311C22.9128 98.0278 21.3664 99.0742 20.6677 100.766C20.581 101.02 20.4328 101.249 20.2362 101.434C20.0396 101.618 19.8004 101.751 19.5397 101.823C15.6382 103.207 11.7366 104.599 7.87403 106.033C3.4227 107.682 0.507156 110.822 0.219858 115.547C-0.13483 121.294 0.0850958 127.072 0.106377 132.837C0.0964755 133.12 0.145387 133.403 0.250079 133.667C0.354772 133.93 0.512986 134.17 0.714915 134.371C0.916844 134.571 1.15817 134.729 1.42386 134.833C1.68955 134.937 1.97392 134.985 2.25931 134.975C3.37303 134.94 4.19947 134.102 4.31297 132.861C4.34489 132.509 4.31297 132.114 4.31297 131.737C4.31297 126.864 4.31297 121.988 4.31297 117.115C4.31297 113.591 5.95518 111.234 9.23604 110.022C13.3788 108.493 17.5464 107.034 21.6856 105.498C22.4411 105.216 22.817 105.328 23.2569 106.016C24.7714 108.387 26.3639 110.705 27.9352 113.038C30.1059 116.255 32.9611 116.561 35.6887 113.841C36.5931 112.939 37.4373 111.97 38.3098 111.022C38.6255 115.867 38.6255 120.458 38.6255 125.046C38.6255 127.53 38.5935 130.014 38.6255 132.498C38.6538 134.028 39.5264 134.965 40.7536 134.965C41.9808 134.965 42.8001 134.013 42.8392 132.498C42.8392 131.794 42.8392 131.089 42.8392 130.384V111.315L43.1939 111.079C44.0912 112.034 44.9673 113.017 45.8931 113.936C48.5142 116.523 51.4297 116.244 53.4834 113.232C55.1149 110.824 56.7288 108.407 58.3249 105.98C58.6795 105.452 58.9598 105.212 59.6656 105.476C63.9786 107.087 68.3164 108.63 72.6365 110.216C73.641 110.569 74.5477 111.152 75.2834 111.918C76.0191 112.683 76.5631 113.61 76.8715 114.624C77.1542 115.616 77.2739 116.648 77.2262 117.678C77.2262 122.696 77.2085 127.71 77.2262 132.724C77.2262 134.077 78.0704 134.954 79.2231 135.004C80.3758 135.053 81.2519 134.218 81.4328 132.889C81.4572 132.655 81.4655 132.42 81.4576 132.185C81.5144 127.178 81.5534 122.16 81.5037 117.146ZM22.2211 78.1481C20.8003 75.0747 20.1052 71.7195 20.1888 68.3386C20.242 65.5198 19.9973 62.8278 19.0006 60.1006C17.3442 55.5623 17.4223 50.7387 18.3622 46.0876C19.8802 38.5861 26.3107 33.6214 34.1245 33.5263C38.7 33.4664 43.2754 33.5263 47.8509 33.5263C52.7101 33.5263 57.5694 33.5263 62.4286 33.5263C63.138 33.5263 63.6665 33.477 63.6487 34.5058C63.5459 41.4859 63.7658 48.4695 63.5175 55.4496C63.4489 57.5157 62.9805 59.5494 62.1378 61.4396C61.5794 62.7278 61.3095 64.1212 61.3468 65.5233C61.3681 68.6099 61.4993 71.7036 60.7119 74.7444C58.5838 82.9647 51.3091 89.2295 43.3322 90.0998C33.7946 91.1181 25.7503 85.7589 22.2211 78.1481ZM32.6632 110.945C32.1595 111.456 31.9077 111.424 31.5175 110.832C29.6448 107.982 27.7791 105.128 25.8071 102.344C25.0977 101.354 25.956 101.083 26.3249 100.526C27.0343 99.4266 27.7437 99.4407 28.8077 100.219C31.6098 102.256 34.5146 104.145 37.5224 106.192C35.8022 107.858 34.2096 109.381 32.6632 110.945ZM41.4559 102.841C41.2705 103.011 41.0273 103.105 40.7749 103.105C40.5225 103.105 40.2793 103.011 40.0939 102.841C36.7385 100.518 33.3655 98.2215 29.9747 95.9524C29.7294 95.8231 29.5287 95.6237 29.3984 95.3801C29.2682 95.1364 29.2144 94.8596 29.244 94.5853C29.2972 93.6551 29.244 92.7178 29.244 91.548C36.9655 95.3534 44.531 95.2653 52.242 91.6502C52.242 92.8094 52.2171 93.8242 52.242 94.8214C52.242 95.3745 51.9689 95.6459 51.5539 95.9277C48.1867 98.2321 44.8207 100.54 41.4559 102.851V102.841ZM55.4377 102.714C53.6962 105.371 51.8908 107.999 50.1599 110.645C49.6811 111.378 49.3974 111.484 48.7412 110.797C47.2515 109.247 45.6625 107.791 44.0168 106.216L53.5543 99.7296C53.7388 99.6028 53.9658 99.3491 54.1644 99.5323C54.8463 100.097 55.4658 100.733 56.0123 101.428C56.367 101.932 55.6966 102.33 55.4377 102.725V102.714Z" fill="#404041"/>
<path d="M22.7425 55.8831C22.7425 55.1325 22.7141 54.382 22.7425 53.6351C22.8596 51.4258 24.3067 49.6464 26.488 49.3364C33.6598 48.3075 40.8422 48.0327 47.975 49.6041C51.5467 50.3899 54.8701 51.7852 57.6261 54.2834C58.8426 55.3898 59.0767 56.6089 58.2539 57.5849C57.431 58.5609 56.1257 58.568 54.8985 57.4933C51.9971 54.9352 48.4858 53.8324 44.7686 53.2862C39.1823 52.4617 33.596 52.6344 28.0096 53.3708C27.1406 53.4871 26.9207 53.7831 26.9455 54.5935C27.0094 55.8514 26.981 57.1198 26.9455 58.3812C26.9101 59.6427 26.3 60.4178 25.009 60.5411C23.7995 60.6539 22.9269 59.8646 22.7319 58.5504C22.7248 58.4565 22.7248 58.3623 22.7319 58.2685C22.7389 57.4616 22.7425 56.6688 22.7425 55.8831Z" fill="#404041"/>
<path d="M115.17 0.0106167C113.805 -0.0105244 112.436 0.0106167 111.07 0.0106167H107.523C104.987 0.0106167 104.331 0.641325 104.498 3.20292C104.853 9.658 105.268 16.106 105.672 22.5576C105.995 27.6526 106.317 32.7476 106.683 37.8391C106.814 39.703 107.488 40.2562 109.393 40.2774C110.478 40.2774 111.563 40.2774 112.649 40.2774C114.738 40.2774 115.412 39.6044 115.529 37.529C115.664 35.1436 115.82 32.7582 115.969 30.3763C116.557 21.1212 117.141 11.8661 117.721 2.61097C117.848 0.88445 116.972 0.0352814 115.17 0.0106167ZM113.156 7.76235C112.581 16.0743 112.092 24.3898 111.578 32.7053C111.51 33.8082 111.411 34.911 111.329 36.0104H110.85C110.737 34.601 110.606 33.1916 110.517 31.7822C109.957 22.9064 109.414 14.0307 108.832 5.15496C108.786 4.45026 108.9 4.20361 109.687 4.17894C113.511 4.08733 113.425 4.03799 113.167 7.77644L113.156 7.76235Z" fill="#2F9FEE"/>
<path d="M111.049 42.8459C109.289 42.871 107.611 43.5855 106.378 44.8341C105.146 46.0826 104.46 47.764 104.47 49.5124C104.471 50.3783 104.645 51.2353 104.981 52.0339C105.318 52.8325 105.811 53.5568 106.432 54.1648C107.052 54.7727 107.788 55.2523 108.596 55.5756C109.405 55.899 110.27 56.0597 111.142 56.0486C112.902 56.0319 114.586 55.3264 115.827 54.0851C117.068 52.8438 117.766 51.1667 117.771 49.4173C117.73 47.6689 117.006 46.0049 115.751 44.7781C114.496 43.5513 112.81 42.8583 111.049 42.8459ZM111.049 51.8133C110.742 51.8147 110.438 51.7555 110.155 51.6392C109.871 51.5229 109.614 51.3517 109.397 51.1357C109.181 50.9197 109.009 50.663 108.894 50.3808C108.778 50.0985 108.72 49.7961 108.723 49.4913C108.72 49.1747 108.781 48.8608 108.901 48.5676C109.022 48.2745 109.199 48.0079 109.424 47.7832C109.648 47.5585 109.915 47.3802 110.21 47.2585C110.504 47.1368 110.819 47.0742 111.138 47.0742C111.755 47.1143 112.335 47.3767 112.771 47.812C113.206 48.2474 113.467 48.8257 113.504 49.4385C113.493 50.0749 113.231 50.6816 112.772 51.1263C112.314 51.5711 111.697 51.818 111.056 51.8133H111.049Z" fill="#2F9FEE"/>
</g>
<defs>
<clipPath id="clip0_191_18">
<rect width="145" height="135" fill="white"/>
</clipPath>
</defs>
</svg>
