<svg width="132" height="124" viewBox="0 0 132 124" fill="none" xmlns="http://www.w3.org/2000/svg">
<g clip-path="url(#clip0_1873_250)">
<path d="M129.819 94.2393C129.092 93.6162 128.336 93.0141 127.527 92.5029C126.67 91.9603 126.309 91.3476 126.421 90.2694C126.565 88.8901 126.05 87.3287 126.53 86.1314C127.034 84.8746 128.689 84.346 129.774 83.4147C132.024 81.4858 132.661 78.5731 131.237 75.9719C129.501 72.8037 127.702 69.6669 125.83 66.5757C124.573 64.4997 122.624 63.5894 120.181 63.7505C118.879 63.8345 117.717 64.3771 116.625 64.9723C115.278 65.7074 114.309 65.3714 112.961 64.7447C110.473 63.5824 109.433 62.0105 109.311 59.2309C109.164 55.8946 106.735 53.7941 103.463 53.696C99.9316 53.591 96.3934 53.598 92.8586 53.696C89.7369 53.7801 87.427 55.8806 86.9756 58.8248C86.8566 59.5985 86.6921 60.3862 86.7096 61.1633C86.7376 62.4517 86.0446 63.0048 85.0542 63.7645C82.6044 65.6409 80.4206 65.5884 77.7397 64.1916C75.1324 62.8332 72.0072 64.0305 70.4708 66.5757C68.6019 69.6704 66.796 72.8002 65.0532 75.9684C63.6463 78.5205 64.2937 81.5348 66.537 83.4112C67.237 83.9994 67.9544 84.5875 68.7349 85.0566C69.7148 85.6413 69.7953 86.443 69.9353 87.5107C70.3413 90.5775 69.2529 92.5484 66.642 94.2113C64.1432 95.8007 63.6323 99.0635 65.0777 101.682C66.824 104.847 68.6334 107.977 70.4953 111.071C71.6082 112.916 73.3441 113.83 75.9724 113.893C77.1168 113.97 78.4887 113.238 79.8361 112.556C81.0435 111.947 81.9184 112.209 83.1539 112.738C85.9187 113.921 86.9301 115.777 87.0246 118.696C87.1121 121.476 89.4744 123.657 92.2567 123.828C96.1764 124.07 100.11 124.063 104.03 123.828C106.7 123.671 108.702 121.728 109.234 119.088C109.423 118.15 109.629 117.191 109.622 116.242C109.612 115.024 110.294 114.562 111.187 113.886C113.644 112.027 115.876 111.964 118.62 113.424C121.168 114.779 124.265 113.582 125.784 111.082C127.685 107.959 129.515 104.787 131.265 101.581C132.651 99.039 132.021 96.1298 129.816 94.2463L129.819 94.2393ZM119.912 85.1266C120.276 87.5597 120.286 89.9893 119.912 92.4224C119.691 93.8718 120.276 94.95 121.441 95.7902C122.575 96.6024 123.646 97.5056 124.801 98.2828C125.445 98.7134 125.553 99.053 125.14 99.7392C123.772 102.015 122.446 104.315 121.151 106.636C120.773 107.312 120.454 107.536 119.681 107.154C118.358 106.499 116.965 105.988 115.607 105.407C114.379 104.885 113.217 104.99 112.167 105.824C110.242 107.35 108.163 108.593 105.864 109.468C104.436 110.011 103.858 111.169 103.711 112.626C103.564 114.058 103.34 115.479 103.211 116.911C103.162 117.467 102.969 117.653 102.416 117.65C99.5817 117.629 96.7434 117.611 93.9086 117.66C93.1106 117.674 93.0966 117.184 93.0336 116.669C92.8411 115.157 92.6522 113.641 92.4807 112.125C92.3337 110.826 91.6267 109.941 90.4403 109.475C88.1515 108.575 86.0516 107.368 84.1338 105.834C83.0349 104.955 81.8379 104.896 80.5745 105.442C79.2166 106.027 77.8412 106.573 76.5078 107.206C75.8534 107.515 75.5454 107.364 75.2059 106.755C73.869 104.36 72.5041 101.98 71.1007 99.6236C70.7577 99.0495 70.8137 98.7589 71.3562 98.3808C72.5706 97.5336 73.729 96.6059 74.9259 95.7342C76.1404 94.852 76.6233 93.6827 76.3888 92.2054C76.0284 89.9473 76.0249 87.6893 76.3888 85.4312C76.6268 83.9574 76.1719 82.7776 74.9574 81.8884C73.7605 81.0131 72.5951 80.0994 71.3877 79.2382C70.8977 78.8881 70.7017 78.6291 71.0762 78.0059C72.5111 75.6183 73.9005 73.2028 75.2549 70.7697C75.5839 70.178 75.8814 70.0975 76.4693 70.3776C77.7677 70.9902 79.0976 71.5294 80.41 72.107C81.8064 72.7231 83.0979 72.6391 84.3158 71.6414C86.1146 70.1675 88.1165 69.0402 90.2863 68.2C91.5707 67.7029 92.3477 66.8032 92.4982 65.3889C92.6522 63.915 92.8657 62.4482 93.0196 60.9743C93.0931 60.2776 93.2856 59.9135 94.1291 59.931C96.8309 59.9941 99.5397 59.9696 102.241 59.9415C102.864 59.9345 103.172 60.0501 103.225 60.7677C103.323 62.1576 103.575 63.5369 103.704 64.9233C103.858 66.5546 104.59 67.6749 106.179 68.2666C108.272 69.0437 110.193 70.164 111.918 71.5889C113.126 72.5866 114.4 72.7441 115.814 72.1315C117.168 71.5434 118.529 70.9657 119.887 70.3776C120.286 70.206 120.619 70.01 120.941 70.5841C122.369 73.1257 123.842 75.6428 125.298 78.1705C125.364 78.2825 125.417 78.4015 125.469 78.503C125.501 78.9056 125.165 79.0177 124.937 79.1892C123.758 80.0854 122.579 80.9851 121.382 81.8569C120.258 82.6726 119.702 83.7298 119.912 85.1231V85.1266Z" fill="#404041"/>
<path d="M33.3423 66.7225C51.7335 66.7365 66.7229 51.7739 66.7369 33.3909C66.7474 15.0325 51.7755 0.0418544 33.3738 -0.000155811C15.0842 -0.042166 0.0702398 14.9065 0.000244826 33.2264C-0.0697501 51.6899 14.8777 66.7085 33.3388 66.7225H33.3423ZM33.4123 6.28737C48.3913 6.36438 60.5354 18.5858 60.4514 33.4959C60.3674 48.4516 48.1008 60.5645 33.1744 60.435C18.1779 60.3054 6.1948 48.133 6.28929 33.1249C6.38379 18.3303 18.6329 6.21035 33.4123 6.28737Z" fill="#2F9FEE"/>
<path d="M76.1549 23.8092C82.346 28.4128 88.572 32.9709 94.8121 37.5115C96.121 38.4637 97.6679 38.3027 98.7773 37.2804C99.7012 36.4297 99.8062 35.334 99.7992 34.1647C99.7922 33.1739 99.3582 31.8611 99.9882 31.273C100.622 30.6813 101.896 31.238 102.875 31.3465C106.953 31.7876 110.844 32.8064 114.162 35.3725C117.55 37.9911 119.44 41.5585 120.525 45.616C120.917 47.0758 121.697 48.1506 123.304 48.3536C124.826 48.5462 125.879 47.8915 126.723 46.2776C128.525 42.8188 129.481 39.1429 129.495 33.9476C129.456 29.379 127.549 24.1978 123.685 19.8077C117.844 13.1736 110.158 10.4044 101.612 9.56423C99.7922 9.38569 99.7852 9.4382 99.7852 7.67728C99.7852 7.02262 99.7852 6.36796 99.7852 5.7133C99.7852 4.35497 99.1658 3.36073 97.9583 2.79009C96.7894 2.23696 95.652 2.4015 94.6581 3.2312C88.4285 8.42996 82.192 13.6182 75.9974 18.8555C74.321 20.2698 74.3945 22.4964 76.1654 23.8127L76.1549 23.8092ZM83.6444 20.6059C86.8851 17.8997 90.1224 15.1936 93.3877 12.4664C94.1436 14.9835 94.9381 15.5472 97.5524 15.6102C103.88 15.7642 109.948 16.944 115.251 20.6304C120.017 23.9457 122.838 28.4618 123.164 34.3747C123.188 34.7913 123.318 35.2254 122.999 35.7401C121.417 33.4855 119.608 31.525 117.41 29.9462C113.182 26.9074 108.367 25.5666 103.274 25.052C101.455 24.8699 99.6207 24.8034 97.7939 24.7684C94.6651 24.7054 93.8006 25.4791 93.3807 28.6824C90.0804 26.2598 86.8291 23.8617 83.5604 21.4881C83.0109 21.089 83.3294 20.872 83.6444 20.6094V20.6059Z" fill="#404041"/>
<path d="M56.3176 97.4881C50.1895 92.9475 44.0265 88.4559 37.8739 83.9433C36.796 83.1521 35.6516 82.977 34.4477 83.6212C33.2472 84.2584 32.7468 85.3086 32.7468 86.6354C32.7468 87.4651 32.6593 88.3053 32.7678 89.121C32.9183 90.2238 32.4073 90.3533 31.5184 90.2238C30.1815 90.0313 28.8306 89.9402 27.4972 89.7162C20.6552 88.5679 15.535 85.1441 12.9172 78.4995C12.5182 77.4912 12.2278 76.4375 11.9093 75.3977C11.4858 74.0079 10.5934 73.1292 9.13749 72.9891C7.68159 72.8491 6.67016 73.5598 5.96671 74.8306C1.22456 83.3796 2.36197 94.2183 8.83651 101.539C14.5936 108.047 22.1111 110.854 30.5139 111.754C32.7398 111.992 32.7433 111.954 32.7433 114.173C32.7433 114.611 32.7433 115.045 32.7433 115.482C32.7433 116.865 33.2857 117.958 34.5632 118.549C35.8336 119.141 37.02 118.889 38.0874 118C44.205 112.874 50.3365 107.767 56.4366 102.62C58.2424 101.097 58.1935 98.8814 56.3141 97.4881H56.3176ZM47.6417 101.812C44.8314 104.154 42.0281 106.506 39.1058 108.953C38.9273 107.826 38.5424 106.933 37.6849 106.342C36.852 105.764 35.8896 105.75 34.9236 105.733C28.5786 105.617 22.5205 104.385 17.2289 100.681C12.3818 97.2885 9.57845 92.6604 9.37547 86.6249C9.36497 86.3309 9.37547 86.0333 9.37547 85.3366C14.9681 93.5111 22.923 96.0247 31.8543 96.5253C32.8133 96.5778 33.7722 96.5778 34.7346 96.5848C37.9264 96.6058 38.7454 95.9022 39.1583 92.6709C41.9791 94.7399 44.7474 96.7704 47.5122 98.8009C48.8445 99.7764 48.8888 100.779 47.6452 101.808L47.6417 101.812Z" fill="#404041"/>
<path d="M98.115 72.723C89.2991 72.744 82.0686 80.0223 82.1036 88.8339C82.1421 97.6841 89.3831 104.906 98.185 104.875C107.008 104.843 114.203 97.6 114.189 88.7604C114.175 79.9348 106.924 72.6985 98.115 72.7195V72.723ZM98.122 98.5908C92.7884 98.5768 88.4242 94.2007 88.3962 88.8374C88.3682 83.4881 92.7044 79.0736 98.045 79.014C103.435 78.958 107.89 83.3586 107.904 88.7604C107.918 94.1692 103.505 98.6013 98.122 98.5873V98.5908Z" fill="#404041"/>
<path d="M25.741 34.2453C28.0543 35.7997 30.6266 36.4824 33.3844 36.5244C35.1448 36.5524 36.7477 37.0145 38.0916 38.1698C39.768 39.6051 39.8764 41.6496 38.41 43.2285C35.5998 46.2532 29.7237 45.6826 27.5608 42.1747C26.4514 40.3788 24.7575 39.8257 23.1476 40.7394C21.5588 41.6391 21.1213 43.4631 22.1012 45.28C23.6586 48.1682 26.1399 49.9221 29.2162 50.8288C30.0177 51.0669 30.2731 51.389 30.2101 52.1662C30.1716 52.6353 30.2416 53.1289 30.3501 53.591C30.6616 54.9143 31.8095 55.8456 33.1569 55.9261C34.5498 56.0101 35.9042 55.1559 36.2927 53.8431C36.4607 53.2724 36.4887 52.6353 36.4607 52.0331C36.4327 51.347 36.6532 51.0529 37.3531 50.8778C38.7075 50.5348 39.9569 49.9081 41.1119 49.1099C47.0964 44.9929 47.2819 37.2491 41.4933 32.873C39.236 31.1646 36.6567 30.3209 33.8359 30.2614C32.422 30.2299 31.0501 30.0478 29.7937 29.3756C28.3833 28.6195 27.2529 27.5727 27.2774 25.8468C27.2984 24.1874 28.3973 23.1616 29.7622 22.43C33.4124 20.4695 37.6156 21.7683 39.5055 25.4127C40.2194 26.7885 41.6648 27.4537 43.1242 27.0756C44.4261 26.736 45.413 25.4547 45.434 23.9668C45.3955 23.3717 45.2066 22.71 44.9091 22.0694C43.5862 19.2302 41.3883 17.2732 38.4835 16.2895C37.0032 15.7889 36.3067 15.2427 36.3837 13.5658C36.4537 12.0465 35.0888 10.9297 33.5769 10.8422C32.016 10.7546 30.3816 11.6754 30.4271 13.1247C30.4971 15.4318 29.1497 16.0619 27.4138 16.6186C26.8049 16.8146 26.2449 17.1997 25.706 17.5603C19.3994 21.8208 19.4204 29.9953 25.741 34.2418V34.2453Z" fill="#2F9FEE"/>
</g>
<defs>
<clipPath id="clip0_1873_250">
<rect width="132" height="124" fill="white"/>
</clipPath>
</defs>
</svg>
