<?xml version="1.0" encoding="utf-8"?>
<!-- Generator: Adobe Illustrator 26.4.1, SVG Export Plug-In . SVG Version: 6.00 Build 0)  -->
<svg version="1.1" id="Capa_1" xmlns="http://www.w3.org/2000/svg" xmlns:xlink="http://www.w3.org/1999/xlink" x="0px" y="0px"
	 viewBox="0 0 500 500" style="enable-background:new 0 0 500 500;" xml:space="preserve">
<style type="text/css">
	.st0{fill:#3E3E3F;}
	.st1{fill:#10B4EB;}
</style>
<path class="st0" d="M133.68,123.07c-5.21,0-9.64,0.05-14.08-0.01c-4.75-0.06-7.35-2.29-7.32-6.12c0.03-3.82,2.6-5.86,7.46-5.83
	c8.73,0.05,17.45,0.12,26.18,0.23c5.6,0.08,7.54,2.11,7.62,7.77c0.13,8.85,0.31,17.7,0.38,26.55c0.03,4.7-2.76,7.53-6.72,6.95
	c-3.54-0.52-5.13-2.83-5.19-6.23c-0.08-4.45-0.02-8.9-0.02-14.18c-4.15,2.88-6.8,5.95-9.5,8.93c-23.1,25.45-37.7,55.11-41.03,89.35
	c-6.73,69.22,19.69,123.06,78.93,159.3c38.09,23.3,79.84,27.77,123.14,16.53c1.2-0.31,2.38-0.74,3.6-0.97
	c3.47-0.66,6.44,1.07,7.34,4.2c0.87,3.05-0.77,6.21-4.19,7.3c-6.76,2.15-13.7,3.71-20.71,4.78c-46.84,7.15-90.01-2.44-128.59-29.96
	c-38.07-27.15-62.08-63.97-70.02-110.21c-10.06-58.55,5.95-109.58,46.83-152.74C129.47,126.94,131.3,125.34,133.68,123.07z"/>
<path class="st0" d="M369.34,377.65c5.35,0,9.8-0.05,14.25,0.01c4.7,0.07,7.32,2.37,7.23,6.21c-0.08,3.66-2.65,5.76-7.19,5.74
	c-8.85-0.04-17.7-0.11-26.56-0.23c-5.4-0.07-7.43-2.15-7.51-7.5c-0.14-8.98-0.33-17.95-0.38-26.93c-0.02-4.99,3.3-7.84,7.55-6.68
	c3.12,0.85,4.33,3.15,4.37,6.17c0.05,4.43,0.01,8.86,0.01,14.42c2.25-2.02,3.67-3.15,4.93-4.44c25.75-26.32,41.18-57.65,45.76-94.26
	c9.94-79.41-39.73-153.08-114.9-174.88c-29.18-8.46-58.43-8.74-87.75-0.72c-0.96,0.26-1.91,0.57-2.88,0.77
	c-3.65,0.77-6.76-0.96-7.65-4.22c-0.86-3.16,1.01-6.34,4.62-7.39c6.57-1.91,13.23-3.58,20-4.57c56.85-8.32,106.68,6.69,148.48,46.15
	c29.84,28.18,47.36,63.13,51.98,104.01c6.24,55.21-10.33,102.91-48.71,143.05C373.43,373.99,371.71,375.44,369.34,377.65z"/>
<path class="st0" d="M251.78,133.64c-64.29-0.15-116.82,52.18-116.95,116.49c-0.13,64.3,52.16,116.79,116.49,116.95
	c64.28,0.16,116.81-52.17,116.95-116.49C368.42,186.28,316.13,133.79,251.78,133.64z M251.38,355.11
	C193.59,355,146.62,307.79,146.8,250c0.18-57.63,47.27-104.48,104.91-104.38c57.8,0.1,104.79,47.3,104.59,105.09
	C356.11,308.35,309.01,355.21,251.38,355.11z"/>
<path class="st1" d="M245.58,303.23c0-0.5-0.06-1,0-1.49c0.48-3.56-0.38-5.6-4.42-6.9c-6.37-2.06-10.87-6.82-13.63-13.03
	c-1.89-4.25-0.96-7.58,2.53-9.15c3.3-1.48,6.16-0.07,8.26,4.07c3.01,5.95,8.48,9.24,14.41,8.66c6.12-0.6,10.97-4.61,12.7-10.52
	c2.72-9.32-3.84-18.11-13.86-18.56c-16.43-0.74-27.72-13.14-26.19-29.37c1-10.65,7.15-17.87,17.08-21.52c2.73-1,3.3-2.28,3.15-4.77
	c-0.16-2.61-0.11-5.24-0.01-7.85c0.15-3.83,2.54-6.21,6.05-6.16c3.47,0.04,5.77,2.45,5.88,6.33c0.09,2.99,0.12,5.99-0.02,8.97
	c-0.08,1.8,0.53,2.48,2.3,3.06c6.93,2.26,12.14,6.7,15.48,13.21c2.24,4.37,1.5,7.95-1.87,9.72c-3.36,1.76-6.48,0.26-8.83-4.24
	c-4.05-7.76-12.58-10.58-19.9-6.57c-7.18,3.93-9.81,13.02-5.65,19.96c3.01,5.02,7.64,7.08,13.44,7.34
	c10.64,0.48,18.51,5.66,22.97,15.27c4.46,9.61,3.24,18.91-3.09,27.43c-3.22,4.34-7.59,7.18-12.71,8.72
	c-1.66,0.5-2.19,1.17-2.13,2.81c0.1,3.11,0.11,6.23,0,9.35c-0.14,3.83-2.57,6.18-6.09,6.11c-3.33-0.06-5.63-2.4-5.83-6.01
	C245.51,306.48,245.58,304.85,245.58,303.23z"/>
</svg>
