<svg width="96" height="97" viewBox="0 0 96 97" fill="none" xmlns="http://www.w3.org/2000/svg">
<g clip-path="url(#clip0_191_43)">
<path d="M95.9873 11.3111C95.9873 4.69852 91.3245 0.00539336 84.7962 0.00539336C60.2691 0.00539336 35.7359 0.00539336 11.1967 0.00539336C10.286 -0.0112403 9.37646 0.0772185 8.48566 0.269052C3.30366 1.49243 0.0107728 5.75315 0.00555424 11.3032C-0.00836183 23.7004 -0.00836183 36.0923 0.00555424 48.479C0.0194703 60.8657 0.0194703 73.2577 0.00555424 85.6549C0.00555424 92.2622 4.67614 96.9606 11.1993 96.9632C35.7264 96.9632 60.2595 96.9632 84.7988 96.9632C91.3219 96.9632 95.9847 92.2675 95.9873 85.6523C96.0047 60.8824 96.0047 36.102 95.9873 11.3111ZM86.6435 92.7816C86.0349 92.8915 85.4167 92.9375 84.7988 92.9187H11.2176C6.81312 92.9187 4.03946 90.1186 4.03685 85.6602C4.03685 63.831 4.02903 42.0027 4.01338 20.1753C4.01338 19.2999 4.28996 19.1918 5.05708 19.1918C19.368 19.2164 33.6807 19.2217 47.9951 19.2076C62.3095 19.1936 76.6231 19.1866 90.9358 19.1866C91.7942 19.1866 91.9925 19.3922 91.9925 20.2412C91.9629 42.0036 91.9629 63.766 91.9925 85.5284C92.0029 89.6441 89.438 92.2042 86.6461 92.7869L86.6435 92.7816ZM91.9638 14.5936C91.9769 14.9206 91.789 14.9654 91.5333 14.9548C91.2776 14.9443 91.0767 14.9548 90.8497 14.9548H48.0056C33.6894 14.9548 19.3732 14.9619 5.05708 14.9759C4.19081 14.9759 3.94815 14.7676 4.01338 13.9213C4.14384 12.3552 3.8516 10.7574 4.24038 9.20973C4.58314 7.78018 5.3821 6.50442 6.51393 5.57946C7.64576 4.65451 9.04749 4.13182 10.5026 4.0921C10.7296 4.0921 10.9592 4.0921 11.1862 4.0921H84.7675C88.4204 4.0921 91.0115 6.04582 91.7629 9.40747C92.1726 11.1028 91.896 12.8614 91.9664 14.5989L91.9638 14.5936Z" fill="#404041"/>
<path d="M82.964 9.49162C82.964 10.715 82.1813 11.535 80.9784 11.5297C80.7191 11.5434 80.4599 11.5024 80.2171 11.4094C79.9744 11.3163 79.7534 11.1733 79.5684 10.9893C79.3833 10.8053 79.2382 10.5843 79.1423 10.3406C79.0463 10.0968 79.0016 9.83554 79.011 9.57337C78.9849 8.33681 79.752 7.50891 80.9445 7.48518C81.2117 7.46567 81.48 7.50392 81.7315 7.59738C81.983 7.69083 82.212 7.83734 82.403 8.02717C82.5941 8.21701 82.7429 8.44582 82.8397 8.69833C82.9364 8.95084 82.9788 9.22126 82.964 9.49162Z" fill="#2F9FEE"/>
<path d="M61.2184 9.46261C61.2076 9.19877 61.2513 8.93556 61.3466 8.68969C61.4419 8.44382 61.5868 8.22066 61.7721 8.03444C61.9574 7.84821 62.179 7.70301 62.4228 7.60799C62.6666 7.51297 62.9274 7.47024 63.1884 7.48253C63.707 7.50145 64.1981 7.72293 64.5584 8.10035C64.9187 8.47778 65.12 8.98174 65.12 9.50613C65.12 10.0305 64.9187 10.5344 64.5584 10.9119C64.1981 11.2893 63.707 11.5108 63.1884 11.5297C61.996 11.5323 61.2001 10.7018 61.2184 9.46261Z" fill="#2F9FEE"/>
<path d="M70.2151 9.54703C70.1994 8.35002 70.9457 7.52742 72.0886 7.48524C72.3563 7.47538 72.6234 7.5196 72.874 7.61533C73.1247 7.71105 73.3539 7.85635 73.5483 8.04271C73.7427 8.22907 73.8983 8.45274 74.0061 8.70063C74.1139 8.94853 74.1716 9.21567 74.176 9.4864C74.1941 9.75744 74.1551 10.0293 74.0614 10.2839C73.9677 10.5386 73.8215 10.7702 73.6325 10.9634C73.4435 11.1566 73.216 11.307 72.9651 11.4047C72.7143 11.5023 72.4457 11.5449 72.1773 11.5297C71.9162 11.5426 71.6554 11.5001 71.4116 11.405C71.1678 11.3099 70.9464 11.1643 70.7616 10.9775C70.5768 10.7908 70.4327 10.567 70.3386 10.3207C70.2445 10.0743 70.2024 9.8108 70.2151 9.54703Z" fill="#2F9FEE"/>
<path d="M80.7902 51.7613C80.7902 50.0476 80.0492 49.3014 78.348 49.2961C75.1281 49.2961 71.9101 49.2961 68.6937 49.2961C66.8124 49.2961 66.1836 49.9395 66.1836 51.8537C66.1836 63.1558 66.1836 74.4597 66.1836 85.7654C66.1836 87.6638 66.8281 88.3097 68.712 88.315C71.8987 88.315 75.0855 88.315 78.2723 88.315C80.1588 88.315 80.7955 87.669 80.7955 85.7707C80.7955 80.146 80.7955 74.5265 80.7955 68.9123C80.7937 63.1962 80.792 57.4792 80.7902 51.7613ZM76.7954 83.4953C76.7954 84.0991 76.6467 84.2863 76.0414 84.2599C74.3506 84.2151 72.6493 84.2045 70.9664 84.2599C70.2723 84.2836 70.1836 84.0094 70.1836 83.4162C70.2045 78.5491 70.1836 73.6846 70.1836 68.8174C70.1836 63.9503 70.1836 59.0858 70.1679 54.2187C70.1679 53.5411 70.3114 53.3222 71.0133 53.3459C72.6702 53.4013 74.3323 53.3855 75.9918 53.3459C76.5606 53.3459 76.7746 53.4514 76.7746 54.0921C76.7676 63.8949 76.7746 73.696 76.7954 83.4953Z" fill="#404041"/>
<path d="M55.4048 61.3798C55.4048 59.5342 54.6821 58.788 52.8869 58.7854C49.6984 58.7854 46.5099 58.7854 43.3214 58.7854C41.4296 58.7854 40.793 59.4314 40.793 61.3297C40.793 69.5506 40.793 77.7706 40.793 85.9897C40.793 87.8353 41.4375 88.5076 43.2431 88.5129C46.4629 88.5129 49.681 88.5129 52.8973 88.5129C54.763 88.5129 55.397 87.8564 55.397 85.9422C55.397 81.8643 55.397 77.7873 55.397 73.7111C55.4022 69.6016 55.4048 65.4911 55.4048 61.3798ZM50.5386 84.2601C48.8504 84.21 47.1465 84.2285 45.4688 84.2601C44.9782 84.2601 44.8034 84.1494 44.8034 83.6141C44.8225 76.9119 44.8225 70.2106 44.8034 63.5102C44.8034 62.9829 44.9678 62.8537 45.4662 62.8616C47.2196 62.8879 48.9756 62.8985 50.7317 62.8616C51.3396 62.8458 51.3996 63.1015 51.3944 63.6104C51.3761 66.9272 51.3944 70.2467 51.3944 73.5635C51.3944 76.8803 51.3709 80.1339 51.4127 83.419C51.4127 84.1072 51.2117 84.2812 50.5386 84.2601Z" fill="#404041"/>
<path d="M32.9868 50.0425C32.8282 49.608 32.5484 49.2292 32.1811 48.9522C31.8139 48.6752 31.3749 48.5117 30.9176 48.4816C29.5295 48.3366 28.1518 48.0914 26.7636 47.9543C26.5754 47.9471 26.3941 47.8811 26.2446 47.7654C26.095 47.6497 25.9847 47.4901 25.9287 47.3084C25.3886 46.1166 24.838 44.9354 24.2483 43.7648C23.8596 42.9975 23.2516 42.428 22.3436 42.4465C21.4355 42.4649 20.8824 43.0582 20.5171 43.8518C19.9952 44.9776 19.4421 46.0902 18.9515 47.2266C18.748 47.688 18.5132 47.9411 17.9757 47.9912C16.6188 48.1204 15.2672 48.305 13.9182 48.5185C13.1355 48.6398 12.5145 49.0116 12.2666 49.8368C12.1348 50.2095 12.1196 50.614 12.2233 50.9957C12.3269 51.3773 12.5443 51.7174 12.8458 51.9698C13.8426 52.9137 14.7689 53.9288 15.7604 54.8701C15.9305 55.0158 16.0556 55.2078 16.1209 55.4233C16.1861 55.6388 16.1887 55.8686 16.1283 56.0855C15.8517 57.533 15.6273 58.9858 15.4082 60.3041C15.3273 62.0679 16.9267 63.1252 18.4401 62.4133C19.583 61.8702 20.7102 61.2822 21.7982 60.6336C22.414 60.2645 22.8941 60.3067 23.489 60.6548C24.5327 61.2638 25.6286 61.7568 26.6671 62.3606C27.5699 62.8879 28.3788 62.6243 29.125 62.1233C29.8713 61.6224 29.9548 60.8472 29.8034 60.0141C29.5686 58.7221 29.3729 57.4249 29.1276 56.1383C29.0599 55.9031 29.0616 55.6531 29.1326 55.4189C29.2035 55.1847 29.3405 54.9766 29.5269 54.82C30.4532 53.9473 31.3273 53.0166 32.2275 52.1175C32.7937 51.548 33.3103 50.8678 32.9868 50.0425Z" stroke="#2F9FEE" stroke-width="3" stroke-miterlimit="10"/>
<path d="M29.8186 70.4998C29.8186 68.873 29.0358 68.0899 27.4206 68.0847C24.1365 68.0724 20.8523 68.0724 17.5681 68.0847C15.8773 68.0847 15.2197 68.7781 15.2197 70.4919C15.2197 73.0898 15.2197 75.686 15.2197 78.2804C15.2197 80.9169 15.2197 83.5351 15.2197 86.1638C15.2197 87.7984 15.919 88.505 17.542 88.5103C20.8592 88.5208 24.1756 88.5208 27.4911 88.5103C29.1062 88.5103 29.8394 87.7931 29.8394 86.1716C29.836 80.9494 29.829 75.7255 29.8186 70.4998ZM24.9418 84.2601C23.2563 84.2127 21.5655 84.2285 19.8773 84.2601C19.3894 84.2601 19.2041 84.152 19.2067 83.6168C19.2293 79.9396 19.2293 76.2634 19.2067 72.588C19.2067 72.0448 19.3946 71.942 19.8773 71.9473C21.6307 71.971 23.3867 71.9842 25.1375 71.9473C25.7455 71.9473 25.8107 72.1793 25.8029 72.6934C25.7768 74.539 25.8029 76.3688 25.8029 78.2065C25.8029 79.9467 25.7664 81.6868 25.8212 83.4243C25.8342 84.1309 25.6046 84.2786 24.9418 84.2601Z" fill="#404041"/>
<path d="M83.9635 31.2039C83.8238 30.8512 83.5897 30.5448 83.2874 30.319C82.9851 30.0931 82.6265 29.9568 82.2518 29.9252C80.8324 29.7617 79.4182 29.5324 77.9961 29.3979C77.8061 29.3982 77.6205 29.3395 77.4645 29.2296C77.3086 29.1197 77.19 28.964 77.1246 28.7836C76.5871 27.5918 76.0235 26.4106 75.4704 25.2268C75.1025 24.4358 74.4945 24.0272 73.7717 24.0298C72.7646 24.0298 72.1227 24.362 71.7469 25.1714C71.1938 26.3553 70.6119 27.5286 70.0796 28.7203C70.0149 28.9174 69.8914 29.0894 69.726 29.2126C69.5606 29.3359 69.3614 29.4043 69.156 29.4084C67.7678 29.5429 66.3823 29.7406 65.002 29.9516C64.2531 30.0676 63.653 30.4604 63.4364 31.2435C63.3059 31.617 63.2898 32.0216 63.3904 32.4045C63.4909 32.7874 63.7034 33.1307 64.0001 33.3897C65.002 34.3257 65.9231 35.3487 66.9172 36.2899C67.0886 36.436 67.2152 36.6285 67.2822 36.8447C67.3492 37.0609 67.3539 37.2919 67.2956 37.5107C67.0607 38.8 66.8676 40.0998 66.6223 41.3864C66.4527 42.2671 66.5858 43.0343 67.3216 43.5854C67.6505 43.86 68.0541 44.0271 68.479 44.0648C68.9039 44.1025 69.3302 44.0088 69.7013 43.7963C70.5822 43.3806 71.4409 42.9185 72.274 42.4121C73.3021 41.7239 74.2075 41.6211 75.2616 42.3831C76.0183 42.9315 76.9237 43.2637 77.7352 43.7409C78.6485 44.2682 79.5043 44.1021 80.2923 43.5511C81.0803 43.0001 81.1168 42.1959 80.942 41.3364C80.6602 39.9548 80.4019 38.5706 80.094 37.1943C80.0371 37.0104 80.0363 36.8135 80.0917 36.6292C80.1471 36.4449 80.2561 36.2816 80.4045 36.1607C81.4325 35.1562 82.4501 34.1385 83.4312 33.0891C83.9113 32.5697 84.2714 31.9211 83.9635 31.2039Z" stroke="#2F9FEE" stroke-width="3" stroke-miterlimit="10"/>
<path d="M58.3929 40.3952C58.1137 39.6464 57.4092 39.3405 56.6212 39.2061C55.2435 38.9925 53.8763 38.6787 52.4908 38.5153C51.9141 38.4414 51.6689 38.1699 51.4471 37.6795C50.9774 36.6011 50.4582 35.5465 49.9441 34.4866C49.5397 33.6508 48.9683 32.9705 47.9741 32.9494C46.98 32.9283 46.4243 33.6271 46.0355 34.484C45.5475 35.5544 45.01 36.5932 44.5377 37.6795C44.3238 38.1699 44.0889 38.4467 43.494 38.4968C42.1685 38.6049 40.8509 38.8158 39.5332 39.0057C38.7504 39.119 38.1033 39.4724 37.8476 40.2897C37.7034 40.6766 37.6835 41.0996 37.7907 41.4986C37.898 41.8977 38.127 42.2523 38.4451 42.5123C39.4236 43.422 40.3212 44.4239 41.2918 45.3467C41.4741 45.5028 41.6081 45.7086 41.6779 45.9395C41.7478 46.1704 41.7505 46.4167 41.6858 46.6492C41.4066 48.1309 41.164 49.6232 40.9552 50.9389C40.9418 51.3214 41.0308 51.7005 41.2127 52.0362C41.3946 52.3719 41.6628 52.6518 41.9889 52.8464C42.3151 53.041 42.6871 53.1431 43.0659 53.142C43.4447 53.1408 43.8162 53.0365 44.1411 52.8399C45.2188 52.2361 46.2781 51.5927 47.3088 50.9125C47.5108 50.7558 47.7574 50.6689 48.012 50.6646C48.2667 50.6603 48.5159 50.7389 48.723 50.8888C49.8241 51.5163 50.9696 52.062 52.0733 52.6843C52.9369 53.1694 53.7249 52.9479 54.4529 52.4602C55.1809 51.9724 55.3192 51.1999 55.1757 50.3509C54.9461 49.0326 54.7347 47.6985 54.4842 46.3776C54.4254 46.1599 54.4296 45.9297 54.4961 45.7143C54.5627 45.4989 54.689 45.3073 54.86 45.1621C55.8306 44.2393 56.7621 43.2717 57.6963 42.312C58.2285 41.7899 58.6747 41.1308 58.3929 40.3952Z" stroke="#2F9FEE" stroke-width="3" stroke-miterlimit="10"/>
</g>
<defs>
<clipPath id="clip0_191_43">
<rect width="96" height="97" fill="white"/>
</clipPath>
</defs>
</svg>
