<svg width="143" height="145" viewBox="0 0 143 145" fill="none" xmlns="http://www.w3.org/2000/svg">
<path d="M71.5 141C108.838 141 139 110.272 139 72.5C139 34.7276 108.838 4 71.5 4C34.1621 4 4 34.7276 4 72.5C4 110.272 34.1621 141 71.5 141Z" fill="#5826E7" stroke="#5826E7" stroke-width="8"/>
<path fill-rule="evenodd" clip-rule="evenodd" d="M101.407 45.264C101.947 44.6356 101.875 43.6886 101.246 43.1488C100.618 42.609 99.671 42.6808 99.1312 43.3092L50.1741 100.303L37.628 83.793C37.1267 83.1334 36.1857 83.005 35.5261 83.5062C34.8665 84.0075 34.7382 84.9485 35.2394 85.6081L48.7055 103.329C48.898 103.582 49.1554 103.757 49.4367 103.848C50.0523 104.219 50.8641 104.104 51.3482 103.54L101.407 45.264Z" fill="white"/>
<path d="M101.246 43.1488L103.527 40.4938L103.527 40.4938L101.246 43.1488ZM101.407 45.264L104.062 47.5447V47.5446L101.407 45.264ZM99.1312 43.3092L101.786 45.5898V45.5898L99.1312 43.3092ZM50.1741 100.303L47.3874 102.42C48.027 103.262 49.0127 103.77 50.0693 103.801C51.1259 103.833 52.1402 103.385 52.829 102.583L50.1741 100.303ZM37.628 83.793L40.4146 81.6753L40.4146 81.6753L37.628 83.793ZM35.5261 83.5062L37.6438 86.2929H37.6438L35.5261 83.5062ZM35.2394 85.6081L32.4527 87.7257L32.4527 87.7257L35.2394 85.6081ZM48.7055 103.329L45.9188 105.446L45.9188 105.446L48.7055 103.329ZM49.4367 103.848L51.2452 100.851C51.0151 100.713 50.7699 100.601 50.5142 100.518L49.4367 103.848ZM51.3482 103.54L48.6932 101.259H48.6932L51.3482 103.54ZM98.9658 45.8038C98.1279 45.084 98.0322 43.8213 98.7519 42.9834L104.062 47.5446C105.861 45.4499 105.622 42.2932 103.527 40.4938L98.9658 45.8038ZM101.786 45.5898C101.066 46.4277 99.8037 46.5235 98.9658 45.8038L103.527 40.4938C101.432 38.6945 98.2756 38.9339 96.4762 41.0286L101.786 45.5898ZM52.829 102.583L101.786 45.5898L96.4762 41.0286L47.5191 98.0222L52.829 102.583ZM34.8413 85.9106L47.3874 102.42L52.9607 98.1852L40.4146 81.6753L34.8413 85.9106ZM37.6438 86.2929C36.7643 86.9612 35.5096 86.7901 34.8413 85.9106L40.4146 81.6753C38.7439 79.4767 35.6071 79.0488 33.4085 80.7196L37.6438 86.2929ZM38.0261 83.4905C38.6944 84.3699 38.5232 85.6246 37.6438 86.2929L33.4085 80.7196C31.2098 82.3903 30.7819 85.5271 32.4527 87.7257L38.0261 83.4905ZM51.4922 101.211L38.0261 83.4905L32.4527 87.7257L45.9188 105.446L51.4922 101.211ZM50.5142 100.518C50.891 100.64 51.2383 100.877 51.4922 101.211L45.9188 105.446C46.5576 106.287 47.4197 106.874 48.3592 107.178L50.5142 100.518ZM48.6932 101.259C49.341 100.505 50.4221 100.355 51.2452 100.851L47.6283 106.845C49.6826 108.084 52.3871 107.702 54.0032 105.821L48.6932 101.259ZM98.7519 42.9834L48.6932 101.259L54.0032 105.821L104.062 47.5447L98.7519 42.9834Z" fill="white"/>
</svg>
