<svg width="123" height="127" viewBox="0 0 123 127" fill="none" xmlns="http://www.w3.org/2000/svg">
<g clip-path="url(#clip0_1177_216)">
<path d="M69.8865 113.471C68.7882 113.242 68.6456 112.821 68.6555 111.873C68.6986 107.119 68.7451 102.365 68.6489 97.6145C68.5891 94.6209 69.1068 91.7998 70.3245 89.0747C72.4381 84.3407 73.5596 79.3481 73.6259 74.1864C73.7388 65.0962 73.7255 55.9995 73.6492 46.9093C73.6193 43.2561 72.3817 39.9508 69.923 37.1728C69.4485 36.6357 68.9641 36.1053 68.483 35.5649C74.8503 31.1922 77.4118 23.6072 74.8636 16.5525C74.6313 15.9094 74.9698 15.7967 75.3414 15.5447C76.8544 14.5071 77.4284 13.0451 77.2293 11.2549C77.0402 9.55427 76.2638 8.10223 75.1921 6.81927C71.8375 2.79468 67.4013 0.848689 62.3014 0.212181C61.9166 0.0530536 61.5118 0.162453 61.1169 0.132617C60.6723 0.0729445 60.2044 0.265223 59.7797 0.00332642H59.0365C58.5388 0.20555 58.0444 0.20555 57.5467 0.00332642H57.049C56.9528 0.251962 56.7238 0.19892 56.5281 0.228756C52.9446 0.732659 49.7924 2.1648 47.2043 4.70421C42.7482 9.0802 41.2816 14.4905 42.3799 20.4876C43.3687 25.8946 45.0675 31.0762 49.6796 34.6798C50.1242 35.0245 50.0015 35.3395 49.8787 35.7472C49.2151 37.9618 48.6842 40.2094 48.359 42.5002C48.296 42.9378 48.1201 43.2594 47.8016 43.5577C46.2322 45.0197 45.5022 46.8596 45.5022 48.9813C45.4955 60.8031 45.4889 72.6249 45.5088 84.4434C45.5121 87.016 46.617 89.0979 48.7738 90.4969C49.5037 90.971 49.736 91.5378 49.8389 92.2871C50.1839 94.7502 50.2437 97.2266 50.2437 99.7064C50.2437 107.974 50.2437 116.239 50.2437 124.507C50.2437 126.3 50.831 126.99 52.4004 126.993C60.3869 127.007 68.3702 127.003 76.3567 126.993C77.8067 126.993 78.457 126.33 78.5367 124.885C78.8552 119.073 75.5637 114.648 69.8931 113.474L69.8865 113.471ZM69.9695 47.7547C69.9562 51.1428 69.9695 54.5276 69.9695 57.9156H69.9794C69.9794 61.5921 69.9595 65.2686 69.996 68.9451C70.0026 69.6877 69.8301 69.9364 69.0437 69.9198C66.4391 69.8667 63.8344 69.8601 61.2297 69.9198C60.3173 69.943 60.0419 69.7242 60.0485 68.7694C60.095 62.4077 60.075 56.0459 60.0717 49.6874C60.0717 44.791 57.8121 42.1985 52.9645 41.5819C52.3871 41.509 52.2378 41.3432 52.4236 40.826C52.4668 40.71 52.4999 40.5907 52.5298 40.4713C52.8085 39.3541 52.7521 37.8623 53.4622 37.2258C54.1324 36.6258 55.4464 37.6468 56.5115 37.8358C58.9967 38.2734 61.4487 38.2369 63.8709 37.5407C64.5544 37.3451 64.999 37.4744 65.5266 37.9386C68.4863 40.5542 69.9927 43.7997 69.9794 47.7547H69.9695ZM46.9654 23.6569C45.6681 19.9373 45.2898 16.294 46.4876 12.6175C48.4685 6.53417 54.5538 2.95712 61.2861 3.79254C65.0222 4.25666 68.4432 5.40702 71.2502 8.02267C72.103 8.81499 72.8528 9.69682 73.2975 10.7875C73.8483 12.1368 73.5397 12.6572 72.103 12.6871C69.9529 12.7302 67.8028 12.7103 65.6527 12.7103C62.6333 12.7103 59.6138 12.7335 56.5944 12.7037C54.0296 12.6804 52.2478 13.8109 51.2855 16.1812C50.7746 17.441 50.3299 18.724 49.8422 19.9903C49.2814 21.4457 48.4287 22.6789 46.9621 23.6536L46.9654 23.6569ZM48.7406 27.96C48.4951 27.4892 48.2893 27.1809 48.943 26.7963C51.259 25.4338 52.6028 23.2856 53.5252 20.8357C53.9035 19.8345 54.2386 18.8168 54.6069 17.8123C54.9553 16.8542 55.5924 16.3868 56.674 16.4166C58.8241 16.473 60.9742 16.4332 63.1243 16.4332C65.3972 16.4332 67.6734 16.4564 69.9462 16.4166C70.5833 16.4067 70.8985 16.6255 71.154 17.199C73.7587 23.0734 71.0379 30.2739 65.1019 33.1515C59.1394 36.0423 51.7335 33.6885 48.7406 27.96ZM49.2582 48.7161C49.3345 46.6276 50.9006 45.2485 52.8848 45.2982C54.8657 45.3446 56.2925 46.8165 56.3356 48.9017C56.3655 50.2212 56.3422 51.5406 56.3422 52.86C56.3422 54.2623 56.319 55.6646 56.3555 57.0636C56.3721 57.6438 56.2162 57.8493 55.6056 57.8394C53.7077 57.8029 51.8098 57.8096 49.9119 57.8361C49.3743 57.8427 49.1985 57.6604 49.2018 57.1266C49.2283 54.3253 49.1554 51.5174 49.2582 48.7194V48.7161ZM49.2217 84.1517C49.1952 76.9214 49.2184 69.6877 49.1985 62.4574C49.1985 61.7944 49.3378 61.5059 50.0811 61.5258C51.8596 61.5789 53.638 61.5888 55.4165 61.5258C56.2228 61.496 56.3655 61.7877 56.3588 62.5137C56.3257 66.1902 56.3422 69.8701 56.3422 73.5466C56.3422 77.0606 56.3522 80.5714 56.3422 84.0854C56.3356 86.416 54.9055 88.0072 52.8251 88.0371C50.7679 88.0669 49.2317 86.4723 49.2217 84.155V84.1517ZM53.9599 102.594C53.9234 99.5704 54.0926 96.0133 53.5849 92.4827C53.502 91.9025 53.7044 91.7136 54.2452 91.5677C58.1074 90.5367 60.0518 88.0105 60.0651 84.0456C60.0784 80.9062 60.095 77.7667 60.0485 74.6306C60.0352 73.8118 60.2675 73.5863 61.0837 73.6029C63.7282 73.656 66.376 73.656 69.0205 73.6029C69.8201 73.5863 69.9595 73.8283 69.9164 74.5809C69.6509 79.368 68.5659 83.9495 66.6249 88.3321C65.4038 91.0903 64.8928 93.9712 64.9327 96.9946C64.9957 101.991 64.9227 106.99 64.9758 111.986C64.9858 112.927 64.7369 113.149 63.8178 113.129C60.8415 113.066 57.8652 113.076 54.8889 113.126C54.1092 113.139 53.93 112.914 53.9433 112.165C53.9864 109.151 53.9599 106.134 53.9599 102.597V102.594ZM73.5596 123.3C70.5037 123.217 67.4444 123.274 64.3885 123.274C61.2065 123.274 58.0245 123.254 54.8458 123.287C54.1623 123.294 53.9201 123.135 53.9433 122.412C53.9997 120.804 53.9831 119.193 53.9499 117.585C53.9367 117.005 54.0793 116.806 54.6998 116.813C58.9967 116.846 63.2969 116.756 67.5904 116.876C71.2469 116.978 73.679 118.904 74.5285 121.971C74.7906 122.912 74.7541 123.337 73.5596 123.304V123.3Z" fill="#5826E7"/>
<path d="M27.5998 113.398C26.7537 113.239 26.6476 112.897 26.6509 112.188C26.6708 107.146 26.7006 102.103 26.6476 97.0609C26.621 94.4552 27.0789 91.9854 28.1075 89.5952C29.4281 86.522 30.4666 83.3627 31.0274 80.0442C32.0095 74.2129 31.6412 68.3385 31.6976 62.4773C31.7076 61.3402 30.8681 60.5512 29.8495 60.5479C28.8308 60.5479 28.0212 61.3402 28.0013 62.474C27.9681 64.5824 27.9549 66.6908 28.008 68.7959C28.0279 69.6148 27.8719 69.9463 26.9528 69.9198C24.3482 69.8535 21.7402 69.8568 19.1355 69.9198C18.2429 69.9397 18.0538 69.6579 18.0571 68.8125C18.0936 62.4474 18.077 56.0824 18.077 49.7173C18.077 44.8208 15.844 42.235 10.9864 41.5819C10.409 41.5056 10.2796 41.3233 10.409 40.8161C10.6811 39.7387 10.9665 38.6612 11.202 37.5739C11.3381 36.9539 11.577 36.9539 12.1344 37.1529C15.3762 38.3065 18.671 38.4756 21.9923 37.4976C22.5763 37.3252 22.9645 37.4777 23.4257 37.8722C26.4684 40.4846 27.9681 43.7832 27.9814 47.7746C27.988 49.8001 27.9615 51.8257 28.0046 53.8479C28.0279 54.9254 28.8142 55.6879 29.8097 55.6646C30.8615 55.6414 31.6578 55.0613 31.6611 54.0369C31.6744 50.3703 32.0261 46.6839 31.0705 43.0638C30.2875 40.1033 28.6185 37.7065 26.4684 35.6113C26.5779 35.4887 26.6243 35.4157 26.6874 35.366C33.1111 30.4762 35.1816 24.2503 32.8656 16.5824C32.6764 15.9624 32.8954 15.8166 33.3036 15.5447C34.7436 14.5933 35.3375 13.2175 35.238 11.5135C35.1517 10.0648 34.5843 8.79508 33.778 7.62484C31.4189 4.21355 28.0776 2.18799 24.1856 1.0078C22.7522 0.573517 21.2624 0.321566 19.7991 -0.00994873H17.0684C16.5706 0.192275 16.0763 0.192275 15.5786 -0.00994873H15.0808C14.9415 0.281784 14.6595 0.18233 14.4338 0.218796C9.38376 1.02769 5.36892 3.47427 2.65476 7.83701C-0.457566 12.8396 -0.623469 18.2134 1.07205 23.69C2.36941 27.8937 3.96207 31.9779 7.72142 34.7195C8.26226 35.114 7.92382 35.5516 7.81101 35.9362C7.1839 38.0347 6.69282 40.163 6.37761 42.3278C6.30129 42.8383 6.12212 43.2461 5.73059 43.6141C4.16779 45.0827 3.471 46.9425 3.471 49.0542C3.46105 60.833 3.45773 72.6117 3.471 84.3904C3.471 86.5121 4.10807 88.5907 5.86995 89.7278C7.80105 90.971 7.94041 92.6882 8.08972 94.558C8.13617 95.1348 8.15608 95.7149 8.15608 96.2918C8.17267 105.385 8.18594 114.475 8.20253 123.569C8.20253 124.066 8.17599 124.563 8.21581 125.057C8.31535 126.287 8.97896 126.98 10.1967 126.983C18.306 127 26.412 127 34.5213 126.983C35.7622 126.983 36.4159 126.297 36.5022 125.081C36.9335 119.077 33.4927 114.509 27.5998 113.398ZM4.92762 23.6105C3.24869 18.5118 3.03634 13.5755 6.32452 9.06361C9.53307 4.66109 14.1153 3.31846 19.3445 3.82236C23.0906 4.18371 26.4949 5.44015 29.2887 8.06907C30.105 8.83818 30.825 9.68354 31.263 10.7378C31.8536 12.1633 31.5649 12.6804 30.0353 12.6904C25.1146 12.7235 20.194 12.7103 15.27 12.7103C11.5836 12.7103 10.1635 13.6982 8.86946 17.1493C8.27885 18.7273 7.87405 20.3848 6.89191 21.7971C6.3942 22.5132 5.8235 23.153 4.92762 23.6138V23.6105ZM6.72932 27.9633C6.48711 27.5025 6.27143 27.1842 6.93172 26.7963C9.28754 25.4106 10.6347 23.216 11.5604 20.723C11.9187 19.7583 12.2605 18.7869 12.6023 17.8156C12.9473 16.8409 13.5877 16.3901 14.6628 16.4166C16.8527 16.4663 19.0459 16.4332 21.2358 16.4332C23.4257 16.4332 25.619 16.4663 27.8089 16.4133C28.5455 16.3967 28.9105 16.6321 29.1925 17.3084C31.7009 23.2856 28.9436 30.3701 22.9778 33.2078C17.0584 36.0224 9.70561 33.6487 6.726 27.9666L6.72932 27.9633ZM7.20712 48.9017C7.26353 46.7005 8.8761 45.212 10.9399 45.2982C12.9473 45.3811 14.3243 46.906 14.3442 49.0907C14.3575 50.3704 14.3442 51.65 14.3442 52.9296C14.3442 54.332 14.321 55.7376 14.3542 57.1399C14.3675 57.6836 14.1982 57.846 13.6574 57.8361C11.7562 57.8062 9.85824 57.8062 7.957 57.8361C7.37966 57.846 7.16399 57.6902 7.17062 57.0769C7.20049 54.3552 7.13412 51.6268 7.2038 48.9051L7.20712 48.9017ZM7.33984 85.2822C7.22039 84.765 7.19717 84.2213 7.19385 83.6876C7.18058 80.2199 7.18721 76.7523 7.18721 73.288C7.18721 69.6977 7.20712 66.1074 7.17062 62.5171C7.16399 61.7877 7.31662 61.496 8.11958 61.5258C9.93456 61.5888 11.7562 61.5656 13.5711 61.5325C14.1452 61.5225 14.3608 61.6684 14.3575 62.2817C14.3376 69.7507 14.3641 77.223 14.321 84.6921C14.3111 86.4591 12.8511 87.8481 11.0826 88.0205C9.3539 88.1896 7.73469 87.0293 7.33653 85.2822H7.33984ZM11.9254 102.76C11.859 99.723 12.1046 96.1194 11.5969 92.5423C11.5073 91.9025 11.7263 91.7003 12.3202 91.5478C15.9834 90.6096 18.0538 87.9509 18.0704 84.2014C18.0837 81.0189 18.0936 77.8363 18.0571 74.6538C18.0505 73.9079 18.16 73.5698 19.0393 73.593C21.6838 73.656 24.3349 73.6526 26.9794 73.593C27.8719 73.5731 27.9217 73.898 27.8852 74.6638C27.6662 79.5536 26.4485 84.1882 24.4908 88.647C23.3594 91.2196 22.9081 93.9181 22.928 96.7227C22.9645 101.765 22.9015 106.807 22.9645 111.85C22.9778 112.921 22.6559 113.136 21.6539 113.113C18.8435 113.043 16.0265 113.017 13.2161 113.123C12.0482 113.166 11.8723 112.768 11.8988 111.737C11.9685 108.929 11.9221 106.118 11.9221 102.753L11.9254 102.76ZM31.8337 123.294C28.6517 123.244 25.4663 123.274 22.281 123.274C19.1786 123.274 16.0763 123.237 12.9772 123.297C12.0747 123.314 11.869 123.028 11.9088 122.183C11.9785 120.698 11.9586 119.209 11.9154 117.721C11.8955 117.048 12.0614 116.793 12.7947 116.799C16.9721 116.839 21.1496 116.769 25.3237 116.849C29.2489 116.925 31.8768 118.981 32.6234 122.316C32.7926 123.065 32.6731 123.307 31.837 123.294H31.8337Z" fill="#404041"/>
<path d="M114.099 113.415C113.209 113.245 113.093 112.901 113.097 112.138C113.123 107.096 113.156 102.054 113.093 97.0112C113.06 94.4453 113.521 92.0186 114.527 89.6648C115.791 86.7044 116.826 83.671 117.403 80.4818C118.442 74.74 118.077 68.9484 118.12 63.1701C118.13 62.043 117.274 61.2606 116.249 61.2838C115.224 61.307 114.45 62.0828 114.427 63.2464C114.387 65.146 114.381 67.0489 114.431 68.9484C114.45 69.6977 114.261 69.9397 113.475 69.9231C110.87 69.87 108.262 69.8601 105.658 69.9264C104.722 69.9496 104.486 69.691 104.49 68.7628C104.533 62.3579 104.52 55.9497 104.506 49.5449C104.506 48.7625 104.506 47.9602 104.33 47.2077C103.597 44.0252 101.052 41.8604 97.7441 41.615C96.9444 41.5554 96.6458 41.4427 96.9278 40.5608C97.2994 39.3906 97.5184 38.1706 97.8204 36.9042C101.454 38.3198 105.06 38.5353 108.714 37.4512C109.198 37.3087 109.48 37.5507 109.802 37.8291C112.755 40.3619 114.367 43.5345 114.397 47.453C114.414 49.6012 114.407 51.7528 114.414 53.901C114.421 55.5519 115.081 56.4172 116.315 56.3973C117.52 56.3807 118.133 55.5718 118.137 53.9706C118.143 52.3992 118.09 50.8278 118.147 49.2598C118.339 43.9688 116.952 39.2911 112.898 35.6577C112.987 35.545 113.027 35.4654 113.09 35.4223C118.794 31.6696 121.999 24.0746 119.301 16.5426C119.109 16.0088 119.288 15.8597 119.68 15.6044C121.405 14.4839 121.936 12.8462 121.607 10.877C121.408 9.67359 120.891 8.59949 120.204 7.60826C117.861 4.23675 114.547 2.24103 110.714 1.04095C109.321 0.603349 107.874 0.348083 106.451 0.00662231H103.471C102.973 0.208846 102.479 0.208846 101.981 0.00662231H101.484C101.351 0.304986 101.065 0.205531 100.84 0.238683C97.4421 0.752531 94.4227 2.09848 91.9076 4.44892C87.4515 8.61275 85.8124 13.8838 86.695 19.7583C87.5477 25.4504 89.3195 30.8673 94.1108 34.6831C94.5455 35.0278 94.4393 35.3362 94.3132 35.7505C93.6463 37.9651 93.1187 40.2127 92.7902 42.5035C92.7272 42.9411 92.5513 43.2627 92.2328 43.561C90.6634 45.0263 89.9367 46.8596 89.9367 48.9846C89.9301 60.8064 89.9267 72.6249 89.94 84.4468C89.9433 86.9729 90.9952 89.0416 93.0988 90.4273C93.9051 90.9577 94.1606 91.5743 94.28 92.4164C94.5853 94.5911 94.6583 96.7791 94.6616 98.9704C94.6716 107.484 94.6616 116 94.6682 124.514C94.6682 126.307 95.2588 127 96.825 127.003C104.808 127.017 112.795 127.013 120.778 127.003C122.235 127.003 122.892 126.344 122.971 124.908C123.31 119.03 119.865 114.525 114.092 113.428L114.099 113.415ZM91.3834 23.6436C89.9599 19.3373 89.6215 15.1834 91.5426 11.0892C93.9814 5.89433 99.6785 3.03004 105.767 3.79915C109.503 4.2699 112.917 5.4302 115.718 8.04917C116.601 8.87464 117.374 9.79625 117.798 10.94C118.253 12.15 117.928 12.6605 116.617 12.6804C113.475 12.7235 110.333 12.707 107.187 12.7103C105.077 12.7103 102.97 12.7169 100.86 12.7103C98.4541 12.7036 96.7487 13.7976 95.803 15.9956C95.2522 17.2785 94.8109 18.6112 94.3066 19.9174C93.7325 21.4059 92.9063 22.7021 91.38 23.6436H91.3834ZM93.3377 28.2782C92.8831 27.5058 92.8466 27.1113 93.706 26.5775C95.866 25.2382 97.097 23.1397 97.9697 20.8158C98.3612 19.7749 98.7295 18.7273 99.1111 17.683C99.433 16.8045 100.043 16.4166 101.006 16.4199C105.472 16.4464 109.935 16.4464 114.401 16.4133C115.051 16.41 115.366 16.642 115.595 17.2122C116.212 18.7637 116.514 20.3749 116.567 21.8568C116.474 27.6748 112.669 32.5912 107.323 33.9703C101.819 35.3892 96.1647 33.0653 93.3377 28.2716V28.2782ZM93.6728 49.0575C93.716 46.7767 95.1659 45.2949 97.2331 45.2949C99.3533 45.2949 100.763 46.8298 100.787 49.1769C100.8 50.4134 100.787 51.65 100.787 52.8865C100.787 54.2458 100.763 55.6083 100.797 56.9675C100.81 57.551 100.737 57.8626 100.02 57.8427C98.1655 57.793 96.3073 57.7963 94.4526 57.8427C93.7591 57.8593 93.643 57.5775 93.6496 56.9741C93.6761 54.3353 93.6231 51.6964 93.6761 49.0609L93.6728 49.0575ZM94.1274 86.2336C93.7425 85.5673 93.6595 84.8313 93.6595 84.0821C93.6595 76.8915 93.6662 69.701 93.643 62.5137C93.643 61.7844 93.7956 61.496 94.5952 61.5258C96.3306 61.5888 98.0726 61.5988 99.8046 61.5258C100.684 61.486 100.807 61.8308 100.8 62.59C100.767 66.2665 100.783 69.9463 100.783 73.6228H100.777C100.777 77.2595 100.8 80.8962 100.767 84.5296C100.75 86.2369 99.6818 87.5033 98.046 87.9277C96.5595 88.3122 94.9105 87.5995 94.1241 86.2369L94.1274 86.2336ZM98.7727 91.5544C102.359 90.6627 104.466 88.0105 104.503 84.3307C104.533 81.1515 104.539 77.969 104.49 74.793C104.476 73.9178 104.629 73.5698 105.614 73.5996C108.176 73.6792 110.741 73.6858 113.302 73.5996C114.351 73.5631 114.387 73.9643 114.338 74.8063C114.062 79.5072 112.981 84.0059 111.076 88.3122C109.855 91.0704 109.334 93.948 109.37 96.9714C109.434 102.01 109.37 107.049 109.404 112.085C109.407 112.858 109.258 113.149 108.405 113.133C105.389 113.076 102.369 113.073 99.3533 113.133C98.4674 113.153 98.3712 112.814 98.3778 112.075C98.4143 109.102 98.3911 106.128 98.3911 102.614C98.3479 99.6036 98.5371 96.0465 98.0161 92.5191C97.9166 91.8395 98.2119 91.697 98.7693 91.5578L98.7727 91.5544ZM118.11 123.307C115.014 123.217 111.912 123.277 108.813 123.277C105.714 123.277 102.532 123.251 99.3898 123.297C98.5868 123.31 98.3347 123.105 98.3712 122.283C98.4375 120.718 98.4176 119.146 98.3778 117.578C98.3612 116.982 98.5338 116.809 99.1376 116.816C103.395 116.846 107.652 116.769 111.905 116.869C115.655 116.958 118.206 118.938 118.999 122.1C119.202 122.902 119.235 123.343 118.107 123.31L118.11 123.307Z" fill="#404041"/>
</g>
<defs>
<clipPath id="clip0_1177_216">
<rect width="123" height="127" fill="white"/>
</clipPath>
</defs>
</svg>
