<svg width="124" height="129" viewBox="0 0 124 129" fill="none" xmlns="http://www.w3.org/2000/svg">
<g clip-path="url(#clip0_1180_249)">
<path d="M123.889 78.5291C123.866 76.4226 123.185 74.5153 121.721 72.9067C119.458 70.4249 116.637 69.8121 113.48 70.3866C112.555 70.5551 111.993 70.3598 111.546 69.5096C110.823 68.1423 109.737 67.0699 108.346 66.4073C107.356 65.9362 107.004 65.2468 107.085 64.2127C107.123 63.7532 107.088 63.2897 107.088 62.8301C107.088 45.8865 107.065 28.9467 107.1 12.003C107.115 6.35769 102.536 -0.026817 95.1773 -7.40707e-06C67.4294 0.099571 39.6852 0.0880812 11.9373 0.00382253C5.58419 -0.0153272 1.21118 5.01338 0.435204 9.36036C-0.176405 12.7767 -0.0502607 16.2274 0.247899 19.6361C0.50401 22.566 2.95427 24.6227 5.7715 24.6839C8.22558 24.7376 8.13002 24.5882 8.13002 27.1504C8.13002 56.9665 8.13002 86.7826 8.13002 116.599C8.13002 117.606 8.14148 118.606 8.32114 119.605C8.87924 122.765 11.1193 124.829 14.3073 125.074C14.9342 125.124 15.5611 125.101 16.1918 125.101C37.0744 125.101 57.9571 125.101 78.8435 125.101C79.7189 125.101 80.6057 125.04 81.4161 125.499C84.757 127.395 88.2356 128.858 92.146 128.992H92.8991C93.3998 128.552 93.9044 128.651 94.4052 128.992H96.4158C96.886 128.644 97.4173 128.701 97.9487 128.77C97.9257 128.805 97.9105 128.839 97.9066 128.877C97.9793 128.877 98.0557 128.874 98.1283 128.866C99.7224 128.824 101.27 128.59 102.796 128.081C108.044 126.334 112.291 123.159 115.766 118.939C121.087 112.478 123.51 104.875 123.862 96.637C124.118 90.6087 123.957 84.5612 123.889 78.5214V78.5291ZM73.3352 119.643C54.0428 119.643 34.7541 119.643 15.4617 119.643C13.646 119.643 13.6421 119.643 13.6421 117.828C13.6421 87.1771 13.646 56.5222 13.6192 25.8712C13.6192 24.7759 13.818 24.3852 15.0297 24.3967C21.8912 24.4618 28.7565 24.4312 35.618 24.4273C36.1188 24.4273 36.6272 24.4273 37.1203 24.3507C38.2977 24.1631 39.1233 23.1788 39.1615 21.9992C39.1959 20.8157 38.4276 19.7663 37.2732 19.5212C36.7457 19.4101 36.1952 19.4025 35.6524 19.4025C26.3636 19.3948 17.071 19.391 7.78216 19.4025C5.12166 19.4025 5.52685 19.4025 5.51156 17.0624C5.50009 15.6376 5.51156 14.2129 5.51156 12.7843C5.51156 7.98925 8.2791 5.19722 13.0344 5.19722C33.959 5.19722 54.8799 5.19722 75.8046 5.19722H85.189C82.3259 9.0578 83.1286 13.4239 83.0292 17.6407C82.9872 19.3871 83.014 19.3986 81.29 19.3986C74.3444 19.3986 67.395 19.3986 60.4494 19.3986C60.113 19.3986 59.7804 19.3871 59.444 19.4063C57.8118 19.4982 56.7339 20.5246 56.753 21.9532C56.7721 23.3933 57.8462 24.412 59.5052 24.4197C64.2758 24.4465 69.0463 24.4312 73.8169 24.4312C76.5385 24.4312 79.2564 24.4542 81.978 24.4235C85.6745 24.3852 87.9871 22.0643 88.0368 18.3645C88.0674 16.1853 87.9947 14.0022 88.0674 11.823C88.1859 8.29564 90.8387 5.50744 94.2561 5.21637C97.7079 4.92146 100.781 7.16581 101.546 10.5974C101.699 11.283 101.699 12.0107 101.702 12.7192C101.71 30.1225 101.71 47.5219 101.71 64.9251C101.71 65.1358 101.691 65.3464 101.71 65.5532C101.76 66.0205 101.53 66.2426 101.106 66.3499C100.598 66.4801 100.575 66.0549 100.456 65.7792C99.3554 63.2399 97.4059 61.7271 94.753 61.1488C93.182 60.8079 91.5956 60.9688 89.9443 61.5203C89.9443 57.0354 89.9443 52.6463 89.9443 48.2572C89.9443 47.1274 89.9443 46.0014 89.6499 44.8869C88.6637 41.1412 85.1355 38.6326 81.2594 38.9581C77.1884 39.3028 74.1074 42.3438 73.8207 46.3193C73.771 47.0278 73.7786 47.744 73.7786 48.4564C73.7786 61.2407 73.7786 74.0289 73.7786 87.1809C73.2435 86.5834 72.8803 86.1698 72.5096 85.7676C71.1717 84.3238 69.8299 82.8837 68.4882 81.4436C64.9141 77.6252 60.7972 76.8171 57.0702 79.1993C53.091 81.7462 51.432 86.909 53.1521 91.3402C53.565 92.4049 54.1345 93.3739 54.8302 94.2663C60.9004 102.064 66.9745 109.854 73.0562 117.644C73.5378 118.261 74.0653 118.839 74.7496 119.643H73.3391H73.3352ZM117.409 103.646C115.597 111.175 111.74 117.403 104.806 121.298C97.188 125.572 88.3273 124.546 81.3014 118.805C77.6203 115.794 74.956 111.922 72.0623 108.242C67.6396 102.612 63.259 96.9472 58.8745 91.2904C57.2461 89.1878 57.0511 86.9741 58.2591 84.9902C59.7537 82.539 62.2192 82.2096 64.2146 84.274C66.6266 86.7749 68.9737 89.3448 71.3551 91.8764C72.1044 92.673 72.9147 93.3969 73.9086 93.8833C75.9307 94.8714 77.9299 93.9829 78.553 91.8189C78.8703 90.7159 78.8321 89.5784 78.8321 88.4486C78.8321 81.8649 78.8321 75.2813 78.8321 68.7014H78.7938C78.7938 61.6582 78.7862 54.6149 78.7977 47.5678C78.7977 45.5763 79.4131 44.6264 80.9154 44.1477C82.8802 43.5234 84.6844 44.7107 84.8755 46.7712C84.9252 47.3112 84.9176 47.8589 84.9176 48.4066C84.9176 59.7279 84.9176 71.0492 84.9176 82.3705C84.9176 82.7879 84.8985 83.2131 84.952 83.6267C85.1393 84.994 86.2211 85.9668 87.494 85.94C88.8395 85.9093 89.906 84.8676 89.9175 83.4084C89.9519 79.0078 89.929 74.6034 89.9443 70.1989C89.9443 69.5747 89.9787 68.9389 90.1048 68.3261C90.403 66.8707 91.4656 66.0549 92.9755 66.0358C94.5007 66.0166 95.5328 66.7865 95.9533 68.2074C96.1368 68.824 96.1368 69.4483 96.1368 70.0764C96.1368 74.3544 96.1368 78.6286 96.1368 82.9067C96.1368 84.7412 97.0924 85.9055 98.5909 85.9362C100.116 85.9668 101.152 84.7412 101.156 82.8684C101.167 79.8925 101.129 76.9128 101.175 73.937C101.209 71.7922 102.624 70.5819 104.68 70.8309C106.209 71.0147 107.188 72.0296 107.238 73.7378C107.318 76.6294 107.283 79.521 107.295 82.4164C107.302 84.7029 108.155 85.9132 109.787 85.94C111.431 85.9668 112.306 84.7604 112.322 82.4854C112.333 81.0606 112.287 79.6283 112.425 78.215C112.585 76.5413 113.751 75.557 115.357 75.534C116.996 75.5111 118.445 76.549 118.418 78.2227C118.292 86.7098 119.42 95.2735 117.402 103.657L117.409 103.646Z" fill="#404041"/>
<path d="M92.8945 129H94.4006C93.8999 128.793 93.3953 128.793 92.8945 129Z" fill="#404041"/>
<path d="M96.4102 129H97.9162C97.9009 128.958 97.8933 128.92 97.9009 128.881C97.404 128.889 96.8918 128.77 96.4102 129Z" fill="#404041"/>
<path d="M28.2643 52.88C31.4829 52.9451 34.7015 52.9413 37.9201 52.88C40.7641 52.8264 42.748 50.8961 42.8244 48.0619C42.9085 44.795 42.9085 41.5242 42.8244 38.2611C42.7518 35.4423 40.7297 33.4737 37.9277 33.4277C34.7092 33.3741 31.4906 33.3703 28.272 33.4277C25.3706 33.4775 23.3906 35.5686 23.3562 38.51C23.337 40.0612 23.3562 41.6085 23.3562 43.1596C23.3562 44.7107 23.3409 46.258 23.3562 47.8091C23.3906 50.7735 25.3248 52.8225 28.2643 52.88ZM29.197 38.4296C30.4929 38.4794 31.7887 38.4449 33.0846 38.4449C34.3804 38.4449 35.6801 38.4756 36.9721 38.4334C37.6181 38.4143 37.8475 38.6058 37.836 39.2799C37.8016 41.8766 37.8054 44.4771 37.836 47.0738C37.8437 47.6713 37.6525 47.8819 37.0486 47.8781C34.4148 47.8551 31.7772 47.8551 29.1435 47.8781C28.5472 47.8819 28.3484 47.6981 28.3561 47.0891C28.3866 44.4924 28.3866 41.8919 28.3561 39.2952C28.3484 38.6517 28.5128 38.4066 29.1932 38.4334L29.197 38.4296Z" fill="#5826E7"/>
<path d="M64.1985 62.3131C63.8659 62.2978 63.5296 62.3093 63.197 62.3093C52.1154 62.3093 41.0338 62.3093 29.9522 62.3093C28.6143 62.3093 27.2764 62.3093 25.9385 62.3093C24.8223 62.3131 24.0196 62.834 23.5762 63.8566C22.8155 65.6145 24.0999 67.3303 26.2214 67.3342C32.4522 67.3533 38.6829 67.3418 44.9137 67.3418C49.0535 67.3418 53.1934 67.3418 57.3332 67.3418C59.6344 67.3418 61.9356 67.3763 64.2329 67.3227C65.7122 67.2882 66.7978 66.1048 66.7482 64.7336C66.7023 63.397 65.632 62.3782 64.1985 62.3131Z" fill="#5826E7"/>
<path d="M52.1097 105.591C43.5433 105.588 34.9769 105.588 26.4106 105.591C24.5299 105.591 23.3296 106.61 23.364 108.15C23.3946 109.64 24.5796 110.616 26.38 110.62C30.6842 110.628 34.9884 110.62 39.2926 110.62C43.5968 110.62 47.8169 110.62 52.0791 110.62C53.9712 110.62 55.1486 109.617 55.1218 108.058C55.0951 106.553 53.9407 105.591 52.1135 105.591H52.1097Z" fill="#5826E7"/>
<path d="M46.1343 76.7022C39.5251 76.706 32.9121 76.6984 26.3029 76.7099C24.5216 76.7099 23.3366 77.7746 23.3557 79.2721C23.3786 80.7811 24.5178 81.7309 26.3641 81.7347C29.6285 81.7462 32.8892 81.7347 36.1536 81.7347C39.5022 81.7347 42.8469 81.7271 46.1955 81.7386C47.0709 81.7386 47.8545 81.5739 48.447 80.8692C49.1389 80.0457 49.2421 79.1227 48.8139 78.1729C48.3017 77.0354 47.3079 76.6984 46.1343 76.6984V76.7022Z" fill="#5826E7"/>
<path d="M48.4102 35.9555C48.4102 37.5257 49.4766 38.4373 51.3535 38.4411C54.5301 38.4488 57.7066 38.4411 60.8832 38.4411C64.0597 38.4411 67.3204 38.4488 70.5389 38.4411C72.347 38.4373 73.5129 37.4415 73.5091 35.9402C73.5053 34.4465 72.3203 33.4162 70.5275 33.4124C64.1323 33.4009 57.7372 33.4009 51.3421 33.4124C49.5149 33.4124 48.4102 34.4005 48.414 35.9516L48.4102 35.9555Z" fill="#5826E7"/>
<path d="M26.4328 96.2004C32.159 96.2081 37.889 96.2119 43.6152 96.2004C45.4462 96.1966 46.593 95.2161 46.6159 93.7033C46.6388 92.1981 45.4882 91.1908 43.6649 91.1755C40.8209 91.1564 37.9769 91.1717 35.1367 91.1717C32.2507 91.1717 29.3685 91.164 26.4825 91.1717C24.5253 91.1794 23.3747 92.1024 23.3556 93.6458C23.3403 95.1893 24.5253 96.1927 26.429 96.1966L26.4328 96.2004Z" fill="#5826E7"/>
<path d="M66.2635 47.8704C61.2903 47.8513 56.321 47.8627 51.3478 47.8704C50.7668 47.8704 50.1819 47.8934 49.6506 48.2074C48.6835 48.7819 48.198 49.8964 48.4618 51.0071C48.7179 52.0872 49.6697 52.8608 50.9732 52.8838C53.6031 52.9259 56.2369 52.8953 58.8706 52.8953C61.3362 52.8991 63.8017 52.9144 66.2673 52.8953C68.0906 52.88 69.2451 51.8842 69.2451 50.379C69.2451 48.8777 68.1059 47.8819 66.2673 47.8742L66.2635 47.8704Z" fill="#5826E7"/>
<path d="M48.0603 24.4082C49.4249 24.3622 50.48 23.2516 50.4608 21.8843C50.4417 20.5285 49.3447 19.4369 47.9838 19.4216C46.5809 19.4063 45.4227 20.5668 45.4456 21.957C45.4686 23.3588 46.6421 24.458 48.0603 24.4082Z" fill="#404041"/>
</g>
<defs>
<clipPath id="clip0_1180_249">
<rect width="124" height="129" fill="white"/>
</clipPath>
</defs>
</svg>
