<svg width="125" height="125" viewBox="0 0 125 125" fill="none" xmlns="http://www.w3.org/2000/svg">
<g clip-path="url(#clip0_1180_261)">
<path d="M122.207 42.4018C109.958 42.4018 97.7127 42.4018 85.464 42.4018C85.017 42.4018 84.5602 42.3823 84.1262 42.4671C82.8602 42.7183 82.299 44.1736 83.0299 45.2406C83.5291 45.9715 84.2828 46.0629 85.0822 46.0629C88.8671 46.0596 92.652 46.102 96.4337 46.0335C97.4517 46.0139 97.6866 46.2717 97.6866 47.2865C97.6507 62.9518 97.6475 78.6172 97.6866 94.2826C97.6866 95.3626 97.4289 95.6498 96.3652 95.5878C93.2752 95.4083 90.293 95.8031 87.5685 97.4574C83.9598 99.6469 80.3184 101.784 76.6901 103.944C73.9689 105.563 72.0504 107.847 70.9769 110.832C70.1938 113.009 69.3977 115.175 68.6211 117.352C68.2426 118.406 67.6716 119.322 66.7972 120.037C64.8297 121.646 62.0856 121.77 59.9941 120.337C57.8537 118.872 56.9956 116.245 57.9157 113.635C59.6939 108.587 61.5342 103.562 63.3353 98.5212C64.0042 96.6482 63.2765 95.5943 61.2993 95.5682C59.3448 95.5454 57.3936 95.5617 55.4392 95.5617C48.3588 95.5617 41.2784 95.5747 34.198 95.5551C31.1015 95.5454 28.8436 93.4734 28.8534 90.7325C28.86 87.946 31.0885 85.9425 34.1915 85.936C37.3238 85.9295 40.4561 85.936 43.5917 85.936C45.6278 85.936 47.6605 85.9523 49.6965 85.9295C50.9299 85.9164 51.726 85.1986 51.7521 84.1479C51.7815 83.0548 50.956 82.3109 49.6639 82.275C49.3376 82.2652 49.0113 82.275 48.6883 82.275C41.9342 82.275 35.1801 82.288 28.426 82.2684C25.5906 82.2587 23.4175 80.2095 23.3523 77.5633C23.2837 74.7213 25.4209 72.6623 28.5337 72.6526C35.3302 72.633 42.1235 72.646 48.92 72.646C50.8744 72.646 51.7815 72.0424 51.7521 70.7698C51.726 69.5365 50.8712 68.985 48.9657 68.985C43.9213 68.985 38.8737 69.0242 33.8293 68.9654C30.971 68.9328 28.86 66.8184 28.86 64.1689C28.86 61.5325 31.144 59.5747 33.9598 59.2876C37.7904 58.8993 41.0761 59.6432 43.6211 62.7039C43.7745 62.8866 43.9996 63.0106 44.1823 63.1705C44.861 63.761 45.5821 64.1787 46.5022 63.7252C47.3864 63.2847 47.5985 62.5048 47.592 61.5879C47.5724 59.4735 47.6279 57.3559 47.5659 55.2415C47.5398 54.3279 47.729 53.9722 48.7438 54.0081C51.0996 54.093 53.4619 54.0571 55.8242 54.0277C59.9582 53.9755 62.7382 51.3064 62.8132 47.1951C62.8328 46.1412 63.2178 46.0335 64.089 46.0433C67.8739 46.0792 71.6556 46.0563 75.4405 46.0629C76.1942 46.0629 76.9153 45.9911 77.4145 45.332C77.8387 44.774 77.9561 44.1638 77.6592 43.5014C77.297 42.6922 76.6412 42.3986 75.7961 42.3986C71.8905 42.4018 67.9816 42.3594 64.0792 42.4247C63.022 42.441 62.823 42.1016 62.8263 41.1228C62.8654 32.6195 62.8491 24.1163 62.8459 15.6098C62.8459 12.559 62.9111 9.50486 62.8034 6.45728C62.6631 2.79626 59.7983 0.0227572 56.157 0.0162313C39.6763 -0.00987221 23.1989 -8.33838e-05 6.71822 0.0129684C4.35917 0.0162313 2.52219 1.093 1.14852 3.00508C0.623205 3.73598 0.460063 4.6235 0 5.37398V11.2342C0.489428 12.4024 1.08327 12.8331 2.05234 12.7254C3.01814 12.6177 3.76207 11.864 3.96437 10.7839C4.03289 10.4217 4.03289 10.0563 4.03615 9.69085C4.04268 8.91753 4.02636 8.14422 4.04594 7.37416C4.10141 5.13579 5.12595 4.05902 7.35448 4.05575C23.3784 4.03617 39.4055 4.03617 55.4294 4.05575C57.7232 4.05575 58.6988 5.07053 58.702 7.35132C58.7118 20.4063 58.7118 33.4614 58.702 46.5197C58.702 49.0713 57.87 49.9001 55.3543 49.9164C52.5059 49.9327 49.6607 49.8968 46.8122 49.9294C44.3748 49.9588 43.6015 50.7484 43.5722 53.1597C43.5559 54.5237 43.5885 55.8908 43.5526 57.4179C41.1707 55.4047 38.8671 53.6068 36.7006 51.649C35.3563 50.4319 33.8945 49.8838 32.0641 49.8968C24.0929 49.9555 16.1218 49.9229 8.14735 49.9197C7.65792 49.9197 7.17176 49.936 6.68233 49.9001C5.3054 49.7957 4.34612 48.9212 4.1112 47.554C4.00679 46.9504 4.03941 46.3369 4.03941 45.7268C4.03941 37.4291 4.03941 29.1315 4.03941 20.8338C4.03941 20.2236 4.07204 19.6102 3.96437 19.0065C3.77186 17.9265 3.0214 17.1728 2.0556 17.0651C1.08653 16.9574 0.492691 17.3881 0.00326286 18.5563V48.8298C0.06852 48.8722 0.166406 48.8983 0.192508 48.9571C1.86309 52.8759 3.60545 54.0375 7.82106 54.0375C14.9015 54.0375 21.9786 54.0734 29.0557 54.0081C30.5077 53.9951 31.6138 54.1615 31.9075 55.8778C29.134 56.6283 26.9838 58.276 25.832 61.0593C24.677 63.8524 25.1631 66.5019 26.6934 69.0209C21.9329 70.6589 19.5869 73.5825 19.6946 77.6481C19.799 81.6061 22.2657 84.5133 26.6379 85.8218C26.6412 86.2623 26.3149 86.5494 26.1387 86.9083C25.1534 88.9281 24.9086 91.0066 25.5873 93.1765C26.7587 96.9288 30.0313 99.2162 34.3383 99.226C42.1887 99.2423 50.0424 99.2521 57.8928 99.2064C58.9663 99.1999 59.198 99.3695 58.8032 100.437C57.2762 104.538 55.7426 108.643 54.3755 112.8C52.5907 118.22 56.0526 123.939 61.4983 124.778C61.9388 124.713 62.3793 124.67 62.748 125H64.7024C64.7873 124.931 64.8656 124.817 64.9634 124.798C68.4547 124.103 70.7615 122.018 72.0112 118.742C72.8074 116.66 73.5317 114.549 74.2658 112.444C75.1011 110.039 76.5955 108.212 78.8077 106.93C82.0021 105.073 85.2421 103.282 88.3222 101.252C90.9945 99.4935 93.8593 99.0791 96.9264 99.2129C97.517 99.239 97.7356 99.4022 97.6736 99.983C97.6377 100.306 97.6638 100.632 97.667 100.959C97.6833 102.623 98.3 103.262 99.9347 103.269C102.212 103.279 104.493 103.285 106.77 103.269C108.076 103.259 108.898 102.525 108.891 101.432C108.885 100.342 108.066 99.6306 106.748 99.6175C105.243 99.6012 103.733 99.562 102.232 99.6338C101.442 99.673 101.312 99.4022 101.312 98.6778C101.331 81.4658 101.334 64.2537 101.312 47.045C101.312 46.2391 101.53 46.0433 102.317 46.0498C108.34 46.0824 114.36 46.0857 120.383 46.0498C121.215 46.0433 121.368 46.3076 121.362 47.0711C121.333 52.4027 121.346 57.7311 121.346 63.0628C121.346 74.8616 121.333 86.6636 121.368 98.4624C121.368 99.425 121.127 99.6991 120.177 99.6403C118.758 99.5555 117.329 99.6045 115.906 99.624C114.598 99.6403 113.776 100.365 113.782 101.458C113.789 102.548 114.611 103.269 115.923 103.279C118.037 103.295 120.155 103.285 122.269 103.282C124.504 103.282 125.003 102.789 125.003 100.583C125.003 82.1118 125.003 63.6371 125.003 45.1655C125.003 42.875 124.537 42.4116 122.21 42.4116L122.207 42.4018Z" fill="#404041"/>
<path d="M61.4922 124.778C61.5542 124.843 61.5672 124.918 61.5216 125H62.7418C62.3634 124.703 61.8772 125.026 61.4922 124.778Z" fill="#404041"/>
<path d="M111.365 94.1424C114.511 94.113 117.098 91.5222 117.121 88.3865C117.144 85.2247 114.459 82.5459 111.297 82.572C108.122 82.5981 105.469 85.3096 105.545 88.4583C105.62 91.6103 108.243 94.175 111.369 94.1456L111.365 94.1424ZM111.408 86.2395C112.527 86.2885 113.477 87.2967 113.45 88.4061C113.424 89.5384 112.449 90.4813 111.317 90.4715C110.188 90.4618 109.222 89.5025 109.215 88.3735C109.205 87.2119 110.256 86.1873 111.408 86.2395Z" fill="#5826E7"/>
<path d="M111.305 78.3563C114.486 78.3693 117.145 75.7068 117.119 72.5384C117.09 69.3734 114.532 66.8348 111.354 66.8218C108.137 66.8087 105.507 69.4289 105.539 72.6135C105.572 75.7492 108.176 78.3432 111.305 78.3563ZM111.318 70.4926C112.473 70.4893 113.426 71.4029 113.449 72.5384C113.471 73.6544 112.525 74.6496 111.399 74.692C110.235 74.7344 109.2 73.7294 109.21 72.5613C109.22 71.4258 110.166 70.4991 111.318 70.4958V70.4926Z" fill="#5826E7"/>
<path d="M49.0546 26.9845C49.0382 17.3099 41.1062 9.41359 31.4156 9.42338C21.6923 9.43643 13.8386 17.2903 13.832 27.0106C13.8255 36.7114 21.7053 44.637 31.3829 44.6599C41.0965 44.6827 49.0741 36.7081 49.0546 26.9878V26.9845ZM17.4962 27.0237C17.4962 19.3036 23.7674 13.0518 31.4645 13.0975C39.1844 13.1399 45.423 19.4145 45.3904 27.0955C45.3578 34.6949 39.0572 40.9793 31.4515 40.9956C23.7837 41.0119 17.493 34.7144 17.4962 27.0237Z" fill="#5826E7"/>
<path d="M38.3575 34.2544C39.0656 33.468 38.9742 32.4141 38.0867 31.5624C36.2106 29.7613 33.9364 28.9521 31.5153 28.8868C28.8333 28.9521 26.6145 29.82 24.7612 31.5559C23.8574 32.401 23.7758 33.4582 24.4904 34.2511C25.2213 35.0603 26.1969 35.0701 27.192 34.2772C30.0992 31.9605 32.752 31.9638 35.6461 34.2837C36.6315 35.0733 37.6267 35.0636 38.3543 34.2511L38.3575 34.2544Z" fill="#5826E7"/>
<path d="M27.4499 23.9239C28.7094 23.9435 29.3032 23.0429 29.3032 21.108C29.3032 20.8241 29.313 20.5402 29.3032 20.2596C29.251 19.0621 28.5104 18.2888 27.4467 18.3083C26.4319 18.3279 25.7206 19.0719 25.6488 20.2041C25.6325 20.4847 25.6456 20.7719 25.6456 21.0525C25.6456 23.02 26.2003 23.9043 27.4532 23.9239H27.4499Z" fill="#5826E7"/>
<path d="M35.3261 23.9239C36.5856 23.9565 37.186 23.0527 37.1762 21.121C37.1762 20.798 37.1892 20.4749 37.1762 20.1519C37.1207 19.0654 36.5595 18.416 35.4697 18.3181C34.4452 18.2268 33.6751 18.9446 33.5413 20.0703C33.4989 20.4293 33.5218 20.798 33.5218 21.1602C33.5218 23.02 34.0928 23.8912 35.3261 23.9239Z" fill="#5826E7"/>
</g>
<defs>
<clipPath id="clip0_1180_261">
<rect width="125" height="125" fill="white"/>
</clipPath>
</defs>
</svg>
