<svg width="122" height="102" viewBox="0 0 122 102" fill="none" xmlns="http://www.w3.org/2000/svg">
<g clip-path="url(#clip0_473_758)">
<path d="M106.957 101.136C100.52 101.098 93.4223 101.081 84.6174 101.081C80.1384 101.081 75.6803 101.084 71.2813 101.091C66.8058 101.095 62.3267 101.101 57.8511 101.101H32.5303C24.6449 101.101 16.7561 101.101 8.86725 101.101C4.76436 101.101 1.83871 98.9864 1.04112 95.4463C0.894832 94.7942 0.873935 94.1283 0.873935 93.5072C0.866969 68.4713 0.866969 43.4354 0.870452 18.396C0.870452 13.8553 3.98071 10.8017 8.60952 10.8017C16.7839 10.8017 24.4882 10.7983 31.9103 10.7983C45.0514 10.7983 57.3113 10.8052 69.707 10.819C70.3932 10.819 70.7972 10.6396 71.3161 10.1151C77.3521 3.98379 84.2169 0.875 91.7191 0.875C94.5542 0.875 97.5182 1.32355 100.534 2.20684C111.422 5.39844 118.357 13.0617 120.586 24.3617C122.09 31.9767 120.46 39.2294 115.741 45.9162C115.306 46.5304 115.131 47.1031 115.131 47.8864C115.138 52.6789 115.131 57.4681 115.124 62.2606C115.11 72.3323 115.097 82.7489 115.201 93.0483C115.225 95.3808 114.452 97.3923 112.968 98.8691C111.495 100.336 109.381 101.143 107.02 101.143H106.957V101.136ZM106.839 97.6511C107.629 97.6511 108.388 97.6339 109.102 97.4372C109.228 97.4027 109.318 97.3716 109.385 97.3475C109.346 97.2854 109.287 97.206 109.207 97.106C102.812 89.1805 96.334 81.1031 90.0717 73.2915L89.9846 73.1811C87.4769 70.0516 84.9657 66.9221 82.458 63.796C81.8694 63.0611 81.6848 62.9921 81.6395 62.9887C81.5838 62.9887 81.3888 63.0611 80.7479 63.7201C76.1783 68.4472 71.6157 73.1707 67.0565 77.9012C65.8027 79.202 64.6185 79.8334 63.4343 79.8334C63.3751 79.8334 63.3193 79.8334 63.2601 79.8299C62.0341 79.7644 60.8883 79.0191 59.7563 77.5561C59.7563 77.5561 45.2221 58.7343 41.4048 53.7934C40.9311 53.1827 40.7117 52.9515 40.6141 52.8756C40.5201 52.9515 40.2937 53.193 39.7887 53.8486L18.9538 81.0203C14.9345 86.2649 10.7829 91.6889 6.62077 97.0715C6.56156 97.1474 6.51628 97.2095 6.48493 97.2578C6.53369 97.2785 6.59639 97.3061 6.67301 97.3337C7.4706 97.6235 8.31347 97.6477 9.25386 97.6477H48.2348C48.2348 97.6477 95.7976 97.6477 106.839 97.6477V97.6511ZM37.5526 14.2349C27.8353 14.2349 18.1214 14.2349 8.40402 14.2418C5.90676 14.2418 4.35338 15.8186 4.35338 18.3512C4.35338 31.1486 4.3499 93.5866 4.3499 93.5866C4.3499 93.835 4.3499 94.0834 4.37776 94.3284C4.47877 94.2008 4.57629 94.0765 4.67381 93.9489L37.1068 51.6473C38.2701 50.1326 39.4125 49.3942 40.6072 49.3907C41.8088 49.3907 42.9616 50.1291 44.1354 51.6507L62.574 75.5066C63.187 76.3002 63.396 76.4348 63.4691 76.4451C63.5214 76.4451 63.7303 76.3589 64.4234 75.6446C69.0488 70.859 73.6671 66.0698 78.2855 61.2807C78.8741 60.6735 79.4732 60.1041 80.3648 59.8419C80.8106 59.7108 81.246 59.6452 81.6535 59.6452C82.9456 59.6452 84.095 60.2939 85.1677 61.6327C90.8937 68.7715 96.6196 75.9103 102.346 83.0526L111.081 93.9454C111.161 94.0455 111.241 94.1421 111.321 94.2422C111.662 86.9964 111.83 57.261 111.565 50.6087C106.177 55.2909 99.3607 57.8649 92.3321 57.8649C86.6898 57.8649 81.2042 56.2087 76.4674 53.0757C71.0863 49.5149 67.3282 44.7224 65.3046 38.8257C62.4033 30.3792 63.3263 22.1086 68.0422 14.2383H37.5526V14.2349ZM92.3948 4.39093C78.4979 4.39093 67.1749 15.5736 67.1506 29.3199C67.1401 36.0309 69.7593 42.3313 74.5239 47.0652C79.2816 51.7887 85.6205 54.3938 92.3704 54.3972C106.278 54.3972 117.601 43.2146 117.625 29.4717C117.639 22.7642 115.016 16.4638 110.245 11.7264C105.484 6.99942 99.1447 4.39438 92.3948 4.39438V4.39093Z" fill="#404041"/>
<path d="M91.719 1.03794C94.5472 1.03794 97.4694 1.47959 100.486 2.36289C111.307 5.53723 118.2 13.1522 120.415 24.3866C121.909 31.9533 120.29 39.1611 115.598 45.81C115.142 46.4587 114.957 47.0556 114.957 47.8802C114.964 52.6728 114.957 57.4619 114.95 62.2545C114.936 72.3468 114.926 82.7842 115.027 93.0457C115.051 95.3298 114.295 97.3 112.843 98.7422C111.401 100.178 109.332 100.968 107.016 100.968C106.995 100.968 106.974 100.968 106.953 100.968C99.5347 100.923 92.0395 100.913 84.6104 100.913C80.1313 100.913 75.6732 100.916 71.2708 100.923C66.7952 100.926 62.3162 100.933 57.8406 100.933H44.7343C40.6628 100.933 36.5947 100.933 32.5232 100.933C24.6378 100.933 16.749 100.933 8.86019 100.933C4.84437 100.933 1.98489 98.8664 1.20471 95.4126C1.06191 94.7777 1.04101 94.1222 1.04101 93.508C1.03405 68.4721 1.03405 43.4362 1.03753 18.4002C1.03753 13.963 4.07813 10.9785 8.60245 10.9785C16.7769 10.9785 24.4811 10.975 31.9032 10.975C45.0443 10.975 57.3042 10.9819 69.7 10.9957H69.7035C70.4314 10.9957 70.8842 10.7991 71.431 10.2401C77.453 4.12603 84.2447 1.05174 91.7086 1.05174L91.719 1.03794ZM92.3599 54.5843H92.3738C106.365 54.5843 117.764 43.3292 117.789 29.4863C117.803 22.7339 115.163 16.3887 110.356 11.6168C105.56 6.85527 99.1795 4.23299 92.3843 4.23299H92.3808C78.3899 4.23299 66.9868 15.4916 66.9624 29.3345C66.9519 36.0903 69.5885 42.4355 74.388 47.204C79.1805 51.962 85.5612 54.5843 92.3599 54.5878V54.5843ZM4.26969 94.7501C4.46125 94.5086 4.63539 94.2843 4.80954 94.0601L37.2426 51.7585C38.371 50.2886 39.4682 49.5709 40.6036 49.5709H40.6071C41.746 49.5709 42.8536 50.2886 43.9925 51.7619L62.4311 75.6178C62.661 75.9145 63.1973 76.6115 63.4516 76.6253H63.4586C63.7128 76.6253 64.3154 76.0042 64.5418 75.7696C69.1671 70.9874 73.7855 66.1983 78.4038 61.4057C78.975 60.8157 79.5567 60.2636 80.4065 60.0118C80.8384 59.8841 81.2494 59.822 81.6464 59.822C82.8933 59.822 83.9869 60.45 85.0249 61.7438C90.7508 68.8827 96.4767 76.0215 102.203 83.1638L110.938 94.0566C111.112 94.2705 111.286 94.4845 111.464 94.7053C111.829 88.191 112.014 56.3337 111.715 50.2437C106.18 55.1709 99.2665 57.6966 92.3251 57.6966C86.8638 57.6966 81.3852 56.1301 76.5579 52.9385C71.2081 49.3984 67.4744 44.6369 65.4613 38.7747C62.5426 30.2833 63.5143 21.9748 68.3416 14.07H56.8166C50.3941 14.07 43.9681 14.07 37.5421 14.07C27.8247 14.07 18.1108 14.07 8.39347 14.0769C5.78824 14.0769 4.16868 15.7193 4.16868 18.3588C4.16868 31.3012 4.16868 44.247 4.16868 57.1894C4.16868 69.3243 4.16868 81.4593 4.16868 93.5943C4.16868 94.0118 4.17913 94.3775 4.2662 94.7501H4.26969ZM37.8103 97.8244C41.2862 97.8244 44.7622 97.8244 48.2382 97.8244H73.7297C84.7671 97.8244 95.8045 97.8244 106.842 97.8244H106.852C107.646 97.8244 108.42 97.8072 109.151 97.6036C109.437 97.5242 109.569 97.4656 109.628 97.4311C109.604 97.3655 109.534 97.231 109.346 96.9998C102.924 89.0363 96.414 80.9245 90.1239 73.0749C87.6162 69.9454 85.105 66.8159 82.5973 63.6899C82.4092 63.4552 81.9076 62.8273 81.6499 62.8169H81.6429C81.3817 62.8169 80.8314 63.3897 80.6224 63.6071C76.0563 68.3272 71.4937 73.0542 66.9345 77.7812C65.7155 79.044 64.5661 79.6582 63.4377 79.6582C63.3819 79.6582 63.3297 79.6582 63.274 79.6547C62.1002 79.5926 60.9961 78.8681 59.899 77.4465L52.9924 68.5031C49.1786 63.5622 45.3648 58.6247 41.5475 53.6838C41.3246 53.3939 40.8021 52.7177 40.6175 52.6797C40.4399 52.7211 39.8896 53.4388 39.6528 53.7459L18.8179 80.9176C14.7846 86.1829 10.6121 91.6275 6.48483 96.9653C6.33506 97.1585 6.27585 97.2689 6.24799 97.3276C6.30023 97.3621 6.40472 97.4173 6.61718 97.4966C7.44263 97.7968 8.30292 97.821 9.25724 97.821C18.7761 97.821 28.2949 97.821 37.8103 97.821V97.8244ZM91.719 0.692903C84.1681 0.692903 77.2649 3.81894 71.1942 9.98477C70.7065 10.4782 70.3478 10.6369 69.7139 10.6369C58.1227 10.6231 46.1136 10.6162 31.9137 10.6162C24.4916 10.6162 16.7873 10.6162 8.6129 10.6196C3.8796 10.6196 0.699685 13.7422 0.699685 18.3864C0.696202 43.2947 0.699685 68.5652 0.703168 93.4977C0.703168 94.1325 0.724065 94.8088 0.873831 95.4747C1.69232 99.1011 4.68067 101.264 8.87063 101.268C16.756 101.268 24.6448 101.268 32.5336 101.268H57.8545C62.3301 101.268 66.8091 101.261 71.2847 101.258C75.6836 101.254 80.1418 101.247 84.6208 101.247C93.4257 101.247 100.524 101.264 106.96 101.302H107.023C109.433 101.302 111.589 100.478 113.097 98.9768C114.616 97.4656 115.406 95.4126 115.382 93.0319C115.278 82.7325 115.292 72.3158 115.305 62.2441C115.312 57.5344 115.319 52.6694 115.312 47.8699C115.312 47.1143 115.473 46.5898 115.891 45.9998C120.634 39.2716 122.275 31.974 120.763 24.3142C118.52 12.9452 111.544 5.2405 100.59 2.0282C97.5599 1.138 94.5785 0.689453 91.726 0.689453L91.719 0.692903ZM92.3704 54.5705V54.2255C85.6657 54.222 79.3721 51.6342 74.6457 46.9452C69.9124 42.2458 67.3107 35.9833 67.3211 29.3207C67.3455 15.671 78.5919 4.56422 92.3913 4.56422C99.0959 4.56422 105.393 7.15201 110.119 11.848C114.86 16.5508 117.461 22.8098 117.451 29.4725C117.423 43.1222 106.18 54.2289 92.3843 54.2289L92.3704 54.574V54.5705ZM4.52394 93.8599C4.52394 93.7702 4.52394 93.6805 4.52394 93.5908C4.52394 81.4558 4.52394 69.3209 4.52394 57.1859V56.7443C4.52394 43.9468 4.52394 31.1494 4.52394 18.3554C4.52394 15.8918 5.97284 14.4185 8.40044 14.4185C18.1178 14.4116 27.8317 14.4116 37.5491 14.4116C42.9546 14.4116 48.3601 14.4116 53.7656 14.4116H67.7391C63.1277 22.2508 62.2535 30.48 65.1408 38.8817C67.1783 44.8129 70.9573 49.6365 76.3733 53.2214C81.1379 56.3716 86.6583 58.0381 92.3355 58.0381C99.2874 58.0381 106.03 55.5366 111.408 50.9752C111.648 58.121 111.495 85.9551 111.171 93.7771L102.485 82.9464C96.7588 75.8076 91.0329 68.6653 85.307 61.5265C84.1994 60.1463 83.0048 59.4735 81.6569 59.4735C81.2319 59.4735 80.7792 59.5425 80.3159 59.6771C79.3825 59.9531 78.7626 60.5362 78.16 61.1642C73.7611 65.729 69.0347 70.6286 64.298 75.5281C63.7964 76.0457 63.5735 76.2078 63.476 76.263C63.3785 76.1975 63.166 75.9939 62.7132 75.4073L44.2746 51.5514C43.0625 49.985 41.8644 49.2224 40.614 49.2224C39.3567 49.2224 38.1655 49.985 36.9709 51.548L4.53091 93.8496L4.52046 93.8599H4.52394ZM6.75998 97.1792H6.76346C10.9256 91.7932 15.0772 86.3692 19.0965 81.1246L39.9314 53.9529C40.2901 53.4871 40.4991 53.2387 40.621 53.111C40.7394 53.2318 40.938 53.4629 41.2688 53.8942C45.0583 58.8007 48.8477 63.7071 52.6371 68.6135L52.7137 68.7136L59.6204 77.657C60.7837 79.1648 61.9714 79.9273 63.2531 79.9998C63.3158 79.9998 63.375 80.0032 63.4342 80.0032C64.6706 80.0032 65.8966 79.3546 67.1818 78.0193C71.6922 73.3406 76.2966 68.5721 80.8697 63.8451C81.3364 63.3621 81.5454 63.2172 81.6325 63.1723C81.7161 63.2241 81.9076 63.3862 82.3221 63.9038C84.8333 67.0333 87.341 70.1593 89.8487 73.2888L89.9358 73.3992C96.2016 81.2109 102.676 89.2882 109.071 97.2137C109.085 97.2275 109.095 97.2448 109.106 97.2586C109.088 97.262 109.071 97.2689 109.054 97.2724C108.364 97.4656 107.615 97.4828 106.849 97.4828C95.801 97.4828 84.7636 97.4828 73.7262 97.4828H37.8103C28.2914 97.4828 18.7726 97.4828 9.25724 97.4828C8.34471 97.4828 7.52274 97.4587 6.7565 97.1861L6.75998 97.1792Z" fill="#404041"/>
<path d="M106.954 101.827C100.51 101.789 93.3982 101.772 84.569 101.772C80.1457 101.772 75.7502 101.775 71.407 101.779H71.2851C66.8095 101.782 62.3305 101.789 57.8549 101.789H32.5375C24.6487 101.789 16.7599 101.789 8.86755 101.789C4.41637 101.789 1.23646 99.4702 0.362241 95.592C0.202026 94.8743 0.177646 94.1636 0.177646 93.5011C0.17068 68.4652 0.17068 43.4292 0.174163 18.3899C0.174163 13.4351 3.56305 10.1055 8.60981 10.1055C16.1295 10.1055 23.872 10.1021 31.7573 10.1021C44.1426 10.1021 56.8867 10.1055 69.7073 10.1228C70.2019 10.1228 70.4283 10.0192 70.8149 9.6259C76.9971 3.35312 84.0222 0.171875 91.6985 0.171875C94.6033 0.171875 97.6404 0.630775 100.73 1.53822C111.882 4.80918 118.984 12.6519 121.269 24.221C122.808 32.0257 121.143 39.4578 116.312 46.3034C115.964 46.7968 115.828 47.2384 115.828 47.8768C115.835 52.6693 115.828 57.4585 115.821 62.251C115.807 72.3192 115.793 82.729 115.898 93.0318C115.922 95.5541 115.079 97.7381 113.46 99.346C111.854 100.944 109.566 101.823 107.016 101.823H106.95L106.954 101.827ZM84.6212 100.043C93.4226 100.043 100.521 100.06 106.964 100.098H107.02C109.103 100.098 110.952 99.3978 112.227 98.128C113.509 96.8514 114.177 95.0952 114.156 93.0456C114.052 82.7325 114.066 72.3192 114.08 62.2476C114.087 57.4585 114.094 52.6659 114.087 47.8768C114.087 46.8727 114.324 46.1067 114.884 45.3131C119.433 38.8644 121.007 31.8774 119.558 24.5488C117.406 13.6525 110.726 6.26524 100.235 3.1875C97.3269 2.33526 94.4675 1.90396 91.7368 1.90396C84.5098 1.90396 77.8922 4.90579 72.0618 10.8266C71.3408 11.5581 70.6825 11.8445 69.7108 11.8445C56.9319 11.8307 44.2262 11.8238 31.8792 11.8238C23.9486 11.8238 16.1712 11.8238 8.60981 11.8272C4.60793 11.8272 1.91563 14.4633 1.91563 18.3864C1.91214 43.4223 1.91563 68.4583 1.91911 93.4942C1.91911 94.0566 1.93652 94.657 2.06191 95.209C2.74456 98.2419 5.29058 100.053 8.86755 100.057C16.4917 100.057 24.1158 100.057 31.7365 100.057H57.848C62.3235 100.057 66.7991 100.05 71.2781 100.046C75.6805 100.043 80.1387 100.036 84.6212 100.036V100.043ZM9.25415 98.6835C8.21276 98.6835 7.27585 98.6559 6.31456 98.304C6.08121 98.2177 5.90358 98.1349 5.76774 98.0487L5.15823 97.6519L5.44732 96.9894C5.51349 96.8341 5.62843 96.6547 5.79212 96.4443C9.90546 91.1238 14.0153 85.7619 17.9893 80.5725L38.96 53.2248C39.7472 52.2001 40.0328 51.9275 40.4264 51.8412L40.6144 51.7998L40.8025 51.8378C41.1926 51.9206 41.5026 52.2035 42.241 53.1593C46.0582 58.1002 60.5925 76.922 60.5925 76.922C61.5259 78.1297 62.4176 78.7438 63.3231 78.7921C63.3614 78.7921 63.4032 78.7921 63.4415 78.7921C64.3227 78.7921 65.2596 78.2642 66.308 77.1808C70.8671 72.4503 75.4298 67.7268 79.9959 63.0032C80.6576 62.32 81.1174 61.9474 81.6433 61.9474H81.6956C82.2389 61.975 82.6882 62.4063 83.2803 63.1447C85.492 65.8981 90.9009 72.647 90.9009 72.647C96.8289 80.0412 103.551 88.4221 110.029 96.4546C110.231 96.7065 110.367 96.9239 110.444 97.1136L110.712 97.7968L110.074 98.1694C109.918 98.2591 109.702 98.342 109.392 98.4282C108.552 98.6628 107.713 98.6835 106.856 98.6835H9.25764H9.25415ZM106.839 96.9584C107.274 96.9584 107.727 96.9549 108.159 96.9066C101.945 89.2054 95.6621 81.3661 89.5809 73.7822L89.4381 73.6028C86.9304 70.4733 84.4192 67.3438 81.9115 64.2177C81.7931 64.0694 81.6886 63.9452 81.598 63.8451C81.497 63.9383 81.3821 64.0521 81.2497 64.1901C76.6801 68.9172 72.1175 73.6407 67.5584 78.3677C66.1652 79.81 64.8173 80.5139 63.4346 80.5139C63.3649 80.5139 63.2953 80.5139 63.2221 80.507C61.7802 80.4276 60.4636 79.5961 59.2028 77.964C59.2028 77.964 44.1496 58.4694 40.8548 54.2013C40.7677 54.0874 40.6911 53.9908 40.6214 53.9046C40.5413 54.0046 40.4507 54.1219 40.3462 54.26L19.2815 81.7318C15.4921 86.6762 11.5773 91.7897 7.65201 96.8686C8.15703 96.948 8.69689 96.9549 9.25415 96.9549H48.2351C48.2351 96.9549 95.7979 96.9549 106.839 96.9549V96.9584ZM110.792 95.2401C110.611 95.0192 110.433 94.8019 110.259 94.5845L101.524 83.6917C95.7979 76.5528 90.072 69.4106 84.3461 62.2717C83.4753 61.1849 82.6151 60.6777 81.6363 60.6777C81.3264 60.6777 81.0059 60.726 80.6576 60.8295C80.0098 61.0192 79.5396 61.4678 79.0346 61.9923C74.4162 66.7814 69.7979 71.5705 65.1725 76.3562C64.361 77.1946 63.9291 77.4775 63.459 77.4775H63.4067C62.8494 77.4465 62.4071 76.9979 61.7384 76.1319L43.2998 52.276C42.335 51.027 41.4538 50.4197 40.6075 50.4197C39.7611 50.4197 38.8869 51.027 37.9326 52.2656L5.50304 94.581C5.32541 94.8122 5.14778 95.0365 4.95274 95.2815L3.82427 96.7065L3.42025 94.9399C3.31228 94.4637 3.30183 94.0117 3.30183 93.5908C3.30183 93.5908 3.30183 31.1528 3.30531 18.3554C3.30531 15.2328 5.308 13.2108 8.40084 13.2108C18.1182 13.2039 27.8321 13.2039 37.5495 13.2039H69.8919L69.0908 14.5151C64.4028 22.1922 63.459 30.2591 66.2906 38.4952C68.241 44.1711 71.8598 48.7877 77.0459 52.2173C81.5667 55.2088 86.8433 56.7891 92.3011 56.7891C99.2391 56.7891 105.926 54.2358 111.137 49.5985L112.499 48.3874L112.589 50.1989C112.885 56.1922 112.704 88.2531 112.338 94.7501L112.213 96.9756L110.792 95.247V95.2401ZM81.6538 58.9525C83.1688 58.9525 84.4958 59.6874 85.7079 61.2021C91.0786 67.8958 96.4458 74.5896 101.816 81.2868L110.691 92.3521C110.97 83.3949 111.095 60.0807 110.907 52.0483C106.188 55.785 100.559 58.0002 94.6103 58.4625C93.8371 58.5212 93.0534 58.5522 92.2837 58.5522C86.5333 58.5522 80.9328 56.8546 76.0776 53.6458C70.5641 49.9987 66.7155 45.0854 64.6397 39.0438C61.8011 30.7767 62.5395 22.6649 66.8374 14.9257H37.5529C27.8356 14.9257 18.1217 14.9257 8.40432 14.9326C6.30411 14.9326 5.05026 16.2127 5.05026 18.3554C5.05026 31.1528 5.04678 92.3279 5.04678 92.3279L36.5533 51.234C37.856 49.5364 39.1829 48.7083 40.6075 48.7049C42.0389 48.7049 43.3729 49.5329 44.6895 51.234L63.1281 75.0899C63.2778 75.2831 63.4067 75.4453 63.5147 75.5695C63.6296 75.4625 63.7654 75.3314 63.9187 75.1692C68.544 70.387 73.1624 65.5979 77.7808 60.8088C78.4077 60.1567 79.1112 59.4942 80.1665 59.1836C80.6785 59.0318 81.1836 58.9559 81.6607 58.9559L81.6538 58.9525ZM92.3812 55.4296C85.3352 55.4262 78.7351 52.7142 73.7789 47.794C68.8157 42.8634 66.0886 36.3008 66.099 29.3137C66.1234 14.9981 77.9166 3.35312 92.3881 3.35312C99.4167 3.35312 106.02 6.06512 110.98 10.9888C115.95 15.9228 118.681 22.4855 118.667 29.469C118.639 43.7846 106.849 55.4296 92.3812 55.4296ZM92.3812 53.7044C105.891 53.7044 116.901 42.8323 116.925 29.4656C116.939 22.9444 114.39 16.813 109.747 12.2068C105.118 7.61089 98.9535 5.07831 92.3916 5.07486C78.8779 5.07486 67.8649 15.947 67.8405 29.3137C67.83 35.8384 70.376 41.9697 75.0118 46.5725C79.6371 51.165 85.8019 53.6976 92.3672 53.701H92.3812V53.7044Z" fill="#404041"/>
<path d="M91.6985 0.344126C94.5963 0.344126 97.5916 0.796125 100.681 1.70357C111.767 4.95383 118.827 12.7517 121.098 24.2552C122.63 32.0117 120.973 39.3989 116.17 46.2065C115.797 46.7344 115.654 47.2037 115.654 47.88C115.661 52.6725 115.654 57.4617 115.647 62.2542C115.633 72.3259 115.619 82.7391 115.724 93.035C115.748 95.5089 114.923 97.6516 113.338 99.2284C111.764 100.795 109.521 101.654 107.02 101.654H106.954C99.5177 101.609 92.0085 101.599 84.569 101.599C80.1039 101.599 75.6666 101.602 71.2816 101.606C66.806 101.609 62.327 101.616 57.8514 101.616H44.7452C40.6771 101.616 36.6091 101.616 32.541 101.616C24.6522 101.616 16.7633 101.616 8.87102 101.616C4.50691 101.616 1.38969 99.3492 0.536371 95.5538C0.379639 94.8534 0.355259 94.1529 0.355259 93.5008C0.348293 68.4649 0.348293 43.429 0.351776 18.3896C0.351776 13.5384 3.67101 10.2778 8.61328 10.2778C16.1329 10.2778 23.8755 10.2743 31.7608 10.2743C44.1461 10.2743 56.8901 10.2778 69.7108 10.295C70.2507 10.295 70.5258 10.1708 70.9438 9.7464C77.1051 3.48742 84.0605 0.344126 91.6985 0.344126ZM69.7143 11.6717C56.9354 11.6579 44.2297 11.651 31.8827 11.651C23.9521 11.651 16.1747 11.651 8.61328 11.6545C4.50691 11.6545 1.74495 14.363 1.74495 18.3861C1.74146 43.4221 1.74495 68.458 1.74843 93.4939C1.74843 94.0667 1.76584 94.6774 1.89471 95.2467C2.59826 98.3659 5.20349 100.229 8.87102 100.229C16.4951 100.229 24.1193 100.229 31.7399 100.229C36.0762 100.229 40.4089 100.229 44.7417 100.229H57.8479C62.3235 100.229 66.7991 100.226 71.2781 100.219C75.6805 100.215 80.1387 100.208 84.6212 100.208C92.0468 100.208 99.5386 100.222 106.961 100.264H107.016C109.145 100.264 111.039 99.5459 112.349 98.2416C113.665 96.934 114.351 95.1329 114.327 93.0385C114.223 82.7356 114.237 72.3155 114.25 62.2404C114.257 57.4513 114.264 52.6587 114.257 47.8696C114.257 46.907 114.484 46.1686 115.024 45.4026C119.6 38.9124 121.182 31.884 119.726 24.5071C117.563 13.5418 110.837 6.1097 100.28 3.01472C97.3409 2.15212 94.4918 1.72428 91.7334 1.72428C84.4506 1.72428 77.8156 4.7261 71.9364 10.6987C71.2537 11.3922 70.6303 11.6614 69.7073 11.6614L69.7143 11.6717ZM92.3882 3.51847C99.3714 3.51847 105.93 6.21322 110.858 11.1058C115.793 16.0054 118.507 22.5266 118.493 29.4618C118.465 43.6808 106.752 55.25 92.3812 55.25H92.3638C85.3805 55.2465 78.8221 52.5518 73.9008 47.666C68.9689 42.77 66.2592 36.2487 66.2732 29.31C66.2975 15.091 78.0141 3.52192 92.3882 3.52192V3.51847ZM92.3812 54.5633V53.8733C105.985 53.8733 117.075 42.9252 117.1 29.4618C117.113 22.8923 114.547 16.7196 109.872 12.0823C105.209 7.4519 99.0022 4.90207 92.3916 4.90207C78.7803 4.90207 67.6907 15.8536 67.6663 29.3135C67.6559 35.8864 70.2193 42.0592 74.8899 46.693C79.5501 51.32 85.7567 53.8698 92.3673 53.8733L92.3812 54.5633ZM37.5529 13.3727H69.5889L68.948 14.4217C64.2322 22.1436 63.2848 30.2589 66.1303 38.5467C68.0912 44.2571 71.7344 48.9047 76.9518 52.3585C81.6155 55.4432 86.9617 56.9579 92.3046 56.9579C99.0928 56.9579 105.878 54.5116 111.255 49.7259L112.345 48.7564L112.418 50.2055C112.715 56.1954 112.533 88.2424 112.168 94.7395L112.067 96.5199L110.931 95.1363C110.75 94.9155 110.573 94.6981 110.402 94.4842L101.667 83.5914C95.9407 76.4525 90.2148 69.3102 84.4889 62.1714C83.5903 61.05 82.6812 60.5152 81.6433 60.5152C81.3159 60.5152 80.9746 60.5704 80.6124 60.674C79.9227 60.8775 79.4351 61.3399 78.9127 61.8816C74.2943 66.6707 69.676 71.4598 65.0506 76.2455C64.2774 77.046 63.8769 77.3151 63.4659 77.3151H63.4206C62.9365 77.2875 62.522 76.8631 61.8847 76.0385L43.446 52.1826C42.4464 50.8887 41.52 50.2607 40.6144 50.2607C39.7089 50.2607 38.7894 50.8887 37.8002 52.1757L5.36371 94.4738C5.18956 94.7016 5.00845 94.9293 4.81689 95.1743L3.91481 96.3129L3.5909 94.8982C3.48641 94.4393 3.47596 94.0011 3.47596 93.5871V57.1822C3.47596 44.2398 3.47596 31.294 3.47944 18.3516C3.47944 15.3326 5.41247 13.3796 8.40082 13.3796C18.1182 13.3727 27.8321 13.3727 37.5494 13.3727H37.5529ZM4.86913 92.8384L36.6892 51.3372C37.9569 49.6845 39.2387 48.8806 40.604 48.8771C41.9797 48.8771 43.2684 49.6811 44.5501 51.3407L62.9888 75.1966C63.2291 75.5071 63.3928 75.6969 63.5007 75.8142C63.6157 75.7141 63.7898 75.5554 64.0441 75.2897C68.6694 70.5041 73.2878 65.7184 77.9061 60.9258C78.5191 60.291 79.2018 59.6457 80.2153 59.349C80.7134 59.2041 81.194 59.1282 81.6572 59.1282C83.1131 59.1282 84.4018 59.8493 85.5755 61.3123C91.3015 68.4511 97.0274 75.5899 102.753 82.7322L110.851 92.8315C111.14 84.2366 111.276 59.4974 111.074 51.6995C106.316 55.5536 100.653 57.8274 94.5998 58.2966C93.8266 58.3553 93.0534 58.3864 92.2871 58.3864C86.5577 58.3864 81.0303 56.7198 76.1786 53.5075C70.7 49.8812 66.8722 44.9989 64.8103 38.9952C61.9543 30.6798 62.738 22.53 67.1404 14.7598H37.5529C27.8356 14.7598 18.1217 14.7598 8.4043 14.7667C6.19613 14.7667 4.8761 16.1123 4.8761 18.362C4.8761 31.3043 4.8761 44.2502 4.8761 57.1925V92.8453L4.86913 92.8384ZM40.6144 51.9825L40.7642 52.0135C41.1055 52.086 41.3946 52.3551 42.1016 53.2729C45.9189 58.2138 49.7327 63.1548 53.5465 68.0923L60.4532 77.0356C61.418 78.2881 62.3549 78.9195 63.3127 78.9713C63.3545 78.9713 63.3963 78.9713 63.4415 78.9713C64.3784 78.9713 65.3537 78.4261 66.4334 77.3048C70.9925 72.5743 75.5552 67.8507 80.1213 63.1272C80.7482 62.4785 81.1836 62.1266 81.6433 62.1266C81.6572 62.1266 81.6712 62.1266 81.6851 62.1266C82.1623 62.1473 82.5802 62.5579 83.1445 63.2583C85.6556 66.3878 88.1634 69.5138 90.6745 72.6433L90.7651 72.7572C97.0274 80.5654 103.502 88.6427 109.893 96.5648C110.085 96.8028 110.214 97.003 110.28 97.1789L110.496 97.7275L109.984 98.0243C109.841 98.1071 109.636 98.1864 109.343 98.2658C108.525 98.4935 107.699 98.5142 106.853 98.5142C95.8049 98.5142 84.7675 98.5142 73.7301 98.5142H48.2386C43.9302 98.5142 39.6218 98.5142 35.3134 98.5142C26.627 98.5142 17.944 98.5142 9.25762 98.5142C8.23364 98.5142 7.31067 98.4866 6.37724 98.145C6.15782 98.0657 5.99064 97.9863 5.86525 97.907L5.37764 97.5895L5.60751 97.0582C5.67021 96.9167 5.77469 96.7511 5.93143 96.5475C10.09 91.1684 14.2452 85.7444 18.261 80.4998L39.0959 53.3281C39.8412 52.3551 40.1233 52.0825 40.4612 52.0066L40.6109 51.9721L40.6144 51.9825ZM36.8563 97.1306C40.6493 97.1306 44.4422 97.1306 48.2386 97.1306H73.7301C84.7675 97.1306 95.8049 97.1306 106.842 97.1306C107.417 97.1306 107.971 97.1203 108.49 97.0375C102.196 89.2362 95.8293 81.2969 89.668 73.6129L89.5774 73.499C87.0697 70.3695 84.5585 67.24 82.0508 64.114C81.8488 63.8621 81.7095 63.7068 81.612 63.6102C81.5075 63.6999 81.3542 63.8414 81.1278 64.076C76.5582 68.803 71.9956 73.5266 67.4364 78.2571C66.0816 79.6648 64.765 80.348 63.438 80.348C63.3719 80.348 63.3022 80.348 63.236 80.3411C61.8464 80.2652 60.5751 79.4544 59.3456 77.8637L52.439 68.9203C48.6252 63.9794 44.8114 59.0419 40.9941 54.101C40.8408 53.9009 40.7189 53.7491 40.6214 53.6317C40.5169 53.7594 40.3811 53.9319 40.2069 54.1562L19.372 81.3279C15.4538 86.4448 11.4031 91.7308 7.3455 96.9823C7.93063 97.1134 8.568 97.1237 9.25762 97.1237C18.456 97.1237 27.6579 97.1237 36.8563 97.1237V97.1306ZM91.702 -0.000911748C83.9734 -0.000911748 76.9065 3.19759 70.6965 9.50142C70.3412 9.86371 70.1566 9.94652 69.7108 9.94652C58.2903 9.93272 45.8736 9.92582 31.7608 9.92582C23.8755 9.92582 16.1329 9.92582 8.61328 9.92927C3.46203 9.93272 0 13.3313 0 18.3896C0 43.3427 0 68.6133 0.00696586 93.4974C0.00696586 94.1702 0.0313464 94.8948 0.195044 95.6263C1.08667 99.5907 4.33276 101.958 8.87102 101.958C16.7598 101.958 24.6487 101.958 32.541 101.958H57.8549C62.3305 101.958 66.8095 101.951 71.2851 101.947H71.407C75.7502 101.944 80.1491 101.94 84.569 101.94C93.3982 101.94 100.51 101.958 106.954 101.996H107.023C109.618 101.996 111.952 101.099 113.592 99.4665C115.247 97.8242 116.103 95.5952 116.079 93.0281C115.975 82.7253 115.988 72.3155 116.002 62.2508V62.2301C116.009 57.5238 116.016 52.6587 116.009 47.8731C116.009 47.2658 116.131 46.8655 116.462 46.3963C121.321 39.5093 122.996 32.0358 121.446 24.1828C119.147 12.5447 112.004 4.6571 100.785 1.36544C97.6787 0.454538 94.6242 -0.0078125 91.7055 -0.0078125L91.702 -0.000911748ZM69.7143 12.0167C70.7278 12.0167 71.4453 11.7062 72.1907 10.9471C77.9862 5.06079 84.562 2.07621 91.7403 2.07621C94.457 2.07621 97.2991 2.50751 100.19 3.35285C110.614 6.40989 117.253 13.7488 119.391 24.5796C120.83 31.8599 119.266 38.802 114.745 45.2128C114.163 46.0375 113.916 46.8345 113.916 47.8765C113.923 52.6587 113.916 57.5238 113.909 62.2301V62.2473C113.895 72.319 113.881 82.7322 113.986 93.0488C114.007 95.05 113.355 96.7649 112.108 98.007C110.865 99.2457 109.057 99.9254 107.023 99.9254H106.968C100.528 99.8875 93.4261 99.8668 84.6247 99.8668C80.1422 99.8668 75.684 99.8702 71.2816 99.8771C66.806 99.8806 62.3305 99.8875 57.8549 99.8875H31.7399C24.1158 99.8875 16.4917 99.8875 8.87102 99.8875C5.38112 99.8875 2.90128 98.1243 2.23604 95.1743C2.11414 94.636 2.09672 94.0494 2.09672 93.4974C2.08976 68.6133 2.08976 43.3427 2.09324 18.3896C2.09324 14.57 4.71588 12.0029 8.61328 12.0029C16.1747 12.0029 23.9521 11.9995 31.8827 11.9995C46.0443 11.9995 58.4192 12.0064 69.7143 12.0202V12.0167ZM92.3951 3.18379C77.8295 3.18379 65.9562 14.9082 65.9318 29.3169C65.9179 36.3488 68.6659 42.9563 73.6639 47.9179C78.6515 52.8727 85.2969 55.6019 92.3742 55.6054C106.954 55.6054 118.824 43.881 118.851 29.4722C118.865 22.4438 116.117 15.8363 111.116 10.8712C106.121 5.91303 99.4759 3.18379 92.3986 3.18379H92.3951ZM92.3742 53.5351C85.8577 53.5317 79.7382 51.0163 75.1442 46.455C70.5397 41.8832 68.0111 35.8002 68.0251 29.3204C68.0494 16.0502 78.9858 5.25401 92.4021 5.25401C98.9186 5.25401 105.038 7.76934 109.636 12.3342C114.244 16.9094 116.776 22.9924 116.762 29.4688C116.737 42.7389 105.804 53.5351 92.3916 53.5351H92.3777H92.3742ZM37.5529 13.0277C27.8356 13.0277 18.1217 13.0277 8.4043 13.0346C5.20349 13.0346 3.13464 15.1255 3.13464 18.3516C3.13464 31.1491 3.13464 43.9465 3.13464 56.744V93.5905C3.13464 94.0218 3.1416 94.4842 3.25305 94.9776L3.57697 96.3922L3.74066 97.0996L4.19345 96.5303L5.09552 95.3916C5.29057 95.1467 5.4682 94.9189 5.64583 94.6878L38.0789 52.3862C38.9949 51.1889 39.8238 50.6092 40.6144 50.6058C41.405 50.6058 42.2409 51.1889 43.1709 52.3931L61.6095 76.249C62.2086 77.0253 62.724 77.6222 63.4032 77.6602H63.4624C64.0615 77.6602 64.57 77.2496 65.3084 76.487C69.6934 71.9532 74.0227 67.4643 79.1739 62.1231C79.6615 61.6194 80.1143 61.1846 80.7203 61.0086C81.0512 60.912 81.3577 60.8637 81.6503 60.8637C82.5698 60.8637 83.3883 61.3502 84.2242 62.3922C89.9501 69.5311 95.676 76.6699 101.402 83.8122L110.137 94.705C110.311 94.9224 110.489 95.1398 110.67 95.3606L111.805 96.7442L112.373 97.4377L112.422 96.5475L112.523 94.7671C112.889 88.2666 113.07 56.1919 112.774 50.1986L112.701 48.7495L112.666 48.0249L112.122 48.5114L111.032 49.4809C105.857 54.0872 99.2077 56.6267 92.315 56.6267C86.8886 56.6267 81.6468 55.0567 77.1538 52.0825C71.9991 48.6735 68.4047 44.0845 66.4682 38.4466C63.6575 30.2623 64.5944 22.2437 69.2545 14.6114L69.8954 13.5625L70.2158 13.0381H37.5529V13.0277ZM5.21743 91.8136V56.744C5.21743 43.9465 5.21743 31.1491 5.22091 18.3551C5.22091 16.2918 6.38072 15.1083 8.4043 15.1048C18.1217 15.0979 27.8356 15.0979 37.5529 15.0979H66.5518C62.3549 22.8061 61.6583 30.88 64.4829 39.1022C66.5727 45.1818 70.4422 50.1227 75.987 53.7905C80.8701 57.02 86.5055 58.7279 92.2906 58.7279C93.0673 58.7279 93.8545 58.6969 94.6312 58.6382C100.5 58.1828 106.055 56.0297 110.747 52.3999C110.921 60.5911 110.802 82.7356 110.538 91.8757L103.032 82.5148L101.959 81.1795C96.592 74.4858 91.2214 67.7886 85.8507 61.0949C84.6003 59.5388 83.2315 58.7831 81.6607 58.7831C81.1662 58.7831 80.6472 58.8625 80.1178 59.0178C79.0207 59.3387 78.2997 60.0184 77.6554 60.6878C73.2947 65.2112 68.5963 70.0831 63.7933 75.0517C63.6958 75.1517 63.6087 75.238 63.5286 75.3173C63.4485 75.2207 63.3614 75.1103 63.2639 74.9861L44.8253 51.1302C43.4739 49.3809 42.0947 48.5321 40.604 48.5321C39.1202 48.5321 37.748 49.3843 36.4105 51.1302L5.21743 91.8136ZM40.6075 51.6202L40.5343 51.6374L40.3845 51.6719C39.9144 51.7789 39.5835 52.1274 38.8207 53.1211L17.9858 80.2928L17.85 80.4688C13.876 85.6547 9.76613 91.02 5.65627 96.3405L5.64931 96.3508C5.48213 96.5717 5.36371 96.758 5.29057 96.9236L5.06069 97.455L4.94576 97.7206L5.18956 97.8793L5.67717 98.1968C5.82346 98.2934 6.01502 98.3831 6.25882 98.4694C7.24449 98.8282 8.2023 98.8593 9.25762 98.8593C17.944 98.8593 26.627 98.8593 35.3134 98.8593H73.7301C84.7675 98.8593 95.8049 98.8593 106.853 98.8593C107.723 98.8593 108.573 98.8386 109.437 98.597C109.761 98.5073 109.987 98.4176 110.158 98.321L110.67 98.0243L110.924 97.8759L110.816 97.6033L110.6 97.0547C110.52 96.8477 110.374 96.6165 110.158 96.3508C103.676 88.3149 96.9577 79.9374 91.0298 72.5432L90.9358 72.4294L90.0999 71.3839C87.8708 68.6029 85.6417 65.8219 83.4092 63.0409C82.7857 62.2611 82.3051 61.8057 81.6956 61.7781C81.6747 61.7781 81.6572 61.7781 81.6363 61.7781C81.0477 61.7781 80.5601 62.168 79.8635 62.8856C75.3671 67.5333 70.7626 72.3052 66.1756 77.0632C65.1656 78.1122 64.267 78.6228 63.438 78.6228C63.4032 78.6228 63.3649 78.6228 63.3301 78.6228C62.4802 78.5779 61.6304 77.9879 60.7283 76.8217L53.8217 67.8783C50.0079 62.9374 46.1941 57.9999 42.3768 53.059C41.6523 52.1239 41.311 51.772 40.8338 51.6719L40.6841 51.6409L40.6075 51.6236V51.6202ZM7.9759 96.7407C11.8385 91.7411 15.6906 86.7105 19.4208 81.842L19.6507 81.5453L40.4856 54.3736C40.5343 54.3115 40.5796 54.2494 40.6249 54.1941C40.6562 54.2321 40.6876 54.2735 40.7189 54.3149C44.0172 58.5865 47.3156 62.858 50.6174 67.1296L52.1638 69.1308L59.0705 78.0742C60.3661 79.7511 61.721 80.6033 63.2186 80.6861C63.2918 80.6896 63.3649 80.693 63.4415 80.693C64.8765 80.693 66.2662 79.9754 67.6907 78.4951C72.1001 73.9234 76.7045 69.1515 81.3821 64.3176C81.4587 64.2382 81.5284 64.1692 81.5946 64.1036C81.6538 64.1726 81.7165 64.2485 81.7826 64.3314C84.2938 67.4574 86.8015 70.5869 89.3092 73.7164L89.4033 73.8302L89.4555 73.8958C95.4705 81.3969 101.684 89.1464 107.831 96.7683C107.508 96.789 107.173 96.7925 106.849 96.7925C95.8119 96.7925 84.7745 96.7925 73.7371 96.7925H36.8563C27.6579 96.7925 18.456 96.7925 9.25762 96.7925C8.81529 96.7925 8.38341 96.789 7.9759 96.7442V96.7407Z" fill="#404041"/>
<path d="M24.332 46.2082C21.2461 46.1979 18.3379 44.9868 16.1506 42.7992C13.9529 40.6048 12.7547 37.703 12.7687 34.6322C12.8 28.3042 18.014 23.1562 24.3912 23.1562C27.5119 23.1632 30.4202 24.3742 32.6109 26.5618C34.8086 28.7562 36.0103 31.6545 35.9963 34.7254C35.965 41.0568 30.751 46.2082 24.3703 46.2082H24.332ZM24.3424 26.5997C22.1691 26.6066 20.1316 27.4485 18.6095 28.9701C17.0771 30.4986 16.2377 32.5378 16.2481 34.7116C16.269 39.1522 19.9191 42.7613 24.3877 42.7613C26.5854 42.7544 28.6264 41.9056 30.1555 40.3771C31.6914 38.8417 32.5308 36.8059 32.5204 34.6425C32.496 30.2054 28.8424 26.5963 24.3738 26.5963L24.3494 26.4238V26.5963L24.3424 26.5997Z" fill="#2F9FEE"/>
<path d="M24.4225 23.3294C27.4631 23.3363 30.3261 24.5301 32.4855 26.6832C34.6484 28.8431 35.8361 31.7 35.8186 34.726C35.7873 40.9712 30.6535 46.0363 24.3668 46.0363H24.3285C21.2879 46.026 18.4249 44.8322 16.269 42.6791C14.1061 40.5157 12.9219 37.6588 12.9393 34.6328C12.9706 28.3911 18.1045 23.3294 24.3877 23.3294H24.419H24.4225ZM24.3807 42.9379H24.4086C26.6272 42.931 28.71 42.065 30.2703 40.5019C31.8377 38.9355 32.6979 36.8549 32.684 34.6466C32.6596 30.1094 28.9294 26.4313 24.3633 26.4313H24.3389C22.1203 26.4382 20.0375 27.2973 18.4806 28.8535C16.9133 30.4165 16.0565 32.4971 16.067 34.7157C16.0879 39.2563 19.8146 42.9379 24.3807 42.9379ZM24.419 22.9844H24.3877C17.9164 22.9844 12.6258 28.2082 12.591 34.6328C12.5736 37.752 13.7926 40.6952 16.0217 42.9241C18.2438 45.1461 21.1938 46.3745 24.3285 46.3848H24.3668C30.8415 46.3848 36.1356 41.1575 36.1669 34.7295C36.1809 31.6103 34.9619 28.6706 32.7328 26.4417C30.5072 24.2196 27.5571 22.9947 24.4225 22.9844H24.419ZM24.4086 42.5929H24.3807C20.0096 42.5929 16.4362 39.0597 16.4153 34.7157C16.4048 32.5902 17.2268 30.5925 18.7279 29.095C20.2186 27.6044 22.2109 26.7832 24.3389 26.7763H24.3633C28.7379 26.7763 32.3148 30.3095 32.3357 34.6501C32.3462 36.7652 31.5277 38.7595 30.0231 40.2604C28.5254 41.7579 26.5297 42.586 24.4051 42.5929H24.4086Z" fill="#2F9FEE"/>
<path d="M24.3314 46.8989C21.0574 46.8886 17.975 45.605 15.6554 43.2864C13.3288 40.9608 12.0541 37.8865 12.0715 34.6294C12.1063 27.9218 17.6337 22.4668 24.3906 22.4668C27.6994 22.4771 30.7818 23.7572 33.1049 26.0759C35.4349 28.4014 36.7062 31.4723 36.6923 34.7294C36.6609 41.4404 31.1335 46.8989 24.3697 46.8989H24.3314ZM24.3906 24.192C18.588 24.192 13.8443 28.8776 13.8129 34.6397C13.799 37.4345 14.8926 40.0741 16.8918 42.0753C18.8841 44.0661 21.5276 45.1703 24.3349 45.1772H24.3697C30.1757 45.1772 34.9195 40.4881 34.9508 34.7225C34.9648 31.9277 33.8711 29.2882 31.8684 27.2939C29.8727 25.303 27.2292 24.2023 24.4219 24.192L24.3906 24.0195V24.192ZM24.415 43.8005C19.3578 43.8005 15.2235 39.7256 15.2026 34.7191C15.1922 32.2693 16.1395 29.9714 17.8671 28.2427C19.5876 26.5244 21.8864 25.5756 24.3383 25.5652C29.3955 25.5652 33.5333 29.6367 33.5611 34.6397C33.5751 37.0791 32.6277 39.3771 30.8932 41.1057C29.1657 42.8309 26.8635 43.7867 24.415 43.797V43.8005ZM24.3697 27.2939C22.367 27.3008 20.4967 28.0702 19.1035 29.4607C17.7034 30.8581 16.9336 32.7248 16.9441 34.7122C16.9615 38.7733 20.3016 42.0753 24.3871 42.0753C26.3898 42.0684 28.2601 41.2955 29.6603 39.8946C31.0639 38.4903 31.8336 36.6271 31.8232 34.6501C31.8023 30.5924 28.4586 27.2904 24.3732 27.2904L24.3697 27.2939Z" fill="#2F9FEE"/>
<path d="M24.4221 22.6385C27.6508 22.6488 30.6879 23.9116 32.9797 26.1992C35.2749 28.4903 36.5323 31.5197 36.5148 34.732C36.4835 41.3464 31.0327 46.729 24.3664 46.729H24.3281C21.0994 46.7186 18.0623 45.4523 15.774 43.1682C13.4788 40.8737 12.2249 37.8443 12.2423 34.632C12.2771 28.021 17.7244 22.6419 24.3873 22.6419H24.4221V22.6385ZM24.3316 45.3488H24.3664C30.2665 45.3488 35.0903 40.5839 35.1217 34.7251C35.1356 31.8855 34.0245 29.2011 31.9905 27.1723C29.9635 25.1469 27.2746 24.029 24.4221 24.0221H24.3908C18.4942 24.0221 13.6703 28.787 13.639 34.6389C13.625 37.482 14.7361 40.1629 16.7666 42.1952C18.7937 44.2206 21.479 45.3385 24.335 45.3488H24.3316ZM24.342 25.7403C29.3156 25.7403 33.3628 29.7359 33.3872 34.6423C33.4011 37.0334 32.4712 39.29 30.7715 40.9876C29.0753 42.6817 26.8184 43.6202 24.4151 43.6271C19.438 43.6271 15.3978 39.6316 15.377 34.7182C15.3665 32.3168 16.2964 30.0602 17.9926 28.3661C19.6819 26.6823 21.9353 25.7472 24.342 25.7403ZM24.3873 42.2469C26.4457 42.24 28.3509 41.4465 29.7858 40.0146C31.2243 38.5792 32.0079 36.6711 31.9975 34.6492C31.9766 30.4984 28.5529 27.1205 24.3734 27.1205C22.3149 27.1274 20.4098 27.9141 18.9853 29.3391C17.5503 30.771 16.7666 32.6791 16.7736 34.7148C16.791 38.869 20.2078 42.2504 24.3908 42.2504L24.3873 42.2469ZM24.4326 22.2969H24.3977C17.5433 22.2969 11.9393 27.8313 11.9045 34.632C11.8871 37.934 13.1792 41.0531 15.5372 43.4132C17.8916 45.7663 21.0158 47.0671 24.3385 47.0775H24.3768C31.2347 47.0775 36.8388 41.5396 36.8736 34.7355C36.891 31.4335 35.5988 28.3178 33.2374 25.9612C30.8829 23.608 27.7553 22.3107 24.436 22.3003L24.4326 22.2969ZM24.342 45.0038C21.58 44.9934 18.9818 43.91 17.0209 41.9537C15.053 39.9869 13.9803 37.3923 13.9942 34.6423C14.0221 28.9768 18.6892 24.3671 24.3977 24.3671H24.4291C27.1876 24.374 29.7893 25.4574 31.7502 27.4172C33.7181 29.3805 34.7943 31.9752 34.7803 34.7251C34.7525 40.3941 30.0854 45.0072 24.3734 45.0072H24.3385L24.342 45.0038ZM24.3455 25.3953C21.8447 25.4022 19.5042 26.3718 17.7488 28.1211C15.9865 29.8808 15.0217 32.2236 15.0321 34.7182C15.0565 39.8213 19.2674 43.9721 24.4186 43.9721C26.9159 43.9652 29.2599 42.9888 31.0223 41.2291C32.7881 39.4659 33.7529 37.1231 33.739 34.6389C33.7111 29.5392 29.4967 25.3919 24.3455 25.3919V25.3953ZM24.3873 41.9019C20.3993 41.9019 17.1393 38.6758 17.1219 34.7113C17.1114 32.7688 17.8638 30.947 19.2326 29.5806C20.5944 28.2212 22.4194 27.4724 24.3768 27.4655C28.3683 27.4655 31.6318 30.6882 31.6527 34.6527C31.6631 36.5849 30.9143 38.4032 29.542 39.773C28.1767 41.1394 26.3447 41.895 24.3908 41.9019H24.3873Z" fill="#2F9FEE"/>
<path d="M107.214 39.5901C106.657 39.5901 106.135 39.145 105.744 38.7585C101.217 34.2937 96.6889 29.8221 92.168 25.3504L86.5361 19.7884C85.3171 18.5842 84.0946 17.38 82.8826 16.1689C82.4228 15.71 81.9665 15.1614 82.0641 14.5679C82.1616 13.9745 82.7781 13.5915 83.3702 13.2948C86.456 11.749 89.6812 10.9105 92.6905 10.8691H92.7671C98.4826 10.8691 103.749 13.4052 107.214 17.832C110.718 22.3071 111.895 28.0348 110.446 33.5485C110.008 35.2115 109.405 36.8091 108.653 38.3031C108.381 38.8413 107.991 39.4762 107.378 39.5728C107.322 39.5832 107.267 39.5866 107.211 39.5866L107.214 39.5901ZM92.983 13.5708C90.7784 13.5708 88.6224 14.04 86.5675 14.9682L86.3411 15.0717L106.796 35.5359L106.901 35.3116C109.701 29.3839 108.437 22.5728 103.679 17.9597C100.757 15.1304 96.9606 13.5708 92.983 13.5708Z" fill="#404041"/>
<path d="M92.7638 11.0414C98.427 11.0414 103.641 13.5567 107.075 17.9387C110.548 22.369 111.714 28.0448 110.276 33.5068C109.841 35.1561 109.242 36.7467 108.496 38.2269C108.242 38.7307 107.883 39.3172 107.35 39.4035C107.305 39.4104 107.26 39.4138 107.214 39.4138C106.72 39.4138 106.236 38.9963 105.867 38.6341C101.339 34.1693 96.8179 29.701 92.2901 25.2259L86.6582 19.6604C85.4601 18.477 84.2167 17.2555 83.0081 16.041C82.5797 15.6131 82.1513 15.1059 82.2384 14.5918C82.322 14.0743 82.9002 13.7223 83.4505 13.4463C86.512 11.9143 89.7093 11.0828 92.6976 11.0414H92.7708H92.7638ZM106.849 35.8323L107.061 35.3838C109.893 29.387 108.615 22.5001 103.805 17.8352C100.851 14.9714 97.0095 13.398 92.9867 13.398C90.7576 13.398 88.5739 13.8742 86.498 14.8127L86.0418 15.0162L86.3935 15.3682L106.497 35.4804L106.849 35.8323ZM92.7708 10.6964C92.7464 10.6964 92.722 10.6964 92.6976 10.6964H92.6942C89.657 10.7378 86.4075 11.5831 83.2972 13.1392C82.6668 13.4532 82.0085 13.8673 81.8971 14.5366C81.7891 15.2025 82.2732 15.796 82.7643 16.286C83.9764 17.497 85.1954 18.7012 86.4179 19.9054L92.0498 25.4674C96.5741 29.9391 101.098 34.4108 105.63 38.879C106.055 39.2965 106.608 39.7589 107.225 39.7589C107.288 39.7589 107.354 39.7554 107.42 39.7416C108.11 39.6312 108.531 38.9549 108.82 38.3753C109.579 36.8709 110.185 35.2596 110.624 33.5862C112.087 28.0207 110.899 22.2344 107.361 17.7179C103.86 13.2462 98.5455 10.6895 92.7743 10.6895L92.7708 10.6964ZM106.744 35.2389L86.6408 15.1266C88.6958 14.1985 90.8517 13.743 92.9867 13.743C96.8388 13.743 100.614 15.2267 103.561 18.0836C108.249 22.6278 109.485 29.4388 106.748 35.2389H106.744Z" fill="#404041"/>
<path d="M107.215 40.2808C106.403 40.2808 105.738 39.7287 105.254 39.2491C100.726 34.7809 96.1984 30.3092 91.6741 25.8375L86.0074 20.241C84.7988 19.0472 83.5868 17.8533 82.3851 16.6526C82.0334 16.3007 81.2044 15.4726 81.3716 14.4547C81.5388 13.4334 82.5976 12.9055 83.0504 12.6778C86.2303 11.0871 89.56 10.2211 92.6772 10.1797H92.7643C98.6957 10.1797 104.164 12.8158 107.762 17.4082C111.401 22.0524 112.624 28.0009 111.119 33.7216C110.67 35.4295 110.05 37.0754 109.277 38.6108C109.075 39.0145 108.535 40.0875 107.494 40.2566C107.403 40.2704 107.309 40.2808 107.215 40.2808ZM92.6981 11.2148C89.7376 11.2562 86.5647 12.0808 83.5275 13.6025C83.0156 13.8578 82.4792 14.1821 82.4095 14.6203C82.3364 15.0585 82.7334 15.5243 83.134 15.9211C84.346 17.1322 85.5651 18.3364 86.7841 19.5371L92.8409 25.5201C97.2224 29.8537 101.607 34.184 105.996 38.5107C106.341 38.8523 106.793 39.2422 107.222 39.2422C107.257 39.2422 107.295 39.2422 107.33 39.2353C107.786 39.1628 108.114 38.6177 108.347 38.1484C109.089 36.6751 109.684 35.0983 110.116 33.4594C111.541 28.0492 110.384 22.4285 106.947 18.0396C103.547 13.6991 98.3822 11.2114 92.7747 11.2114H92.7051L92.6981 11.2148ZM85.7392 14.9619L86.4219 14.6548C88.5012 13.7163 90.6954 13.2402 92.9489 13.2402C97.0483 13.2402 100.946 14.8273 103.924 17.7119C108.789 22.4285 110.081 29.3914 107.218 35.4571L106.901 36.13L85.7427 14.9619H85.7392ZM93.015 14.2442C91.2527 14.2442 89.4973 14.5686 87.7976 15.2069L87.5468 15.3L106.574 34.3358L106.672 34.0873C108.821 28.6081 107.487 22.6183 103.192 18.4537C100.392 15.7382 96.7766 14.2442 93.015 14.2442Z" fill="#404041"/>
<path d="M92.7675 10.3514C98.6467 10.3514 104.063 12.9633 107.629 17.5143C111.234 22.1171 112.446 28.0104 110.955 33.6793C110.51 35.3769 109.893 37.009 109.123 38.534C108.932 38.917 108.42 39.9314 107.469 40.0867C107.385 40.1005 107.302 40.1074 107.218 40.1074C106.469 40.1074 105.842 39.5829 105.379 39.124C100.851 34.6558 96.3236 30.1841 91.7992 25.7124L86.1673 20.147L86.1325 20.1125C84.9414 18.9393 83.7119 17.7283 82.5138 16.5241C82.1794 16.1894 81.3957 15.4062 81.549 14.478C81.7022 13.5464 82.7053 13.0426 83.1337 12.8287C86.2893 11.2485 89.5911 10.3893 92.6804 10.3479H92.771L92.7675 10.3514ZM107.218 39.4139C107.263 39.4139 107.309 39.4104 107.354 39.4035C107.887 39.3173 108.246 38.7272 108.5 38.2269C109.249 36.7433 109.848 35.1561 110.28 33.5068C111.715 28.0449 110.551 22.369 107.079 17.9387C103.645 13.5568 98.4307 11.0414 92.7675 11.0414H92.6944C89.7095 11.0828 86.5122 11.9144 83.4507 13.4463C82.9004 13.7224 82.3222 14.0743 82.2386 14.5919C82.155 15.106 82.5799 15.6132 83.0118 16.041C84.2448 17.2763 85.53 18.5425 86.6619 19.6605L92.2938 25.2259L92.7222 25.6469C97.1037 29.9771 101.485 34.3073 105.874 38.6341C106.243 38.9964 106.731 39.4139 107.222 39.4139H107.218ZM92.9556 13.4118C97.0097 13.4118 100.862 14.9818 103.808 17.8352C108.618 22.5001 109.9 29.3871 107.065 35.3838L106.852 35.8324L86.0454 15.0163L86.5017 14.8127C88.5566 13.8845 90.73 13.4153 92.9556 13.4153V13.4118ZM106.647 34.6489L106.842 34.152C109.015 28.6073 107.667 22.545 103.321 18.3321C100.489 15.5856 96.8321 14.0743 93.0252 14.0743C91.242 14.0743 89.4657 14.4021 87.7451 15.0473L87.2436 15.2371L87.6197 15.6132L106.267 34.2694L106.643 34.6489H106.647ZM92.771 10.0098H92.6804C89.5388 10.0546 86.1813 10.9241 82.977 12.5285C82.4998 12.7666 81.3853 13.3256 81.2042 14.4331C81.0231 15.5373 81.8938 16.4068 82.263 16.7794C83.475 17.9939 84.6976 19.1981 85.9201 20.4023L91.5519 25.9643C96.0763 30.436 100.601 34.9077 105.132 39.3759C105.644 39.8797 106.34 40.4593 107.218 40.4593C107.319 40.4593 107.424 40.4524 107.525 40.4352C108.653 40.2523 109.221 39.124 109.437 38.6962C110.217 37.1504 110.84 35.4942 111.293 33.7725C112.812 27.9966 111.579 21.9964 107.908 17.3073C104.275 12.67 98.7581 10.0098 92.771 10.0098ZM107.218 39.0757C106.849 39.0757 106.414 38.6858 106.114 38.396C101.586 33.9312 97.0619 29.4595 92.5376 24.9878L86.9057 19.4224C85.6867 18.2217 84.4677 17.0175 83.2556 15.8064C82.9108 15.4614 82.5207 15.0163 82.5799 14.654C82.6391 14.2882 83.1616 13.9846 83.6074 13.7603C86.6236 12.2491 89.7687 11.4313 92.7013 11.3899H92.771C98.3262 11.3899 103.439 13.8535 106.807 18.1527C110.21 22.5001 111.356 28.0656 109.945 33.424C109.517 35.0491 108.928 36.6156 108.19 38.0786C107.991 38.4754 107.681 39.0067 107.298 39.0688C107.27 39.0723 107.243 39.0757 107.218 39.0757ZM92.9521 13.0737C90.73 13.0737 88.4835 13.5429 86.3519 14.5022L85.4429 14.9127L106.953 36.4327L107.375 35.5356C110.273 29.4043 108.963 22.3621 104.045 17.5937C100.984 14.6298 97.0062 13.0702 92.9486 13.0702L92.9521 13.0737ZM106.515 34.0313L87.867 15.3751C89.5632 14.7368 91.3047 14.4262 93.0217 14.4262C96.6858 14.4262 100.252 15.8513 103.077 18.5839C107.323 22.6968 108.622 28.6659 106.518 34.0313H106.515Z" fill="#404041"/>
<path d="M91.9566 47.9146C86.2586 47.9008 81.0168 45.3751 77.5687 40.9897C74.0927 36.5628 72.8946 30.8697 74.2877 25.3698C74.7161 23.6826 75.3117 22.0781 76.064 20.6014C76.3078 20.1252 76.7014 19.4835 77.3214 19.3868C77.3771 19.3799 77.4328 19.373 77.4851 19.373C78.0179 19.373 78.4881 19.7802 78.7946 20.0873C86.2237 27.5194 93.8966 35.2137 101.594 42.9495C101.946 43.3014 102.398 43.8397 102.297 44.4297C102.193 45.0335 101.549 45.413 101.071 45.6477C98.1249 47.083 94.9763 47.8663 91.9566 47.918V47.9146ZM77.8368 23.4928C77.6279 23.7447 77.391 24.6004 77.081 25.7804C75.3849 32.2395 77.1228 37.6359 82.2427 41.8177C85.0152 44.0812 88.0105 45.1819 91.3959 45.1819C93.51 45.1819 95.8053 44.7299 98.2154 43.8397L98.4592 43.75L98.2816 43.5602C98.1319 43.4015 97.9925 43.2565 97.8497 43.1116C91.8452 37.0873 85.8371 31.0629 79.8326 25.042C78.9165 24.1242 78.3384 23.5584 78.0354 23.4445L77.9169 23.3996L77.8368 23.4962V23.4928Z" fill="#404041"/>
<path d="M77.4883 19.5428C77.9585 19.5428 78.3904 19.9223 78.6725 20.2052C86.0876 27.6235 93.7605 35.3179 101.468 43.0674C101.792 43.3918 102.214 43.8852 102.127 44.3993C102.036 44.9272 101.437 45.2757 100.995 45.4896C98.0724 46.9146 94.9447 47.6909 91.9599 47.7427C86.3175 47.7289 81.121 45.2274 77.7077 40.8833C74.2631 36.5014 73.0789 30.86 74.4582 25.4118C74.8831 23.735 75.4752 22.1443 76.224 20.6814C76.4504 20.2397 76.8126 19.6428 77.3525 19.5566C77.3977 19.5497 77.443 19.5462 77.4883 19.5462V19.5428ZM91.3956 45.355C93.5307 45.355 95.8468 44.8996 98.2744 44.0025L98.762 43.8231L98.4068 43.4435C98.257 43.2848 98.1142 43.1364 97.9714 42.9915C91.9668 36.9672 85.9588 30.9428 79.9507 24.9184C79.0208 23.9868 78.4357 23.4106 78.0908 23.283L77.8575 23.1967L77.7008 23.3899C77.4674 23.6694 77.248 24.4664 76.9136 25.7431C75.2 32.2746 76.9554 37.7297 82.1345 41.9564C84.9383 44.2474 87.9684 45.3585 91.3956 45.3585V45.355ZM77.4883 19.2046C77.4256 19.2046 77.3629 19.2081 77.2967 19.2184C76.5967 19.3288 76.1718 20.0189 75.9105 20.5261C75.1513 22.0132 74.5487 23.628 74.1203 25.329C72.7167 30.8807 73.9218 36.629 77.4326 41.0973C80.912 45.5275 86.2026 48.0774 91.9564 48.0912C95.0004 48.0429 98.1804 47.2493 101.148 45.8036C101.66 45.5551 102.353 45.1445 102.471 44.4614C102.586 43.792 102.095 43.2089 101.719 42.8293C94.0183 35.0867 86.3454 27.3958 78.9198 19.9672C78.5819 19.629 78.0804 19.2012 77.4883 19.2012V19.2046ZM91.3956 45.0134C88.0659 45.0134 85.0741 43.9059 82.3539 41.6907C77.2898 37.5572 75.5727 32.2229 77.2515 25.8328C77.4953 24.9012 77.7704 23.8523 77.9724 23.6108C78.2615 23.7177 78.9964 24.4561 79.7069 25.1669C85.715 31.1878 91.7195 37.2121 97.7241 43.2365C97.8669 43.378 98.0062 43.5263 98.1525 43.6816C95.7528 44.5683 93.5063 45.0134 91.3956 45.0134Z" fill="#404041"/>
<path d="M91.9667 48.6067C86.0457 48.5929 80.5984 45.9707 77.018 41.4127C73.4097 36.8168 72.1662 30.9098 73.6117 25.1994C74.0505 23.4639 74.667 21.8111 75.4437 20.2895C75.6248 19.9376 76.1681 18.8645 77.213 18.7023C77.3036 18.6885 77.3941 18.6816 77.4847 18.6816C78.3693 18.6816 79.0381 19.3476 79.2888 19.5994C86.6726 26.9867 94.3455 34.6776 102.088 42.4616C102.353 42.7273 103.157 43.5347 102.983 44.5422C102.809 45.567 101.729 46.0914 101.378 46.2639C98.3405 47.7442 95.0874 48.5515 91.9667 48.6033V48.6067ZM77.4847 19.7202C77.4464 19.7202 77.4115 19.7202 77.3767 19.7271C77.0249 19.7823 76.708 20.1101 76.3771 20.7588C75.6352 22.2114 75.0466 23.7916 74.6252 25.4547C73.2599 30.8511 74.4336 36.4373 77.8434 40.7778C81.2253 45.0805 86.3696 47.5578 91.9562 47.5716C94.9202 47.5233 98.0165 46.7504 100.914 45.3392C101.566 45.0218 101.893 44.7147 101.952 44.3731C102.008 44.0419 101.816 43.6658 101.343 43.1897C93.6246 35.4332 85.9552 27.7423 78.547 20.3275C78.129 19.91 77.7912 19.7168 77.4847 19.7168V19.7202ZM91.3746 45.5359C87.923 45.5359 84.865 44.4076 82.0195 42.0855C76.7846 37.814 75.0083 32.3003 76.7428 25.6963C77.0841 24.3955 77.307 23.5846 77.5648 23.2775L77.8016 22.9912L78.1534 23.1223C78.5121 23.2568 79.0381 23.7606 80.076 24.7992C86.084 30.8235 92.0886 36.8479 98.0966 42.8722C98.2429 43.0171 98.3857 43.169 98.5355 43.3277L99.0684 43.8935L98.3335 44.1661C95.8711 45.077 93.5305 45.5394 91.3746 45.5394V45.5359ZM78.1046 24.6784C77.9827 25.0993 77.8469 25.6134 77.7563 25.9585C76.1333 32.1347 77.7947 37.293 82.6882 41.2885C85.3282 43.4415 88.1808 44.4904 91.4094 44.4904C93.1439 44.4904 95.0073 44.173 96.9473 43.5485L97.2155 43.4622L97.0169 43.2621C91.1238 37.3482 85.2272 31.4377 79.3306 25.5272C79.052 25.2477 78.6933 24.8889 78.3902 24.6025L78.1813 24.4058L78.1012 24.6784H78.1046Z" fill="#404041"/>
<path d="M77.4882 18.8534C78.3032 18.8534 78.9336 19.4849 79.1704 19.7195C86.5299 27.0826 94.1993 34.7735 101.97 42.5817C102.217 42.8301 102.973 43.5926 102.816 44.5139C102.656 45.4489 101.639 45.9458 101.304 46.108C98.2917 47.5778 95.0596 48.3783 91.9737 48.4301C86.1049 48.4163 80.7064 45.8181 77.1608 41.305C73.5838 36.754 72.3543 30.8987 73.7858 25.2401C74.2212 23.5149 74.8342 21.876 75.6039 20.3647C75.7746 20.0335 76.2901 19.0191 77.2444 18.8707C77.3245 18.8569 77.4081 18.85 77.4882 18.85V18.8534ZM91.9632 47.74C94.9481 47.6917 98.0688 46.9119 100.991 45.4869C101.695 45.1418 102.057 44.7968 102.123 44.3966C102.189 44.0067 101.98 43.5823 101.465 43.0647C93.7465 35.3083 86.0771 27.6139 78.6654 20.2025C78.2126 19.7505 77.8365 19.5401 77.4812 19.5401C77.4359 19.5401 77.3907 19.5435 77.3454 19.5504C76.9344 19.616 76.5757 19.9714 76.2169 20.6752C75.4716 22.1416 74.876 23.7323 74.4511 25.4057C73.0718 30.8538 74.256 36.4952 77.7006 40.8772C81.1139 45.2212 86.307 47.7227 91.9528 47.7365L91.9632 47.74ZM77.8504 23.1871L78.0838 23.2734C78.4216 23.3976 79.0102 23.9772 79.9436 24.9088C85.9517 30.9332 91.9563 36.9541 97.9643 42.9819C98.1106 43.1268 98.2499 43.2752 98.3997 43.4339L98.7549 43.8134L98.2673 43.9929C95.8258 44.8969 93.5027 45.3523 91.3676 45.3523C87.9579 45.3523 84.9347 44.2378 82.124 41.9399C76.9448 37.7132 75.1894 32.2581 76.903 25.7266C77.227 24.4879 77.4568 23.6529 77.6902 23.3734L77.8469 23.1802L77.8504 23.1871ZM91.3955 44.645C93.1474 44.645 95.0282 44.3241 96.9891 43.6961L97.5255 43.5236L97.1284 43.1268C91.2353 37.2129 85.3387 31.3024 79.4421 25.3919C79.1739 25.1228 78.8047 24.7536 78.4982 24.4637L78.0838 24.0704L77.9235 24.6156C77.7982 25.04 77.6623 25.5575 77.5753 25.8991C75.9348 32.1477 77.6136 37.3647 82.5628 41.4051C85.2342 43.5857 88.125 44.645 91.3955 44.645ZM77.4742 18.498C77.3767 18.498 77.2792 18.5049 77.1747 18.5222C76.0428 18.6982 75.4646 19.8299 75.2765 20.2025C74.4963 21.7345 73.8729 23.401 73.4306 25.1504C71.9747 30.909 73.2251 36.8747 76.8682 41.512C80.48 46.1114 85.9761 48.7578 91.9528 48.7716C95.0979 48.7199 98.3788 47.9056 101.44 46.415C101.813 46.2322 102.952 45.6767 103.143 44.5691C103.332 43.4719 102.478 42.6196 102.2 42.3367C94.4884 34.5871 86.8189 26.8963 79.4003 19.4745C79.1495 19.2226 78.4286 18.5049 77.4708 18.5049L77.4742 18.498ZM91.9458 47.388C86.4114 47.3742 81.3159 44.921 77.9688 40.6598C74.5904 36.3606 73.4306 30.8297 74.7819 25.4816C75.1999 23.8323 75.785 22.2624 76.5199 20.8201C76.8195 20.2336 77.1051 19.9265 77.3907 19.8816C77.4185 19.8782 77.4464 19.8747 77.4742 19.8747C77.732 19.8747 78.0315 20.0542 78.4112 20.4337C85.8263 27.8555 93.4992 35.5464 101.207 43.2959C101.632 43.7203 101.813 44.0584 101.768 44.3276C101.719 44.607 101.412 44.8796 100.824 45.166C97.9469 46.5668 94.8715 47.3328 91.9423 47.3811L91.9458 47.388ZM77.7355 22.7731L77.4185 23.1561C77.1503 23.4804 76.9414 24.1981 76.5617 25.6403C74.8098 32.3133 76.6035 37.8857 81.8976 42.2056C84.7501 44.5346 87.8812 45.6939 91.3607 45.6939C93.5549 45.6939 95.892 45.2316 98.3823 44.3103L99.361 43.948L98.6505 43.1924C98.4972 43.0302 98.3544 42.8818 98.2081 42.7335C92.2036 36.7091 86.1955 30.6848 80.1874 24.6604C79.1077 23.577 78.5957 23.0905 78.2022 22.9421L77.7355 22.7662V22.7731ZM91.3955 44.3034C88.2191 44.3034 85.37 43.251 82.7857 41.1429C77.9479 37.1956 76.3109 32.096 77.9131 25.9888C78.0037 25.6438 78.1395 25.1331 78.2614 24.7122C78.5644 24.9986 78.9197 25.3539 79.1983 25.6334C85.0949 31.5439 90.988 37.4579 96.8846 43.3684C94.9516 43.9894 93.1265 44.3 91.399 44.3L91.3955 44.3034Z" fill="#404041"/>
</g>
<defs>
<clipPath id="clip0_473_758">
<rect width="122" height="102" fill="white"/>
</clipPath>
</defs>
</svg>
