<svg width="89" height="102" viewBox="0 0 89 102" fill="none" xmlns="http://www.w3.org/2000/svg">
<g clip-path="url(#clip0_472_735)">
<path d="M23.7589 90.9035C27.9597 85.9468 31.8484 81.4212 35.6529 76.8203C36.7428 75.5072 37.9564 74.966 39.6506 74.971C52.6841 75.0211 65.7225 74.996 78.7559 74.996C82.1988 74.996 83.0658 74.139 83.0658 70.741C83.0658 50.5535 83.0658 30.366 83.0658 10.1785C83.0658 6.88578 82.1741 5.99368 78.8748 5.99368C55.9536 5.99368 33.0324 5.99368 10.1161 5.99368C6.84162 5.99368 5.97471 6.88578 5.96975 10.2186C5.96975 11.7823 6.01434 13.346 5.95489 14.9047C5.88058 16.774 4.5926 18.037 2.91326 17.9819C1.30327 17.9268 0.104451 16.7039 0.0598669 14.9097C0.000421322 12.7345 -0.0392091 10.5394 0.0747283 8.35925C0.322418 3.65318 4.24583 0.0296519 9.11046 0.0146165C19.8602 -0.0154543 30.61 0.00459289 41.3597 0.00459289C53.9622 0.00459289 66.5646 0.00459289 79.1671 0.00459289C85.4386 0.00459289 88.9955 3.63313 88.9955 10.0282C88.9955 30.341 88.9955 50.6538 88.9955 70.9615C88.9955 77.4268 85.4287 80.9952 78.9888 81.0002C66.5101 81.0002 54.0315 81.0152 41.548 80.9751C40.3937 80.9751 39.6506 81.2959 38.8927 82.203C33.8349 88.2673 28.7027 94.2664 23.6102 100.301C22.5848 101.518 21.4702 102.431 19.7809 101.784C18.1214 101.153 17.7945 99.7743 17.8093 98.1455C17.849 92.8982 17.7846 87.6458 17.8539 82.3985C17.8688 81.2107 17.5418 80.93 16.4173 80.9751C13.9503 81.0653 11.4734 81.0302 9.00643 80.9952C3.92879 80.92 0.0598669 77.096 0.0499593 71.984C0.0103289 56.1718 0.0301441 40.3595 0.0400517 24.5473C0.0400517 22.3371 1.19429 21.009 3.00242 21.014C4.81056 21.014 5.95489 22.3472 5.95489 24.5624C5.9648 39.9386 5.95984 55.3097 5.95984 70.6859C5.95984 74.139 6.8119 75.0011 10.2053 75.0061C13.5392 75.0061 16.878 74.991 20.2119 75.0111C22.6393 75.0261 23.7291 76.1087 23.744 78.5394C23.7688 82.5137 23.7489 86.4881 23.7489 90.9085L23.7589 90.9035Z" fill="#404041"/>
<path d="M23.6845 15.0312C25.0121 15.0563 25.8146 15.8181 26.6122 16.63C32.1555 22.2482 37.7285 27.8314 43.2322 33.4897C44.2081 34.492 44.7332 34.6274 45.7933 33.5348C51.3218 27.8163 56.9542 22.1981 62.5322 16.5348C63.4388 15.6176 64.38 14.8157 65.7571 15.0964C66.8519 15.3219 67.6297 15.9885 68.026 17.0861C68.4867 18.3741 68.0557 19.4266 67.1838 20.3237C64.4939 23.0802 61.7743 25.8116 59.0695 28.5531C56.013 31.6453 53.006 34.7927 49.8703 37.7998C48.8102 38.8172 48.9786 39.3184 49.9248 40.2606C55.5622 45.8688 61.1253 51.5522 66.7231 57.2055C67.5207 58.0124 68.2984 58.8243 68.239 60.0772C68.1795 61.3001 67.6049 62.1972 66.4853 62.7235C65.1825 63.3349 64.053 62.969 63.0969 62.0318C61.2789 60.2476 59.5104 58.4133 57.7221 56.6041C53.7045 52.5395 49.6573 48.5 45.6893 44.3853C44.7976 43.4581 44.3072 43.4281 43.3907 44.3703C37.8028 50.1138 32.1406 55.7871 26.5131 61.4956C25.6611 62.3576 24.7892 63.1445 23.4764 62.9841C22.2727 62.8387 21.4256 62.1671 20.9946 61.0144C20.5289 59.7565 20.9054 58.6739 21.7971 57.7668C24.6703 54.8399 27.5633 51.9331 30.4464 49.0162C33.3741 46.0542 36.2622 43.0522 39.2493 40.1604C40.2153 39.2282 40.1064 38.727 39.2147 37.8349C33.498 32.1315 27.8259 26.3779 22.1587 20.6194C20.1376 18.5696 20.6131 15.8331 23.0653 15.1415C23.2981 15.0764 23.5508 15.0613 23.6944 15.0363L23.6845 15.0312Z" fill="#2F9FEE"/>
</g>
<defs>
<clipPath id="clip0_472_735">
<rect width="89" height="102" fill="white"/>
</clipPath>
</defs>
</svg>
