<svg width="118" height="105" viewBox="0 0 118 105" fill="none" xmlns="http://www.w3.org/2000/svg">
<g clip-path="url(#clip0_473_787)">
<path d="M10.9653 104.695C6.35405 104.695 3.08076 102.67 1.23077 98.6789C-0.189487 95.6115 0.026904 92.4404 1.8708 89.251C5.25076 83.4119 8.61853 77.5698 11.9893 71.7276L24.9027 49.347C33.281 34.827 41.6623 20.307 50.0436 5.79008C52.0308 2.35675 55.3924 0.304688 59.0437 0.304688C60.9576 0.304688 62.8594 0.884023 64.5388 1.97561C65.8981 2.85986 67.0044 4.09171 68.0193 5.85716C76.7115 20.9321 85.4128 36.004 94.1111 51.0728L101.685 64.1932L105.479 70.7702C108.911 76.7221 112.462 82.8752 115.97 88.9186C116.695 90.1688 117.241 91.5531 117.682 93.2819L117.692 93.3185V96.1451L117.676 96.1908C117.606 96.4012 117.539 96.6116 117.475 96.825C117.332 97.2885 117.183 97.7672 116.991 98.2276C115.32 102.188 112.34 104.353 108.131 104.661C107.78 104.686 107.427 104.686 107.082 104.686H63.8591C46.2309 104.686 28.5996 104.686 10.9714 104.695H10.9653ZM58.9827 4.39967C56.5841 4.40882 54.8012 5.57359 53.3657 8.06169C45.0697 22.4627 36.6213 37.0986 28.4503 51.2527L18.9687 67.6753C17.4784 70.2579 15.988 72.8436 14.5007 75.4262C11.5352 80.5731 8.46919 85.8969 5.43362 91.1232C4.15052 93.3368 4.01946 95.3645 5.03437 97.3251C6.21994 99.6089 8.15527 100.673 11.1268 100.673C17.9599 100.658 25.2166 100.652 34.689 100.652C38.7456 100.652 54.9779 100.658 59.0345 100.658C59.0345 100.658 95.9215 100.658 106.461 100.658C107.079 100.658 107.631 100.643 108.152 100.615C109.341 100.548 110.432 100.109 111.398 99.307C113.897 97.2367 114.303 94.1235 112.489 90.9768C103.773 75.8714 95.0529 60.766 86.3333 45.6606L74.2763 24.774C70.9939 19.0904 67.7145 13.4068 64.4412 7.72018C63.1551 5.48822 61.3782 4.40272 59.0071 4.40272H58.9766L58.9827 4.39967Z" fill="#404041"/>
<path d="M59.044 0.609827C60.8513 0.609827 62.6891 1.13428 64.3745 2.23197C65.8436 3.18635 66.8889 4.50357 67.7576 6.00984C78.9733 25.4603 90.2012 44.9016 101.423 64.3459C106.181 72.5907 110.929 80.8417 115.708 89.0713C116.494 90.4251 117.003 91.8613 117.387 93.3584V96.0965C117.165 96.7704 116.982 97.4595 116.708 98.112C115.101 101.923 112.264 104.055 108.107 104.36C107.765 104.384 107.424 104.384 107.083 104.384C104.133 104.384 101.188 104.384 98.2412 104.384C86.6689 104.384 75.0935 104.384 63.5212 104.384C46.0027 104.384 28.4842 104.384 10.9687 104.393H10.9626C6.58299 104.393 3.35846 102.555 1.50543 98.5541C0.0577411 95.4257 0.420424 92.3644 2.13326 89.4067C6.88167 81.2015 11.6148 72.9841 16.3541 64.7728C27.6735 45.1638 38.9867 25.5517 50.3091 5.94581C52.3024 2.49114 55.6214 0.609827 59.044 0.609827ZM11.1333 100.978H11.1607C19.0056 100.96 26.8475 100.957 34.6924 100.957C42.5374 100.957 50.9278 100.963 59.044 100.963C63.5608 100.963 68.0776 100.963 72.5943 100.963C83.8863 100.963 95.1782 100.963 106.47 100.963C107.04 100.963 107.61 100.951 108.18 100.92C109.472 100.847 110.609 100.365 111.603 99.542C114.218 97.3772 114.659 94.1115 112.761 90.8246C100.119 68.9165 87.4735 47.0146 74.8283 25.1096C71.4545 19.2644 68.0806 13.4192 64.7128 7.56795C63.4419 5.36038 61.6072 4.09804 59.0166 4.09804H58.9861C56.2187 4.11023 54.4389 5.60126 53.107 7.9125C41.6566 27.7929 30.1787 47.658 18.7131 67.5261C14.2024 75.3441 9.70998 83.1712 5.17797 90.977C3.94668 93.0992 3.62057 95.255 4.77262 97.4717C6.10144 100.033 8.31411 100.984 11.1363 100.984L11.1333 100.978ZM59.044 0C55.2831 0 51.8208 2.11 49.7819 5.6409C41.495 19.9932 33.2112 34.3485 24.9274 48.7038L15.8299 64.4678C14.4767 66.8126 13.1235 69.1574 11.7703 71.5053C8.44212 77.2742 5.0012 83.2383 1.60905 89.1018C-0.289703 92.3827 -0.509142 95.6483 0.956829 98.8103C2.85863 102.917 6.2264 105.003 10.9657 105.003C29.4747 104.997 47.9197 104.994 63.5242 104.994H107.086C107.436 104.994 107.796 104.994 108.156 104.966C112.489 104.649 115.556 102.42 117.274 98.3468C117.473 97.8742 117.625 97.3863 117.771 96.9167C117.835 96.7064 117.902 96.496 117.969 96.2886L118 96.1941V93.2822L117.982 93.209C117.534 91.4527 116.979 90.0409 116.238 88.7664C112.706 82.6834 109.131 76.4875 105.675 70.496C104.434 68.3433 103.194 66.1937 101.95 64.041L94.5595 51.2407C85.9435 36.3182 77.0349 20.8866 68.2818 5.70493C67.2394 3.89679 66.1026 2.6314 64.7006 1.71971C62.9695 0.594581 61.0129 0 59.0379 0L59.044 0ZM11.1333 100.368C8.28668 100.368 6.4367 99.3561 5.30903 97.1851C4.34289 95.3251 4.47089 93.395 5.69914 91.2789C8.7408 86.0374 11.816 80.6984 14.7906 75.5362C16.2718 72.9658 17.753 70.3954 19.2342 67.828C22.3521 62.4249 25.473 57.0188 28.5908 51.6157C36.8015 37.3946 45.2925 22.6856 53.6282 8.21437C55.0027 5.82995 56.7033 4.71396 58.98 4.70481H59.0074C61.2597 4.70481 62.9512 5.74152 64.1764 7.86982C67.276 13.2546 70.4335 18.7247 73.4873 24.015L74.2919 25.4115L86.3032 46.2188C94.9435 61.187 103.587 76.1582 112.224 91.1264C113.958 94.1329 113.578 97.1027 111.203 99.0694C110.289 99.8287 109.256 100.243 108.134 100.307C107.622 100.335 107.074 100.35 106.461 100.35C95.1691 100.35 83.8771 100.35 72.5852 100.35H59.0349C54.9844 100.35 50.9309 100.35 46.8804 100.35C42.8147 100.35 38.749 100.35 34.6833 100.35C25.2139 100.35 17.9542 100.356 11.1516 100.371H11.1272L11.1333 100.368Z" fill="#404041"/>
<path d="M16.0612 93.7025C14.5617 93.7025 13.9369 93.1689 13.6809 92.7207C13.4218 92.2724 13.2725 91.4675 14.0222 90.1685C21.3277 77.5024 28.6362 64.8394 35.9417 52.1763L56.895 15.8642C56.9346 15.7971 56.9712 15.727 57.0108 15.6568C57.279 15.1751 57.5838 14.6262 58.2208 14.3884C58.5195 14.2756 58.809 14.2207 59.0833 14.2207C59.7812 14.2207 60.3573 14.5744 60.7565 15.2452C62.0427 17.4101 63.1612 19.3463 64.1731 21.1636C64.7552 22.2064 64.4656 23.3834 63.4873 23.9596C63.1643 24.1517 62.8229 24.2463 62.4755 24.2463C61.7623 24.2463 61.0979 23.8255 60.6499 23.0937C60.2171 22.3863 59.8056 21.6606 59.3668 20.8922C59.2479 20.6849 59.129 20.4745 59.0041 20.258L18.9535 89.6715H42.9302C43.8476 89.6715 44.7649 89.6715 45.6823 89.6715C47.2763 89.6776 48.1937 90.4155 48.2028 91.6931C48.2059 92.2694 48.0382 92.7329 47.706 93.0683C47.2854 93.4921 46.6302 93.6994 45.7098 93.6994C40.5225 93.6994 35.3352 93.6994 30.1479 93.6994C25.4544 93.6994 20.7578 93.6994 16.0642 93.6994L16.0612 93.7025Z" fill="#404041"/>
<path d="M59.0866 14.5258C59.6596 14.5258 60.1503 14.8155 60.4977 15.4009C61.6589 17.3585 62.8018 19.3252 63.9112 21.3132C64.4263 22.2371 64.1459 23.222 63.3383 23.6976C63.0579 23.8623 62.7653 23.9446 62.4788 23.9446C61.8875 23.9446 61.3176 23.6001 60.9153 22.9384C60.2905 21.9139 59.7114 20.8619 59.0135 19.6514C45.4571 43.142 31.9921 66.474 18.4265 89.9797C25.4272 89.9797 32.1902 89.9797 38.9532 89.9797C40.282 89.9797 41.6077 89.9797 42.9366 89.9797C43.8509 89.9797 44.7652 89.9797 45.6826 89.9858C47.1242 89.9919 47.8922 90.6018 47.9014 91.7056C47.9075 92.8368 47.1882 93.4039 45.71 93.4039C40.5624 93.4039 35.4147 93.4039 30.264 93.4039C25.5308 93.4039 20.7977 93.4039 16.0645 93.4039C13.8823 93.4039 13.1935 92.2208 14.2877 90.3273C23.9125 73.6394 33.5434 56.9515 43.1743 40.2666C47.8374 32.1864 52.5004 24.1062 57.1635 16.026C57.4652 15.5016 57.7182 14.9131 58.3338 14.6844C58.599 14.5868 58.852 14.535 59.0897 14.535L59.0866 14.5258ZM59.0897 13.9252C58.7788 13.9252 58.4527 13.9892 58.1205 14.1142C57.3768 14.3917 57.0294 15.0198 56.749 15.5229C56.7124 15.59 56.6728 15.6571 56.6362 15.7242L48.6694 29.5306L42.647 39.9648L37.1428 49.5025C29.3466 63.0101 21.5535 76.5178 13.7604 90.0285C12.9375 91.4525 13.1204 92.3703 13.419 92.8856C13.7177 93.4039 14.4187 94.0198 16.0645 94.0198C20.7977 94.0198 25.5308 94.0198 30.264 94.0198C35.4117 94.0198 40.5593 94.0198 45.71 94.0198C46.7188 94.0198 47.4412 93.785 47.9227 93.3002C48.3159 92.9038 48.514 92.3672 48.5079 91.7086C48.4987 90.2603 47.4442 89.3913 45.6826 89.3852C44.7683 89.3821 43.8509 89.3791 42.9335 89.3791C42.2691 89.3791 41.6047 89.3791 40.9403 89.3791C40.2759 89.3791 39.6145 89.3791 38.9501 89.3791H19.481L28.4963 73.7553L59.0074 20.8711C59.0409 20.929 59.0714 20.987 59.1049 21.0418C59.5438 21.8133 59.9583 22.539 60.3911 23.2525C60.894 24.0757 61.6528 24.5514 62.4757 24.5514C62.878 24.5514 63.2712 24.4416 63.643 24.2221C64.7707 23.5604 65.1029 22.2097 64.4385 21.0175C63.4266 19.2032 62.3081 17.264 61.0189 15.0899C60.5709 14.3337 59.8821 13.916 59.0836 13.916L59.0897 13.9252Z" fill="#404041"/>
<path d="M71.9696 93.7073C71.8386 93.7073 71.6862 93.7042 71.5277 93.6798C70.5768 93.5335 69.9825 92.945 69.8545 92.018C69.7173 91.0179 70.1318 90.2739 71.0553 89.8684C71.4484 89.6946 71.8538 89.6733 72.2317 89.6733H99.0733C99.0215 89.5117 98.924 89.3684 98.8143 89.2098C98.7563 89.1214 98.6984 89.036 98.6466 88.9476C89.4759 73.0433 80.2991 57.142 71.1223 41.2408L64.9933 30.6207C64.9476 30.5444 64.9019 30.4652 64.8531 30.3889C64.7129 30.1633 64.5697 29.9316 64.4813 29.6663C64.1155 28.5534 64.4325 27.66 65.3651 27.1508C65.7095 26.9617 66.0509 26.8672 66.3831 26.8672C66.9682 26.8672 67.5138 27.1721 67.9557 27.7484C68.1111 27.9496 68.23 28.1661 68.3489 28.3765L68.4525 28.5595C80.2626 49.0192 92.0696 69.4758 103.877 89.9355L103.968 90.091C104.154 90.4112 104.349 90.7405 104.462 91.1094C104.654 91.7253 104.581 92.3321 104.261 92.8169C103.931 93.3139 103.386 93.6249 102.725 93.6951C102.597 93.7073 102.465 93.7103 102.334 93.7103H71.9727L71.9696 93.7073Z" fill="#404041"/>
<path d="M66.3801 27.1687C66.883 27.1687 67.331 27.437 67.712 27.9309C67.8948 28.1688 68.035 28.4432 68.1844 28.7054C79.9944 49.1651 91.8015 69.6217 103.608 90.0814C103.816 90.4412 104.044 90.801 104.166 91.1944C104.511 92.3043 103.843 93.2647 102.688 93.3837C102.569 93.3959 102.45 93.3989 102.331 93.3989C102.261 93.3989 102.188 93.3989 102.118 93.3989C97.4794 93.3989 92.8438 93.3989 88.2051 93.3989C82.8868 93.3989 77.5684 93.3989 72.2501 93.3989C72.1556 93.3989 72.0611 93.3989 71.9666 93.3989C71.8325 93.3989 71.6984 93.3959 71.5704 93.3745C70.7658 93.2525 70.266 92.786 70.1532 91.9719C70.0344 91.1212 70.3727 90.4961 71.1742 90.1424C71.5156 89.993 71.8722 89.9717 72.2288 89.9717C72.3629 89.9717 72.497 89.9717 72.6311 89.9717C78.2511 89.9717 83.8742 89.9717 89.4943 89.9717C92.3836 89.9717 95.2759 89.9717 98.1652 89.9717H99.4117C99.43 89.4411 99.1069 89.1332 98.9058 88.7856C87.6931 69.3412 76.4712 49.9 65.2524 30.4587C65.0818 30.1629 64.8715 29.8793 64.7648 29.5622C64.4722 28.6749 64.6307 27.8883 65.5054 27.4095C65.8102 27.2418 66.1028 27.1626 66.3771 27.1626L66.3801 27.1687ZM66.3771 26.5527C65.9961 26.5527 65.6029 26.6595 65.2128 26.8729C64.1491 27.4522 63.7743 28.5011 64.1857 29.7513C64.2832 30.0531 64.4448 30.3123 64.588 30.541C64.6337 30.6142 64.6795 30.6904 64.7221 30.7636L70.5921 40.9355C79.8542 56.9861 89.1194 73.0368 98.3755 89.0905C98.4303 89.188 98.4913 89.2765 98.5492 89.3618H72.6311C72.564 89.3618 72.5 89.3618 72.436 89.3618C72.3659 89.3618 72.2958 89.3618 72.2288 89.3618C71.8173 89.3618 71.3723 89.3893 70.9274 89.5844C69.8789 90.0448 69.3882 90.923 69.5467 92.0573C69.6961 93.1275 70.3788 93.8105 71.476 93.9782C71.6558 94.0057 71.8234 94.0087 71.9666 94.0087C72.0154 94.0087 72.0672 94.0087 72.116 94.0087H102.331C102.453 94.0087 102.6 94.0087 102.749 93.9904C103.505 93.9142 104.13 93.5544 104.508 92.9781C104.879 92.414 104.965 91.7158 104.745 91.0114C104.62 90.6089 104.416 90.2613 104.221 89.9259L104.133 89.7735C92.3257 69.3138 80.5187 48.8541 68.7086 28.3975C68.6751 28.3365 68.6415 28.2785 68.608 28.2176C68.4861 27.998 68.3581 27.7724 68.1905 27.5559C67.5565 26.7296 66.8525 26.5558 66.374 26.5558L66.3771 26.5527Z" fill="#404041"/>
<path d="M58.5566 77.2595C58.0995 77.2595 57.6423 77.2595 57.1851 77.2504C54.9542 77.2199 53.3693 75.7136 53.2474 73.506C52.9884 68.85 52.7384 64.1147 52.4977 59.5318L52.3392 56.5376C52.2813 55.4125 52.2203 54.2904 52.1594 53.1652C51.9796 49.8295 51.7967 46.3779 51.6473 42.9842C51.5833 41.545 51.9186 40.4321 52.644 39.6728C53.3785 38.9044 54.5031 38.5111 55.9874 38.5081H57.2278C58.0446 38.505 58.8583 38.502 59.6751 38.502C60.5742 38.502 61.4764 38.502 62.3755 38.5111C63.622 38.5202 64.6643 38.9258 65.3836 39.685C66.0876 40.426 66.429 41.4444 66.3802 42.6366C66.2248 46.2498 66.0267 49.921 65.8377 53.4702C65.7585 54.9459 65.6792 56.4217 65.603 57.8975L65.5878 58.1872H65.5817C65.5085 59.5593 65.4354 60.9283 65.3623 62.3004C65.1733 65.8222 64.9752 69.4629 64.8015 73.0425C64.6643 75.8234 63.2166 77.2382 60.495 77.2473H59.8153C59.3947 77.2504 58.9742 77.2534 58.5536 77.2534L58.5566 77.2595ZM56.2403 42.5116C55.9934 42.5116 55.8319 42.5482 55.7588 42.6244C55.6521 42.7402 55.6521 43.0543 55.6673 43.347C55.9051 47.6677 56.1336 51.9913 56.3592 56.315C56.6091 61.0534 56.859 65.7917 57.1211 70.527C57.1364 70.8228 57.1211 71.1521 57.0998 71.4722C57.0632 72.1309 57.0205 72.8748 57.3375 73.1035C57.5265 73.2377 57.813 73.3017 58.2427 73.3017C58.4804 73.3017 58.7303 73.2834 58.9955 73.2651C59.2667 73.2468 59.5441 73.2255 59.8153 73.2255C59.9311 73.2255 60.047 73.2285 60.1597 73.2377C60.2207 73.2438 60.2755 73.2438 60.3274 73.2438C60.6535 73.2438 60.7662 73.2133 60.7937 72.5943C60.9643 68.8713 61.1716 65.0904 61.3697 61.4314C61.4306 60.3155 61.4916 59.1964 61.5526 58.0804H61.5495L61.7568 54.1379C61.9457 50.5308 62.1408 46.8017 62.3602 43.1336C62.3815 42.7829 62.3328 42.6549 62.2901 42.6091C62.2353 42.5512 62.089 42.5207 61.8573 42.5207H61.7598C60.6017 42.5573 59.7148 42.5725 58.8919 42.5725C57.9836 42.5725 57.1638 42.5543 56.3866 42.5116C56.3348 42.5116 56.286 42.5085 56.2373 42.5085L56.2403 42.5116Z" fill="#2F9FEE"/>
<path d="M59.6814 38.8099C60.5804 38.8099 61.4765 38.8099 62.3756 38.819C64.6858 38.8373 66.1792 40.3162 66.0786 42.6305C65.8592 47.7195 65.5666 52.8054 65.3045 57.8914H65.2984C65.0302 62.9408 64.7467 67.9871 64.5029 73.0364C64.378 75.6221 63.0583 76.9424 60.5012 76.9515C59.8551 76.9515 59.2059 76.9576 58.5598 76.9576C58.1057 76.9576 57.6485 76.9576 57.1944 76.9485C55.1432 76.918 53.6712 75.5459 53.5554 73.4938C53.2384 67.8377 52.9458 62.1815 52.6502 56.5284C52.4125 52.0127 52.1564 47.4938 51.9583 42.975C51.8364 40.2156 53.2293 38.8221 55.9936 38.819C57.2249 38.819 58.4531 38.813 59.6844 38.813L59.6814 38.8099ZM58.2489 73.6097C58.7487 73.6097 59.3065 73.5335 59.8216 73.5335C59.9313 73.5335 60.0379 73.5365 60.1416 73.5456C60.2086 73.5517 60.2726 73.5548 60.3336 73.5548C60.9218 73.5548 61.0742 73.2804 61.1047 72.6157C61.3302 67.6852 61.6136 62.7578 61.8788 57.8304H61.8757C62.1348 52.9396 62.3817 48.0488 62.6712 43.161C62.7139 42.4384 62.5219 42.2249 61.8636 42.2249C61.83 42.2249 61.7935 42.2249 61.7569 42.2249C60.8029 42.2524 59.849 42.2768 58.895 42.2768C58.063 42.2768 57.234 42.2615 56.405 42.2188C56.3471 42.2188 56.2923 42.2158 56.2404 42.2158C55.4175 42.2158 55.3231 42.5939 55.3657 43.3714C55.8625 52.4304 56.3197 61.4924 56.8195 70.5514C56.8744 71.521 56.5239 72.8992 57.1609 73.3596C57.4413 73.5609 57.8222 73.6158 58.2428 73.6158L58.2489 73.6097ZM59.6783 38.2092C58.8646 38.2092 58.0478 38.2092 57.234 38.2123H55.9875C54.4179 38.2184 53.2171 38.6392 52.4246 39.4716C51.6414 40.2918 51.2787 41.4809 51.3457 43.0055C51.4951 46.4144 51.681 49.8752 51.8608 53.2232C51.9218 54.3361 51.9797 55.449 52.0376 56.562L52.1839 59.3611C52.4277 64.0049 52.6807 68.8073 52.9428 73.5304C53.0769 75.9087 54.7775 77.5278 57.1791 77.5614C57.6363 77.5675 58.0935 77.5705 58.5537 77.5705C58.9743 77.5705 59.3918 77.5705 59.8124 77.5675H60.4951C63.3691 77.5553 64.9631 76.0033 65.1033 73.07C65.277 69.4903 65.4751 65.8527 65.6641 62.334C65.7312 61.0686 65.8013 59.8032 65.8683 58.5409L65.9079 57.928C65.9841 56.4522 66.0634 54.9764 66.1426 53.4976C66.3316 49.9453 66.5266 46.2742 66.6851 42.661C66.74 41.3834 66.3681 40.2857 65.6062 39.4838C64.826 38.6635 63.7105 38.2245 62.3786 38.2123C61.4795 38.2062 60.5804 38.2031 59.6814 38.2031L59.6783 38.2092ZM55.9844 42.85C56.021 42.8409 56.0972 42.8256 56.2374 42.8256C56.2801 42.8256 56.3227 42.8256 56.3684 42.8287C57.1517 42.8683 57.9746 42.8896 58.8889 42.8896C59.7179 42.8896 60.6048 42.8744 61.7691 42.8378C61.7995 42.8378 61.827 42.8378 61.8575 42.8378C61.9519 42.8378 62.0159 42.8439 62.0525 42.85C62.0586 42.8988 62.0647 42.9842 62.0525 43.1275C61.8331 46.8017 61.638 50.5399 61.4491 54.1532C61.3851 55.3698 61.3211 56.5864 61.257 57.803L61.2235 58.4158H61.2266C61.1717 59.419 61.1169 60.4222 61.062 61.4253C60.8608 65.0843 60.6566 68.8683 60.4829 72.5943C60.4738 72.7986 60.4524 72.8992 60.4402 72.945C60.4159 72.948 60.3793 72.9511 60.3214 72.9511C60.2757 72.9511 60.23 72.9511 60.1781 72.945C60.0623 72.9358 59.9435 72.9328 59.8094 72.9328C59.529 72.9328 59.2425 72.9541 58.9682 72.9724C58.7091 72.9907 58.4623 73.009 58.2367 73.009C57.8801 73.009 57.6424 72.9633 57.5114 72.8687C57.3285 72.7376 57.3742 71.9631 57.4016 71.4997C57.4199 71.1734 57.4382 70.835 57.423 70.5209C57.1609 65.7673 56.9048 60.9314 56.658 56.2571C56.4355 52.0249 56.2039 47.6463 55.9661 43.3409C55.9479 43.033 55.9661 42.9049 55.9783 42.8531L55.9844 42.85Z" fill="#2F9FEE"/>
<path d="M58.9624 95.5325C54.8357 95.5112 51.4954 92.148 51.5167 88.0347C51.538 83.9062 54.8967 80.546 59.0081 80.543C61.0227 80.543 62.9153 81.3449 64.3508 82.8054C65.7772 84.2568 66.5421 86.1503 66.5086 88.1414C66.4385 92.2852 63.1408 95.5325 59.005 95.5325H58.9654H58.9624ZM58.9685 84.577C57.088 84.6075 55.5215 86.2205 55.5489 88.1018C55.5763 90.0105 57.1032 91.5046 59.0233 91.5046H59.0599C59.9925 91.4955 60.8611 91.1235 61.5103 90.4618C62.1503 89.8032 62.4978 88.9342 62.4825 88.0134C62.4521 86.1198 60.9007 84.58 59.0233 84.58H58.9715L58.9685 84.577Z" fill="#2F9FEE"/>
<path d="M59.011 80.8481C62.9792 80.8481 66.2677 84.1808 66.2006 88.1355C66.1336 92.1116 62.9639 95.2278 59.0018 95.2278H58.9622C55.0001 95.2065 51.8 91.9866 51.8213 88.0349C51.8396 84.0924 55.0824 80.8512 59.0079 80.8481H59.014H59.011ZM59.0262 91.8037C59.0262 91.8037 59.0506 91.8037 59.0658 91.8037C61.1536 91.7854 62.8237 90.0809 62.7902 88.0044C62.7567 85.9554 61.0499 84.2692 59.0262 84.2692C59.0079 84.2692 58.9896 84.2692 58.9683 84.2692C56.908 84.3028 55.2196 86.0408 55.2501 88.102C55.2805 90.1846 56.9385 91.8037 59.0293 91.8037H59.0262ZM59.0171 80.2383H59.014C54.735 80.2413 51.2392 83.7387 51.2179 88.0319C51.1965 92.3129 54.671 95.8133 58.9653 95.8377H59.0079C63.3144 95.8377 66.7431 92.4592 66.8163 88.1477C66.8529 86.0743 66.0543 84.1015 64.5701 82.5922C63.0797 81.0737 61.1078 80.2383 59.0171 80.2383ZM59.0293 91.1938C57.2768 91.1938 55.884 89.8309 55.8596 88.0929C55.8352 86.3762 57.2616 84.9065 58.9805 84.8791H59.0293C60.7116 84.8791 62.1563 86.3152 62.1837 88.0136C62.1959 88.8521 61.882 89.6418 61.2999 90.2425C60.7086 90.8493 59.9162 91.1847 59.0658 91.1938H59.0323H59.0293Z" fill="#2F9FEE"/>
</g>
<defs>
<clipPath id="clip0_473_787">
<rect width="118" height="105" fill="white"/>
</clipPath>
</defs>
</svg>
